<?xml version="1.0" encoding="iso-8859-1"?>
<!-- Generator: Adobe Illustrator 18.0.0, SVG Export Plug-In . SVG Version: 6.00 Build 0)  -->
<!DOCTYPE svg PUBLIC "-//W3C//DTD SVG 1.1//EN" "http://www.w3.org/Graphics/SVG/1.1/DTD/svg11.dtd">
<svg version="1.1" id="Capa_1" xmlns="http://www.w3.org/2000/svg" xmlns:xlink="http://www.w3.org/1999/xlink" x="0px" y="0px"
	 viewBox="0 0 28 28" style="enable-background:new 0 0 28 28;" xml:space="preserve">
<g id="_x34__5_">
	<g>
		<path style="fill-rule:evenodd;clip-rule:evenodd;" d="M26,13v11c0,1.087-0.914,2-2,2L3.934,26.033
			c-1.086,0-1.967-0.881-1.967-1.967L2,4c0-1.087,0.914-2,2-2h11V0H4C1.827,0,0,2.221,0,4.393v19.672C0,26.239,1.761,28,3.934,28
			h19.672C25.779,28,28,26.173,28,24V13H26z M11,11c0.001-0.555-0.445-1.001-1-1c-0.555,0.001-0.999,0.445-1,1v7
			c-0.001,0.555,0.445,1.001,1,1h7c0.555-0.001,0.999-0.445,1-1c0.001-0.555-0.445-1.001-1-1h-4.491L27.293,2.216
			c0.391-0.391,0.391-1.024,0-1.414c-0.391-0.391-1.024-0.391-1.414,0L11,15.681V11z"/>
	</g>
</g>
<g>
</g>
<g>
</g>
<g>
</g>
<g>
</g>
<g>
</g>
<g>
</g>
<g>
</g>
<g>
</g>
<g>
</g>
<g>
</g>
<g>
</g>
<g>
</g>
<g>
</g>
<g>
</g>
<g>
</g>
</svg>
