<?xml version="1.0" encoding="iso-8859-1"?>
<!-- Generator: Adobe Illustrator 18.0.0, SVG Export Plug-In . SVG Version: 6.00 Build 0)  -->
<!DOCTYPE svg PUBLIC "-//W3C//DTD SVG 1.1//EN" "http://www.w3.org/Graphics/SVG/1.1/DTD/svg11.dtd">
<svg version="1.1" id="Capa_1" xmlns="http://www.w3.org/2000/svg" xmlns:xlink="http://www.w3.org/1999/xlink" x="0px" y="0px"
	 viewBox="0 0 27.983 28.014" style="enable-background:new 0 0 27.983 28.014;" xml:space="preserve">
<g id="_x34__20_">
	<g>
		<path style="fill-rule:evenodd;clip-rule:evenodd;" d="M26.559,10.197L12.322,24.276c-2.359,2.333-6.184,2.333-8.543,0
			c-2.359-2.333-2.359-6.115,0-8.448L16.593,3.157c1.573-1.555,4.122-1.555,5.695,0c1.573,1.555,1.573,4.077,0,5.632L9.474,21.46
			c-0.786,0.778-2.061,0.778-2.848,0c-0.786-0.777-0.786-2.038,0-2.816l11.39-11.263l-1.424-1.408L5.203,17.237
			c-1.573,1.555-1.573,4.077,0,5.632c1.573,1.555,4.122,1.555,5.695,0l12.814-12.671c2.359-2.333,2.359-6.115,0-8.448
			c-2.359-2.333-6.184-2.333-8.543,0L1.643,15.125l0.049,0.049c-2.457,3.124-2.241,7.64,0.663,10.511
			c2.904,2.871,7.469,3.086,10.629,0.655l0.049,0.049l14.949-14.783L26.559,10.197z"/>
	</g>
</g>
<g>
</g>
<g>
</g>
<g>
</g>
<g>
</g>
<g>
</g>
<g>
</g>
<g>
</g>
<g>
</g>
<g>
</g>
<g>
</g>
<g>
</g>
<g>
</g>
<g>
</g>
<g>
</g>
<g>
</g>
</svg>
