<?xml version="1.0" encoding="iso-8859-1"?>
<!-- Generator: Adobe Illustrator 18.0.0, SVG Export Plug-In . SVG Version: 6.00 Build 0)  -->
<!DOCTYPE svg PUBLIC "-//W3C//DTD SVG 1.1//EN" "http://www.w3.org/Graphics/SVG/1.1/DTD/svg11.dtd">
<svg version="1.1" id="Capa_1" xmlns="http://www.w3.org/2000/svg" xmlns:xlink="http://www.w3.org/1999/xlink" x="0px" y="0px"
	 viewBox="0 0 16 32" style="enable-background:new 0 0 16 32;" xml:space="preserve">
<g id="_x33__20_">
	<g>
		<path style="fill-rule:evenodd;clip-rule:evenodd;" d="M14,4v20c0,3.314-2.686,6-6,6c-3.314,0-6-2.686-6-6V6c0-2.209,1.791-4,4-4
			c2.209,0,4,1.791,4,4v18c0,1.105-0.896,2-2,2c-1.105,0-2-0.895-2-2V8H4v16c0,2.209,1.791,4,4,4c2.209,0,4-1.791,4-4V6
			c0-3.314-2.686-6-6-6C2.686,0,0,2.686,0,6v19c0.493,3.945,3.921,7,8,7c4.079,0,7.507-3.055,8-7V4H14z"/>
	</g>
</g>
<g>
</g>
<g>
</g>
<g>
</g>
<g>
</g>
<g>
</g>
<g>
</g>
<g>
</g>
<g>
</g>
<g>
</g>
<g>
</g>
<g>
</g>
<g>
</g>
<g>
</g>
<g>
</g>
<g>
</g>
</svg>
