<?xml version="1.0" encoding="iso-8859-1"?>
<!-- Generator: Adobe Illustrator 18.0.0, SVG Export Plug-In . SVG Version: 6.00 Build 0)  -->
<!DOCTYPE svg PUBLIC "-//W3C//DTD SVG 1.1//EN" "http://www.w3.org/Graphics/SVG/1.1/DTD/svg11.dtd">
<svg version="1.1" id="Capa_1" xmlns="http://www.w3.org/2000/svg" xmlns:xlink="http://www.w3.org/1999/xlink" x="0px" y="0px"
	 viewBox="0 0 32 32" style="enable-background:new 0 0 32 32;" xml:space="preserve">
<g id="_x34__2_">
	<g>
		<path style="fill-rule:evenodd;clip-rule:evenodd;" d="M23,15H12.414l4.121-4.121c0.391-0.391,0.391-1.024,0-1.414
			c-0.391-0.391-1.024-0.391-1.414,0l-5.657,5.657C9.225,15.361,9.15,15.69,9.205,16c-0.055,0.31,0.02,0.639,0.26,0.879l5.657,5.657
			c0.391,0.391,1.024,0.391,1.414,0c0.391-0.391,0.391-1.024,0-1.414L12.414,17H23c0.552,0,1-0.448,1-1C24,15.448,23.552,15,23,15z
			 M16,0C7.163,0,0,7.163,0,16c0,8.836,7.163,16,16,16s16-7.164,16-16C32,7.163,24.837,0,16,0z M16,30C8.268,30,2,23.732,2,16
			C2,8.268,8.268,2,16,2s14,6.268,14,14C30,23.732,23.732,30,16,30z"/>
	</g>
</g>
<g>
</g>
<g>
</g>
<g>
</g>
<g>
</g>
<g>
</g>
<g>
</g>
<g>
</g>
<g>
</g>
<g>
</g>
<g>
</g>
<g>
</g>
<g>
</g>
<g>
</g>
<g>
</g>
<g>
</g>
</svg>
