<?xml version="1.0" encoding="iso-8859-1"?>
<!-- Generator: Adobe Illustrator 18.0.0, SVG Export Plug-In . SVG Version: 6.00 Build 0)  -->
<!DOCTYPE svg PUBLIC "-//W3C//DTD SVG 1.1//EN" "http://www.w3.org/Graphics/SVG/1.1/DTD/svg11.dtd">
<svg version="1.1" id="Capa_1" xmlns="http://www.w3.org/2000/svg" xmlns:xlink="http://www.w3.org/1999/xlink" x="0px" y="0px"
	 viewBox="0 0 24 32" style="enable-background:new 0 0 24 32;" xml:space="preserve">
<g id="_x31__15_">
	<g>
		<path style="fill-rule:evenodd;clip-rule:evenodd;" d="M12,7c-2.761,0-5,2.239-5,5c0,2.761,2.239,5,5,5s5-2.239,5-5
			C17,9.239,14.761,7,12,7z M12,15c-1.657,0-3-1.343-3-3c0-1.657,1.343-3,3-3s3,1.343,3,3C15,13.657,13.657,15,12,15z M12,0
			C5.373,0,0,5.373,0,12c0,5.017,10.005,20.01,12,20c1.964,0.01,12-15.05,12-20C24,5.373,18.627,0,12,0z M12,29
			C10.337,29.009,2,16.181,2,12C2,6.477,6.477,2,12,2s10,4.477,10,10C22,16.125,13.637,29.009,12,29z"/>
	</g>
</g>
<g>
</g>
<g>
</g>
<g>
</g>
<g>
</g>
<g>
</g>
<g>
</g>
<g>
</g>
<g>
</g>
<g>
</g>
<g>
</g>
<g>
</g>
<g>
</g>
<g>
</g>
<g>
</g>
<g>
</g>
</svg>
