<?xml version="1.0" encoding="iso-8859-1"?>
<!-- Generator: Adobe Illustrator 18.0.0, SVG Export Plug-In . SVG Version: 6.00 Build 0)  -->
<!DOCTYPE svg PUBLIC "-//W3C//DTD SVG 1.1//EN" "http://www.w3.org/Graphics/SVG/1.1/DTD/svg11.dtd">
<svg version="1.1" id="Capa_1" xmlns="http://www.w3.org/2000/svg" xmlns:xlink="http://www.w3.org/1999/xlink" x="0px" y="0px"
	 viewBox="0 0 22 30" style="enable-background:new 0 0 22 30;" xml:space="preserve">
<g id="_x37__20_">
	<g>
		<path style="fill-rule:evenodd;clip-rule:evenodd;" d="M18,0H4C1.791,0,0,1.791,0,4v22c0,2.209,1.791,4,4,4l7-7l7,7
			c2.209,0,4-1.791,4-4V4C22,1.791,20.209,0,18,0z M20,26c0,1.104-0.895,2-2,2l-7-7l-7,7c-1.105,0-2-0.895-2-2V4
			c0-1.105,0.895-2,2-2h14c1.105,0,2,0.895,2,2V26z"/>
	</g>
</g>
<g>
</g>
<g>
</g>
<g>
</g>
<g>
</g>
<g>
</g>
<g>
</g>
<g>
</g>
<g>
</g>
<g>
</g>
<g>
</g>
<g>
</g>
<g>
</g>
<g>
</g>
<g>
</g>
<g>
</g>
</svg>
