<?xml version="1.0" encoding="iso-8859-1"?>
<!-- Generator: Adobe Illustrator 18.0.0, SVG Export Plug-In . SVG Version: 6.00 Build 0)  -->
<!DOCTYPE svg PUBLIC "-//W3C//DTD SVG 1.1//EN" "http://www.w3.org/Graphics/SVG/1.1/DTD/svg11.dtd">
<svg version="1.1" id="Capa_1" xmlns="http://www.w3.org/2000/svg" xmlns:xlink="http://www.w3.org/1999/xlink" x="0px" y="0px"
	 viewBox="0 0 32 32" style="enable-background:new 0 0 32 32;" xml:space="preserve">
<g id="_x37__21_">
	<g>
		<path style="fill-rule:evenodd;clip-rule:evenodd;" d="M28,0c0,0-5.789,1.594-11.05,3c-0.659,0.026-1.324,0-1.984,0
			C9.955,1.656,4,0,4,0C1.791,0,0,1.791,0,4v21c0,2.209,1.885,3.312,4,4c0,0,5.393,1.5,10.967,3h2.025C22.612,30.5,28,29,28,29
			c2.053-0.531,4-1.791,4-4V4C32,1.791,30.209,0,28,0z M15,29.998C9.538,28.53,4,27,4,27c-1.136-0.312-2-0.895-2-2V4
			c0-1.104,0.895-2,2-2l11,3V29.998z M30,25c0,1.105-0.927,1.656-2,2c0,0-5.443,1.515-11,2.976V5l11-3c1.105,0,2,0.895,2,2V25z"/>
	</g>
</g>
<g>
</g>
<g>
</g>
<g>
</g>
<g>
</g>
<g>
</g>
<g>
</g>
<g>
</g>
<g>
</g>
<g>
</g>
<g>
</g>
<g>
</g>
<g>
</g>
<g>
</g>
<g>
</g>
<g>
</g>
</svg>
