<?xml version="1.0" encoding="iso-8859-1"?>
<!-- Generator: Adobe Illustrator 18.0.0, SVG Export Plug-In . SVG Version: 6.00 Build 0)  -->
<!DOCTYPE svg PUBLIC "-//W3C//DTD SVG 1.1//EN" "http://www.w3.org/Graphics/SVG/1.1/DTD/svg11.dtd">
<svg version="1.1" id="Capa_1" xmlns="http://www.w3.org/2000/svg" xmlns:xlink="http://www.w3.org/1999/xlink" x="0px" y="0px"
	 viewBox="0 0 12 32" style="enable-background:new 0 0 12 32;" xml:space="preserve">
<g id="_x31_0_15_">
	<g>
		<path style="fill-rule:evenodd;clip-rule:evenodd;" d="M9.013,12H9V1c0-0.552-0.448-1-1-1H4C3.448,0,3,0.448,3,1v11H2.987
			C0.969,12,0,13.791,0,16v16h12V16C12,13.791,10.98,12,9.013,12z M5,2h2v2H5V2z M5,6h2v6H5V6z M10,30H2V16c0-1.105,0.895-2,2-2h4
			c1.105,0,2,0.895,2,2V30z"/>
	</g>
</g>
<g>
</g>
<g>
</g>
<g>
</g>
<g>
</g>
<g>
</g>
<g>
</g>
<g>
</g>
<g>
</g>
<g>
</g>
<g>
</g>
<g>
</g>
<g>
</g>
<g>
</g>
<g>
</g>
<g>
</g>
</svg>
