<?xml version="1.0" encoding="iso-8859-1"?>
<!-- Generator: Adobe Illustrator 18.0.0, SVG Export Plug-In . SVG Version: 6.00 Build 0)  -->
<!DOCTYPE svg PUBLIC "-//W3C//DTD SVG 1.1//EN" "http://www.w3.org/Graphics/SVG/1.1/DTD/svg11.dtd">
<svg version="1.1" id="Capa_1" xmlns="http://www.w3.org/2000/svg" xmlns:xlink="http://www.w3.org/1999/xlink" x="0px" y="0px"
	 viewBox="0 0 32 28" style="enable-background:new 0 0 32 28;" xml:space="preserve">
<g id="_x32__5_">
	<g>
		<path style="fill-rule:evenodd;clip-rule:evenodd;" d="M4,10c-2.209,0-4,1.791-4,4s1.791,4,4,4c2.209,0,4-1.791,4-4S6.209,10,4,10
			z M4,16c-1.105,0-2-0.895-2-2c0-1.104,0.895-2,2-2s2,0.895,2,2C6,15.105,5.105,16,4,16z M4,20c-2.209,0-4,1.791-4,4
			c0,2.209,1.791,4,4,4c2.209,0,4-1.791,4-4C8,21.791,6.209,20,4,20z M4,26c-1.105,0-2-0.896-2-2c0-1.104,0.895-2,2-2s2,0.895,2,2
			C6,25.105,5.105,26,4,26z M28,8c2.209,0,4-1.791,4-4c0-2.209-1.791-4-4-4c-2.209,0-4,1.791-4,4C24,6.209,25.791,8,28,8z M28,2
			c1.105,0,2,0.896,2,2c0,1.105-0.895,2-2,2s-2-0.895-2-2C26,2.896,26.895,2,28,2z M28,20c-2.209,0-4,1.791-4,4c0,2.209,1.791,4,4,4
			c2.209,0,4-1.791,4-4C32,21.791,30.209,20,28,20z M28,26c-1.105,0-2-0.896-2-2c0-1.104,0.895-2,2-2s2,0.895,2,2
			C30,25.105,29.105,26,28,26z M4,0C1.791,0,0,1.791,0,4c0,2.209,1.791,4,4,4c2.209,0,4-1.791,4-4C8,1.791,6.209,0,4,0z M4,6
			C2.895,6,2,5.105,2,4c0-1.104,0.895-2,2-2s2,0.896,2,2C6,5.105,5.105,6,4,6z M28,10c-2.209,0-4,1.791-4,4s1.791,4,4,4
			c2.209,0,4-1.791,4-4S30.209,10,28,10z M28,16c-1.105,0-2-0.895-2-2c0-1.104,0.895-2,2-2s2,0.895,2,2C30,15.105,29.105,16,28,16z
			 M16,0c-2.209,0-4,1.791-4,4c0,2.209,1.791,4,4,4c2.209,0,4-1.791,4-4C20,1.791,18.209,0,16,0z M16,6c-1.105,0-2-0.895-2-2
			c0-1.104,0.895-2,2-2s2,0.896,2,2C18,5.105,17.105,6,16,6z M16,20c-2.209,0-4,1.791-4,4c0,2.209,1.791,4,4,4c2.209,0,4-1.791,4-4
			C20,21.791,18.209,20,16,20z M16,26c-1.105,0-2-0.896-2-2c0-1.104,0.895-2,2-2s2,0.895,2,2C18,25.105,17.105,26,16,26z M16,10
			c-2.209,0-4,1.791-4,4s1.791,4,4,4c2.209,0,4-1.791,4-4S18.209,10,16,10z M16,16c-1.105,0-2-0.895-2-2c0-1.104,0.895-2,2-2
			s2,0.895,2,2C18,15.105,17.105,16,16,16z"/>
	</g>
</g>
<g>
</g>
<g>
</g>
<g>
</g>
<g>
</g>
<g>
</g>
<g>
</g>
<g>
</g>
<g>
</g>
<g>
</g>
<g>
</g>
<g>
</g>
<g>
</g>
<g>
</g>
<g>
</g>
<g>
</g>
</svg>
