<?xml version="1.0" encoding="iso-8859-1"?>
<!-- Generator: Adobe Illustrator 18.0.0, SVG Export Plug-In . SVG Version: 6.00 Build 0)  -->
<!DOCTYPE svg PUBLIC "-//W3C//DTD SVG 1.1//EN" "http://www.w3.org/Graphics/SVG/1.1/DTD/svg11.dtd">
<svg version="1.1" id="Capa_1" xmlns="http://www.w3.org/2000/svg" xmlns:xlink="http://www.w3.org/1999/xlink" x="0px" y="0px"
	 viewBox="0 0 23 32" style="enable-background:new 0 0 23 32;" xml:space="preserve">
<g id="_x39__14_">
	<g>
		<path style="fill-rule:evenodd;clip-rule:evenodd;" d="M19,0H4C1.791,0,0,1.791,0,4v24c0,2.209,1.791,4,4,4h15
			c2.209,0,4-1.791,4-4V4C23,1.791,21.209,0,19,0z M21,28c0,1.105-0.895,2-2,2H4c-1.105,0-2-0.895-2-2v-3h19V28z M21,23H2V7h19V23z
			 M21,5H2V4c0-1.105,0.895-2,2-2h15c1.105,0,2,0.896,2,2V5z M11.5,29c0.828,0,1.5-0.672,1.5-1.5c0-0.828-0.672-1.5-1.5-1.5
			c-0.828,0-1.5,0.672-1.5,1.5C10,28.328,10.672,29,11.5,29z"/>
	</g>
</g>
<g>
</g>
<g>
</g>
<g>
</g>
<g>
</g>
<g>
</g>
<g>
</g>
<g>
</g>
<g>
</g>
<g>
</g>
<g>
</g>
<g>
</g>
<g>
</g>
<g>
</g>
<g>
</g>
<g>
</g>
</svg>
