<?xml version="1.0" encoding="iso-8859-1"?>
<!-- Generator: Adobe Illustrator 18.0.0, SVG Export Plug-In . SVG Version: 6.00 Build 0)  -->
<!DOCTYPE svg PUBLIC "-//W3C//DTD SVG 1.1//EN" "http://www.w3.org/Graphics/SVG/1.1/DTD/svg11.dtd">
<svg version="1.1" id="Capa_1" xmlns="http://www.w3.org/2000/svg" xmlns:xlink="http://www.w3.org/1999/xlink" x="0px" y="0px"
	 viewBox="0 0 28 26" style="enable-background:new 0 0 28 26;" xml:space="preserve">
<g id="_x36__19_">
	<g>
		<path style="fill-rule:evenodd;clip-rule:evenodd;" d="M1,2h26c0.552,0,1-0.448,1-1c0-0.552-0.448-1-1-1H1C0.448,0,0,0.448,0,1
			C0,1.552,0.448,2,1,2z M5,8C4.448,8,4,8.448,4,9s0.448,1,1,1h18c0.552,0,1-0.448,1-1s-0.448-1-1-1H5z M21,24H7
			c-0.552,0-1,0.448-1,1s0.448,1,1,1h14c0.552,0,1-0.448,1-1S21.552,24,21,24z M27,16H1c-0.552,0-1,0.448-1,1c0,0.552,0.448,1,1,1
			h26c0.552,0,1-0.448,1-1C28,16.448,27.552,16,27,16z"/>
	</g>
</g>
<g>
</g>
<g>
</g>
<g>
</g>
<g>
</g>
<g>
</g>
<g>
</g>
<g>
</g>
<g>
</g>
<g>
</g>
<g>
</g>
<g>
</g>
<g>
</g>
<g>
</g>
<g>
</g>
<g>
</g>
</svg>
