<?xml version="1.0" encoding="iso-8859-1"?>
<!-- Generator: Adobe Illustrator 18.0.0, SVG Export Plug-In . SVG Version: 6.00 Build 0)  -->
<!DOCTYPE svg PUBLIC "-//W3C//DTD SVG 1.1//EN" "http://www.w3.org/Graphics/SVG/1.1/DTD/svg11.dtd">
<svg version="1.1" id="Capa_1" xmlns="http://www.w3.org/2000/svg" xmlns:xlink="http://www.w3.org/1999/xlink" x="0px" y="0px"
	 viewBox="0 0 32 32" style="enable-background:new 0 0 32 32;" xml:space="preserve">
<g id="_x32__1_">
	<g>
		<path style="fill-rule:evenodd;clip-rule:evenodd;" d="M23.74,2H31c0.552,0,1-0.448,1-1c0-0.552-0.448-1-1-1H21c-0.121,0-1,0-1,1
			v10c0,0.552,0.448,1,1,1c0.552,0,1-0.448,1-1V3.359c4.728,2.246,8,7.058,8,12.641c0,7.732-6.268,14-14,14C8.268,30,2,23.732,2,16
			C2,8.949,7.218,3.132,14,2.159V0.138C6.11,1.124,0,7.842,0,16c0,8.837,7.163,16,16,16s16-7.163,16-16
			C32,9.972,28.664,4.728,23.74,2z"/>
	</g>
</g>
<g>
</g>
<g>
</g>
<g>
</g>
<g>
</g>
<g>
</g>
<g>
</g>
<g>
</g>
<g>
</g>
<g>
</g>
<g>
</g>
<g>
</g>
<g>
</g>
<g>
</g>
<g>
</g>
<g>
</g>
</svg>
