<?xml version="1.0" encoding="iso-8859-1"?>
<!-- Generator: Adobe Illustrator 18.0.0, SVG Export Plug-In . SVG Version: 6.00 Build 0)  -->
<!DOCTYPE svg PUBLIC "-//W3C//DTD SVG 1.1//EN" "http://www.w3.org/Graphics/SVG/1.1/DTD/svg11.dtd">
<svg version="1.1" id="Capa_1" xmlns="http://www.w3.org/2000/svg" xmlns:xlink="http://www.w3.org/1999/xlink" x="0px" y="0px"
	 viewBox="0 0 30 30" style="enable-background:new 0 0 30 30;" xml:space="preserve">
<g id="_x38__6_">
	<g>
		<path style="fill-rule:evenodd;clip-rule:evenodd;" d="M15,0C6.716,0,0,6.716,0,15c0,8.284,6.716,15,15,15c8.284,0,15-6.716,15-15
			C30,6.716,23.284,0,15,0z M16,27.95V23c0-0.552-0.448-1-1-1s-1,0.448-1,1v4.95C7.62,27.463,2.535,22.379,2.048,16H7
			c0.552,0,1-0.448,1-1s-0.448-1-1-1H2.048C2.535,7.621,7.62,2.538,14,2.051V7c0,0.552,0.448,1,1,1s1-0.448,1-1V2.051
			C22.38,2.538,27.465,7.621,27.952,14H23c-0.552,0-1,0.448-1,1s0.448,1,1,1h4.952C27.465,22.379,22.38,27.463,16,27.95z"/>
	</g>
</g>
<g>
</g>
<g>
</g>
<g>
</g>
<g>
</g>
<g>
</g>
<g>
</g>
<g>
</g>
<g>
</g>
<g>
</g>
<g>
</g>
<g>
</g>
<g>
</g>
<g>
</g>
<g>
</g>
<g>
</g>
</svg>
