<?xml version="1.0" encoding="iso-8859-1"?>
<!-- Generator: Adobe Illustrator 18.0.0, SVG Export Plug-In . SVG Version: 6.00 Build 0)  -->
<!DOCTYPE svg PUBLIC "-//W3C//DTD SVG 1.1//EN" "http://www.w3.org/Graphics/SVG/1.1/DTD/svg11.dtd">
<svg version="1.1" id="Capa_1" xmlns="http://www.w3.org/2000/svg" xmlns:xlink="http://www.w3.org/1999/xlink" x="0px" y="0px"
	 viewBox="0 0 32 32" style="enable-background:new 0 0 32 32;" xml:space="preserve">
<g id="_x39__20_">
	<g>
		<path style="fill-rule:evenodd;clip-rule:evenodd;" d="M15,0l-2,0v3C5.721,3.79,0,10.027,0,17.5C0,25.508,6.492,32,14.5,32
			c5.906,0,10.978-3.537,13.239-8.603L30,24c1.093-1.795,2-4.343,2-7.428C32,7.419,24.005,0,15,0z M14.5,30
			C7.596,30,2,24.404,2,17.5C2,11.21,6.917,5.878,13,5v13.429l12.709,4.427C24.017,27.128,19.163,30,14.5,30z M28.551,21.614L15,17
			V2c7.779-0.04,14.889,6.682,14.889,14.572C29.889,18.629,29.351,20.19,28.551,21.614z"/>
	</g>
</g>
<g>
</g>
<g>
</g>
<g>
</g>
<g>
</g>
<g>
</g>
<g>
</g>
<g>
</g>
<g>
</g>
<g>
</g>
<g>
</g>
<g>
</g>
<g>
</g>
<g>
</g>
<g>
</g>
<g>
</g>
</svg>
