<?xml version="1.0" encoding="iso-8859-1"?>
<!-- Generator: Adobe Illustrator 18.0.0, SVG Export Plug-In . SVG Version: 6.00 Build 0)  -->
<!DOCTYPE svg PUBLIC "-//W3C//DTD SVG 1.1//EN" "http://www.w3.org/Graphics/SVG/1.1/DTD/svg11.dtd">
<svg version="1.1" id="Capa_1" xmlns="http://www.w3.org/2000/svg" xmlns:xlink="http://www.w3.org/1999/xlink" x="0px" y="0px"
	 viewBox="0 0 28 32" style="enable-background:new 0 0 28 32;" xml:space="preserve">
<g id="_x38__21_">
	<g>
		<path style="fill-rule:evenodd;clip-rule:evenodd;" d="M21,19H7c-0.552,0-1,0.448-1,1s0.448,1,1,1h14c0.552,0,1-0.448,1-1
			S21.552,19,21,19z M21,24H7c-0.552,0-1,0.448-1,1c0,0.552,0.448,1,1,1h14c0.552,0,1-0.448,1-1C22,24.448,21.552,24,21,24z M24,4
			h-3V2h-2.694C17.44,0.809,15.846,0,14,0c-1.846,0-3.44,0.809-4.306,2H7v2H4C1.791,4,0,5.791,0,8v20c0,2.209,1.791,4,4,4h20
			c2.209,0,4-1.791,4-4V8C28,5.791,26.209,4,24,4z M9,4h2.222c0-1.104,1.244-2,2.778-2c1.534,0,2.778,0.895,2.778,2H19v4H9V4z
			 M26,28c0,1.104-0.895,2-2,2H4c-1.105,0-2-0.896-2-2V8c0-1.104,0.895-2,2-2h3v4h14V6h3c1.105,0,2,0.896,2,2V28z M21,14H7
			c-0.552,0-1,0.448-1,1c0,0.552,0.448,1,1,1h14c0.552,0,1-0.448,1-1C22,14.448,21.552,14,21,14z"/>
	</g>
</g>
<g>
</g>
<g>
</g>
<g>
</g>
<g>
</g>
<g>
</g>
<g>
</g>
<g>
</g>
<g>
</g>
<g>
</g>
<g>
</g>
<g>
</g>
<g>
</g>
<g>
</g>
<g>
</g>
<g>
</g>
</svg>
