<?xml version="1.0" encoding="iso-8859-1"?>
<!-- Generator: Adobe Illustrator 18.0.0, SVG Export Plug-In . SVG Version: 6.00 Build 0)  -->
<!DOCTYPE svg PUBLIC "-//W3C//DTD SVG 1.1//EN" "http://www.w3.org/Graphics/SVG/1.1/DTD/svg11.dtd">
<svg version="1.1" id="Capa_1" xmlns="http://www.w3.org/2000/svg" xmlns:xlink="http://www.w3.org/1999/xlink" x="0px" y="0px"
	 viewBox="0 0 32 24" style="enable-background:new 0 0 32 24;" xml:space="preserve">
<g id="_x39__8_">
	<g>
		<path style="fill-rule:evenodd;clip-rule:evenodd;" d="M23.067,5.029C21.599,2.052,18.543,0,15,0c-4.749,0-8.63,3.681-8.967,8.345
			C2.542,9.34,0,12.39,0,16c0,4.259,3.54,7.731,8,7.976C8,23.976,21.831,24,22,24c5.247,0,10-4.253,10-9.5
			C32,9.445,28.048,5.324,23.067,5.029z M22,22c-0.127,0-14,0-14,0s-6.038-0.62-6-6c0.021-3.036,2.688-5.818,6-6
			c0-4.142,2.651-8,7-8c3.433,0,5.723,2.095,6.538,5.013C26.493,6.797,29.844,10.717,30,14C30.21,18.413,25.601,22,22,22z"/>
	</g>
</g>
<g>
</g>
<g>
</g>
<g>
</g>
<g>
</g>
<g>
</g>
<g>
</g>
<g>
</g>
<g>
</g>
<g>
</g>
<g>
</g>
<g>
</g>
<g>
</g>
<g>
</g>
<g>
</g>
<g>
</g>
</svg>
