<?xml version="1.0" encoding="iso-8859-1"?>
<!-- Generator: Adobe Illustrator 18.0.0, SVG Export Plug-In . SVG Version: 6.00 Build 0)  -->
<!DOCTYPE svg PUBLIC "-//W3C//DTD SVG 1.1//EN" "http://www.w3.org/Graphics/SVG/1.1/DTD/svg11.dtd">
<svg version="1.1" id="Capa_1" xmlns="http://www.w3.org/2000/svg" xmlns:xlink="http://www.w3.org/1999/xlink" x="0px" y="0px"
	 viewBox="0 0 32.028 31.988" style="enable-background:new 0 0 32.028 31.988;" xml:space="preserve">
<g id="_x36_">
	<g>
		<path style="fill-rule:evenodd;clip-rule:evenodd;" d="M13.007,17.979l-8.879,0c-0.547,0-0.99,0.441-0.99,0.986
			c0,0.544,0.443,0.986,0.99,0.986l6.56,0L0,30.594l1.4,1.394l10.677-10.633l-0.031,6.48c0,0.544,0.443,0.986,0.99,0.986
			c0.547,0,0.99-0.441,0.99-0.986v-8.871c0-0.292-0.121-0.528-0.313-0.69C13.532,18.094,13.283,17.979,13.007,17.979z
			 M27.901,12.037l-6.56,0L32.028,1.394L30.628,0L19.952,10.633l0.031-6.48c0-0.544-0.443-0.986-0.99-0.986
			c-0.547,0-0.99,0.441-0.99,0.986v8.871c0,0.292,0.121,0.528,0.312,0.689c0.18,0.182,0.428,0.297,0.705,0.297l8.879,0
			c0.547,0,0.99-0.441,0.99-0.986C28.89,12.479,28.447,12.037,27.901,12.037z"/>
	</g>
</g>
<g>
</g>
<g>
</g>
<g>
</g>
<g>
</g>
<g>
</g>
<g>
</g>
<g>
</g>
<g>
</g>
<g>
</g>
<g>
</g>
<g>
</g>
<g>
</g>
<g>
</g>
<g>
</g>
<g>
</g>
</svg>
