<?xml version="1.0" encoding="iso-8859-1"?>
<!-- Generator: Adobe Illustrator 18.0.0, SVG Export Plug-In . SVG Version: 6.00 Build 0)  -->
<!DOCTYPE svg PUBLIC "-//W3C//DTD SVG 1.1//EN" "http://www.w3.org/Graphics/SVG/1.1/DTD/svg11.dtd">
<svg version="1.1" id="Capa_1" xmlns="http://www.w3.org/2000/svg" xmlns:xlink="http://www.w3.org/1999/xlink" x="0px" y="0px"
	 viewBox="0 0 32 32.001" style="enable-background:new 0 0 32 32.001;" xml:space="preserve">
<g id="_x35__18_">
	<g>
		<path style="fill-rule:evenodd;clip-rule:evenodd;" d="M16,0C7.163,0,0,6.142,0,13.72c0,6.249,4.877,11.512,11.542,13.169
			L16,32.001l4.458-5.112C27.123,25.232,32,19.969,32,13.72C32,6.142,24.837,0,16,0z M19.494,24.632l-2.201,2.751L16,29
			l-3.494-4.368C6.464,23.355,1.993,18.863,1.993,13.501C1.993,7.146,8.264,1.994,16,1.994c7.736,0,14.007,5.152,14.007,11.507
			C30.008,18.863,25.536,23.355,19.494,24.632z"/>
	</g>
</g>
<g>
</g>
<g>
</g>
<g>
</g>
<g>
</g>
<g>
</g>
<g>
</g>
<g>
</g>
<g>
</g>
<g>
</g>
<g>
</g>
<g>
</g>
<g>
</g>
<g>
</g>
<g>
</g>
<g>
</g>
</svg>
