<?xml version="1.0" encoding="iso-8859-1"?>
<!-- Generator: Adobe Illustrator 18.0.0, SVG Export Plug-In . SVG Version: 6.00 Build 0)  -->
<!DOCTYPE svg PUBLIC "-//W3C//DTD SVG 1.1//EN" "http://www.w3.org/Graphics/SVG/1.1/DTD/svg11.dtd">
<svg version="1.1" id="Capa_1" xmlns="http://www.w3.org/2000/svg" xmlns:xlink="http://www.w3.org/1999/xlink" x="0px" y="0px"
	 viewBox="0 0 28 32" style="enable-background:new 0 0 28 32;" xml:space="preserve">
<g id="_x33__21_">
	<g>
		<path style="fill-rule:evenodd;clip-rule:evenodd;" d="M21,0C20.876,0,9,0,9,0C6.884,0,5,1.941,5,4L3.844,4.027
			C1.729,4.027,0,5.941,0,8v20c0,2.059,1.884,4,4,4h15c2.116,0,4-1.941,4-4h1c2.116,0,4-1.941,4-4V8.024L21,0z M19,30H4
			c-1.05,0-2-0.981-2-2V8c0-1.019,0.855-1.967,1.905-1.967L5,6v18c0,2.059,1.884,4,4,4h12C21,29.019,20.05,30,19,30z M26,24
			c0,1.019-0.95,2-2,2H9c-1.05,0-2-0.981-2-2V4c0-1.019,0.95-2,2-2h10c-0.016,2.303,0,4.025,0,4.025C19,8.103,20.87,10,23,10
			c0,0,1.062,0,3,0V24z M23,8c-1.065,0-2-1.935-2-2.973c0,0,0-1.052,0-2.996V2.029L26,8H23z M21,14.018h-9c-0.552,0-1,0.447-1,0.999
			c0,0.552,0.448,0.999,1,0.999h9c0.552,0,1-0.447,1-0.999C22,14.465,21.552,14.018,21,14.018z M21,19.013h-9
			c-0.552,0-1,0.447-1,0.999c0,0.552,0.448,0.999,1,0.999h9c0.552,0,1-0.447,1-0.999C22,19.46,21.552,19.013,21,19.013z"/>
	</g>
</g>
<g>
</g>
<g>
</g>
<g>
</g>
<g>
</g>
<g>
</g>
<g>
</g>
<g>
</g>
<g>
</g>
<g>
</g>
<g>
</g>
<g>
</g>
<g>
</g>
<g>
</g>
<g>
</g>
<g>
</g>
</svg>
