<?xml version="1.0" encoding="iso-8859-1"?>
<!-- Generator: Adobe Illustrator 18.0.0, SVG Export Plug-In . SVG Version: 6.00 Build 0)  -->
<!DOCTYPE svg PUBLIC "-//W3C//DTD SVG 1.1//EN" "http://www.w3.org/Graphics/SVG/1.1/DTD/svg11.dtd">
<svg version="1.1" id="Capa_1" xmlns="http://www.w3.org/2000/svg" xmlns:xlink="http://www.w3.org/1999/xlink" x="0px" y="0px"
	 viewBox="0 0 22 32" style="enable-background:new 0 0 22 32;" xml:space="preserve">
<g id="_x31_0_7_">
	<g>
		<path style="fill-rule:evenodd;clip-rule:evenodd;" d="M11.256,16c0-6.901,4.479-12.764,10.744-15.009
			C20.243,0.361,18.353,0,16.372,0C7.33,0,0,7.164,0,16c0,8.837,7.33,16,16.372,16c1.981,0,3.871-0.361,5.628-0.991
			C15.735,28.764,11.256,22.901,11.256,16z M14.23,30C9.287,29.64,2.047,23.732,2.047,16c0-7.732,7.085-13.567,12.184-14
			c1.533-0.13,0.723-0.125,2.142,0c-3.337,2.103-7.157,7.962-7.157,14c0,6.038,2.778,11.619,7.157,14
			C15.024,30.125,15.698,30.107,14.23,30z"/>
	</g>
</g>
<g>
</g>
<g>
</g>
<g>
</g>
<g>
</g>
<g>
</g>
<g>
</g>
<g>
</g>
<g>
</g>
<g>
</g>
<g>
</g>
<g>
</g>
<g>
</g>
<g>
</g>
<g>
</g>
<g>
</g>
</svg>
