<?xml version="1.0" encoding="iso-8859-1"?>
<!-- Generator: Adobe Illustrator 18.0.0, SVG Export Plug-In . SVG Version: 6.00 Build 0)  -->
<!DOCTYPE svg PUBLIC "-//W3C//DTD SVG 1.1//EN" "http://www.w3.org/Graphics/SVG/1.1/DTD/svg11.dtd">
<svg version="1.1" id="Capa_1" xmlns="http://www.w3.org/2000/svg" xmlns:xlink="http://www.w3.org/1999/xlink" x="0px" y="0px"
	 viewBox="0 0 32 32" style="enable-background:new 0 0 32 32;" xml:space="preserve">
<g id="_x35__6_">
	<g>
		<path style="fill-rule:evenodd;clip-rule:evenodd;" d="M31,26h-3V9l-2,2v15H7.372L29.213,3.201l-1.414-1.414L6,24.542V6h14.02
			l1.841-2H6l0-3c0-0.552-0.448-1-1-1C4.448,0,4,0.448,4,1v3H1C0.448,4,0,4.448,0,5c0,0.552,0.448,1,1,1h3l0,20v2h22v3
			c0,0.552,0.448,1,1,1c0.552,0,1-0.448,1-1l0-3h3c0.552,0,1-0.448,1-1C32,26.448,31.552,26,31,26z"/>
	</g>
</g>
<g>
</g>
<g>
</g>
<g>
</g>
<g>
</g>
<g>
</g>
<g>
</g>
<g>
</g>
<g>
</g>
<g>
</g>
<g>
</g>
<g>
</g>
<g>
</g>
<g>
</g>
<g>
</g>
<g>
</g>
</svg>
