<?xml version="1.0" encoding="iso-8859-1"?>
<!-- Generator: Adobe Illustrator 18.0.0, SVG Export Plug-In . SVG Version: 6.00 Build 0)  -->
<!DOCTYPE svg PUBLIC "-//W3C//DTD SVG 1.1//EN" "http://www.w3.org/Graphics/SVG/1.1/DTD/svg11.dtd">
<svg version="1.1" id="Capa_1" xmlns="http://www.w3.org/2000/svg" xmlns:xlink="http://www.w3.org/1999/xlink" x="0px" y="0px"
	 viewBox="0 0 25.002 25.002" style="enable-background:new 0 0 25.002 25.002;" xml:space="preserve">
<g id="_x38__3_">
	<g>
		<path style="fill-rule:evenodd;clip-rule:evenodd;" d="M18.165,12.501l5.664-5.664c1.564-1.564,1.564-4.1,0-5.664
			c-1.564-1.564-4.1-1.564-5.664,0l-5.664,5.664L6.837,1.173c-1.564-1.564-4.1-1.564-5.664,0c-1.564,1.564-1.564,4.1,0,5.664
			l5.664,5.664l-5.664,5.664c-1.564,1.564-1.564,4.1,0,5.664c1.564,1.564,4.1,1.564,5.664,0l5.664-5.664l5.664,5.664
			c1.564,1.564,4.1,1.564,5.664,0c1.564-1.564,1.564-4.1,0-5.664L18.165,12.501z M22.413,22.413c-0.782,0.782-2.05,0.782-2.832,0
			l-7.08-7.08l-7.08,7.08c-0.782,0.782-2.05,0.782-2.832,0c-0.782-0.782-0.782-2.05,0-2.832l7.08-7.08l-7.08-7.08
			c-0.782-0.782-0.782-2.05,0-2.832c0.782-0.782,2.05-0.782,2.832,0l7.08,7.08l7.08-7.08c0.782-0.782,2.05-0.782,2.832,0
			c0.782,0.782,0.782,2.05,0,2.832l-7.08,7.08l7.08,7.08C23.195,20.363,23.195,21.631,22.413,22.413z"/>
	</g>
</g>
<g>
</g>
<g>
</g>
<g>
</g>
<g>
</g>
<g>
</g>
<g>
</g>
<g>
</g>
<g>
</g>
<g>
</g>
<g>
</g>
<g>
</g>
<g>
</g>
<g>
</g>
<g>
</g>
<g>
</g>
</svg>
