<?xml version="1.0" encoding="iso-8859-1"?>
<!-- Generator: Adobe Illustrator 18.0.0, SVG Export Plug-In . SVG Version: 6.00 Build 0)  -->
<!DOCTYPE svg PUBLIC "-//W3C//DTD SVG 1.1//EN" "http://www.w3.org/Graphics/SVG/1.1/DTD/svg11.dtd">
<svg version="1.1" id="Capa_1" xmlns="http://www.w3.org/2000/svg" xmlns:xlink="http://www.w3.org/1999/xlink" x="0px" y="0px"
	 viewBox="0 0 32 29.957" style="enable-background:new 0 0 32 29.957;" xml:space="preserve">
<g id="_x32__19_">
	<g>
		<path style="fill-rule:evenodd;clip-rule:evenodd;" d="M16,28.316L2.133,21.923C2.181,21.952,0.906,21.376,0,20.858
			c0,0.773,0.194,2.19,0.915,2.572l13.576,6.103c1.2,0.566,1.717,0.566,3.017,0l13.576-6.103C31.755,23.118,32,21.649,32,20.858
			c-0.873,0.437-2.109,1.06-2.133,1.065L16,28.316z M16,1.679C16.1,1.796,16.074,1.703,16,1.679L16,1.679z M0.915,17.037
			l13.576,6.103c1.2,0.566,1.717,0.566,3.017,0l13.576-6.103C31.755,16.725,32,15.256,32,14.465
			c-0.873,0.437-2.109,1.06-2.133,1.065L16,21.923L2.133,15.53C2.181,15.559,0.906,14.983,0,14.465
			C0,15.238,0.194,16.655,0.915,17.037z M0.915,10.644l13.576,6.103c1.2,0.566,1.717,0.566,3.017,0l13.576-6.103
			c1-0.466,1.033-2.448,0-3.014L17.508,0.462c-1.066-0.632-1.817-0.599-3.017,0L0.915,7.63C-0.118,8.296-0.151,10.078,0.915,10.644z
			 M16,1.679l13.867,7.458L16,14.981L2.133,9.137L16,1.679z"/>
	</g>
</g>
<g>
</g>
<g>
</g>
<g>
</g>
<g>
</g>
<g>
</g>
<g>
</g>
<g>
</g>
<g>
</g>
<g>
</g>
<g>
</g>
<g>
</g>
<g>
</g>
<g>
</g>
<g>
</g>
<g>
</g>
</svg>
