<?xml version="1.0" encoding="iso-8859-1"?>
<!-- Generator: Adobe Illustrator 18.0.0, SVG Export Plug-In . SVG Version: 6.00 Build 0)  -->
<!DOCTYPE svg PUBLIC "-//W3C//DTD SVG 1.1//EN" "http://www.w3.org/Graphics/SVG/1.1/DTD/svg11.dtd">
<svg version="1.1" id="Capa_1" xmlns="http://www.w3.org/2000/svg" xmlns:xlink="http://www.w3.org/1999/xlink" x="0px" y="0px"
	 viewBox="0 0 13.993 32.008" style="enable-background:new 0 0 13.993 32.008;" xml:space="preserve">
<g id="_x33_">
	<g>
		<path style="fill-rule:evenodd;clip-rule:evenodd;" d="M12.275,24.38l-4.271,4.259V3.369l4.271,4.259
			c0.393,0.392,1.031,0.392,1.424,0c0.393-0.392,0.393-1.028,0-1.42L7.759,0.286c-0.21-0.209-0.488-0.298-0.762-0.284
			C6.722-0.013,6.444,0.076,6.234,0.286L0.295,6.208c-0.393,0.392-0.393,1.028,0,1.42c0.393,0.392,1.031,0.392,1.424,0L5.99,3.369
			v25.27L1.719,24.38c-0.393-0.392-1.031-0.392-1.424,0c-0.393,0.392-0.393,1.028,0,1.42l5.939,5.923
			c0.21,0.209,0.488,0.298,0.762,0.284c0.275,0.014,0.553-0.075,0.762-0.284l5.939-5.923c0.393-0.392,0.393-1.028,0-1.42
			C13.305,23.988,12.668,23.988,12.275,24.38z"/>
	</g>
</g>
<g>
</g>
<g>
</g>
<g>
</g>
<g>
</g>
<g>
</g>
<g>
</g>
<g>
</g>
<g>
</g>
<g>
</g>
<g>
</g>
<g>
</g>
<g>
</g>
<g>
</g>
<g>
</g>
<g>
</g>
</svg>
