<?xml version="1.0" encoding="iso-8859-1"?>
<!-- Generator: Adobe Illustrator 18.0.0, SVG Export Plug-In . SVG Version: 6.00 Build 0)  -->
<!DOCTYPE svg PUBLIC "-//W3C//DTD SVG 1.1//EN" "http://www.w3.org/Graphics/SVG/1.1/DTD/svg11.dtd">
<svg version="1.1" id="Capa_1" xmlns="http://www.w3.org/2000/svg" xmlns:xlink="http://www.w3.org/1999/xlink" x="0px" y="0px"
	 viewBox="0 0 30 26.004" style="enable-background:new 0 0 30 26.004;" xml:space="preserve">
<g id="_x31__9_">
	<g>
		<path style="fill-rule:evenodd;clip-rule:evenodd;" d="M19.267,18.3L16,22.26V8.002C16,7.449,15.552,7,15,7
			c-0.552,0-1,0.449-1,1.002v14.296L10.701,18.3c-0.392-0.394-1.028-0.394-1.42,0c-0.392,0.394-0.392,1.033,0,1.426l4.942,5.991
			c0.209,0.21,0.487,0.299,0.76,0.285c0.274,0.014,0.551-0.075,0.76-0.285l4.942-5.991c0.392-0.394,0.392-1.032,0-1.426
			C20.295,17.906,19.659,17.906,19.267,18.3z M29,0H1C0.448,0,0,0.448,0,1v8c0,0.552,0.448,1,1,1c0.552,0,1-0.448,1-1V2h26v7
			c0,0.552,0.448,1,1,1c0.552,0,1-0.448,1-1V1C30,0.448,29.552,0,29,0z"/>
	</g>
</g>
<g>
</g>
<g>
</g>
<g>
</g>
<g>
</g>
<g>
</g>
<g>
</g>
<g>
</g>
<g>
</g>
<g>
</g>
<g>
</g>
<g>
</g>
<g>
</g>
<g>
</g>
<g>
</g>
<g>
</g>
</svg>
