<?xml version="1.0" encoding="iso-8859-1"?>
<!-- Generator: Adobe Illustrator 18.0.0, SVG Export Plug-In . SVG Version: 6.00 Build 0)  -->
<!DOCTYPE svg PUBLIC "-//W3C//DTD SVG 1.1//EN" "http://www.w3.org/Graphics/SVG/1.1/DTD/svg11.dtd">
<svg version="1.1" id="Capa_1" xmlns="http://www.w3.org/2000/svg" xmlns:xlink="http://www.w3.org/1999/xlink" x="0px" y="0px"
	 viewBox="0 0 28 32" style="enable-background:new 0 0 28 32;" xml:space="preserve">
<g id="_x39__5_">
	<g>
		<path style="fill-rule:evenodd;clip-rule:evenodd;" d="M6.343,18.757l6.9,6.9c0.208,0.208,0.485,0.297,0.757,0.283
			c0.273,0.014,0.549-0.075,0.757-0.283l6.899-6.9c0.391-0.39,0.391-1.024,0-1.414c-0.39-0.391-1.024-0.391-1.414,0L15,22.586V1
			c0-0.552-0.448-1-1-1c-0.552,0-1,0.448-1,1v21.586l-5.243-5.243c-0.39-0.391-1.024-0.391-1.414,0
			C5.953,17.734,5.953,18.367,6.343,18.757z M24,4h-3v2h3c1.104,0,2,0.895,2,2v20c0,1.105-0.896,2-2,2H4c-1.105,0-2-0.895-2-2V8
			c0-1.105,0.895-2,2-2h3V4H4C1.791,4,0,5.791,0,8v20c0,2.209,1.791,4,4,4h20c2.209,0,4-1.791,4-4V8C28,5.791,26.209,4,24,4z"/>
	</g>
</g>
<g>
</g>
<g>
</g>
<g>
</g>
<g>
</g>
<g>
</g>
<g>
</g>
<g>
</g>
<g>
</g>
<g>
</g>
<g>
</g>
<g>
</g>
<g>
</g>
<g>
</g>
<g>
</g>
<g>
</g>
</svg>
