<?xml version="1.0" encoding="iso-8859-1"?>
<!-- Generator: Adobe Illustrator 18.0.0, SVG Export Plug-In . SVG Version: 6.00 Build 0)  -->
<!DOCTYPE svg PUBLIC "-//W3C//DTD SVG 1.1//EN" "http://www.w3.org/Graphics/SVG/1.1/DTD/svg11.dtd">
<svg version="1.1" id="Capa_1" xmlns="http://www.w3.org/2000/svg" xmlns:xlink="http://www.w3.org/1999/xlink" x="0px" y="0px"
	 viewBox="0 0 32 32" style="enable-background:new 0 0 32 32;" xml:space="preserve">
<g id="_x37__2_">
	<g>
		<path style="fill-rule:evenodd;clip-rule:evenodd;" d="M21.121,15.464L17,19.586V9c0-0.552-0.448-1-1-1c-0.552,0-1,0.448-1,1
			v10.586l-4.121-4.121c-0.391-0.391-1.024-0.391-1.414,0c-0.391,0.391-0.391,1.024,0,1.414l5.657,5.657
			c0.24,0.24,0.568,0.314,0.879,0.259c0.31,0.055,0.639-0.02,0.879-0.259l5.657-5.657c0.391-0.391,0.391-1.024,0-1.414
			C22.145,15.074,21.512,15.074,21.121,15.464z M16,0C7.164,0,0,7.163,0,16s7.164,16,16,16c8.836,0,16-7.164,16-16S24.837,0,16,0z
			 M16,30C8.268,30,2,23.732,2,16S8.268,2,16,2c7.732,0,14,6.268,14,14S23.732,30,16,30z"/>
	</g>
</g>
<g>
</g>
<g>
</g>
<g>
</g>
<g>
</g>
<g>
</g>
<g>
</g>
<g>
</g>
<g>
</g>
<g>
</g>
<g>
</g>
<g>
</g>
<g>
</g>
<g>
</g>
<g>
</g>
<g>
</g>
</svg>
