<?xml version="1.0" encoding="iso-8859-1"?>
<!-- Generator: Adobe Illustrator 18.0.0, SVG Export Plug-In . SVG Version: 6.00 Build 0)  -->
<!DOCTYPE svg PUBLIC "-//W3C//DTD SVG 1.1//EN" "http://www.w3.org/Graphics/SVG/1.1/DTD/svg11.dtd">
<svg version="1.1" id="Capa_1" xmlns="http://www.w3.org/2000/svg" xmlns:xlink="http://www.w3.org/1999/xlink" x="0px" y="0px"
	 viewBox="0 0 30 32" style="enable-background:new 0 0 30 32;" xml:space="preserve">
<g id="_x36__10_">
	<g>
		<path style="fill-rule:evenodd;clip-rule:evenodd;" d="M26,0H4C1.791,0,0,1.791,0,4v24c0,2.209,1.791,4,4,4h22
			c2.209,0,4-1.791,4-4V4C30,1.791,28.209,0,26,0z M28,28c0,1.104-0.895,2-2,2H4c-1.105,0-2-0.896-2-2v-2h26V28z M28,24H2V4
			c0-1.105,0.895-2,2-2h22c1.105,0,2,0.895,2,2V24z M19.267,13.282L16,17.235V5c0-0.552-0.448-1-1-1c-0.552,0-1,0.448-1,1v12.273
			l-3.298-3.991c-0.392-0.393-1.028-0.393-1.42,0c-0.392,0.393-0.392,1.031,0,1.424l4.942,5.98c0.209,0.21,0.487,0.299,0.76,0.285
			c0.274,0.014,0.551-0.075,0.76-0.285l4.942-5.98c0.392-0.393,0.392-1.031,0-1.424S19.659,12.889,19.267,13.282z"/>
	</g>
</g>
<g>
</g>
<g>
</g>
<g>
</g>
<g>
</g>
<g>
</g>
<g>
</g>
<g>
</g>
<g>
</g>
<g>
</g>
<g>
</g>
<g>
</g>
<g>
</g>
<g>
</g>
<g>
</g>
<g>
</g>
</svg>
