<?xml version="1.0" encoding="iso-8859-1"?>
<!-- Generator: Adobe Illustrator 18.0.0, SVG Export Plug-In . SVG Version: 6.00 Build 0)  -->
<!DOCTYPE svg PUBLIC "-//W3C//DTD SVG 1.1//EN" "http://www.w3.org/Graphics/SVG/1.1/DTD/svg11.dtd">
<svg version="1.1" id="Capa_1" xmlns="http://www.w3.org/2000/svg" xmlns:xlink="http://www.w3.org/1999/xlink" x="0px" y="0px"
	 viewBox="0 0 32 22" style="enable-background:new 0 0 32 22;" xml:space="preserve">
<g id="_x35__14_">
	<g>
		<path style="fill-rule:evenodd;clip-rule:evenodd;" d="M28,0H4C1.791,0,0,1.791,0,4v14c0,2.209,1.791,4,4,4h24
			c2.209,0,4-1.791,4-4V4C32,1.791,30.209,0,28,0z M30,18c0,1.105-0.895,2-2,2H4c-1.105,0-2-0.895-2-2V4c0-1.105,0.895-2,2-2h24
			c1.105,0,2,0.895,2,2V18z M5,10c-0.552,0-1,0.448-1,1c0,0.552,0.448,1,1,1c0.552,0,1-0.448,1-1C6,10.448,5.552,10,5,10z M5,14
			c-0.552,0-1,0.448-1,1c0,0.552,0.448,1,1,1c0.552,0,1-0.448,1-1C6,14.448,5.552,14,5,14z M27,14c-0.552,0-1,0.448-1,1
			c0,0.552,0.448,1,1,1c0.552,0,1-0.448,1-1C28,14.448,27.552,14,27,14z M27,10c-0.552,0-1,0.448-1,1c0,0.552,0.448,1,1,1
			c0.552,0,1-0.448,1-1C28,10.448,27.552,10,27,10z M23,4H9C8.448,4,8,4.448,8,5v12c0,0.552,0.448,1,1,1h14c0.552,0,1-0.448,1-1V5
			C24,4.448,23.552,4,23,4z M22,15c0,0.552-0.448,1-1,1H11c-0.552,0-1-0.448-1-1V7c0-0.552,0.448-1,1-1h10c0.552,0,1,0.448,1,1V15z"
			/>
	</g>
</g>
<g>
</g>
<g>
</g>
<g>
</g>
<g>
</g>
<g>
</g>
<g>
</g>
<g>
</g>
<g>
</g>
<g>
</g>
<g>
</g>
<g>
</g>
<g>
</g>
<g>
</g>
<g>
</g>
<g>
</g>
</svg>
