<?xml version="1.0" encoding="iso-8859-1"?>
<!-- Generator: Adobe Illustrator 18.0.0, SVG Export Plug-In . SVG Version: 6.00 Build 0)  -->
<!DOCTYPE svg PUBLIC "-//W3C//DTD SVG 1.1//EN" "http://www.w3.org/Graphics/SVG/1.1/DTD/svg11.dtd">
<svg version="1.1" id="Capa_1" xmlns="http://www.w3.org/2000/svg" xmlns:xlink="http://www.w3.org/1999/xlink" x="0px" y="0px"
	 viewBox="0 0 32 24" style="enable-background:new 0 0 32 24;" xml:space="preserve">
<g id="_x31__7_">
	<g>
		<path style="fill-rule:evenodd;clip-rule:evenodd;" d="M19,11l-4,0l1.554-4.169c0.211-0.51-0.032-1.095-0.543-1.306
			c-0.511-0.211-1.095,0.032-1.306,0.543l-2.289,5.546c-0.109,0.264-0.093,0.546,0.015,0.787c0.146,0.372,0.503,0.638,0.927,0.638
			l4.266-0.03l-2.543,4.51c-0.217,0.524-0.005,1.142,0.474,1.38c0.479,0.238,1.043,0.005,1.261-0.519c0,0,3.184-5.787,3.184-6.38
			C20,11.448,19.552,11,19,11z M23.067,5.029C21.599,2.052,18.543,0,15,0c-4.749,0-8.63,3.681-8.967,8.345C2.542,9.34,0,12.39,0,16
			c0,4.259,3.54,7.731,8,7.976C8,23.976,21.831,24,22,24c5.247,0,10-4.253,10-9.5C32,9.445,28.048,5.324,23.067,5.029z M22,22
			c-0.127,0-14,0-14,0s-6.038-0.62-6-6c0.021-3.036,2.812-5.75,6-6c0-4.142,2.651-8,7-8c3.433,0,5.723,2.095,6.538,5.013
			C26.493,6.797,29.844,10.717,30,14C30.21,18.413,25.601,22,22,22z"/>
	</g>
</g>
<g>
</g>
<g>
</g>
<g>
</g>
<g>
</g>
<g>
</g>
<g>
</g>
<g>
</g>
<g>
</g>
<g>
</g>
<g>
</g>
<g>
</g>
<g>
</g>
<g>
</g>
<g>
</g>
<g>
</g>
</svg>
