<?xml version="1.0" encoding="iso-8859-1"?>
<!-- Generator: Adobe Illustrator 18.0.0, SVG Export Plug-In . SVG Version: 6.00 Build 0)  -->
<!DOCTYPE svg PUBLIC "-//W3C//DTD SVG 1.1//EN" "http://www.w3.org/Graphics/SVG/1.1/DTD/svg11.dtd">
<svg version="1.1" id="Capa_1" xmlns="http://www.w3.org/2000/svg" xmlns:xlink="http://www.w3.org/1999/xlink" x="0px" y="0px"
	 viewBox="0 0 30 32" style="enable-background:new 0 0 30 32;" xml:space="preserve">
<g id="_x35__20_">
	<g>
		<path style="fill-rule:evenodd;clip-rule:evenodd;" d="M26,0H4C1.791,0,0,1.791,0,4v24c0,2.209,1.791,4,4,4h22
			c2.209,0,4-1.791,4-4V4C30,1.791,28.209,0,26,0z M4,2h22c0.398,0,0.767,0.12,1.079,0.32L23,6H7L2.921,2.32C3.233,2.12,3.602,2,4,2
			z M28,28c0,1.105-0.895,2-2,2H4c-1.105,0-2-0.896-2-2V4.221L6,8h18l4-3.778V28z"/>
	</g>
</g>
<g>
</g>
<g>
</g>
<g>
</g>
<g>
</g>
<g>
</g>
<g>
</g>
<g>
</g>
<g>
</g>
<g>
</g>
<g>
</g>
<g>
</g>
<g>
</g>
<g>
</g>
<g>
</g>
<g>
</g>
</svg>
