<?xml version="1.0" encoding="iso-8859-1"?>
<!-- Generator: Adobe Illustrator 18.0.0, SVG Export Plug-In . SVG Version: 6.00 Build 0)  -->
<!DOCTYPE svg PUBLIC "-//W3C//DTD SVG 1.1//EN" "http://www.w3.org/Graphics/SVG/1.1/DTD/svg11.dtd">
<svg version="1.1" id="Capa_1" xmlns="http://www.w3.org/2000/svg" xmlns:xlink="http://www.w3.org/1999/xlink" x="0px" y="0px"
	 viewBox="0 0 32 32" style="enable-background:new 0 0 32 32;" xml:space="preserve">
<g id="_x32__16_">
	<g>
		<path style="fill-rule:evenodd;clip-rule:evenodd;" d="M26,8H14.859C14.413,6.278,12.862,5,11,5S7.588,6.278,7.141,8H6
			C5.448,8,5,8.448,5,9c0,0.552,0.448,1,1,1h1.141c0.446,1.722,1.997,3,3.859,3s3.412-1.278,3.859-3H26c0.552,0,1-0.448,1-1
			C27,8.448,26.552,8,26,8z M11,11.4c-1.325,0-2.4-1.074-2.4-2.4c0-1.325,1.075-2.4,2.4-2.4c1.326,0,2.4,1.075,2.4,2.4
			C13.4,10.325,12.326,11.4,11,11.4z M26,24H14.859c-0.446-1.722-1.997-3-3.859-3s-3.412,1.278-3.858,3H6c-0.552,0-1,0.448-1,1
			s0.448,1,1,1h1.141c0.446,1.722,1.997,3,3.858,3c1.862,0,3.412-1.278,3.859-3H26c0.552,0,1-0.448,1-1S26.552,24,26,24z M11,27.4
			c-1.325,0-2.4-1.075-2.4-2.4c0-1.326,1.075-2.4,2.4-2.4c1.326,0,2.4,1.074,2.4,2.4C13.4,26.325,12.326,27.4,11,27.4z M26,16
			h-2.141c-0.446-1.722-1.997-3-3.859-3c-1.862,0-3.412,1.278-3.859,3H6c-0.552,0-1,0.448-1,1c0,0.552,0.448,1,1,1h10.141
			c0.446,1.722,1.997,3,3.859,3c1.862,0,3.412-1.278,3.859-3H26c0.552,0,1-0.448,1-1C27,16.448,26.552,16,26,16z M20,19.4
			c-1.326,0-2.4-1.075-2.4-2.4c0-1.326,1.074-2.4,2.4-2.4c1.325,0,2.4,1.074,2.4,2.4C22.4,18.325,21.326,19.4,20,19.4z M28,0H4
			C1.791,0,0,1.791,0,4v24c0,2.209,1.791,4,4,4h24c2.209,0,4-1.791,4-4V4C32,1.791,30.209,0,28,0z M30,28c0,1.104-0.895,2-2,2H4
			c-1.105,0-2-0.896-2-2V4c0-1.105,0.895-2,2-2h24c1.105,0,2,0.896,2,2V28z"/>
	</g>
</g>
<g>
</g>
<g>
</g>
<g>
</g>
<g>
</g>
<g>
</g>
<g>
</g>
<g>
</g>
<g>
</g>
<g>
</g>
<g>
</g>
<g>
</g>
<g>
</g>
<g>
</g>
<g>
</g>
<g>
</g>
</svg>
