<?xml version="1.0" encoding="iso-8859-1"?>
<!-- Generator: Adobe Illustrator 18.0.0, SVG Export Plug-In . SVG Version: 6.00 Build 0)  -->
<!DOCTYPE svg PUBLIC "-//W3C//DTD SVG 1.1//EN" "http://www.w3.org/Graphics/SVG/1.1/DTD/svg11.dtd">
<svg version="1.1" id="Capa_1" xmlns="http://www.w3.org/2000/svg" xmlns:xlink="http://www.w3.org/1999/xlink" x="0px" y="0px"
	 viewBox="0 0 30 32" style="enable-background:new 0 0 30 32;" xml:space="preserve">
<g id="_x37__13_">
	<g>
		<path style="fill-rule:evenodd;clip-rule:evenodd;" d="M26,0H4C1.791,0,0,1.791,0,4v24c0,2.209,1.791,4,4,4h22
			c2.209,0,4-1.791,4-4V4C30,1.791,28.209,0,26,0z M28,28c0,1.105-0.895,2-2,2H4c-1.105,0-2-0.895-2-2V8h26V28z M28,6H2V4
			c0-1.105,0.895-2,2-2h22c1.105,0,2,0.896,2,2V6z M23,18c1.657,0,3-1.343,3-3c0-1.657-1.343-3-3-3c-1.657,0-3,1.343-3,3
			C20,16.657,21.343,18,23,18z M22,14h2v2h-2V14z M23,26c1.657,0,3-1.343,3-3c0-1.657-1.343-3-3-3c-1.657,0-3,1.343-3,3
			C20,24.657,21.343,26,23,26z M22,22h2v2h-2V22z M7,18c1.657,0,3-1.343,3-3c0-1.657-1.343-3-3-3c-1.657,0-3,1.343-3,3
			C4,16.657,5.343,18,7,18z M6,14h2v2H6V14z M15,18c1.657,0,3-1.343,3-3c0-1.657-1.343-3-3-3c-1.657,0-3,1.343-3,3
			C12,16.657,13.343,18,15,18z M14,14h2v2h-2V14z M7,26c1.657,0,3-1.343,3-3c0-1.657-1.343-3-3-3c-1.657,0-3,1.343-3,3
			C4,24.657,5.343,26,7,26z M6,22h2v2H6V22z M15,26c1.657,0,3-1.343,3-3c0-1.657-1.343-3-3-3c-1.657,0-3,1.343-3,3
			C12,24.657,13.343,26,15,26z M14,22h2v2h-2V22z"/>
	</g>
</g>
<g>
</g>
<g>
</g>
<g>
</g>
<g>
</g>
<g>
</g>
<g>
</g>
<g>
</g>
<g>
</g>
<g>
</g>
<g>
</g>
<g>
</g>
<g>
</g>
<g>
</g>
<g>
</g>
<g>
</g>
</svg>
