<?xml version="1.0" encoding="iso-8859-1"?>
<!-- Generator: Adobe Illustrator 18.0.0, SVG Export Plug-In . SVG Version: 6.00 Build 0)  -->
<!DOCTYPE svg PUBLIC "-//W3C//DTD SVG 1.1//EN" "http://www.w3.org/Graphics/SVG/1.1/DTD/svg11.dtd">
<svg version="1.1" id="Capa_1" xmlns="http://www.w3.org/2000/svg" xmlns:xlink="http://www.w3.org/1999/xlink" x="0px" y="0px"
	 viewBox="0 0 32 32.001" style="enable-background:new 0 0 32 32.001;" xml:space="preserve">
<g id="_x35_">
	<g>
		<path style="fill-rule:evenodd;clip-rule:evenodd;" d="M12.756,17.787L1.969,28.575L2,22c0-0.552-0.448-1-1-1
			c-0.552,0-1,0.448-1,1v9c0,0.296,0.122,0.535,0.316,0.699c0.181,0.185,0.433,0.301,0.713,0.301L10,32c0.552,0,1-0.448,1-1
			c0-0.552-0.448-1-1-1l-6.629,0L14.17,19.202L12.756,17.787z M31.684,0.301C31.503,0.116,31.251,0,30.972,0L22,0
			c-0.552,0-1,0.448-1,1c0,0.552,0.448,1,1,1l6.628,0L17.83,12.799l1.414,1.414L30.032,3.425L30,10c0,0.552,0.448,1,1,1
			c0.552,0,1-0.448,1-1V1C32,0.704,31.878,0.465,31.684,0.301z"/>
	</g>
</g>
<g>
</g>
<g>
</g>
<g>
</g>
<g>
</g>
<g>
</g>
<g>
</g>
<g>
</g>
<g>
</g>
<g>
</g>
<g>
</g>
<g>
</g>
<g>
</g>
<g>
</g>
<g>
</g>
<g>
</g>
</svg>
