<?xml version="1.0" encoding="iso-8859-1"?>
<!-- Generator: Adobe Illustrator 18.0.0, SVG Export Plug-In . SVG Version: 6.00 Build 0)  -->
<!DOCTYPE svg PUBLIC "-//W3C//DTD SVG 1.1//EN" "http://www.w3.org/Graphics/SVG/1.1/DTD/svg11.dtd">
<svg version="1.1" id="Capa_1" xmlns="http://www.w3.org/2000/svg" xmlns:xlink="http://www.w3.org/1999/xlink" x="0px" y="0px"
	 viewBox="0 0 25 32" style="enable-background:new 0 0 25 32;" xml:space="preserve">
<g id="_x33__9_">
	<g>
		<path style="fill-rule:evenodd;clip-rule:evenodd;" d="M23,7h-6V5c0-1.105-0.895-2-2-2H6V2c0-1.104-0.895-2-2-2H2
			C0.896,0,0,0.895,0,2v28c0,1.105,0.896,2,2,2h2c1.105,0,2-0.895,2-2v-9h9v1c0,1.104,0.94,2,2,2h6c1.105,0,2-0.895,2-2V9
			C25,7.895,24.105,7,23,7z M4,29c0,0.552-0.448,1-1,1c-0.552,0-1-0.448-1-1V3c0-0.552,0.448-1,1-1c0.552,0,1,0.448,1,1V29z M15,18
			c0,0.552-0.448,1-1,1H6V5h8c0.552,0,1,0.448,1,1V18z M23,21c0,0.552-0.448,1-1,1h-5V9h5c0.552,0,1,0.448,1,1L23,21z"/>
	</g>
</g>
<g>
</g>
<g>
</g>
<g>
</g>
<g>
</g>
<g>
</g>
<g>
</g>
<g>
</g>
<g>
</g>
<g>
</g>
<g>
</g>
<g>
</g>
<g>
</g>
<g>
</g>
<g>
</g>
<g>
</g>
</svg>
