<?xml version="1.0" encoding="iso-8859-1"?>
<!-- Generator: Adobe Illustrator 18.0.0, SVG Export Plug-In . SVG Version: 6.00 Build 0)  -->
<!DOCTYPE svg PUBLIC "-//W3C//DTD SVG 1.1//EN" "http://www.w3.org/Graphics/SVG/1.1/DTD/svg11.dtd">
<svg version="1.1" id="Capa_1" xmlns="http://www.w3.org/2000/svg" xmlns:xlink="http://www.w3.org/1999/xlink" x="0px" y="0px"
	 viewBox="0 0 10 32" style="enable-background:new 0 0 10 32;" xml:space="preserve">
<g id="_x31__14_">
	<g>
		<path style="fill-rule:evenodd;clip-rule:evenodd;" d="M9,0C8.448,0,8,0.448,8,1v7c0,1.407-0.837,2.356-2,2.802V1
			c0-0.552-0.448-1-1-1C4.448,0,4,0.448,4,1v9.802C2.837,10.356,2,9.407,2,8l0-7c0-0.552-0.448-1-1-1S0,0.448,0,1l0,7
			c0,2.419,1.718,4.436,4,4.9V31c0,0.552,0.448,1,1,1c0.552,0,1-0.448,1-1V12.9c2.282-0.463,4-2.481,4-4.9V1C10,0.448,9.552,0,9,0z"
			/>
	</g>
</g>
<g>
</g>
<g>
</g>
<g>
</g>
<g>
</g>
<g>
</g>
<g>
</g>
<g>
</g>
<g>
</g>
<g>
</g>
<g>
</g>
<g>
</g>
<g>
</g>
<g>
</g>
<g>
</g>
<g>
</g>
</svg>
