<?xml version="1.0" encoding="iso-8859-1"?>
<!-- Generator: Adobe Illustrator 18.0.0, SVG Export Plug-In . SVG Version: 6.00 Build 0)  -->
<!DOCTYPE svg PUBLIC "-//W3C//DTD SVG 1.1//EN" "http://www.w3.org/Graphics/SVG/1.1/DTD/svg11.dtd">
<svg version="1.1" id="Capa_1" xmlns="http://www.w3.org/2000/svg" xmlns:xlink="http://www.w3.org/1999/xlink" x="0px" y="0px"
	 viewBox="0 0 26 32" style="enable-background:new 0 0 26 32;" xml:space="preserve">
<g id="_x37__14_">
	<g>
		<path style="fill-rule:evenodd;clip-rule:evenodd;" d="M15,26c-0.552,0-1,0.448-1,1c0,0.552,0.448,1,1,1c0.552,0,1-0.448,1-1
			C16,26.448,15.552,26,15,26z M16,22c-0.552,0-1,0.448-1,1c0,0.552,0.448,1,1,1c0.552,0,1-0.448,1-1C17,22.448,16.552,22,16,22z
			 M9,24H8v-1c0-0.552-0.448-1-1-1c-0.552,0-1,0.448-1,1v1H5c-0.552,0-1,0.448-1,1s0.448,1,1,1h1v1c0,0.552,0.448,1,1,1
			c0.552,0,1-0.448,1-1v-1h1c0.552,0,1-0.448,1-1S9.552,24,9,24z M22,0H4C1.791,0,0,1.791,0,4v24c0,2.209,1.791,4,4,4h18
			c2.209,0,4-1.791,4-4V4C26,1.791,24.209,0,22,0z M24,28c0,1.104-0.895,2-2,2H4c-1.105,0-2-0.896-2-2V4c0-1.105,0.895-2,2-2h18
			c1.105,0,2,0.895,2,2V28z M20,26c-0.552,0-1,0.448-1,1c0,0.552,0.448,1,1,1c0.552,0,1-0.448,1-1C21,26.448,20.552,26,20,26z M20,4
			H6C4.895,4,4,4.895,4,6v12c0,1.104,0.895,2,2,2h14c1.105,0,2-0.896,2-2V6C22,4.895,21.105,4,20,4z M20,17c0,0.552-0.448,1-1,1H7
			c-0.552,0-1-0.448-1-1V7c0-0.552,0.448-1,1-1h12c0.552,0,1,0.448,1,1V17z M21,22c-0.552,0-1,0.448-1,1c0,0.552,0.448,1,1,1
			s1-0.448,1-1C22,22.448,21.552,22,21,22z"/>
	</g>
</g>
<g>
</g>
<g>
</g>
<g>
</g>
<g>
</g>
<g>
</g>
<g>
</g>
<g>
</g>
<g>
</g>
<g>
</g>
<g>
</g>
<g>
</g>
<g>
</g>
<g>
</g>
<g>
</g>
<g>
</g>
</svg>
