<?xml version="1.0" encoding="iso-8859-1"?>
<!-- Generator: Adobe Illustrator 18.0.0, SVG Export Plug-In . SVG Version: 6.00 Build 0)  -->
<!DOCTYPE svg PUBLIC "-//W3C//DTD SVG 1.1//EN" "http://www.w3.org/Graphics/SVG/1.1/DTD/svg11.dtd">
<svg version="1.1" id="Capa_1" xmlns="http://www.w3.org/2000/svg" xmlns:xlink="http://www.w3.org/1999/xlink" x="0px" y="0px"
	 viewBox="0 0 32 32" style="enable-background:new 0 0 32 32;" xml:space="preserve">
<g id="_x31__8_">
	<g>
		<path style="fill-rule:evenodd;clip-rule:evenodd;" d="M30,6h-7.555C22.789,5.41,23,4.732,23,4c0-2.209-1.791-4-4-4
			c-1.202,0-2.267,0.541-3,1.38C15.267,0.541,14.202,0,13,0c-2.209,0-4,1.791-4,4c0,0.732,0.211,1.41,0.555,2H2C0.895,6,0,6.896,0,8
			v2c0,1.104,0.895,2,2,2v16c0,2.209,1.791,4,4,4h20c2.209,0,4-1.791,4-4V12c1.104,0,2-0.895,2-2V8C32,6.896,31.105,6,30,6z M19,2
			c1.105,0,2,0.895,2,2c0,1.104-0.895,2-2,2s-2-0.895-2-2C17,2.896,17.895,2,19,2z M13,2c1.105,0,2,0.895,2,2c0,1.104-0.895,2-2,2
			s-2-0.895-2-2C11,2.896,11.895,2,13,2z M15,30H6c-1.105,0-2-0.896-2-2v-6h11V30z M15,20H4v-8h11V20z M28,28c0,1.105-0.896,2-2,2
			h-9v-8h11V28z M28,20H17v-8h11V20z M29,10H3c-0.552,0-1-0.448-1-1c0-0.552,0.448-1,1-1h26c0.552,0,1,0.448,1,1
			C30,9.552,29.552,10,29,10z"/>
	</g>
</g>
<g>
</g>
<g>
</g>
<g>
</g>
<g>
</g>
<g>
</g>
<g>
</g>
<g>
</g>
<g>
</g>
<g>
</g>
<g>
</g>
<g>
</g>
<g>
</g>
<g>
</g>
<g>
</g>
<g>
</g>
</svg>
