<?xml version="1.0" encoding="iso-8859-1"?>
<!-- Generator: Adobe Illustrator 18.0.0, SVG Export Plug-In . SVG Version: 6.00 Build 0)  -->
<!DOCTYPE svg PUBLIC "-//W3C//DTD SVG 1.1//EN" "http://www.w3.org/Graphics/SVG/1.1/DTD/svg11.dtd">
<svg version="1.1" id="Capa_1" xmlns="http://www.w3.org/2000/svg" xmlns:xlink="http://www.w3.org/1999/xlink" x="0px" y="0px"
	 viewBox="0 0 32 32" style="enable-background:new 0 0 32 32;" xml:space="preserve">
<g id="_x38__20_">
	<g>
		<path style="fill-rule:evenodd;clip-rule:evenodd;" d="M16,20c0.552,0,1-0.448,1-1V7c0-0.552-0.448-1-1-1c-0.552,0-1,0.448-1,1v12
			C15,19.552,15.448,20,16,20z M22,20c0.552,0,1-0.448,1-1v-9c0-0.552-0.448-1-1-1c-0.552,0-1,0.448-1,1v9
			C21,19.552,21.448,20,22,20z M10,20c0.552,0,1-0.448,1-1v-4c0-0.552-0.448-1-1-1s-1,0.448-1,1v4C9,19.552,9.448,20,10,20z M0,0
			l0,2h2c0,1.623,0,19,0,19c0,2.37,1.644,4,4,4h6l-4,7l3.012-0.013L15,25h2l3.988,6.987L24,32l-4-7h6c2.356,0,4-1.63,4-4
			c0,0,0-17.267,0-19h2V0H0z M28,21c0,1.229-0.794,2-2,2H6c-1.206,0-2-0.771-2-2C4,21,3.985,3.256,3.985,1.99h24.03
			C28.015,4.007,28,21,28,21z"/>
	</g>
</g>
<g>
</g>
<g>
</g>
<g>
</g>
<g>
</g>
<g>
</g>
<g>
</g>
<g>
</g>
<g>
</g>
<g>
</g>
<g>
</g>
<g>
</g>
<g>
</g>
<g>
</g>
<g>
</g>
<g>
</g>
</svg>
