<?xml version="1.0" encoding="iso-8859-1"?>
<!-- Generator: Adobe Illustrator 18.0.0, SVG Export Plug-In . SVG Version: 6.00 Build 0)  -->
<!DOCTYPE svg PUBLIC "-//W3C//DTD SVG 1.1//EN" "http://www.w3.org/Graphics/SVG/1.1/DTD/svg11.dtd">
<svg version="1.1" id="Capa_1" xmlns="http://www.w3.org/2000/svg" xmlns:xlink="http://www.w3.org/1999/xlink" x="0px" y="0px"
	 viewBox="0 0 26 32" style="enable-background:new 0 0 26 32;" xml:space="preserve">
<g id="_x37__15_">
	<g>
		<path style="fill-rule:evenodd;clip-rule:evenodd;" d="M22.905,6.953C18.52,8.203,17.717,11.748,18,14c-3.128-3.677-3-7.907-3-14
			C4.967,3.783,7.3,14.688,7,18c-2.523-2.066-3-7-3-7c-2.664,1.371-4,5.031-4,8c0,7.18,5.82,13,13,13c7.18,0,13-5.82,13-13
			C26,14.733,22.867,12.765,22.905,6.953z M13.5,30C7.149,30,2,24.641,2,18.625C2,17.227,2.031,16.094,3,15
			c-0.106,0.633,1.397,6.055,6.305,5.771c-0.213-4.119-1.327-14.21,3.848-17.698C12.695,8.557,14.038,15.924,20.029,17
			c-0.343-2.199-0.303-5.858,1.238-6.534c0.165,3.369,2.657,5.448,2.657,8.686C23.924,25.015,18.251,30,13.5,30z"/>
	</g>
</g>
<g>
</g>
<g>
</g>
<g>
</g>
<g>
</g>
<g>
</g>
<g>
</g>
<g>
</g>
<g>
</g>
<g>
</g>
<g>
</g>
<g>
</g>
<g>
</g>
<g>
</g>
<g>
</g>
<g>
</g>
</svg>
