<?xml version="1.0" encoding="iso-8859-1"?>
<!-- Generator: Adobe Illustrator 18.0.0, SVG Export Plug-In . SVG Version: 6.00 Build 0)  -->
<!DOCTYPE svg PUBLIC "-//W3C//DTD SVG 1.1//EN" "http://www.w3.org/Graphics/SVG/1.1/DTD/svg11.dtd">
<svg version="1.1" id="Capa_1" xmlns="http://www.w3.org/2000/svg" xmlns:xlink="http://www.w3.org/1999/xlink" x="0px" y="0px"
	 viewBox="0 0 32.012 31.985" style="enable-background:new 0 0 32.012 31.985;" xml:space="preserve">
<g id="_x36__8_">
	<g>
		<path style="fill-rule:evenodd;clip-rule:evenodd;" d="M30.096,0H16.682c-1.058,0-1.252,0.463-2.261,1.518L1.216,14.683
			c-1.621,1.615-1.621,4.235,0,5.851l10.271,10.24c1.621,1.616,4.248,1.616,5.869,0l13.206-13.165
			c0.85-0.848,1.451-1.269,1.451-2.325V1.911C32.012,0.855,31.154,0,30.096,0z M15.888,29.311c-0.81,0.808-2.124,0.808-2.935,0
			L2.683,19.071c-0.81-0.808-0.81-2.118,0-2.926l1.483-1.478L17.34,27.863L15.888,29.311z M30.096,14.329
			c0,0.528-0.485,1.302-1.002,1.817l-10.271,10.24L5.633,13.204L15.888,2.981c0.471-0.47,1.222-1.07,1.751-1.07h11.498
			c0.529,0,0.958,0.428,0.958,0.955V14.329z M19.557,6.638c-1.621,1.616-1.621,4.235,0,5.851c1.621,1.616,4.248,1.616,5.869,0
			s1.621-4.235,0-5.851C23.805,5.022,21.177,5.022,19.557,6.638z M23.958,11.026c-0.81,0.808-2.124,0.808-2.935,0
			c-0.81-0.808-0.81-2.118,0-2.926c0.81-0.808,2.124-0.808,2.935,0C24.769,8.908,24.769,10.218,23.958,11.026z"/>
	</g>
</g>
<g>
</g>
<g>
</g>
<g>
</g>
<g>
</g>
<g>
</g>
<g>
</g>
<g>
</g>
<g>
</g>
<g>
</g>
<g>
</g>
<g>
</g>
<g>
</g>
<g>
</g>
<g>
</g>
<g>
</g>
</svg>
