<?xml version="1.0" encoding="iso-8859-1"?>
<!-- Generator: Adobe Illustrator 18.0.0, SVG Export Plug-In . SVG Version: 6.00 Build 0)  -->
<!DOCTYPE svg PUBLIC "-//W3C//DTD SVG 1.1//EN" "http://www.w3.org/Graphics/SVG/1.1/DTD/svg11.dtd">
<svg version="1.1" id="Capa_1" xmlns="http://www.w3.org/2000/svg" xmlns:xlink="http://www.w3.org/1999/xlink" x="0px" y="0px"
	 viewBox="0 0 32 30" style="enable-background:new 0 0 32 30;" xml:space="preserve">
<g id="_x39__10_">
	<g>
		<path style="fill-rule:evenodd;clip-rule:evenodd;" d="M28,0H4C1.791,0,0,1.791,0,4v22c0,2.209,1.791,4,4,4h24
			c2.209,0,4-1.791,4-4V4C32,1.791,30.209,0,28,0z M6,28H4c-1.104,0-2-0.896-2-2V4c0-1.105,0.896-2,2-2h2V28z M30,26
			c0,1.104-0.896,2-2,2H8V2h20c1.104,0,2,0.895,2,2V26z M27,14H14.727l3.991-3.298c0.393-0.392,0.393-1.028,0-1.42
			c-0.393-0.392-1.031-0.392-1.424,0l-5.98,4.942c-0.21,0.209-0.299,0.487-0.285,0.76c-0.014,0.274,0.075,0.551,0.285,0.76
			l5.98,4.942c0.393,0.392,1.031,0.392,1.424,0c0.393-0.392,0.393-1.028,0-1.42L14.765,16H27c0.552,0,1-0.448,1-1
			C28,14.448,27.552,14,27,14z"/>
	</g>
</g>
<g>
</g>
<g>
</g>
<g>
</g>
<g>
</g>
<g>
</g>
<g>
</g>
<g>
</g>
<g>
</g>
<g>
</g>
<g>
</g>
<g>
</g>
<g>
</g>
<g>
</g>
<g>
</g>
<g>
</g>
</svg>
