<?xml version="1.0" encoding="iso-8859-1"?>
<!-- Generator: Adobe Illustrator 18.0.0, SVG Export Plug-In . SVG Version: 6.00 Build 0)  -->
<!DOCTYPE svg PUBLIC "-//W3C//DTD SVG 1.1//EN" "http://www.w3.org/Graphics/SVG/1.1/DTD/svg11.dtd">
<svg version="1.1" id="Capa_1" xmlns="http://www.w3.org/2000/svg" xmlns:xlink="http://www.w3.org/1999/xlink" x="0px" y="0px"
	 viewBox="0 0 27.004 28.018" style="enable-background:new 0 0 27.004 28.018;" xml:space="preserve">
<g id="_x31_">
	<g>
		<path style="fill-rule:evenodd;clip-rule:evenodd;" d="M11.986,7.02V1.122c0.034-0.295-0.047-0.6-0.275-0.827
			c-0.396-0.393-1.038-0.393-1.434,0L0.289,11.247c-0.211,0.21-0.301,0.488-0.287,0.763c-0.014,0.275,0.076,0.553,0.287,0.763
			l9.934,10.892c0.184,0.223,0.451,0.374,0.762,0.374c0.283,0,0.536-0.119,0.718-0.308c0.003-0.002,0.006-0.003,0.009-0.006
			c0.228-0.226,0.309-0.532,0.275-0.827c0,0,0.017-5.545,0.017-5.886c6.6,0,12.569,4.752,13.754,11.006
			c0.798-1.834,1.246-3.854,1.246-5.982C27.004,13.743,20.28,7.02,11.986,7.02z M13.004,15.012c-0.655,0-3.02,0.017-3.02,0.017
			v5.378L2.326,12.01l7.658-8.397v5.409c0,0,2.499-0.026,3.02-0.01c7.062,0.219,11.966,8.261,11.998,12.023
			C22.844,18.265,17.174,15.012,13.004,15.012z"/>
	</g>
</g>
<g>
</g>
<g>
</g>
<g>
</g>
<g>
</g>
<g>
</g>
<g>
</g>
<g>
</g>
<g>
</g>
<g>
</g>
<g>
</g>
<g>
</g>
<g>
</g>
<g>
</g>
<g>
</g>
<g>
</g>
</svg>
