<?xml version="1.0" encoding="iso-8859-1"?>
<!-- Generator: Adobe Illustrator 18.0.0, SVG Export Plug-In . SVG Version: 6.00 Build 0)  -->
<!DOCTYPE svg PUBLIC "-//W3C//DTD SVG 1.1//EN" "http://www.w3.org/Graphics/SVG/1.1/DTD/svg11.dtd">
<svg version="1.1" id="Capa_1" xmlns="http://www.w3.org/2000/svg" xmlns:xlink="http://www.w3.org/1999/xlink" x="0px" y="0px"
	 viewBox="0 0 32 32" style="enable-background:new 0 0 32 32;" xml:space="preserve">
<g id="_x31_0_3_">
	<g>
		<path style="fill-rule:evenodd;clip-rule:evenodd;" d="M16,0C7.163,0,0,7.163,0,16s7.163,16,16,16c8.836,0,16-7.163,16-16
			S24.837,0,16,0z M16,30C8.268,30,2,23.732,2,16C2,8.268,8.268,2,16,2s14,6.268,14,14C30,23.732,23.732,30,16,30z M20.536,7.464
			c-0.391-0.391-1.024-0.391-1.414,0l-7.657,7.657c-0.24,0.24-0.314,0.568-0.259,0.879c-0.055,0.31,0.02,0.639,0.259,0.879
			l7.657,7.657c0.391,0.39,1.024,0.39,1.414,0c0.391-0.391,0.391-1.024,0-1.414L13.414,16l7.121-7.121
			C20.926,8.488,20.926,7.855,20.536,7.464z"/>
	</g>
</g>
<g>
</g>
<g>
</g>
<g>
</g>
<g>
</g>
<g>
</g>
<g>
</g>
<g>
</g>
<g>
</g>
<g>
</g>
<g>
</g>
<g>
</g>
<g>
</g>
<g>
</g>
<g>
</g>
<g>
</g>
</svg>
