<?xml version="1.0" encoding="iso-8859-1"?>
<!-- Generator: Adobe Illustrator 18.0.0, SVG Export Plug-In . SVG Version: 6.00 Build 0)  -->
<!DOCTYPE svg PUBLIC "-//W3C//DTD SVG 1.1//EN" "http://www.w3.org/Graphics/SVG/1.1/DTD/svg11.dtd">
<svg version="1.1" id="Capa_1" xmlns="http://www.w3.org/2000/svg" xmlns:xlink="http://www.w3.org/1999/xlink" x="0px" y="0px"
	 viewBox="0 0 32 30.111" style="enable-background:new 0 0 32 30.111;" xml:space="preserve">
<g id="_x31__6_">
	<g>
		<path style="fill-rule:evenodd;clip-rule:evenodd;" d="M24,0c-3.333,0-5.855,1.956-8,4c-2.044-2.169-4.667-4-8-4
			C3.306,0,0,4.036,0,8.437c0,2.361,0.967,4.062,2.026,5.659l12.433,14.906c1.396,1.477,1.659,1.477,3.055,0l12.461-14.906
			C31.22,12.499,32,10.798,32,8.437C32,4.036,28.694,0,24,0z M28,13.682L16,28L4,13.623c-1.435-1.995-2-3.341-2-5.186
			c0-3.438,2.455-6.533,6-6.562c2.916-0.024,6.221,2.954,8,5.199c1.732-2.167,5.084-5.199,8-5.199c3.451,0,6,3.124,6,6.562
			C30,10.282,29.553,11.728,28,13.682z"/>
	</g>
</g>
<g>
</g>
<g>
</g>
<g>
</g>
<g>
</g>
<g>
</g>
<g>
</g>
<g>
</g>
<g>
</g>
<g>
</g>
<g>
</g>
<g>
</g>
<g>
</g>
<g>
</g>
<g>
</g>
<g>
</g>
</svg>
