<?xml version="1.0" encoding="iso-8859-1"?>
<!-- Generator: Adobe Illustrator 18.0.0, SVG Export Plug-In . SVG Version: 6.00 Build 0)  -->
<!DOCTYPE svg PUBLIC "-//W3C//DTD SVG 1.1//EN" "http://www.w3.org/Graphics/SVG/1.1/DTD/svg11.dtd">
<svg version="1.1" id="Capa_1" xmlns="http://www.w3.org/2000/svg" xmlns:xlink="http://www.w3.org/1999/xlink" x="0px" y="0px"
	 viewBox="0 0 30.971 30.971" style="enable-background:new 0 0 30.971 30.971;" xml:space="preserve">
<g id="_x32__9_">
	<g>
		<path style="fill-rule:evenodd;clip-rule:evenodd;" d="M6.905,28.356c-0.79,0.79-2.07,0.79-2.86,0l-1.43-1.43
			c-0.79-0.79-0.79-2.07,0-2.86l9.614-9.614c-1.347-0.356-2.838-0.023-3.894,1.033l-7.15,7.15c-1.58,1.58-1.58,4.141,0,5.72
			l1.43,1.43c1.58,1.58,4.141,1.58,5.72,0l7.15-7.15c1.056-1.056,1.389-2.547,1.033-3.894L6.905,28.356z M29.786,2.615l-1.43-1.43
			c-1.58-1.58-4.141-1.58-5.72,0l-7.15,7.15c-1.056,1.056-1.389,2.547-1.033,3.893l9.614-9.614c0.79-0.79,2.07-0.79,2.86,0
			l1.43,1.43c0.79,0.79,0.79,2.07,0,2.86l-9.614,9.614c1.347,0.356,2.838,0.023,3.893-1.033l7.15-7.15
			C31.366,6.756,31.366,4.194,29.786,2.615z M18.703,12.284c-0.395-0.395-1.035-0.395-1.43,0l-5.005,5.005
			c-0.395,0.395-0.395,1.035,0,1.43c0.395,0.395,1.035,0.395,1.43,0l5.005-5.005C19.098,13.319,19.098,12.678,18.703,12.284z"/>
	</g>
</g>
<g>
</g>
<g>
</g>
<g>
</g>
<g>
</g>
<g>
</g>
<g>
</g>
<g>
</g>
<g>
</g>
<g>
</g>
<g>
</g>
<g>
</g>
<g>
</g>
<g>
</g>
<g>
</g>
<g>
</g>
</svg>
