<?xml version="1.0" encoding="iso-8859-1"?>
<!-- Generator: Adobe Illustrator 18.0.0, SVG Export Plug-In . SVG Version: 6.00 Build 0)  -->
<!DOCTYPE svg PUBLIC "-//W3C//DTD SVG 1.1//EN" "http://www.w3.org/Graphics/SVG/1.1/DTD/svg11.dtd">
<svg version="1.1" id="Capa_1" xmlns="http://www.w3.org/2000/svg" xmlns:xlink="http://www.w3.org/1999/xlink" x="0px" y="0px"
	 viewBox="0 0 28 18" style="enable-background:new 0 0 28 18;" xml:space="preserve">
<g id="_x33__11_">
	<g>
		<path style="fill-rule:evenodd;clip-rule:evenodd;" d="M1,8C0.448,8,0,8.448,0,9c0,0.552,0.448,1,1,1c0.552,0,1-0.448,1-1
			C2,8.448,1.552,8,1,8z M1,16c-0.552,0-1,0.448-1,1c0,0.552,0.448,1,1,1c0.552,0,1-0.448,1-1C2,16.448,1.552,16,1,16z M7,2h20
			c0.552,0,1-0.448,1-1s-0.448-1-1-1H7C6.448,0,6,0.448,6,1S6.448,2,7,2z M1,0C0.448,0,0,0.448,0,1s0.448,1,1,1c0.552,0,1-0.448,1-1
			S1.552,0,1,0z M27,16H7c-0.552,0-1,0.448-1,1c0,0.552,0.448,1,1,1h20c0.552,0,1-0.448,1-1C28,16.448,27.552,16,27,16z M27,8H7
			C6.448,8,6,8.448,6,9c0,0.552,0.448,1,1,1h20c0.552,0,1-0.448,1-1C28,8.448,27.552,8,27,8z"/>
	</g>
</g>
<g>
</g>
<g>
</g>
<g>
</g>
<g>
</g>
<g>
</g>
<g>
</g>
<g>
</g>
<g>
</g>
<g>
</g>
<g>
</g>
<g>
</g>
<g>
</g>
<g>
</g>
<g>
</g>
<g>
</g>
</svg>
