<?xml version="1.0" encoding="iso-8859-1"?>
<!-- Generator: Adobe Illustrator 18.0.0, SVG Export Plug-In . SVG Version: 6.00 Build 0)  -->
<!DOCTYPE svg PUBLIC "-//W3C//DTD SVG 1.1//EN" "http://www.w3.org/Graphics/SVG/1.1/DTD/svg11.dtd">
<svg version="1.1" id="Capa_1" xmlns="http://www.w3.org/2000/svg" xmlns:xlink="http://www.w3.org/1999/xlink" x="0px" y="0px"
	 viewBox="0 0 32 30" style="enable-background:new 0 0 32 30;" xml:space="preserve">
<g id="_x33__17_">
	<g>
		<path style="fill-rule:evenodd;clip-rule:evenodd;" d="M30,0l-9,6H8c-4.418,0-8,2.582-8,7c0,3.733,2.542,6.339,6,7
			c0.045,0.27,0,8,0,8c0,1.105,0.895,2,2,2h3c1.105,0,2-0.896,2-2v-8h8l9,6c1.105,0,2-0.895,2-2V2C32,0.896,31.105,0,30,0z M11,27
			c0,0.552-0.448,1-1,1H9c-0.552,0-1-0.448-1-1v-7c0,0,2.5,0,3,0V27z M16,18H8c-1.988,0-6-0.582-6-5s3.946-5.066,6-5h8V18z M21,18
			h-3V8h3C21,8,21,16.912,21,18z M30,24l-7-5V7l7-5V24z"/>
	</g>
</g>
<g>
</g>
<g>
</g>
<g>
</g>
<g>
</g>
<g>
</g>
<g>
</g>
<g>
</g>
<g>
</g>
<g>
</g>
<g>
</g>
<g>
</g>
<g>
</g>
<g>
</g>
<g>
</g>
<g>
</g>
</svg>
