<?xml version="1.0" encoding="iso-8859-1"?>
<!-- Generator: Adobe Illustrator 18.0.0, SVG Export Plug-In . SVG Version: 6.00 Build 0)  -->
<!DOCTYPE svg PUBLIC "-//W3C//DTD SVG 1.1//EN" "http://www.w3.org/Graphics/SVG/1.1/DTD/svg11.dtd">
<svg version="1.1" id="Capa_1" xmlns="http://www.w3.org/2000/svg" xmlns:xlink="http://www.w3.org/1999/xlink" x="0px" y="0px"
	 viewBox="0 0 20 18" style="enable-background:new 0 0 20 18;" xml:space="preserve">
<g id="_x33__6_">
	<g>
		<path style="fill-rule:evenodd;clip-rule:evenodd;" d="M19,16H1c-0.552,0-1,0.448-1,1c0,0.552,0.448,1,1,1h18c0.552,0,1-0.448,1-1
			C20,16.448,19.552,16,19,16z M1,2h18c0.552,0,1-0.448,1-1c0-0.552-0.448-1-1-1H1C0.448,0,0,0.448,0,1C0,1.552,0.448,2,1,2z M19,8
			H1C0.448,8,0,8.448,0,9s0.448,1,1,1h18c0.552,0,1-0.448,1-1S19.552,8,19,8z"/>
	</g>
</g>
<g>
</g>
<g>
</g>
<g>
</g>
<g>
</g>
<g>
</g>
<g>
</g>
<g>
</g>
<g>
</g>
<g>
</g>
<g>
</g>
<g>
</g>
<g>
</g>
<g>
</g>
<g>
</g>
<g>
</g>
</svg>
