<?xml version="1.0" encoding="iso-8859-1"?>
<!-- Generator: Adobe Illustrator 18.0.0, SVG Export Plug-In . SVG Version: 6.00 Build 0)  -->
<!DOCTYPE svg PUBLIC "-//W3C//DTD SVG 1.1//EN" "http://www.w3.org/Graphics/SVG/1.1/DTD/svg11.dtd">
<svg version="1.1" id="Capa_1" xmlns="http://www.w3.org/2000/svg" xmlns:xlink="http://www.w3.org/1999/xlink" x="0px" y="0px"
	 viewBox="0 0 22 32" style="enable-background:new 0 0 22 32;" xml:space="preserve">
<g id="_x39__13_">
	<g>
		<path style="fill-rule:evenodd;clip-rule:evenodd;" d="M20.79,7.164C19.848,3.074,15.823,0,11,0C6.176,0,2.152,3.074,1.21,7.164
			C0.498,7.47,0,8.176,0,9v2c0,1.105,0.895,2,2,2h0.052c0.704,1.267,1.726,2.367,2.978,3.208L7,30c0,1.105,0.895,2,2,2h4
			c1.105,0,2-0.895,2-2l1.97-13.792c1.252-0.841,2.274-1.941,2.978-3.208H20c1.105,0,2-0.895,2-2V9
			C22,8.176,21.501,7.47,20.79,7.164z M11,2c3.623,0,6.68,2.109,7.664,5H3.336C4.32,4.109,7.377,2,11,2z M13,28
			c-0.219,1.037-0.264,2-1,2h-2c-0.736,0-0.719-0.994-1-2L7.093,17.286C8.293,17.746,9.613,18,11,18
			c1.386,0,2.707-0.255,3.907-0.714L13,28z M11,16c-2.717,0-5.114-1.188-6.56-3h13.12C16.114,14.812,13.717,16,11,16z M19,11H3
			c-0.552,0-1-0.448-1-1c0-0.552,0.448-1,1-1h16c0.552,0,1,0.448,1,1C20,10.552,19.552,11,19,11z"/>
	</g>
</g>
<g>
</g>
<g>
</g>
<g>
</g>
<g>
</g>
<g>
</g>
<g>
</g>
<g>
</g>
<g>
</g>
<g>
</g>
<g>
</g>
<g>
</g>
<g>
</g>
<g>
</g>
<g>
</g>
<g>
</g>
</svg>
