<?xml version="1.0" encoding="iso-8859-1"?>
<!-- Generator: Adobe Illustrator 18.0.0, SVG Export Plug-In . SVG Version: 6.00 Build 0)  -->
<!DOCTYPE svg PUBLIC "-//W3C//DTD SVG 1.1//EN" "http://www.w3.org/Graphics/SVG/1.1/DTD/svg11.dtd">
<svg version="1.1" id="Capa_1" xmlns="http://www.w3.org/2000/svg" xmlns:xlink="http://www.w3.org/1999/xlink" x="0px" y="0px"
	 viewBox="0 0 31 32" style="enable-background:new 0 0 31 32;" xml:space="preserve">
<g id="_x31_0_14_">
	<g>
		<path style="fill-rule:evenodd;clip-rule:evenodd;" d="M27,0H4C1.791,0,0,1.791,0,4v18c0,2.209,1.791,4,4,4h8v4h-2
			c-0.552,0-1,0.448-1,1c0,0.552,0.448,1,1,1h12c0.552,0,1-0.448,1-1c0-0.552-0.448-1-1-1h-2v-4h7c2.209,0,4-1.791,4-4V4
			C31,1.791,29.209,0,27,0z M18,30h-4v-4h4V30z M29,22c0,1.105-0.895,2-2,2H4c-1.105,0-2-0.895-2-2v-2h27V22z M29,18H2V4
			c0-1.105,0.895-2,2-2h23c1.105,0,2,0.896,2,2V18z"/>
	</g>
</g>
<g>
</g>
<g>
</g>
<g>
</g>
<g>
</g>
<g>
</g>
<g>
</g>
<g>
</g>
<g>
</g>
<g>
</g>
<g>
</g>
<g>
</g>
<g>
</g>
<g>
</g>
<g>
</g>
<g>
</g>
</svg>
