<?xml version="1.0" encoding="iso-8859-1"?>
<!-- Generator: Adobe Illustrator 18.0.0, SVG Export Plug-In . SVG Version: 6.00 Build 0)  -->
<!DOCTYPE svg PUBLIC "-//W3C//DTD SVG 1.1//EN" "http://www.w3.org/Graphics/SVG/1.1/DTD/svg11.dtd">
<svg version="1.1" id="Capa_1" xmlns="http://www.w3.org/2000/svg" xmlns:xlink="http://www.w3.org/1999/xlink" x="0px" y="0px"
	 viewBox="0 0 25.024 32" style="enable-background:new 0 0 25.024 32;" xml:space="preserve">
<g id="_x32__17_">
	<g>
		<path style="fill-rule:evenodd;clip-rule:evenodd;" d="M4.057,19.145C4.045,19.095,4.021,19.05,4.01,19h-2
			c0.11,0.596,0.271,1.175,0.478,1.733L4.057,19.145z M8.01,7c0-2.761,2.239-5,5-5c2.174,0,4.005,1.396,4.694,3.334l1.504-1.522
			C18.045,1.558,15.721,0,13.01,0c-3.866,0-7,3.134-7,7v10c0,0.052,2-1.856,2-1.856V7z M23.587,3.012L0,25.596l1.428,1.409
			L25.024,4.432L23.587,3.012z M13.01,26c-1.939,0-3.764-0.637-5.284-1.681L6.32,25.742c1.634,1.211,3.583,2.023,5.69,2.213V30h-1
			c-0.552,0-1,0.448-1,1c0,0.552,0.448,1,1,1h4c0.552,0,1-0.448,1-1c0-0.552-0.448-1-1-1h-1v-2.045
			c4.937-0.445,9.117-4.156,10-8.955h-2C21.1,23.006,17.292,26,13.01,26z M13.01,22c-0.865,0-1.665-0.239-2.375-0.626l-1.457,1.475
			C10.28,23.572,11.594,24,13.01,24c3.866,0,7-3.134,7-7v-5.113l-2,2.024V17C18.01,19.761,15.771,22,13.01,22z"/>
	</g>
</g>
<g>
</g>
<g>
</g>
<g>
</g>
<g>
</g>
<g>
</g>
<g>
</g>
<g>
</g>
<g>
</g>
<g>
</g>
<g>
</g>
<g>
</g>
<g>
</g>
<g>
</g>
<g>
</g>
<g>
</g>
</svg>
