<?xml version="1.0" encoding="iso-8859-1"?>
<!-- Generator: Adobe Illustrator 18.0.0, SVG Export Plug-In . SVG Version: 6.00 Build 0)  -->
<!DOCTYPE svg PUBLIC "-//W3C//DTD SVG 1.1//EN" "http://www.w3.org/Graphics/SVG/1.1/DTD/svg11.dtd">
<svg version="1.1" id="Capa_1" xmlns="http://www.w3.org/2000/svg" xmlns:xlink="http://www.w3.org/1999/xlink" x="0px" y="0px"
	 viewBox="0 0 32 24" style="enable-background:new 0 0 32 24;" xml:space="preserve">
<g id="_x38__18_">
	<g>
		<path style="fill-rule:evenodd;clip-rule:evenodd;" d="M17,14H5c-0.552,0-1,0.448-1,1c0,0.552,0.448,1,1,1h12c0.552,0,1-0.448,1-1
			C18,14.448,17.552,14,17,14z M17,18H5c-0.552,0-1,0.448-1,1c0,0.552,0.448,1,1,1h12c0.552,0,1-0.448,1-1
			C18,18.448,17.552,18,17,18z M28,0H4C1.791,0,0,1.791,0,4v16c0,2.209,1.791,4,4,4h24c2.209,0,4-1.791,4-4V4
			C32,1.791,30.209,0,28,0z M30,20c0,1.104-0.895,2-2,2H4c-1.105,0-2-0.896-2-2V4c0-1.105,0.896-2,2-2h24c1.105,0,2,0.895,2,2V20z
			 M26,4h-4c-1.105,0-2,0.896-2,2v4c0,1.105,0.895,2,2,2h4c1.105,0,2-0.895,2-2V6C28,4.895,27.105,4,26,4z M26,9
			c0,0.552-0.448,1-1,1h-2c-0.552,0-1-0.448-1-1V7c0-0.552,0.448-1,1-1h2c0.552,0,1,0.448,1,1V9z"/>
	</g>
</g>
<g>
</g>
<g>
</g>
<g>
</g>
<g>
</g>
<g>
</g>
<g>
</g>
<g>
</g>
<g>
</g>
<g>
</g>
<g>
</g>
<g>
</g>
<g>
</g>
<g>
</g>
<g>
</g>
<g>
</g>
</svg>
