<?xml version="1.0" encoding="iso-8859-1"?>
<!-- Generator: Adobe Illustrator 18.0.0, SVG Export Plug-In . SVG Version: 6.00 Build 0)  -->
<!DOCTYPE svg PUBLIC "-//W3C//DTD SVG 1.1//EN" "http://www.w3.org/Graphics/SVG/1.1/DTD/svg11.dtd">
<svg version="1.1" id="Capa_1" xmlns="http://www.w3.org/2000/svg" xmlns:xlink="http://www.w3.org/1999/xlink" x="0px" y="0px"
	 viewBox="0 0 32 32" style="enable-background:new 0 0 32 32;" xml:space="preserve">
<g id="_x37__16_">
	<g>
		<path style="fill-rule:evenodd;clip-rule:evenodd;" d="M15,28h2v-2h-2V28z M16,4c-0.552,0-1,0.448-1,1v10.024H7
			c-0.552,0-1,0.448-1,1c0,0.552,0.448,1,1,1h9c0.552,0,1-0.448,1-1V5C17,4.448,16.552,4,16,4z M6.733,22.832l1.384,1.387
			l1.384-1.387l-1.384-1.387L6.733,22.832z M9.693,8.323L8.278,6.909L6.864,8.323l1.414,1.414L9.693,8.323z M22.076,8.273
			L23.46,9.66l1.384-1.387L23.46,6.886L22.076,8.273z M21.783,22.778l1.414,1.414l1.414-1.414l-1.414-1.414L21.783,22.778z M26,15v2
			h2v-2H26z M16,0C7.163,0,0,7.164,0,16c0,8.837,7.163,16,16,16s16-7.164,16-16C32,7.164,24.837,0,16,0z M16,30
			C8.268,30,2,23.732,2,16S8.268,2,16,2s14,6.268,14,14S23.732,30,16,30z"/>
	</g>
</g>
<g>
</g>
<g>
</g>
<g>
</g>
<g>
</g>
<g>
</g>
<g>
</g>
<g>
</g>
<g>
</g>
<g>
</g>
<g>
</g>
<g>
</g>
<g>
</g>
<g>
</g>
<g>
</g>
<g>
</g>
</svg>
