<?xml version="1.0" encoding="iso-8859-1"?>
<!-- Generator: Adobe Illustrator 18.0.0, SVG Export Plug-In . SVG Version: 6.00 Build 0)  -->
<!DOCTYPE svg PUBLIC "-//W3C//DTD SVG 1.1//EN" "http://www.w3.org/Graphics/SVG/1.1/DTD/svg11.dtd">
<svg version="1.1" id="Capa_1" xmlns="http://www.w3.org/2000/svg" xmlns:xlink="http://www.w3.org/1999/xlink" x="0px" y="0px"
	 viewBox="0 0 32 32" style="enable-background:new 0 0 32 32;" xml:space="preserve">
<g id="_x39__21_">
	<g>
		<path style="fill-rule:evenodd;clip-rule:evenodd;" d="M8.11,18.068l-4.3,8.706c-0.361,0.98,0.423,1.858,1.403,1.403l8.7-4.303
			c0.375-0.073,0.739-0.218,1.029-0.509L30.396,7.9c0.776-0.776,0.776-2.035,0-2.812l-3.512-3.515c-0.776-0.776-2.034-0.776-2.81,0
			L8.619,17.038C8.329,17.329,8.183,17.693,8.11,18.068z M24.776,3.682c0.388-0.388,1.017-0.388,1.405,0l2.107,2.109
			c0.388,0.388,0.388,1.018,0,1.406l-2.107,2.109l-3.462-3.565L24.776,3.682z M21.239,7.222l3.537,3.49l-11.24,11.247
			c-1.317-1.318-3.139-3.141-3.512-3.515L21.239,7.222z M11.786,23.019l-5.372,3.254c-0.49,0.227-0.929-0.243-0.701-0.702
			l3.252-5.376L11.786,23.019z M30,12v16c0,1.098-1.086,2.012-2.183,2.012H3.974c-1.097,0-1.987-0.89-1.987-1.988V4.165
			C1.987,3.067,2.903,2,4,2h16V0H4C1.805,0,0,1.969,0,4.165v23.859C0,30.22,1.779,32,3.974,32h23.843C30.012,32,32,30.196,32,28V12
			H30z"/>
	</g>
</g>
<g>
</g>
<g>
</g>
<g>
</g>
<g>
</g>
<g>
</g>
<g>
</g>
<g>
</g>
<g>
</g>
<g>
</g>
<g>
</g>
<g>
</g>
<g>
</g>
<g>
</g>
<g>
</g>
<g>
</g>
</svg>
