<?xml version="1.0" encoding="iso-8859-1"?>
<!-- Generator: Adobe Illustrator 18.0.0, SVG Export Plug-In . SVG Version: 6.00 Build 0)  -->
<!DOCTYPE svg PUBLIC "-//W3C//DTD SVG 1.1//EN" "http://www.w3.org/Graphics/SVG/1.1/DTD/svg11.dtd">
<svg version="1.1" id="Capa_1" xmlns="http://www.w3.org/2000/svg" xmlns:xlink="http://www.w3.org/1999/xlink" x="0px" y="0px"
	 viewBox="0 0 32 32" style="enable-background:new 0 0 32 32;" xml:space="preserve">
<g id="_x39__18_">
	<g>
		<path style="fill-rule:evenodd;clip-rule:evenodd;" d="M16,0L0,9c0,2.281,0,19,0,19c0,2.209,1.791,4,4,4h24c2.209,0,4-1.791,4-4
			c0,0,0-16.812,0-19L16,0z M2,28V12.375l9.066,7.233l-8.971,8.971C2.039,28.394,2,28.203,2,28z M3.555,29.946l9.187-9.186L16,23
			l3.258-2.24l9.187,9.186C28.301,29.979,3.699,29.979,3.555,29.946z M30,28c0,0.203-0.039,0.394-0.095,0.579l-8.971-8.971
			L30,12.375V28z M16,20.656L2,10l13.98-7.669L30,10L16,20.656z"/>
	</g>
</g>
<g>
</g>
<g>
</g>
<g>
</g>
<g>
</g>
<g>
</g>
<g>
</g>
<g>
</g>
<g>
</g>
<g>
</g>
<g>
</g>
<g>
</g>
<g>
</g>
<g>
</g>
<g>
</g>
<g>
</g>
</svg>
