<?xml version="1.0" encoding="iso-8859-1"?>
<!-- Generator: Adobe Illustrator 18.0.0, SVG Export Plug-In . SVG Version: 6.00 Build 0)  -->
<!DOCTYPE svg PUBLIC "-//W3C//DTD SVG 1.1//EN" "http://www.w3.org/Graphics/SVG/1.1/DTD/svg11.dtd">
<svg version="1.1" id="Capa_1" xmlns="http://www.w3.org/2000/svg" xmlns:xlink="http://www.w3.org/1999/xlink" x="0px" y="0px"
	 viewBox="0 0 31.999 28.028" style="enable-background:new 0 0 31.999 28.028;" xml:space="preserve">
<g id="_x31__20_">
	<g>
		<path style="fill-rule:evenodd;clip-rule:evenodd;" d="M31.132,0.857c-1.157-1.142-3.033-1.142-4.189,0L9.764,17.817
			c-2.104-0.047-5.016,0.698-6.273,4.815C2.53,24.811,0,24.701,0,24.701c5.253,5.828,11.444,2.525,12.858,1.093
			c1.242-1.259,1.421-2.798,1.288-4.029L31.132,4.993C32.289,3.851,32.289,1.999,31.132,0.857z M11.461,24.415
			c-0.984,0.913-5.382,2.948-7.97,0.975c0,0,0.901-0.703,1.583-2.114c1.629-4.327,5.689-3.687,5.689-3.687l1.396,1.379
			C12.173,20.981,13.202,22.801,11.461,24.415z M13.556,19.589c-0.129-0.127-1.396-1.379-1.396-1.379l2.095-2.068l1.396,1.379
			L13.556,19.589z M29.735,3.614L17.047,16.142l-1.396-1.379L28.339,2.236c0.386-0.381,1.011-0.381,1.396,0
			C30.121,2.616,30.121,3.234,29.735,3.614z"/>
	</g>
</g>
<g>
</g>
<g>
</g>
<g>
</g>
<g>
</g>
<g>
</g>
<g>
</g>
<g>
</g>
<g>
</g>
<g>
</g>
<g>
</g>
<g>
</g>
<g>
</g>
<g>
</g>
<g>
</g>
<g>
</g>
</svg>
