<?xml version="1.0" encoding="iso-8859-1"?>
<!-- Generator: Adobe Illustrator 18.0.0, SVG Export Plug-In . SVG Version: 6.00 Build 0)  -->
<!DOCTYPE svg PUBLIC "-//W3C//DTD SVG 1.1//EN" "http://www.w3.org/Graphics/SVG/1.1/DTD/svg11.dtd">
<svg version="1.1" id="Capa_1" xmlns="http://www.w3.org/2000/svg" xmlns:xlink="http://www.w3.org/1999/xlink" x="0px" y="0px"
	 viewBox="0 0 32 30" style="enable-background:new 0 0 32 30;" xml:space="preserve">
<g id="_x33__19_">
	<g>
		<path style="fill-rule:evenodd;clip-rule:evenodd;" d="M28,4h-6V2c0-1.105-0.895-2-2-2h-8c-1.105,0-2,0.896-2,2v2H4
			C1.791,4,0,5.791,0,8v18c0,2.209,1.791,4,4,4h24c2.209,0,4-1.791,4-4V8C32,5.791,30.209,4,28,4z M12,3c0-0.552,0.448-1,1-1h6
			c0.552,0,1,0.448,1,1v1h-8V3z M30,26c0,1.104-0.895,2-2,2H4c-1.105,0-2-0.896-2-2V15h10.141C12.058,15.322,12,15.653,12,16
			c0,2.209,1.791,4,4,4c2.209,0,4-1.791,4-4c0-0.347-0.058-0.679-0.141-1H30V26z M14,16c0-0.366,0.106-0.705,0.277-1h3.445
			C17.894,15.295,18,15.634,18,16c0,1.105-0.896,2-2,2C14.895,18,14,17.105,14,16z M30,13H2V8c0-1.105,0.895-2,2-2h24
			c1.105,0,2,0.895,2,2V13z"/>
	</g>
</g>
<g>
</g>
<g>
</g>
<g>
</g>
<g>
</g>
<g>
</g>
<g>
</g>
<g>
</g>
<g>
</g>
<g>
</g>
<g>
</g>
<g>
</g>
<g>
</g>
<g>
</g>
<g>
</g>
<g>
</g>
</svg>
