<?xml version="1.0" encoding="iso-8859-1"?>
<!-- Generator: Adobe Illustrator 18.0.0, SVG Export Plug-In . SVG Version: 6.00 Build 0)  -->
<!DOCTYPE svg PUBLIC "-//W3C//DTD SVG 1.1//EN" "http://www.w3.org/Graphics/SVG/1.1/DTD/svg11.dtd">
<svg version="1.1" id="Capa_1" xmlns="http://www.w3.org/2000/svg" xmlns:xlink="http://www.w3.org/1999/xlink" x="0px" y="0px"
	 viewBox="0 0 32 28.009" style="enable-background:new 0 0 32 28.009;" xml:space="preserve">
<g id="_x35__13_">
	<g>
		<path style="fill-rule:evenodd;clip-rule:evenodd;" d="M11,20.009H5c-0.552,0-1,0.448-1,1s0.448,1,1,1h6c0.552,0,1-0.448,1-1
			S11.552,20.009,11,20.009z M11,16.009H5c-0.552,0-1,0.448-1,1c0,0.552,0.448,1,1,1h6c0.552,0,1-0.448,1-1
			C12,16.456,11.552,16.009,11,16.009z M28,6.009h-2.1l-10.534-5.88C14.888-0.136,14.276,0.021,14,0.48
			c-0.276,0.459-0.112,1.046,0.366,1.311l7.609,4.217H4c-2.209,0-4,1.791-4,4v14c0,2.209,1.791,4,4,4h24c2.209,0,4-1.791,4-4v-14
			C32,7.8,30.209,6.009,28,6.009z M30,24.009c0,1.105-0.895,2-2,2H4c-1.105,0-2-0.896-2-2v-14c0-1.104,0.895-2,2-2h24
			c1.105,0,2,0.896,2,2V24.009z M21,11.009c-3.314,0-6,2.687-6,6c0,3.314,2.686,6,6,6c3.314,0,6-2.686,6-6
			C27,13.695,24.314,11.009,21,11.009z M21,21.009c-2.209,0-4-1.791-4-4c0-2.209,1.791-4,4-4c2.209,0,4,1.791,4,4
			C25,19.218,23.209,21.009,21,21.009z M11,12.009H5c-0.552,0-1,0.448-1,1s0.448,1,1,1h6c0.552,0,1-0.448,1-1
			S11.552,12.009,11,12.009z"/>
	</g>
</g>
<g>
</g>
<g>
</g>
<g>
</g>
<g>
</g>
<g>
</g>
<g>
</g>
<g>
</g>
<g>
</g>
<g>
</g>
<g>
</g>
<g>
</g>
<g>
</g>
<g>
</g>
<g>
</g>
<g>
</g>
</svg>
