<?xml version="1.0" encoding="iso-8859-1"?>
<!-- Generator: Adobe Illustrator 18.0.0, SVG Export Plug-In . SVG Version: 6.00 Build 0)  -->
<!DOCTYPE svg PUBLIC "-//W3C//DTD SVG 1.1//EN" "http://www.w3.org/Graphics/SVG/1.1/DTD/svg11.dtd">
<svg version="1.1" id="Capa_1" xmlns="http://www.w3.org/2000/svg" xmlns:xlink="http://www.w3.org/1999/xlink" x="0px" y="0px"
	 viewBox="0 0 32 32" style="enable-background:new 0 0 32 32;" xml:space="preserve">
<g id="_x32__7_">
	<g>
		<path style="fill-rule:evenodd;clip-rule:evenodd;" d="M19,27c-0.552,0-1,0.448-1,1v3c0,0.552,0.448,1,1,1c0.552,0,1-0.448,1-1v-3
			C20,27.448,19.552,27,19,27z M7,27c-0.552,0-1,0.448-1,1v3c0,0.552,0.448,1,1,1c0.552,0,1-0.448,1-1v-3C8,27.448,7.552,27,7,27z
			 M13,27c-0.552,0-1,0.448-1,1v3c0,0.552,0.448,1,1,1s1-0.448,1-1v-3C14,27.448,13.552,27,13,27z M25,27c-0.552,0-1,0.448-1,1v3
			c0,0.552,0.448,1,1,1c0.552,0,1-0.448,1-1v-3C26,27.448,25.552,27,25,27z M23.067,5.029C21.599,2.052,18.543,0,15,0
			c-4.749,0-8.63,3.681-8.967,8.345C2.542,9.34,0,12.39,0,16c0,4.259,3.54,7.731,8,7.976C8,23.976,21.831,24,22,24
			c5.247,0,10-4.253,10-9.5C32,9.445,28.048,5.324,23.067,5.029z M22,22c-0.127,0-14,0-14,0s-6.038-0.62-6-6
			c0.021-3.036,2.812-5.75,6-6c0-4.142,2.651-8,7-8c3.433,0,5.723,2.095,6.538,5.013C26.493,6.797,29.844,10.717,30,14
			C30.21,18.413,25.601,22,22,22z"/>
	</g>
</g>
<g>
</g>
<g>
</g>
<g>
</g>
<g>
</g>
<g>
</g>
<g>
</g>
<g>
</g>
<g>
</g>
<g>
</g>
<g>
</g>
<g>
</g>
<g>
</g>
<g>
</g>
<g>
</g>
<g>
</g>
</svg>
