<?xml version="1.0" encoding="iso-8859-1"?>
<!-- Generator: Adobe Illustrator 18.0.0, SVG Export Plug-In . SVG Version: 6.00 Build 0)  -->
<!DOCTYPE svg PUBLIC "-//W3C//DTD SVG 1.1//EN" "http://www.w3.org/Graphics/SVG/1.1/DTD/svg11.dtd">
<svg version="1.1" id="Capa_1" xmlns="http://www.w3.org/2000/svg" xmlns:xlink="http://www.w3.org/1999/xlink" x="0px" y="0px"
	 viewBox="0 0 26.004 32" style="enable-background:new 0 0 26.004 32;" xml:space="preserve">
<g id="_x32__15_">
	<g>
		<path style="fill-rule:evenodd;clip-rule:evenodd;" d="M25.717,12.224l-2.98-5.942C22.524,6.069,22.241,5.982,21.962,6H16V4
			c0-2.209-1.791-4-4-4h-2C7.791,0,6,1.791,6,4v2H2C0.896,6,0,6.895,0,8v10c0,1.105,0.896,2,2,2h4v8c0,2.209,1.791,4,4,4h2
			c2.209,0,4-1.791,4-4v-8h6v-0.024c0.266,0.007,0.534-0.086,0.737-0.289l2.98-5.942c0.225-0.42,0.255-0.557,0.285-0.76
			C26.016,12.711,25.927,12.605,25.717,12.224z M8,4c0-1.105,0.896-2,2-2h2c1.105,0,2,0.895,2,2v2H8V4z M14,28c0,1.104-0.895,2-2,2
			h-2c-1.105,0-2-0.896-2-2v-8h6V28z M21.537,17.822C21.38,17.925,21.202,18,21,18H3c-0.552,0-1-0.448-1-1V9c0-0.552,0.448-1,1-1h18
			c0.213,0,0.399,0.081,0.561,0.194l2.402,4.79L21.537,17.822z"/>
	</g>
</g>
<g>
</g>
<g>
</g>
<g>
</g>
<g>
</g>
<g>
</g>
<g>
</g>
<g>
</g>
<g>
</g>
<g>
</g>
<g>
</g>
<g>
</g>
<g>
</g>
<g>
</g>
<g>
</g>
<g>
</g>
</svg>
