<?xml version="1.0" encoding="iso-8859-1"?>
<!-- Generator: Adobe Illustrator 18.0.0, SVG Export Plug-In . SVG Version: 6.00 Build 0)  -->
<!DOCTYPE svg PUBLIC "-//W3C//DTD SVG 1.1//EN" "http://www.w3.org/Graphics/SVG/1.1/DTD/svg11.dtd">
<svg version="1.1" id="Capa_1" xmlns="http://www.w3.org/2000/svg" xmlns:xlink="http://www.w3.org/1999/xlink" x="0px" y="0px"
	 viewBox="0 0 32 30" style="enable-background:new 0 0 32 30;" xml:space="preserve">
<g id="_x38__10_">
	<g>
		<path style="fill-rule:evenodd;clip-rule:evenodd;" d="M5,16h12.273l-3.991,3.299c-0.393,0.392-0.393,1.028,0,1.42
			c0.393,0.392,1.031,0.392,1.424,0l5.98-4.942c0.21-0.209,0.299-0.486,0.285-0.76c0.014-0.274-0.075-0.551-0.285-0.76l-5.98-4.942
			c-0.393-0.392-1.031-0.392-1.424,0c-0.393,0.392-0.393,1.028,0,1.42L17.235,14H5c-0.552,0-1,0.448-1,1C4,15.552,4.448,16,5,16z
			 M28,0H4C1.791,0,0,1.791,0,4v22c0,2.209,1.791,4,4,4h24c2.209,0,4-1.791,4-4V4C32,1.791,30.209,0,28,0z M24,28H4
			c-1.105,0-2-0.896-2-2V4c0-1.105,0.896-2,2-2h20V28z M30,26c0,1.104-0.896,2-2,2h-2V2h2c1.104,0,2,0.895,2,2V26z"/>
	</g>
</g>
<g>
</g>
<g>
</g>
<g>
</g>
<g>
</g>
<g>
</g>
<g>
</g>
<g>
</g>
<g>
</g>
<g>
</g>
<g>
</g>
<g>
</g>
<g>
</g>
<g>
</g>
<g>
</g>
<g>
</g>
</svg>
