<?xml version="1.0" encoding="iso-8859-1"?>
<!-- Generator: Adobe Illustrator 18.0.0, SVG Export Plug-In . SVG Version: 6.00 Build 0)  -->
<!DOCTYPE svg PUBLIC "-//W3C//DTD SVG 1.1//EN" "http://www.w3.org/Graphics/SVG/1.1/DTD/svg11.dtd">
<svg version="1.1" id="Capa_1" xmlns="http://www.w3.org/2000/svg" xmlns:xlink="http://www.w3.org/1999/xlink" x="0px" y="0px"
	 viewBox="0 0 32 32" style="enable-background:new 0 0 32 32;" xml:space="preserve">
<g id="_x38__4_">
	<g>
		<path style="fill-rule:evenodd;clip-rule:evenodd;" d="M28,0H4C1.791,0,0,1.791,0,4v24c0,2.209,1.791,4,4,4h24
			c2.209,0,4-1.791,4-4V4C32,1.791,30.209,0,28,0z M30,28c0,1.105-0.895,2-2,2H4c-1.105,0-2-0.895-2-2V4c0-1.104,0.895-2,2-2h24
			c1.105,0,2,0.895,2,2V28z M23.536,15.121l-5.657-5.657c-0.391-0.391-1.024-0.391-1.414,0c-0.391,0.391-0.391,1.024,0,1.414
			L20.586,15H10c-0.552,0-1,0.448-1,1c0,0.552,0.448,1,1,1h10.586l-4.121,4.121c-0.391,0.391-0.391,1.024,0,1.414
			c0.391,0.391,1.024,0.391,1.414,0l5.657-5.657c0.24-0.24,0.314-0.568,0.26-0.879C23.85,15.69,23.775,15.361,23.536,15.121z"/>
	</g>
</g>
<g>
</g>
<g>
</g>
<g>
</g>
<g>
</g>
<g>
</g>
<g>
</g>
<g>
</g>
<g>
</g>
<g>
</g>
<g>
</g>
<g>
</g>
<g>
</g>
<g>
</g>
<g>
</g>
<g>
</g>
</svg>
