<?xml version="1.0" encoding="iso-8859-1"?>
<!-- Generator: Adobe Illustrator 18.0.0, SVG Export Plug-In . SVG Version: 6.00 Build 0)  -->
<!DOCTYPE svg PUBLIC "-//W3C//DTD SVG 1.1//EN" "http://www.w3.org/Graphics/SVG/1.1/DTD/svg11.dtd">
<svg version="1.1" id="Capa_1" xmlns="http://www.w3.org/2000/svg" xmlns:xlink="http://www.w3.org/1999/xlink" x="0px" y="0px"
	 viewBox="0 0 32 32" style="enable-background:new 0 0 32 32;" xml:space="preserve">
<g id="_x34__4_">
	<g>
		<path style="fill-rule:evenodd;clip-rule:evenodd;" d="M11.744,6.314c-0.395-0.393-1.034-0.393-1.429,0
			c-0.395,0.393-0.395,1.03,0,1.423l8.309,8.279l-8.309,8.279c-0.395,0.393-0.395,1.03,0,1.423c0.395,0.393,1.034,0.393,1.429,0
			l8.972-8.94c0.211-0.21,0.3-0.487,0.286-0.762c0.014-0.274-0.076-0.552-0.286-0.762L11.744,6.314z M28,0H4C1.791,0,0,1.791,0,4v24
			c0,2.209,1.791,4,4,4h24c2.209,0,4-1.791,4-4V4C32,1.791,30.209,0,28,0z M30,28c0,1.104-0.895,2-2,2H4c-1.105,0-2-0.896-2-2V4
			c0-1.104,0.895-2,2-2h24c1.105,0,2,0.896,2,2V28z"/>
	</g>
</g>
<g>
</g>
<g>
</g>
<g>
</g>
<g>
</g>
<g>
</g>
<g>
</g>
<g>
</g>
<g>
</g>
<g>
</g>
<g>
</g>
<g>
</g>
<g>
</g>
<g>
</g>
<g>
</g>
<g>
</g>
</svg>
