<?xml version="1.0" encoding="iso-8859-1"?>
<!-- Generator: Adobe Illustrator 18.0.0, SVG Export Plug-In . SVG Version: 6.00 Build 0)  -->
<!DOCTYPE svg PUBLIC "-//W3C//DTD SVG 1.1//EN" "http://www.w3.org/Graphics/SVG/1.1/DTD/svg11.dtd">
<svg version="1.1" id="Capa_1" xmlns="http://www.w3.org/2000/svg" xmlns:xlink="http://www.w3.org/1999/xlink" x="0px" y="0px"
	 viewBox="0 0 27.004 28.018" style="enable-background:new 0 0 27.004 28.018;" xml:space="preserve">
<g id="_x32_">
	<g>
		<path style="fill-rule:evenodd;clip-rule:evenodd;" d="M26.715,11.247L16.726,0.295c-0.396-0.393-1.038-0.393-1.434,0
			c-0.228,0.226-0.309,0.532-0.275,0.827V7.02C6.724,7.02,0,13.743,0,22.037c0,2.127,0.448,4.148,1.246,5.982
			C2.431,21.763,8.4,17.012,15,17.012c0,0.342,0.017,5.886,0.017,5.886c-0.035,0.295,0.047,0.6,0.275,0.827
			c0.003,0.003,0.006,0.003,0.009,0.006c0.182,0.189,0.435,0.308,0.718,0.308c0.311,0,0.579-0.151,0.762-0.374l9.934-10.892
			c0.211-0.21,0.301-0.488,0.287-0.763C27.016,11.735,26.926,11.457,26.715,11.247z M17.02,20.406v-5.378
			c0,0-2.365-0.017-3.02-0.017c-4.171,0-9.84,3.253-11.998,6.023C2.034,17.273,6.938,9.231,14,9.012c0.52-0.016,3.02,0.01,3.02,0.01
			V3.613l7.658,8.397L17.02,20.406z"/>
	</g>
</g>
<g>
</g>
<g>
</g>
<g>
</g>
<g>
</g>
<g>
</g>
<g>
</g>
<g>
</g>
<g>
</g>
<g>
</g>
<g>
</g>
<g>
</g>
<g>
</g>
<g>
</g>
<g>
</g>
<g>
</g>
</svg>
