<?xml version="1.0" encoding="iso-8859-1"?>
<!-- Generator: Adobe Illustrator 18.0.0, SVG Export Plug-In . SVG Version: 6.00 Build 0)  -->
<!DOCTYPE svg PUBLIC "-//W3C//DTD SVG 1.1//EN" "http://www.w3.org/Graphics/SVG/1.1/DTD/svg11.dtd">
<svg version="1.1" id="Capa_1" xmlns="http://www.w3.org/2000/svg" xmlns:xlink="http://www.w3.org/1999/xlink" x="0px" y="0px"
	 viewBox="0 0 32 32" style="enable-background:new 0 0 32 32;" xml:space="preserve">
<g id="_x31__2_">
	<g>
		<path style="fill-rule:evenodd;clip-rule:evenodd;" d="M20.536,15.121l-7.657-7.657c-0.391-0.391-1.024-0.391-1.414,0
			c-0.391,0.391-0.391,1.024,0,1.414L18.586,16l-7.121,7.121c-0.391,0.391-0.391,1.024,0,1.414c0.391,0.391,1.024,0.391,1.414,0
			l7.657-7.657c0.24-0.24,0.314-0.568,0.26-0.879C20.85,15.69,20.775,15.361,20.536,15.121z M16,0C7.163,0,0,7.164,0,16
			c0,8.837,7.163,16,16,16c8.837,0,16-7.163,16-16C32,7.164,24.837,0,16,0z M16,30C8.268,30,2,23.732,2,16C2,8.268,8.268,2,16,2
			c7.732,0,14,6.268,14,14C30,23.732,23.732,30,16,30z"/>
	</g>
</g>
<g>
</g>
<g>
</g>
<g>
</g>
<g>
</g>
<g>
</g>
<g>
</g>
<g>
</g>
<g>
</g>
<g>
</g>
<g>
</g>
<g>
</g>
<g>
</g>
<g>
</g>
<g>
</g>
<g>
</g>
</svg>
