<?xml version="1.0" encoding="iso-8859-1"?>
<!-- Generator: Adobe Illustrator 18.0.0, SVG Export Plug-In . SVG Version: 6.00 Build 0)  -->
<!DOCTYPE svg PUBLIC "-//W3C//DTD SVG 1.1//EN" "http://www.w3.org/Graphics/SVG/1.1/DTD/svg11.dtd">
<svg version="1.1" id="Capa_1" xmlns="http://www.w3.org/2000/svg" xmlns:xlink="http://www.w3.org/1999/xlink" x="0px" y="0px"
	 viewBox="0 0 22 32" style="enable-background:new 0 0 22 32;" xml:space="preserve">
<g id="_x31_0_16_">
	<g>
		<path style="fill-rule:evenodd;clip-rule:evenodd;" d="M21,30h-2v-7c0-3.866-3.134-7-7-7c3.866,0,7-3.134,7-7V2h2
			c0.552,0,1-0.448,1-1c0-0.552-0.448-1-1-1H1C0.448,0,0,0.448,0,1c0,0.552,0.448,1,1,1h2v7c0,3.866,3.134,7,7,7
			c-3.866,0-7,3.134-7,7v7H1c-0.552,0-1,0.448-1,1c0,0.552,0.448,1,1,1h20c0.552,0,1-0.448,1-1C22,30.448,21.552,30,21,30z M5,9
			c0-1.753,0-7,0-7h12c0,0,0,5.391,0,7c0,2.761-2.351,5-5.25,5h-1.5C7.351,14,5,11.761,5,9z M17,30H5c0,0,0-5.248,0-7
			c0-2.761,2.351-5,5.25-5h1.5c2.899,0,5.25,2.239,5.25,5C17,24.609,17,30,17,30z"/>
	</g>
</g>
<g>
</g>
<g>
</g>
<g>
</g>
<g>
</g>
<g>
</g>
<g>
</g>
<g>
</g>
<g>
</g>
<g>
</g>
<g>
</g>
<g>
</g>
<g>
</g>
<g>
</g>
<g>
</g>
<g>
</g>
</svg>
