<?xml version="1.0" encoding="iso-8859-1"?>
<!-- Generator: Adobe Illustrator 18.0.0, SVG Export Plug-In . SVG Version: 6.00 Build 0)  -->
<!DOCTYPE svg PUBLIC "-//W3C//DTD SVG 1.1//EN" "http://www.w3.org/Graphics/SVG/1.1/DTD/svg11.dtd">
<svg version="1.1" id="Capa_1" xmlns="http://www.w3.org/2000/svg" xmlns:xlink="http://www.w3.org/1999/xlink" x="0px" y="0px"
	 viewBox="0 0 14 32" style="enable-background:new 0 0 14 32;" xml:space="preserve">
<g id="_x33__14_">
	<g>
		<path style="fill-rule:evenodd;clip-rule:evenodd;" d="M14,8c0-4.418-3.134-8-7-8S0,3.582,0,8c0,4.036,2.618,7.365,6.018,7.912
			C6.015,15.943,6,15.969,6,16v15c0,0.552,0.448,1,1,1c0.552,0,1-0.448,1-1V16c0-0.031-0.015-0.057-0.018-0.088
			C11.382,15.365,14,12.036,14,8z M7,14c-2.761,0-5-2.686-5-6c0-3.314,2.239-6,5-6c2.761,0,5,2.686,5,6C12,11.314,9.761,14,7,14z"/>
	</g>
</g>
<g>
</g>
<g>
</g>
<g>
</g>
<g>
</g>
<g>
</g>
<g>
</g>
<g>
</g>
<g>
</g>
<g>
</g>
<g>
</g>
<g>
</g>
<g>
</g>
<g>
</g>
<g>
</g>
<g>
</g>
</svg>
