<?xml version="1.0" encoding="iso-8859-1"?>
<!-- Generator: Adobe Illustrator 18.0.0, SVG Export Plug-In . SVG Version: 6.00 Build 0)  -->
<!DOCTYPE svg PUBLIC "-//W3C//DTD SVG 1.1//EN" "http://www.w3.org/Graphics/SVG/1.1/DTD/svg11.dtd">
<svg version="1.1" id="Capa_1" xmlns="http://www.w3.org/2000/svg" xmlns:xlink="http://www.w3.org/1999/xlink" x="0px" y="0px"
	 viewBox="0 0 24 32" style="enable-background:new 0 0 24 32;" xml:space="preserve">
<g id="_x31_0_9_">
	<g>
		<path style="fill-rule:evenodd;clip-rule:evenodd;" d="M20,4h-2c0-2.209-2.686-4-6-4C8.686,0,6,1.791,6,4H4C1.791,4,0,5.791,0,8
			v20c0,2.209,1.791,4,4,4h16c2.209,0,4-1.791,4-4V8C24,5.791,22.209,4,20,4z M12,2c2.209,0,4,0.619,4,2H8C8,2.619,9.791,2,12,2z
			 M22,28c0,1.104-0.896,2-2,2H4c-1.105,0-2-0.896-2-2v-2h20V28z M22,24H2V8c0-1.105,0.895-2,2-2h2v6h2V6h8v6h2V6h2
			c1.105,0,2,0.895,2,2V24z"/>
	</g>
</g>
<g>
</g>
<g>
</g>
<g>
</g>
<g>
</g>
<g>
</g>
<g>
</g>
<g>
</g>
<g>
</g>
<g>
</g>
<g>
</g>
<g>
</g>
<g>
</g>
<g>
</g>
<g>
</g>
<g>
</g>
</svg>
