<?xml version="1.0" encoding="iso-8859-1"?>
<!-- Generator: Adobe Illustrator 18.0.0, SVG Export Plug-In . SVG Version: 6.00 Build 0)  -->
<!DOCTYPE svg PUBLIC "-//W3C//DTD SVG 1.1//EN" "http://www.w3.org/Graphics/SVG/1.1/DTD/svg11.dtd">
<svg version="1.1" id="Capa_1" xmlns="http://www.w3.org/2000/svg" xmlns:xlink="http://www.w3.org/1999/xlink" x="0px" y="0px"
	 viewBox="0 0 32 30" style="enable-background:new 0 0 32 30;" xml:space="preserve">
<g id="_x38__9_">
	<g>
		<path style="fill-rule:evenodd;clip-rule:evenodd;" d="M9.969,8L7.474,0H1C0.448,0,0,0.448,0,1c0,0.552,0.448,1,1,1h5l2.01,6H8
			l2,12c0,2.209,1.791,4,4,4h11c2.209,0,4-1.791,4-4l3-12H9.969z M27,20c0,1.104-0.896,2-2,2H14c-1.105,0-2-0.896-2-2l-1.667-10
			H29.5L27,20z M14,26c-1.105,0-2,0.895-2,2c0,1.104,0.895,2,2,2c1.105,0,2-0.896,2-2C16,26.895,15.105,26,14,26z M24,26
			c-1.105,0-2,0.895-2,2c0,1.104,0.895,2,2,2c1.105,0,2-0.896,2-2C26,26.895,25.105,26,24,26z"/>
	</g>
</g>
<g>
</g>
<g>
</g>
<g>
</g>
<g>
</g>
<g>
</g>
<g>
</g>
<g>
</g>
<g>
</g>
<g>
</g>
<g>
</g>
<g>
</g>
<g>
</g>
<g>
</g>
<g>
</g>
<g>
</g>
</svg>
