<?xml version="1.0" encoding="iso-8859-1"?>
<!-- Generator: Adobe Illustrator 18.0.0, SVG Export Plug-In . SVG Version: 6.00 Build 0)  -->
<!DOCTYPE svg PUBLIC "-//W3C//DTD SVG 1.1//EN" "http://www.w3.org/Graphics/SVG/1.1/DTD/svg11.dtd">
<svg version="1.1" id="Capa_1" xmlns="http://www.w3.org/2000/svg" xmlns:xlink="http://www.w3.org/1999/xlink" x="0px" y="0px"
	 viewBox="0 0 32 26" style="enable-background:new 0 0 32 26;" xml:space="preserve">
<g id="_x37__9_">
	<g>
		<path style="fill-rule:evenodd;clip-rule:evenodd;" d="M31,6h-6.527L26.5,2H29c0.552,0,1-0.448,1-1c0-0.552-0.448-1-1-1h-4
			l-3.084,6H10.168L7,0H3C2.448,0,2,0.448,2,1c0,0.552,0.448,1,1,1h2.5l2.146,4H1C0.448,6,0,6.448,0,7c0,0.552,0.448,1,1,1h1l1,14
			c0,2.209,1.791,4,4,4h17c2.209,0,4-1.791,4-4l2-14h1c0.552,0,1-0.448,1-1C32,6.448,31.552,6,31,6z M10,24H7c-1.105,0-2-0.895-2-2
			l-0.143-2H10V24z M10,18H4.714l-0.286-4H10V18z M10,12H4.286L4,8h6V12z M20,24h-8v-4h8V24z M20,18h-8v-4h8V18z M20,12h-8V8h8V12z
			 M26,22c0,1.105-0.895,2-2,2h-2v-4h4.286L26,22z M26.571,18H22v-4h5.143L26.571,18z M27.429,12H22V8h6L27.429,12z"/>
	</g>
</g>
<g>
</g>
<g>
</g>
<g>
</g>
<g>
</g>
<g>
</g>
<g>
</g>
<g>
</g>
<g>
</g>
<g>
</g>
<g>
</g>
<g>
</g>
<g>
</g>
<g>
</g>
<g>
</g>
<g>
</g>
</svg>
