<?xml version="1.0" encoding="iso-8859-1"?>
<!-- Generator: Adobe Illustrator 18.0.0, SVG Export Plug-In . SVG Version: 6.00 Build 0)  -->
<!DOCTYPE svg PUBLIC "-//W3C//DTD SVG 1.1//EN" "http://www.w3.org/Graphics/SVG/1.1/DTD/svg11.dtd">
<svg version="1.1" id="Capa_1" xmlns="http://www.w3.org/2000/svg" xmlns:xlink="http://www.w3.org/1999/xlink" x="0px" y="0px"
	 viewBox="0 0 26.994 22.945" style="enable-background:new 0 0 26.994 22.945;" xml:space="preserve">
<g id="_x36__11_">
	<g>
		<path style="fill-rule:evenodd;clip-rule:evenodd;" d="M1,4.997h4L8.508,9.8l1.258-1.631c0,0-3.512-4.848-3.766-5.171H1
			c-0.552,0-1,0.534-1,1.08C0,4.624,0.448,4.997,1,4.997z M22.528,15.163c-0.298-0.295-1.23-0.217-1.528,0.078l0,2.756h-4
			l-3.535-4.839l-1.258,1.631L16,19.906h5l0,2.872c0.298,0.295,1.23,0.164,1.528-0.131l4.242-3.207c0.298-0.295,0.298-0.774,0-1.069
			L22.528,15.163z M21,4.997v2.688c0.298,0.295,1.23,0.418,1.528,0.123l4.242-3.207c0.298-0.295,0.298-0.774,0-1.069l-4.242-3.207
			C22.23,0.029,21.298-0.141,21,0.154v2.844h-5l-11,15H1c-0.552,0-1,0.373-1,0.92c0,0.546,0.448,1.08,1,1.08h5l11-15H21z"/>
	</g>
</g>
<g>
</g>
<g>
</g>
<g>
</g>
<g>
</g>
<g>
</g>
<g>
</g>
<g>
</g>
<g>
</g>
<g>
</g>
<g>
</g>
<g>
</g>
<g>
</g>
<g>
</g>
<g>
</g>
<g>
</g>
</svg>
