<?xml version="1.0" encoding="iso-8859-1"?>
<!-- Generator: Adobe Illustrator 18.0.0, SVG Export Plug-In . SVG Version: 6.00 Build 0)  -->
<!DOCTYPE svg PUBLIC "-//W3C//DTD SVG 1.1//EN" "http://www.w3.org/Graphics/SVG/1.1/DTD/svg11.dtd">
<svg version="1.1" id="Capa_1" xmlns="http://www.w3.org/2000/svg" xmlns:xlink="http://www.w3.org/1999/xlink" x="0px" y="0px"
	 viewBox="0 0 24 32" style="enable-background:new 0 0 24 32;" xml:space="preserve">
<g id="_x31__12_">
	<g>
		<path style="fill-rule:evenodd;clip-rule:evenodd;" d="M20,0H4C1.791,0,0,1.791,0,4v24c0,2.209,1.791,4,4,4h16
			c2.209,0,4-1.791,4-4V4C24,1.791,22.209,0,20,0z M22,28c0,1.104-0.895,2-2,2h-8H4c-1.105,0-2-0.895-2-2V4c0-1.104,0.896-2,2-2h16
			c1.105,0,2,0.896,2,2V28z M12,4C9.239,4,7,6.239,7,9c0,2.762,2.239,5,5,5s5-2.239,5-5C17,6.239,14.761,4,12,4z M12,12.008
			c-1.661,0-3.008-1.346-3.008-3.008c0-1.661,1.346-3.008,3.008-3.008c1.661,0,3.008,1.347,3.008,3.008
			C15.008,10.661,13.661,12.008,12,12.008z M19,23c0-3.866-3.134-7-7-7c-3.866,0-7,3.134-7,7c0,3.866,3.134,7,7,7
			C15.866,30,19,26.866,19,23z M12,28c-2.761,0-5-2.239-5-5c0-2.761,2.239-5,5-5s5,2.239,5,5C17,25.762,14.761,28,12,28z"/>
	</g>
</g>
<g>
</g>
<g>
</g>
<g>
</g>
<g>
</g>
<g>
</g>
<g>
</g>
<g>
</g>
<g>
</g>
<g>
</g>
<g>
</g>
<g>
</g>
<g>
</g>
<g>
</g>
<g>
</g>
<g>
</g>
</svg>
