<?xml version="1.0" encoding="iso-8859-1"?>
<!-- Generator: Adobe Illustrator 18.0.0, SVG Export Plug-In . SVG Version: 6.00 Build 0)  -->
<!DOCTYPE svg PUBLIC "-//W3C//DTD SVG 1.1//EN" "http://www.w3.org/Graphics/SVG/1.1/DTD/svg11.dtd">
<svg version="1.1" id="Capa_1" xmlns="http://www.w3.org/2000/svg" xmlns:xlink="http://www.w3.org/1999/xlink" x="0px" y="0px"
	 viewBox="0 0 32 32" style="enable-background:new 0 0 32 32;" xml:space="preserve">
<g id="_x31_0_13_">
	<g>
		<path style="fill-rule:evenodd;clip-rule:evenodd;" d="M5,6c0.552,0,1-0.448,1-1c0-0.552-0.448-1-1-1C4.448,4,4,4.448,4,5
			C4,5.552,4.448,6,5,6z M27,26c-0.552,0-1,0.448-1,1c0,0.552,0.448,1,1,1c0.552,0,1-0.448,1-1C28,26.448,27.552,26,27,26z M5,26
			c-0.552,0-1,0.448-1,1c0,0.552,0.448,1,1,1c0.552,0,1-0.448,1-1C6,26.448,5.552,26,5,26z M27,4c-0.552,0-1,0.448-1,1
			c0,0.552,0.448,1,1,1c0.552,0,1-0.448,1-1C28,4.448,27.552,4,27,4z M28,0H4C1.791,0,0,1.791,0,4v24c0,2.209,1.791,4,4,4h24
			c2.209,0,4-1.791,4-4V4C32,1.791,30.209,0,28,0z M30,28c0,1.105-0.895,2-2,2H4c-1.105,0-2-0.895-2-2V4c0-1.105,0.896-2,2-2h24
			c1.105,0,2,0.896,2,2V28z M16,4C9.373,4,4,9.373,4,16c0,6.627,5.373,12,12,12c6.627,0,12-5.373,12-12C28,9.373,22.627,4,16,4z
			 M16,26c-5.523,0-10-4.477-10-10c0-5.523,4.477-10,10-10c5.523,0,10,4.477,10,10C26,21.523,21.523,26,16,26z M16,10
			c-3.314,0-6,2.686-6,6s2.686,6,6,6c3.314,0,6-2.686,6-6S19.314,10,16,10z M16,20c-2.209,0-4-1.791-4-4c0-2.209,1.791-4,4-4
			c2.209,0,4,1.791,4,4C20,18.209,18.209,20,16,20z"/>
	</g>
</g>
<g>
</g>
<g>
</g>
<g>
</g>
<g>
</g>
<g>
</g>
<g>
</g>
<g>
</g>
<g>
</g>
<g>
</g>
<g>
</g>
<g>
</g>
<g>
</g>
<g>
</g>
<g>
</g>
<g>
</g>
</svg>
