<?xml version="1.0" encoding="iso-8859-1"?>
<!-- Generator: Adobe Illustrator 18.0.0, SVG Export Plug-In . SVG Version: 6.00 Build 0)  -->
<!DOCTYPE svg PUBLIC "-//W3C//DTD SVG 1.1//EN" "http://www.w3.org/Graphics/SVG/1.1/DTD/svg11.dtd">
<svg version="1.1" id="Capa_1" xmlns="http://www.w3.org/2000/svg" xmlns:xlink="http://www.w3.org/1999/xlink" x="0px" y="0px"
	 viewBox="0 0 32 32" style="enable-background:new 0 0 32 32;" xml:space="preserve">
<g id="_x39__6_">
	<g>
		<path style="fill-rule:evenodd;clip-rule:evenodd;" d="M2,28v-8H0v8c0,2.209,1.791,4,4,4h8v-2H4C2.895,30,2,29.105,2,28z M0,4v8h2
			V4c0-1.104,0.895-2,2-2h8V0H4C1.791,0,0,1.791,0,4z M30,28c0,1.105-0.895,2-2,2h-8v2h8c2.209,0,4-1.791,4-4v-8h-2V28z M28,0h-8v2
			h8c1.105,0,2,0.896,2,2v8h2V4C32,1.791,30.209,0,28,0z"/>
	</g>
</g>
<g>
</g>
<g>
</g>
<g>
</g>
<g>
</g>
<g>
</g>
<g>
</g>
<g>
</g>
<g>
</g>
<g>
</g>
<g>
</g>
<g>
</g>
<g>
</g>
<g>
</g>
<g>
</g>
<g>
</g>
</svg>
