<?xml version="1.0" encoding="iso-8859-1"?>
<!-- Generator: Adobe Illustrator 18.0.0, SVG Export Plug-In . SVG Version: 6.00 Build 0)  -->
<!DOCTYPE svg PUBLIC "-//W3C//DTD SVG 1.1//EN" "http://www.w3.org/Graphics/SVG/1.1/DTD/svg11.dtd">
<svg version="1.1" id="Capa_1" xmlns="http://www.w3.org/2000/svg" xmlns:xlink="http://www.w3.org/1999/xlink" x="0px" y="0px"
	 viewBox="0 0 32 32" style="enable-background:new 0 0 32 32;" xml:space="preserve">
<g id="_x34__6_">
	<g>
		<path style="fill-rule:evenodd;clip-rule:evenodd;" d="M29,24.141V7.859C30.722,7.412,32,5.862,32,4c0-2.209-1.791-4-4-4
			c-1.862,0-3.412,1.278-3.859,3H7.859C7.412,1.278,5.862,0,4,0C1.791,0,0,1.791,0,4c0,1.862,1.278,3.412,3,3.859v16.283
			C1.278,24.588,0,26.138,0,28c0,2.209,1.791,4,4,4c1.862,0,3.412-1.278,3.859-3h16.283c0.446,1.722,1.997,3,3.859,3
			c2.209,0,4-1.791,4-4C32,26.138,30.722,24.588,29,24.141z M28,2c1.105,0,2,0.895,2,2c0,1.105-0.895,2-2,2s-2-0.895-2-2
			C26,2.895,26.895,2,28,2z M2,4c0-1.105,0.895-2,2-2c1.105,0,2,0.895,2,2c0,1.105-0.895,2-2,2C2.895,6,2,5.105,2,4z M4,30
			c-1.105,0-2-0.895-2-2c0-1.105,0.895-2,2-2c1.105,0,2,0.895,2,2C6,29.105,5.105,30,4,30z M24.141,27H7.859
			C7.496,25.599,6.401,24.504,5,24.141V7.859C6.401,7.496,7.496,6.401,7.859,5h16.283C24.504,6.401,25.599,7.496,27,7.859v16.283
			C25.599,24.504,24.504,25.599,24.141,27z M28,30c-1.105,0-2-0.895-2-2c0-1.105,0.895-2,2-2s2,0.895,2,2C30,29.105,29.105,30,28,30
			z"/>
	</g>
</g>
<g>
</g>
<g>
</g>
<g>
</g>
<g>
</g>
<g>
</g>
<g>
</g>
<g>
</g>
<g>
</g>
<g>
</g>
<g>
</g>
<g>
</g>
<g>
</g>
<g>
</g>
<g>
</g>
<g>
</g>
</svg>
