<?xml version="1.0" encoding="iso-8859-1"?>
<!-- Generator: Adobe Illustrator 18.0.0, SVG Export Plug-In . SVG Version: 6.00 Build 0)  -->
<!DOCTYPE svg PUBLIC "-//W3C//DTD SVG 1.1//EN" "http://www.w3.org/Graphics/SVG/1.1/DTD/svg11.dtd">
<svg version="1.1" id="Capa_1" xmlns="http://www.w3.org/2000/svg" xmlns:xlink="http://www.w3.org/1999/xlink" x="0px" y="0px"
	 viewBox="0 0 32 32" style="enable-background:new 0 0 32 32;" xml:space="preserve">
<g id="_x36__9_">
	<g>
		<path style="fill-rule:evenodd;clip-rule:evenodd;" d="M26.155,0H5.812L0,10c0,0,0,3.43,0,4c0,1.066,0.382,2.229,1.001,3l0.03,11
			c0,2.209,1.847,4,4.125,4h21.655C29.089,32,31,30.209,31,28V17c0.7-0.824,1-1.67,1-3c0-1.095,0-4,0-4L26.155,0z M29,28
			c0,1.104-1.05,2-2.189,2H5.156c-1.139,0-2.153-0.896-2.153-2v-2L29,26V28z M29,24H3.003L3,18c0.578,0,1.438,0,1.964,0
			c1.074,0,2.777-0.958,3.497-2.424C9.27,17.001,10.781,18,12.223,18c1.524,0,3.201-0.907,3.761-2.216
			C16.544,17.062,18.186,18,19.678,18c1.48,0,3.013-1.088,3.789-2.575C24.374,16.926,25.107,18,27,18c0.293,0,1.744,0.047,2,0V24z
			 M30,14c-0.014,1.381-1.607,2.001-3,2c-1.608-0.001-3.055-0.974-3.055-2H23c0,1.009-1.791,2-3.333,2c-1.479,0-3.199-1.022-3.199-2
			h-0.969c0,1.009-1.75,2-3.229,2c-1.542,0-3.302-0.71-3.302-2H8.022c0,1.006-1.545,2.031-3.027,2.031C3.491,16.031,2,15.381,2,14
			v-2h28V14z M30.062,10L2.04,10l4.659-8h18.572l4.758,8L30.062,10L30.062,10z"/>
	</g>
</g>
<g>
</g>
<g>
</g>
<g>
</g>
<g>
</g>
<g>
</g>
<g>
</g>
<g>
</g>
<g>
</g>
<g>
</g>
<g>
</g>
<g>
</g>
<g>
</g>
<g>
</g>
<g>
</g>
<g>
</g>
</svg>
