<?xml version="1.0" encoding="iso-8859-1"?>
<!-- Generator: Adobe Illustrator 18.0.0, SVG Export Plug-In . SVG Version: 6.00 Build 0)  -->
<!DOCTYPE svg PUBLIC "-//W3C//DTD SVG 1.1//EN" "http://www.w3.org/Graphics/SVG/1.1/DTD/svg11.dtd">
<svg version="1.1" id="Capa_1" xmlns="http://www.w3.org/2000/svg" xmlns:xlink="http://www.w3.org/1999/xlink" x="0px" y="0px"
	 viewBox="0 0 32 32" style="enable-background:new 0 0 32 32;" xml:space="preserve">
<g id="_x37__7_">
	<g>
		<path style="fill-rule:evenodd;clip-rule:evenodd;" d="M4,15H1c-0.552,0-1,0.448-1,1c0,0.552,0.448,1,1,1h3c0.552,0,1-0.448,1-1
			C5,15.448,4.552,15,4,15z M16,5c0.552,0,1-0.448,1-1V1c0-0.552-0.448-1-1-1c-0.552,0-1,0.448-1,1v3C15,4.552,15.448,5,16,5z
			 M25.621,7.78l2.101-2.101c0.387-0.387,0.387-1.014,0-1.401c-0.387-0.387-1.014-0.387-1.401,0L24.22,6.379
			c-0.387,0.387-0.387,1.014,0,1.401C24.607,8.167,25.234,8.167,25.621,7.78z M7.41,23.19l-2.101,2.101
			c-0.387,0.387-0.387,1.014,0,1.401c0.387,0.387,1.014,0.387,1.401,0l2.101-2.101c0.387-0.387,0.387-1.014,0-1.401
			C8.424,22.803,7.797,22.803,7.41,23.19z M6.808,8.222c0.391,0.391,1.024,0.391,1.414,0c0.39-0.391,0.39-1.024,0-1.414L6.101,4.686
			c-0.391-0.391-1.024-0.391-1.414,0c-0.391,0.391-0.391,1.024,0,1.414L6.808,8.222z M16,27c-0.552,0-1,0.448-1,1v3
			c0,0.552,0.448,1,1,1c0.552,0,1-0.448,1-1v-3C17,27.448,16.552,27,16,27z M25.192,23.778c-0.391-0.391-1.024-0.391-1.414,0
			c-0.391,0.391-0.391,1.024,0,1.414l2.121,2.121c0.391,0.391,1.024,0.391,1.414,0s0.391-1.024,0-1.414L25.192,23.778z M31,15h-3
			c-0.552,0-1,0.448-1,1c0,0.552,0.448,1,1,1h3c0.552,0,1-0.448,1-1C32,15.448,31.552,15,31,15z M16,6.994
			c-4.974,0-9.006,4.032-9.006,9.006c0,4.974,4.032,9.006,9.006,9.006c4.974,0,9.006-4.032,9.006-9.006
			C25.006,11.026,20.974,6.994,16,6.994z M16,22.998c-3.865,0-6.998-3.133-6.998-6.998c0-3.865,3.133-6.998,6.998-6.998
			c3.865,0,6.998,3.133,6.998,6.998C22.998,19.865,19.865,22.998,16,22.998z"/>
	</g>
</g>
<g>
</g>
<g>
</g>
<g>
</g>
<g>
</g>
<g>
</g>
<g>
</g>
<g>
</g>
<g>
</g>
<g>
</g>
<g>
</g>
<g>
</g>
<g>
</g>
<g>
</g>
<g>
</g>
<g>
</g>
</svg>
