<?xml version="1.0" encoding="iso-8859-1"?>
<!-- Generator: Adobe Illustrator 18.0.0, SVG Export Plug-In . SVG Version: 6.00 Build 0)  -->
<!DOCTYPE svg PUBLIC "-//W3C//DTD SVG 1.1//EN" "http://www.w3.org/Graphics/SVG/1.1/DTD/svg11.dtd">
<svg version="1.1" id="Capa_1" xmlns="http://www.w3.org/2000/svg" xmlns:xlink="http://www.w3.org/1999/xlink" x="0px" y="0px"
	 viewBox="0 0 32 20" style="enable-background:new 0 0 32 20;" xml:space="preserve">
<g id="_x33__16_">
	<g>
		<path style="fill-rule:evenodd;clip-rule:evenodd;" d="M22,0H10C4.477,0,0,4.477,0,10c0,5.523,4.477,10,10,10h12
			c5.523,0,10-4.477,10-10C32,4.477,27.523,0,22,0z M22,18H10c-4.418,0-8-3.582-8-8c0-4.418,3.582-8,8-8h12c4.418,0,8,3.582,8,8
			C30,14.418,26.418,18,22,18z M10,4c-3.314,0-6,2.686-6,6c0,3.314,2.686,6,6,6c3.314,0,6-2.686,6-6C16,6.686,13.314,4,10,4z M10,14
			c-2.209,0-4-1.791-4-4c0-2.209,1.791-4,4-4c2.209,0,4,1.791,4,4C14,12.209,12.209,14,10,14z"/>
	</g>
</g>
<g>
</g>
<g>
</g>
<g>
</g>
<g>
</g>
<g>
</g>
<g>
</g>
<g>
</g>
<g>
</g>
<g>
</g>
<g>
</g>
<g>
</g>
<g>
</g>
<g>
</g>
<g>
</g>
<g>
</g>
</svg>
