<?xml version="1.0" encoding="iso-8859-1"?>
<!-- Generator: Adobe Illustrator 18.0.0, SVG Export Plug-In . SVG Version: 6.00 Build 0)  -->
<!DOCTYPE svg PUBLIC "-//W3C//DTD SVG 1.1//EN" "http://www.w3.org/Graphics/SVG/1.1/DTD/svg11.dtd">
<svg version="1.1" id="Capa_1" xmlns="http://www.w3.org/2000/svg" xmlns:xlink="http://www.w3.org/1999/xlink" x="0px" y="0px"
	 viewBox="0 0 21.883 32.012" style="enable-background:new 0 0 21.883 32.012;" xml:space="preserve">
<g id="_x35__8_">
	<g>
		<path style="fill-rule:evenodd;clip-rule:evenodd;" d="M21.279,9.916l-9.091-9.362c-0.717-0.739-1.88-0.739-2.597,0L0.5,9.916
			c-0.515,0.53-0.501,0.905-0.486,1.616H0v16.384c0,2.262,1.781,4.096,3.977,4.096h13.921c2.197,0,3.977-1.834,3.977-4.096v-15.36
			C21.876,11.369,21.996,10.654,21.279,9.916z M20,28.012c0,1.131-0.902,2-2,2H4c-1.098,0-2.011-0.965-2.011-2.096L2,12.012
			c0-0.657,0.09-1.058,0.448-1.427L10.24,2.56c0.359-0.369,0.94-0.369,1.299,0l7.792,8.024C19.69,10.954,20,11.29,20,12.012V28.012z
			 M10.938,8.46c-2.197,0-3.977,1.834-3.977,4.096c0,2.262,1.781,4.096,3.977,4.096c2.197,0,3.977-1.834,3.977-4.096
			C14.915,10.293,13.135,8.46,10.938,8.46z M10.938,14.604c-1.098,0-1.989-0.917-1.989-2.048c0-1.131,0.89-2.048,1.989-2.048
			c1.098,0,1.989,0.917,1.989,2.048C12.927,13.687,12.036,14.604,10.938,14.604z"/>
	</g>
</g>
<g>
</g>
<g>
</g>
<g>
</g>
<g>
</g>
<g>
</g>
<g>
</g>
<g>
</g>
<g>
</g>
<g>
</g>
<g>
</g>
<g>
</g>
<g>
</g>
<g>
</g>
<g>
</g>
<g>
</g>
</svg>
