<?xml version="1.0" encoding="iso-8859-1"?>
<!-- Generator: Adobe Illustrator 18.0.0, SVG Export Plug-In . SVG Version: 6.00 Build 0)  -->
<!DOCTYPE svg PUBLIC "-//W3C//DTD SVG 1.1//EN" "http://www.w3.org/Graphics/SVG/1.1/DTD/svg11.dtd">
<svg version="1.1" id="Capa_1" xmlns="http://www.w3.org/2000/svg" xmlns:xlink="http://www.w3.org/1999/xlink" x="0px" y="0px"
	 viewBox="0 0 28 32" style="enable-background:new 0 0 28 32;" xml:space="preserve">
<g id="_x37__8_">
	<g>
		<path style="fill-rule:evenodd;clip-rule:evenodd;" d="M21,18H7c-0.552,0-1,0.448-1,1s0.448,1,1,1h14c0.552,0,1-0.448,1-1
			S21.552,18,21,18z M21,11.977H7c-0.552,0-1,0.448-1,1c0,0.552,0.448,1,1,1h14c0.552,0,1-0.448,1-1
			C22,12.425,21.552,11.977,21,11.977z M21,6H7C6.448,6,6,6.448,6,7c0,0.552,0.448,1,1,1h14c0.552,0,1-0.448,1-1
			C22,6.448,21.552,6,21,6z M24,0H4C1.791,0,0,1.791,0,4v28h1.867L6,29l4,3l4-3l4,3l4-3l4.133,3H28V4C28,1.791,26.209,0,24,0z
			 M26,30.027L22,27l-4,3.188L14,27l-4,3.188L6,27l-4,3.058V4c0-1.105,0.896-2,2-2h20c1.105,0,2,0.895,2,2V30.027z"/>
	</g>
</g>
<g>
</g>
<g>
</g>
<g>
</g>
<g>
</g>
<g>
</g>
<g>
</g>
<g>
</g>
<g>
</g>
<g>
</g>
<g>
</g>
<g>
</g>
<g>
</g>
<g>
</g>
<g>
</g>
<g>
</g>
</svg>
