<?xml version="1.0" encoding="iso-8859-1"?>
<!-- Generator: Adobe Illustrator 18.0.0, SVG Export Plug-In . SVG Version: 6.00 Build 0)  -->
<!DOCTYPE svg PUBLIC "-//W3C//DTD SVG 1.1//EN" "http://www.w3.org/Graphics/SVG/1.1/DTD/svg11.dtd">
<svg version="1.1" id="Capa_1" xmlns="http://www.w3.org/2000/svg" xmlns:xlink="http://www.w3.org/1999/xlink" x="0px" y="0px"
	 viewBox="0 0 26 32" style="enable-background:new 0 0 26 32;" xml:space="preserve">
<g id="_x35__10_">
	<g>
		<path style="fill-rule:evenodd;clip-rule:evenodd;" d="M24,16h-2c-1.105,0-2,0.895-2,2v12c0,1.105,0.895,2,2,2h2
			c1.105,0,2-0.895,2-2V18C26,16.895,25.105,16,24,16z M24,29c0,0.552-0.448,1-1,1c-0.552,0-1-0.448-1-1V19c0-0.552,0.448-1,1-1
			c0.552,0,1,0.448,1,1V29z M14,0h-2c-1.105,0-2,0.895-2,2v28c0,1.105,0.895,2,2,2h2c1.105,0,2-0.895,2-2V2C16,0.895,15.105,0,14,0z
			 M14,29c0,0.552-0.448,1-1,1c-0.552,0-1-0.448-1-1V3c0-0.552,0.448-1,1-1c0.552,0,1,0.448,1,1V29z M4,9H2c-1.105,0-2,0.896-2,2v19
			c0,1.105,0.895,2,2,2h2c1.105,0,2-0.895,2-2V11C6,9.895,5.105,9,4,9z M4,29c0,0.552-0.448,1-1,1c-0.552,0-1-0.448-1-1V12
			c0-0.552,0.448-1,1-1c0.552,0,1,0.448,1,1V29z"/>
	</g>
</g>
<g>
</g>
<g>
</g>
<g>
</g>
<g>
</g>
<g>
</g>
<g>
</g>
<g>
</g>
<g>
</g>
<g>
</g>
<g>
</g>
<g>
</g>
<g>
</g>
<g>
</g>
<g>
</g>
<g>
</g>
</svg>
