<?xml version="1.0" encoding="iso-8859-1"?>
<!-- Generator: Adobe Illustrator 18.0.0, SVG Export Plug-In . SVG Version: 6.00 Build 0)  -->
<!DOCTYPE svg PUBLIC "-//W3C//DTD SVG 1.1//EN" "http://www.w3.org/Graphics/SVG/1.1/DTD/svg11.dtd">
<svg version="1.1" id="Capa_1" xmlns="http://www.w3.org/2000/svg" xmlns:xlink="http://www.w3.org/1999/xlink" x="0px" y="0px"
	 viewBox="0 0 26 30" style="enable-background:new 0 0 26 30;" xml:space="preserve">
<g id="_x39__16_">
	<g>
		<path style="fill-rule:evenodd;clip-rule:evenodd;" d="M14,14.184V9c0-0.552-0.448-1-1-1c-0.552,0-1,0.448-1,1v5.184
			c-1.163,0.413-2,1.512-2,2.816c0,1.657,1.343,3,3,3c1.657,0,3-1.343,3-3C16,15.696,15.163,14.597,14,14.184z M13.99,4.05
			C13.991,4.033,14,4.018,14,4V2h4c0.552,0,1-0.448,1-1s-0.448-1-1-1H8C7.448,0,7,0.448,7,1s0.448,1,1,1h4v2
			c0,0.018,0.009,0.033,0.01,0.05C5.294,4.558,0,10.155,0,17c0,7.18,5.82,13,13,13c7.18,0,13-5.82,13-13
			C26,10.155,20.706,4.558,13.99,4.05z M13,28C6.925,28,2,23.075,2,17C2,10.925,6.925,6,13,6c6.075,0,11,4.925,11,11
			C24,23.075,19.075,28,13,28z"/>
	</g>
</g>
<g>
</g>
<g>
</g>
<g>
</g>
<g>
</g>
<g>
</g>
<g>
</g>
<g>
</g>
<g>
</g>
<g>
</g>
<g>
</g>
<g>
</g>
<g>
</g>
<g>
</g>
<g>
</g>
<g>
</g>
</svg>
