<?xml version="1.0" encoding="iso-8859-1"?>
<!-- Generator: Adobe Illustrator 18.0.0, SVG Export Plug-In . SVG Version: 6.00 Build 0)  -->
<!DOCTYPE svg PUBLIC "-//W3C//DTD SVG 1.1//EN" "http://www.w3.org/Graphics/SVG/1.1/DTD/svg11.dtd">
<svg version="1.1" id="Capa_1" xmlns="http://www.w3.org/2000/svg" xmlns:xlink="http://www.w3.org/1999/xlink" x="0px" y="0px"
	 viewBox="0 0 32 26" style="enable-background:new 0 0 32 26;" xml:space="preserve">
<g id="_x38__15_">
	<g>
		<path style="fill-rule:evenodd;clip-rule:evenodd;" d="M31,24H1c-0.552,0-1,0.448-1,1c0,0.552,0.448,1,1,1h30c0.552,0,1-0.448,1-1
			C32,24.448,31.552,24,31,24z M17,4V2h2c0.552,0,1-0.448,1-1c0-0.552-0.448-1-1-1h-6c-0.552,0-1,0.448-1,1c0,0.552,0.448,1,1,1h2
			c0,0-0.007,2.082,0,2C6.632,4.519,0,11.501,0,20c0,0.812,0,0.448,0,1c0,0.552,0.448,1,1,1h30c0.552,0,1-0.448,1-1
			c0-0.552,0-0.125,0-1C32,11.501,25.368,4.519,17,4z M2,20C2,12.268,8.268,6,16,6s14,6.268,14,14H2z"/>
	</g>
</g>
<g>
</g>
<g>
</g>
<g>
</g>
<g>
</g>
<g>
</g>
<g>
</g>
<g>
</g>
<g>
</g>
<g>
</g>
<g>
</g>
<g>
</g>
<g>
</g>
<g>
</g>
<g>
</g>
<g>
</g>
</svg>
