<?xml version="1.0" encoding="iso-8859-1"?>
<!-- Generator: Adobe Illustrator 18.0.0, SVG Export Plug-In . SVG Version: 6.00 Build 0)  -->
<!DOCTYPE svg PUBLIC "-//W3C//DTD SVG 1.1//EN" "http://www.w3.org/Graphics/SVG/1.1/DTD/svg11.dtd">
<svg version="1.1" id="Capa_1" xmlns="http://www.w3.org/2000/svg" xmlns:xlink="http://www.w3.org/1999/xlink" x="0px" y="0px"
	 viewBox="0 0 26 32" style="enable-background:new 0 0 26 32;" xml:space="preserve">
<g id="_x36__15_">
	<g>
		<path style="fill-rule:evenodd;clip-rule:evenodd;" d="M13,10c-2.628,2.629-7,6.28-7,10.094C6,23.908,9.134,27,13,27
			s7-3.092,7-6.906C20,16.28,15.734,12.697,13,10z M13,25c-2.755,0-4.988-2.364-4.988-5.281c0-2.917,3.082-5.204,4.954-7.214
			c1.948,2.062,5.021,4.298,5.021,7.214C17.988,22.635,15.755,25,13,25z M13,0C8.12,4.949,0,11.82,0,19c0,7.18,5.82,13,13,13
			c7.18,0,13-5.82,13-13C26,11.82,18.077,5.077,13,0z M13,30C6.925,30,2,25.089,2,19.031C2,12.973,8.871,7.176,13,3
			c4.296,4.284,11,9.973,11,16.031C24,25.089,19.075,30,13,30z"/>
	</g>
</g>
<g>
</g>
<g>
</g>
<g>
</g>
<g>
</g>
<g>
</g>
<g>
</g>
<g>
</g>
<g>
</g>
<g>
</g>
<g>
</g>
<g>
</g>
<g>
</g>
<g>
</g>
<g>
</g>
<g>
</g>
</svg>
