<?xml version="1.0" encoding="iso-8859-1"?>
<!-- Generator: Adobe Illustrator 18.0.0, SVG Export Plug-In . SVG Version: 6.00 Build 0)  -->
<!DOCTYPE svg PUBLIC "-//W3C//DTD SVG 1.1//EN" "http://www.w3.org/Graphics/SVG/1.1/DTD/svg11.dtd">
<svg version="1.1" id="Capa_1" xmlns="http://www.w3.org/2000/svg" xmlns:xlink="http://www.w3.org/1999/xlink" x="0px" y="0px"
	 viewBox="0 0 32 32" style="enable-background:new 0 0 32 32;" xml:space="preserve">
<g id="_x33__5_">
	<g>
		<path style="fill-rule:evenodd;clip-rule:evenodd;" d="M22,28c0,1.104-0.895,2-2,2H4c-1.105,0-2-0.895-2-2V12c0-1.105,0.895-2,2-2
			h2V8H4c-2.209,0-4,1.791-4,4v16c0,2.209,1.791,4,4,4h16c2.209,0,4-1.791,4-4v-2h-2V28z M28,0H12C9.791,0,8,1.791,8,4v16
			c0,2.209,1.791,4,4,4h16c2.209,0,4-1.791,4-4V4C32,1.791,30.209,0,28,0z M30,20c0,1.104-0.895,2-2,2H12c-1.105,0-2-0.896-2-2V4
			c0-1.105,0.895-2,2-2h16c1.105,0,2,0.895,2,2V20z"/>
	</g>
</g>
<g>
</g>
<g>
</g>
<g>
</g>
<g>
</g>
<g>
</g>
<g>
</g>
<g>
</g>
<g>
</g>
<g>
</g>
<g>
</g>
<g>
</g>
<g>
</g>
<g>
</g>
<g>
</g>
<g>
</g>
</svg>
