<?xml version="1.0" encoding="iso-8859-1"?>
<!-- Generator: Adobe Illustrator 18.0.0, SVG Export Plug-In . SVG Version: 6.00 Build 0)  -->
<!DOCTYPE svg PUBLIC "-//W3C//DTD SVG 1.1//EN" "http://www.w3.org/Graphics/SVG/1.1/DTD/svg11.dtd">
<svg version="1.1" id="Capa_1" xmlns="http://www.w3.org/2000/svg" xmlns:xlink="http://www.w3.org/1999/xlink" x="0px" y="0px"
	 viewBox="0 0 22.994 24.006" style="enable-background:new 0 0 22.994 24.006;" xml:space="preserve">
<g id="_x34__11_">
	<g>
		<path style="fill-rule:evenodd;clip-rule:evenodd;" d="M2.343,12.003L12.631,1.718c0.393-0.393,0.393-1.03,0-1.423
			c-0.393-0.393-1.031-0.393-1.424,0L0.283,11.215c-0.216,0.216-0.302,0.505-0.28,0.788c-0.022,0.283,0.064,0.571,0.28,0.788
			l10.923,10.92c0.393,0.393,1.031,0.393,1.424,0c0.393-0.393,0.393-1.03,0-1.424L2.343,12.003z M14.425,12.003l8.274-8.271
			c0.393-0.393,0.393-1.03,0-1.424c-0.393-0.393-1.031-0.393-1.424,0l-8.91,8.907c-0.216,0.216-0.302,0.505-0.28,0.788
			c-0.022,0.283,0.064,0.571,0.28,0.788l8.91,8.907c0.393,0.393,1.031,0.393,1.424,0c0.393-0.393,0.393-1.03,0-1.423L14.425,12.003z
			"/>
	</g>
</g>
<g>
</g>
<g>
</g>
<g>
</g>
<g>
</g>
<g>
</g>
<g>
</g>
<g>
</g>
<g>
</g>
<g>
</g>
<g>
</g>
<g>
</g>
<g>
</g>
<g>
</g>
<g>
</g>
<g>
</g>
</svg>
