<?xml version="1.0" encoding="iso-8859-1"?>
<!-- Generator: Adobe Illustrator 18.0.0, SVG Export Plug-In . SVG Version: 6.00 Build 0)  -->
<!DOCTYPE svg PUBLIC "-//W3C//DTD SVG 1.1//EN" "http://www.w3.org/Graphics/SVG/1.1/DTD/svg11.dtd">
<svg version="1.1" id="Capa_1" xmlns="http://www.w3.org/2000/svg" xmlns:xlink="http://www.w3.org/1999/xlink" x="0px" y="0px"
	 viewBox="0 0 20 32" style="enable-background:new 0 0 20 32;" xml:space="preserve">
<g id="_x38__17_">
	<g>
		<path style="fill-rule:evenodd;clip-rule:evenodd;" d="M10,20c-0.552,0-1,0.448-1,1v4c0,0.552,0.448,1,1,1c0.552,0,1-0.448,1-1v-4
			C11,20.448,10.552,20,10,20z M10,12c-2.254,0-4.327,0.755-6,2.014V8c0-3.314,2.686-6,6-6c3.314,0,6,2.686,6,6h2
			c0-4.418-3.582-8-8-8C5.582,0,2,3.582,2,8v8.018C0.75,17.688,0,19.754,0,22c0,5.523,4.477,10,10,10s10-4.477,10-10
			C20,16.477,15.523,12,10,12z M10,30c-4.418,0-8-3.582-8-8c0-4.418,3.582-8,8-8c4.418,0,8,3.582,8,8C18,26.418,14.418,30,10,30z"/>
	</g>
</g>
<g>
</g>
<g>
</g>
<g>
</g>
<g>
</g>
<g>
</g>
<g>
</g>
<g>
</g>
<g>
</g>
<g>
</g>
<g>
</g>
<g>
</g>
<g>
</g>
<g>
</g>
<g>
</g>
<g>
</g>
</svg>
