<?xml version="1.0" encoding="iso-8859-1"?>
<!-- Generator: Adobe Illustrator 18.0.0, SVG Export Plug-In . SVG Version: 6.00 Build 0)  -->
<!DOCTYPE svg PUBLIC "-//W3C//DTD SVG 1.1//EN" "http://www.w3.org/Graphics/SVG/1.1/DTD/svg11.dtd">
<svg version="1.1" id="Capa_1" xmlns="http://www.w3.org/2000/svg" xmlns:xlink="http://www.w3.org/1999/xlink" x="0px" y="0px"
	 viewBox="0 0 32 32" style="enable-background:new 0 0 32 32;" xml:space="preserve">
<g id="_x39__4_">
	<g>
		<path style="fill-rule:evenodd;clip-rule:evenodd;" d="M28,0H4C1.791,0,0,1.791,0,4v24c0,2.209,1.791,4,4,4h24
			c2.209,0,4-1.791,4-4V4C32,1.791,30.209,0,28,0z M30,28c0,1.104-0.895,2-2,2H4c-1.105,0-2-0.896-2-2V4c0-1.105,0.896-2,2-2h24
			c1.105,0,2,0.895,2,2V28z M16.879,8.464C16.639,8.225,16.31,8.15,16,8.205c-0.31-0.055-0.639,0.02-0.879,0.26l-5.657,5.657
			c-0.391,0.39-0.391,1.024,0,1.414c0.391,0.391,1.024,0.391,1.414,0L15,11.414V22c0,0.552,0.448,1,1,1c0.552,0,1-0.448,1-1V11.414
			l4.121,4.121c0.391,0.391,1.024,0.391,1.414,0c0.391-0.391,0.391-1.024,0-1.414L16.879,8.464z"/>
	</g>
</g>
<g>
</g>
<g>
</g>
<g>
</g>
<g>
</g>
<g>
</g>
<g>
</g>
<g>
</g>
<g>
</g>
<g>
</g>
<g>
</g>
<g>
</g>
<g>
</g>
<g>
</g>
<g>
</g>
<g>
</g>
</svg>
