<?xml version="1.0" encoding="iso-8859-1"?>
<!-- Generator: Adobe Illustrator 18.0.0, SVG Export Plug-In . SVG Version: 6.00 Build 0)  -->
<!DOCTYPE svg PUBLIC "-//W3C//DTD SVG 1.1//EN" "http://www.w3.org/Graphics/SVG/1.1/DTD/svg11.dtd">
<svg version="1.1" id="Capa_1" xmlns="http://www.w3.org/2000/svg" xmlns:xlink="http://www.w3.org/1999/xlink" x="0px" y="0px"
	 viewBox="0 0 28 32" style="enable-background:new 0 0 28 32;" xml:space="preserve">
<g id="_x38__5_">
	<g>
		<path style="fill-rule:evenodd;clip-rule:evenodd;" d="M21.657,13.243l-6.9-6.9C14.549,6.135,14.273,6.046,14,6.06
			c-0.273-0.014-0.549,0.075-0.757,0.283l-6.899,6.9c-0.391,0.39-0.391,1.024,0,1.414c0.39,0.391,1.024,0.391,1.414,0L13,9.414V31
			c0,0.552,0.448,1,1,1c0.552,0,1-0.448,1-1V9.414l5.243,5.243c0.39,0.391,1.024,0.391,1.414,0
			C22.047,14.266,22.047,13.633,21.657,13.243z M24,0H4C1.791,0,0,1.791,0,4v20c0,2.209,1.791,4,4,4h3v-2H4c-1.104,0-2-0.895-2-2V4
			c0-1.105,0.896-2,2-2h20c1.105,0,2,0.895,2,2v20c0,1.105-0.896,2-2,2h-3v2h3c2.209,0,4-1.791,4-4V4C28,1.791,26.209,0,24,0z"/>
	</g>
</g>
<g>
</g>
<g>
</g>
<g>
</g>
<g>
</g>
<g>
</g>
<g>
</g>
<g>
</g>
<g>
</g>
<g>
</g>
<g>
</g>
<g>
</g>
<g>
</g>
<g>
</g>
<g>
</g>
<g>
</g>
</svg>
