<?xml version="1.0" encoding="iso-8859-1"?>
<!-- Generator: Adobe Illustrator 18.0.0, SVG Export Plug-In . SVG Version: 6.00 Build 0)  -->
<!DOCTYPE svg PUBLIC "-//W3C//DTD SVG 1.1//EN" "http://www.w3.org/Graphics/SVG/1.1/DTD/svg11.dtd">
<svg version="1.1" id="Capa_1" xmlns="http://www.w3.org/2000/svg" xmlns:xlink="http://www.w3.org/1999/xlink" x="0px" y="0px"
	 viewBox="0 0 32 32" style="enable-background:new 0 0 32 32;" xml:space="preserve">
<g id="_x36__2_">
	<g>
		<path style="fill-rule:evenodd;clip-rule:evenodd;" d="M16.879,9.464C16.639,9.225,16.31,9.15,16,9.205
			c-0.31-0.055-0.639,0.02-0.879,0.259l-5.657,5.657c-0.391,0.391-0.391,1.024,0,1.414c0.391,0.391,1.024,0.391,1.414,0L15,12.414
			V23c0,0.552,0.448,1,1,1c0.552,0,1-0.448,1-1V12.414l4.121,4.121c0.391,0.391,1.024,0.391,1.414,0
			c0.391-0.391,0.391-1.024,0-1.414L16.879,9.464z M16,0C7.164,0,0,7.163,0,16s7.164,16,16,16c8.837,0,16-7.164,16-16S24.837,0,16,0
			z M16,30C8.268,30,2,23.732,2,16S8.268,2,16,2c7.732,0,14,6.268,14,14S23.732,30,16,30z"/>
	</g>
</g>
<g>
</g>
<g>
</g>
<g>
</g>
<g>
</g>
<g>
</g>
<g>
</g>
<g>
</g>
<g>
</g>
<g>
</g>
<g>
</g>
<g>
</g>
<g>
</g>
<g>
</g>
<g>
</g>
<g>
</g>
</svg>
