<?xml version="1.0" encoding="iso-8859-1"?>
<!-- Generator: Adobe Illustrator 18.0.0, SVG Export Plug-In . SVG Version: 6.00 Build 0)  -->
<!DOCTYPE svg PUBLIC "-//W3C//DTD SVG 1.1//EN" "http://www.w3.org/Graphics/SVG/1.1/DTD/svg11.dtd">
<svg version="1.1" id="Capa_1" xmlns="http://www.w3.org/2000/svg" xmlns:xlink="http://www.w3.org/1999/xlink" x="0px" y="0px"
	 viewBox="0 0 32 32" style="enable-background:new 0 0 32 32;" xml:space="preserve">
<g id="_x33__8_">
	<g>
		<path style="fill-rule:evenodd;clip-rule:evenodd;" d="M16.776,8.314c-0.209-0.21-0.487-0.299-0.76-0.285
			c-0.274-0.014-0.551,0.075-0.76,0.285l-4.942,5.981c-0.392,0.393-0.392,1.031,0,1.424c0.392,0.393,1.028,0.393,1.42,0L15,11.765
			V27c0,0.552,0.448,1,1,1c0.552,0,1-0.448,1-1V11.727l3.299,3.992c0.392,0.393,1.028,0.393,1.42,0c0.392-0.393,0.392-1.031,0-1.424
			L16.776,8.314z M25,4H7C6.448,4,6,4.448,6,5c0,0.552,0.448,1,1,1h18c0.552,0,1-0.448,1-1C26,4.448,25.552,4,25,4z M28,0H4
			C1.791,0,0,1.791,0,4v24c0,2.209,1.791,4,4,4h24c2.209,0,4-1.791,4-4V4C32,1.791,30.209,0,28,0z M30,28c0,1.104-0.895,2-2,2H4
			c-1.105,0-2-0.895-2-2V4c0-1.104,0.896-2,2-2h24c1.105,0,2,0.896,2,2V28z"/>
	</g>
</g>
<g>
</g>
<g>
</g>
<g>
</g>
<g>
</g>
<g>
</g>
<g>
</g>
<g>
</g>
<g>
</g>
<g>
</g>
<g>
</g>
<g>
</g>
<g>
</g>
<g>
</g>
<g>
</g>
<g>
</g>
</svg>
