<?xml version="1.0" encoding="iso-8859-1"?>
<!-- Generator: Adobe Illustrator 18.0.0, SVG Export Plug-In . SVG Version: 6.00 Build 0)  -->
<!DOCTYPE svg PUBLIC "-//W3C//DTD SVG 1.1//EN" "http://www.w3.org/Graphics/SVG/1.1/DTD/svg11.dtd">
<svg version="1.1" id="Capa_1" xmlns="http://www.w3.org/2000/svg" xmlns:xlink="http://www.w3.org/1999/xlink" x="0px" y="0px"
	 viewBox="0 0 30 32" style="enable-background:new 0 0 30 32;" xml:space="preserve">
<g id="_x37__10_">
	<g>
		<path style="fill-rule:evenodd;clip-rule:evenodd;" d="M10.733,18.718L14,14.765V27c0,0.552,0.448,1,1,1c0.552,0,1-0.448,1-1
			V14.727l3.299,3.991c0.392,0.393,1.028,0.393,1.42,0c0.392-0.393,0.392-1.031,0-1.424l-4.942-5.98
			c-0.209-0.21-0.487-0.299-0.76-0.285c-0.274-0.014-0.551,0.075-0.76,0.285l-4.942,5.98c-0.392,0.393-0.392,1.031,0,1.424
			C9.705,19.111,10.341,19.111,10.733,18.718z M26,0H4C1.791,0,0,1.791,0,4v24c0,2.209,1.791,4,4,4h22c2.209,0,4-1.791,4-4V4
			C30,1.791,28.209,0,26,0z M28,28c0,1.104-0.895,2-2,2H4c-1.104,0-2-0.896-2-2V8h26V28z M28,6H2V4c0-1.104,0.896-2,2-2h22
			c1.105,0,2,0.896,2,2V6z"/>
	</g>
</g>
<g>
</g>
<g>
</g>
<g>
</g>
<g>
</g>
<g>
</g>
<g>
</g>
<g>
</g>
<g>
</g>
<g>
</g>
<g>
</g>
<g>
</g>
<g>
</g>
<g>
</g>
<g>
</g>
<g>
</g>
</svg>
