<?xml version="1.0" encoding="iso-8859-1"?>
<!-- Generator: Adobe Illustrator 18.0.0, SVG Export Plug-In . SVG Version: 6.00 Build 0)  -->
<!DOCTYPE svg PUBLIC "-//W3C//DTD SVG 1.1//EN" "http://www.w3.org/Graphics/SVG/1.1/DTD/svg11.dtd">
<svg version="1.1" id="Capa_1" xmlns="http://www.w3.org/2000/svg" xmlns:xlink="http://www.w3.org/1999/xlink" x="0px" y="0px"
	 viewBox="0 0 32 24" style="enable-background:new 0 0 32 24;" xml:space="preserve">
<g id="_x38__1_">
	<g>
		<path style="fill-rule:evenodd;clip-rule:evenodd;" d="M16.777,6.281c-0.21-0.209-0.487-0.298-0.762-0.284
			c-0.274-0.014-0.552,0.075-0.762,0.284l-5.94,5.913c-0.393,0.391-0.393,1.026,0,1.417c0.393,0.391,1.03,0.391,1.423,0L15,9.367
			v9.618c0,0.553,0.448,1.001,1,1.001c0.552,0,1-0.448,1-1.001V9.336l4.295,4.276c0.393,0.391,1.03,0.391,1.423,0
			c0.393-0.391,0.393-1.026,0-1.417L16.777,6.281z M23.067,5.029C21.599,2.052,18.543,0,15,0c-4.749,0-8.63,3.681-8.967,8.345
			C2.542,9.34,0,12.39,0,16c0,4.259,3.54,7.731,8,7.976L25,24c3.436-1.492,7-5.649,7-9.5C32,9.445,28.048,5.324,23.067,5.029z
			 M25,22H8c0,0-6.038-0.62-6-6c0.021-3.036,2.687-5.818,6-6c0-4.142,2.651-8,7-8c3.433,0,5.723,2.095,6.538,5.013
			C26.493,6.797,29.844,10.717,30,14C30.135,16.827,27.68,20.479,25,22z"/>
	</g>
</g>
<g>
</g>
<g>
</g>
<g>
</g>
<g>
</g>
<g>
</g>
<g>
</g>
<g>
</g>
<g>
</g>
<g>
</g>
<g>
</g>
<g>
</g>
<g>
</g>
<g>
</g>
<g>
</g>
<g>
</g>
</svg>
