<?xml version="1.0" encoding="iso-8859-1"?>
<!-- Generator: Adobe Illustrator 18.0.0, SVG Export Plug-In . SVG Version: 6.00 Build 0)  -->
<!DOCTYPE svg PUBLIC "-//W3C//DTD SVG 1.1//EN" "http://www.w3.org/Graphics/SVG/1.1/DTD/svg11.dtd">
<svg version="1.1" id="Capa_1" xmlns="http://www.w3.org/2000/svg" xmlns:xlink="http://www.w3.org/1999/xlink" x="0px" y="0px"
	 viewBox="0 0 30 26.004" style="enable-background:new 0 0 30 26.004;" xml:space="preserve">
<g id="_x31_0_10_">
	<g>
		<path style="fill-rule:evenodd;clip-rule:evenodd;" d="M10.733,7.704L14,3.744v14.258c0,0.553,0.448,1.002,1,1.002
			c0.552,0,1-0.448,1-1.002V3.706l3.299,3.998c0.392,0.394,1.028,0.394,1.42,0c0.392-0.394,0.392-1.032,0-1.426l-4.942-5.991
			c-0.209-0.21-0.487-0.299-0.76-0.285c-0.274-0.014-0.551,0.075-0.76,0.285L9.313,6.278c-0.392,0.394-0.392,1.032,0,1.426
			C9.705,8.098,10.341,8.098,10.733,7.704z M29,16.004c-0.552,0-1,0.448-1,1v7H2v-7c0-0.552-0.448-1-1-1c-0.552,0-1,0.448-1,1v8
			c0,0.552,0.448,1,1,1h28c0.552,0,1-0.448,1-1v-8C30,16.451,29.552,16.004,29,16.004z"/>
	</g>
</g>
<g>
</g>
<g>
</g>
<g>
</g>
<g>
</g>
<g>
</g>
<g>
</g>
<g>
</g>
<g>
</g>
<g>
</g>
<g>
</g>
<g>
</g>
<g>
</g>
<g>
</g>
<g>
</g>
<g>
</g>
</svg>
