<?xml version="1.0" encoding="iso-8859-1"?>
<!-- Generator: Adobe Illustrator 18.0.0, SVG Export Plug-In . SVG Version: 6.00 Build 0)  -->
<!DOCTYPE svg PUBLIC "-//W3C//DTD SVG 1.1//EN" "http://www.w3.org/Graphics/SVG/1.1/DTD/svg11.dtd">
<svg version="1.1" id="Capa_1" xmlns="http://www.w3.org/2000/svg" xmlns:xlink="http://www.w3.org/1999/xlink" x="0px" y="0px"
	 viewBox="0 0 28 28" style="enable-background:new 0 0 28 28;" xml:space="preserve">
<g id="_x35__5_">
	<g>
		<path style="fill-rule:evenodd;clip-rule:evenodd;" d="M26,24c0,1.087-0.914,2-2,2L3.934,26.033c-1.087,0-1.967-0.881-1.967-1.967
			L2,4c0-1.087,0.914-2,2-2h11V0H4C1.827,0,0,2.221,0,4.393v19.672C0,26.239,1.761,28,3.934,28h19.672C25.779,28,28,26.173,28,24V13
			h-2V24z M26.978,0H20c-0.567,0.001-0.999,0.459-1,1c-0.001,0.541,0.433,1.001,1,1l4.394-0.032L9.307,16.358
			c-0.399,0.381-0.399,0.998,0,1.378c0.399,0.381,1.046,0.381,1.445,0L25.97,3.222L26,8c-0.001,0.541,0.433,1.001,1,1
			c0.567-0.001,0.999-0.459,1-1V0.975C28.001,0.434,27.545-0.001,26.978,0z"/>
	</g>
</g>
<g>
</g>
<g>
</g>
<g>
</g>
<g>
</g>
<g>
</g>
<g>
</g>
<g>
</g>
<g>
</g>
<g>
</g>
<g>
</g>
<g>
</g>
<g>
</g>
<g>
</g>
<g>
</g>
<g>
</g>
</svg>
