<?xml version="1.0" encoding="iso-8859-1"?>
<!-- Generator: Adobe Illustrator 18.0.0, SVG Export Plug-In . SVG Version: 6.00 Build 0)  -->
<!DOCTYPE svg PUBLIC "-//W3C//DTD SVG 1.1//EN" "http://www.w3.org/Graphics/SVG/1.1/DTD/svg11.dtd">
<svg version="1.1" id="Capa_1" xmlns="http://www.w3.org/2000/svg" xmlns:xlink="http://www.w3.org/1999/xlink" x="0px" y="0px"
	 viewBox="0 0 30 32.144" style="enable-background:new 0 0 30 32.144;" xml:space="preserve">
<g id="_x34__8_">
	<g>
		<path style="fill-rule:evenodd;clip-rule:evenodd;" d="M28,8.144v-7c0-0.552-0.236-0.86-0.75-1.062
			C26.854-0.074,26.469,0.019,26,0.144l-26,8v22c0,1.104,0.895,2,2,2h26c1.105,0,2-0.896,2-2v-20C30,9.04,29.105,8.144,28,8.144z
			 M26,2.144v6H6.5L26,2.144z M28,21.144c0,0.552,0,0.312,0,1h-4c0-0.647,0-0.448,0-1v-1h4C28,20.894,28,20.592,28,21.144z
			 M28,18.144h-5c-0.552,0-1,0.448-1,1v4c0,0.552,0.448,1,1,1h5v5c0,0.552-0.448,1-1,1H3c-0.552,0-1-0.448-1-1c0,0,0-18.312,0-19
			l25,0c0.552,0,1,0.447,1,1V18.144z"/>
	</g>
</g>
<g>
</g>
<g>
</g>
<g>
</g>
<g>
</g>
<g>
</g>
<g>
</g>
<g>
</g>
<g>
</g>
<g>
</g>
<g>
</g>
<g>
</g>
<g>
</g>
<g>
</g>
<g>
</g>
<g>
</g>
</svg>
