<?xml version="1.0" encoding="iso-8859-1"?>
<!-- Generator: Adobe Illustrator 18.0.0, SVG Export Plug-In . SVG Version: 6.00 Build 0)  -->
<!DOCTYPE svg PUBLIC "-//W3C//DTD SVG 1.1//EN" "http://www.w3.org/Graphics/SVG/1.1/DTD/svg11.dtd">
<svg version="1.1" id="Capa_1" xmlns="http://www.w3.org/2000/svg" xmlns:xlink="http://www.w3.org/1999/xlink" x="0px" y="0px"
	 viewBox="0 0 30 32" style="enable-background:new 0 0 30 32;" xml:space="preserve">
<g id="_x35__16_">
	<g>
		<path style="fill-rule:evenodd;clip-rule:evenodd;" d="M6,20h2c1.105,0,2-0.896,2-2v-2c0-1.105-0.895-2-2-2H6
			c-1.105,0-2,0.895-2,2v2C4,19.104,4.895,20,6,20z M6,16h2v2H6V16z M22,28h2c1.105,0,2-0.895,2-2v-2c0-1.105-0.895-2-2-2h-2
			c-1.104,0-2,0.895-2,2v2C20,27.105,20.895,28,22,28z M22,24h2v2h-2V24z M22,20h2c1.105,0,2-0.896,2-2v-2c0-1.105-0.895-2-2-2h-2
			c-1.104,0-2,0.895-2,2v2C20,19.104,20.895,20,22,20z M22,16h2v2h-2V16z M26,2h-4V1c0-0.552-0.448-1-1-1c-0.552,0-1,0.448-1,1v1H10
			V1c0-0.552-0.448-1-1-1C8.448,0,8,0.448,8,1v1H4C1.791,2,0,3.791,0,6v22c0,2.209,1.791,4,4,4h22c2.209,0,4-1.791,4-4V6
			C30,3.791,28.209,2,26,2z M28,28c0,1.105-0.895,2-2,2H4c-1.105,0-2-0.896-2-2V10h26V28z M28,8H2V6c0-1.105,0.895-2,2-2h4v1
			c0,0.552,0.448,1,1,1c0.552,0,1-0.448,1-1V4h10v1c0,0.552,0.448,1,1,1c0.552,0,1-0.448,1-1V4h4c1.105,0,2,0.895,2,2V8z M14,28h2
			c1.105,0,2-0.895,2-2v-2c0-1.105-0.895-2-2-2h-2c-1.104,0-2,0.895-2,2v2C12,27.105,12.895,28,14,28z M14,24h2v2h-2V24z M14,20h2
			c1.105,0,2-0.896,2-2v-2c0-1.105-0.895-2-2-2h-2c-1.104,0-2,0.895-2,2v2C12,19.104,12.895,20,14,20z M14,16h2v2h-2V16z M6,28h2
			c1.105,0,2-0.895,2-2v-2c0-1.105-0.895-2-2-2H6c-1.105,0-2,0.895-2,2v2C4,27.105,4.895,28,6,28z M6,24h2v2H6V24z"/>
	</g>
</g>
<g>
</g>
<g>
</g>
<g>
</g>
<g>
</g>
<g>
</g>
<g>
</g>
<g>
</g>
<g>
</g>
<g>
</g>
<g>
</g>
<g>
</g>
<g>
</g>
<g>
</g>
<g>
</g>
<g>
</g>
</svg>
