<?xml version="1.0" encoding="iso-8859-1"?>
<!-- Generator: Adobe Illustrator 18.0.0, SVG Export Plug-In . SVG Version: 6.00 Build 0)  -->
<!DOCTYPE svg PUBLIC "-//W3C//DTD SVG 1.1//EN" "http://www.w3.org/Graphics/SVG/1.1/DTD/svg11.dtd">
<svg version="1.1" id="Capa_1" xmlns="http://www.w3.org/2000/svg" xmlns:xlink="http://www.w3.org/1999/xlink" x="0px" y="0px"
	 viewBox="0 0 32 32" style="enable-background:new 0 0 32 32;" xml:space="preserve">
<g id="_x34__10_">
	<g>
		<path style="fill-rule:evenodd;clip-rule:evenodd;" d="M5,4C4.448,4,4,4.448,4,5c0,0.552,0.448,1,1,1c0.552,0,1-0.448,1-1
			C6,4.448,5.552,4,5,4z M13,4c-0.552,0-1,0.448-1,1c0,0.552,0.448,1,1,1c0.552,0,1-0.448,1-1C14,4.448,13.552,4,13,4z M9,4
			C8.448,4,8,4.448,8,5c0,0.552,0.448,1,1,1c0.552,0,1-0.448,1-1C10,4.448,9.552,4,9,4z M28,0H4C1.791,0,0,1.791,0,4v24
			c0,2.209,1.791,4,4,4h24c2.209,0,4-1.791,4-4V4C32,1.791,30.209,0,28,0z M30,28c0,1.104-0.895,2-2,2H4c-1.105,0-2-0.895-2-2V10h28
			V28z M30,8H2V4c0-1.105,0.895-2,2-2h24c1.105,0,2,0.895,2,2V8z"/>
	</g>
</g>
<g>
</g>
<g>
</g>
<g>
</g>
<g>
</g>
<g>
</g>
<g>
</g>
<g>
</g>
<g>
</g>
<g>
</g>
<g>
</g>
<g>
</g>
<g>
</g>
<g>
</g>
<g>
</g>
<g>
</g>
</svg>
