<?xml version="1.0" encoding="iso-8859-1"?>
<!-- Generator: Adobe Illustrator 18.0.0, SVG Export Plug-In . SVG Version: 6.00 Build 0)  -->
<!DOCTYPE svg PUBLIC "-//W3C//DTD SVG 1.1//EN" "http://www.w3.org/Graphics/SVG/1.1/DTD/svg11.dtd">
<svg version="1.1" id="Capa_1" xmlns="http://www.w3.org/2000/svg" xmlns:xlink="http://www.w3.org/1999/xlink" x="0px" y="0px"
	 viewBox="0 0 31.992 31.992" style="enable-background:new 0 0 31.992 31.992;" xml:space="preserve">
<g id="_x35__1_">
	<g>
		<path style="fill-rule:evenodd;clip-rule:evenodd;" d="M18.518,12.41h-3.996V8.407c0-0.552-0.447-1.001-0.999-1.001
			c-0.552,0-0.999,0.448-0.999,1.001v4.003H8.529c-0.552,0-0.999,0.182-0.999,0.735c0,0.553,0.447,1.267,0.999,1.267h3.996v4.002
			c0,0.553,0.447,1.001,0.999,1.001c0.552,0,0.999-0.448,0.999-1.001v-4.002h3.996c0.552,0,0.999-0.448,0.999-1.001
			C19.517,12.858,19.07,12.41,18.518,12.41z M31.688,30.252l-8.26-8.128c2.163-2.35,3.492-5.458,3.492-8.878
			C26.92,5.93,20.894,0,13.46,0C6.026,0,0,5.93,0,13.246s6.026,13.246,13.46,13.246c3.212,0,6.158-1.111,8.472-2.958l8.292,8.16
			c0.404,0.398,1.06,0.398,1.464,0C32.093,31.296,32.093,30.65,31.688,30.252z M13.46,24.454c-6.29,0-11.389-5.018-11.389-11.208
			S7.17,2.038,13.46,2.038c6.29,0,11.389,5.018,11.389,11.208S19.75,24.454,13.46,24.454z"/>
	</g>
</g>
<g>
</g>
<g>
</g>
<g>
</g>
<g>
</g>
<g>
</g>
<g>
</g>
<g>
</g>
<g>
</g>
<g>
</g>
<g>
</g>
<g>
</g>
<g>
</g>
<g>
</g>
<g>
</g>
<g>
</g>
</svg>
