<svg width="135" xmlns="http://www.w3.org/2000/svg" height="96" viewBox="0 0 135 96" xmlns:xlink="http://www.w3.org/1999/xlink">
<path d="m40.284,24.15c5.145,0 6.432,2.571 9.858,2.142 3.429-.429 .429-6.429-2.571-10.713s-9.855-2.142-15,.858c-5.142,3-32.463,19.608-32.463,19.608h23.892c0-.003 11.142-11.895 16.284-11.895zm-40.284,14.997v39c0,3.312 2.685,6 6,6 0,0 23.13,0 48.249,0 4.506,0 8.625-14.001 13.251-14.001 4.017,0 7.038,14.001 10.998,14.001 26.679,0 50.499,0 50.499,0 3.315,0 6.003-2.688 6.003-6v-39h-135zm54,27.003c0,4.968-4.032,9-9,9h-27c-4.971,0-9-4.032-9-9v-9c0-4.971 4.029-9 9-9h27c4.968,0 9,4.029 9,9v9zm72,0c0,4.968-4.032,9-9,9h-27c-4.971,0-9-4.032-9-9v-9c0-4.971 4.029-9 9-9h27c4.968,0 9,4.029 9,9v9zm-41.145-39.858c3.429,.429 4.713-2.142 9.858-2.142 5.142,0 16.287,11.892 16.287,11.892h23.892c0,0-27.321-16.608-32.463-19.608-5.145-3-12-5.142-15-.858s-6,10.287-2.574,10.716z"/>
</svg>
