<svg width="96" xmlns="http://www.w3.org/2000/svg" height="96" viewBox="0 0 96 96" xmlns:xlink="http://www.w3.org/1999/xlink">
<path d="m9,87v-75h75v75h-75zm69-69h-63v18h6.051c.447-3.36 2.238-5.877 4.386-5.877 2.151,0 3.942,2.517 4.386,5.877h3.213c.432-3.393 2.235-5.937 4.398-5.937s3.966,2.547 4.398,5.937h21.201c.432-3.393 2.235-5.937 4.398-5.937 2.166,0 3.966,2.547 4.401,5.937h6.168v-18zm0,21h-6.15c-.402,3.453-2.223,6.063-4.416,6.063-2.187,0-4.008-2.607-4.413-6.063h-21.171c-.402,3.453-2.223,6.063-4.413,6.063s-4.011-2.61-4.413-6.063h-3.171c-.387,3.483-2.214,6.123-4.416,6.123s-4.029-2.64-4.416-6.123h-6.021v21h23.976c.432-3.393 2.238-5.937 4.398-5.937 2.163,0 3.969,2.547 4.401,5.937h2.997c.387-3.483 2.214-6.126 4.419-6.126 2.199,0 4.026,2.643 4.416,6.126h3.36c.417-3.426 2.232-6 4.41-6s3.993,2.574 4.41,6h6.213v-21zm0,24h-6.216c-.417,3.423-2.232,6-4.41,6s-3.993-2.577-4.41-6h-3.39c-.447,3.357-2.238,5.874-4.386,5.874-2.151,0-3.942-2.517-4.389-5.874h-3.012c-.402,3.453-2.223,6.063-4.413,6.063-2.187,0-4.008-2.607-4.413-6.063h-23.961v18h63v-18z"/>
</svg>
