<svg width="96" xmlns="http://www.w3.org/2000/svg" height="96" viewBox="0 0 96 96" xmlns:xlink="http://www.w3.org/1999/xlink">
<path d="m18,12c-1.659,0-3,1.341-3,3 0,1.656 1.341,3 3,3h60v63c0,3.312-2.688,6-6,6h-54c-3.312,0-6-2.688-6-6h1.5c2.484,0 4.5-2.016 4.5-4.5s-2.016-4.5-4.5-4.5h-1.5v-3h1.5c2.484,0 4.5-2.016 4.5-4.5s-2.016-4.5-4.5-4.5h-1.5v-3h1.5c2.484,0 4.5-2.016 4.5-4.5s-2.016-4.5-4.5-4.5h-1.5v-3h1.5c2.484,0 4.5-2.016 4.5-4.5s-2.016-4.5-4.5-4.5h-1.5v-3h1.5c2.484,0 4.5-2.016 4.5-4.5s-2.016-4.5-4.5-4.5h-1.5v-9c0-3.312 2.688-6 6-6h54c2.214,0 4.128,1.212 5.169,3h-59.169zm13.47,46.575c.717,1.599 1.788,3.015 3.204,4.245 1.419,1.227 3.135,2.148 5.148,2.76 2.016,.612 4.212,.921 6.597,.921 2.589,0 4.803-.342 6.639-1.023 1.836-.684 3.423-1.608 4.755-2.778 1.329-1.17 2.271-2.316 2.817-3.441h-2.907c-.945,1.347-2.37,2.493-4.272,3.438s-4.26,1.416-7.071,1.416c-2.634,0-5.031-.453-7.194-1.362s-3.819-2.313-4.962-4.209c-1.146-1.902-1.716-4.167-1.716-6.798 0-2.514 .57-4.866 1.713-7.062 1.143-2.196 2.754-3.882 4.83-5.058 2.073-1.179 4.371-1.764 6.882-1.764 2.199,0 4.209,.465 6.03,1.401s3.186,2.184 4.104,3.738c.918,1.56 1.377,3.234 1.377,5.028 0,1.536-.357,3.027-1.071,4.47-.717,1.446-1.686,2.598-2.916,3.456-.927,.657-1.674,.984-2.241,.984-.312,0-.579-.105-.801-.315-.219-.207-.33-.459-.33-.75 0-.162 .162-.993 .483-2.499l2.328-10.824h-2.883l-.558,2.496c-.612-.999-1.341-1.743-2.19-2.232-.846-.489-1.74-.732-2.673-.732-1.224,0-2.487,.429-3.789,1.29-1.299,.861-2.385,2.148-3.261,3.861-.876,1.716-1.314,3.429-1.314,5.139 0,1.386 .282,2.661 .846,3.822 .564,1.161 1.299,2.022 2.199,2.577 .903,.561 1.83,.837 2.787,.837 .87,0 1.737-.243 2.601-.732 .867-.489 1.65-1.137 2.346-1.941 .063,.657 .168,1.119 .309,1.392 .213,.42 .549,.741 1.005,.969 .456,.225 1.059,.336 1.8,.336 2.322,0 4.461-1.083 6.42-3.252 2.193-2.418 3.291-5.184 3.291-8.298 0-2.181-.522-4.2-1.563-6.06-1.221-2.16-2.895-3.783-5.016-4.872s-4.512-1.635-7.179-1.635c-3.438,0-6.357,.771-8.769,2.316s-4.272,3.774-5.58,6.684c-1.074,2.373-1.611,4.869-1.611,7.488 .003,2.355 .453,4.548 1.356,6.573zm14.997-3.504c-.606,.708-1.242,1.245-1.908,1.605-.669,.36-1.302,.543-1.902,.543-.903,0-1.701-.411-2.403-1.227-.696-.816-1.047-1.962-1.047-3.438 0-.927 .174-1.941 .516-3.054 .342-1.107 .801-2.049 1.368-2.823 .57-.774 1.158-1.335 1.764-1.686 .606-.351 1.254-.525 1.941-.525 1.044,0 1.926,.402 2.652,1.209 .723,.807 1.086,1.941 1.086,3.405 0,1.098-.192,2.193-.579,3.285-.384,1.095-.882,1.998-1.488,2.706zm-31.467-26.571c0,.828-.672,1.5-1.5,1.5h-3c-.828,0-1.5-.672-1.5-1.5s.672-1.5 1.5-1.5h3c.828,0 1.5,.672 1.5,1.5zm-4.5,10.5h3c.828,0 1.5,.672 1.5,1.5s-.672,1.5-1.5,1.5h-3c-.828,0-1.5-.672-1.5-1.5s.672-1.5 1.5-1.5zm0,12h3c.828,0 1.5,.672 1.5,1.5s-.672,1.5-1.5,1.5h-3c-.828,0-1.5-.672-1.5-1.5s.672-1.5 1.5-1.5zm0,12h3c.828,0 1.5,.672 1.5,1.5s-.672,1.5-1.5,1.5h-3c-.828,0-1.5-.672-1.5-1.5s.672-1.5 1.5-1.5zm0,12h3c.828,0 1.5,.672 1.5,1.5s-.672,1.5-1.5,1.5h-3c-.828,0-1.5-.672-1.5-1.5s.672-1.5 1.5-1.5zm76.5-45.186h-6v-9h6v9zm0,12.186h-6v-9h6v9zm0,11.814h-6v-9h6v9z"/>
</svg>
