<svg width="96" xmlns="http://www.w3.org/2000/svg" height="96" viewBox="0 0 96 96" xmlns:xlink="http://www.w3.org/1999/xlink">
<path d="M54.279 48.111c6.867-11.889 8.826-19.569 8.826-26.868 0-11.139-10.011-15.345-15.828-15.345s-15.771 4.062-15.771 15.348c0 7.206 1.86 14.955 8.718 26.763l-16.095 28.38 6.858 13.716 16.113-29.835 18.087 29.835 6.687-12.417-17.595-29.577zM40.188 19.383c0-5.727 3.522-6.975 7.077-6.975 3.564 0 6.984 1.218 6.984 6.948s-6.975 15.273-6.975 15.273-7.086-9.513-7.086-15.246z"/>
</svg>
