<svg width="96" xmlns="http://www.w3.org/2000/svg" height="96" viewBox="0 0 96 96" xmlns:xlink="http://www.w3.org/1999/xlink">
<path d="m81.687,44.325c-4.122-11.421-14.175-20.187-26.673-22.977 3.201-4.596 8.508-7.617 14.535-7.617 9.792,0 17.727,7.938 17.727,17.73 0,5.082-2.166,9.633-5.589,12.864zm-34.095-29.928v11.148c17.01,.693 30.597,14.664 30.597,31.842 0,7.176-2.397,13.776-6.39,19.101l7.392,12.807-6.141,3.549-6.327-10.962c-5.538,4.629-12.663,7.422-20.442,7.422-7.737,0-14.829-2.757-20.352-7.335l-6.495,11.241-6.141-3.549 7.548-13.068c-4.044-5.346-6.468-11.985-6.468-19.206 0-17.064 13.404-30.957 30.252-31.824v-11.166c-1.719-.615-2.967-2.22-2.967-4.155 0-2.46 1.995-4.452 4.452-4.452 2.46,0 4.455,1.995 4.455,4.452-.003,1.935-1.251,3.54-2.973,4.155zm-26.133,42.99c0,13.71 11.112,24.819 24.819,24.819 13.704,0 24.819-11.109 24.819-24.819 0-13.704-11.115-24.816-24.819-24.816-13.707-.003-24.819,11.112-24.819,24.816zm32.259,5.367h-8.907c-1.641,0-2.97-1.329-2.97-2.97v-11.877c0-1.641 1.329-2.97 2.97-2.97 1.638,0 2.967,1.329 2.967,2.97v8.907h5.937c1.641,0 2.97,1.329 2.97,2.97s-1.326,2.97-2.967,2.97zm-42.402-18.429c-3.426-3.234-5.592-7.782-5.592-12.864 0-9.792 7.938-17.73 17.73-17.73 6.024,0 11.328,3.021 14.535,7.617-12.498,2.79-22.551,11.556-26.673,22.977z"/>
</svg>
