<svg width="96" xmlns="http://www.w3.org/2000/svg" height="96" viewBox="0 0 96 96" xmlns:xlink="http://www.w3.org/1999/xlink">
<path d="m81.039,75.834v5.475h-66.078v-5.475c0,0-1.413-3.027 6.255-10.287 7.662-7.257 6.654-26.016 6.654-38.721s17.844-12.975 17.844-12.975h.612c0,.006 0-.087 0-2.064 0-1.269-4.26-5.865-4.26-5.865l-.063-2.781h12.03l-.081,2.886c0,0-4.617,4.593-4.617,5.946 0,1.308 0,1.746 0,1.875h.951c0,0 17.844,.27 17.844,12.975s-1.008,31.467 6.657,38.727 6.252,10.284 6.252,10.284zm-25.503,8.376c0,4.155-3.366,8.649-7.518,8.649s-7.518-4.494-7.518-8.649c0,.093 15.036-.096 15.036,0z"/>
</svg>
