<svg width="96" xmlns="http://www.w3.org/2000/svg" height="96" viewBox="0 0 96 96" xmlns:xlink="http://www.w3.org/1999/xlink">
<path d="m83.376,75.834l.003,5.475h-62.61l49.671-49.674c-.09,12.237-.063,27.528 6.684,33.915 7.665,7.26 6.252,10.284 6.252,10.284zm-70.854,5.106l63.795-63.792 2.124,2.127-63.792,63.792-2.127-2.127zm11.034-15.39c7.665-7.26 6.657-26.016 6.657-38.724s17.844-12.975 17.844-12.975h.609c0,.006 0-.087 0-2.064 0-1.269-4.26-5.865-4.26-5.865l-.063-2.781h12.03l-.084,2.886c0,0-4.614,4.593-4.614,5.946 0,1.308 0,1.746 0,1.875h.951c0,0 11.403,.192 15.969,6.765l-47.727,47.73c.747-.855 1.608-1.773 2.688-2.793zm34.32,18.66c0,4.155-3.366,8.649-7.518,8.649-4.155,0-7.521-4.494-7.521-8.649 0,.093 15.039-.096 15.039,0z"/>
</svg>
