<svg width="96" xmlns="http://www.w3.org/2000/svg" height="96" viewBox="0 0 96 96" xmlns:xlink="http://www.w3.org/1999/xlink">
<path d="m43.833,56.568c-1.038,1.056-1.56,2.346-1.56,3.876 0,1.653 .591,3.042 1.77,4.167 1.089,1.038 2.397,1.557 3.927,1.557 1.563,0 2.913-.564 4.038-1.698s1.686-2.484 1.686-4.05c0-1.512-.546-2.829-1.635-3.954-1.089-1.143-2.403-1.713-3.933-1.713-1.701-.003-3.132,.603-4.293,1.815zm-.66-24.204c-.897,1.353-1.341,3.033-1.341,5.037 0,1.635 .276,3.438 .828,5.406s1.305,3.813 2.253,5.538c1.284,2.337 2.28,3.507 2.982,3.507 .72,0 1.671-.915 2.847-2.742 1.038-1.617 1.866-3.456 2.49-5.523s.936-3.996 .936-5.79c0-2.706-.732-4.8-2.19-6.276-1.089-1.125-2.415-1.689-3.978-1.689-2.109,0-3.72,.846-4.827,2.532z"/>
</svg>
