<svg width="96" xmlns="http://www.w3.org/2000/svg" height="96" viewBox="0 0 96 96" xmlns:xlink="http://www.w3.org/1999/xlink">
<path d="m86.997,57.285l-3.408,23.187-6.897-6.69c-5.463,4.617-15.594,10.899-30.312,10.899-14.805,0-25.044-6.129-30.492-10.521l-6.294,6.105-3.594-22.977 23.679,3.486-6.525,6.333c4.578,3.399 11.76,7.497 18.912,7.497l-.021-37.827c-5.223-1.818-8.982-6.621-8.982-12.315 0-7.254 6.057-13.134 13.53-13.134 7.47,0 13.53,5.88 13.53,13.134 0,5.781-3.876,10.635-9.222,12.387 .033,7.38 .153,37.896-.012,37.896 6.84,0 13.902-4.452 18.501-8.052l-6.096-5.919 23.703-3.489zm-33.429-33.036c0-3.738-3.123-6.771-6.975-6.771s-6.978,3.033-6.978,6.771c0,3.741 3.126,6.774 6.978,6.774s6.975-3.033 6.975-6.774z"/>
</svg>
