<svg width="96" xmlns="http://www.w3.org/2000/svg" height="96" viewBox="0 0 96 96" xmlns:xlink="http://www.w3.org/1999/xlink">
<path d="m39.21,15.606l-17.388-4.659c-1.599-.429-3.243,.522-3.672,2.121l-17.859,66.648c-.429,1.602 .522,3.246 2.124,3.678l17.385,4.659c1.599,.429 3.246-.522 3.675-2.121l17.859-66.651c.426-1.599-.522-3.246-2.124-3.675zm-15.87,59.223c-1.287,4.803-6.219,7.65-11.022,6.363s-7.65-6.219-6.363-11.022 6.219-7.653 11.022-6.363c4.803,1.287 7.65,6.222 6.363,11.022zm3.447-12.858l-17.385-4.659 9.315-34.773 17.388,4.662-9.318,34.77zm30.027,7.029c-2.487,0-4.5,2.016-4.5,4.5s2.013,4.5 4.5,4.5c2.484,0 4.5-2.016 4.5-4.5s-2.016-4.5-4.5-4.5zm-24.381-39.681l-11.595-3.105-.774,2.898 11.592,3.105 .777-2.898zm-2.334,8.694l.78-2.898-11.592-3.105-.777,2.898 11.589,3.105zm-14.334,30.321c-2.4-.645-4.869,.783-5.511,3.183-.645,2.403 .78,4.869 3.183,5.511 2.4,.645 4.869-.78 5.511-3.183 .642-2.4-.783-4.866-3.183-5.511zm74.049-41.334h-12v3h12v-3zm0,12h-12v3h12v-3zm0-6h-12v3h12v-3zm-6,36c-2.487,0-4.5,2.016-4.5,4.5s2.013,4.5 4.5,4.5c2.484,0 4.5-2.016 4.5-4.5s-2.016-4.5-4.5-4.5zm9-57h-18c-1.659,0-3,1.341-3,3v69c0,1.656 1.341,3 3,3h18c1.656,0 3-1.344 3-3v-69c0-1.659-1.347-3-3-3zm-9,70.5c-4.971,0-9-4.032-9-9 0-4.971 4.029-9 9-9 4.968,0 9,4.029 9,9 0,4.968-4.032,9-9,9zm9-22.5h-18v-36h18v36zm-30-33h-12v3h12v-3zm0,12h-12v3h12v-3zm3-27h-18c-1.659,0-3,1.341-3,3v69c0,1.656 1.341,3 3,3h18c1.656,0 3-1.344 3-3v-69c0-1.659-1.347-3-3-3zm-9,70.314c-4.971,0-9-4.032-9-9 0-4.971 4.029-9 9-9 4.968,0 9,4.029 9,9 0,4.968-4.032,9-9,9zm9-22.314h-18v-36h18v36zm-3-27h-12v3h12v-3zm-45.858,7.701l11.589,3.105 .78-2.898-11.592-3.105-.777,2.898z"/>
</svg>
