<svg width="96" xmlns="http://www.w3.org/2000/svg" height="96" viewBox="0 0 96 96" xmlns:xlink="http://www.w3.org/1999/xlink">
<path d="m74.061,48.111c6.879,7.419 9.96,14.718 7.287,19.398-2.667,4.668-10.443,5.631-20.214,3.342-2.925,9.777-7.662,16.161-13.023,16.161-5.367,0-10.101-6.405-13.02-16.209-9.879,2.355-17.748,1.41-20.436-3.294-2.673-4.68 .411-11.988 7.29-19.416-7.011-7.488-10.167-14.88-7.47-19.596 2.7-4.728 10.644-5.661 20.592-3.261 2.922-9.825 7.674-16.248 13.047-16.248 5.37,0 10.107,6.402 13.026,16.203 9.855-2.34 17.712-1.392 20.397,3.306 2.688,4.719-.471,12.117-7.476,19.614zm-56.805-17.988c-2.064,3.612 .783,9.534 6.81,15.795 2.457-2.397 5.286-4.776 8.436-7.062 .384-3.798 .969-7.401 1.77-10.68-8.421-2.163-14.943-1.68-17.016,1.947zm14.907,12.96c-2.16,1.644-4.131,3.312-5.898,4.977 1.791,1.674 3.723,3.354 5.91,5.01-.09-1.665-.153-3.348-.153-5.07 0-1.668 .054-3.306 .141-4.917zm.336,14.199c-3.153-2.277-5.973-4.65-8.439-7.038-5.919,6.204-8.667,12.057-6.621,15.639 2.061,3.603 8.514,4.104 16.86,1.986-.801-3.261-1.419-6.807-1.8-10.587zm27.768,2.223c-1.338,.879-2.706,1.743-4.131,2.574-1.446,.843-2.892,1.617-4.332,2.355 2.469,1.05 4.884,1.965 7.176,2.667 .537-2.352 .954-4.917 1.287-7.596zm-12.159,24.255c4.107,0 7.752-5.355 10.11-13.671-3.255-.936-6.693-2.238-10.197-3.822-3.441,1.563-6.807,2.82-10.011,3.759 2.352,8.337 5.991,13.734 10.098,13.734zm-10.839-16.734c2.226-.693 4.554-1.554 6.948-2.574-1.446-.741-2.901-1.524-4.353-2.37-1.347-.789-2.643-1.599-3.912-2.43 .327,2.631 .792,5.058 1.317,7.374zm-1.311-30.558c1.323-.867 2.679-1.719 4.086-2.544 1.389-.813 2.778-1.56 4.164-2.274-2.403-1.026-4.755-1.932-6.993-2.631-.522,2.31-.927,4.827-1.257,7.449zm12.15-24.228c-4.119-0-7.782,5.406-10.137,13.782 3.201,.942 6.573,2.235 10.008,3.801 3.516-1.611 6.954-2.898 10.227-3.852-2.352-8.331-5.988-13.731-10.098-13.731zm10.845,16.725c-2.304,.717-4.71,1.605-7.194,2.673 1.395,.717 2.796,1.47 4.194,2.289 1.506,.879 2.946,1.794 4.353,2.724-.33-2.745-.807-5.28-1.353-7.686zm1.767,11.847c-2.01-1.398-4.134-2.763-6.378-4.068-2.148-1.254-4.278-2.349-6.384-3.372-2.079,1.014-4.188,2.139-6.303,3.372-2.139,1.245-4.182,2.547-6.105,3.873-.186,2.391-.312,4.839-.312,7.386 0,2.574 .105,5.079 .291,7.497 1.881,1.293 3.867,2.556 5.943,3.768 2.208,1.287 4.398,2.412 6.564,3.456 2.139-1.038 4.311-2.187 6.486-3.456 2.157-1.257 4.206-2.565 6.147-3.906 .183-2.382 .312-4.821 .312-7.359 0-2.466-.09-4.869-.261-7.191zm17.841,25.071c2.046-3.576-.726-9.42-6.633-15.609-2.403,2.322-5.154,4.626-8.208,6.843-.384,3.846-.978,7.497-1.794,10.812 8.238,2.055 14.595,1.524 16.635-2.046zm-14.502-12.993c2.067-1.578 3.963-3.18 5.673-4.773-1.716-1.62-3.567-3.249-5.661-4.854 .075,1.557 .129,3.132 .129,4.737-.003,1.662-.057,3.288-.141,4.89zm14.682-22.767c-2.058-3.597-8.49-4.107-16.815-1.998 .819,3.354 1.452,7.017 1.83,10.923 3.057,2.235 5.79,4.56 8.184,6.897 6.039-6.273 8.871-12.204 6.801-15.822zm-30.141,24.063c-3.531,0-6.393-2.889-6.393-6.456 0-3.564 2.862-6.456 6.393-6.456 3.528,0 6.39,2.892 6.39,6.456 0,3.57-2.862,6.456-6.39,6.456z"/>
</svg>
