<svg width="96" xmlns="http://www.w3.org/2000/svg" height="96" viewBox="0 0 96 96" xmlns:xlink="http://www.w3.org/1999/xlink">
<path d="m69.183,40.323c0,0 3.516-2.673 .843-5.346-2.679-2.673-5.28,.777-5.28,.777l-20.907,20.91c0,0-6.309,8.133-11.088,3.21s3.21-11.088 3.21-11.088l29.277-29.28c0,0 8.232-9.069 15.966-1.335 7.734,7.737-1.359,15.987-1.359,15.987l-39.639,39.642c0,0-12.684,14.652-24.429,2.907s3.048-24.285 3.048-24.285l30.102-30.102c0,0 3.375-2.814 .843-5.346s-5.343,.843-5.343,.843l-34.53,34.533c0,0-13.035,14.301 1.524,28.854 14.559,14.559 28.857,1.527 28.857,1.527l47.466-47.469c0,0 9.492-10.479-1.827-21.804s-21.804-1.827-21.804-1.827l-34.83,34.833c0,0-10.47,8.502-.975,17.994 9.495,9.495 17.853-1.116 17.853-1.116l23.022-23.019z"/>
</svg>
