<svg width="96" xmlns="http://www.w3.org/2000/svg" height="96" viewBox="0 0 96 96" xmlns:xlink="http://www.w3.org/1999/xlink">
<path d="m53.673,29.415h-11.37c0,0-18.51,14.493-18.51,36.324s19.458,22.041 19.458,22.041 5.064,.375 9.375,0c0,.186 19.575-2.595 19.575-22.059 .003-19.458-18.528-36.306-18.528-36.306zm-11.37-1.425h11.391v-4.272h-11.391v4.272zm11.217-5.694l5.784-14.241c0,0-3.651,3.027-5.784,3.027-2.139,0-5.52-2.937-5.52-2.937s-3.648,2.937-5.784,2.937-5.607-2.847-5.607-2.847l5.874,14.064h11.037z"/>
</svg>
