<svg width="96" xmlns="http://www.w3.org/2000/svg" height="96" viewBox="0 0 96 96" xmlns:xlink="http://www.w3.org/1999/xlink">
<path d="M71.421 58.194h-5.274v1.758h5.274v-1.758zM51.744 63.468v1.758h5.274v1.758h1.758v-7.032h-1.758v3.516h-5.274zM51.744 70.5h3.516v-1.758h-3.516v1.758zM55.26 68.742h1.758v-1.758h-1.758v1.758zM51.744 59.952h-1.758v3.516h1.758v-3.516zM42 24h-6v30h6v-30zM48 24h-3v30h3v-30zM66.147 70.5h5.274v-1.758h-5.274v1.758zM57.018 58.194h-5.274v1.758h5.274v-1.758zM73.179 68.742v-8.79h-1.758v8.79h1.758zM75 24h-3v30h3v-30zM37.344 66.984h-1.758v1.758h1.758v-1.758zM60 24h-6v30h6v-30zM66 24h-3v30h3v-30zM64.389 68.742h1.758v-8.79h-1.758v8.79zM21.186 70.5h8.79v-1.758h-7.032v-1.758h-1.758v3.516zM21.186 61.71h1.758v-1.758h-1.758v1.758zM24.702 65.226h3.516v-1.758h-3.516v1.758zM39.102 63.468v1.758h3.516v-1.758h-3.516zM22.944 58.194v1.758h5.274v-1.758h-5.274zM24 24h-3v30h3v-30zM90 12h-84c-3.312 0-6 2.688-6 6v60c0 3.312 2.688 6 6 6h84c3.312 0 6-2.688 6-6v-60c0-3.312-2.688-6-6-6zM90 78h-84v-60h84v60zM18 24h-6v48h6v-48zM22.944 66.984h1.758v-1.758h-1.758v1.758zM44.376 59.952h-1.758v3.516h1.758v-3.516zM37.344 58.194v1.758h5.274v-1.758h-5.274zM29.976 63.468v-3.516h-1.758v3.516h1.758zM35.586 61.71h1.758v-1.758h-1.758v1.758zM33 24h-3v30h3v-30zM44.376 65.226h-1.758v3.516h1.758v-3.516zM42.618 70.5v-1.758h-5.274v1.758h5.274zM84 24h-6v48h6v-48z"/>
</svg>
