<svg width="96" xmlns="http://www.w3.org/2000/svg" height="96" viewBox="0 0 96 96" xmlns:xlink="http://www.w3.org/1999/xlink">
<path d="m59.853,48c0-19.341 9.996-30.207 9.996-30.207s-8.823-7.158-21.999-7.158c-13.176,0-22.002,7.164-22.002,7.164s10.176,8.265 10.176,30.201c0,21.168-10.242,30.156-10.242,30.156s10.647,7.209 22.068,7.209c11.691,0 22.008-7.17 22.008-7.17s-10.005-9.375-10.005-30.195zm-36.516-28.224c0,0-12.429,7.575-12.429,28.35 0,20.772 12.567,27.57 12.567,27.57s9.159-6.801 9.159-27.57c0-20.775-9.297-28.35-9.297-28.35zm49.026,.561c0,0-9.294,7.014-9.294,27.789 0,20.772 9.153,27.57 9.153,27.57s12.867-6.801 12.867-27.57c0-20.775-12.726-27.789-12.726-27.789z"/>
</svg>
