<svg width="96" xmlns="http://www.w3.org/2000/svg" height="96" viewBox="0 0 96 96" xmlns:xlink="http://www.w3.org/1999/xlink">
<path d="m0,42v-9h11.25l22.593-22.596c-.15-.447-.279-.903-.279-1.404 0-2.487 2.013-4.5 4.5-4.5 2.484,0 4.5,2.013 4.5,4.5 0,2.484-2.016,4.5-4.5,4.5-.333,0-.627-.123-.936-.189l-19.692,19.689h58.062l-19.575-19.737c-.387,.108-.756,.237-1.173,.237-2.484,0-4.5-2.016-4.5-4.5 0-2.487 2.016-4.5 4.5-4.5s4.5,2.013 4.5,4.5c0,.459-.135,.879-.264,1.299l22.701,22.701h11.313v9h-93zm74.607,44.706c-.879,3.516-3.315,3.321-3.315,3.321l-49.785,.096c-2.538,0-3.219-3.216-3.219-3.216l-13.161-41.865 82.722-.078-13.242,41.742zm-44.61-35.706h-3v15h3v-15zm0,18h-3v15h3v-15zm6-18h-2.997v15h2.997v-15zm0,18h-2.997v15h2.997v-15zm6-18h-3v15h3v-15zm0,18h-3v15h3v-15zm6.003-18h-3v15h3v-15zm0,18h-3v15h3v-15zm6-18h-3v15h3v-15zm0,18h-3v15h3v-15zm6-18h-3v15h3v-15zm0,18h-3v15h3v-15zm6-18h-3v15h3v-15zm0,18h-3v15h3v-15z"/>
</svg>
