<svg width="96" xmlns="http://www.w3.org/2000/svg" height="96" viewBox="0 0 96 96" xmlns:xlink="http://www.w3.org/1999/xlink">
<path d="m57.033,86.967h-21.063c-3.297,0-5.964-2.67-5.964-5.964v-57.042c0-3.294 2.67-5.964 5.964-5.964h3.171c0,0 0,.156 0-1.491s1.149-4.473 2.796-4.473h8.946c1.647,0 2.982,2.826 2.982,4.473s0,1.491 0,1.491h3.171c3.297,0 5.964,2.673 5.964,5.964v57.042c-.003,3.297-2.673,5.964-5.967,5.964zm-6.153-59.835h-2.982v-2.982h-2.796v2.982h-2.982v2.982h2.982v2.982h2.796v-2.982h2.982v-2.982zm9.135,11.742h-27.03v42.129c0,1.65 1.335,2.982 2.982,2.982h21.063c1.647,0 2.982-1.332 2.982-2.982v-42.129zm-18.078,35.976h9.135v3.171h-9.135v-3.171z"/>
</svg>
