<svg width="96" xmlns="http://www.w3.org/2000/svg" height="96" viewBox="0 0 96 96" xmlns:xlink="http://www.w3.org/1999/xlink">
<path d="M72 27h-12v-6h12c1.656 0 3 1.341 3 3 0 1.656-1.344 3-3 3zM63 0c0-4.971-4.029-9-9-9h-15c-4.971 0-9 4.029-9 9v18h-3v-18c0-6.627 5.373-12 12-12h15c6.627 0 12 5.373 12 12v18h-3v-18zM33 27h-12c-1.659 0-3-1.344-3-3 0-1.659 1.341-3 3-3h12v6zM46.5 34.5c-5.802 0-10.5-4.701-10.5-10.5 0-5.802 4.698-10.5 10.5-10.5 5.799 0 10.5 4.698 10.5 10.5 0 5.799-4.701 10.5-10.5 10.5zM46.5 18c-3.312 0-6 2.688-6 6s2.688 6 6 6 6-2.688 6-6-2.688-6-6-6zM36.336 30.318c2.118 3.399 5.862 5.682 10.164 5.682s8.043-2.283 10.164-5.682c5.34 1.215 9.336 5.973 9.336 11.682v30c0 5.583-3.834 10.236-9 11.574v-16.263c0-5.799-4.701-10.5-10.5-10.5-5.802 0-10.5 4.701-10.5 10.5v16.263c-5.169-1.338-9-5.991-9-11.574v-30c0-5.709 3.996-10.467 9.336-11.682zM46.5 60c4.143 0 7.5 3.357 7.5 7.5v21c0 4.143-3.357 7.5-7.5 7.5s-7.5-3.357-7.5-7.5v-21c0-4.143 3.357-7.5 7.5-7.5z"/>
</svg>
