<svg width="113" xmlns="http://www.w3.org/2000/svg" height="96" viewBox="0 0 113 96" xmlns:xlink="http://www.w3.org/1999/xlink">
<path d="m89.994,84.591c-12.636,0-22.881-10.242-22.881-22.881 0-9.27 5.526-17.235 13.452-20.829l-3.042-6.849 .495,1.197-20.832,27.963v5.607h3.051v3.054h-9.156v-3.054h3.054v-3.054l-8.631-.81c-1.572,11.103-11.088,19.653-22.626,19.653-12.636,.003-22.878-10.239-22.878-22.878 0-12.636 10.242-22.878 22.881-22.878 3.303,0 6.435,.714 9.27,1.971l5.718-14.364-2.595-7.248c-1.14,0-2.202,0-3.051,0-2.862,0-2.097-3.051-2.097-3.051s.189-2.67 2.289-2.67 2.097,1.908 5.529,1.908c3.285,0 8.007,.951 8.007,.951s2.097,2.859-1.905,2.859c-1.812,0-3.807,0-5.721,0l2.169,7.791h33.156l-2.604-5.919h-2.025v-3.048h12.201v3.051h-6.894l8.931,18.78c2.13-.657 4.395-1.011 6.738-1.011 12.636,0 22.881,10.242 22.881,22.878-.003,12.639-10.248,22.881-22.884,22.881zm-67.113-42.711c-10.953,0-19.83,8.877-19.83,19.83s8.877,19.827 19.83,19.827c9.957,0 18.18-7.347 19.59-16.917l-15.882-1.635c-.252,1.431-1.443,2.538-2.946,2.538-1.686,0-3.051-1.365-3.051-3.054 0-1.683 1.365-3.054 3.051-3.054 .36,0 .696,.093 1.017,.21l6.363-15.99c-2.487-1.116-5.238-1.755-8.142-1.755zm4.575,18.495l15.237,1.611c.003-.093 .015-.183 .015-.276 0-7.05-3.687-13.224-9.231-16.743l-6.021,15.408zm11.775-30.129l-4.629,11.844c6.675,3.996 11.157,11.277 11.157,19.623 0,.198-.024,.399-.03,.597l5.178,.546-11.676-32.61zm35.703-2.058v1.842h-33.36l12.15,32.517 23.061-30.195-1.851-4.164zm15.06,13.692c-1.911,0-3.753,.285-5.502,.792l7.122,16.272c1.446,.234 2.574,1.44 2.574,2.952 0,1.686-1.365,3.054-3.051,3.054s-3.054-1.365-3.054-3.054c0-.819 .333-1.563 .867-2.115l-7.152-16.116c-6.861,3.12-11.637,10.014-11.637,18.042 0,10.95 8.877,19.827 19.827,19.827s19.827-8.877 19.827-19.827-8.871-19.827-19.821-19.827z"/>
</svg>
