<svg width="110" xmlns="http://www.w3.org/2000/svg" height="96" viewBox="0 0 110 96" xmlns:xlink="http://www.w3.org/1999/xlink">
<path d="m99.684,23.784l9.852,1.392-8.76,4.638 6.351,5.802-9.195-1.161 5.691,11.835-11.385-8.586-9.417,11.37 4.38-14.151-13.797,7.425 9.633-10.44-.66-2.568c-2.601,1.296-6.285,2.619-10.137,2.466-5.109,0-11.454-3.564-19.035-9.936 0,0-8.583-9.078-15.798-9.078-7.422,0-6.696,11.166-6.687,11.277h8.406v7.596c10.686,4.116 17.907,14.454 17.907,26.595 0,15.75-12.768,28.518-28.518,28.518s-28.515-12.774-28.515-28.524c0-12.138 7.407-22.479 18.093-26.595v-7.596h7.512c-.009-.057-.864-8.232 3.45-12.768 2.301-2.418 5.112-3.627 8.439-3.627 10.011,0 18.996,10.536 18.996,10.536 6.585,5.652 11.955,8.475 16.11,8.475 1.686,0 5.118-1.062 6.882-1.647l-5.421-4.266 9.417,.693-7.224-11.136 11.823,8.352 1.314-7.89 2.187,7.194 8.76-10.44-1.971,11.601 10.071-2.319-8.754,6.963z"/>
</svg>
