<svg width="96" xmlns="http://www.w3.org/2000/svg" height="96" viewBox="0 0 96 96" xmlns:xlink="http://www.w3.org/1999/xlink">
<path d="m51,78c0,0 18.564-6.186 33,5.436 0-.186 0-5.436 0-5.436-16.875-9.375-33,0-33,0zm-45-60v59.625c0,0 8.064-5.814 19.5-5.814s19.5,5.814 19.5,5.814v-58.875c0,0-8.064-6.75-19.5-6.75s-19.5,6-19.5,6zm6,6h12v15h-12v-15zm27,39h-27v-3h27v3zm0-6h-27v-3h27v3zm0-6h-27v-3h27v3zm0-6h-27v-3h27v3zm-12-21h12v3h-12v-3zm0,6h12v3h-12v-3zm0,6h12v3h-12v-3zm40.5-24c-11.436,0-19.5,6-19.5,6v59.625c0,0 8.064-5.814 19.5-5.814s19.5,5.814 19.5,5.814v-58.875c0,0-8.064-6.75-19.5-6.75zm13.5,51h-27v-3h27v3zm0-6h-27v-3h27v3zm0-6h-27v-3h27v3zm0-6h-27v-3h27v3zm0-6h-27v-3h27v3zm0-6h-27v-3h27v3zm0-6h-27v-3h27v3zm-72,51c0,0 0,5.25 0,5.436 14.436-11.622 33-5.436 33-5.436s-16.125-9.375-33,0z"/>
</svg>
