<svg width="96" xmlns="http://www.w3.org/2000/svg" height="96" viewBox="0 0 96 96" xmlns:xlink="http://www.w3.org/1999/xlink">
<path d="m56.724,19.014h-17.244c0,0-11.454,21.498-11.454,39.945 0,9.801 4.164,26.055 4.209,26.055 2.988,11.898 5.115,10.968 16.425,10.968 10.425,0 13.389,.939 15.741-10.956-.054,.051 3.573-16.095 3.573-26.064 0-20.094-11.25-39.948-11.25-39.948zm-.708-13.512c0,0 2.766-9.15 2.766-14.772s-2.853-14.016-10.488-14.016c-7.638,0-11.163,8.31-11.163,13.935 0,5.622 3.021,14.853 3.021,14.853h15.864zm-.675,8.811v-4.701h-14.685v4.698h14.685z"/>
</svg>
