<svg width="96" xmlns="http://www.w3.org/2000/svg" height="96" viewBox="0 0 96 96" xmlns:xlink="http://www.w3.org/1999/xlink">
<path d="M48 10.5c-20.712 0-37.5 16.788-37.5 37.5 0 20.709 16.788 37.5 37.5 37.5 20.709 0 37.5-16.791 37.5-37.5 0-20.712-16.791-37.5-37.5-37.5zM42.498 39c-2.484 0-4.5-2.016-4.5-4.5 0-2.487 2.016-4.5 4.5-4.5 2.487 0 4.5 2.013 4.5 4.5 0 2.484-2.013 4.5-4.5 4.5zM49.998 24.501c0-2.487 2.016-4.5 4.5-4.5 2.487 0 4.5 2.013 4.5 4.5s-2.013 4.5-4.5 4.5c-2.484 0-4.5-2.016-4.5-4.5zM58.5 46.5c-3.312 0-6-2.688-6-6s2.688-6 6-6 6 2.688 6 6-2.688 6-6 6z"/>
</svg>
