<svg width="96" xmlns="http://www.w3.org/2000/svg" height="96" viewBox="0 0 96 96" xmlns:xlink="http://www.w3.org/1999/xlink">
<path d="m5.205,53.496l36.162,18.243 6.456-18.243-36.159-17.274-6.459,17.274zm43.428-0l6.135,18.081 37.452-18.243-7.266-17.112-36.321,17.274zm-49.374-31.86l12.432,14.529 36.159-18.402-11.784-15.015-36.807,18.888zm97.482,.321l-36.003-19.209-12.27,15.015 36.486,18.402 11.787-14.208zm-87.216,36.102l-.123,17.517 38.139,17.679v-32.94l-5.448,14.208-32.568-16.464zm39.348,2.256v32.937l38.022-17.679v-17.397l-32.97,16.38-5.052-14.241z"/>
</svg>
