<svg width="96" xmlns="http://www.w3.org/2000/svg" height="96" viewBox="0 0 96 96" xmlns:xlink="http://www.w3.org/1999/xlink">
<path d="m82.665,25.26c-4.065,4.941-15.21,18.585-24.063,29.43l-11.241-11.412c10.167-9.048 22.752-20.232 27.3-24.237 8.091-7.131 15.186-11.373 16.728-9.639 .966,.96-1.599,7.188-8.724,15.858zm-26.028,31.83c-3.429,4.197-6.381,7.812-8.187,10.029l-13.308-12.969c2.157-1.92 5.748-5.115 9.912-8.817l11.583,11.757zm-10.17,12.459v-.036c-7.725,29.64-42.054,12.6-42.054,12.6s14.403,1.815 14.403-11.619c0-13.023 13.236-14.199 14.049-14.259l13.629,13.281c0,.003-.027,.033-.027,.033z"/>
</svg>
