<svg width="99" xmlns="http://www.w3.org/2000/svg" height="96" viewBox="0 0 99 96" xmlns:xlink="http://www.w3.org/1999/xlink">
<path d="m66,87.036c0,1.659 1.341,3 3,3h3c1.656,0 3-1.341 3-3v-6.186h-9v6.186zm-42,0c0,1.659 1.341,3 3,3h3c1.659,0 3-1.341 3-3v-6.186h-9v6.186zm-9.045-9.849c0,2.01 1.632,3.645 3.645,3.645h61.788c2.013,0 3.645-1.635 3.645-3.645 0-2.016 0-2.145 0-2.145h-69.078c0,0 0,.129 0,2.145zm81.045-47.151v-6h-11.97l.003-3.264c0-7.293-7.467-14.811-35.922-14.811-25.014,0-33.156,7.518-33.156,14.811v3.264h-11.955v6h-3v12h3v6h11.955v23.922h69l.066-44.922h8.979v3h-3v12h3v3h-9v3h12v-6h3v-12h-3zm-81.045,15h-8.955v-3h3v-12h-3v-3h8.955v18zm22.545-30.186h24c.828-0 1.5,.672 1.5,1.5s-.672,1.5-1.5,1.5h-24c-.828,0-1.5-.672-1.5-1.5s.672-1.5 1.5-1.5zm-16.377,12.837c0-2.013 1.632-3.645 3.645-3.645h19.542c2.013,0 3.645,1.632 3.645,3.645v10.749c0,2.016-1.632,3.648-3.645,3.648h-19.542c-2.013,0-3.645-1.632-3.645-3.648v-10.749zm5.841,37.527c-3.021,0-5.466-2.448-5.466-5.466 0-3.024 2.445-5.466 5.466-5.466s5.469,2.442 5.469,5.466c.003,3.018-2.448,5.466-5.469,5.466zm9.036-14.178h27v3h-27v-3zm27.096,14.793h-27.018v-2.895h27.018v2.895zm0-5.976h-27.018v-2.895h27.018v2.895zm8.928,5.55c-3.021,0-5.466-2.448-5.466-5.466s2.445-5.466 5.466-5.466 5.469,2.448 5.469,5.466-2.448,5.466-5.469,5.466zm5.991-26.967c0,2.016-1.632,3.648-3.648,3.648h-19.686c-2.016,0-3.648-1.632-3.648-3.648v-10.749c0-2.013 1.632-3.645 3.648-3.645h19.686c2.016,0 3.648,1.632 3.648,3.645v10.749z"/>
</svg>
