<svg width="96" xmlns="http://www.w3.org/2000/svg" height="96" viewBox="0 0 96 96" xmlns:xlink="http://www.w3.org/1999/xlink">
<path d="m76.5,27c-.885,0-1.74,.111-2.571,.291-.369-5.463-4.872-9.792-10.428-9.792-1.245,0-2.424,.255-3.531,.654-3.45-5.484-9.516-9.153-16.47-9.153-10.566,0-19.119,8.421-19.44,18.909-1.407-.579-2.943-.909-4.56-.909-6.627,0-12,5.373-12,12 0,6.456 5.109,11.682 11.499,11.946l4.812-4.812 4.866,4.866h2.274l4.863-4.866 4.863,4.866h2.274l4.863-4.866 4.863,4.866h2.274l4.863-4.866 4.863,4.866h2.274l4.863-4.866 4.848,4.848c6.549-.087 11.838-5.409 11.838-11.982 0-6.627-5.373-12-12-12zm-4.5,22.698l-4.302,4.302h-3.774l-4.113-4.113-4.113,4.113h-3.774l-4.113-4.113-4.113,4.113h-3.774l-4.113-4.113-4.113,4.113h-3.771l-4.113-4.113-4.116,4.113h-.198l7.95,33h40.875l8.175-33h-.198l-4.302-4.302zm-37.5,34.302l-6.249-27h3l6.249,27h-3zm6,0l-3.186-27h3l3.186,27h-3zm9,0h-3v-27h3v27zm3,0l3.186-27h3l-3.186,27h-3zm9,0h-3l6.186-27h3l-6.186,27z"/>
</svg>
