<svg width="96" xmlns="http://www.w3.org/2000/svg" height="96" viewBox="0 0 96 96" xmlns:xlink="http://www.w3.org/1999/xlink">
<path d="m72,15h-48c-1.659,0-3,1.341-3,3v63c0,1.656 1.341,3 3,3h48c1.656,0 3-1.344 3-3v-63c0-1.659-1.344-3-3-3zm-45,30h6v6h-6v-6zm0,9h6v6h-6v-6zm0,9h6v6h-6v-6zm15,15h-15v-6h15v6zm0-9h-6v-6h6v6zm0-9h-6v-6h6v6zm0-9h-6v-6h6v6zm9,27h-6v-6h6v6zm0-9h-6v-6h6v6zm0-9h-6v-6h6v6zm0-9h-6v-6h6v6zm9,27h-6v-6h6v6zm0-9h-6v-6h6v6zm0-9h-6v-6h6v6zm0-9h-6v-6h6v6zm9,27h-6v-15h6v15zm0-18h-6v-6h6v6zm0-9h-6v-6h6v6zm0-12h-42v-18h42v18z"/>
</svg>
