<svg width="96" xmlns="http://www.w3.org/2000/svg" height="96" viewBox="0 0 96 96" xmlns:xlink="http://www.w3.org/1999/xlink">
<path d="m81,93h-66c-3.312,0-6-2.688-6-6v-66c0-3.315 2.688-6 6-6h6v3c0,4.971 4.029,9 9,9 4.968,0 9-4.029 9-9v-3h18v3c0,4.971 4.032,9 9,9s9-4.029 9-9v-3h6c3.312,0 6,2.685 6,6v66c0,3.312-2.688,6-6,6zm0-57h-66v51h66v-51zm-51,15h-9v-9h9v9zm0,15h-9v-9h9v9zm0,15h-9v-9h9v9zm15-30h-9v-9h9v9zm0,15h-9v-9h9v9zm0,15h-9v-9h9v9zm15-30h-9v-9h9v9zm0,15h-9v-9h9v9zm0,15h-9v-9h9v9zm15-30h-9v-9h9v9zm0,15h-9v-9h9v9zm0,15h-9v-9h9v9zm-9.093-57c-3.264,0-5.907-2.646-5.907-5.907v-6.186c0-3.264 2.643-5.907 5.907-5.907s5.907,2.643 5.907,5.907v6.186c0,3.261-2.643,5.907-5.907,5.907zm-36,0c-3.264,0-5.907-2.646-5.907-5.907v-6.186c0-3.264 2.643-5.907 5.907-5.907s5.907,2.643 5.907,5.907v6.186c0,3.261-2.646,5.907-5.907,5.907z"/>
</svg>
