<svg width="96" xmlns="http://www.w3.org/2000/svg" height="96" viewBox="0 0 96 96" xmlns:xlink="http://www.w3.org/1999/xlink">
<path d="m84,90h-72c-3.312,0-6-2.688-6-6v-63c0-3.312 2.688-6 6-6h6v3c0,4.971 4.029,9 9,9s9-4.029 9-9v-3h24v3c0,4.971 4.032,9 9,9s9-4.029 9-9v-3h6c3.312,0 6,2.688 6,6v63c0,3.312-2.688,6-6,6zm0-54h-72v48h72v-48zm-44.793,23.487c.591-.942 .888-1.938 .888-2.979 0-2.319-1.248-3.48-3.744-3.48-2.169,0-4.242,.861-6.222,2.583v-4.887c2.19-1.419 4.665-2.127 7.419-2.127 2.577,0 4.59,.648 6.039,1.941s2.172,3.045 2.172,5.247c0,2.94-1.764,5.982-5.292,9.123l-5.187,4.605v.105h10.23v4.605h-16.593v-4.323l7.224-6.909c1.452-1.392 2.475-2.559 3.066-3.504zm20.304,10.011c.792-.609 1.188-1.458 1.188-2.55 0-1.125-.489-1.992-1.467-2.601s-2.322-.915-4.035-.915h-2.268v-4.254h2.091c3.282,0 4.923-1.089 4.923-3.27 0-2.052-1.26-3.075-3.78-3.075-1.686,0-3.327,.546-4.923,1.635v-4.536c1.77-.891 3.831-1.335 6.186-1.335 2.577,0 4.584,.579 6.021,1.74s2.154,2.667 2.154,4.518c0,3.294-1.671,5.355-5.01,6.186v.087c1.782,.222 3.186,.87 4.218,1.941s1.548,2.388 1.548,3.945c0,2.355-.861,4.218-2.583,5.589s-4.101,2.058-7.137,2.058c-2.601,0-4.716-.423-6.345-1.266v-4.833c1.686,1.23 3.657,1.845 5.907,1.845 1.416,.006 2.52-.3 3.312-.909zm9.396-45.498c-3.264,0-5.907-2.643-5.907-5.907v-6.186c0-3.264 2.643-5.907 5.907-5.907s5.907,2.643 5.907,5.907v6.186c0,3.264-2.643,5.907-5.907,5.907zm-42,0c-3.264,0-5.907-2.643-5.907-5.907v-6.186c0-3.264 2.643-5.907 5.907-5.907s5.907,2.643 5.907,5.907v6.186c0,3.264-2.646,5.907-5.907,5.907z"/>
</svg>
