<svg width="96" xmlns="http://www.w3.org/2000/svg" height="96" viewBox="0 0 96 96" xmlns:xlink="http://www.w3.org/1999/xlink">
<path d="m81,51.141l-15-6.009v-12.024l15-6.012c1.659,0 3,1.347 3,3.006v18.036c0,1.659-1.341,3.003-3,3.003zm-28.5-21.042c-7.455,0-13.5-6.057-13.5-13.527s6.045-13.527 13.5-13.527 13.5,6.057 13.5,13.527c0,7.473-6.045,13.527-13.5,13.527zm-27-0c-7.455,0-13.5-6.057-13.5-13.527s6.045-13.527 13.5-13.527 13.5,6.057 13.5,13.527c0,7.473-6.045,13.527-13.5,13.527zm37.5-0v27.054h-16.746c-.156,2.496-1.248,4.647-2.871,5.865h1.692l11.967,26.988h-2.982l-3.99-9h-7.98v14.994h-2.991v-14.994h-8.106l-4.053,9h-2.985l12.156-26.988h1.131c-1.623-1.218-2.715-3.369-2.871-5.865h-19.371v-27.054h48zm-23.904,33.849c-.123-.03-.237-.093-.357-.135l-6.396,14.196h6.753v-14.061zm2.991-.216v14.28h6.651l-6.378-14.385c-.087,.042-.177,.069-.273,.105z"/>
</svg>
