<svg width="96" xmlns="http://www.w3.org/2000/svg" height="96" viewBox="0 0 96 96" xmlns:xlink="http://www.w3.org/1999/xlink">
<path d="m84,21l-45.012,.051 .012-8.865-24-.186v9h-6c-3.312,0-6,2.688-6,6v51c0,3.312 2.688,6 6,6h75c3.312,0 6-2.688 6-6v-51c0-3.312-2.688-6-6-6zm-63-3h12v9h-12v-9zm15,56.874c-11.598,0-21-9.402-21-21s9.402-21 21-21c11.595,0 21,9.402 21,21 0,11.598-9.405,21-21,21zm40.5-34.311c-3.315,0-6-2.685-6-6 0-3.312 2.685-6 6-6 3.312,0 6,2.688 6,6 0,3.312-2.688,6-6,6zm-40.5,.312c-7.455,0-13.5,6.045-13.5,13.5s6.045,13.5 13.5,13.5 13.5-6.045 13.5-13.5-6.045-13.5-13.5-13.5z"/>
</svg>
