<svg width="96" xmlns="http://www.w3.org/2000/svg" height="96" viewBox="0 0 96 96" xmlns:xlink="http://www.w3.org/1999/xlink">
<path d="m48,87c-21.54,0-39-17.46-39-39s17.46-39 39-39 39,17.46 39,39-17.46,39-39,39zm0-69c-16.566,0-30,13.434-30,30s13.434,30 30,30c16.569,0 30-13.434 30-30s-13.431-30-30-30zm13.611,40.605l-3.042,3.042c-.558,.558-1.464,.558-2.025,0l-8.61-8.61-8.61,8.61c-.561,.558-1.464,.558-2.025,0l-3.042-3.042c-.558-.558-.558-1.464 0-2.025l8.613-8.607-8.613-8.61c-.558-.561-.558-1.467 0-2.028l3.042-3.039c.561-.561 1.464-.561 2.025,0l8.61,8.61 8.61-8.61c.561-.561 1.467-.561 2.025,0l3.042,3.039c.558,.561 .558,1.467 0,2.028l-8.613,8.61 8.613,8.607c.558,.561 .558,1.47 0,2.025z"/>
</svg>
