<svg width="96" xmlns="http://www.w3.org/2000/svg" height="96" viewBox="0 0 96 96" xmlns:xlink="http://www.w3.org/1999/xlink">
<path d="m48,87c-21.54,0-39-17.46-39-39s17.46-39 39-39 39,17.46 39,39-17.46,39-39,39zm17.883-50.373c.732-.732 .732-1.923 0-2.655l-3.984-3.981c-.732-.732-1.923-.732-2.655,0l-11.283,11.283-11.283-11.283c-.732-.732-1.923-.732-2.655,0l-3.984,3.981c-.732,.732-.732,1.923 0,2.655l11.286,11.286-11.286,11.28c-.732,.732-.732,1.923 0,2.655l3.984,3.984c.732,.732 1.923,.732 2.655,0l11.283-11.286 11.283,11.286c.732,.732 1.923,.732 2.655,0l3.984-3.984c.732-.732 .732-1.923 0-2.655l-11.286-11.28 11.286-11.286z"/>
</svg>
