<svg width="96" xmlns="http://www.w3.org/2000/svg" height="96" viewBox="0 0 96 96" xmlns:xlink="http://www.w3.org/1999/xlink">
<path d="m81,66h-69c-3.312,0-6-2.688-6-6v-15c0-3.312 2.688-6 6-6h3c0,0 4.437-13.5 5.748-18s2.688-6 6.003-6h39.498c3.312,0 4.314,.936 6,6s5.751,18 5.751,18h3c3.312,0 6,2.688 6,6v15c0,3.312-2.688,6-6,6zm-54-6h39v-3h-39v3zm39-21c0-3.312-2.688-6.375-6-6.375s-6,3.063-6,6.375c0,.078 12,.078 12,0zm-39,15h39v-3h-39v3zm0-6h39v-3h-39v3zm-14.814,3c0,3.312 2.688,6 6,6s6-2.688 6-6-2.688-6-6-6-6,2.688-6,6zm57.063-30c-.75-2.064-1.341-3-3-3h-18.249v3h1.5c.828,0 1.5,.672 1.5,1.5s-.672,1.5-1.5,1.5h-6c-.828,0-1.5-.672-1.5-1.5s.672-1.5 1.5-1.5h1.5v-3h-18.249c-1.659,0-2.253,.375-3,3-.753,2.625-5.751,18-5.751,18h34.38c.069-4.092 3.39-7.929 7.485-7.929 4.098,0 7.416,3.834 7.488,7.929h7.647c0,0-5.001-15.936-5.751-18zm5.565,24.186c-3.312,0-6,2.688-6,6s2.688,6 6,6 6-2.688 6-6-2.688-6-6-6zm-53.814,31.314c0,2.484-2.016,4.5-4.5,4.5s-4.5-2.016-4.5-4.5v-7.5h9v7.5zm60,0c0,2.484-2.016,4.5-4.5,4.5s-4.5-2.016-4.5-4.5v-7.5h9v7.5z"/>
</svg>
