<svg width="96" xmlns="http://www.w3.org/2000/svg" height="96" viewBox="0 0 96 96" xmlns:xlink="http://www.w3.org/1999/xlink">
<path d="m84.051,84.048h-6.195l-6.006-18.024h-50.883l-6.009,18.024h-6.009c-4.974,0-9.012-4.038-9.012-9.012v-54.072c0-4.977 4.038-9.009 9.012-9.009h75.099c4.977,0 9.012,4.035 9.012,9.009v54.072c.003,4.974-4.032,9.012-9.009,9.012zm-.189-63.084h-74.913v39.051h74.913v-39.051zm-5.82,33.042h-63.084v-27.033h63.081v27.033zm-49.575-21.075c-4.149,0-7.509,3.363-7.509,7.509s3.36,7.509 7.509,7.509 7.512-3.363 7.512-7.509-3.363-7.509-7.512-7.509zm22.353,4.557h-8.823v6.006h8.823v-6.006zm13.722-4.557c-4.149,0-7.509,3.363-7.509,7.509s3.36,7.509 7.509,7.509c4.146,0 7.509-3.363 7.509-7.509s-3.363-7.509-7.509-7.509zm-.204,10.563c-1.659,0-3.003-1.344-3.003-3.003 0-1.659 1.344-3.003 3.003-3.003s3.006,1.344 3.006,3.003c0,1.659-1.347,3.003-3.006,3.003zm-35.67,0c-1.659,0-3.003-1.344-3.003-3.003 0-1.659 1.344-3.003 3.003-3.003 1.662,0 3.006,1.344 3.006,3.003 0,1.659-1.347,3.003-3.006,3.003zm41.115,25.533l5.259,14.895h-57.264l5.067-14.895h46.938zm-3.753,9.012h3.003v-3.003h-3.003v3.003zm-6.009,0h3.006v-3.003h-3.006v3.003zm-21.027,0h14.832v-3.003h-14.832v3.003zm-9.012,0h3.003v-3.003h-3.003v3.003zm-6.009,0h3.003v-3.003h-3.003v3.003z"/>
</svg>
