<svg width="96" xmlns="http://www.w3.org/2000/svg" height="96" viewBox="0 0 96 96" xmlns:xlink="http://www.w3.org/1999/xlink">
<path d="m50.994,44.826c0,0 .288-35.958 0-35.958 20.688,0 35.958,15.27 35.958,35.958 0,.114-35.958,0-35.958,0zm32.964,7.38c0,21.513-17.442,38.955-38.955,38.955-21.516,0-38.955-17.442-38.955-38.955 0-21.516 17.439-38.955 38.955-38.955 1.011,0 2.004,.072 2.997,.15v34.422h35.724c.15,1.38 .234,2.964 .234,4.383zm-3.183-1.2h-35.772v-34.758c-19.86,0-35.958,16.101-35.958,35.961s16.098,35.955 35.958,35.955 35.958-16.095 35.958-35.955c0-3.87-.186-1.203-.186-1.203z"/>
</svg>
