<svg width="96" xmlns="http://www.w3.org/2000/svg" height="96" viewBox="0 0 96 96" xmlns:xlink="http://www.w3.org/1999/xlink">
<path d="m77.355,14.856h-58.71c-3.705,0-6.708,3.006-6.708,6.708v37.464c0,3.702 3.003,6.708 6.708,6.708h11.187l.003,15.411 17.112-15.411h30.411c3.708,0 6.708-3.006 6.708-6.708v-37.464c-.003-3.702-3.003-6.708-6.711-6.708zm-47.355,27.051c-1.659,0-3-1.344-3-3 0-1.659 1.341-3 3-3 1.656,0 3,1.341 3,3 0,1.656-1.344,3-3,3zm12-.126c-1.659,0-3-1.344-3-3 0-1.659 1.341-3 3-3 1.656,0 3,1.341 3,3 0,1.656-1.344,3-3,3zm12.06,.063c-1.656,0-3-1.341-3-3 0-1.656 1.344-3 3-3 1.659,0 3,1.344 3,3 0,1.656-1.344,3-3,3zm11.94,.063c-1.659,0-3-1.344-3-3 0-1.659 1.341-3 3-3 1.656,0 3,1.341 3,3 0,1.656-1.344,3-3,3z"/>
</svg>
