<svg width="96" xmlns="http://www.w3.org/2000/svg" height="96" viewBox="0 0 96 96" xmlns:xlink="http://www.w3.org/1999/xlink">
<path d="m48,15.822c-20.817,0-37.695,12.561-37.695,28.056 0,9.312 6.096,17.562 15.48,22.665-.027,.081-7.476,13.635-7.476,13.635s22.749-8.676 22.812-8.712c2.232,.309 4.533,.465 6.882,.465 20.817,0 37.695-12.561 37.695-28.053-.003-15.495-16.881-28.056-37.698-28.056zm-18.096,31.053c-1.656,0-3-1.344-3-3 0-1.659 1.344-3 3-3s3,1.341 3,3c0,1.656-1.341,3-3,3zm11.937,.126c-1.656,0-3-1.344-3-3 0-1.659 1.344-3 3-3 1.659,0 3,1.341 3,3 0,1.656-1.341,3-3,3zm12.123,0c-1.656,0-3-1.344-3-3 0-1.659 1.344-3 3-3 1.659,0 3,1.341 3,3 0,1.656-1.341,3-3,3zm12,0c-1.656,0-3-1.344-3-3 0-1.659 1.344-3 3-3 1.659,0 3,1.341 3,3 0,1.656-1.341,3-3,3z"/>
</svg>
