<svg width="96" xmlns="http://www.w3.org/2000/svg" height="96" viewBox="0 0 96 96" xmlns:xlink="http://www.w3.org/1999/xlink">
<path d="m75.126,56.016v-37.461c0-3.702-3-6.708-6.708-6.708h-58.713c-3.705-.003-6.708,3.003-6.708,6.708v37.461c0,3.705 3.003,6.708 6.708,6.708h11.187v15.411l17.112-15.411h30.411c3.711,0 6.711-3.003 6.711-6.708zm11.169-29.442h-8.394c0,0 0,29.916 0,32.727s-3.648,6.426-6.459,6.426-32.835,.165-32.835,.165c0,3.705 3.003,5.958 6.708,5.958h12.927l16.866,15.306-.021-15.306h11.208c3.708,0 6.708-2.253 6.708-5.958v-32.796c0-3.702-3-6.522-6.708-6.522z"/>
</svg>
