<svg width="96" xmlns="http://www.w3.org/2000/svg" height="96" viewBox="0 0 96 96" xmlns:xlink="http://www.w3.org/1999/xlink">
<path d="m79.5,81h-9c-.828,0-1.5-.672-1.5-1.5s.672-1.5 1.5-1.5h7.5v-7.5c0-.828 .672-1.5 1.5-1.5 .825,0 1.5,.672 1.5,1.5v9c0,.828-.675,1.5-1.5,1.5zm0-18c-.828,0-1.5-.672-1.5-1.5v-9c0-.828 .672-1.5 1.5-1.5 .825,0 1.5,.672 1.5,1.5v9c0,.828-.675,1.5-1.5,1.5zm0-18c-.828,0-1.5-.672-1.5-1.5v-9c0-.828 .672-1.5 1.5-1.5 .825,0 1.5,.672 1.5,1.5v9c0,.828-.675,1.5-1.5,1.5zm0-18c-.828,0-1.5-.672-1.5-1.5v-7.5h-7.5c-.828,0-1.5-.672-1.5-1.5s.672-1.5 1.5-1.5h9c.825,0 1.5,.672 1.5,1.5v9c0,.828-.675,1.5-1.5,1.5zm-35.502,36.159c-.552,.555-1.449,.555-2.004,0l-3.006-3.006c-.006-.009-.003-.021-.009-.027l-9.564-9.636c-.555-.552-.555-1.449 0-2.004l3.006-3.009c.555-.555 1.452-.555 2.007,0l8.58,8.643 18.042-18.039c.552-.555 1.449-.555 2.004,0l3.006,3.009c.558,.555 .558,1.452 0,2.007l-22.062,22.062zm17.502-45.159h-9c-.828,0-1.5-.672-1.5-1.5s.672-1.5 1.5-1.5h9c.825,0 1.5,.672 1.5,1.5s-.675,1.5-1.5,1.5zm-18,0h-9c-.828,0-1.5-.672-1.5-1.5s.672-1.5 1.5-1.5h9c.825,0 1.5,.672 1.5,1.5s-.675,1.5-1.5,1.5zm-18,63h-9c-.828,0-1.5-.672-1.5-1.5v-9c0-.828 .672-1.5 1.5-1.5s1.5,.672 1.5,1.5v7.5h7.5c.828,0 1.5,.672 1.5,1.5s-.672,1.5-1.5,1.5zm0-63h-7.5v7.5c0,.828-.672,1.5-1.5,1.5s-1.5-.672-1.5-1.5v-9c0-.828 .672-1.5 1.5-1.5h9c.828,0 1.5,.672 1.5,1.5s-.672,1.5-1.5,1.5zm-9,15c.828,0 1.5,.672 1.5,1.5v9c0,.828-.672,1.5-1.5,1.5s-1.5-.672-1.5-1.5v-9c0-.828 .672-1.5 1.5-1.5zm0,18c.828,0 1.5,.672 1.5,1.5v9c0,.828-.672,1.5-1.5,1.5s-1.5-.672-1.5-1.5v-9c0-.828 .672-1.5 1.5-1.5zm18,27h9c.825,0 1.5,.672 1.5,1.5s-.675,1.5-1.5,1.5h-9c-.828,0-1.5-.672-1.5-1.5s.672-1.5 1.5-1.5zm18,0h9c.825,0 1.5,.672 1.5,1.5s-.675,1.5-1.5,1.5h-9c-.828,0-1.5-.672-1.5-1.5s.672-1.5 1.5-1.5z"/>
</svg>
