<svg width="96" xmlns="http://www.w3.org/2000/svg" height="96" viewBox="0 0 96 96" xmlns:xlink="http://www.w3.org/1999/xlink">
<path d="m65.46,39.09l-3.006-3.006c-.555-.555-1.452-.555-2.004,0l-18.042,18.039-8.577-8.646c-.558-.555-1.452-.555-2.01,0l-3.006,3.009c-.555,.555-.555,1.452 0,2.004l12.579,12.669c.555,.552 1.452,.552 2.004,0l22.062-22.062c.558-.555 .558-1.452 0-2.007zm-17.46-30.09c-21.54,0-39,17.46-39,39s17.46,39 39,39 39-17.46 39-39-17.46-39-39-39zm0,69c-16.566,0-30-13.434-30-30 0-16.569 13.434-30 30-30 16.569,0 30,13.431 30,30 0,16.566-13.431,30-30,30z"/>
</svg>
