<svg width="96" xmlns="http://www.w3.org/2000/svg" height="96" viewBox="0 0 96 96" xmlns:xlink="http://www.w3.org/1999/xlink">
<path d="m84.162,55.713c0,20.799-16.86,37.662-37.662,37.662-20.799,0-37.662-16.863-37.662-37.662 0-20.166 15.858-36.576 35.781-37.563v-6.498h-2.823c-1.665,0-3.015-1.35-3.015-3.015s1.35-3.012 3.015-3.012h9.036c1.665,0 3.015,1.347 3.015,3.012s-1.35,3.015-3.015,3.015h-3.198v6.459c20.271,.6 36.528,17.187 36.528,37.602zm-39.543-25.986v-6.873c-9.327,.528-17.598,4.92-23.298,11.574l4.959,4.959-2.13,2.133-4.695-4.698c-3.822,5.394-6.096,11.961-6.096,19.077 0,.318 .045,.753 .045,.753h7.296v3.015h-7.08c.732,6.156 3.171,11.961 6.804,16.602l3.729-3.729 2.13,2.13-3.888,3.891c5.637,5.988 13.464,9.891 22.224,10.386v-8.187h3.012v8.226c8.967-.306 17.01-4.179 22.797-10.23l-4.272-4.272 2.13-2.13 4.131,4.128c3.72-4.68 6.222-10.563 6.966-16.812h-7.65v-3.015h7.863c.009-.312 .048-.435 .048-.753 0-7.314-2.4-14.043-6.414-19.515l-4.944,4.944-2.13-2.13 5.178-5.175c-5.841-6.609-14.259-10.893-23.7-11.211v6.912h-3.015zm3.198,26.928h10.548c.831,0 1.506,.678 1.506,1.506 0,.831-.675,1.509-1.506,1.509h-12.054c-.831,0-1.506-.678-1.506-1.509v-20.901c0-.831 .675-1.506 1.506-1.506s1.506,.675 1.506,1.506v19.395z"/>
</svg>
