<svg width="96" xmlns="http://www.w3.org/2000/svg" height="96" viewBox="0 0 96 96" xmlns:xlink="http://www.w3.org/1999/xlink">
<path d="M86.571 54c-2.4 16.95-15.681 30.375-32.571 32.991v3.009h-12v-3.009c-16.89-2.613-30.171-16.041-32.574-32.991h-3.426v-12h3.564c2.772-16.479 15.879-29.43 32.436-31.992v-4.008h12v4.008c16.56 2.562 29.661 15.513 32.436 31.992h3.564v12h-3.429zM45 87h6v-6h-6v6zM9 45v6h6v-6h-6zM51 9h-6v6h6v-6zM54 14.556v3.444h-12v-3.444c-14.070 2.472-25.203 13.449-27.876 27.444h3.876v12h-4.038c2.325 14.466 13.635 25.914 28.038 28.443v-4.443h12v4.443c14.403-2.532 25.713-13.977 28.038-28.443h-4.038v-12h3.876c-2.676-13.995-13.806-24.972-27.876-27.444zM87 45h-6v6h6v-6z"/>
</svg>
