<svg width="96" xmlns="http://www.w3.org/2000/svg" height="96" viewBox="0 0 96 96" xmlns:xlink="http://www.w3.org/1999/xlink">
<path d="m23.709,21.069c0,1.65 0,5.979 0,5.979h42.042c0,0 0-4.329 0-5.979 0-1.653-1.335-2.991-2.988-2.991h-8.97c0,0 .102-3.414 .102-8.646 0-4.857-4.212-9.294-9.258-9.294s-8.934,4.218-8.934,9.267c0,4.857-.036,8.673-.036,8.673h-8.967c-1.653,0-2.991,1.338-2.991,2.991zm20.928-11.958c1.65,0 2.991,1.338 2.991,2.988 0,1.653-1.341,2.991-2.991,2.991s-2.991-1.338-2.991-2.991c0-1.65 1.341-2.988 2.991-2.988zm27.096,8.967v29.703c0,0 2.58-2.847 5.976-4.212v-28.479c0-3.303-2.865-5.979-6.165-5.979h-14.763v5.979h11.958c1.653,0 2.994,1.338 2.994,2.988zm-33.264,71.94h-17.751c-1.65,0-2.988-1.335-2.988-2.988v-68.952c0-1.65 1.338-2.988 2.988-2.988h12.147v-5.979h-15.135c-3.303,0-5.979,2.679-5.979,5.979v74.928c0,3.303 2.676,5.982 5.979,5.982h27.243c-1.17-1.974-3.261-4.254-6.504-5.982zm33.264-2.988c0,1.653-1.341,2.988-2.991,2.988h-8.187c-1.506,2.016-2.925,4.02-4.23,5.982h15.222c3.3,0 6.165-2.679 6.165-5.982v-18.387c-1.98,1.629-3.984,3.468-5.976,5.49v9.909zm12.513-24.252c-3.369-7.488-1.44-13.569-.96-20.589-19.737,9.825-32.253,39.309-32.253,39.309l-7.701-14.508-15.885,9.357c6.741,2.337 16.368,9.825 24.552,19.653 5.772-10.296 23.583-31.347 32.247-33.222z"/>
</svg>
