<svg width="96" xmlns="http://www.w3.org/2000/svg" height="96" viewBox="0 0 96 96" xmlns:xlink="http://www.w3.org/1999/xlink">
<path d="m78,96h-60c-3.315,0-6-2.682-6-5.988v-75.042c0-3.309 2.685-5.988 6-5.988h18v5.988h-15c-1.656,0-3,1.338-3,2.994v69.054c0,1.653 1.344,2.994 3,2.994h54c1.659,0 3-1.341 3-2.994v-69.054c0-1.656-1.341-2.994-3-2.994h-15v-5.988h18c3.312,0 6,2.682 6,5.988v75.042c0,3.306-2.688,5.988-6,5.988zm-3-78.036v69.054h-54v-69.054h3v12.165h48v-12.165h3zm-42,21.147h-3v2.994h3v-2.994zm0,5.988h-3v2.994h3v-2.994zm0,5.988h-3v2.994h3v-2.994zm0,5.988h-3v2.994h3v-2.994zm0,5.988h-3v2.994h3v-2.994zm0,5.991h-3v2.994h3v-2.994zm0,5.988h-3v2.994h3v-2.994zm33-35.931h-30v2.994h30v-2.994zm0,5.988h-30v2.994h30v-2.994zm0,5.988h-30v2.994h30v-2.994zm0,5.988h-30v2.994h30v-2.994zm0,5.988h-30v2.994h30v-2.994zm0,5.991h-30v2.994h30v-2.994zm0,5.988h-30v2.994h30v-2.994zm0-57.078c1.659,0 3,1.338 3,2.994 0,1.653 0,5.988 0,5.988h-42c0,0 0-4.335 0-5.988 0-1.656 1.341-2.994 3-2.994h9c0,0 .036-3.822 .036-8.688 0-5.052 3.9-9.276 8.964-9.276s9.099,4.44 9.099,9.309c0,5.238-.099,8.655-.099,8.655h9zm-18-8.982c-1.659,0-3,1.338-3,2.994 0,1.653 1.341,2.994 3,2.994s3-1.341 3-2.994c0-1.656-1.341-2.994-3-2.994z"/>
</svg>
