<svg width="96" xmlns="http://www.w3.org/2000/svg" height="96" viewBox="0 0 96 96" xmlns:xlink="http://www.w3.org/1999/xlink">
<path d="m72,96.123h-54c-3.315,0-6-2.679-6-5.988v-72.291c0-3.306 2.685-5.985 6-5.985h15v6.237h-12c-1.656,0-3,1.338-3,2.994v66.051c0,1.659 1.344,2.994 3,2.994h48c1.659,0 3-1.335 3-2.994v-66.051c0-1.656-1.341-2.994-3-2.994h-12v-6.237h15c3.312,0 6,2.682 6,5.985v72.291c0,3.309-2.688,5.988-6,5.988zm-39-60.066h33v2.994h-33v-2.994zm0,8.982h33v2.994h-33v-2.994zm0,8.985h33v2.994h-33v-2.994zm0,8.982h33v2.994h-33v-2.994zm33,20.952h-33v-2.988h33v2.988zm-33-11.97h33v2.994h-33v-2.994zm-9-35.991h3v2.994h-3v-2.994zm0,8.982h3v2.994h-3v-2.994zm0,8.979h3v2.994h-3v-2.994zm0,8.982h3v2.994h-3v-2.994zm3,20.961h-3v-2.994h3v2.994zm-3-11.976h3v2.994h-3v-2.994zm39-50.652c1.659,0 3,1.341 3,2.997 0,1.653 0,5.799 0,5.799h-42c0,0 0-4.146 0-5.799 0-1.656 1.341-2.997 3-2.997h9c0,0 .036-4.257 .036-9.123 0-5.052 3.9-9.276 8.964-9.276s9.099,4.44 9.099,9.306c0,5.241-.099,9.093-.099,9.093h9zm-18-9.414c-1.659,0-3,1.338-3,2.991 0,1.656 1.341,2.994 3,2.994s3-1.338 3-2.994c0-1.653-1.341-2.991-3-2.991z"/>
</svg>
