<svg width="106" xmlns="http://www.w3.org/2000/svg" height="96" viewBox="0 0 106 96" xmlns:xlink="http://www.w3.org/1999/xlink">
<path d="m63.762,51.093c0,0 1.437-19.332-16.281-21.537-15.186-1.551-19.806,12.561-19.806,12.561s-4.572-4.398-10.776-.807c-5.553,3.429-4.569,9.702-4.569,9.702s-12.33,2.397-12.33,14.97c.339,12.768 13.311,12.45 13.311,12.45l48.519,.129c0,0 11.613,.135 13.728-11.829 .819-13.059-11.796-15.639-11.796-15.639zm30-11.997c0,0 1.437-19.332-16.278-21.54-15.186-1.551-19.992,12.747-19.992,12.747s8.847,5.133 9.222,19.008c5.625,1.689 11.619,6.33 11.808,17.205l13.308,.048c0,0 11.613,.135 13.728-11.829 .819-13.065-11.796-15.639-11.796-15.639z"/>
</svg>
