<svg width="113" xmlns="http://www.w3.org/2000/svg" height="96" viewBox="0 0 113 96" xmlns:xlink="http://www.w3.org/1999/xlink">
<path d="m63.762,53.31c0,0 1.437-19.332-16.278-21.54-15.186-1.551-19.806,12.561-19.806,12.561s-4.572-4.398-10.776-.807c-5.553,3.429-4.569,9.702-4.569,9.702s-12.333,2.397-12.333,14.967c.342,12.771 13.314,12.453 13.314,12.453l48.519,.126c0,0 11.613,.138 13.728-11.829 .816-13.059-11.799-15.633-11.799-15.633zm33.399,1.752c0-12.429-10.071-22.5-22.5-22.5-2.103,0-6.573,.684-10.983,2.967 0,.006-2.757,1.881-2.757,1.881s4.365,3.963 4.74,14.463c0,.186 11.562,3.153 11.562,15.153 0,8.25-4.38,10.518-4.38,10.518l1.818,.018c0,0 22.5-4.686 22.5-22.5zm-22.5-38.25l-6.327,12.657h12.657l-6.33-12.657zm27.033,11.121l-13.425,4.473 8.949,8.949 4.476-13.422zm-1.533,33.549l12.657-6.327-12.657-6.327v12.654zm-11.889,16.233l13.425,4.473-4.473-13.425-8.952,8.952z"/>
</svg>
