<svg width="96" xmlns="http://www.w3.org/2000/svg" height="96" viewBox="0 0 96 96" xmlns:xlink="http://www.w3.org/1999/xlink">
<path d="m89.952,46.644c-1.134-10.917-12.189-10.854-17.931-10.659 .027-1.659 .045-2.997 .045-2.997l-66.081-.021c0,0 0,9.042 0,9.267 0,12.843 7.335,23.952 18.033,29.427v3.204h30.057v-3.204c3-1.536 5.691-3.552 8.073-5.883 14.745-3.528 30.21-8.619 27.804-19.134zm-23.202,13.554c3.369-5.175 5.358-11.325 5.358-17.964 0,.051 .003-.087 .006-.348 5.355-.177 11.265-.711 12.603,4.62 1.344,5.865-8.451,10.641-17.967,13.692zm-40.26-39.228c0,3-4.92,6.195-4.92,6.195s9.642-1.722 9.642-6.222-9.561-1.5-9.561-4.875 4.731-6.57 4.731-6.57-9.075,1.911-9.075,6.597 9.183,1.875 9.183,4.875zm15,3c0,3-4.92,6.195-4.92,6.195s9.642-1.722 9.642-6.222-9.561-1.5-9.561-4.875 4.731-6.57 4.731-6.57-9.078,1.911-9.078,6.597 9.186,1.875 9.186,4.875zm12-3c0,3-4.92,6.195-4.92,6.195s9.642-1.722 9.642-6.222-9.561-1.5-9.561-4.875 4.731-6.57 4.731-6.57-9.078,1.911-9.078,6.597 9.186,1.875 9.186,4.875zm-47.691,56.814c0,4.143 14.775,7.5 33,7.5s33-3.357 33-7.5c0,.087-66,.087-66,0z"/>
</svg>
