<svg width="96" xmlns="http://www.w3.org/2000/svg" height="96" viewBox="0 0 96 96" xmlns:xlink="http://www.w3.org/1999/xlink">
<path d="m77.985,57.204h-3.972c-.645,2.337-1.569,4.554-2.754,6.609l3.672,3.669c2.349,2.349 2.349,6.159 0,8.508l-2.127,2.127c-2.349,2.349-6.159,2.349-8.508,0l-3.696-3.693c-2.049,1.167-4.257,2.076-6.582,2.709v3.852c0,3.321-2.691,6.015-6.015,6.015h-3.006c-3.321,0-6.018-2.691-6.018-6.015v-3.852c-2.322-.633-4.533-1.545-6.582-2.709l-3.693,3.693c-2.346,2.349-6.156,2.349-8.505,0l-2.13-2.127c-2.349-2.349-2.349-6.159 0-8.508l3.672-3.669c-1.185-2.058-2.109-4.272-2.757-6.609h-3.969c-3.324,0-6.015-2.691-6.015-6.012v-3.009c0-3.321 2.691-6.015 6.015-6.015h3.924c.621-2.313 1.509-4.515 2.661-6.558l-3.531-3.528c-2.349-2.349-2.349-6.159 0-8.508l2.127-2.124c2.349-2.349 6.159-2.349 8.505,0l3.459,3.459c2.118-1.233 4.404-2.193 6.816-2.85v-4.044c.003-3.324 2.7-6.015 6.021-6.015h3.006c3.321,0 6.015,2.691 6.015,6.015v4.041c2.418,.66 4.701,1.62 6.816,2.853l3.459-3.459c2.349-2.349 6.159-2.349 8.508,0l2.127,2.124c2.349,2.349 2.349,6.159 0,8.508l-3.528,3.528c1.152,2.043 2.04,4.245 2.664,6.561h3.924c3.321,0 6.015,2.694 6.015,6.015v3.009c-.003,3.318-2.694,6.009-6.018,6.009zm-31.485-23.964c-9.135,0-16.542,7.407-16.542,16.542s7.407,16.542 16.542,16.542 16.542-7.407 16.542-16.542-7.407-16.542-16.542-16.542zm0,23.871c-4.152,0-7.521-3.363-7.521-7.518 0-4.152 3.369-7.518 7.521-7.518s7.518,3.366 7.518,7.518c0,4.155-3.366,7.518-7.518,7.518z"/>
</svg>
