<svg width="96" xmlns="http://www.w3.org/2000/svg" height="96" viewBox="0 0 96 96" xmlns:xlink="http://www.w3.org/1999/xlink">
<path d="m79.719,43.5h5.781v9h-5.781c-.393,2.868-1.122,5.628-2.202,8.211l5.007,2.892-4.5,7.794-5.094-2.94c-1.749,2.208-3.78,4.176-6.033,5.874l3,5.193-7.794,4.5-3.063-5.301c-2.547,.993-5.235,1.686-8.043,2.019v6.258h-9v-6.429c-2.736-.423-5.373-1.143-7.842-2.193l-3.261,5.646-7.794-4.5 3.339-5.784c-2.091-1.677-3.957-3.609-5.586-5.739l-5.883,3.396-4.5-7.794 5.937-3.429c-.963-2.433-1.638-5.004-2.004-7.677h-6.903v-9h6.906c.366-2.676 1.041-5.247 2.004-7.677l-5.937-3.429 4.5-7.794 5.883,3.396c1.629-2.13 3.495-4.062 5.586-5.742l-3.339-5.775 7.794-4.5 3.261,5.646c2.469-1.05 5.106-1.773 7.842-2.193v-6.429h9v6.255c2.808,.333 5.496,1.026 8.043,2.019l3.063-5.301 7.794,4.5-3,5.196c2.253,1.698 4.284,3.666 6.033,5.874l5.094-2.94 4.5,7.794-5.007,2.892c1.077,2.583 1.806,5.343 2.199,8.211zm-33.246-15.027c-10.77,0-19.5,8.73-19.5,19.5s8.73,19.5 19.5,19.5 19.5-8.73 19.5-19.5-8.73-19.5-19.5-19.5zm.027,27.027c-4.143,0-7.5-3.357-7.5-7.5s3.357-7.5 7.5-7.5 7.5,3.357 7.5,7.5-3.357,7.5-7.5,7.5z"/>
</svg>
