<svg width="96" xmlns="http://www.w3.org/2000/svg" height="96" viewBox="0 0 96 96" xmlns:xlink="http://www.w3.org/1999/xlink">
<path d="m63.804,66.117l2.127-2.127c2.349-2.349 2.349-6.159 0-8.508l-3.672-3.669c1.182-2.058 2.109-4.272 2.754-6.609h3.972c3.321,0 6.015-2.694 6.015-6.015v-3.006c0-3.321-2.691-6.015-6.015-6.015h-3.924c-.624-2.313-1.509-4.515-2.661-6.558l3.531-3.528c2.349-2.349 2.349-6.159 0-8.508l-2.127-2.124c-2.349-2.349-6.159-2.349-8.508,0l-3.459,3.459c-2.115-1.233-4.401-2.193-6.816-2.853v-4.041c-.003-3.324-2.697-6.015-6.018-6.015h-3.006c-3.321,0-6.018,2.691-6.018,6.015v4.041c-2.415,.66-4.698,1.62-6.816,2.853l-3.462-3.462c-2.346-2.349-6.156-2.349-8.505,0l-2.127,2.124c-2.349,2.349-2.349,6.159 0,8.508l3.528,3.531c-1.149,2.043-2.04,4.245-2.661,6.561h-3.921c-3.324-.003-6.015,2.691-6.015,6.015v3.006c0,3.321 2.691,6.015 6.015,6.015h3.969c.648,2.337 1.572,4.551 2.757,6.609l-3.672,3.669c-2.349,2.349-2.349,6.159 0,8.508l2.127,2.127c2.349,2.349 6.159,2.349 8.505,0l3.693-3.693c2.052,1.167 4.257,2.076 6.582,2.709v3.852c0,3.318 2.694,6.015 6.018,6.015h3.006c3.321,0 6.015-2.694 6.015-6.015v-3.852c2.325-.633 4.536-1.545 6.582-2.709l3.693,3.693c2.355,2.346 6.162,2.346 8.514-.003zm-26.304-11.796c-9.135,0-16.542-7.404-16.542-16.542 0-9.135 7.407-16.542 16.542-16.542s16.542,7.407 16.542,16.542c0,9.138-7.407,16.542-16.542,16.542zm0-24.246c-4.155,0-7.521,3.366-7.521,7.518s3.366,7.518 7.521,7.518c4.152,0 7.518-3.366 7.518-7.518s-3.366-7.518-7.518-7.518zm37.686,56.511c-2.016,0-3.648,1.632-3.648,3.648 0,2.013 1.632,3.645 3.648,3.645 2.013,0 3.648-1.632 3.648-3.645 0-2.016-1.635-3.648-3.648-3.648zm15.27,.045h-1.902c-.303-1.122-.735-2.19-1.293-3.183l1.71-1.71c1.14-1.14 1.14-2.988 0-4.125l-1.032-1.032c-1.14-1.14-2.985-1.14-4.125,0l-1.68,1.677c-1.026-.597-2.136-1.062-3.306-1.383v-1.956c0-1.611-1.308-2.919-2.919-2.919h-1.458c-1.611,0-2.919,1.308-2.919,2.919v1.956c-1.173,.321-2.28,.786-3.306,1.383l-1.68-1.677c-1.14-1.14-2.988-1.14-4.125,0l-1.032,1.032c-1.14,1.137-1.14,2.985 0,4.125l1.71,1.71c-.561,.99-.99,2.061-1.293,3.183h-1.902c-1.611,0-2.919,1.308-2.919,2.919v1.458c0,1.611 1.308,2.919 2.919,2.919h1.926c.312,1.131 .762,2.205 1.335,3.204l-1.779,1.779c-1.14,1.14-1.14,2.985 0,4.128l1.032,1.032c1.137,1.137 2.985,1.137 4.125,0l1.791-1.794c.996,.564 2.064,1.008 3.192,1.314v1.869c0,1.611 1.308,2.919 2.919,2.919h1.458c1.611,0 2.919-1.308 2.919-2.919v-1.869c1.128-.306 2.196-.747 3.189-1.314l1.794,1.794c1.14,1.137 2.985,1.137 4.125,0l1.032-1.032c1.14-1.143 1.14-2.988 0-4.128l-1.779-1.779c.57-.999 1.023-2.073 1.335-3.204h1.926c1.611,0 2.919-1.308 2.919-2.919v-1.458c.012-1.614-1.296-2.919-2.907-2.919zm-15.27,11.715c-4.431,0-8.022-3.591-8.022-8.025 0-4.431 3.591-8.022 8.022-8.022s8.022,3.591 8.022,8.022c0,4.434-3.591,8.025-8.022,8.025z"/>
</svg>
