<svg width="96" xmlns="http://www.w3.org/2000/svg" height="96" viewBox="0 0 96 96" xmlns:xlink="http://www.w3.org/1999/xlink">
<path d="m34.479,26.271l-10.362-10.359-7.995,7.995 10.362,10.359-7.77,7.77 23.391,.012-.051-23.352-7.575,7.575zm35.037,7.995l10.362-10.359-7.995-7.995-10.362,10.359-7.575-7.575-.051,23.352 23.391-.012-7.77-7.77zm-43.032,27.468l-10.362,10.359 7.995,7.995 10.362-10.359 7.578,7.575 .051-23.352-23.391,.012 7.767,7.77zm50.802-7.77l-23.391-.012 .051,23.352 7.575-7.575 10.362,10.359 7.995-7.995-10.362-10.359 7.77-7.77z"/>
</svg>
