<svg width="103" xmlns="http://www.w3.org/2000/svg" height="96" viewBox="0 0 103 96" xmlns:xlink="http://www.w3.org/1999/xlink">
<path d="m75.396,39.495c0-15.495-16.881-28.056-37.698-28.056-20.82,0-37.698,12.561-37.698,28.056 0,9.312 6.096,17.562 15.48,22.665-.027,.081-7.476,13.635-7.476,13.635s22.746-8.676 22.809-8.712c2.232,.309 4.533,.465 6.885,.465 20.817,0 37.698-12.561 37.698-28.053zm27.759,8.766c0-15.492-15.891-27.942-33.093-28.053 24.66,24.564-4.383,50.736-28.053,50.736 0,0 2.631,5.37 23.448,5.37 2.349,0 4.653-.162 6.885-.468 .063,.042 22.812,8.712 22.812,8.712s-7.452-13.551-7.476-13.632c9.381-5.103 15.477-13.356 15.477-22.665z"/>
</svg>
