<svg width="96" xmlns="http://www.w3.org/2000/svg" height="96" viewBox="0 0 96 96" xmlns:xlink="http://www.w3.org/1999/xlink">
<path d="m87,55.5c0,21.54-17.46,39-39,39s-39-17.46-39-39c0-18.99 13.575-34.791 31.545-38.271-.975-1.437-1.545-3.171-1.545-5.043 0-4.971 4.029-9 9-9 4.968,0 9,4.029 9,9 0,1.869-.57,3.603-1.548,5.043 17.973,3.48 31.548,19.281 31.548,38.271zm-39-48c-2.487,0-4.5,2.016-4.5,4.5s2.013,4.5 4.5,4.5c2.484,0 4.5-2.016 4.5-4.5s-2.016-4.5-4.5-4.5zm3,15.15v7.35h-6v-7.35c-16.263,1.467-29.085,15.102-29.922,31.539h8.922v5.811h-8.688c1.989,15.201 14.301,26.958 29.688,28.347v-7.347h6v7.347c15.321-1.383 27.591-13.236 29.658-28.347h-8.658v-6h8.928c-.744-16.524-13.608-29.877-29.928-31.35zm-22.461,52.836l11.754-26.604 26.43-11.577-11.535,26.382-26.649,11.799zm23.421-23.424c-2.343-2.343-6.144-2.343-8.487,0s-2.343,6.141 0,8.484 6.144,2.343 8.487,0c2.343-2.343 2.343-6.138 0-8.484z"/>
</svg>
