<svg width="96" xmlns="http://www.w3.org/2000/svg" height="96" viewBox="0 0 96 96" xmlns:xlink="http://www.w3.org/1999/xlink">
<path d="m80.751,55.554l-40.305-40.305c-1.758-1.758-1.758-4.608 0-6.363 1.758-1.758 4.605-1.758 6.363,0l9.546,9.546 11.67-11.667c1.758-1.758 4.605-1.758 6.363,0 1.758,1.755 1.758,4.605 0,6.363l-11.667,11.667 8.484,8.484 11.667-11.667c1.758-1.758 4.608-1.758 6.366,0 1.755,1.758 1.755,4.605 0,6.363l-11.67,11.67 9.549,9.546c1.755,1.758 1.755,4.605 0,6.363-1.758,1.758-4.608,1.758-6.366,0zm-18.03,15.909c-3.891,3.888-21.213,4.242-21.213,4.242l-21.213-21.213c0,0 .354-17.322 4.242-21.213 3.891-3.888 14.85-14.847 14.85-14.847l38.184,38.184c-.003-.003-10.962,10.956-14.85,14.847zm-42.426-12.729l16.971,16.971c1.173,1.173 1.173,3.069 0,4.242s-3.072,1.173-4.245,0l-16.968-16.971c-1.173-1.173-1.173-3.069 0-4.242s3.069-1.17 4.242,0zm8.484,21.213c0,0-1.425,1.428-3.183,3.183-1.758,1.758-4.605,1.758-6.363,0l-1.062-1.062-8.487,8.484-4.242-4.242 8.487-8.484-1.059-1.059c-1.758-1.758-1.758-4.608 0-6.366s3.357-3.003 3.357-3.003l12.552,12.549z"/>
</svg>
