<svg width="96" xmlns="http://www.w3.org/2000/svg" height="96" viewBox="0 0 96 96" xmlns:xlink="http://www.w3.org/1999/xlink">
<path d="M48 20.88l5.619 9.12h-11.235l5.616-9.12zM74.397 63.792h-11.175l5.559-9.054 5.616 9.054zM21.606 63.792l5.616-9.054 5.559 9.054h-11.175zM35.982 69l12.018 19.5 12.021-19.5h23.979l-12.018-19.47 12.018-19.53h-23.979l-12.021-19.5-12.018 19.5h-23.982l12.021 19.53-12.021 19.47h23.982zM74.397 35.208l-5.616 9.105-5.559-9.105h11.175zM48 78.117l-5.616-9.117h11.235l-5.619 9.117zM30.423 49.53l8.76-14.322h17.637l8.763 14.322-8.817 14.262h-17.58l-8.763-14.262zM21.606 35.208h11.175l-5.559 9.105-5.616-9.105z"/>
</svg>
