<svg width="96" xmlns="http://www.w3.org/2000/svg" height="96" viewBox="0 0 96 96" xmlns:xlink="http://www.w3.org/1999/xlink">
<path d="m93.186,48c0,6.375-3.681,11.781-9.15,13.926v6.99c0,1.65-1.338,2.988-2.985,2.988h-69.099c-1.653,0-2.988-1.338-2.988-2.988v-6.99c-5.472-2.145-9.15-7.551-9.15-13.926s3.681-11.781 9.153-13.926v-6.99c0-1.653 1.335-2.988 2.988-2.988h69.099c1.647,0 2.985,1.335 2.985,2.988v6.99c5.469,2.145 9.147,7.551 9.147,13.926zm-57.33,0h-11.952v2.988h11.952v-2.988zm14.19-10.188c-.843-.927-2.001-1.389-3.471-1.389-1.461,0-2.613,.462-3.453,1.389-.843,.924-1.266,2.346-1.266,4.266 0,1.929 .423,3.354 1.266,4.281 .84,.924 1.443,1.386 2.937,1.386 1.44,0 3.147-.462 3.99-1.386 .84-.927 1.263-2.352 1.263-4.281-.003-1.92-.426-3.345-1.266-4.266zm10.164-1.857l-15.33,24.066h3.036l15.255-24.066h-2.961zm4.773,13.806c-.84-.924-2.001-1.386-3.471-1.386-1.458,0-2.613,.462-3.456,1.386-.84,.927-1.26,2.346-1.26,4.266 0,1.929 .42,3.357 1.26,4.281 .843,.927 2.01,1.389 3.504,1.389 1.44,0 2.583-.462 3.426-1.389 .84-.924 1.263-2.352 1.263-4.281-.003-1.92-.426-3.339-1.266-4.266zm-3.498,7.623c-.432,0-.768-.183-1.011-.543-.321-.471-.483-1.407-.483-2.808s.162-2.34 .483-2.82c.234-.351 .57-.531 1.011-.531s.783,.18 1.026,.531c.312,.48 .468,1.422 .468,2.82s-.162,2.34-.483,2.82c-.234,.354-.57,.531-1.011,.531zm-14.937-11.949c-.432,0-.768-.183-1.011-.546-.321-.471-.483-1.407-.483-2.808s.162-2.34 .483-2.82c.234-.351 .57-.528 1.011-.528s.78,.177 1.026,.528c.312,.48 .468,1.422 .468,2.82s-.162,2.34-.483,2.82c-.237,.354-.573,.534-1.011,.534z"/>
</svg>
