<svg width="96" xmlns="http://www.w3.org/2000/svg" height="96" viewBox="0 0 96 96" xmlns:xlink="http://www.w3.org/1999/xlink">
<path d="m0,75v-54h96v54h-96zm6-48.186v42.186h84v-42.186h-84zm57,21.186c0-9.939-6.714-18-15-18h39v36h-39c8.286,0 15-8.061 15-18zm12,6c2.484,0 4.5-2.688 4.5-6s-2.016-6-4.5-6-4.5,2.688-4.5,6 2.016,6 4.5,6zm-20.646-13.566c-.045,.165-.108,.282-.186,.357-.081,.075-.189,.111-.327,.111s-.354-.084-.657-.258c-.3-.177-.669-.363-1.104-.567-.438-.204-.942-.39-1.518-.561-.576-.168-1.206-.249-1.893-.249-.54,0-1.008,.063-1.407,.195-.399,.129-.735,.312-1.002,.54-.27,.231-.468,.51-.6,.831-.129,.321-.195,.666-.195,1.026 0,.54 .147,1.005 .441,1.398 .294,.393 .687,.744 1.182,1.05 .495,.309 1.053,.594 1.68,.861 .621,.27 1.26,.555 1.911,.852 .651,.303 1.287,.642 1.911,1.023 .627,.381 1.185,.837 1.671,1.368s.879,1.155 1.182,1.872c.3,.72 .447,1.563 .447,2.541 0,1.275-.234,2.391-.708,3.354-.477,.96-1.119,1.764-1.935,2.406-.813,.645-1.761,1.128-2.847,1.452-.138,.042-.288,.06-.429,.093v3.276h-2.949v-2.889c-.039,0-.072,.006-.108,.006-.837,0-1.617-.066-2.334-.201-.72-.138-1.353-.303-1.902-.492-.552-.192-1.008-.393-1.377-.603-.369-.21-.633-.396-.795-.558-.162-.162-.279-.396-.348-.702-.069-.309-.105-.747-.105-1.323 0-.387 .012-.711 .039-.975s.066-.474 .123-.639 .129-.279 .225-.348c.093-.066 .201-.102 .327-.102 .174,0 .42,.102 .741,.309 .318,.207 .729,.435 1.227,.684 .501,.252 1.095,.477 1.791,.687 .693,.204 1.497,.309 2.409,.309 .6,0 1.137-.072 1.611-.216s.879-.345 1.209-.609 .582-.588 .759-.975c.177-.39 .264-.819 .264-1.299 0-.549-.153-1.02-.45-1.416-.3-.393-.69-.741-1.173-1.05-.48-.306-1.026-.591-1.638-.861-.612-.27-1.242-.555-1.893-.852-.648-.3-1.281-.639-1.893-1.023-.612-.381-1.158-.834-1.638-1.365-.48-.531-.873-1.161-1.17-1.884-.3-.723-.45-1.593-.45-2.604 0-1.164 .216-2.184 .645-3.063 .432-.879 1.011-1.611 1.743-2.19s1.593-1.014 2.586-1.302c.51-.15 1.038-.255 1.578-.327v-3.102h2.949v3.102c.117,.015 .234,.009 .351,.027 .573,.087 1.113,.204 1.611,.354 .501,.147 .942,.312 1.332,.501 .387,.186 .642,.339 .768,.465 .126,.123 .207,.228 .255,.315 .042,.087 .078,.204 .111,.348 .03,.144 .054,.324 .063,.546 .012,.216 .018,.489 .018,.813 0,.363-.009,.672-.027,.924-.027,.237-.057,.447-.102,.609zm-21.354,7.566c0,9.939 6.714,18 15,18h-39v-36h39c-8.286,0-15,8.061-15,18zm-12-6c-2.487,0-4.5,2.688-4.5,6s2.013,6 4.5,6c2.484,0 4.5-2.688 4.5-6s-2.016-6-4.5-6z"/>
</svg>
