<svg width="96" xmlns="http://www.w3.org/2000/svg" height="96" viewBox="0 0 96 96" xmlns:xlink="http://www.w3.org/1999/xlink">
<path d="m73.386,26.943h-53.907l.054-5.802h4.308l9.117-8.985h27.327l8.931,8.985h4.308l-.138,5.802zm-22.275-8.796h-8.985v2.994h8.985v-2.994zm17.46,32.943h-10.131c-2.235-4.353-6.717-7.362-11.946-7.362s-9.711,3.009-11.943,7.362h-9.954l-1.938-20.964h47.919l-2.007,20.964zm-29.439,5.988c0-4.134 3.351-7.488 7.488-7.488 4.134,0 7.485,3.354 7.485,7.488s-3.351,7.488-7.485,7.488c-4.137,0-7.488-3.354-7.488-7.488zm7.362,13.605c5.382,0 9.99-3.177 12.15-7.737h8.793l-2.286,23.898h-37.248l-2.208-23.898h8.652c2.16,4.56 6.765,7.737 12.147,7.737z"/>
</svg>
