<svg width="96" xmlns="http://www.w3.org/2000/svg" height="96" viewBox="0 0 96 96" xmlns:xlink="http://www.w3.org/1999/xlink">
<path d="m69.165,26.718c1.671,0 3.024,1.353 3.024,3.024l-5.481,60.279c0,1.671-1.353,3.024-3.024,3.024h-31.371c-1.671,0-3.024-1.353-3.024-3.024l-5.475-60.279c0-1.671 1.353-3.024 3.024-3.024h27.03l3.198-16.308 14.517-7.455-1.044,3.894-10.776,5.403-2.814,14.466h12.216zm-16.623,21.165h12.087l-3.402,39.114h-26.454l-3.402-39.114h18.087l3.777-18.141h-26.4l5.478,60.279h31.368l5.481-60.279h-12.846l-3.774,18.141z"/>
</svg>
