<svg width="96" xmlns="http://www.w3.org/2000/svg" height="96" viewBox="0 0 96 96" xmlns:xlink="http://www.w3.org/1999/xlink">
<path d="m32.043,54.621l-6.627,17.01 16.716-6.921-10.089-10.089zm48.522-36.33l-2.121-2.121c-2.34-2.343-6.141-2.343-8.484,0l-4.242,4.242 10.605,10.608 4.242-4.242c2.346-2.343 2.346-6.144 0-8.487zm-48.186,35.463l1.518-1.518 10.605,10.605 29.7-29.7-10.605-10.605 2.121-2.124-33.339,33.342zm36.633,24.258l-51.078,.018 .009-51.078 35.763-.012 5.604-5.94h-44.415c-1.656,0-3,1.341-3,3v57c0,1.659 1.344,3 3,3h57c1.659,0 3-1.341 3-3v-42.174l-6.045,5.931 .162,33.255z"/>
</svg>
