<svg width="96" xmlns="http://www.w3.org/2000/svg" height="96" viewBox="0 0 96 96" xmlns:xlink="http://www.w3.org/1999/xlink">
<path d="m48,12c-19.884,0-36,16.119-36,36s16.116,36 36,36c19.881,0 36-16.119 36-36 0-19.881-16.119-36-36-36zm0,55.686c-10.77,0-19.5-8.73-19.5-19.5s8.73-19.5 19.5-19.5 19.5,8.73 19.5,19.5-8.73,19.5-19.5,19.5zm2.499-20.394c.852-.318 1.491-.774 1.911-1.362s.63-1.281 .63-2.076c0-1.248-.456-2.307-1.371-3.174-.912-.87-2.115-1.305-3.615-1.305-1.491,0-2.685,.426-3.579,1.275-.9,.849-1.347,1.899-1.347,3.144 0,.825 .21,1.533 .639,2.127 .423,.591 1.077,1.05 1.956,1.368-1.056,.276-1.869,.789-2.439,1.542-.57,.756-.858,1.692-.858,2.811 0,1.5 .519,2.754 1.56,3.759 1.038,1.002 2.406,1.506 4.101,1.506 1.692,0 3.063-.501 4.101-1.5 1.038-1.002 1.56-2.238 1.56-3.705 0-1.062-.276-1.977-.828-2.745s-1.362-1.32-2.421-1.665zm-5.193-3.57c0-.714 .261-1.329 .786-1.842 .522-.513 1.188-.771 1.992-.771 .798,0 1.458,.261 1.986,.789 .528,.525 .792,1.173 .792,1.941 0,.738-.258,1.362-.768,1.872s-1.173,.765-1.986,.765c-.837,0-1.512-.258-2.028-.771s-.774-1.173-.774-1.983zm5.283,10.476c-.651,.651-1.479,.972-2.49,.972-.645,0-1.251-.153-1.812-.462-.564-.309-.987-.744-1.266-1.308s-.42-1.146-.42-1.746c0-.984 .321-1.806 .966-2.46s1.464-.984 2.46-.984c1.02,0 1.863,.333 2.532,.996s1.002,1.506 1.002,2.52c.003,1.002-.324,1.827-.972,2.472z"/>
</svg>
