<svg width="96" xmlns="http://www.w3.org/2000/svg" height="96" viewBox="0 0 96 96" xmlns:xlink="http://www.w3.org/1999/xlink">
<path d="m18,84h9v-27h-9v27zm36-30h-15c-1.659,0-3,1.341-3,3v9c0,1.656 1.341,3 3,3h15c1.656,0 3-1.344 3-3v-9c0-1.659-1.344-3-3-3zm-11.907,11.907h-3v-8.814h3v8.814zm5.814,0h-3v-8.814h3v8.814zm6.186,0h-3v-8.814h3v8.814zm-3.093-53.907h-9v39h9v-39zm24,0h-9v15h9v-15zm-48,0h-9v24h9v-24zm39,72h9v-36h-9v36zm-24,0h9v-12h-9v12zm-12-45h-15c-1.659,0-3,1.341-3,3v9c0,1.656 1.341,3 3,3h15c1.656,0 3-1.344 3-3v-9c0-1.659-1.344-3-3-3zm-11.907,11.907h-3v-8.814h3v8.814zm6,0h-3v-8.814h3v8.814zm6,0h-3v-8.814h3v8.814zm47.907-20.907h-15c-1.659,0-3,1.341-3,3v9c0,1.656 1.341,3 3,3h15c1.656,0 3-1.344 3-3v-9c0-1.659-1.344-3-3-3zm-11.907,11.907h-3v-8.814h3v8.814zm5.814,0h-3v-8.814h3v8.814zm6.186,0h-3v-8.814h3v8.814z"/>
</svg>
