<svg width="96" xmlns="http://www.w3.org/2000/svg" height="96" viewBox="0 0 96 96" xmlns:xlink="http://www.w3.org/1999/xlink">
<path d="m79.5,81h-9c-.828,0-1.5-.672-1.5-1.5s.672-1.5 1.5-1.5h7.5v-7.5c0-.828 .672-1.5 1.5-1.5 .825,0 1.5,.672 1.5,1.5v9c0,.828-.675,1.5-1.5,1.5zm0-18c-.828,0-1.5-.672-1.5-1.5v-9c0-.828 .672-1.5 1.5-1.5 .825,0 1.5,.672 1.5,1.5v9c0,.828-.675,1.5-1.5,1.5zm0-18c-.828,0-1.5-.672-1.5-1.5v-9c0-.828 .672-1.5 1.5-1.5 .825,0 1.5,.672 1.5,1.5v9c0,.828-.675,1.5-1.5,1.5zm0-18c-.828,0-1.5-.672-1.5-1.5v-7.5h-7.5c-.828,0-1.5-.672-1.5-1.5s.672-1.5 1.5-1.5h9c.825,0 1.5,.672 1.5,1.5v9c0,.828-.675,1.5-1.5,1.5zm-18,54h-9c-.828,0-1.5-.672-1.5-1.5s.672-1.5 1.5-1.5h9c.825,0 1.5,.672 1.5,1.5s-.675,1.5-1.5,1.5zm0-63h-9c-.828,0-1.5-.672-1.5-1.5s.672-1.5 1.5-1.5h9c.825,0 1.5,.672 1.5,1.5s-.675,1.5-1.5,1.5zm-18,0h-9c-.828,0-1.5-.672-1.5-1.5s.672-1.5 1.5-1.5h9c.825,0 1.5,.672 1.5,1.5s-.675,1.5-1.5,1.5zm-18,63h-9c-.828,0-1.5-.672-1.5-1.5v-9c0-.828 .672-1.5 1.5-1.5s1.5,.672 1.5,1.5v7.5h7.5c.828,0 1.5,.672 1.5,1.5s-.672,1.5-1.5,1.5zm0-63h-7.5v7.5c0,.828-.672,1.5-1.5,1.5s-1.5-.672-1.5-1.5v-9c0-.828 .672-1.5 1.5-1.5h9c.828,0 1.5,.672 1.5,1.5s-.672,1.5-1.5,1.5zm-9,15c.828,0 1.5,.672 1.5,1.5v9c0,.828-.672,1.5-1.5,1.5s-1.5-.672-1.5-1.5v-9c0-.828 .672-1.5 1.5-1.5zm0,18c.828,0 1.5,.672 1.5,1.5v9c0,.828-.672,1.5-1.5,1.5s-1.5-.672-1.5-1.5v-9c0-.828 .672-1.5 1.5-1.5zm45.708,8.169l-3.042,3.042c-.558,.561-1.464,.561-2.025,0l-8.61-8.61-8.61,8.61c-.561,.561-1.464,.561-2.025,0l-3.039-3.042c-.561-.561-.561-1.464 0-2.025l8.613-8.61-8.613-8.61c-.561-.558-.561-1.464 0-2.025l3.039-3.039c.561-.561 1.464-.561 2.025,0l8.61,8.61 8.61-8.61c.561-.561 1.467-.561 2.025,0l3.042,3.039c.558,.561 .558,1.467 0,2.025l-8.613,8.61 8.613,8.61c.558,.558 .558,1.464 0,2.025zm-27.708,18.831h9c.825,0 1.5,.672 1.5,1.5s-.675,1.5-1.5,1.5h-9c-.828,0-1.5-.672-1.5-1.5s.672-1.5 1.5-1.5z"/>
</svg>
