<svg width="96" xmlns="http://www.w3.org/2000/svg" height="96" viewBox="0 0 96 96" xmlns:xlink="http://www.w3.org/1999/xlink">
<path d="m41.448,17.967l-23.355,.138 .009,23.205 7.77-7.773 10.362,10.362 7.995-7.995-10.359-10.362 7.578-7.575zm-5.211,34.083l-10.362,10.365-7.77-7.776-.009,23.397 23.355-.054-7.578-7.575 10.362-10.359-7.998-7.998zm23.529-8.151l10.359-10.362 7.77,7.773 .012-23.205-23.355-.138 7.578,7.575-10.362,10.362 7.998,7.995zm10.359,18.516l-10.359-10.365-7.998,7.998 10.362,10.359-7.578,7.575 23.355,.054-.012-23.397-7.77,7.776z"/>
</svg>
