<svg width="105" xmlns="http://www.w3.org/2000/svg" height="96" viewBox="0 0 105 96" xmlns:xlink="http://www.w3.org/1999/xlink">
<path d="m51.486,13.023c-31.686,0-51.486,34.977-51.486,34.977s19.611,34.977 51.486,34.977c29.814,0 52.443-34.977 52.443-34.977s-22.443-34.977-52.443-34.977zm.282,50.73c-8.682,0-15.714-7.035-15.714-15.714s7.035-15.717 15.714-15.717 15.717,7.038 15.717,15.717-7.038,15.714-15.717,15.714zm.096-23.571c-4.32,0-7.821,3.504-7.821,7.821 0,4.32 3.501,7.821 7.821,7.821s7.821-3.501 7.821-7.821c.003-4.317-3.498-7.821-7.821-7.821z"/>
</svg>
