<svg width="96" xmlns="http://www.w3.org/2000/svg" height="96" viewBox="0 0 96 96" xmlns:xlink="http://www.w3.org/1999/xlink">
<path d="m73.656,41.436l-19.092-19.092c-1.17-1.173-1.17-3.069 0-4.242 1.173-1.173 3.072-1.173 4.245,0l2.121,2.121 9.549-9.546c4.098-4.101 10.746-4.101 14.847,0 4.101,4.098 4.101,10.749 0,14.847l-9.546,9.549 2.121,2.121c1.173,1.173 1.173,3.069 0,4.242s-3.075,1.173-4.245,0zm-44.85,40.608c-1.857,1.857-6.495-1.986-8.484,0l-5.04,5.04c-1.755,1.758-4.605,1.758-6.363,0s-1.758-4.605 0-6.363l5.04-5.04c1.989-1.986-1.857-6.627 0-8.484 1.854-1.86 40.569-40.572 40.569-40.572l14.847,14.85c0,0-38.712,38.712-40.569,40.569zm36.327-40.569l-10.605-10.608c0,0-34.473,34.473-36.327,36.33-1.857,1.857 1.857,6.627 0,8.484l-7.161,7.158c-.585,.585-.585,1.536 0,2.121s1.536,.585 2.121,0l7.161-7.161c1.857-1.857 6.627,1.857 8.484,0s36.327-36.324 36.327-36.324z"/>
</svg>
