<svg width="96" xmlns="http://www.w3.org/2000/svg" height="96" viewBox="0 0 96 96" xmlns:xlink="http://www.w3.org/1999/xlink">
<path d="m50.952,48.141h-24v2.718h24v-2.718zm0,9h-24v2.907h24v-2.907zm-14.904-45.093v9.048h-9.096v9.048h-8.859v56.814h41.907v-9.093h8.859v-8.814h9.048v-57h-41.859zm21.045,71.997h-36.093v-51.189h36.093v51.189zm8.859-8.907h-5.952v-45h-30.141v-6.141h36.093v51.141zm9.048-9h-6.141v-45.048h-29.907v-6.141h36.048v51.189zm-24.048,8.952h-24v2.907h24v-2.907zm0-9.045h-24v2.907h24v-2.907zm.045-27h-24v3h24v-3z"/>
</svg>
