<svg width="96" xmlns="http://www.w3.org/2000/svg" height="96" viewBox="0 0 96 96" xmlns:xlink="http://www.w3.org/1999/xlink">
<path d="m91.005,79.335c-.384-.663-1.614-.867-3.693-.606-3.825,.495-6.603-.753-8.334-3.753-1.311-2.268-1.65-4.548-1.017-6.84s2.508-5.562 5.622-9.816l1.947-2.712c5.784-7.989 6.969-14.937 3.558-20.85-3.471-6.018-13.5-5.511-20.709-2.418-5.832-12.027-18.12-20.34-32.379-20.34-19.884,0-36,16.119-36,36 0,19.881 16.116,36 36,36 19.881,0 36-16.119 36-36 0-4.407-.831-8.613-2.28-12.513 2.433-.873 5.343-1.506 8.088-1.608 3.606-.132 6.87,.624 8.166,2.868 2.889,5.007 1.494,10.923-4.185,17.739l-1.164,1.398c-6.642,7.971-8.229,14.952-4.773,20.946 1.398,2.418 3.621,4.143 6.675,5.181 3.054,1.035 5.637,.936 7.755-.288 1.05-.606 1.293-1.404 .723-2.388zm-71.505-23.649c-4.143,0-7.5-3.357-7.5-7.5 0-4.14 3.357-7.5 7.5-7.5s7.5,3.357 7.5,7.5c0,4.143-3.357,7.5-7.5,7.5zm16.5,16.5c-4.143,0-7.5-3.357-7.5-7.5s3.357-7.5 7.5-7.5 7.5,3.357 7.5,7.5-3.357,7.5-7.5,7.5zm-2.94-24c0-1.656 1.347-3 3.003-3s3,1.341 3,3c0,1.659-1.344,3-3,3s-3.003-1.341-3.003-3zm2.94-9c-4.143,0-7.5-3.357-7.5-7.5 0-4.14 3.357-7.5 7.5-7.5s7.5,3.357 7.5,7.5c0,4.143-3.357,7.5-7.5,7.5zm16.5,16.5c-4.143,0-7.5-3.357-7.5-7.5 0-4.14 3.357-7.5 7.5-7.5s7.5,3.357 7.5,7.5c0,4.143-3.357,7.5-7.5,7.5z"/>
</svg>
