<svg width="105" xmlns="http://www.w3.org/2000/svg" height="96" viewBox="0 0 105 96" xmlns:xlink="http://www.w3.org/1999/xlink">
<path d="m25.293,27.465h62.874c6.474,0 6.474-6.714 .252-6.714h-43.458c-2.49,0-3.732-3.732-3.732-3.732s-1.743-5.475-5.229-5.475h-32.367c-4.728,0-3.486,5.475-3.486,5.475s7.221,61.41 7.719,65.145 4.359,4.836 4.359,4.836l8.463-54.309c.624-3.981 3.36-5.1 4.605-5.226zm75.681,2.361h-73.689c-2.199,0-3.984,1.782-3.984,3.981l-7.716,49.2c0,2.202 1.785,3.984 3.984,3.984h73.689c2.196,0 3.984-1.782 3.984-3.984l7.716-49.2c0-2.199-1.779-3.981-3.984-3.981z"/>
</svg>
