<svg width="98" xmlns="http://www.w3.org/2000/svg" height="96" viewBox="0 0 98 96" xmlns:xlink="http://www.w3.org/1999/xlink">
<path d="m66.909,79.179c-25.107,14.496-53.52,12.291-63.462-4.929-9.939-17.22 2.355-42.933 27.465-57.429 25.11-14.496 53.52-12.294 63.465,4.929 9.942,17.217-2.355,42.93-27.468,57.429zm-59.379-27.483c-2.349,7.068-2.193,13.986 1.095,19.686 3.291,5.697 9.201,9.291 16.5,10.788l-17.595-30.474zm53.847-38.283c-8.7,.57-18.297,3.438-27.483,8.739-9.345,5.4-16.731,12.426-21.573,19.818l23.625,40.92c8.823-.498 18.6-3.378 27.951-8.775 9.183-5.304 16.464-12.183 21.312-19.434l-23.832-41.268zm28.794,31.416c2.442-7.161 2.325-14.178-1.002-19.947-3.333-5.772-9.351-9.378-16.776-10.842l17.778,30.789zm-38.556,11.604l-2.433,1.407-2.91-5.034-.012,.006-2.748,1.587 2.907,5.034-2.436,1.407-2.907-5.034-.012,.006-2.748,1.587 2.907,5.034-2.436,1.407-2.907-5.037-.012,.009-5.196,3-1.5-2.598 5.208-3.009-3.036-5.259 2.436-1.407 3.039,5.259 2.76-1.593-3.039-5.265 2.436-1.404 3.039,5.259 2.76-1.593-3.036-5.262 2.436-1.404 3.039,5.259 2.76-1.593-3.036-5.262 2.436-1.404 3.036,5.259 2.76-1.593-3.036-5.259 2.433-1.407 3.042,5.259 2.76-1.593-3.042-5.262 2.436-1.404 3.036,5.259 5.427-3.129 1.5,2.598-5.427,3.132 2.907,5.034-2.433,1.407-2.907-5.034-2.76,1.593 2.907,5.034-2.436,1.407-2.907-5.034-.012,.006-2.748,1.587 2.907,5.034-2.436,1.407-2.907-5.034-.012,.006-2.748,1.587 2.901,5.037z"/>
</svg>
