<svg width="99" xmlns="http://www.w3.org/2000/svg" height="96" viewBox="0 0 99 96" xmlns:xlink="http://www.w3.org/1999/xlink">
<path d="m69.042,13.377c-4.248,0-12.498,6-19.5,6-6.999,0-15.75-6-19.5-6-25.749,0-40.5,69.246-21.249,69.246 16.251,0 18.438-20.25 40.686-20.25 18,0 28.563,20.004 40.563,20.004 19.248,0 4.752-69-21-69zm-40.503,39c-7.455,0-13.5-6.048-13.5-13.5 0-7.455 6.045-13.5 13.5-13.5s13.5,6.045 13.5,13.5c0,7.452-6.042,13.5-13.5,13.5zm35.814-7.5c-1.659,0-3-1.341-3-3s1.341-3 3-3 3,1.341 3,3-1.341,3-3,3zm9.189,9c-1.659,0-3-1.341-3-3s1.341-3 3-3 3,1.341 3,3-1.344,3-3,3zm0-18c-1.659,0-3-1.341-3-3s1.341-3 3-3 3,1.341 3,3-1.344,3-3,3zm9,9c-1.659,0-3-1.341-3-3s1.341-3 3-3 3,1.341 3,3-1.344,3-3,3zm-54.003-13.5c-4.14,0-7.5,3.357-7.5,7.5s3.36,7.5 7.5,7.5c4.143,0 7.5-3.357 7.5-7.5s-3.357-7.5-7.5-7.5z"/>
</svg>
