<svg width="96" xmlns="http://www.w3.org/2000/svg" height="96" viewBox="0 0 96 96" xmlns:xlink="http://www.w3.org/1999/xlink">
<path d="m46.5,6c-24.024,0-43.5,19.476-43.5,43.5s19.476,43.5 43.5,43.5 43.5-19.476 43.5-43.5-19.476-43.5-43.5-43.5zm-14.244,5.562c-2.142,3.867-4.677,9.885-6.339,18.393h-14.949c4.653-8.397 12.186-14.979 21.288-18.393zm-22.794,21.399h15.948c-.702,4.404-1.173,9.384-1.245,15.036h-18.18c.201-5.343 1.404-10.422 3.477-15.036zm-3.498,18.042h18.216c.069,5.679 .564,10.623 1.266,15.036h-15.87c-2.082-4.629-3.414-9.672-3.612-15.036zm5.046,18.042h14.931c1.677,8.592 4.248,14.601 6.402,18.426-9.138-3.402-16.671-10.008-21.333-18.426zm34.176,20.982c-3.156-.099-6.201-.597-9.135-1.38-2.265-3.708-5.208-10.089-7.068-19.602h16.203v20.982zm-0-23.988h-16.734c-.702-4.407-1.188-9.357-1.263-15.036h17.994v15.036zm.003-18.042h-18.012c.075-5.658 .549-10.629 1.251-15.036h16.761v15.036zm0-18.042h-16.266c1.845-9.444 4.773-15.798 7.032-19.575 2.961-.798 6.045-1.305 9.234-1.41v20.985zm41.823,18.042h-17.799c-.075-5.652-.546-10.632-1.248-15.036h15.516c2.079,4.623 3.324,9.69 3.531,15.036zm-5.043-18.042h-14.511c-1.647-8.418-4.146-14.4-6.273-18.27 8.901,3.462 16.206,10.005 20.784,18.27zm-33.777-20.988c3.201,.141 6.306,.648 9.276,1.479 2.253,3.789 5.16,10.116 6.993,19.509h-16.269v-20.988zm0,23.994h16.761c.702,4.407 1.176,9.378 1.251,15.036h-18.012v-15.036zm-0,18.042h17.994c-.069,5.679-.561,10.629-1.263,15.036h-16.731v-15.036zm0,38.97v-20.931h16.206c-1.851,9.456-4.773,15.813-7.029,19.536-2.934,.816-6.015,1.254-9.177,1.395zm12.912-2.631c2.142-3.828 4.68-9.798 6.336-18.3h14.505c-4.566,8.298-11.901,14.85-20.841,18.3zm22.284-21.303h-15.456c.702-4.413 1.194-9.357 1.269-15.036h17.781c-.201,5.361-1.524,10.404-3.594,15.036z"/>
</svg>
