<svg width="96" xmlns="http://www.w3.org/2000/svg" height="96" viewBox="0 0 96 96" xmlns:xlink="http://www.w3.org/1999/xlink">
<path d="m67.974,32.964h15.516c2.079,4.623 3.321,9.687 3.534,15.036h-17.802c-.075-5.652-.543-10.632-1.248-15.036zm-6.78-21.276c8.901,3.459 16.206,10.005 20.784,18.27h-14.508c-1.647-8.415-4.149-14.397-6.276-18.27zm-12.99,18.27v-20.988c3.198,.141 6.306,.648 9.276,1.479 2.25,3.789 5.157,10.116 6.99,19.509h-16.266zm-19.737,36.084c-.702-4.407-1.188-9.357-1.263-15.036h17.994v15.036h-16.731zm-.03-33.078h16.761v15.036h-18.012c.075-5.658 .549-10.629 1.251-15.036zm7.527-22.581c2.961-.798 6.045-1.305 9.234-1.407v20.982h-16.266c1.845-9.444 4.773-15.795 7.032-19.575zm-24.981,19.575c4.653-8.4 12.186-14.979 21.288-18.393-2.145,3.87-4.677,9.885-6.342,18.393h-14.946zm13.197,18.042h-18.18c.198-5.343 1.401-10.422 3.474-15.036h15.948c-.699,4.407-1.17,9.384-1.242,15.036zm1.281,18.042h-15.87c-2.082-4.629-3.417-9.672-3.612-15.036h18.213c.072,5.679 .564,10.623 1.269,15.036zm.492,3.006c1.677,8.592 4.248,14.601 6.402,18.426-9.135-3.399-16.671-10.005-21.33-18.426h14.928zm19.245,0v20.982c-3.156-.099-6.201-.597-9.135-1.38-2.265-3.708-5.208-10.089-7.068-19.602h16.203zm19.215,0c-1.851,9.456-4.776,15.813-7.032,19.536-2.937,.813-6.018,1.254-9.177,1.395v-20.931h16.209zm-16.209-18.042h17.994c-.069,5.679-.564,10.626-1.266,15.036h-16.728v-15.036zm18.012-3.006h-18.012v-15.036h16.758c.705,4.407 1.179,9.378 1.254,15.036zm2.994,3.006h17.778c-.198,5.361-1.518,10.404-3.591,15.036h-15.456c.702-4.413 1.194-9.357 1.269-15.036zm12.744,18.042c-4.563,8.298-11.901,14.847-20.841,18.3 2.145-3.828 4.683-9.798 6.339-18.3h14.502z"/>
</svg>
