<svg width="126" xmlns="http://www.w3.org/2000/svg" height="96" viewBox="0 0 126 96" xmlns:xlink="http://www.w3.org/1999/xlink">
<path d="m97.917,52.683c0,0-13.776-14.046-32.76-14.046-18.549,0-36.885,14.046-36.885,14.046l-10.299-4.299v12.612c1.623,.552 2.811,2.046 2.811,3.855 0,1.827-1.212,3.324-2.859,3.864l3.045,8.493h-8.988l3.072-8.565c-1.476-.627-2.508-2.085-2.508-3.792 0-1.671 1.002-3.093 2.433-3.741v-13.977l-14.979-6.246 65.907-29.583 60.468,29.955-28.458,11.424zm-33.51-6.93c19.098,0 28.458,10.11 28.458,10.11v20.97c0,0-9.735,7.863-29.955,7.863s-26.961-7.863-26.961-7.863v-20.97c0,0 9.36-10.11 28.458-10.11zm-.375,34.449c13.236,0 23.967-2.685 23.967-5.991s-10.731-5.991-23.967-5.991-23.964,2.685-23.964,5.991 10.728,5.991 23.964,5.991z"/>
</svg>
