<svg width="96" xmlns="http://www.w3.org/2000/svg" height="96" viewBox="0 0 96 96" xmlns:xlink="http://www.w3.org/1999/xlink">
<path d="m62.709,72.042l8.877-11.952 10.425-9.96c0,0-3.474-4.143-7.77-4.143-1.929,0-3.696,.552-5.31,1.656-1.605,1.101-3.069,2.754-4.389,4.965-1.845,.645-3.282,1.26-4.314,1.845-.228-2.298-.504-3.999-.825-5.1l5.988-23.244c1.419-5.604 1.758-8.436-1.617-9.936s-6.825,2.637-8.601,7.911l-5.679,17.949 .171-23.082c0-5.667-1.788-8.499-5.364-8.499-3.612,0-5.415,2.511-5.415,7.53v23.076l-5.808-20.214c-1.44-3.576-3.975-7.098-7.35-5.973s-3.216,6.678-2.28,10.233l5.175,19.707-8.346-13.785c-2.553-4.425-6.957-5.28-7.953-4.248-1.587,1.647-2.649,5.151 .231,10.182l9.207,16.029 8.22,28.476v5.535h24v-7.137c2.787-1.911 5.196-4.518 8.727-7.821z"/>
</svg>
