<svg width="96" xmlns="http://www.w3.org/2000/svg" height="96" viewBox="0 0 96 96" xmlns:xlink="http://www.w3.org/1999/xlink">
<path d="m62.412,32.226c4.344-10.86-5.367-12.651-5.367-12.522 3.066-7.668-3.066-12.78-8.688-12.78s-5.367,2.559-5.367,2.559 3.066-.639 3.066,1.788c0,2.43-2.814,2.301-5.622,5.112-2.814,2.811-1.47,2.43-1.662,2.43 5.844-.384 9.264,5.655 15.717,3.447-6.39,3.195-7.923-1.884-14.823-2.139-.894,0-6.006-.99-6.006,8.784 7.476,.864 10.734,6.006 20.829,4.857-11.373,4.215-25.62-13.227-27.6,5.877 0,4.089 3.063,6.144 3.063,6.144s35.397,0 35.271,0c7.026-3.066 3.579-14.196-2.811-13.557zm-14.196,60.774l15.984-45.207h-32.319l16.335,45.207z"/>
</svg>
