<svg width="96" xmlns="http://www.w3.org/2000/svg" height="96" viewBox="0 0 96 96" xmlns:xlink="http://www.w3.org/1999/xlink">
<path d="m84,87v-3h-3v-3h-3v-39h3v-3h3v-3h3v51h-3zm-3-48h-3v3h-60v-3h-3v-3h-3v-3h72v3h-3v3zm-66,0v3h3v39h-3v3h-3v3h-3v-51h3v3h3zm0,45h3v-3h60v3h3v3h3v3h-72v-3h3v-3zm23.568-15.054l6.858-11.091 6.858,6.912 9.429-14.193 9.858,24.426h-43.716l5.571-11.145 5.142,5.091zm-4.095-11.919c-2.487,0-4.5-2.016-4.5-4.5s2.013-4.5 4.5-4.5c2.484,0 4.5,2.016 4.5,4.5s-2.016,4.5-4.5,4.5zm40.527-24.027l-21.966-16.35c-1.032,.831-2.325,1.35-3.75,1.35-1.983,0-3.732-.975-4.821-2.463l-23.463,17.463h-3l25.479-19.554c-.114-.465-.192-.945-.192-1.446 0-3.312 2.685-6 5.997-6 3.315,0 6,2.688 6,6 0,1.077-.309,2.076-.807,2.952l23.523,18.048h-3z"/>
</svg>
