<svg width="96" xmlns="http://www.w3.org/2000/svg" height="96" viewBox="0 0 96 96" xmlns:xlink="http://www.w3.org/1999/xlink">
<path d="m48.741,14.199c0,5.052 3.813,8.475 8.52,8.475s8.526-3.426 8.526-8.475c0-5.055-3.816-8.478-8.526-8.478-4.704,0-8.52,3.423-8.52,8.478zm-18.453,28.926c0,1.002-.183,3.489 .024,4.986l7.437-8.949c1.539-1.686 3.318-2.865 4.227-2.547 .912,.318 1.41,1.389 1.113,2.385l-12.309,40.77c-1.419,4.764 1.263,9.444 7.797,10.512 9.567,0 15.252-6.474 20.844-14.865 0-1.002 .333-3.639 .132-5.139l-7.437,8.946c-1.542,1.686-3.453,2.865-4.365,2.55-.84-.294-1.332-1.23-1.167-2.163l12.396-40.959c1.032-5.202-1.77-9.936-7.692-10.542-6.228,.003-15.408,6.627-21,15.015z"/>
</svg>
