<svg width="96" xmlns="http://www.w3.org/2000/svg" height="96" viewBox="0 0 96 96" xmlns:xlink="http://www.w3.org/1999/xlink">
<path d="m72.48,27.621c1.134,1.131 1.134,2.967 0,4.101-1.134,1.131-2.055,2.052-2.055,2.052l2.055,2.052c2.265,2.265 2.265,5.937 0,8.205l-30.765,30.759c-2.268,2.268-5.94,2.268-8.205,0l-2.052-2.052-8.202,8.208 4.101,4.101c1.134,1.131 1.134,2.964 0,4.101-1.134,1.131-2.97,1.131-4.101,0l-16.41-16.413c-1.131-1.131-1.131-2.964 0-4.101 1.134-1.131 2.97-1.131 4.101,0l4.101,4.101 8.205-8.202-2.052-2.052c-2.268-2.262-2.268-5.937 0-8.202l30.768-30.762c2.268-2.268 5.937-2.268 8.202,0l2.052,2.052c0,0 .921-.921 2.052-2.052 1.134-1.134 2.97-1.134 4.101,0l1.026,1.026 16.41-16.41v4.101l-14.358,14.358 1.026,1.029zm-14.358-2.052c-1.131-1.134-2.967-1.134-4.101,0l-6.153,6.153 4.101,4.101-2.052,2.052-4.101-4.101-6.153,6.153 4.101,4.104-2.052,2.052-4.104-4.104-2.052,2.052 8.205,8.202-2.052,2.052-8.205-8.202-6.147,6.147 8.202,8.202-2.052,2.052-8.202-8.202-2.052,2.052c-1.134,1.131-1.134,2.97 0,4.101l12.306,12.306c1.134,1.137 2.97,1.137 4.104,0l30.762-30.762c1.137-1.131 1.137-2.967 0-4.101l-12.303-12.309zm-8.202,4.101l2.052-2.052 8.202,8.202-2.052,2.052-8.202-8.202zm0,16.407l-8.202-8.205 2.052-2.052 8.202,8.205-2.052,2.052zm-20.511,4.104l2.052-2.052 4.101,4.101-2.052,2.052-4.101-4.101zm60.417-22.023c0,2.175-1.764,3.936-3.936,3.936-2.178,0-3.939-1.764-3.939-3.936 0-2.178 3.939-8.124 3.939-8.124s3.936,5.949 3.936,8.124z"/>
</svg>
