<svg width="96" xmlns="http://www.w3.org/2000/svg" height="96" viewBox="0 0 96 96" xmlns:xlink="http://www.w3.org/1999/xlink">
<path d="m72.192,19.749l-11.319,25.125h-3.294l12.072-26.748h-18.639v62.313c3.84,.141 23.439,6.501 23.439,6.501v3.06h-52.68v-3.267c0,0 20.034-6.297 23.052-6.297v-62.31h-18.045l12.075,26.748h-3.294l-11.319-25.125-11.319,25.125h-3.294l12.144-26.898v-3.102h20.262c0-4.059 2.721-7.374 5.895-7.374 3.357,0 5.895,3.504 5.895,7.374h20.634v2.661l12.348,27.339h-3.294l-11.319-25.125zm-33.132,28.188c0,8.079-5.604,15.846-14.817,15.846-9.006,0-14.817-7.767-14.817-15.846-.003,.012 29.634,.012 29.634,0zm18.726,0c0,.015 29.637,.015 29.637,0 0,8.079-5.604,15.846-14.817,15.846-9.009,0-14.82-7.767-14.82-15.846z"/>
</svg>
