<svg width="96" xmlns="http://www.w3.org/2000/svg" height="96" viewBox="0 0 96 96" xmlns:xlink="http://www.w3.org/1999/xlink">
<path d="m53.511,52.626l-30.147,30.147c-2.334,2.334-6.129,2.328-8.472-.015-2.343-2.34-2.349-6.135-.015-8.469l2.292-2.292-6.495-6.498c-1.173-1.17-1.176-3.066-.009-4.236 1.17-1.17 3.063-1.164 4.236,.009l6.498,6.498 2.115-2.115-2.256-2.256c-1.173-1.173-1.176-3.066-.006-4.236 1.167-1.167 3.063-1.167 4.236,.006l2.253,2.256 2.115-2.115-6.498-6.498c-1.173-1.173-1.176-3.063-.006-4.233 1.167-1.17 3.063-1.167 4.236,.006l6.495,6.498 10.947-10.947c-7.095-9.885-7.977-21.684-1.44-28.218 7.59-7.59 22.293-5.196 32.835,5.349s12.939,25.245 5.346,32.835c-6.543,6.543-18.366,5.646-28.26-1.476zm16.536-25.02c-4.686-4.686-10.854-6.12-13.773-3.198s-1.488,9.084 3.198,13.773c4.686,4.686 10.851,6.117 13.773,3.198s1.485-9.087-3.198-13.773z"/>
</svg>
