<svg width="96" xmlns="http://www.w3.org/2000/svg" height="96" viewBox="0 0 96 96" xmlns:xlink="http://www.w3.org/1999/xlink">
<path d="m83.901,83.952h-71.805c-3.306,0-5.982-2.682-5.982-5.985v-32.907c0-3.309 2.679-5.985 5.982-5.985l3.165-.168c0-4.887 1.488-7.875 4.464-11.202s6.666-4.995 11.076-4.995c2.091,0 4.41,.354 6.951,1.062 0,0 5.526,1.836 9.363,1.836 5.853,0 9.849-2.565 11.97-7.698 .996-2.469 2.01-3.705 3.042-3.705 1.476,0 2.22,.69 2.22,2.067 0,2.439-1.317,5.136-3.954,8.088-3.54,4.011-7.893,6.018-13.068,6.018-4.017,0-10.902-1.884-10.902-1.884-2.796-.678-4.791-1.014-5.979-1.014-2.859,0-5.313,1.221-7.353,3.669s-3.063,4.425-3.063,7.8l63.873,.126c3.306,0 5.988,2.679 5.988,5.985v32.91c0,3.303-2.685,5.982-5.988,5.982zm2.994-38.892c0-1.656-1.341-2.994-2.994-2.994h-71.805c-1.653,0-2.991,1.338-2.991,2.994v32.91c0,1.653 1.338,2.994 2.991,2.994h71.805c1.653,0 2.994-1.341 2.994-2.994v-32.91zm-11.982,15.051h-5.889v5.796h-5.982v-5.796h-5.988v5.796h-6.171v-5.796h-5.796v5.796h-5.985v-5.796h-5.982v5.796h-5.988v-5.796h-6.075v5.796h-5.982v-5.889h6.075v-5.985h-6.075v-5.889h5.982v5.796h6.075v-5.796h5.985v5.796h5.982v-5.796h5.985v5.796h5.796v-5.796h6.171v5.796h5.988v-5.796h5.982v5.796h5.889v-5.796h5.982v5.889h-5.889v5.985h5.889v5.889h-5.982v-5.796zm-41.79-6.078h-6.078v5.985h6.075v-5.985zm11.877,0h-5.985v5.985h5.985v-5.985zm11.964,0h-5.982v5.985h5.982v-5.985zm11.973,0h-5.991v5.985h5.988v-5.985zm.282,20.943h-42.261v-5.892h42.261v5.892z"/>
</svg>
