<svg width="96" xmlns="http://www.w3.org/2000/svg" height="96" viewBox="0 0 96 96" xmlns:xlink="http://www.w3.org/1999/xlink">
<path d="m81,87.048h-66c-3.315,0-6-2.688-6-6v-39c0-3.312 2.685-6 6-6l3.174,.018c0-4.902 1.491-8.082 4.476-11.421 2.982-3.336 6.687-5.004 11.106-5.004 2.097,0 4.422,.354 6.969,1.062 0,0 5.541,1.842 9.387,1.842 5.871,0 9.873-2.574 12.003-7.722 .999-2.475 2.016-3.714 3.051-3.714 1.482,0 2.226,.69 2.226,2.073 0,2.445-1.323,5.151-3.966,8.109-3.546,4.023-7.914,6.036-13.101,6.036-4.029,0-10.932-1.89-10.932-1.89-2.805-.678-4.803-1.017-5.994-1.017-2.871,0-5.328,1.224-7.374,3.678-2.049,2.451-3.069,4.62-3.069,8.007l58.044-.057c3.312,0 6,2.688 6,6v39c0,3.312-2.688,6-6,6zm3-45c0-1.659-1.344-3-3-3h-66c-1.659,0-3,1.341-3,3v39c0,1.656 1.341,3 3,3h66c1.656,0 3-1.344 3-3v-39zm-23.991,21.033h18.054v5.943h-18.054v-5.943zm5.955-9h12.063v5.943h-12.063v-5.943zm6.057-9.033h6.009v6.132h-6.009v-6.132zm-8.91,0h5.883v6.132h-5.883v-6.132zm-6.087,9.033h5.943v5.943h-5.943v-5.943zm-2.949-9.033h6.006v6.132h-6.006v-6.132zm-6.213,9.033h6.132v5.943h-6.132v-5.943zm-2.946-9.033h6.132v6.132h-6.132v-6.132zm-8.91,0h6.069v6.132h-6.069v-6.132zm-9.222,0h6.195v6.132h-6.195v-6.132zm-8.784,0h6.132v6.132h-6.132v-6.132zm18.054,14.979h-18.054v-5.943h18.054v5.943zm-11.922,18.132h-6.132v-6.132h6.132v6.132zm-6.099-15.078h12.063v5.943h-12.063v-5.943zm15.072,15.078h-6.135v-6.132h6.135v6.132zm14.907-9.132h-6.135v-5.943h6.135v5.943zm-8.973,0h-6.132v-5.943h6.132v5.943zm5.985-9h-6.135v-5.943h6.135v5.943zm11.958,3.054v5.943h-5.943v-5.943h5.943zm3.039,15.078h-23.889v-6.132h23.889v6.132zm8.973,0h-6.135v-6.132h6.135v6.132zm8.97,0h-5.943v-6.132h5.943v6.132z"/>
</svg>
