<svg width="96" xmlns="http://www.w3.org/2000/svg" height="96" viewBox="0 0 96 96" xmlns:xlink="http://www.w3.org/1999/xlink">
<path d="m57.996,57.123c0,0-4.992,6.375-11.37,0-6.186-6-10.686,0-10.686,0l-14.901,29.37c-.432,1.599 .519,3.243 2.118,3.672h49.491c1.599-.429 2.55-2.07 2.121-3.672l-16.773-29.37zm22.821,27.867l-23.937-40.284v-.075l-.042-23.607h1.653c2.478,0 4.494-2.013 4.494-4.497 0-2.481-2.016-4.494-4.494-4.494h-23.985c-2.481,0-4.494,2.013-4.494,4.494 0,2.484 2.013,4.497 4.494,4.497h1.446l-.048,23.613-20.724,40.353c-1.284,4.797 1.563,9.726 6.357,11.01h52.923c4.8-1.284 7.647-6.213 6.357-11.01zm-7.158,8.004l-51.324-.057c-3.195-.858-5.091-4.146-4.236-7.338l20.841-40.848 .063-26.724h-4.494c-.825,0-1.497-.672-1.497-1.5 0-.825 .672-1.497 1.497-1.497h23.985c.825,0 1.494,.672 1.494,1.497 0,.828-.669,1.5-1.494,1.5h-4.494l.075,26.625 23.817,40.998c.858,3.201-1.041,6.489-4.233,7.344zm-24.219-85.458c0,1.656 1.344,3 3,3s3-1.344 3-3-1.341-3-3-3-3,1.341-3,3zm3-7.5c2.484,0 4.5-2.013 4.5-4.5s-2.016-4.5-4.5-4.5-4.5,2.013-4.5,4.5 2.016,4.5 4.5,4.5zm-12,7.5c1.659,0 3-1.344 3-3s-1.341-3-3-3-3,1.344-3,3 1.341,3 3,3z"/>
</svg>
