<svg width="96" xmlns="http://www.w3.org/2000/svg" height="96" viewBox="0 0 96 96" xmlns:xlink="http://www.w3.org/1999/xlink">
<path d="m63.915,28.215c1.599-.432 2.55-2.073 2.121-3.675-.429-1.602-2.073-2.553-3.675-2.121l-30.273,9.315c-1.602,.429-2.55,2.073-2.124,3.675 .429,1.599 2.073,2.553 3.675,2.121l2.499-.768 2.862,5.214h-3c-3.312,0-6,2.688-6,6v12.501l6,8.499h24l6-8.499v-12.501c0-3.312-2.688-6-6-6h-3l6.045-13.494 .87-.267zm-12.915,13.761h-6l-3.729-6.792 14.814-4.56-5.085,11.352zm11.361-28.554l-30.273,9.315c-1.602,.429-2.55,2.073-2.124,3.675 .429,1.599 2.073,2.553 3.675,2.121l30.273-9.315c1.599-.432 2.55-2.073 2.121-3.675s-2.073-2.553-3.672-2.121zm-28.722,6.111l30.273-9.315c1.599-.432 2.55-2.073 2.121-3.675-.429-1.602-2.073-2.553-3.675-2.121l-30.27,9.315c-1.602,.429-2.55,2.073-2.124,3.675 .429,1.599 2.076,2.55 3.675,2.121zm24.861,52.443h-21c-.828,0-1.5,.672-1.5,1.5s.672,1.5 1.5,1.5h21c.825,0 1.5-.672 1.5-1.5s-.675-1.5-1.5-1.5zm0,6h-21c-.828,0-1.5,.672-1.5,1.5s.672,1.5 1.5,1.5h21c.825,0 1.5-.672 1.5-1.5s-.675-1.5-1.5-1.5zm0,6h-21c-.828,0-1.5,.672-1.5,1.5s.672,1.5 1.5,1.5h21c.825,0 1.5-.672 1.5-1.5s-.675-1.5-1.5-1.5zm-15,6c-.303,2.466 2.016,4.5 4.5,4.5s4.5-2.016 4.5-4.5c0,.129-9,.318-9,0zm-9.687-79.308l20.04-6.279c1.581-.495 2.46-2.181 1.965-3.759-.495-1.581-2.178-2.463-3.759-1.968l-20.04,6.279c-1.581,.495-2.46,2.181-1.965,3.762 .495,1.578 2.178,2.46 3.759,1.965z"/>
</svg>
