<svg width="96" xmlns="http://www.w3.org/2000/svg" height="96" viewBox="0 0 96 96" xmlns:xlink="http://www.w3.org/1999/xlink">
<path d="m48.39,5.343c-16.113,0-24.57,12.708-24.57,24.27 0,12.972 12.072,21.129 12.072,42.342h12.225c0,0 11.481,.054 11.829,.054 .348-21.369 12.234-29.775 12.234-42.498 .003-10.857-7.677-24.168-23.79-24.168zm10.032,69.75h-21c-.828,0-1.5,.672-1.5,1.5s.672,1.5 1.5,1.5h21c.825,0 1.5-.672 1.5-1.5s-.675-1.5-1.5-1.5zm0,6h-21c-.828,0-1.5,.672-1.5,1.5s.672,1.5 1.5,1.5h21c.825,0 1.5-.672 1.5-1.5s-.675-1.5-1.5-1.5zm-19.5,6c0,0 0,1.341 0,3 0,1.656 1.341,3 3,3h12.042c1.659,0 3-1.344 3-3 0-1.659 0-3 0-3h-18.042z"/>
</svg>
