<svg width="96" xmlns="http://www.w3.org/2000/svg" height="96" viewBox="0 0 96 96" xmlns:xlink="http://www.w3.org/1999/xlink">
<path d="m51.219,44.991v12.018c1.659,0 3.003,1.344 3.003,3.006v3.003c0,0 9.201,3.756 9.201,11.829s-6.636,15.21-6.636,15.21h-17.211c0,0-6.384-7.137-6.57-15.21 0-8.262 9.198-11.829 9.198-11.829v-3.003c0-1.662 1.344-3.006 3.003-3.006v-12.018h-18.774v20.058c1.287,.339 2.256,1.458 2.256,2.853 0,1.659-1.347,3.003-3.006,3.003s-3.003-1.344-3.003-3.003c0-1.395 .966-2.514 2.253-2.853v-20.058h-9.765l22.905-36.051h20.538l22.221,36.051h-29.613z"/>
</svg>
