<svg width="96" xmlns="http://www.w3.org/2000/svg" height="96" viewBox="0 0 96 96" xmlns:xlink="http://www.w3.org/1999/xlink">
<path d="m52.71,54.354c-4.794-3.918-7.854-9.876-7.854-16.551 0-3.354 .84-6.486 2.217-9.312l-3.294-3.291-20.01,20.013c3.72,2.928 3.345,5.79-1.008,8.58l26.733,26.73h13.101c1.686,0 3.054,1.368 3.054,3.054v3.054h-14.304l-.033,.033-.033-.033h-22.254v-3.051c0-1.686 1.368-3.054 3.054-3.054h13.101l-25.218-25.215c-4.983,2.136-7.443,.072-7.338-6.27 .114-6.747 2.973-8.547 8.517-5.511l20.487-20.487-2.028-2.025c-1.191-1.188-1.191-3.123 0-4.314l6.474-6.474c1.191-1.191 3.126-1.191 4.317,0l7.8,7.806c2.484-1.011 5.187-1.59 8.034-1.59 7.026,0 13.266,3.015 17.157,8.256 .132,.033-30.561,29.7-30.672,29.652zm23.619-19.092c0,0 5.151,6.483 0,11.634s-11.571-.063-11.571-.063l11.571-11.571z"/>
</svg>
