<svg width="96" xmlns="http://www.w3.org/2000/svg" height="96" viewBox="0 0 96 96" xmlns:xlink="http://www.w3.org/1999/xlink">
<path d="m53.241,42.051c-3.75,1.686-12.066-2.445-12.066-2.445-9.744-5.841 3.66,18.219 3.66,18.219s.279,7.509 1.965,8.445c14.061-19.689 10.191-25.908 6.441-24.219zm-5.061,18.669c-1.137,0-5.916-14.337-5.352-17.337 3.753,.375 7.227,1.791 9.291,.666 5.811-2.634-2.628,16.671-3.939,16.671zm11.676,11.121c.345-21.915 12.138-30.348 12.138-43.398 0-11.136-7.62-25.35-23.61-25.35-15.987,0-24.378,13.599-24.378,25.452 0,13.308 11.979,21.672 11.979,43.434h12.129c0,0 11.394-.138 11.742-.138zm-21.429-2.781c0-20.313-11.604-28.119-11.604-40.539 0-11.064 7.53-22.668 21.519-22.668s20.844,12.18 20.844,22.572c0,12.18-11.442,20.226-11.748,40.68-.306,0-9.333-.048-9.333-.048h-9.678zm20.088,5.985h-21c-.828,0-1.5,.672-1.5,1.5s.672,1.5 1.5,1.5h21c.825,0 1.5-.672 1.5-1.5s-.675-1.5-1.5-1.5zm0,6h-21c-.828,0-1.5,.672-1.5,1.5s.672,1.5 1.5,1.5h21c.825,0 1.5-.672 1.5-1.5s-.675-1.5-1.5-1.5zm-19.524,6.087c0,0 0,1.002 0,2.7s1.332,3.075 2.976,3.075h12.093c1.647,0 2.976-1.377 2.976-3.075s-.186-2.7-.186-2.7h-17.859z"/>
</svg>
