<svg width="96" xmlns="http://www.w3.org/2000/svg" height="96" viewBox="0 0 96 96" xmlns:xlink="http://www.w3.org/1999/xlink">
<path d="m10.275,41.859c0,0 72.411,0 72.519,0 1.749-.765 1.671-2.406 .033-3.495-1.641-1.095-36.357-26.154-36.357-26.154s-34.446,25.059-36.195,26.154c-1.746,1.089-1.857,2.73 0,3.495zm36.195-17.274c2.895,0 5.244,2.346 5.244,5.241s-2.349,5.244-5.244,5.244-5.241-2.349-5.241-5.244 2.346-5.241 5.241-5.241zm-34.389,56.211h68.904v-2.931h-68.904v2.931zm14.919-5.988v-26.709h2.934v-3.309h-14.979v3.009h2.934v27.006h9.111zm24.09,.003v-26.898h2.934v-2.934h-14.976v2.82h2.931v27.006h9.111zm-42,11.988h74.889v-2.742h-74.889v2.742zm65.904-11.982v-26.898h2.934v-2.934h-14.979v2.82h2.937v27.006h9.108z"/>
</svg>
