<svg width="96" xmlns="http://www.w3.org/2000/svg" height="96" viewBox="0 0 96 96" xmlns:xlink="http://www.w3.org/1999/xlink">
<path d="m73.959,32.598c0,0 1.437-19.332-16.278-21.54-15.186-1.551-19.806,12.561-19.806,12.561s-4.569-4.398-10.776-.807c-5.553,3.429-4.569,9.702-4.569,9.702s-12.33,2.4-12.33,14.97c.339,12.774 13.311,12.453 13.311,12.453l13.749-.093 6.582-15.054 19.185,.375-8.532,14.745 17.538,.153c0,0 11.613,.138 13.728-11.826 .813-13.062-11.802-15.639-11.802-15.639zm-15.777,15.252h-12.369l-7.896,18.051h11.316l-9.213,20.376 20.001-23.499h-10.524l8.685-14.928z"/>
</svg>
