<svg width="96" xmlns="http://www.w3.org/2000/svg" height="96" viewBox="0 0 96 96" xmlns:xlink="http://www.w3.org/1999/xlink">
<path d="m42.363,18.765l-22.5,38.97c-1.242,2.154 2.946,6.897 2.946,6.897l27-46.764c0,0-6.204-1.257-7.446,.897zm7.137,26.637c2.151,1.242 4.905,.504 6.147-1.647l12-20.784c1.242-2.154 .504-4.905-1.647-6.15-2.151-1.242-4.905-.504-6.147,1.647l-12,20.784c-1.242,2.154-.504,4.908 1.647,6.15zm-3,5.196c-2.154-1.242-4.905-.504-6.147,1.647l-12,20.787c-1.242,2.151-.507,4.905 1.647,6.147 2.151,1.242 4.905,.504 6.147-1.647l12-20.787c1.242-2.154 .504-4.905-1.647-6.147zm26.688-19.23l-27,46.764c0,0 6.204,1.257 7.446-.897l22.5-38.97c1.245-2.154-2.946-6.897-2.946-6.897z"/>
</svg>
