<svg width="96" xmlns="http://www.w3.org/2000/svg" height="96" viewBox="0 0 96 96" xmlns:xlink="http://www.w3.org/1999/xlink">
<path d="m75.99,29.52l-10.5,18.186c-1.659,2.868-5.325,3.852-8.196,2.193l-2.595-1.5 3-5.193c1.434,.825 3.27,.336 4.095-1.098l7.5-12.99c.828-1.437 .336-3.27-1.095-4.098l-10.395-6c-1.437-.828-3.27-.336-4.095,1.098l-7.5,12.99c-.831,1.437-.339,3.27 1.095,4.098l-3,5.193-2.595-1.5c-2.871-1.656-3.855-5.325-2.196-8.193l10.5-18.186c1.659-2.871 5.325-3.852 8.196-2.196l15.585,9c2.871,1.656 3.855,5.325 2.196,8.196zm-35.49,31.47c-1.437-.828-1.929-2.664-1.098-4.098l12-20.784c.828-1.437 2.664-1.929 4.098-1.098s1.929,2.664 1.095,4.098l-12,20.784c-.825,1.434-2.658,1.923-4.095,1.098zm-2.196-8.193c-1.437-.828-3.27-.336-4.098,1.095l-7.5,12.99c-.828,1.437-.336,3.27 1.098,4.098l10.395,6c1.434,.828 3.27,.336 4.095-1.098l7.5-12.99c.828-1.434 .336-3.27-1.095-4.098l3-5.193 2.595,1.5c2.871,1.656 3.855,5.322 2.196,8.193l-10.5,18.186c-1.659,2.871-5.325,3.852-8.196,2.196l-15.588-9c-2.871-1.659-3.855-5.325-2.196-8.196l10.5-18.186c1.659-2.871 5.328-3.855 8.199-2.196l2.595,1.5-3,5.199z"/>
</svg>
