<svg width="96" xmlns="http://www.w3.org/2000/svg" height="96" viewBox="0 0 96 96" xmlns:xlink="http://www.w3.org/1999/xlink">
<path d="m48.099,90.012c0,0-33.111-20.499-33.111-37.017 0-9.159 5.235-18.213 15.126-19.614v-6.435c0-9.921 8.061-17.958 18-17.958 9.942,0 18,8.04 18,17.958v6.438c9.546,1.425 14.901,10.302 14.901,19.608-.003,16.722-32.916,37.02-32.916,37.02zm-4.674-18.171h9.186l-3.894-10.41c2.184-.306 3.894-2.103 3.894-4.368 0-2.478-2.016-4.491-4.5-4.491-2.484,0-4.5,2.013-4.5,4.491 0,2.154 1.554,3.87 3.582,4.305l-3.768,10.473zm16.686-44.895c0-6.612-5.373-11.973-12-11.973s-12,5.361-12,11.973v6.546c8.25,1.821 11.985,9.78 11.985,9.78s3.33-8.052 12.012-9.801v-6.525z"/>
</svg>
