<svg width="96" xmlns="http://www.w3.org/2000/svg" height="96" viewBox="0 0 96 96" xmlns:xlink="http://www.w3.org/1999/xlink">
<path d="m48,93c-15.741,0-28.5-12.762-28.5-28.5 0-10.23 5.406-19.173 13.5-24.201v-17.799c0-9.114 7.389-16.5 16.5-16.5s16.5,7.386 16.5,16.5v19.911c6.405,5.226 10.5,13.176 10.5,22.089 0,15.738-12.759,28.5-28.5,28.5zm12-70.5c0-5.799-4.698-10.5-10.5-10.5-5.799,0-10.5,4.701-10.5,10.5v14.973c2.832-.942 5.85-1.473 9-1.473 4.296,0 8.349,.975 12,2.676v-16.176zm-12,18c-13.254,0-24,10.746-24,24s10.746,24 24,24 24-10.746 24-24-10.746-24-24-24zm0,46.5c-12.429,0-22.5-10.071-22.5-22.5s10.071-22.5 22.5-22.5c12.429,0 22.5,10.071 22.5,22.5s-10.071,22.5-22.5,22.5zm4.5-28.5c0-2.484-2.016-4.5-4.5-4.5s-4.5,2.016-4.5,4.5c0,2.133 1.512,3.831 3.501,4.302l-3.501,13.698h9.186l-3.942-13.653c2.115-.363 3.756-2.127 3.756-4.347z"/>
</svg>
