<svg width="96" xmlns="http://www.w3.org/2000/svg" height="96" viewBox="0 0 96 96" xmlns:xlink="http://www.w3.org/1999/xlink">
<path d="m46.5,90.093c-13.095,0-31.431-13.659-31.431-27.312 0-5.85 1.098-13.596 2.355-20.766h15.393c-.813,6.297-1.47,13.368-1.47,20.391 1.122,6.36 10.101,11.223 15.153,11.223s13.659-4.677 15.153-11.223c0-7.062-.681-14.121-1.521-20.391h15.336c1.308,7.272 2.46,15.132 2.46,20.949 .003,13.473-18.333,27.129-31.428,27.129zm10.476-66.039h14.781c0-0 1.614,6.666 3.189,14.967h-15.21c-1.293-8.736-2.76-14.967-2.76-14.967zm0-11.976h14.964v2.994h-14.964v-2.994zm-21.141,11.976c0,0-1.401,6.255-2.637,14.967h-15.27c1.542-8.313 3.126-14.967 3.126-14.967h14.781zm-5.799-3.183h-2.991v-5.985h-5.988v-2.994h5.988v-5.985h2.991v5.985h5.988v2.994h-5.988v5.985z"/>
</svg>
