<svg width="96" xmlns="http://www.w3.org/2000/svg" height="96" viewBox="0 0 96 96" xmlns:xlink="http://www.w3.org/1999/xlink">
<path d="m27.579,60.111c-3.75,0-4.248-1.752-4.248-1.752l-14.625,28.74 11.727-1.314 6.486,9.75c0,0 13.5-28.179 13.5-27.99-6.99-.168-4.215-7.245-12.84-7.434zm32.967,3.084c1.821-3.06 4.512-4.611 8.073-4.659 3.558-.048 5.361-1.851 5.409-5.412 .048-3.558 1.599-6.249 4.659-8.067 3.06-1.818 3.72-4.284 1.98-7.389s-1.74-6.213 0-9.318 1.077-5.568-1.98-7.389-4.611-4.509-4.659-8.07c-.048-3.558-1.851-5.361-5.409-5.409-3.564-.048-6.252-1.599-8.073-4.659-1.815-3.06-4.284-3.72-7.389-1.98s-6.21,1.74-9.315,0-5.568-1.077-7.389,1.98c-1.821,3.06-4.509,4.611-8.07,4.659-3.558,.051-5.361,1.854-5.409,5.412-.048,3.561-1.599,6.249-4.659,8.07s-3.72,4.284-1.98,7.389c1.74,3.105 1.74,6.213 0,9.318-1.74,3.105-1.077,5.568 1.98,7.389 3.06,1.821 4.611,4.512 4.659,8.067 .048,3.561 1.851,5.364 5.409,5.412 3.561,.048 6.249,1.599 8.07,4.659 1.818,3.06 4.284,3.717 7.389,1.98s6.21-1.737 9.315,0 5.571,1.077 7.389-1.983zm-7.992-15.183h-5.343v-20.178c-1.953,1.827-4.26,3.177-6.915,4.053v-4.851c1.395-.456 2.913-1.32 4.551-2.595s2.76-2.76 3.369-4.458h4.338v28.029zm19.926,11.472c-10.686,1.125-8.514,3.768-10.95,5.829-2.814,3-6.321,2.421-6.321,2.421l16.5,28.365 4.05-10.5 11.538,1.5-14.817-27.615z"/>
</svg>
