<svg width="96" xmlns="http://www.w3.org/2000/svg" height="96" viewBox="0 0 96 96" xmlns:xlink="http://www.w3.org/1999/xlink">
<path d="m47.997,40.593c-13.629,0-24.681,11.052-24.681,24.681s11.052,24.681 24.681,24.681c13.632,0 24.681-11.052 24.681-24.681s-11.049-24.681-24.681-24.681zm0,45.756c-11.532,0-20.883-9.351-20.883-20.889 0-11.532 9.351-20.88 20.883-20.88 11.538,0 20.883,9.348 20.883,20.88 0,11.538-9.345,20.889-20.883,20.889zm12.411-65.499l8.472-14.805h-41.766l8.601,14.805h24.693zm4.431,25.203l15.126-24.894-10.143-14.682-19.05,33.495c8.358,.699 14.067,6.081 14.067,6.081zm-19.68-6.267l-18.984-33.309-10.14,14.682 14.682,25.332c-.003,0 5.328-5.496 14.442-6.705zm-.555,19.986c-1.149,.897-2.208,1.5-3.186,1.821v3.393c1.857-.609 3.471-1.554 4.839-2.835v14.133h3.75v-19.647h-3.042c-.426,1.188-1.212,2.238-2.361,3.135z"/>
</svg>
