<svg width="96" xmlns="http://www.w3.org/2000/svg" height="96" viewBox="0 0 96 96" xmlns:xlink="http://www.w3.org/1999/xlink">
<path d="M85.5 81c-2.484 0-4.5-2.016-4.5-4.5v-54c0-2.484 2.016-4.5 4.5-4.5s4.5 2.016 4.5 4.5v54c0 2.484-2.016 4.5-4.5 4.5zM63 75c0 3.312-2.688 6-6 6h-27c-3.312 0-6-2.688-6-6v-11.877l-11.973-2.664v-21.687l66.072-14.559v50.952l-15.099-3.357v3.192zM60 71.139l-33-7.347v11.208c0 1.656 1.344 3 3 3h27c1.659 0 3-1.344 3-3v-3.861zM6 63c-1.656 0-3-1.344-3-3v-21c0-1.659 1.344-3 3-3s3 1.341 3 3v21c0 1.656-1.344 3-3 3z"/>
</svg>
