<svg width="96" xmlns="http://www.w3.org/2000/svg" height="96" viewBox="0 0 96 96" xmlns:xlink="http://www.w3.org/1999/xlink">
<path d="m84.225,54.363v23.688c0,1.656-.936,2.997-2.994,2.997-.498,0-1.731-1.062-3.246-2.661v-63.582c1.515-1.599 2.748-2.661 3.246-2.661 2.244,0 2.994,1.341 2.994,2.994v24.288c4.059,.114 7.839,3.405 7.839,7.467 0,4.065-3.78,7.356-7.839,7.47zm-48.18,5.775c.186,0 0-27.087 0-27.087 20.571,0 32.766-9.03 39.192-15.222v57.531c-6.426-6.189-18.621-15.222-39.192-15.222zm-11.982,23.718l-5.991-23.781h-5.994c0,0-1.782-4.044-2.592-8.988-1.527,0-2.862,0-3.402,0-1.653,0-2.994-1.341-2.994-2.997v-2.994c0-1.656 1.341-2.997 2.994-2.997 .54,0 1.875,0 3.402,0 .813-4.944 2.592-8.985 2.592-8.985h20.97v26.961h-5.991l.756,2.994h2.991l1.497,5.994h-2.982l3.729,14.793h-8.985z"/>
</svg>
