<svg width="96" xmlns="http://www.w3.org/2000/svg" height="96" viewBox="0 0 96 96" xmlns:xlink="http://www.w3.org/1999/xlink">
<path d="m54.753,38.718c1.851-6.297 1.068-13.2-2.346-18.981 .075,.105-32.637,33.081-32.871,32.874 5.685,3.357 12.588,4.302 18.801,2.568-.045-.159 16.284-16.485 16.416-16.461zm-5.835-24.24c-4.407-4.344-10.713-7.29-17.382-7.29-13.479,0-24.408,10.956-24.408,24.468 0,6.594 3,12.978 7.23,17.379 .009,0 34.353-34.275 34.56-34.557zm34.518,64.92c0,0 .798-6.894-1.191-8.883-.132-.132-22.938-27.975-22.938-27.975l-16.971,16.971 27.843,23.067c1.857,2.121 9.015,1.062 9.015,1.062l5.7,5.172 3.978-3.978-5.436-5.436z"/>
</svg>
