<svg width="108" xmlns="http://www.w3.org/2000/svg" height="96" viewBox="0 0 108 96" xmlns:xlink="http://www.w3.org/1999/xlink">
<path d="m105,84h-23.997v-69h23.997c1.659,0 3,1.341 3,3v63c0,1.656-1.341,3-3,3zm-11.997-12h3v-3h-3v3zm0-6h3v-3h-3v3zm0-6h3v-3h-3v3zm-6,12h2.997v-3h-2.997v3zm0-6h2.997v-3h-2.997v3zm0-6h2.997v-3h-2.997v3zm15-33h-15v9h15v-9zm0,30h-3v3h3v-3zm0,6h-3v3h3v-3zm0,6h-3v3h3v-3zm-102.003,12v-63c0-1.659 1.344-3 3.003-3h75v69h-75c-1.659,0-3.003-1.344-3.003-3zm72.117-28.473c1.659,0 3-1.344 3-3 0-1.659-1.341-3-3-3-1.656,0-3,1.341-3,3 0,1.656 1.344,3 3,3zm-60.117,16.473c0,1.656 1.344,3 3.003,3h47.997c1.659,0 3-1.344 3-3v-39c0-1.659-1.341-3-3-3h-47.997c-1.659,0-3.003,1.341-3.003,3v39z"/>
</svg>
