<svg width="96" xmlns="http://www.w3.org/2000/svg" height="96" viewBox="0 0 96 96" xmlns:xlink="http://www.w3.org/1999/xlink">
<path d="m49.203,77.733v8.985c8.985,.486 15.936,3.462 15.936,6.234 0,.069-36.846,.069-36.846,0 0-2.673 6.432-5.553 14.937-6.192v-9.063c-10.857-1.557-19.23-10.8-19.23-22.089v-4.479h2.988v4.479c0,10.722 8.691,19.416 19.413,19.419h.012c10.722-.003 19.599-8.694 19.599-19.419v-4.479h2.988v4.479c0,11.418-8.757,20.733-19.797,22.125zm-2.799-5.88c-9.072,0-16.434-7.359-16.434-16.434v-4.293h33.054v4.293c0,9.075-7.548,16.434-16.62,16.434zm-16.434-49.428c0-9.075 7.359-16.431 16.434-16.431s16.62,7.356 16.62,16.431v25.716h-33.054v-25.716z"/>
</svg>
