<svg width="96" xmlns="http://www.w3.org/2000/svg" height="96" viewBox="0 0 96 96" xmlns:xlink="http://www.w3.org/1999/xlink">
<path d="m49.2,77.808v8.979c8.976,.483 15.915,3.453 15.915,6.225 0,.069-36.804,.069-36.804,0 0-2.667 6.426-5.547 14.919-6.186v-9.054c-10.842-1.554-19.206-10.791-19.206-22.062v-4.665h2.985v4.665c0,10.71 8.682,19.395 19.392,19.398h.012c10.71-.003 19.392-8.688 19.392-19.398v-4.665h3.174v4.665c-.003,11.403-8.751,20.709-19.779,22.098zm-2.7-5.943c-9.105,0-16.482-7.377-16.482-16.482v-7.431h13.485v-2.997h-13.485v-2.997h13.485v-2.994h-13.485v-2.997h13.485v-2.997h-13.485v-2.997h13.485v-2.997h-13.485v-4.746c0-9.102 7.377-16.296 16.482-16.296 9.102,0 16.482,7.191 16.482,16.296v4.746h-13.488v2.997h13.488v2.997h-13.488v2.997h13.488v2.997h-13.488v2.994h13.488v2.997h-13.488v2.997h13.488v7.431c0,9.105-7.38,16.482-16.482,16.482z"/>
</svg>
