<svg width="96" xmlns="http://www.w3.org/2000/svg" height="96" viewBox="0 0 96 96" xmlns:xlink="http://www.w3.org/1999/xlink">
<path d="m69,55.608v-4.479h-2.988v4.479c0,10.722-8.877,19.416-19.599,19.419h-.012c-10.722-.003-19.413-8.694-19.413-19.419v-4.479h-2.988v4.479c0,11.289 8.373,20.532 19.23,22.086v9.063c-8.508,.642-14.937,3.522-14.937,6.192 0,.069 36.846,.069 36.846,0 0-2.772-6.948-5.748-15.933-6.234v-8.985c11.037-1.389 19.794-10.704 19.794-22.122zm-22.596,16.245c9.075,0 16.62-7.359 16.62-16.434v-4.293h-33.054v4.293c0,9.075 7.359,16.434 16.434,16.434zm16.62-49.428c0-9.075-7.545-16.431-16.62-16.431-9.072,0-16.434,7.356-16.434,16.431v25.716h33.054v-25.716zm-10.524-10.389c.825,0 1.5,.672 1.5,1.5s-.675,1.5-1.5,1.5c-.828,0-1.5-.672-1.5-1.5s.672-1.5 1.5-1.5zm-6,0c.825,0 1.5,.672 1.5,1.5s-.675,1.5-1.5,1.5c-.828,0-1.5-.672-1.5-1.5s.672-1.5 1.5-1.5zm-6,0c.825,0 1.5,.672 1.5,1.5s-.675,1.5-1.5,1.5c-.828,0-1.5-.672-1.5-1.5s.672-1.5 1.5-1.5zm-6,33c-.828,0-1.5-.672-1.5-1.5s.672-1.5 1.5-1.5c.825,0 1.5,.672 1.5,1.5s-.675,1.5-1.5,1.5zm0-6c-.828,0-1.5-.672-1.5-1.5s.672-1.5 1.5-1.5c.825,0 1.5,.672 1.5,1.5s-.675,1.5-1.5,1.5zm0-6c-.828,0-1.5-.672-1.5-1.5s.672-1.5 1.5-1.5c.825,0 1.5,.672 1.5,1.5 0,.828-.675,1.5-1.5,1.5zm0-6c-.828,0-1.5-.672-1.5-1.5s.672-1.5 1.5-1.5c.825,0 1.5,.672 1.5,1.5s-.675,1.5-1.5,1.5zm3-6c-.828,0-1.5-.672-1.5-1.5s.672-1.5 1.5-1.5c.825,0 1.5,.672 1.5,1.5s-.675,1.5-1.5,1.5zm3,24c-.828,0-1.5-.672-1.5-1.5s.672-1.5 1.5-1.5c.825,0 1.5,.672 1.5,1.5s-.675,1.5-1.5,1.5zm0-6c-.828,0-1.5-.672-1.5-1.5s.672-1.5 1.5-1.5c.825,0 1.5,.672 1.5,1.5s-.675,1.5-1.5,1.5zm0-6c-.828,0-1.5-.672-1.5-1.5s.672-1.5 1.5-1.5c.825,0 1.5,.672 1.5,1.5 0,.828-.675,1.5-1.5,1.5zm0-6c-.828,0-1.5-.672-1.5-1.5s.672-1.5 1.5-1.5c.825,0 1.5,.672 1.5,1.5s-.675,1.5-1.5,1.5zm3-6c-.828,0-1.5-.672-1.5-1.5s.672-1.5 1.5-1.5c.825,0 1.5,.672 1.5,1.5s-.675,1.5-1.5,1.5zm3,24c-.828,0-1.5-.672-1.5-1.5s.672-1.5 1.5-1.5c.825,0 1.5,.672 1.5,1.5s-.675,1.5-1.5,1.5zm0-6c-.828,0-1.5-.672-1.5-1.5s.672-1.5 1.5-1.5c.825,0 1.5,.672 1.5,1.5s-.675,1.5-1.5,1.5zm0-6c-.828,0-1.5-.672-1.5-1.5s.672-1.5 1.5-1.5c.825,0 1.5,.672 1.5,1.5 0,.828-.675,1.5-1.5,1.5zm0-6c-.828,0-1.5-.672-1.5-1.5s.672-1.5 1.5-1.5c.825,0 1.5,.672 1.5,1.5s-.675,1.5-1.5,1.5zm3-6c-.828,0-1.5-.672-1.5-1.5s.672-1.5 1.5-1.5c.825,0 1.5,.672 1.5,1.5s-.675,1.5-1.5,1.5zm3,24c-.828,0-1.5-.672-1.5-1.5s.672-1.5 1.5-1.5c.825,0 1.5,.672 1.5,1.5s-.675,1.5-1.5,1.5zm0-6c-.828,0-1.5-.672-1.5-1.5s.672-1.5 1.5-1.5c.825,0 1.5,.672 1.5,1.5s-.675,1.5-1.5,1.5zm0-6c-.828,0-1.5-.672-1.5-1.5s.672-1.5 1.5-1.5c.825,0 1.5,.672 1.5,1.5 0,.828-.675,1.5-1.5,1.5zm0-6c-.828,0-1.5-.672-1.5-1.5s.672-1.5 1.5-1.5c.825,0 1.5,.672 1.5,1.5s-.675,1.5-1.5,1.5zm3-6c-.828,0-1.5-.672-1.5-1.5s.672-1.5 1.5-1.5c.825,0 1.5,.672 1.5,1.5s-.675,1.5-1.5,1.5zm3,24c-.828,0-1.5-.672-1.5-1.5s.672-1.5 1.5-1.5c.825,0 1.5,.672 1.5,1.5s-.675,1.5-1.5,1.5zm0-6c-.828,0-1.5-.672-1.5-1.5s.672-1.5 1.5-1.5c.825,0 1.5,.672 1.5,1.5s-.675,1.5-1.5,1.5zm0-6c-.828,0-1.5-.672-1.5-1.5s.672-1.5 1.5-1.5c.825,0 1.5,.672 1.5,1.5 0,.828-.675,1.5-1.5,1.5zm0-6c-.828,0-1.5-.672-1.5-1.5s.672-1.5 1.5-1.5c.825,0 1.5,.672 1.5,1.5s-.675,1.5-1.5,1.5z"/>
</svg>
