<svg width="96" xmlns="http://www.w3.org/2000/svg" height="96" viewBox="0 0 96 96" xmlns:xlink="http://www.w3.org/1999/xlink">
<path d="m25.5,15h-9c-.828,0-1.5,.672-1.5,1.5v9c0,.828 .672,1.5 1.5,1.5s1.5-.672 1.5-1.5v-7.5h7.5c.828,0 1.5-.672 1.5-1.5s-.672-1.5-1.5-1.5zm9,3h9c.825,0 1.5-.672 1.5-1.5s-.675-1.5-1.5-1.5h-9c-.828,0-1.5,.672-1.5,1.5s.672,1.5 1.5,1.5zm27-3h-9c-.828,0-1.5,.672-1.5,1.5s.672,1.5 1.5,1.5h9c.825,0 1.5-.672 1.5-1.5s-.675-1.5-1.5-1.5zm18,0h-9c-.828,0-1.5,.672-1.5,1.5s.672,1.5 1.5,1.5h7.5v7.5c0,.828 .672,1.5 1.5,1.5 .825,0 1.5-.672 1.5-1.5v-9c0-.828-.675-1.5-1.5-1.5zm0,18c-.828,0-1.5,.672-1.5,1.5v9c0,.828 .672,1.5 1.5,1.5 .825,0 1.5-.672 1.5-1.5v-9c0-.828-.675-1.5-1.5-1.5zm0,18c-.828,0-1.5,.672-1.5,1.5v9c0,.828 .672,1.5 1.5,1.5 .825,0 1.5-.672 1.5-1.5v-9c0-.828-.675-1.5-1.5-1.5zm0,18c-.828,0-1.5,.672-1.5,1.5v7.5h-7.5c-.828,0-1.5,.672-1.5,1.5s.672,1.5 1.5,1.5h9c.825,0 1.5-.672 1.5-1.5v-9c0-.828-.675-1.5-1.5-1.5zm-18,9h-9c-.828,0-1.5,.672-1.5,1.5s.672,1.5 1.5,1.5h9c.825,0 1.5-.672 1.5-1.5s-.675-1.5-1.5-1.5zm-18,0h-9c-.828,0-1.5,.672-1.5,1.5s.672,1.5 1.5,1.5h9c.825,0 1.5-.672 1.5-1.5s-.675-1.5-1.5-1.5zm-18,0h-7.5v-7.5c0-.828-.672-1.5-1.5-1.5s-1.5,.672-1.5,1.5v9c0,.828 .672,1.5 1.5,1.5h9c.828,0 1.5-.672 1.5-1.5s-.672-1.5-1.5-1.5zm-9-15c.828,0 1.5-.672 1.5-1.5v-9c0-.828-.672-1.5-1.5-1.5s-1.5,.672-1.5,1.5v9c0,.828 .672,1.5 1.5,1.5zm0-18c.828,0 1.5-.672 1.5-1.5v-9c0-.828-.672-1.5-1.5-1.5s-1.5,.672-1.5,1.5v9c0,.828 .672,1.5 1.5,1.5zm19.314,6h24c1.659,0 3-1.344 3-3 0-1.659-1.341-3-3-3h-24c-1.659,0-3,1.341-3,3 0,1.656 1.341,3 3,3z"/>
</svg>
