<svg width="96" xmlns="http://www.w3.org/2000/svg" height="96" viewBox="0 0 96 96" xmlns:xlink="http://www.w3.org/1999/xlink">
<path d="m42.051,27.906h11.802v-4.428h-11.802v4.428zm11.715,1.473h-11.715c0,0-19.275,18.999-19.275,37.626 0,19.737 20.196,21.306 20.196,21.306s6.024,.999 9.771,0c0,0 20.478-2.4 20.478-21.21 .003-18.816-19.455-37.722-19.455-37.722zm.867,39.99c-.474,.96-1.113,1.764-1.929,2.406-.813,.645-1.764,1.128-2.847,1.452-.138,.042-.288,.057-.429,.093v3.276h-2.949v-2.892c-.036,.003-.072,.009-.108,.009-.837,0-1.614-.066-2.334-.201-.717-.138-1.35-.303-1.902-.492-.552-.192-1.011-.393-1.377-.603-.369-.21-.636-.396-.798-.558-.165-.162-.279-.396-.348-.702-.066-.309-.102-.747-.102-1.323 0-.387 .012-.711 .039-.975s.063-.474 .123-.639c.057-.165 .129-.279 .222-.348 .093-.066 .204-.102 .327-.102 .177,0 .423,.102 .741,.309 .318,.207 .726,.435 1.227,.684 .501,.252 1.095,.477 1.791,.687 .693,.204 1.497,.309 2.409,.309 .6,0 1.137-.072 1.611-.216s.879-.345 1.209-.609c.333-.264 .585-.588 .759-.975 .177-.39 .264-.819 .264-1.299 0-.549-.153-1.02-.45-1.416-.3-.393-.693-.741-1.173-1.05-.48-.306-1.026-.591-1.638-.861s-1.245-.555-1.893-.852c-.651-.3-1.281-.639-1.893-1.023-.612-.381-1.161-.834-1.641-1.365s-.87-1.161-1.173-1.884c-.3-.723-.447-1.593-.447-2.604 0-1.164 .216-2.184 .645-3.063 .432-.879 1.014-1.611 1.743-2.19 .732-.579 1.593-1.014 2.586-1.302 .51-.147 1.038-.255 1.578-.324v-3.105h2.949v3.102c.12,.015 .237,.009 .354,.027 .573,.087 1.113,.204 1.611,.354 .498,.147 .942,.315 1.329,.501s.645,.339 .768,.465c.129,.123 .21,.228 .258,.315 .042,.087 .075,.204 .111,.348 .03,.144 .054,.324 .063,.546 .012,.216 .018,.489 .018,.813 0,.363-.012,.672-.03,.924-.018,.249-.048,.456-.093,.618-.042,.165-.105,.282-.186,.357s-.186,.111-.327,.111c-.135,0-.357-.084-.657-.258-.3-.177-.669-.363-1.101-.567-.438-.204-.942-.39-1.518-.561-.579-.168-1.209-.249-1.893-.249-.54,0-1.008,.063-1.407,.195-.402,.129-.735,.312-1.005,.54-.267,.231-.468,.51-.597,.831-.132,.321-.195,.666-.195,1.026 0,.54 .147,1.005 .438,1.398s.687,.744 1.182,1.05c.492,.309 1.053,.594 1.68,.861 .624,.27 1.26,.555 1.911,.852 .651,.303 1.284,.642 1.911,1.023s1.185,.837 1.671,1.368 .879,1.155 1.179,1.872c.3,.72 .45,1.563 .45,2.541-.003,1.266-.243,2.382-.717,3.345zm-.96-47.367l5.994-14.757c0,0-3.78,3.138-5.994,3.138s-5.721-3.045-5.721-3.045-3.78,3.045-5.994,3.045c-2.211,0-5.811-2.952-5.811-2.952l6.087,14.571h11.439z"/>
</svg>
