<svg width="96" xmlns="http://www.w3.org/2000/svg" height="96" viewBox="0 0 96 96" xmlns:xlink="http://www.w3.org/1999/xlink">
<path d="m57.546,78.984c-16.905,0-30.78-13.968-30.78-30.984 0-17.145 13.617-30.984 31.119-30.984 6,0 12,2.418 12,2.418-6.831-4.8-13.935-7.197-21.312-7.197-10.026,0-18.54,3.471-25.548,10.416s-10.509,15.393-10.509,25.347c0,9.891 3.489,18.324 10.464,25.302s15.408,10.464 25.302,10.464c12.786,0 20.616-6.603 21.603-7.248 0,0-6.339,2.466-12.339,2.466zm7.113-29.004l-3.192,9.912 8.421-6.09 8.373,6.09-3.192-9.912 8.421-6.06h-10.41l-3.195-9.894-3.24,9.894h-10.407l8.421,6.06z"/>
</svg>
