<svg width="96" xmlns="http://www.w3.org/2000/svg" height="96" viewBox="0 0 96 96" xmlns:xlink="http://www.w3.org/1999/xlink">
<path d="m68.868,92.916h-14.952c-9.912,0-17.943-8.034-17.943-17.943v-26.916h18.132v5.982c0,3.303 2.49,5.979 5.796,5.979h2.988c3.306,0 5.982-2.679 5.982-5.979v-5.982h18.129v26.916c0,9.909-8.223,17.943-18.132,17.943zm-0-50.841c0-3.303-2.679-5.982-5.982-5.982v-17.757c0,0-3.924-.186 5.796-.186 9.72,0 18.318,6.354 18.318,17.943 0,5.949 0,8.094 0,8.784h-18.132v-2.802zm-8.754-25.95c0-5.781-2.721-9-8.169-9-5.763,0-10.173,4.152-13.227,12.453l-.627,1.701c-3.573,9.705-8.811,14.559-15.705,14.559-2.784,0-5.382-1.062-7.797-3.18-2.415-2.121-3.621-4.398-3.621-6.837 0-1.206 .564-1.812 1.698-1.812 .765,0 1.554,.963 2.367,2.886 1.476,3.552 3.942,5.328 7.392,5.328 2.613,0 4.749-.843 6.414-2.535 1.665-1.689 3.558-4.938 5.676-9.747l1.368-3.033c4.017-8.976 9.429-13.464 16.227-13.464 7.791,0 11.685,4.446 11.685,12.681h-3.681zm5.763,27.444v8.97c0,2.478-2.007,4.485-4.485,4.485s-4.485-2.007-4.485-4.485v-8.97c0-2.478 2.007-4.488 4.485-4.488s4.485,2.01 4.485,4.488zm-11.775-25.419c9.717,0 5.979,.186 5.979,.186v17.757c-3.303,0-5.979,2.679-5.979,5.982v2.805h-18.132c0-.69 0-2.835 0-8.784 0-11.592 8.412-17.946 18.132-17.946z"/>
</svg>
