<svg width="96" xmlns="http://www.w3.org/2000/svg" height="96" viewBox="0 0 96 96" xmlns:xlink="http://www.w3.org/1999/xlink">
<path d="m77.283,75.015h-8.172v6.492c0,4.638-4.134,8.394-8.772,8.394h-30.924c-4.638,0-8.397-3.756-8.397-8.394v-45.3h8.994v44.715h5.964l.006-44.715c1.602,1.155 4.002,2.013 6.024,2.469v42.249h5.964v-42.075c2.235-.369 4.284-1.209 6.048-2.421v44.496h5.964v-44.718h17.298c3.708,0 6.717,3.006 6.717,6.717v25.371c.003,3.711-3.006,6.72-6.714,6.72zm.69-32.985h-8.865v26.955h8.865v-26.955zm-14.307-8.604c-2.937,0-5.589-1.173-7.551-3.063-2.436,3.441-6.426,5.706-10.959,5.706-4.371,0-8.214-2.121-10.671-5.352-1.944,1.797-4.524,2.919-7.38,2.919-5.265,0-9.657-3.729-10.686-8.688-1.602-1.05-2.661-2.856-2.661-4.911 0-3.246 2.631-5.877 5.877-5.877 .24,0 .471,.042 .702,.069 1.815-1.443 4.077-2.355 6.567-2.403 1.119-3.318 4.224-5.727 7.923-5.727 2.847,0 5.352,1.425 6.873,3.591 1.104-.3 2.253-.486 3.453-.486 1.254,0 2.448,.21 3.597,.537 1.515-2.196 4.044-3.642 6.912-3.642 3.621,0 6.678,2.304 7.857,5.514 .051,0 .093-.015 .144-.015 6.03,0 10.917,4.887 10.917,10.914s-4.887,10.914-10.914,10.914z"/>
</svg>
