<svg width="99" xmlns="http://www.w3.org/2000/svg" height="96" viewBox="0 0 99 96" xmlns:xlink="http://www.w3.org/1999/xlink">
<path d="m94.875,41.814c-1.524,0-5.193,1.689-7.809,3h-5.955c-.36-7.629-3.423-14.535-8.265-19.8l3.936-3.939c2.796-.915 6.906-2.397 8.037-3.528 1.758-1.758 1.758-4.608 0-6.366-1.758-1.755-4.605-1.755-6.363,0-1.077,1.077-2.478,4.872-3.399,7.644l-4.209,4.206c-5.289-4.815-12.21-7.836-19.848-8.154v-5.571c1.326-2.625 3.186-6.582 3.186-8.181 0-2.484-2.016-4.5-4.5-4.5s-4.5,2.016-4.5,4.5c0,1.524 1.689,5.193 3,7.809v5.955c-7.629,.36-14.538,3.42-19.803,8.265l-3.936-3.939c-.915-2.796-2.4-6.909-3.531-8.04-1.755-1.755-4.605-1.755-6.363,0-1.758,1.758-1.758,4.608 0,6.366 1.077,1.08 4.869,2.478 7.641,3.399l4.209,4.209c-4.773,5.247-7.782,12.099-8.139,19.662h-5.955c-2.613-1.311-6.282-3-7.809-3-2.487,0-4.5,2.016-4.5,4.5s2.013,4.5 4.5,4.5c1.599,0 5.556-1.86 8.181-3.186h5.574c.315,7.638 3.339,14.559 8.151,19.848l-4.206,4.209c-2.775,.921-6.564,2.319-7.644,3.399-1.758,1.758-1.758,4.608 0,6.363 1.758,1.758 4.608,1.758 6.363,0 1.131-1.128 2.613-5.238 3.531-8.034l3.939-3.939c5.265,4.842 12.171,7.905 19.8,8.265v5.955c-1.311,2.613-3,6.285-3,7.809 0,2.484 2.016,4.5 4.5,4.5s4.5-2.016 4.5-4.5c0-1.599-1.86-5.556-3.186-8.181v-5.574c7.638-.312 14.559-3.336 19.848-8.148l4.209,4.206c.921,2.772 2.319,6.564 3.399,7.641 1.758,1.758 4.605,1.758 6.363,0 1.758-1.755 1.758-4.605 0-6.363-1.131-1.131-5.241-2.613-8.037-3.531l-3.936-3.936c4.884-5.31 7.956-12.285 8.274-19.989h5.574c2.625,1.329 6.579,3.186 8.181,3.186 2.484,0 4.5-2.016 4.5-4.5s-2.019-4.497-4.503-4.497zm-64.23-12.42l10.656,10.656c-1.026,1.371-1.707,2.991-1.965,4.761h-15.072c.345-5.907 2.688-11.265 6.381-15.417zm-6.393,18.231h15.066c.234,1.845 .924,3.534 1.986,4.95l-10.659,10.656c-3.729-4.194-6.084-9.624-6.393-15.606zm23.934,24.111c-5.976-.348-11.385-2.742-15.558-6.51l10.65-10.65c1.401,1.086 3.069,1.818 4.908,2.082v15.078zm0-35.772c-1.839,.264-3.507,.999-4.908,2.085l-10.65-10.65c4.173-3.765 9.582-6.162 15.558-6.51v15.075zm26.925,8.85h-15.075c-.264-1.836-.996-3.507-2.082-4.908l10.65-10.65c3.765,4.17 6.159,9.582 6.507,15.558zm-8.505-17.544l-10.656,10.659c-1.419-1.062-3.105-1.752-4.95-1.986v-15.066c5.982,.309 11.412,2.664 15.606,6.393zm-15.606,44.475v-15.063c1.845-.234 3.534-.924 4.95-1.983l10.656,10.656c-4.194,3.729-9.624,6.084-15.606,6.39zm17.601-8.376l-10.65-10.65c1.125-1.446 1.863-3.186 2.103-5.094h15.063c-.303,6.051-2.709,11.532-6.516,15.744z"/>
</svg>
