<svg width="96" xmlns="http://www.w3.org/2000/svg" height="96" viewBox="0 0 96 96" xmlns:xlink="http://www.w3.org/1999/xlink">
<path d="m46.5,9c-22.368,0-40.5,18.132-40.5,40.5s18.132,40.5 40.5,40.5 40.5-18.132 40.5-40.5-18.132-40.5-40.5-40.5zm0,72c-17.397,0-31.5-14.103-31.5-31.5s14.103-31.5 31.5-31.5 31.5,14.103 31.5,31.5-14.103,31.5-31.5,31.5zm0-51c-2.484,0-4.5,2.013-4.5,4.5v15.186c0,2.484 2.016,4.5 4.5,4.5s4.5-2.016 4.5-4.5v-15.186c0-2.487-2.016-4.5-4.5-4.5zm0,30c-2.484,0-4.5,2.016-4.5,4.5s2.016,4.5 4.5,4.5 4.5-2.016 4.5-4.5-2.016-4.5-4.5-4.5z"/>
</svg>
