<svg width="96" xmlns="http://www.w3.org/2000/svg" height="96" viewBox="0 0 96 96" xmlns:xlink="http://www.w3.org/1999/xlink">
<path d="m48,9c-21.54,0-39,17.46-39,39s17.46,39 39,39 39-17.46 39-39-17.46-39-39-39zm10.638,53.04c-2.517,3.411-6.009,5.115-10.476,5.115-3.57,0-6.48-.957-8.733-2.877-2.25-1.923-3.597-4.506-4.038-7.746l7.407-.768c.21,1.677 .834,3 1.869,3.972 1.035,.978 2.226,1.464 3.576,1.464 1.545,0 2.847-.627 3.921-1.881 1.065-1.254 1.602-3.147 1.602-5.679 0-2.37-.534-4.149-1.596-5.334-1.065-1.185-2.454-1.779-4.164-1.779-2.13,0-4.044,.936-5.733,2.814l-5.991-.867 3.798-20.133h19.593v6.936h-13.974l-1.191,6.576c1.659-.819 3.351-1.233 5.079-1.233 3.297,0 6.09,1.197 8.385,3.588 2.292,2.391 3.438,5.496 3.438,9.309-.003,3.186-.927,6.027-2.772,8.523z"/>
</svg>
