<svg width="96" xmlns="http://www.w3.org/2000/svg" height="96" viewBox="0 0 96 96" xmlns:xlink="http://www.w3.org/1999/xlink">
<path d="m48,9c-21.54,0-39,17.46-39,39s17.46,39 39,39 39-17.46 39-39-17.46-39-39-39zm0,72c-18.225,0-33-14.775-33-33s14.775-33 33-33 33,14.775 33,33-14.775,33-33,33zm3.618-34.821c1.311-.573 2.328-1.404 3.054-2.493s1.086-2.328 1.086-3.723c0-2.244-.792-4.095-2.367-5.559-1.581-1.461-3.801-2.193-6.657-2.193-2.886,0-5.109,.732-6.675,2.193-1.566,1.464-2.349,3.315-2.349,5.559 0,1.314 .339,2.52 1.014,3.621 .681,1.101 1.761,1.965 3.252,2.595-1.734,.741-3.003,1.791-3.81,3.153-.804,1.362-1.206,2.859-1.206,4.488 0,2.958 1.071,5.289 3.216,6.984 1.815,1.437 4.092,2.157 6.825,2.157 2.937,0 5.292-.87 7.062-2.61 1.77-1.737 2.655-3.996 2.655-6.777 0-1.686-.435-3.171-1.302-4.458s-2.13-2.265-3.798-2.937zm-7.461-8.412c.657-.657 1.536-.984 2.643-.984 1.065,0 1.923,.324 2.571,.975 .648,.648 .972,1.515 .972,2.595 0,1.149-.327,2.049-.984,2.697-.657,.651-1.53,.975-2.622,.975-1.08,0-1.941-.321-2.592-.963-.648-.642-.972-1.539-.972-2.688 0-1.08 .327-1.95 .984-2.607zm5.697,19.272c-.783,.855-1.767,1.284-2.955,1.284-1.215,0-2.232-.441-3.048-1.332-.813-.891-1.218-2.133-1.218-3.72 0-1.137 .345-2.193 1.038-3.168 .69-.972 1.74-1.458 3.147-1.458 1.218,0 2.223,.429 3.018,1.284 .792,.858 1.188,1.992 1.188,3.399 0,1.614-.39,2.853-1.17,3.711z"/>
</svg>
