<svg width="96" xmlns="http://www.w3.org/2000/svg" height="96" viewBox="0 0 96 96" xmlns:xlink="http://www.w3.org/1999/xlink">
<path d="m47.79,34.329c-1.377,0-2.52,.54-3.429,1.617-.909,1.08-1.362,2.847-1.362,5.304 0,2.49 .495,4.317 1.482,5.484 .987,1.17 2.223,1.752 3.702,1.752 1.431,0 2.634-.564 3.612-1.686s1.467-2.772 1.467-4.947c0-2.385-.552-4.236-1.653-5.553s-2.376-1.971-3.819-1.971zm.21-25.329c-21.54,0-39,17.46-39,39s17.46,39 39,39 39-17.46 39-39-17.46-39-39-39zm9.639,54.009c-2.613,3.132-6.018,4.695-10.209,4.695-3.021,0-5.457-.81-7.317-2.421-1.86-1.617-3.054-4.029-3.579-7.239l7.173-.795c.177,1.464 .633,2.55 1.368,3.255 .732,.705 1.704,1.059 2.916,1.059 1.524,0 2.82-.702 3.891-2.115 1.065-1.413 1.749-4.332 2.049-8.769-1.866,2.163-4.197,3.243-6.996,3.243-3.045,0-5.673-1.173-7.881-3.516-2.208-2.346-3.312-5.397-3.312-9.156 0-3.915 1.167-7.071 3.495-9.468 2.331-2.397 5.301-3.594 8.907-3.594 3.921,0 7.14,1.518 9.657,4.551 2.514,3.033 3.771,8.025 3.771,14.97-.009,7.071-1.317,12.168-3.933,15.3z"/>
</svg>
