<svg width="96" xmlns="http://www.w3.org/2000/svg" height="96" viewBox="0 0 96 96" xmlns:xlink="http://www.w3.org/1999/xlink">
<path d="m48,9c-21.54,0-39,17.46-39,39s17.46,39 39,39 39-17.46 39-39-17.46-39-39-39zm0,72c-18.225,0-33-14.775-33-33s14.775-33 33-33 33,14.775 33,33-14.775,33-33,33zm.777-39.333c-1.341,0-2.658,.321-3.939,.963l.915-5.112h10.866v-5.391h-15.234l-2.955,15.657 4.671,.681c1.314-1.47 2.796-2.202 4.452-2.202 1.326,0 2.403,.462 3.231,1.386s1.242,2.31 1.242,4.158c0,1.971-.42,3.444-1.251,4.425-.834,.981-1.854,1.467-3.06,1.467-1.053,0-1.983-.378-2.79-1.137-.81-.756-1.293-1.785-1.458-3.081l-5.739,.594c.342,2.517 1.386,4.518 3.138,6.009 1.752,1.488 4.014,2.232 6.792,2.232 3.474,0 6.186-1.323 8.145-3.981 1.437-1.941 2.151-4.152 2.151-6.63 0-2.967-.888-5.382-2.667-7.245-1.785-1.863-3.954-2.793-6.51-2.793z"/>
</svg>
