<svg width="96" xmlns="http://www.w3.org/2000/svg" height="96" viewBox="0 0 96 96" xmlns:xlink="http://www.w3.org/1999/xlink">
<path d="m50.214,34.434c-.699-.57-1.5-.858-2.403-.858s-1.707,.288-2.415,.858c-.708,.573-1.257,1.596-1.647,3.072-.513,1.917-.768,5.142-.768,9.678s.228,7.653 .687,9.348 1.041,2.823 1.737,3.39c.699,.564 1.5,.84 2.403,.84s1.704-.285 2.415-.855 1.254-1.596 1.647-3.072c.51-1.899 .768-5.115 .768-9.651s-.228-7.653-.69-9.348c-.459-1.695-1.035-2.829-1.734-3.402zm-2.214-25.434c-21.54,0-39,17.46-39,39s17.46,39 39,39 39-17.46 39-39-17.46-39-39-39zm8.574,53.949c-2.094,2.637-5.016,3.954-8.763,3.954-3.765,0-6.801-1.443-9.105-4.335s-3.456-8.046-3.456-15.462c0-7.278 1.266-12.516 3.801-15.714 2.094-2.637 5.016-3.954 8.763-3.954s6.678,1.335 8.79,4.008c2.514,3.165 3.774,8.409 3.774,15.741-.003,7.311-1.272,12.567-3.804,15.762z"/>
</svg>
