<svg width="96" xmlns="http://www.w3.org/2000/svg" height="96" viewBox="0 0 96 96" xmlns:xlink="http://www.w3.org/1999/xlink">
<path d="m48,9c-21.54,0-39,17.46-39,39s17.46,39 39,39 39-17.46 39-39-17.46-39-39-39zm0,72c-18.225,0-33-14.775-33-33s14.775-33 33-33 33,14.775 33,33-14.775,33-33,33zm3.744-35.343c2.889-1.575 4.329-3.684 4.329-6.324 0-1.863-.702-3.531-2.115-5.01-1.713-1.806-3.99-2.709-6.825-2.709-1.659,0-3.156,.312-4.491,.933s-2.376,1.479-3.126,2.565c-.744,1.086-1.305,2.541-1.677,4.362l5.319,.906c.153-1.317 .579-2.316 1.278-3.003 .702-.687 1.548-1.029 2.535-1.029 1.002,0 1.809,.303 2.412,.903 .603,.603 .906,1.413 .906,2.427 0,1.194-.414,2.148-1.239,2.871-.819,.72-2.019,1.059-3.585,1.017l-.639,4.695c1.032-.288 1.914-.432 2.655-.432 1.122,0 2.073,.423 2.856,1.269 .783,.846 1.173,1.995 1.173,3.441 0,1.527-.408,2.742-1.221,3.642-.816,.9-1.821,1.35-3.012,1.35-1.11,0-2.058-.375-2.835-1.125-.783-.75-1.26-1.836-1.437-3.258l-5.577,.678c.288,2.529 1.326,4.575 3.12,6.141 1.794,1.566 4.05,2.346 6.774,2.346 2.871,0 5.274-.927 7.203-2.787 1.932-1.857 2.895-4.104 2.895-6.741 0-1.815-.516-3.366-1.545-4.65-1.038-1.281-2.412-2.109-4.131-2.478z"/>
</svg>
