<svg width="96" xmlns="http://www.w3.org/2000/svg" height="96" viewBox="0 0 96 96" xmlns:xlink="http://www.w3.org/1999/xlink">
<path d="m48.186,48.111c-1.428,0-2.631,.558-3.615,1.674-.987,1.116-1.479,2.763-1.479,4.941 0,2.409 .555,4.266 1.665,5.574 1.107,1.311 2.373,1.965 3.801,1.965 1.371,0 2.517-.54 3.432-1.611s1.371-2.826 1.371-5.271c0-2.514-.492-4.353-1.476-5.523s-2.22-1.749-3.699-1.749zm-.186-39.111c-21.54,0-39,17.46-39,39s17.46,39 39,39 39-17.46 39-39-17.46-39-39-39zm9.141,55.821c-2.319,2.391-5.304,3.582-8.94,3.582-3.906,0-7.116-1.515-9.63-4.548-2.517-3.033-3.774-8.001-3.774-14.91 0-7.083 1.314-12.189 3.936-15.318 2.619-3.129 6.024-4.692 10.212-4.692 2.937,0 5.37,.825 7.296,2.475 1.929,1.653 3.156,4.047 3.684,7.188l-7.173,.789c-.177-1.47-.636-2.559-1.374-3.258-.741-.702-1.701-1.053-2.883-1.053-1.569,0-2.898,.699-3.981,2.103-1.083,1.401-1.767,4.32-2.049,8.76 1.845-2.178 4.143-3.267 6.891-3.267 3.096,0 5.748,1.176 7.956,3.528s3.312,5.391 3.312,9.114c0,3.954-1.161,7.122-3.483,9.507z"/>
</svg>
