<svg width="96" xmlns="http://www.w3.org/2000/svg" height="96" viewBox="0 0 96 96" xmlns:xlink="http://www.w3.org/1999/xlink">
<path d="m48,9c-21.54,0-39,17.46-39,39s17.46,39 39,39 39-17.46 39-39-17.46-39-39-39zm0,72c-18.225,0-33-14.775-33-33s14.775-33 33-33 33,14.775 33,33-14.775,33-33,33zm1.56-36.945c-2.133,0-3.915,.846-5.352,2.544 .219-3.453 .747-5.724 1.587-6.813s1.866-1.635 3.084-1.635c.915,0 1.659,.273 2.232,.819s.93,1.389 1.065,2.535l5.577-.615c-.411-2.43-1.365-4.281-2.862-5.559-1.497-1.275-3.387-1.914-5.67-1.914-3.255,0-5.901,1.215-7.938,3.651-2.037,2.433-3.054,6.405-3.054,11.916 0,5.373 .975,9.24 2.934,11.598 1.953,2.358 4.449,3.54 7.488,3.54 2.832,0 5.151-.933 6.954-2.793 1.809-1.863 2.709-4.335 2.709-7.416 0-2.904-.861-5.271-2.574-7.104-1.713-1.839-3.774-2.754-6.18-2.754zm2.043,14.025c-.708,.834-1.599,1.251-2.664,1.251-1.104,0-2.088-.51-2.949-1.53s-1.29-2.469-1.29-4.347c0-1.698 .381-2.985 1.146-3.855s1.701-1.308 2.808-1.308c1.146,0 2.103,.456 2.868,1.368s1.149,2.346 1.149,4.308c0,1.908-.357,3.279-1.068,4.113z"/>
</svg>
