<svg width="96" xmlns="http://www.w3.org/2000/svg" height="96" viewBox="0 0 96 96" xmlns:xlink="http://www.w3.org/1999/xlink">
<path d="m48,9c-21.54,0-39,17.46-39,39s17.46,39 39,39 39-17.46 39-39-17.46-39-39-39zm0,72c-18.225,0-33-14.775-33-33s14.775-33 33-33 33,14.775 33,33-14.775,33-33,33zm-1.173-46.989c-2.805,0-5.112,.933-6.927,2.799-1.812,1.866-2.715,4.326-2.715,7.374 0,2.928 .858,5.304 2.571,7.128 1.716,1.824 3.759,2.739 6.123,2.739 2.175,0 3.984-.843 5.436-2.526-.231,3.447-.765,5.718-1.596,6.813-.834,1.092-1.842,1.641-3.033,1.641-.942,0-1.698-.276-2.274-.822s-.93-1.392-1.065-2.529l-5.574,.615c.411,2.499 1.338,4.377 2.787,5.631 1.449,1.257 3.351,1.887 5.7,1.887 3.27,0 5.919-1.218 7.956-3.657 2.037-2.436 3.057-6.405 3.057-11.904 0-5.406-.978-9.288-2.934-11.649-1.956-2.358-4.461-3.54-7.512-3.54zm2.838,14.508c-.756,.876-1.686,1.314-2.793,1.314-1.146,0-2.103-.453-2.868-1.365s-1.146-2.337-1.146-4.278c0-1.914 .351-3.294 1.053-4.134 .705-.84 1.587-1.26 2.655-1.26 1.119,0 2.103,.513 2.958,1.539 .852,1.026 1.281,2.469 1.281,4.329 0,1.695-.378,2.979-1.14,3.855z"/>
</svg>
