<svg width="96" xmlns="http://www.w3.org/2000/svg" height="96" viewBox="0 0 96 96" xmlns:xlink="http://www.w3.org/1999/xlink">
<path d="m48,9c-21.54,0-39,17.46-39,39s17.46,39 39,39 39-17.46 39-39-17.46-39-39-39zm8.985,55.071c-2.478,2.391-5.562,3.582-9.258,3.582-3.498,0-6.399-1.005-8.7-3.015-2.307-2.01-3.642-4.635-4.011-7.881l7.173-.867c.228,1.821 .843,3.213 1.848,4.179 .999,.963 2.214,1.446 3.639,1.446 1.53,0 2.817-.582 3.867-1.746 1.044-1.161 1.566-2.727 1.566-4.698 0-1.863-.501-3.345-1.503-4.437-1.005-1.092-2.226-1.635-3.669-1.635-.951,0-2.085,.186-3.408,.552l.816-5.991c2.004,.054 3.534-.381 4.587-1.302 1.053-.921 1.578-2.145 1.578-3.672 0-1.299-.384-2.331-1.155-3.105-.774-.771-1.797-1.158-3.075-1.158-1.263,0-2.337,.438-3.231,1.314-.894,.879-1.437,2.16-1.632,3.843l-6.843-1.158c.474-2.346 1.191-4.221 2.151-5.625s2.295-2.505 4.008-3.309 3.636-1.203 5.763-1.203c3.639,0 6.558,1.161 8.754,3.483 1.812,1.899 2.715,4.044 2.715,6.435 0,3.393-1.857,6.102-5.574,8.124 2.217,.474 3.99,1.539 5.316,3.189 1.329,1.653 1.992,3.645 1.992,5.982 .003,3.396-1.236,6.285-3.714,8.673z"/>
</svg>
