<svg width="96" xmlns="http://www.w3.org/2000/svg" height="96" viewBox="0 0 96 96" xmlns:xlink="http://www.w3.org/1999/xlink">
<path d="m48,9c-21.54,0-39,17.46-39,39s17.46,39 39,39 39-17.46 39-39-17.46-39-39-39zm0,72c-18.225,0-33-14.775-33-33s14.775-33 33-33 33,14.775 33,33-14.775,33-33,33zm4.692-27.669c1.821-1.668 3.081-2.946 3.78-3.834 1.053-1.341 1.821-2.625 2.31-3.846 .483-1.224 .726-2.514 .726-3.867 0-2.379-.849-4.371-2.544-5.97-1.695-1.599-4.026-2.4-6.993-2.4-2.706,0-4.962,.69-6.768,2.07s-2.88,3.654-3.219,6.825l5.742,.573c.108-1.68 .519-2.88 1.23-3.603 .708-.723 1.665-1.083 2.868-1.083 1.215,0 2.169,.345 2.856,1.035 .69,.69 1.038,1.68 1.038,2.964 0,1.161-.399,2.337-1.188,3.528-.585,.861-2.181,2.502-4.776,4.92-3.228,2.994-5.388,5.397-6.48,7.209-1.095,1.812-1.752,3.726-1.968,5.751h20.202v-5.343h-11.457c.303-.519 .693-1.053 1.182-1.602 .48-.549 1.635-1.656 3.459-3.327z"/>
</svg>
