<svg width="96" xmlns="http://www.w3.org/2000/svg" height="96" viewBox="0 0 96 96" xmlns:xlink="http://www.w3.org/1999/xlink">
<path d="m48,9c-21.54,0-39,17.46-39,39s17.46,39 39,39 39-17.46 39-39-17.46-39-39-39zm0,72c-18.225,0-33-14.775-33-33s14.775-33 33-33 33,14.775 33,33-14.775,33-33,33zm-.018-48.789c-2.919,0-5.187,1.026-6.816,3.078-1.971,2.49-2.955,6.564-2.955,12.222 0,5.769 .897,9.78 2.688,12.03s4.155,3.372 7.083,3.372c2.913,0 5.187-1.026 6.813-3.075 1.971-2.487 2.958-6.576 2.958-12.264 0-5.7-.978-9.783-2.937-12.246-1.641-2.076-3.921-3.117-6.834-3.117zm3.153,22.866c-.306,1.149-.729,1.944-1.278,2.391-.552,.444-1.179,.666-1.875,.666-.702,0-1.323-.219-1.866-.657s-.993-1.314-1.35-2.634-.534-3.744-.534-7.269 .198-6.036 .597-7.524c.3-1.149 .726-1.944 1.278-2.388 .549-.444 1.173-.666 1.875-.666 .696,0 1.317,.222 1.863,.666 .543,.444 .99,1.326 1.347,2.646s.54,3.744 .54,7.269-.198,6.024-.597,7.5z"/>
</svg>
