<svg width="96" xmlns="http://www.w3.org/2000/svg" height="96" viewBox="0 0 96 96" xmlns:xlink="http://www.w3.org/1999/xlink">
<path d="m48.642,49.986c-1.812,0-3.159,.627-4.047,1.887-.888,1.257-1.329,2.619-1.329,4.089 0,2.058 .522,3.66 1.566,4.812s2.349,1.728 3.915,1.728c1.53,0 2.796-.558 3.798-1.665s1.503-2.703 1.503-4.797c0-1.824-.51-3.291-1.53-4.398-1.02-1.104-2.313-1.656-3.876-1.656zm-.105-5.862c1.401,0 2.52-.42 3.36-1.254 .837-.837 1.26-1.995 1.26-3.474 0-1.392-.417-2.505-1.248-3.342-.831-.837-1.929-1.254-3.294-1.254-1.419,0-2.547,.423-3.387,1.266-.84,.846-1.26,1.965-1.26,3.357 0,1.479 .417,2.634 1.245,3.462 .834,.825 1.941,1.239 3.324,1.239zm-.537-35.124c-21.54,0-39,17.46-39,39s17.46,39 39,39 39-17.46 39-39-17.46-39-39-39zm9.945,56.097c-2.277,2.238-5.304,3.357-9.078,3.357-3.516,0-6.438-.927-8.778-2.778-2.757-2.187-4.137-5.181-4.137-8.988 0-2.094 .519-4.02 1.56-5.772 1.038-1.752 2.676-3.105 4.911-4.059-1.917-.807-3.312-1.917-4.179-3.33-.873-1.413-1.308-2.958-1.308-4.644 0-2.877 1.005-5.253 3.018-7.131 2.013-1.875 4.875-2.814 8.583-2.814 3.675,0 6.528,.939 8.556,2.814 2.034,1.878 3.048,4.254 3.048,7.131 0,1.791-.465,3.381-1.398,4.776-.936,1.392-2.244,2.46-3.933,3.195 2.139,.864 3.765,2.124 4.878,3.78 1.113,1.656 1.671,3.567 1.671,5.733 0,3.585-1.14,6.492-3.414,8.73z"/>
</svg>
