<svg width="96" xmlns="http://www.w3.org/2000/svg" height="96" viewBox="0 0 96 96" xmlns:xlink="http://www.w3.org/1999/xlink">
<path d="m48,9c-21.54,0-39,17.46-39,39s17.46,39 39,39 39-17.46 39-39-17.46-39-39-39zm0,72c-18.225,0-33-14.775-33-33s14.775-33 33-33 33,14.775 33,33-14.775,33-33,33zm-9.768-41.127h13.113c-2.706,3.408-4.869,7.275-6.486,11.601-1.62,4.323-2.478,8.568-2.571,12.729h5.556c-.015-2.655 .42-5.667 1.302-9.036 .879-3.372 2.163-6.555 3.84-9.552 1.68-2.994 3.33-5.292 4.959-6.891v-4.194h-19.71v5.343z"/>
</svg>
