<svg width="96" xmlns="http://www.w3.org/2000/svg" height="96" viewBox="0 0 96 96" xmlns:xlink="http://www.w3.org/1999/xlink">
<path d="m48,9c-21.54,0-39,17.46-39,39s17.46,39 39,39 39-17.46 39-39-17.46-39-39-39zm13.026,52.278v6.891h-25.968c.279-2.601 1.122-5.064 2.529-7.395 1.404-2.328 4.179-5.421 8.322-9.27 3.333-3.111 5.379-5.22 6.135-6.327 1.02-1.53 1.53-3.042 1.53-4.536 0-1.653-.441-2.925-1.323-3.813s-2.1-1.332-3.657-1.332c-1.536,0-2.76,.468-3.669,1.401s-1.434,2.481-1.569,4.647l-7.407-.741c.438-4.077 1.815-7.005 4.134-8.784 2.316-1.776 5.217-2.664 8.694-2.664 3.81,0 6.804,1.029 8.982,3.084 2.178,2.058 3.267,4.614 3.267,7.671 0,1.74-.312,3.396-.936,4.968s-1.611,3.222-2.964,4.941c-.897,1.14-2.517,2.787-4.863,4.932-2.343,2.142-3.828,3.564-4.452,4.266-.624,.705-1.128,1.389-1.515,2.058h14.73z"/>
</svg>
