<svg width="96" xmlns="http://www.w3.org/2000/svg" height="96" viewBox="0 0 96 96" xmlns:xlink="http://www.w3.org/1999/xlink">
<path d="m84,93h-72c-4.971,0-9-4.032-9-9v-42c0-4.971 4.029-9 9-9h72c4.968,0 9,4.029 9,9v42c0,4.968-4.032,9-9,9zm-60-38.877c-4.971,0-9,4.701-9,10.5 0,5.802 4.029,10.5 9,10.5 4.968,0 9-4.698 9-10.5 0-5.799-4.032-10.5-9-10.5zm23.34,2.571c-.345-.711-.807-1.266-1.374-1.659-.57-.396-1.278-.663-2.121-.804-.6-.111-1.47-.165-2.61-.165h-5.349v20.742h3.024v-6.048h2.526c2.43,0 4.104-1.068 5.037-2.079 .927-1.014 1.392-5.436 1.392-6.897-.003-.846-.177-2.379-.525-3.09zm15.732,15.141h-9.174v-6.024h8.868v-2.79h-8.868v-6.165h9.15v-2.79h-11.985v20.742h12.009v-2.973zm17.79-17.766h-2.742v15.93l-9.036-15.93h-3.081v20.742h2.931v-15.183l9.036,15.183h2.895v-20.742zm-39.396,11.721h-2.559v-8.931h2.514c1.029,0 1.734,.051 2.118,.153 .591,.165 1.071,.498 1.434,1.008 .363,.51 .546,1.125 .546,1.839 0,.99-.309,4.566-.927,5.112-.618,.546-1.659,.819-3.126,.819zm-17.469,6.585c-3.312,0-6-3.357-6-7.5s2.688-7.5 6-7.5 6,3.357 6,7.5-2.688,7.5-6,7.5zm51-39.375l-21.966-16.35c-1.032,.831-2.325,1.35-3.75,1.35-1.986,0-3.732-.975-4.821-2.463l-23.463,17.463h-3l25.479-19.554c-.114-.465-.195-.945-.195-1.446 0-3.312 2.688-6 6-6 3.315,0 6,2.688 6,6 0,1.077-.309,2.076-.807,2.952l23.523,18.048h-3z"/>
</svg>
