<svg width="96" xmlns="http://www.w3.org/2000/svg" height="96" viewBox="0 0 96 96" xmlns:xlink="http://www.w3.org/1999/xlink">
<path d="m90,87h-87c-1.659,0-3-1.344-3-3v-51h93v51c0,1.656-1.344,3-3,3zm-9-45c0-1.659-1.344-3-3-3h-63c-1.659,0-3,1.341-3,3v36c0,1.656 1.341,3 3,3h63c1.656,0 3-1.344 3-3v-36zm-54,3h39v3h-39v-3zm-27-27c0-1.659 1.341-3 3-3h6c0,0 .672-3 1.497-3h24.003c.825,0 1.5,3 1.5,3h21c0,0 .672-3 1.5-3h24c.825,0 1.5,3 1.5,3h6c1.656,0 3,1.341 3,3v12h-93v-12zm85.437,9.063c2.487,0 4.5-2.013 4.5-4.5 0-2.484-2.013-4.5-4.5-4.5-2.484,0-4.5,2.016-4.5,4.5 0,2.487 2.013,4.5 4.5,4.5zm-11.814,0c2.484,0 4.5-2.013 4.5-4.5 0-2.484-2.016-4.5-4.5-4.5s-4.5,2.016-4.5,4.5c0,2.487 2.016,4.5 4.5,4.5zm-12,0c2.487,0 4.5-2.013 4.5-4.5 0-2.484-2.013-4.5-4.5-4.5-2.484,0-4.5,2.016-4.5,4.5 0,2.487 2.016,4.5 4.5,4.5zm-12,0c2.484,0 4.5-2.013 4.5-4.5 0-2.484-2.016-4.5-4.5-4.5s-4.5,2.016-4.5,4.5c0,2.487 2.016,4.5 4.5,4.5z"/>
</svg>
