<svg width="96" xmlns="http://www.w3.org/2000/svg" height="96" viewBox="0 0 96 96" xmlns:xlink="http://www.w3.org/1999/xlink">
<path d="m8.313,64.347c-3.516,3.516-3.516,9.213 0,12.729l10.608,10.605c3.513,3.516 9.21,3.516 12.726,0l14.85-14.847-23.331-23.334-14.853,14.847zm16.974-16.968l23.334,23.334 19.089-19.092-23.331-23.334-19.092,19.092zm10.713,3.621h-3v-3h3v3zm6,6h-3v-3h3v3zm0-6h-3v-3h3v3zm0-6h-3v-3h3v3zm15,3h3v3h-3v-3zm-6-6h3v3h-3v-3zm0,6h3v3h-3v-3zm0,6h3v3h-3v-3zm-6-18h3v3h-3v-3zm0,6h3v3h-3v-3zm0,6h3v3h-3v-3zm0,6h3v3h-3v-3zm0,6h3v3h-3v-3zm39.687-38.076l-10.608-10.605c-3.516-3.516-9.213-3.516-12.729,0l-14.85,14.847 23.331,23.334 14.853-14.85c3.513-3.513 3.513-9.213 .003-12.726z"/>
</svg>
