<svg width="96" xmlns="http://www.w3.org/2000/svg" height="96" viewBox="0 0 96 96" xmlns:xlink="http://www.w3.org/1999/xlink">
<path d="m19.875,54.132l-9.789,29.808 13.083-13.131c-.9-2.271-.678-6.15 1.161-7.986 2.463-2.466 6.519-2.409 8.982,.057 2.466,2.466 2.598,6.594 .135,9.06-1.875,1.875-5.994,1.983-8.292,1.011l-12.969,13.005 29.103-10.224 10.599-19.092-12.912-12.738-19.101,10.23zm49.068-44.085c0,0-18.033,18.03-20.814,20.814-2.787,2.784-4.242,13.257-4.242,13.257l8.085,8.088c0,0 10.209-1.458 13.125-4.377 2.919-2.916 20.814-20.814 20.814-20.814l-16.968-16.968z"/>
</svg>
