<svg width="96" xmlns="http://www.w3.org/2000/svg" height="96" viewBox="0 0 96 96" xmlns:xlink="http://www.w3.org/1999/xlink">
<path d="m87.072,19.497l-7.401,7.401-10.569-10.569 7.401-7.401c2.919-2.919 7.653-2.919 10.569,0s2.919,7.65 0,10.569zm-4.23,8.454c.585-.582 1.533-.582 2.115,0 .585,.585 .585,1.533 0,2.115l-27.48,27.483c-.585,.582-1.533,.582-2.115,0s-.582-1.53 0-2.112l17.97-17.97-14.802-14.802 6.342-6.339 14.799,14.799 3.171-3.174zm-24.309-1.053l10.569,10.569-42.282,42.282-10.569-10.569 42.282-42.282zm-51.795,62.364l7.398-17.967 10.569,10.569-17.967,7.398z"/>
</svg>
