<svg width="96" xmlns="http://www.w3.org/2000/svg" height="96" viewBox="0 0 96 96" xmlns:xlink="http://www.w3.org/1999/xlink">
<path d="m78,96h-63c-3.315,0-6-2.688-6-6v-72c0-3.315 2.685-6 6-6v72c0,3.312 2.688,6 6,6h12c3.315,0 6-2.688 6-6v-72h39c3.315,0 6,2.688 6,6v72c0,3.312-2.685,6-6,6zm-15-9h6v-6h-6v6zm0-9h6v-6h-6v6zm0-9h6v-6h-6v6zm0-9h6v-6h-6v6zm-9,27h6v-6h-6v6zm0-9h6v-6h-6v6zm0-9h6v-6h-6v6zm0-9h6v-6h-6v6zm24-39c0-1.659-1.341-3-3-3h-27c-1.656,0-3,1.341-3,3v12c0,1.656 1.344,3 3,3h27c1.659,0 3-1.344 3-3v-12zm0,33h-6v6h6v-6zm0,9h-6v6h6v-6zm0,9h-6v6h6v-6zm0,9h-6v6h6v-6zm-45,6h-12c-1.656,0-3-1.341-3-3v-75c0-1.659 1.344-3 3-3h5.814v-6h3.186v6h3c1.656,0 3,1.341 3,3v75c0,1.659-1.344,3-3,3z"/>
</svg>
