<svg width="96" xmlns="http://www.w3.org/2000/svg" height="96" viewBox="0 0 96 96" xmlns:xlink="http://www.w3.org/1999/xlink">
<path d="m45.993,59.28c-.078-.054-9.102-15.225-9.132-15.42-1.866-4.077-3.372-8.247-.234-10.098l-13.023-21.96c-3.375,2.523-12.921,16.215 4.947,47.244 18.822,32.7 36.735,31.341 40.326,29.127l-12.69-21.435c-3,1.764-5.526-1.143-10.194-7.458zm31.593,20.571l.003-.018c0,0-9.909-16.698-9.915-16.704-.786-1.323-2.475-1.74-3.792-.972l-6.072,3.591 12.726,21.498c0,0 6.072-3.573 6.069-3.585h.012c1.395-.828 1.716-2.538 .969-3.81zm-33.228-50.643v-.012c1.395-.825 1.722-2.535 .975-3.795l.006-.018c0,0-10.194-17.187-10.2-17.19-.783-1.329-2.478-1.74-3.789-.972l-6.072,3.591 13.008,21.972c0,0 6.069-3.567 6.072-3.576z"/>
</svg>
