<svg width="98" xmlns="http://www.w3.org/2000/svg" height="96" viewBox="0 0 98 96" xmlns:xlink="http://www.w3.org/1999/xlink">
<path d="M79.812 88.761l-7.872-2.16-0.018-21.774 7.53 2.118 10.857-40.527-54.996-14.736-3.624 13.518h-6.204l5.589-20.856 66.579 17.838-17.841 66.579zM69.117 96h-69.117v-68.931h69.117v68.931zM63.123 33.063h-57.129v41.955h57.129v-41.955zM23.547 62.979l6.849-11.076 6.849 6.903 9.417-14.181 9.849 24.402h-43.668l5.565-11.13 5.139 5.082zM19.452 51.258c-2.484 0-4.497-2.010-4.497-4.494s2.013-4.494 4.497-4.494 4.494 2.010 4.494 4.494-2.010 4.494-4.494 4.494z"/>
</svg>
