<svg width="96" xmlns="http://www.w3.org/2000/svg" height="96" viewBox="0 0 96 96" xmlns:xlink="http://www.w3.org/1999/xlink">
<path d="M84 24v48c0 3.312-2.688 6-6 6h-63c0 3.312 2.688 6 6 6h63c3.312 0 6-2.688 6-6v-48c0-3.312-2.688-6-6-6zM81 69v-48c0-3.312-2.688-6-6-6h-63c-3.312 0-6 2.688-6 6v48c0 3.312 2.688 6 6 6h63c3.312 0 6-2.688 6-6zM12 21h63v48h-63v-48zM46.881 51.933l-8.964-9.543-8.967 15.312-6.726-7.029-7.287 15.387h57.165l-12.891-33.735-12.33 19.608zM24 42c3.312 0 6-2.688 6-6s-2.688-6-6-6-6 2.688-6 6 2.688 6 6 6z"/>
</svg>
