<svg width="96" xmlns="http://www.w3.org/2000/svg" height="96" viewBox="0 0 96 96" xmlns:xlink="http://www.w3.org/1999/xlink">
<path d="m83.199,58.905l-3.948,14.742-.111,.03-4.314,16.101-27.888-7.47-.333,.087-29.364-7.866-.051-.192-7.815-2.097 1.479-5.523 .096,.027 14.487-54.066-.096-.027 1.527-5.691 51.315,13.752 .048-.168 14.133,3.786-9.216,34.38 .051,.195zm1.947-30.411l-54.069-14.487-10.674,39.84 54.063,14.484 10.68-39.837zm-48.444,11.682l3.582,6.135 9.321-8.775 4.749,8.298 12.555-11.067 3.141,25.677-41.466-11.118 8.118-9.15zm2.679-6.036c-2.355-.633-3.756-3.057-3.123-5.412 .63-2.358 3.054-3.759 5.412-3.126 2.355,.633 3.756,3.057 3.123,5.412-.63,2.358-3.054,3.759-5.412,3.126zm25.539-20.703l-1.242,.333-11.385-3.051 16.794-4.5 2.598,9.693-6.57-1.761-.195-.714zm-54.069,14.49l3.726,13.905-3.051,11.382-7.89-29.454 17.004-4.557-1.761,6.57-8.028,2.154zm10.323,61.281l-3.054-11.394 22.791,6.108-19.737,5.286z"/>
</svg>
