<svg width="96" xmlns="http://www.w3.org/2000/svg" height="96" viewBox="0 0 96 96" xmlns:xlink="http://www.w3.org/1999/xlink">
<path d="M16.803 55.863c-5.856 5.859-5.856 15.357 0 21.216l2.124 2.121c5.856 5.853 15.354 5.853 21.213 0l16.968-16.974-23.334-23.334-16.971 16.971zM38.016 77.079c-4.686 4.686-12.285 4.686-16.968 0l-2.121-2.121c-4.686-4.686-4.686-12.288 0-16.974l14.847-14.847 19.092 19.089-14.85 14.853zM76.2 21.924l-2.121-2.121c-5.856-5.859-15.354-5.859-21.213 0l-16.971 16.968 23.334 23.334 16.971-16.968c5.859-5.859 5.859-15.357 0-21.213z"/>
</svg>
