<svg width="96" xmlns="http://www.w3.org/2000/svg" height="96" viewBox="0 0 96 96" xmlns:xlink="http://www.w3.org/1999/xlink">
<path d="m56.919,53.406l-23.382-13.5c-2.868-1.659-6.54-.675-8.196,2.193-1.656,2.871-.672,6.54 2.196,8.196l23.379,13.5c2.871,1.659 6.54,.675 8.196-2.196 1.662-2.868 .678-6.537-2.193-8.193zm-19.284-14.598l18.186,10.5 6.186-17.214-12.558-7.248-11.814,13.962zm-13.407,44.22l17.397-21.132-7.794-4.5-9.603,25.632zm45.294-60.453l-15.585-9c-2.154-1.242-4.905-.507-6.147,1.647-1.245,2.154-.504,4.905 1.647,6.147l15.588,9c2.154,1.242 4.905,.507 6.147-1.647 1.242-2.154 .504-4.905-1.65-6.147z"/>
</svg>
