<svg width="96" xmlns="http://www.w3.org/2000/svg" height="96" viewBox="0 0 96 96" xmlns:xlink="http://www.w3.org/1999/xlink">
<path d="m49.5,73.341v-2.988c10.056,.297 17.979,3.522 17.979,7.461 0,4.137-8.718,7.68-19.476,7.68-10.758,0-19.476-3.543-19.476-7.68 0-3.939 7.923-7.167 17.976-7.461v2.988c-8.397,.207-14.979,2.13-14.979,4.473 0,2.481 7.377,4.869 16.479,4.869 9.099,0 16.476-2.388 16.476-4.869-.003-2.343-6.582-4.263-14.979-4.473zm-17.952-46.356c0-9.099 7.563-16.479 16.668-16.479 9.102,0 16.479,7.38 16.479,16.479 0,7.821-5.454,14.358-12.768,16.044l-3.927,39.657-3.939-39.768c-7.086-1.845-12.513-8.268-12.513-15.933zm16.452-4.413c0-2.484-2.013-4.494-4.494-4.494-2.484,0-4.497,2.01-4.497,4.494 0,2.481 2.013,4.494 4.497,4.494 2.484,0 4.494-2.01 4.494-4.494z"/>
</svg>
