<svg width="96" xmlns="http://www.w3.org/2000/svg" height="96" viewBox="0 0 96 96" xmlns:xlink="http://www.w3.org/1999/xlink">
<path d="m81.006,15.015h-69.015c-1.653,0-2.991-1.341-2.991-3 0-1.656 1.338-2.997 2.991-2.997h31.608v-3c0-1.656 1.341-2.997 2.994-2.997s2.991,1.341 2.991,2.997v3h31.422c1.656,0 2.994,1.344 2.994,2.997 0,1.659-1.338,3-2.994,3zm0,47.979h-69.015v-44.982h69.015v44.982zm-60.006-23.898c0,6.639 5.373,12.021 12,12.021s12-5.382 12-12.021h-12v-12.027c-6.627,0-12,5.385-12,12.027zm33.072-12.087h-2.991v2.997h2.991v-2.997zm0,5.997h-2.991v2.997h2.991v-2.997zm0,5.997h-2.991v2.997h2.991v-2.997zm0,5.997h-2.991v3h2.991v-3zm0,6h-2.991v3h2.991v-3zm17.958-23.991h-14.961v2.997h14.961v-2.997zm0,5.997h-14.961v2.997h14.961v-2.997zm0,5.997h-14.961v2.997h14.961v-2.997zm0,5.997h-14.961v3h14.961v-3zm0,6h-14.961v3h14.961v-3zm-33.687,26.988h6.753v-14.994h2.994v14.994h6.648l-6.648-14.994h5.985l11.967,26.988h-5.982l-3.99-9h-7.98v14.994h-2.994v-14.994h-8.103l-4.053,9h-5.985l12.156-26.988h5.985l-6.753,14.994zm9.747-14.994v0zm-2.994,0v0z"/>
</svg>
