<svg width="96" xmlns="http://www.w3.org/2000/svg" height="96" viewBox="0 0 96 96" xmlns:xlink="http://www.w3.org/1999/xlink">
<path d="m78,69h-6v-6h3v-6h-57v6h3v6h-6c-1.656,0-3-1.344-3-3v-30c0-2.901 12-6 33-6 1.113,0 2.097,0 3,0 20.814,0 33,3.03 33,6v30c0,1.656-1.341,3-3,3zm-7.5-30c-2.484,0-4.5,2.016-4.5,4.5s2.016,4.5 4.5,4.5 4.5-2.016 4.5-4.5-2.016-4.5-4.5-4.5zm-46.5-27c0-1.659 1.344-3 3-3h39c1.659,0 3,1.341 3,3v15h-45v-15zm45,75c0,1.656-1.341,3-3,3h-39c-1.656,0-3-1.344-3-3v-27h45v27zm-6-24h-33v3h33v-3zm0,6h-33v3h33v-3zm0,6h-33v3h33v-3zm0,6h-33v3h33v-3z"/>
</svg>
