<svg width="96" xmlns="http://www.w3.org/2000/svg" height="96" viewBox="0 0 96 96" xmlns:xlink="http://www.w3.org/1999/xlink">
<path d="m48,9c-21.54,0-39,17.46-39,39s17.46,39 39,39 39-17.46 39-39-17.46-39-39-39zm0,72c-18.225,0-33-14.775-33-33s14.775-33 33-33 33,14.775 33,33-14.775,33-33,33zm-4.224-44.478c1.257-.663 1.884-1.491 1.884-2.484 0-.627-.213-1.149-.642-1.563-.432-.414-.975-.621-1.635-.621-1.653,0-3.93,.96-6.834,2.877-3.435,2.25-6.165,4.986-8.193,8.211-2.028,3.225-3.045,6.411-3.045,9.555 0,1.488 .282,2.967 .843,4.44 .561,1.47 1.32,2.718 2.277,3.747 2.013,2.217 4.422,3.324 7.227,3.324 2.937,0 5.331-1.011 7.179-3.03 .759-.825 1.359-1.812 1.809-2.952 .444-1.143 .669-2.274 .669-3.399 0-2.382-.66-4.416-1.977-6.105s-3.054-2.679-5.196-2.976l-.792-.048-.594-.102c-.987-.132-1.485-.513-1.485-1.14 0-.663 .645-1.704 1.935-3.126 1.344-1.449 3.534-2.988 6.57-4.608zm23.694,0c1.26-.663 1.887-1.491 1.887-2.484 0-.627-.213-1.149-.645-1.563-.429-.414-.975-.621-1.638-.621-1.653,0-3.936,.96-6.846,2.877-3.438,2.25-6.183,4.986-8.232,8.211s-3.075,6.411-3.075,9.555c0,1.488 .282,2.967 .843,4.44 .564,1.47 1.32,2.718 2.28,3.747 2.019,2.217 4.446,3.324 7.29,3.324 2.913,0 5.31-1.011 7.194-3.03 .759-.825 1.365-1.803 1.812-2.928 .444-1.128 .669-2.268 .669-3.426 0-2.382-.672-4.407-2.01-6.078-1.341-1.671-3.087-2.67-5.241-3l-.747-.048-.645-.102c-.99-.132-1.488-.513-1.488-1.14 0-.663 .663-1.704 1.986-3.126 1.389-1.518 3.591-3.054 6.606-4.608z"/>
</svg>
