<svg width="96" xmlns="http://www.w3.org/2000/svg" height="96" viewBox="0 0 96 96" xmlns:xlink="http://www.w3.org/1999/xlink">
<path d="m48,9c-21.54,0-39,17.46-39,39s17.46,39 39,39 39-17.46 39-39-17.46-39-39-39zm0,72c-18.225,0-33-14.775-33-33s14.775-33 33-33 33,14.775 33,33-14.775,33-33,33zm-4.044-45.687c-2.022-2.217-4.449-3.324-7.293-3.324-2.91,0-5.31,1.008-7.191,3.027-.759,.828-1.365,1.803-1.812,2.928-.444,1.125-.669,2.268-.669,3.423 0,2.382 .672,4.41 2.01,6.081 1.341,1.671 3.087,2.67 5.241,3l.747,.048 .645,.102c.993,.132 1.491,.513 1.491,1.14 0,.663-.663,1.704-1.989,3.126-1.392,1.521-3.594,3.063-6.609,4.614-1.26,.663-1.887,1.488-1.887,2.481 0,.63 .213,1.152 .645,1.563 .429,.414 .975,.618 1.638,.618 1.653,0 3.936-.957 6.846-2.877 3.438-2.25 6.186-4.986 8.235-8.214 2.052-3.222 3.075-6.408 3.075-9.552 0-1.488-.282-2.967-.843-4.44-.561-1.47-1.323-2.718-2.28-3.744zm23.613,0c-2.01-2.217-4.419-3.324-7.224-3.324-2.937,0-5.331,1.008-7.179,3.027-.762,.828-1.362,1.812-1.809,2.952-.447,1.143-.669,2.274-.669,3.399 0,2.382 .66,4.419 1.977,6.105s3.054,2.679 5.196,2.976l.792,.048 .591,.102c.99,.132 1.485,.513 1.485,1.14 0,.663-.645,1.704-1.932,3.126-1.353,1.455-3.549,2.994-6.582,4.614-1.257,.663-1.884,1.488-1.884,2.481 0,.63 .216,1.152 .645,1.563 .432,.414 .975,.618 1.635,.618 1.65,0 3.93-.957 6.831-2.877 3.435-2.25 6.168-4.986 8.196-8.214 2.028-3.222 3.045-6.408 3.045-9.552 0-1.488-.279-2.967-.84-4.44-.555-1.47-1.314-2.718-2.274-3.744z"/>
</svg>
