<svg width="96" xmlns="http://www.w3.org/2000/svg" height="96" viewBox="0 0 96 96" xmlns:xlink="http://www.w3.org/1999/xlink">
<path d="m48,89.874c-23.127,0-41.874-18.747-41.874-41.874s18.747-41.874 41.874-41.874c23.127,0 41.877,18.747 41.877,41.874s-18.75,41.874-41.877,41.874zm20.76-73.218c-11.169-7.497-20.637-6.264-20.637-6.264l-.009,27.024c-3.807,.096-7.08,2.196-8.874,5.283l-22.881-14.658c0,0-6.063,5.937-6.063,19.392s5.811,19.956 5.811,19.956l23.169-14.028c1.803,3.057 5.061,5.127 8.841,5.223l.009,27.402c0,0 9.471,1.233 20.637-6.261 11.175-7.497 12.948-15.213 12.948-15.213l-23.946-11.661c.762-1.458 1.23-3.093 1.23-4.851 0-1.59-.375-3.081-1.002-4.437l24.222-11.442c-.003-.003-2.28-7.971-13.455-15.465zm-20.382,37.407c-3.348,0-6.063-2.715-6.063-6.063s2.715-6.063 6.063-6.063c3.348,0 6.06,2.715 6.06,6.063s-2.712,6.063-6.06,6.063z"/>
</svg>
