<svg width="99" xmlns="http://www.w3.org/2000/svg" height="96" viewBox="0 0 99 96" xmlns:xlink="http://www.w3.org/1999/xlink">
<path d="m93,87.012h-87c-3.312,0-6-2.682-6-5.985v-50.892c0-3.309 2.688-5.988 6-5.988h63.564l-24.798-13.479c-.54,.993-1.554,1.692-2.766,1.692-1.761,0-3.186-1.425-3.186-3.18 0-1.755 1.425-3.18 3.186-3.18s3.186,1.425 3.186,3.183c0,.42-.09,.813-.24,1.182l35.679,13.785h12.375c3.312,0 6,2.682 6,5.988v50.892c0,3.3-2.688,5.982-6,5.982zm-9-8.919c3.312,0 6-2.682 6-5.988s-2.688-5.985-6-5.985c-3.315,0-6,2.682-6,5.985 0,3.309 2.685,5.988 6,5.988zm-18-.06c3.312,0 6-2.682 6-5.988s-2.688-5.985-6-5.985-6,2.682-6,5.985c0,3.306 2.688,5.988 6,5.988zm-34.5-44.904c-12.426,0-22.5,10.053-22.5,22.449 0,12.402 10.074,22.452 22.5,22.452 12.429,0 22.5-10.053 22.5-22.452 0-12.396-10.071-22.449-22.5-22.449zm58.5-0h-30v8.979h16.5l3-5.985 3,5.985h7.5v-8.979zm-42,26.94h2.427c-.246,1.035-.579,2.031-.984,2.994h-1.443v-2.994zm0-5.985h2.847c.042,.501 .153,.981 .153,1.494s-.111,.996-.153,1.497h-2.847v-2.991zm0-5.988h1.476c.405,.954 .687,1.968 .936,2.994h-2.412v-2.994zm-6-2.994v-2.994h3v2.994h-3zm-6,26.943h3v1.437c-.963,.399-1.965,.723-3,.975v-2.412zm0-5.985h3v2.994h-3v-2.994zm0-5.991h3v2.994h-3v-2.994zm0-5.985h3v2.991h-3v-2.991zm0-5.988h3v2.994h-3v-2.994zm0-5.988h3v2.994h-3v-2.994zm0-5.4c1.032,.252 2.037,.576 3,.975v1.434h-3v-2.409zm-6,38.172v-2.835h3v2.886c-.498,.039-.99,.108-1.5,.108-.516,0-.996-.117-1.5-.159zm0-8.82h3v2.994h-3v-2.994zm0-5.991h3v2.994h-3v-2.994zm0-5.985h3v2.991h-3v-2.991zm0-5.988h3v2.994h-3v-2.994zm0-5.988h3v2.994h-3v-2.994zm0-5.826c.504-.042 .984-.159 1.5-.159 .51,0 1.002,.069 1.5,.108v2.886h-3v-2.835zm-6,35.763h3v2.388c-1.026-.255-2.043-.546-3-.951v-1.437zm0-5.985h3v2.994h-3v-2.994zm0-5.991h3v2.994h-3v-2.994zm0-5.985h3v2.991h-3v-2.991zm0-5.988h3v2.994h-3v-2.994zm0-5.988h3v2.994h-3v-2.994zm0-4.419c.957-.411 1.974-.699 3-.957v2.385h-3v-1.428zm-6,28.371h3v2.994h-3v-2.994zm0-5.991h3v2.994h-3v-2.994zm0-5.985h3v2.991h-3v-2.991zm0-5.988h3v2.994h-3v-2.994zm0-5.988h3v2.994h-3v-2.994zm27,8.982h-3v-2.994h3v2.994zm0,5.985h-3v-2.991h3v2.991zm0,5.988h-3v-2.994h3v2.994zm0,5.991h-3v-2.994h3v2.994zm-32.427-8.985h2.427v2.994h-1.44c-.405-.963-.741-1.959-.987-2.994zm-.573-4.491c0-.513 .114-.993 .153-1.494h2.847v2.991h-2.847c-.042-.501-.153-.984-.153-1.497zm1.524-7.482h1.476v2.994h-2.412c.249-1.026 .531-2.037 .936-2.994zm10.476,41.91c0,1.653-1.341,2.994-3,2.994h-6c-1.656,0-3-1.341-3-2.994s0-2.994 0-2.994h12c0,0 0,1.341 0,2.994zm63,0c0,1.653-1.341,2.994-3,2.994h-6c-1.659,0-3-1.341-3-2.994s0-2.994 0-2.994h12c0,0 0,1.341 0,2.994z"/>
</svg>
