<svg width="96" xmlns="http://www.w3.org/2000/svg" height="96" viewBox="0 0 96 96" xmlns:xlink="http://www.w3.org/1999/xlink">
<path d="m73.959,33.576c0,0 1.437-19.332-16.278-21.54-15.186-1.551-19.806,12.561-19.806,12.561s-4.569-4.398-10.776-.807c-5.553,3.429-4.569,9.702-4.569,9.702s-12.33,2.4-12.33,14.97c.276,12.558 13.392,12.684 13.392,12.684h48.246c0,0 12.204,.012 13.923-11.931 .813-13.062-11.802-15.639-11.802-15.639zm-44.691,35.265c-.537-1.062-1.017-2.493-1.437-4.287-.414,1.794-.891,3.222-1.428,4.287-1.128,2.241-2.931,3.984-2.931,3.984-1.437,1.599-2.154,3.201-2.154,4.803 0,1.77 .642,3.285 1.923,4.554 1.281,1.266 2.811,1.899 4.587,1.899 1.788,0 3.318-.633 4.599-1.899 1.284-1.269 1.923-2.784 1.923-4.554 0-1.599-.717-3.201-2.151-4.803 0,0-1.8-1.743-2.931-3.984zm21,0c-.537-1.062-1.017-2.493-1.437-4.287-.417,1.794-.891,3.222-1.428,4.287-1.128,2.241-2.934,3.984-2.934,3.984-1.434,1.599-2.151,3.201-2.151,4.803 0,1.77 .639,3.285 1.923,4.554 1.278,1.266 2.808,1.899 4.587,1.899 1.788,0 3.318-.633 4.599-1.899 1.284-1.269 1.923-2.784 1.923-4.554 0-1.599-.717-3.201-2.154-4.803 0,0-1.8-1.743-2.928-3.984zm21,0c-.537-1.062-1.017-2.493-1.437-4.287-.417,1.794-.891,3.222-1.428,4.287-1.131,2.241-2.934,3.984-2.934,3.984-1.434,1.599-2.151,3.201-2.151,4.803 0,1.77 .639,3.285 1.923,4.554 1.278,1.266 2.808,1.899 4.587,1.899 1.788,0 3.318-.633 4.599-1.899 1.284-1.269 1.923-2.784 1.923-4.554 0-1.599-.717-3.201-2.151-4.803 0,0-1.803-1.743-2.931-3.984z"/>
</svg>
