<svg width="96" xmlns="http://www.w3.org/2000/svg" height="96" viewBox="0 0 96 96" xmlns:xlink="http://www.w3.org/1999/xlink">
<path d="m70.113,88.587c0,0 1.005-6.036-5.193-13.407 6.033-16.923 6.87-32.334 6.87-32.334s12.399,2.85 12.399,15.078c-.003,20.943-14.076,30.663-14.076,30.663zm-34.176-7.353c0,0-8.304-26.649-8.304-37.704 0-4.974 .561-9.399 1.434-13.416h37.83c.879,4.02 1.443,8.448 1.443,13.419 0,10.887-8.28,37.701-8.28,37.701h-24.123zm12.033-45.027c-4.254,0-7.704,3.45-7.704,7.707 0,4.254 3.45,7.707 7.704,7.707 4.257,0 7.707-3.45 7.707-7.707 .003-4.257-3.45-7.707-7.707-7.707zm-1.656-34.419v-10.494h3v10.227c3.429,2.496 12.708,10.434 16.905,25.725h-36.48c4.056-14.871 12.888-22.722 16.575-25.458zm-20.427,86.799c0-0-14.073-9.72-14.073-30.663 0-12.228 12.399-15.078 12.399-15.078s.837,15.411 6.867,32.334c-6.201,7.374-5.193,13.407-5.193,13.407zm27.186,1.548l-2.514-2.514-2.679,8.379-3.186-8.379-2.178,4.353-3.186-7.875h17.256l-3.513,6.036z"/>
</svg>
