<svg width="96" xmlns="http://www.w3.org/2000/svg" height="96" viewBox="0 0 96 96" xmlns:xlink="http://www.w3.org/1999/xlink">
<path d="m17.898,50.301l12.27-12.27h-7.191c.066-.18 .135-.357 .201-.534 4.266-10.806 14.802-18.45 27.12-18.45 16.098,0 29.148,13.05 29.148,29.145 0,16.098-13.05,29.148-29.148,29.148-11.838,0-22.029-7.062-26.589-17.199-.045-.093-.072-.198-.117-.297l-7.815,7.767c.054,.09 .09,.192 .144,.288 .012,.021 .024,.042 .036,.06 6.897,11.916 19.782,19.929 34.539,19.929 22.026,0 39.882-17.856 39.882-39.882s-17.859-39.888-39.885-39.888c-18.414,0-33.909,12.474-38.499,29.436-.045,.156-.06,.321-.096,.477h-6.273l12.273,12.27z"/>
</svg>
