<svg width="96" xmlns="http://www.w3.org/2000/svg" height="96" viewBox="0 0 96 96" xmlns:xlink="http://www.w3.org/1999/xlink">
<path d="m18.174,20.505l2.058,2.058-8.424,8.424 6.564,6.564 8.463-8.463 1.923,1.923-8.463,8.466 6.48,6.477 19.248-19.248-23.436-23.298-19.179,19.179 6.342,6.345 8.424-8.427zm51.123,29.472l-19.248,19.251 6.477,6.477 8.466-8.463 1.923,1.923-8.463,8.463 6.564,6.564 8.421-8.424 2.058,2.058-8.421,8.424 6.339,6.342 19.182-19.182-23.298-23.433zm20.169-24.624c2.343-2.346 2.361-6.135 .036-8.463l-10.536-10.533c-2.325-2.325-6.117-2.313-8.46,.036l-6.51,6.51 18.96,18.96 6.51-6.51zm-79.272,52.473l7.869,7.869 15.852-5.631-18.09-18.09-5.631,15.852zm51.756-62.997l-44.655,44.658 19.107,19.107 44.658-44.658-19.11-19.107zm-35.979,44.619l35.943-35.943 2.094,2.094-35.946,35.946-2.091-2.097zm4.188,4.191l35.94-35.943 2.094,2.094-35.943,35.94-2.091-2.091zm4.188,4.185l35.943-35.943 2.091,2.094-35.94,35.943-2.094-2.094zm-28.485,22.206l9.198-3.351-5.847-5.847-3.351,9.198z"/>
</svg>
