<svg width="96" xmlns="http://www.w3.org/2000/svg" height="96" viewBox="0 0 96 96" xmlns:xlink="http://www.w3.org/1999/xlink">
<path d="m81,87l-5.997-.186v6.186h-9v-6h-35.814l-.186,6h-9v-5.814l-6.003-.186c-3.312,0-6-2.688-6-6v-72c0-3.312 2.688-6 6-6h66c3.312,0 6,2.688 6,6v72c0,3.312-2.688,6-6,6zm-3-75h-60v11.874l-2.937-.06v9.249h2.937v23.751h-3v9.186h3v12h60v-66zm-3,63h-54v-9h3v-9.186h-3v-23.814h3l.063-9.126h-3.063v-8.874h54v60zm-31.314-43.314c-6.627,0-12,5.373-12,12s5.373,12 12,12c6.63,0 12-5.373 12-12s-5.37-12-12-12zm26.814,2.868c0-1.659-1.341-3-3-3-1.656,0-3,1.341-3,3 0,1.098 .621,2.019 1.5,2.541v15.867c-.879,.522-1.5,1.44-1.5,2.541 0,1.656 1.344,3 3,3 1.659,0 3-1.344 3-3 0-1.182-.696-2.178-1.686-2.667v-15.615c.99-.492 1.686-1.488 1.686-2.667zm-27,14.196c-2.484,0-4.5-2.016-4.5-4.5 0-2.487 2.016-4.5 4.5-4.5 2.487,0 4.5,2.013 4.5,4.5 0,2.484-2.013,4.5-4.5,4.5z"/>
</svg>
