<svg width="96" xmlns="http://www.w3.org/2000/svg" height="96" viewBox="0 0 96 96" xmlns:xlink="http://www.w3.org/1999/xlink">
<path d="m84,93h-72c-4.971,0-9-4.032-9-9v-42c0-4.971 4.029-9 9-9h6l25.479-19.554c-.114-.465-.192-.945-.192-1.446 0-3.312 2.688-6 6-6s5.997,2.688 5.997,6c0,1.077-.306,2.076-.807,2.952l23.523,18.048h6c4.968,0 9,4.029 9,9v42c0,4.968-4.032,9-9,9zm-32.787-19.251h12.093v-2.274h-9.54v-17.064h-2.556v19.338zm-17.301,0l2.118-5.859h8.124l2.226,5.859h2.916l-7.884-19.335h-2.772l-7.434,19.335h2.706zm-17.883-17.067c-.552,.852-.828,1.767-.828,2.742 0,.891 .225,1.692 .678,2.412s1.14,1.317 2.061,1.806c.708,.378 1.947,.78 3.717,1.206s2.913,.741 3.432,.942c.807,.312 1.386,.687 1.743,1.14s.537,.978 .537,1.584c0,.594-.183,1.149-.546,1.656s-.918,.906-1.665,1.197c-.744,.294-1.602,.438-2.574,.438-1.095,0-2.079-.189-2.955-.576-.879-.381-1.524-.885-1.938-1.509s-.684-1.422-.798-2.391l-2.415,.21c.036,1.293 .39,2.448 1.062,3.471 .672,1.026 1.596,1.794 2.775,2.304 1.182,.51 2.643,.765 4.389,.765 1.374,0 2.613-.252 3.714-.759 1.101-.504 1.944-1.206 2.532-2.118 .588-.909 .882-1.875 .882-2.904 0-1.035-.27-1.947-.807-2.742-.537-.798-1.368-1.452-2.496-1.968-.777-.351-2.199-.762-4.269-1.23-2.073-.471-3.354-.933-3.843-1.383-.501-.444-.75-1.017-.75-1.71 0-.804 .354-1.485 1.059-2.052 .705-.567 1.827-.852 3.369-.852 1.482,0 2.601,.312 3.357,.93 .759,.621 1.2,1.539 1.332,2.751l2.46-.186c-.045-1.134-.36-2.148-.945-3.042-.588-.894-1.428-1.572-2.52-2.034s-2.352-.69-3.783-.69c-1.299,0-2.478,.219-3.54,.66-1.068,.438-1.875,1.08-2.427,1.932zm37.008-40.032c-1.032,.831-2.322,1.35-3.747,1.35-1.986,0-3.732-.975-4.824-2.463l-23.463,17.463h54l-21.966-16.35zm27.774,54.825h-11.859v-6.585h10.686v-2.274h-10.686v-5.931h11.415v-2.274h-13.968v19.335h14.415v-2.271zm-40.869-15.045c.312,1.059 .768,2.4 1.371,4.029l2.037,5.346h-6.597l2.145-5.661c.441-1.221 .789-2.46 1.044-3.714z"/>
</svg>
