<svg width="100" xmlns="http://www.w3.org/2000/svg" height="96" viewBox="0 0 100 96" xmlns:xlink="http://www.w3.org/1999/xlink">
<path d="m0,62.589l33.411,33.411c0,0 7.977-18.933-3.249-30.159-11.103-11.103-30.162-3.252-30.162-3.252zm89.625,2.655l-16.968,16.968 2.121,2.121 16.968-16.968-2.121-2.121zm8.484,4.242l-19.089-19.095c-2.343-2.337-6.147-2.337-8.484,0l-1.674,1.674-4.68-4.68 8.391-8.391c2.343-2.343 2.079-6.408-.264-8.751l-10.341-10.341c-2.343-2.343-6.141-2.343-8.484,0l-7.629,7.362-4.02-4.02 .273-.27c2.343-2.343 2.343-6.144 0-8.487l-19.092-19.095c-2.343-2.343-6.141-2.343-8.487,0l-12.726,12.729c-2.343,2.343-2.343,6.144 0,8.487l19.092,19.092c2.343,2.343 6.141,2.343 8.487,0l4.173-4.173 4.134,4.17-7.677,7.677c-2.343,2.343-1.458,15.384-1.458,15.384l5.169,5.169c0,0 13.038,.885 15.381-1.458l6.642-6.639 4.68,4.68-2.622,2.622c-2.343,2.343-2.343,6.141 0,8.484l19.095,19.089c2.343,2.343 6.141,2.343 8.484,0l12.726-12.726c2.343-2.352 2.343-6.15 0-8.493zm-94.185-59.244l12.729-12.729c1.17-1.173 3.069-1.173 4.242,0l-16.971,16.971c-1.173-1.17-1.173-3.072 0-4.242zm2.121,6.363l16.971-16.971 2.121,2.121-16.971,16.971-2.121-2.121zm4.242,4.242l16.971-16.971 2.121,2.124-16.968,16.968-2.124-2.121zm4.245,4.245l16.968-16.971 2.124,2.121-16.971,16.971-2.121-2.121zm4.242,4.242l16.971-16.971 2.121,2.121-16.971,16.971-2.121-2.121zm8.484,4.242c-1.17,1.173-3.069,1.173-4.242,0l16.971-16.971c1.173,1.173 1.173,3.072 0,4.242l-12.729,12.729zm8.466,15.918l-1.59-1.593 21.93-21.93 1.593,1.59-21.933,21.933zm24.201,15.75l12.732-12.732c1.173-1.167 3.069-1.167 4.242,0l-16.974,16.974c-1.173-1.173-1.173-3.069 0-4.242zm36.063,10.605l-12.726,12.726c-1.173,1.173-3.069,1.173-4.242,0l-12.729-12.729 16.968-16.968-2.121-2.121-16.974,16.968-2.121-2.121 16.974-16.974 16.968,16.974c1.176,1.176 1.176,3.075 .003,4.245zm-2.121-6.363l-16.968,16.968 2.121,2.121 16.968-16.968-2.121-2.121zm-8.484-8.484l-16.968,16.968 2.121,2.121 16.968-16.968-2.121-2.121z"/>
</svg>
