<svg width="96" xmlns="http://www.w3.org/2000/svg" height="96" viewBox="0 0 96 96" xmlns:xlink="http://www.w3.org/1999/xlink">
<path d="m64.5,62.964c5.802,0 10.5,6.048 10.5,13.5 0,7.458-4.698,13.5-10.5,13.5s-10.5-6.042-10.5-13.5c0-4.494 1.728-8.448 4.356-10.905l-10.356-14.865-10.359,14.865c2.631,2.457 4.359,6.411 4.359,10.905 0,7.458-4.701,13.5-10.5,13.5-5.799,0-10.5-6.042-10.5-13.5 0-7.452 4.701-13.5 10.5-13.5 .597,0 1.176,.105 1.746,.228l10.425-18.714-10.893-15.636c-8.883-15.387-1.86-22.812-1.86-22.812l17.082,30.675 17.082-30.672c0,0 7.023,7.425-1.86,22.812l-10.893,15.636 10.425,18.714c.567-.126 1.149-.231 1.746-.231zm-33,5.943c-3.312,0-6,3.357-6,7.5s2.688,7.5 6,7.5 6-3.357 6-7.5-2.688-7.5-6-7.5zm16.5-26.688c-1.656,0-3,1.341-3,3 0,1.656 1.344,3 3,3 1.659,0 3-1.344 3-3 0-1.659-1.341-3-3-3zm10.5,34.188c0,4.143 2.688,7.5 6,7.5s6-3.357 6-7.5-2.688-7.5-6-7.5-6,3.357-6,7.5z"/>
</svg>
