<svg width="96" xmlns="http://www.w3.org/2000/svg" height="96" viewBox="0 0 96 96" xmlns:xlink="http://www.w3.org/1999/xlink">
<path d="m82.179,7.992l-10.938,6.654-.078,6.015-24.144,24.084-3.309-3.309c-1.173-1.173-3.072-1.173-4.245,0-1.17,1.17-2.253,1.986-2.253,1.986l1.23,1.23c-.012-.012-.027-.024-.039-.036-5.964,5.961-9.81,7.686-9.81,7.686l-18.714,18.963c-1.173,1.176-1.173,3.066 0,4.242l10.608,10.608c1.17,1.173 3.069,1.173 4.242,0l18.711-18.963c0,0 1.722-3.84 7.692-9.813l1.062,1.062c0,0 .945-.948 2.121-2.121 1.173-1.173 1.173-3.069 0-4.242l-3.216-3.216 24.054-24.171 6.141-.003 6.609-10.932-5.724-5.724zm-70.242,65.214l19.044-19.044 2.121,2.118-19.044,19.047-2.121-2.121zm4.242,4.377l19.044-19.05 2.121,2.127-19.044,19.044-2.121-2.121zm6.363,6.363l-2.121-2.121 19.044-19.047 2.124,2.121-19.047,19.047z"/>
</svg>
