<svg width="96" xmlns="http://www.w3.org/2000/svg" height="96" viewBox="0 0 96 96" xmlns:xlink="http://www.w3.org/1999/xlink">
<path d="m50.166,65.589c-1.368-1.296-2.964-2.292-4.707-2.913l-3.654-14.229 43.518-12.174 4.662,18.168-39.819,11.148zm-13.854-38.532l29.013-8.115 4.665,18.174-29.01,8.115-4.668-18.174zm1.302,35.346c-.81,.228-1.563,.552-2.295,.909l-12.792-49.845h-4.812c-.483,1.053-1.494,1.794-2.688,1.794h-6.006c-1.659,0-3.003-1.407-3.003-3.138s1.344-3.135 3.003-3.135h6.006c1.008,0 1.854,.552 2.4,1.341h9.24v.153l.138-.042 13.23,51.549c-.807,.075-1.614,.192-2.421,.414zm.777,3.03c5.607-1.569 11.37,1.905 12.873,7.764 1.503,5.853-1.824,11.871-7.434,13.44-5.607,1.563-11.37-1.911-12.873-7.764s1.827-11.871 7.434-13.44zm-1.581,12.009c.642,2.508 3.114,3.996 5.517,3.321s3.828-3.252 3.186-5.76c-.642-2.508-3.114-3.996-5.517-3.327-2.406,.675-3.831,3.255-3.186,5.766zm52.8-12.339l-35.052,9.804c-.063-.837-.18-1.683-.396-2.526-.213-.843-.522-1.635-.867-2.397l34.869-9.75 1.446,4.869z"/>
</svg>
