<svg width="96" xmlns="http://www.w3.org/2000/svg" height="96" viewBox="0 0 96 96" xmlns:xlink="http://www.w3.org/1999/xlink">
<path d="m72,81h-9c-1.659,0-3-1.341-3-3v-6c0-1.659 1.341-3 3-3h6v-18h-21v18h3c1.656,0 3,1.341 3,3v6c0,1.659-1.344,3-3,3h-9c-1.659,0-3-1.341-3-3v-6c0-1.659 1.341-3 3-3h3v-18h-21v18h6c1.656,0 3,1.341 3,3v6c0,1.659-1.344,3-3,3h-9c-1.659,0-3-1.341-3-3v-6c0-1.659 1.341-3 3-3v-21h24v-21h-3c-1.659,0-3-1.344-3-3v-6c0-1.656 1.341-3 3-3h9c1.656,0 3,1.344 3,3v6c0,1.656-1.344,3-3,3h-3v21h24v21c1.656,0 3,1.341 3,3v6c0,1.659-1.344,3-3,3z"/>
</svg>
