<svg width="96" xmlns="http://www.w3.org/2000/svg" height="96" viewBox="0 0 96 96" xmlns:xlink="http://www.w3.org/1999/xlink">
<path d="m73.959,32.193c0,0 1.437-19.332-16.278-21.54-15.186-1.551-19.806,12.561-19.806,12.561s-4.566-4.398-10.773-.804c-5.553,3.429-4.569,9.702-4.569,9.702s-12.333,2.397-12.333,14.967c.276,12.558 13.392,12.684 13.392,12.684h48.246c0,0 12.204,.012 13.923-11.931 .813-13.062-11.802-15.639-11.802-15.639zm-44.475,41.523c3.873-5.976 2.967-6.816-2.715-2.529-1.488-6.963-2.724-6.921-3.708,.132-5.976-3.873-6.819-2.967-2.532,2.715-6.963,1.488-6.921,2.724 .132,3.711-3.873,5.973-2.964,6.816 2.718,2.529 1.485,6.963 2.721,6.921 3.708-.132 5.976,3.873 6.819,2.967 2.529-2.718 6.966-1.485 6.921-2.721-.132-3.708zm21,0c3.873-5.976 2.967-6.816-2.715-2.529-1.488-6.963-2.724-6.921-3.708,.132-5.976-3.873-6.819-2.967-2.532,2.715-6.963,1.488-6.921,2.724 .132,3.711-3.873,5.973-2.964,6.816 2.718,2.529 1.485,6.963 2.721,6.921 3.708-.132 5.976,3.873 6.819,2.967 2.529-2.718 6.966-1.485 6.921-2.721-.132-3.708zm21,0c3.873-5.976 2.967-6.816-2.715-2.529-1.488-6.963-2.724-6.921-3.708,.132-5.976-3.873-6.819-2.967-2.532,2.715-6.963,1.488-6.921,2.724 .132,3.711-3.873,5.973-2.967,6.816 2.715,2.529 1.488,6.963 2.724,6.921 3.711-.132 5.973,3.873 6.816,2.967 2.529-2.718 6.966-1.485 6.921-2.721-.132-3.708z"/>
</svg>
