<svg width="96" xmlns="http://www.w3.org/2000/svg" height="96" viewBox="0 0 96 96" xmlns:xlink="http://www.w3.org/1999/xlink">
<path d="m86.367,30.459c-.018-.045-.042-.09-.063-.138l.087,.015-.024,.123zm-10.617,36.192l-14.004,.582-7.314-12.855 7.569-13.668 14.661,.486 6.258,12.777-7.17,12.678zm-37.626-12.456l-7.347-13.293 7.68-12.813 15.663-.24 7.692,12.759-7.56,13.641-16.128-.054zm.324-26.325l-5.79-9.969 7.692-9.384 13.425-.429 7.155,8.862-6.849,10.68-15.633,.24zm-7.326,38.877l-12.405-1.212-5.976-11.949 5.214-12.114 12.615-.483 7.35,13.299-6.798,12.459zm43.311-48.27l1.188-2.361c4.5,3.903 8.151,8.736 10.683,14.205l-4.446-.708-7.425-11.136zm-13.278-1.602l-7.167-8.871c.177-.216 1.131-1.377 1.149-1.395-6.423-1.074-12.282-.525-16.143,.381 .027,.018 .957,1.194 1.149,1.437l-7.695,9.384-11.475,1.932-1.023-3.129-.177,.054c7.482-6.744 17.358-10.887 28.227-10.887 10.494,0 20.067,3.849 27.45,10.185l-1.212,2.412-13.083-1.503zm-47.238,13.791l-4.824,1.137 .054,.21 4.74-1.116 3.9,10.416-5.232,12.159c-.708-.069-6.183-.594-6.183-.261 .96,8.055 4.017,15.063 9.282,21.618l3.09-9.069 12.384,1.209 7.821,11.868-5.4,8.793c-16.185-5.913-27.768-21.399-27.768-39.63 0-12.438 5.409-23.58 13.965-31.308l1.038,3.186-6.867,10.788zm39.66,48.639l6.438,9.015 .183-.129-6.399-8.949 7.95-11.79 13.992-.579c.282,.633 3.867,8.694 3.843,8.694 5.901-6.909 8.865-13.833 9.936-21.726-.012,0-5.742,.024-6.417,.03l-6.264-12.804 5.052-11.223 4.458,.711 .012-.093c2.448,5.346 3.849,11.274 3.849,17.541 0,23.316-18.903,42.219-42.216,42.219-5.007,0-9.786-.918-14.241-2.517l5.391-8.775 14.433,.375zm-19.875,8.496l-.186-.114 .036-.06c.069,.027 .141,.051 .21,.075l-.06,.099zm-13.959-71.121l.033-.012c-.012,.009-.021,.018-.027,.024l-.006-.012zm55.749-.795l.192,.096-.063,.135c-.06-.051-.111-.102-.171-.153l.042-.078z"/>
</svg>
