<svg width="96" xmlns="http://www.w3.org/2000/svg" height="96" viewBox="0 0 96 96" xmlns:xlink="http://www.w3.org/1999/xlink">
<path d="m64.686,6h-34.653l-24.783,24.717v34.563l24.783,24.72 34.653-.219 24.564-24.501v-34.563l-24.564-24.717zm21.564,58.047l-22.812,22.749-32.175,.204-23.013-22.953v-32.097l23.013-22.95h32.178l22.812,22.95v32.097zm-13.68-16.116c.576-.153 1.059-.423 1.44-.81 .342-.348 .594-.726 .75-1.137 .159-.414 .237-.891 .237-1.44 0-.597-.102-1.116-.312-1.56-.207-.438-.522-.801-.942-1.08-.369-.24-.795-.411-1.284-.51s-1.095-.153-1.821-.153h-1.923v6.915h1.581c.939,0 1.698-.075 2.274-.225zm-12.564-5.256c-.459-.603-1.017-1.056-1.671-1.356s-1.386-.45-2.199-.45c-.843,0-1.581,.147-2.211,.438-.63,.297-1.188,.75-1.674,1.368-.459,.594-.813,1.341-1.062,2.238-.246,.9-.369,1.917-.369,3.051 0,2.292 .48,4.047 1.44,5.262 .963,1.215 2.253,1.821 3.873,1.821 1.617,0 2.907-.606 3.864-1.821s1.437-2.97 1.437-5.262c0-1.158-.126-2.181-.375-3.072-.249-.894-.6-1.632-1.053-2.217zm-28.131-32.175l-22.128,22.068v30.858l22.128,22.071 30.939-.195 21.933-21.876v-30.858l-21.933-22.068h-30.939zm-.372,43.245c-.279,.663-.669,1.224-1.167,1.686-.564,.507-1.2,.9-1.908,1.173-.708,.276-1.593,.411-2.658,.411-1.269,0-2.343-.132-3.231-.393s-1.722-.582-2.502-.966v-2.907h.165c.768,.714 1.635,1.269 2.604,1.662s1.905,.588 2.805,.588c1.284,0 2.253-.267 2.91-.801 .66-.537 .987-1.239 .987-2.115 0-.69-.174-1.26-.519-1.695s-.894-.759-1.647-.969c-.543-.159-1.035-.288-1.479-.387-.447-.102-1.008-.24-1.68-.414-.603-.156-1.146-.354-1.62-.597-.477-.24-.903-.558-1.269-.948-.36-.384-.642-.834-.84-1.353-.198-.522-.3-1.119-.3-1.803 0-1.416 .552-2.598 1.656-3.558s2.514-1.437 4.227-1.437c.978,0 1.905,.099 2.778,.294s1.683,.471 2.427,.828v2.769h-.177c-.558-.501-1.269-.936-2.139-1.314s-1.785-.564-2.739-.564c-1.08,0-1.953,.252-2.619,.756s-.999,1.164-.999,1.983c0,.741 .195,1.329 .588,1.767 .393,.438 .96,.759 1.704,.96 .492,.132 1.095,.285 1.809,.45s1.305,.321 1.776,.462c1.203,.369 2.085,.924 2.64,1.668 .558,.741 .834,1.656 .834,2.742 0,.684-.138,1.356-.417,2.022zm16.155-12.081h-5.673v15.024h-2.883v-15.024h-5.484v-2.625h14.04v2.625zm18.738-2.439h4.383c1.032,0 1.911,.087 2.637,.258 .726,.174 1.368,.45 1.923,.831 .648,.444 1.158,1.011 1.524,1.692 .366,.687 .552,1.512 .552,2.478 0,.759-.135,1.476-.405,2.151-.27,.678-.642,1.254-1.119,1.728-.6,.594-1.311,1.044-2.121,1.347-.813,.306-1.839,.456-3.081,.456h-1.968v6.516h-2.319v-17.457zm-2.55,8.736c0,1.419-.18,2.697-.54,3.84s-.879,2.1-1.563,2.877c-.711,.813-1.542,1.416-2.49,1.803-.951,.387-1.995,.579-3.138,.579-1.182,0-2.244-.198-3.189-.597s-1.758-.993-2.439-1.785c-.672-.777-1.188-1.731-1.548-2.865-.36-1.137-.54-2.421-.54-3.852 0-1.47 .183-2.763 .546-3.873 .363-1.113 .882-2.067 1.554-2.865 .675-.777 1.485-1.365 2.436-1.767 .948-.405 2.013-.606 3.186-.606 1.188,0 2.259,.207 3.213,.624 .951,.414 1.758,.996 2.415,1.749 .666,.768 1.182,1.716 1.551,2.853 .363,1.134 .546,2.43 .546,3.885z"/>
</svg>
