<svg width="96" xmlns="http://www.w3.org/2000/svg" height="96" viewBox="0 0 96 96" xmlns:xlink="http://www.w3.org/1999/xlink">
<path d="m63.093,59.943v-12l8.814-8.814h-8.814v-12.186l8.814-8.814h-8.814v-5.061c0,0-9.951-4.2-16.803-4.2-6.648,0-16.197,4.2-16.197,4.2v5.064h-9l9,9v12.186l-9-.186 9,9v12h-9.186l9.186,9.186v14.814h11.814l.186,6 9-.186v-5.814h12v-15.186l9-9h-9zm-16.377,18.12c-4.968,0-9-4.029-9-9 0-4.968 4.032-8.997 9-8.997 4.971,0 9,4.029 9,8.997 0,4.974-4.029,9-9,9zm0-20.811c-4.968,0-9-4.029-9-9 0-4.968 4.032-9 9-9 4.971,0 9,4.032 9,9 0,4.971-4.029,9-9,9zm0-21.186c-4.968,0-9-4.032-9-9.003 0-4.968 4.032-9 9-9 4.971,0 9,4.032 9,9 0,4.974-4.029,9.003-9,9.003z"/>
</svg>
