<svg width="96" xmlns="http://www.w3.org/2000/svg" height="96" viewBox="0 0 96 96" xmlns:xlink="http://www.w3.org/1999/xlink">
<path d="m24.093,49.5c0,12.429 10.074,22.5 22.5,22.5 12.429,0 22.5-10.071 22.5-22.5s-10.071-22.5-22.5-22.5c-12.426,0-22.5,10.071-22.5,22.5zm22.5-38.25l-6.327,12.657h12.657l-6.33-12.657zm27.036,11.121l-13.425,4.473 8.946,8.949 4.479-13.422zm-40.647,4.473l-13.422-4.473 4.473,13.425 8.949-8.952zm-12.075,16.233l-12.657,6.33 12.657,6.327v-12.657zm51.186,12.846l12.657-6.327-12.657-6.327v12.654zm-25.5,31.827l6.327-12.657h-12.657l6.33,12.657zm13.611-15.594l13.425,4.473-4.476-13.425-8.949,8.952zm-40.644,4.473l13.425-4.473-8.949-8.949-4.476,13.422z"/>
</svg>
