<svg width="96" xmlns="http://www.w3.org/2000/svg" height="96" viewBox="0 0 96 96" xmlns:xlink="http://www.w3.org/1999/xlink">
<path d="M12 6v84h69v-84h-69zM19.5 85.623c-1.659 0-3-1.341-3-3 0-1.656 1.341-3 3-3 1.656 0 3 1.344 3 3 0 1.659-1.344 3-3 3zM19.563 16.5c-1.656 0-3-1.344-3-3 0-1.659 1.344-3 3-3 1.659 0 3 1.341 3 3 0 1.656-1.344 3-3 3zM63 78h-33v-60h33v60zM73.374 85.374c-1.656 0-3-1.344-3-3s1.344-3 3-3 3 1.344 3 3-1.344 3-3 3zM73.437 16.5c-1.656 0-3-1.344-3-3 0-1.659 1.344-3 3-3 1.659 0 3 1.341 3 3 0 1.656-1.344 3-3 3zM57 24h-21v30h21v-30zM57 57h-21v15h21v-15z"/>
</svg>
