<svg width="96" xmlns="http://www.w3.org/2000/svg" height="96" viewBox="0 0 96 96" xmlns:xlink="http://www.w3.org/1999/xlink">
<path d="m82.185,48.336l-36.675-36.423h-33.423l-.078,33.381 36.234,36.987c2.382,2.382 6.213,2.415 8.559,.069l25.452-25.455c2.343-2.343 2.313-6.177-.069-8.559zm-61.239-21.324c0-3.312 2.688-6 6-6s6,2.688 6,6c0,3.315-2.688,6-6,6s-6-2.685-6-6zm32.643,41.844l-23.334-23.334 2.121-2.121 23.334,23.334-2.121,2.121zm6.363-6.363l-23.334-23.334 2.124-2.121 23.331,23.334-2.121,2.121zm6.363-6.366l-23.331-23.334 2.121-2.121 23.331,23.334-2.121,2.121z"/>
</svg>
