<svg width="96" xmlns="http://www.w3.org/2000/svg" height="96" viewBox="0 0 96 96" xmlns:xlink="http://www.w3.org/1999/xlink">
<path d="m86.724,58.728l-27.933,27.933c-2.373,2.373-6.222,2.373-8.595,0l-34.242-34.245-8.46-26.187 6.18-6.18 11.841,11.841c-.318,2.28 .372,4.671 2.124,6.423 2.967,2.967 7.776,2.967 10.743,0 2.964-2.967 2.964-7.776 0-10.743-1.752-1.752-4.143-2.439-6.423-2.124l-11.841-11.841 6.042-6.045 26.322,8.325 34.242,34.245c2.373,2.376 2.373,6.222 0,8.598zm-52.641-24.711c-.594,.594-1.554,.594-2.148,0l-23.637-23.637c-.594-.594-.594-1.557 0-2.148s1.557-.594 2.148,0l23.634,23.634c.597,.594 .597,1.557 .003,2.151z"/>
</svg>
