<svg width="96" xmlns="http://www.w3.org/2000/svg" height="96" viewBox="0 0 96 96" xmlns:xlink="http://www.w3.org/1999/xlink">
<path d="m77.982,48.432l-36.675-36.675-35.307,.135 .054,32.493 37.986,37.986c2.382,2.385 6.216,2.418 8.562,.072l25.452-25.455c2.343-2.343 2.313-6.174-.072-8.556zm-56.739-15.576c-3.312,0-6-2.688-6-6s2.688-6 6-6c3.315,0 6,2.688 6,6s-2.685,6-6,6zm65.295,15.648l-36.675-36.675-4.413,.015 36.81,36.621c2.385,2.385 2.415,6.213 .069,8.559l-25.452,25.455c-.621,.621-1.353,1.062-2.127,1.353 2.163,.831 4.683,.405 6.405-1.314l25.458-25.455c2.343-2.346 2.31-6.177-.075-8.559z"/>
</svg>
