<svg width="96" xmlns="http://www.w3.org/2000/svg" height="96" viewBox="0 0 96 96" xmlns:xlink="http://www.w3.org/1999/xlink">
<path d="m84.366,10.752l-6.441,5.694-3.909,.06-8.19,8.565c5.28,5.61 8.538,13.149 8.538,21.462 0,17.319-14.043,31.365-31.365,31.365-17.319,0-31.362-14.046-31.362-31.365 0-17.322 14.043-31.365 31.362-31.365 7.935,0 15.159,2.967 20.682,7.824l7.905-7.905 .006-3.483 6.066-7.005-.006,6.237 6.714-.084zm-21.711,17.49l-7.974,7.977c2.7,2.931 4.389,6.81 4.389,11.109 0,9.075-7.353,16.428-16.428,16.428s-16.431-7.353-16.431-16.428c0-9.072 7.356-16.431 16.431-16.431 3.693,0 7.065,1.263 9.813,3.321l8.058-8.058c-4.707-4.05-10.815-6.513-17.514-6.513-14.847,0-26.883,12.039-26.883,26.886 0,14.847 12.036,26.88 26.883,26.88s26.883-12.036 26.883-26.88c-.003-7.074-2.757-13.491-7.227-18.291zm-20.139,23.814c-2.472,0-4.479-2.004-4.479-4.479 0-2.475 2.007-4.482 4.479-4.482 .312,0 .588,.117 .885,.18l6.939-6.939c-2.184-1.533-4.827-2.448-7.698-2.448-7.425,0-13.44,6.021-13.44,13.443 0,7.422 6.018,13.44 13.44,13.44s13.44-6.018 13.44-13.44c0-3.474-1.353-6.609-3.519-8.997l-6.555,6.558c.579,.756 .987,1.662 .987,2.688 .003,2.472-2.004,4.476-4.479,4.476zm-12.951,28.188c.891,.45 1.806,.855 2.745,1.218l-5.304,9.186c-.414,.714-1.326,.954-2.043,.546-.711-.411-.957-1.323-.546-2.04l5.148-8.91zm15.003,2.349v4.185c0,.825-.672,1.494-1.494,1.494-.825,0-1.494-.669-1.494-1.494v-4.185c.498,.024 .99,.075 1.494,.075s.996-.051 1.494-.075zm18.285,6.564c.411,.714 .168,1.629-.549,2.04s-1.626,.171-2.043-.546l-5.301-9.186c.936-.363 1.854-.768 2.745-1.218l5.148,8.91z"/>
</svg>
