<svg width="96" xmlns="http://www.w3.org/2000/svg" height="96" viewBox="0 0 96 96" xmlns:xlink="http://www.w3.org/1999/xlink">
<path d="m56.877,53.739v-2.751h9.189v2.751h-9.189zm0-8.814h9.189v2.937h-9.189v-2.937zm0-5.88h9.189v2.94h-9.189v-2.94zm0-6.066h9.189v2.937l-9.189-.186v-2.751zm0-6.252h9.189v3.126h-9.189v-3.126zm0-5.877h9.189v2.94h-9.189v-2.94zm5.322,51.609c0,9.738-7.896,17.634-17.634,17.634s-17.634-7.896-17.634-17.634c0-6.678 3.525-12.483 8.997-15.477v-39.261c0-4.869 4.134-8.814 9.003-8.814s8.817,3.945 8.817,8.814v39.705c5.064,3.102 8.451,8.664 8.451,15.033zm-11.388-13.254v-41.484c0-3.246-2.631-5.877-5.877-5.877s-5.877,2.631-5.877,5.877v41.133c-5.382,2.184-9.186,7.44-9.186,13.605 0,8.115 6.579,14.694 14.694,14.694 8.115,0 14.691-6.579 14.691-14.694 .003-5.874-3.465-10.899-8.445-13.254zm-6.246,25.011c-6.495,0-11.757-5.265-11.757-11.757 0-5.607 3.933-10.278 9.186-11.454v-28.026h5.88v28.254c4.869,1.437 8.448,5.892 8.448,11.226 0,6.492-5.262,11.757-11.757,11.757z"/>
</svg>
