<svg width="120" xmlns="http://www.w3.org/2000/svg" height="96" viewBox="0 0 120 96" xmlns:xlink="http://www.w3.org/1999/xlink">
<path d="m118.5,69h1.5v3c-.897,0-1.884,0-3,0-3.312,0-6,2.688-6,6 0,1.098 0,2.115 0,3h-102c0-.885 0-1.902 0-3 0-3.312-2.688-6-6-6-.957,0-1.998,0-3,0v-3h1.5c.828,0 1.5-.672 1.5-1.5s-.672-1.5-1.5-1.5h-1.5v-3h1.5c.828,0 1.5-.672 1.5-1.5s-.672-1.5-1.5-1.5h-1.5v-3h1.5c.828,0 1.5-.672 1.5-1.5s-.672-1.5-1.5-1.5h-1.5v-3h1.5c.828,0 1.5-.672 1.5-1.5s-.672-1.5-1.5-1.5h-1.5v-3h1.5c.828,0 1.5-.672 1.5-1.5s-.672-1.5-1.5-1.5h-1.5v-3h1.5c.828,0 1.5-.672 1.5-1.5s-.672-1.5-1.5-1.5h-1.5v-3h1.5c.828,0 1.5-.672 1.5-1.5s-.672-1.5-1.5-1.5h-1.5v-3c.897,0 1.884,0 3,0 3.312,0 6-2.688 6-6 0-1.098 0-2.115 0-3h102c0,.885 0,1.902 0,3 0,3.312 2.688,6 6,6 1.116,0 2.103,0 3,0v3h-1.5c-.828,0-1.5,.672-1.5,1.5s.672,1.5 1.5,1.5h1.5v3h-1.5c-.828,0-1.5,.672-1.5,1.5s.672,1.5 1.5,1.5h1.5v3h-1.5c-.828,0-1.5,.672-1.5,1.5s.672,1.5 1.5,1.5h1.5v3h-1.5c-.828,0-1.5,.672-1.5,1.5s.672,1.5 1.5,1.5h1.5v3h-1.5c-.828,0-1.5,.672-1.5,1.5s.672,1.5 1.5,1.5h1.5v3h-1.5c-.828,0-1.5,.672-1.5,1.5s.672,1.5 1.5,1.5h1.5v3h-1.5c-.828,0-1.5,.672-1.5,1.5s.672,1.5 1.5,1.5zm-10.5-36c0-3.312-2.688-6-6-6h-84c-3.312,0-6,2.688-6,6v33c0,3.312 2.688,6 6,6h84c3.312,0 6-2.688 6-6v-33zm-6,36h-84c-1.659,0-3-1.344-3-3v-33c0-1.659 1.341-3 3-3h84c1.656,0 3,1.341 3,3v33c0,1.656-1.344,3-3,3zm-67.839-27.036h-11.919v1.77h4.956v13.266h1.992v-13.266h4.968v-1.77zm4.146,0h-1.992v15.036h1.992v-15.036zm5.973,4.506c.312-.936 .861-1.68 1.638-2.232 .774-.555 1.74-.831 2.895-.831 1.005,0 1.839,.249 2.502,.75 .666,.498 1.17,1.296 1.518,2.391l1.956-.462c-.402-1.386-1.116-2.463-2.142-3.228s-2.292-1.149-3.795-1.149c-1.326,0-2.541,.303-3.645,.909-1.104,.603-1.953,1.491-2.556,2.658-.597,1.167-.897,2.532-.897,4.095 0,1.437 .267,2.781 .798,4.032 .528,1.254 1.302,2.208 2.313,2.868 1.017,.66 2.334,.99 3.954,.99 1.563,0 2.889-.429 3.972-1.287s1.833-2.103 2.25-3.738l-1.992-.504c-.273,1.266-.798,2.22-1.566,2.865-.774,.642-1.713,.963-2.829,.963-.915,0-1.767-.237-2.553-.708s-1.365-1.185-1.737-2.139-.561-2.07-.561-3.351c.006-.996 .162-1.959 .477-2.892zm25.812-4.506h-2.694l-7.464,7.44v-7.44h-1.992v15.036h1.992v-5.214l2.466-2.385 5.349,7.599h2.625l-6.585-8.94 6.303-6.096zm13.725,13.266h-9.222v-5.121h8.31v-1.77h-8.31v-4.605h8.871v-1.77h-10.863v15.036h11.214v-1.77zm14.061-13.266h-11.919v1.77h4.956v13.266h1.992v-13.266h4.968v-1.77z"/>
</svg>
