<svg width="117" xmlns="http://www.w3.org/2000/svg" height="96" viewBox="0 0 117 96" xmlns:xlink="http://www.w3.org/1999/xlink">
<path d="m117,58.314v16.686c0,3.312-2.688,6-6,6h-105c-3.312,0-6-2.688-6-6v-16.5c4.971,0 9-4.032 9-9 0-4.971-4.029-9-9-9v-16.5c0-3.312 2.688-6 6-6h105c3.312,0 6,2.688 6,6v16.314c-4.971,0-9,4.029-9,9 0,4.968 4.029,9 9,9zm-15-25.314c0-3.312-2.688-6-6-6h-75c-3.312,0-6,2.688-6,6v33c0,3.312 2.688,6 6,6h75c3.312,0 6-2.688 6-6v-33zm-6,36h-75c-1.659,0-3-1.344-3-3v-33c0-1.659 1.341-3 3-3h75c1.656,0 3,1.341 3,3v33c0,1.656-1.344,3-3,3zm-58.59-22.386l-2.721-7.74-2.721,7.74-7.842,.33 6.162,5.112-2.127,7.944 6.528-4.578 6.525,4.578-2.124-7.941 6.159-5.112-7.839-.333zm24,0l-2.721-7.74-2.721,7.74-7.842,.33 6.162,5.112-2.127,7.944 6.528-4.578 6.525,4.578-2.124-7.941 6.159-5.112-7.839-.333zm24,0l-2.721-7.74-2.721,7.74-7.839,.33 6.159,5.112-2.127,7.944 6.528-4.578 6.525,4.578-2.124-7.941 6.159-5.112-7.839-.333z"/>
</svg>
