<svg width="120" xmlns="http://www.w3.org/2000/svg" height="96" viewBox="0 0 120 96" xmlns:xlink="http://www.w3.org/1999/xlink">
<path d="m120,58.314v16.686c0,3.312-2.688,6-6,6h-16.5c.828,0 1.5-.672 1.5-1.5s-.672-1.5-1.5-1.5-1.5,.672-1.5,1.5 .672,1.5 1.5,1.5h-91.5c-3.312,0-6-2.688-6-6v-16.5c4.968,0 9-4.032 9-9 0-4.971-4.032-9-9-9v-16.5c0-3.312 2.688-6 6-6h91.5c-.828,0-1.5,.672-1.5,1.5s.672,1.5 1.5,1.5 1.5-.672 1.5-1.5-.672-1.5-1.5-1.5h16.5c3.312,0 6,2.688 6,6v16.314c-4.971,0-9,4.029-9,9 0,4.968 4.029,9 9,9zm-93.546-16.35h-2.148l-5.766,15.036h2.109l1.65-4.56h6.291l1.749,4.56h2.268l-6.153-15.036zm21.351,3.861c-.393-1.044-.987-1.899-1.779-2.568-.609-.519-1.344-.879-2.205-1.077-.615-.144-1.509-.213-2.679-.213h-5.181v15.033h5.427c.912,0 1.713-.084 2.418-.258 .699-.171 1.299-.423 1.794-.753 .498-.33 .954-.786 1.371-1.362 .417-.579 .759-1.311 1.026-2.19s.402-1.893 .402-3.036c-.003-1.341-.201-2.532-.594-3.576zm17.655-3.861h-2.685l-3.609,10.458c-.363,1.062-.633,1.863-.804,2.409-.153-.492-.393-1.233-.72-2.223l-3.564-10.644h-2.988v15.036h1.923v-12.798l4.344,12.798h1.797l4.386-12.585v12.585h1.923v-15.036zm5.538,0h-1.992v15.036h1.992v-15.036zm14.82,0h-11.919v1.77h4.956v13.266h1.992v-13.266h4.968v-1.77zm11.682-17.964c-.828,0-1.5,.672-1.5,1.5s.672,1.5 1.5,1.5 1.5-.672 1.5-1.5-.672-1.5-1.5-1.5zm0,6c-.828,0-1.5,.672-1.5,1.5s.672,1.5 1.5,1.5 1.5-.672 1.5-1.5-.672-1.5-1.5-1.5zm0,6c-.828,0-1.5,.672-1.5,1.5s.672,1.5 1.5,1.5 1.5-.672 1.5-1.5-.672-1.5-1.5-1.5zm0,6c-.828,0-1.5,.672-1.5,1.5s.672,1.5 1.5,1.5 1.5-.672 1.5-1.5-.672-1.5-1.5-1.5zm0,6c-.828,0-1.5,.672-1.5,1.5s.672,1.5 1.5,1.5 1.5-.672 1.5-1.5-.672-1.5-1.5-1.5zm0,6c-.828,0-1.5,.672-1.5,1.5s.672,1.5 1.5,1.5 1.5-.672 1.5-1.5-.672-1.5-1.5-1.5zm0,6c-.828,0-1.5,.672-1.5,1.5s.672,1.5 1.5,1.5 1.5-.672 1.5-1.5-.672-1.5-1.5-1.5zm0,6c-.828,0-1.5,.672-1.5,1.5s.672,1.5 1.5,1.5 1.5-.672 1.5-1.5-.672-1.5-1.5-1.5zm0,6c-.828,0-1.5,.672-1.5,1.5s.672,1.5 1.5,1.5 1.5-.672 1.5-1.5-.672-1.5-1.5-1.5zm-52.653-17.826c-.336,.333-.786,.594-1.35,.78s-1.341,.279-2.331,.279h-3.21v-11.496h3.159c1.185,0 2.043,.102 2.574,.309 .738,.288 1.365,.852 1.881,1.698 .519,.843 .777,2.055 .777,3.627 0,1.137-.132,2.103-.396,2.901s-.636,1.428-1.104,1.902zm-20.331-7.755c.348-.951 .618-1.911 .813-2.871 .234,.813 .591,1.851 1.071,3.114l1.563,4.164h-5.091l1.644-4.407z"/>
</svg>
