<svg width="96" xmlns="http://www.w3.org/2000/svg" height="96" viewBox="0 0 96 96" xmlns:xlink="http://www.w3.org/1999/xlink">
<path d="m48,10.5c-21.543,0-39,17.46-39,39s17.457,39 39,39c21.537,0 39-17.46 39-39s-17.46-39-39-39zm-.315,70.581c-17.397,0-31.5-14.103-31.5-31.5s14.103-31.5 31.5-31.5c17.394,0 31.5,14.103 31.5,31.5 0,17.397-14.106,31.5-31.5,31.5zm9.105-29.688h-8.94v-15.096c0-1.638-1.329-2.97-2.967-2.97-1.641,0-2.97,1.329-2.97,2.97v18.063c0,1.641 1.329,2.967 2.97,2.967h11.907c1.641,0 2.97-1.326 2.97-2.967 0-1.638-1.329-2.967-2.97-2.967z"/>
</svg>
