<svg width="117" xmlns="http://www.w3.org/2000/svg" height="96" viewBox="0 0 117 96" xmlns:xlink="http://www.w3.org/1999/xlink">
<path d="m117,36.156l-6,.063v-6.126c0-4.971-4.032-9-9-9h-93c-4.971,0-9,4.029-9,9v33c0,4.968 4.029,9 9,9h11.937l-.063,2.814h69.126l-.063-2.814h12.063c4.968,0 9-4.032 9-9v-6.186h6.123l-.123-20.751zm-9,26.937c0,3.312-2.688,6-6,6h-93c-3.312,0-6-2.688-6-6v-33c0-3.312 2.688-6 6-6h93c3.312,0 6,2.688 6,6v33zm-6-36h-93c-1.659-0-3,1.341-3,3v33c0,1.659 1.341,3 3,3h93c1.656,0 3-1.341 3-3v-33c0-1.656-1.344-3-3-3zm-5.259,8.949l-2.4,2.25h-7.293l-2.04-2.25h11.733zm-2.751,9.375l1.05,1.113-1.26,1.113h-7.836l-.993-1.113 1.2-1.113h7.839zm-9.429-8.979l2.037,2.25-.507,6-1.53,1.41-.78-.84 .78-8.82zm-19.47,0l2.037,2.25-.507,6-1.53,1.41-.78-.84 .78-8.82zm9.42,8.979l1.053,1.113-1.263,1.113h-7.827l-.99-1.113 1.197-1.113h7.83zm-39.396-8.979l2.037,2.25-.525,6-1.515,1.413-.771-.84 .774-8.823zm9.417,8.979l1.053,1.113-1.26,1.113h-7.839l-.978-1.113 1.197-1.113h7.827zm-16.707-9.375l-2.403,2.25h-7.29l-2.04-2.25h11.733zm-12.18,.396l2.04,2.25-.528,6-1.515,1.413-.771-.84 .774-8.823zm-.999,11.37l.9-.867 1.29,1.407-.504,6.003-2.454,2.25 .768-8.793zm-.396,9.21l2.46-2.25h7.278l2.007,2.25h-11.745zm12.195-.423l-2.016-2.247 .504-6.003 1.533-1.407 .75,.867-.771,8.79zm.993-11.337l-.879,.84-1.305-1.413 .525-6 2.436-2.25-.777,8.823zm6.678,2.55l.9-.867 1.29,1.407-.504,6.003-2.454,2.247 .768-8.79zm-.399,9.21l2.46-2.25h7.281l2.007,2.25h-11.748zm12.198-.42l-2.01-2.25 .507-6 1.533-1.41 .753,.867-.783,8.793zm-1.02-18.306h-7.29l-2.043-2.25h11.73l-2.397,2.25zm10.83,18.726h-2.25l.207-2.25h2.25l-.207,2.25zm1.32-15.234h-2.25l.21-2.25h2.25l-.21,2.25zm6.666,15.234l2.43-2.25h7.29l2.01,2.25h-11.73zm12.18-.423l-2.013-2.247 .51-6 1.533-1.41 .75,.867-.78,8.79zm-1.02-18.303h-7.29l-2.043-2.25h11.73l-2.397,2.25zm8.31,18.726l2.433-2.25h7.29l2.01,2.25h-11.733zm12.18-.423l-2.016-2.247 .504-6.003 1.533-1.407 .75,.867-.771,8.79zm.996-11.337l-.882,.84-1.305-1.413 .528-6 2.436-2.25-.777,8.823z"/>
</svg>
