<svg width="96" xmlns="http://www.w3.org/2000/svg" height="96" viewBox="0 0 96 96" xmlns:xlink="http://www.w3.org/1999/xlink">
<path d="m83.349,23.808c2.877,6.939 1.506,15.222-4.137,20.865-6.213,6.213-15.603,7.185-22.902,3.066l-5.277,5.763 3.765,3.78 2.25-2.25c1.149-1.152 3.015-1.152 4.164,0l18.246,18.432c1.152,1.149 1.152,3.015 0,4.164l-8.328,8.328c-1.149,1.152-3.015,1.152-4.164,0l-18.246-18.432c-1.152-1.149-1.152-3.015 0-4.164l2.055-2.055-3.588-3.597-25.233,27.567c-2.301,2.301-6.03,2.301-8.328,0l-2.082-2.082c-2.301-2.301-2.301-6.03 0-8.328l28.746-24.075-19.092-19.143-6.03-.003-6.978-11.22 5.616-5.625 11.475,7.023 .075,5.904 19.314,19.389 5.619-4.704c-5.493-7.488-4.92-18.036 1.848-24.804 5.616-5.616 13.854-7.011 20.775-4.188l-12.372,12.201 10.413,10.413 12.396-12.225zm-64.899,53.994c-1.149-1.149-3.012-1.149-4.164,0-1.152,1.152-1.152,3.015 0,4.167 1.152,1.149 3.015,1.149 4.164,0 1.152-1.155 1.152-3.018 0-4.167z"/>
</svg>
