<svg width="96" xmlns="http://www.w3.org/2000/svg" height="96" viewBox="0 0 96 96" xmlns:xlink="http://www.w3.org/1999/xlink">
<path d="m80.907,39c-1.659,0-3,0-3,0h-5.937l-.039,3.768c1.794,1.023 2.976,2.967 2.976,5.232l.126,20.814h-56.94v-20.814c0-2.214 1.212-4.128 3-5.169v-3.831h-6c0,0-1.344,0-3,0-1.659,0-3-1.344-3-3v-3c0-1.659 1.341-3 3-3 1.656,0 3,0 3,0v6h6v-9c0-3.312 2.688-6 6-6h39c3.312,0 6,2.688 6,6l-.093,9h5.907v-6c0,0 1.341,0 3,0 1.656,0 3,1.341 3,3v3c0,1.656-1.344,3-3,3zm-44.814,27h21v-3h-21v3zm0-6h21v-3h-21v3zm0-6h21v-3h-21v3zm-12,9c0,1.656 1.341,3 3,3h3c1.656,0 3-1.344 3-3 0-1.659-1.344-3-3-3h-3c-1.656,0-3,1.341-3,3zm42-33c0-1.659-1.341-3-3-3h-33c-1.659,0-3,1.341-3,3v15h39v-15zm0,30h-3c-1.659,0-3,1.341-3,3 0,1.656 1.341,3 3,3h3c1.656,0 3-1.344 3-3 0-1.659-1.344-3-3-3zm3-42h-45c-3.312,0-6,2.688-6,6v-15c0-1.659 1.341-3 3-3h51c1.656,0 3,1.341 3,3v15c0-3.312-2.685-6-6-6zm6,56.814c0,1.656-1.344,3-3,3h-51c-1.659,0-3-1.344-3-3 0-1.659 0-3 0-3h57c0,0 0,1.341 0,3zm-42,12.186c0,1.656-1.344,3-3,3h-3c-1.659,0-3-1.344-3-3v-6h9v6zm36,0c0,1.656-1.344,3-3,3h-3c-1.659,0-3-1.344-3-3v-6h9v6z"/>
</svg>
