<svg width="96" xmlns="http://www.w3.org/2000/svg" height="96" viewBox="0 0 96 96" xmlns:xlink="http://www.w3.org/1999/xlink">
<path d="m84.045,86.832h-6.147v3.168h-9.129v-3.168h-41.724v3.168h-9.129l.003-3.168h-5.964c-3.294,0-5.961-2.67-5.961-5.961v-56.811c0-3.291 2.67-5.961 5.961-5.961h20.862c0,0 1.314-1.824 3.717-3.486l-7.659-7.662 2.109-2.106 8.265,8.262c1.572-.675 3.393-1.155 5.49-1.155 2.229,0 4.119,.549 5.73,1.29l8.397-8.397 2.106,2.106-7.842,7.845c2.187,1.611 3.345,3.306 3.345,3.306h27.567c3.294,0 5.961,2.67 5.961,5.961v56.811c.003,3.291-2.667,5.958-5.958,5.958zm-21.234-56.811c0-1.647-1.335-2.979-2.982-2.979h-41.724c-1.647,0-2.982,1.332-2.982,2.979v44.892c0,1.647 1.335,2.979 2.982,2.979h41.721c1.647,0 2.982-1.332 2.982-2.979v-44.892zm9.318,47.871h8.751v-2.979h-8.751v2.979zm0-5.961h8.751v-2.976h-8.751v2.976zm0-6.147h8.751v-2.979h-8.751v2.979zm0-5.961h8.751v-2.982h-8.751v2.982zm4.167-32.709c-2.466,0-4.47,2.001-4.47,4.47s2.004,4.47 4.47,4.47c2.469,0 4.47-2.001 4.47-4.47s-2.001-4.47-4.47-4.47zm0,11.886c-2.466,0-4.47,1.998-4.47,4.467s2.004,4.47 4.47,4.47c2.469,0 4.47-2.001 4.47-4.47s-2.001-4.467-4.47-4.467z"/>
</svg>
