<svg width="96" xmlns="http://www.w3.org/2000/svg" height="96" viewBox="0 0 96 96" xmlns:xlink="http://www.w3.org/1999/xlink">
<path d="m80.52,50.472c0,0-3.357-5.499-7.089-5.499-3.726,0-7.641,5.685-7.641,5.685s-4.101-5.679-7.458-5.679c-2.841,0-6.186,3.906-7.155,5.112v21.72c0,2.175-.222,4.014-.669,5.532-.444,1.512-1.104,2.742-1.977,3.69-.87,.948-1.956,1.641-3.258,2.067-1.299,.429-2.805,.639-4.515,.639-1.557,0-2.949-.234-4.182-.702-1.233-.474-2.271-1.143-3.117-2.016s-1.497-1.923-1.95-3.159c-.45-1.23-.681-2.607-.681-4.125v-2.097h5.94c0,1.968-.015,4.548 .702,5.55 .717,.996 1.812,1.5 3.285,1.5 .993,0 2.412-.492 2.412-.492s1.086-.78 1.413-1.371c.324-.585 .654-2.127 .654-2.127s.168-1.74 .168-2.736v-22.218c-1.329-1.503-4.59-4.866-7.203-4.866-3.354,0-8.016,5.592-8.016,5.592s-4.473-5.592-7.458-5.592c-2.982,0-7.269,5.592-7.269,5.592s-1.308-29.268 28.335-32.25l4.29-5.964 4.104,5.964c30.567,1.863 28.335,32.25 28.335,32.25z"/>
</svg>
