<svg width="96" xmlns="http://www.w3.org/2000/svg" height="96" viewBox="0 0 96 96" xmlns:xlink="http://www.w3.org/1999/xlink">
<path d="m84,42v-19.5c0-5.799-4.701-10.5-10.5-10.5s-10.5,4.701-10.5,10.5v17.799c8.091,5.028 13.5,13.971 13.5,24.201 0,15.741-12.759,28.5-28.5,28.5s-28.5-12.759-28.5-28.497c0-15.741 12.759-28.5 28.5-28.5 3.15,0 6.168,.531 9,1.473v-14.976c0-9.111 7.389-16.5 16.5-16.5s16.5,7.389 16.5,16.5v19.5h-6zm-36-1.5c-13.254,0-24,10.746-24,24s10.746,23.997 24,23.997 24-10.743 24-23.997c0-13.254-10.746-24-24-24zm0,46.5c-12.429,0-22.5-10.071-22.5-22.497 0-12.432 10.071-22.503 22.5-22.503s22.5,10.071 22.5,22.503c0,12.426-10.071,22.497-22.5,22.497zm4.5-28.497c0-2.487-2.016-4.5-4.5-4.5s-4.5,2.013-4.5,4.5c0,2.127 1.512,3.831 3.501,4.296l-3.501,13.701h9.186l-3.942-13.65c2.115-.369 3.756-2.127 3.756-4.347z"/>
</svg>
