<svg width="96" xmlns="http://www.w3.org/2000/svg" height="96" viewBox="0 0 96 96" xmlns:xlink="http://www.w3.org/1999/xlink">
<path d="m23.787,46.758l19.092-19.092 9.609,9.609c-.798,1.671-.522,3.723 .864,5.106 1.383,1.386 3.438,1.662 5.106,.867l9.873,9.873-19.089,19.092-25.455-25.455zm35.928-10.74c-1.383-1.383-3.438-1.662-5.106-.864l-9.609-9.609 14.847-14.847c2.343-2.343 6.144-2.343 8.484,0l16.974,16.968c2.34,2.343 2.34,6.144 0,8.484l-14.85,14.85-9.876-9.873c.798-1.674 .522-3.726-.864-5.109zm-33.807,51.045l-16.971-16.968 16.971-16.971 16.971,16.971-16.971,16.968zm-4.11-17.106l-4.242-4.242-4.377,4.377 4.245,4.242 4.374-4.377zm8.484,8.487l-4.242-4.242-4.374,4.374 4.242,4.242 4.374-4.374z"/>
</svg>
