<svg width="107" xmlns="http://www.w3.org/2000/svg" height="96" viewBox="0 0 107 96" xmlns:xlink="http://www.w3.org/1999/xlink">
<path d="m71.01,31.749l-2.97,6.057c2.841,2.436 4.641,6.051 4.641,10.083 0,4.446-1.008,8.466-4.359,10.878l2.871,5.121c4.383-3.933 7.143-9.639 7.143-15.993-.003-6.435-2.838-12.213-7.326-16.146zm22.044-21.21l-4.179,5.07c7.794,8.508 12.726,19.845 12.726,32.292 0,12.426-4.923,23.748-12.69,32.253l4.173,5.175c8.889-10.008 14.274-22.944 14.274-37.428-.003-14.445-5.457-27.36-14.304-37.362zm-11.088,10.359l-3.72,5.349c5.526,5.55 9.03,13.2 9.03,21.651 0,8.622-3.645,16.407-9.369,21.987l3.867,5.133c6.915-7.062 11.079-16.452 11.079-27.117 0-10.467-4.194-19.974-10.887-27.003zm-81.966,15.123v24.27c0,3.093 2.688,7.062 6,7.062h18.081v-38.817h-18.081c-3.312,0-6,4.395-6,7.485zm52.023-25.164l-25.143,17.331v39.75l25.143,17.52c3.312,0 8.064-2.508 8.064-5.601v-63.399c0-3.093-4.752-5.601-8.064-5.601z"/>
</svg>
