<svg width="96" xmlns="http://www.w3.org/2000/svg" height="96" viewBox="0 0 96 96" xmlns:xlink="http://www.w3.org/1999/xlink">
<path d="m86.145,47.808l6.72,6.726c.438,.435 .438,1.143 0,1.581l-2.373,2.373c-.435,.435-1.143,.435-1.581,0l-6.72-6.726-6.726,6.726c-.438,.435-1.143,.435-1.581,0l-2.373-2.373c-.435-.438-.435-1.149 0-1.581l6.726-6.726-6.726-6.726c-.435-.438-.435-1.143 0-1.581l2.373-2.373c.438-.438 1.146-.438 1.581,0l6.726,6.723 6.72-6.723c.438-.438 1.149-.438 1.581,0l2.373,2.373c.438,.438 .438,1.146 0,1.581l-6.72,6.726zm-31.32,37.494l-25.137-17.52v-39.753l25.137-17.331c3.315,0 8.067,2.508 8.067,5.601v63.399c.003,3.096-4.749,5.604-8.067,5.604zm-52.017-24.981v-24.459c0-3.09 2.688-7.485 6-7.485h18.081v39.003h-18.081c-3.315,.003-6-3.963-6-7.059z"/>
</svg>
