<svg width="96" xmlns="http://www.w3.org/2000/svg" height="96" viewBox="0 0 96 96" xmlns:xlink="http://www.w3.org/1999/xlink">
<path d="m2.916,39.171c4.287-20.625 21.999-36.096 43.218-36.096 21.222,0 38.934,15.468 43.218,36.093h-86.436zm46.791-19.698l-3.426-6.99-3.522,6.99h-6.897l5.487,5.439-1.458,7.35 6.192-3.021 6.984,2.97-2.151-7.047 5.685-5.694h-6.894zm-28.68,66.57c-8.262-6.108-14.949-15.459-17.622-25.89h17.622v25.89zm5.961-31.989h-3.051v-12.015h3.051v12.015zm3.051-12.015h2.862v12.015h-2.862v-12.015zm0,14.877h-3.051v-2.862h3.051v2.862zm11.775,37.449c-4.275-.438-8.181-1.512-12.012-3.111v-31.101h12.012v34.212zm-2.814-37.449v-2.862h3.051v2.862h-3.051zm-3.051-2.862v-8.964h3.051v8.964h-3.051zm3.051-12.015h3.051v3.051h-3.051v-3.051zm5.916,3.048v8.964h-2.865v-8.964h2.865zm12.012-3.048v3.051h-2.862v11.826h-3.051v-11.826h-3.051v-3.051h8.964zm6.051,49.002c-3.825,1.653-7.734,2.781-12.015,3.261v-34.149h12.015v30.888zm-3-49.002h8.958v3.051h-5.913v3.051h5.913v3.054h-5.913v2.862h5.913v2.862h-8.958v-14.88zm11.958,43.62v-25.506h16.923c-2.619,10.212-8.916,19.407-16.923,25.506z"/>
</svg>
