<svg width="96" xmlns="http://www.w3.org/2000/svg" height="96" viewBox="0 0 96 96" xmlns:xlink="http://www.w3.org/1999/xlink">
<path d="m54,66c-3.312,0-6-2.688-6-6v-6c0-3.315 2.688-6 6-6h36v18h-36zm4.5-13.251c-2.484,0-4.5,2.016-4.5,4.5 0,2.487 2.016,4.5 4.5,4.5 2.487,0 4.5-2.013 4.5-4.5 0-2.484-2.013-4.5-4.5-4.5zm-13.5,1.251v6c0,4.968 4.032,9 9,9h30v12c0,4.968-4.029,9-9,9h-63c-4.968,0-9-4.032-9-9v-57c0-4.971 4.032-9 9-9h28.896l-7.047,2.937h-23.346c-2.484,0-4.5,2.016-4.5,4.5 0,2.487 2.016,4.5 4.5,4.5h73.497v18.063h-30c-4.968,0-9,4.029-9,9zm-29.997-21h-6v6h3v-3h3v-3zm0,9h-6v6h3.123l-.123-3 3,.063v-3.063zm-0,9h-6v6h3.063l-.063-3h3v-3zm0,9h-6v6h3.063l-.063-3 3,.063v-3.063zm0,9h-6v6h3v-3h3v-3zm0,9h-6v6h3.063l-.063-2.937h3v-3.063zm12-54.186l35.25-14.814 6.75,14.814h-42zm40.935-8.814h7.062c2.628,0 4.968,1.143 6.615,2.937h-12.243l-1.434-2.937z"/>
</svg>
