<svg width="96" xmlns="http://www.w3.org/2000/svg" height="96" viewBox="0 0 96 96" xmlns:xlink="http://www.w3.org/1999/xlink">
<path d="m91.665,75.657l-37.557-64.308c-3.132-3.132-8.214-3.132-11.346,0l-37.56,64.308c-3.132,3.129-3.132,8.208 0,11.343h86.46c3.138-3.135 3.138-8.214 .003-11.343zm-46.689-41.223c0-2.487 2.016-4.5 4.5-4.5s4.5,2.013 4.5,4.5v21c0,2.484-2.016,4.5-4.5,4.5s-4.5-2.016-4.5-4.5v-21zm4.527,40.524c-2.484,0-4.5-2.01-4.5-4.5 0-2.484 2.016-4.5 4.5-4.5s4.5,2.016 4.5,4.5c0,2.49-2.016,4.5-4.5,4.5z"/>
</svg>
