<svg width="96" xmlns="http://www.w3.org/2000/svg" height="96" viewBox="0 0 96 96" xmlns:xlink="http://www.w3.org/1999/xlink">
<path d="M12 39v45c0 1.659 1.341 3 3 3h63c1.656 0 3-1.341 3-3v-45c0 0-16.929-6.186-34.53-6.186-16.884 0-34.47 6.186-34.47 6.186zM64.5 60.375c0 9.528-7.722 17.25-17.25 17.25s-17.25-7.722-17.25-17.25 7.722-17.25 17.25-17.25 17.25 7.722 17.25 17.25zM78 12h-63c-1.659 0-3 1.341-3 3v21c0 0 17.436-6 34.47-6 17.466 0 34.53 6 34.53 6v-21c0-1.659-1.344-3-3-3zM33 24h-15v-6h15v6zM55.497 24c-1.656 0-2.997-1.344-2.997-3s1.341-3 2.997-3c1.659 0 3.003 1.344 3.003 3s-1.344 3-3.003 3zM64.5 24c-1.659 0-3-1.344-3-3s1.341-3 3-3c1.656 0 3 1.344 3 3s-1.344 3-3 3zM73.314 24c-1.659 0-3-1.344-3-3s1.341-3 3-3c1.656 0 3 1.344 3 3s-1.347 3-3 3zM33.186 60.375c0 7.767 6.297 14.064 14.064 14.064s14.064-6.297 14.064-14.064c0-0.018-4.812 4.938-14.064-0.564-9.252-5.499-14.064 0.546-14.064 0.564z"/>
</svg>
