<svg width="96" xmlns="http://www.w3.org/2000/svg" height="96" viewBox="0 0 96 96" xmlns:xlink="http://www.w3.org/1999/xlink">
<path d="m84,54.093h-3v21c0,4.968-4.032,9-9,9h-12v11.814h-33v-11.814h-12c-4.971,0-9-4.032-9-9v-51c0-4.971 4.029-9 9-9h12v-12h33v12h12c4.968,0 9,4.029 9,9v21h3c1.656,0 3,1.344 3,3v3c0,1.656-1.344,3-3,3zm-9-27c0-3.315-2.688-6-6-6h-51c-3.312,0-6,2.688-6,6v45c0,3.312 2.688,6 6,6h51c3.312,0 6-2.688 6-6v-45zm-12,24h-6v-9h3v6h3v-6h3v15h-3v-6zm-15,6h-3v-15h9v15h-6zm3-12h-3v9h3v-9zm-12,6h3v3h-3v-3zm0-6h3v3h-3v-3zm-9,12v-3h3v-3h-3v-3h3v-3h-3v-3h6v15h-6zm-9,0v-9h3v-3h-3v-3h6v9h-3v3h3v3h-6z"/>
</svg>
