<svg width="96" xmlns="http://www.w3.org/2000/svg" height="96" viewBox="0 0 96 96" xmlns:xlink="http://www.w3.org/1999/xlink">
<path d="m21.003,45h3v3h-3v9h6v-3h-3v-3h3v-9h-6v3zm18.003,9h3v-3h-3v3zm-9.003-9h3v3h-3v3h3v3h-3v3h6v-15h-6v3zm9.003,3h3v-3h-3v3zm6,9h9v-15h-9v15zm3-12h3v9h-3v-9zm12-3h-3v9h6v6h3v-15h-3v6h-3v-6zm24,0h-3.003l.015-12.087-16.89-17.883-4.122-.003v-6.027h-33v5.994l-4.212-.003-16.758,17.637-.042,36.648 16.701,17.508 4.311,.003v6.213h33v-6.18l4.023,.003 16.947-17.64 .012-9.183h3.018c1.659,0 3-1.341 3-3v-9c0-1.656-1.341-3-3-3zm-9.135,21.882l-13.506,14.205-35.991-.033-13.269-14.067 .033-32.055 13.134-14.022 36.366,.036 13.269,14.256-.036,31.68z"/>
</svg>
