<svg width="96" xmlns="http://www.w3.org/2000/svg" height="96" viewBox="0 0 96 96" xmlns:xlink="http://www.w3.org/1999/xlink">
<path d="M84 12h-72c-3.315 0-6 2.688-6 6v60c0 3.312 2.685 6 6 6h72c3.312 0 6-2.688 6-6v-60c0-3.312-2.688-6-6-6zM34.686 16.5c1.656 0 2.997 1.344 2.997 3s-1.341 3-2.997 3c-1.659 0-3-1.344-3-3s1.344-3 3-3zM25.5 16.5c1.656 0 3 1.344 3 3s-1.344 3-3 3c-1.659 0-3-1.344-3-3s1.341-3 3-3zM16.497 16.5c1.659 0 3 1.344 3 3s-1.341 3-3 3c-1.656 0-2.997-1.344-2.997-3s1.341-3 2.997-3zM84 78h-72v-50.937h72v50.937zM84 21.063h-42v-3h42v3z"/>
</svg>
