<svg width="96" xmlns="http://www.w3.org/2000/svg" height="96" viewBox="0 0 96 96" xmlns:xlink="http://www.w3.org/1999/xlink">
<path d="m23.979,33.039h15.048v3.009h-15.048zm63.489,45.321l-17.028-17.022c-1.968-1.974-4.929-2.19-7.23-.849l-9.105-9.105c4.8-5.331 7.74-12.363 7.74-20.1 0-16.623-13.47-30.096-30.093-30.096-16.62,0-30.093,13.473-30.093,30.096 0,16.62 13.473,30.093 30.093,30.093 6.711,0 12.888-2.223 17.895-5.937l9.312,9.306c-1.341,2.307-1.125,5.262 .843,7.236l17.028,17.022c2.349,2.352 6.159,2.352 8.514,0l2.127-2.127c2.346-2.352 2.346-6.165-.003-8.517zm-55.779-24.633c-12.465,0-22.569-10.104-22.569-22.569s10.104-22.569 22.569-22.569 22.572,10.104 22.572,22.569-10.104,22.569-22.572,22.569z"/>
</svg>
