<svg width="48" fill="#000000" xmlns="http://www.w3.org/2000/svg" height="48" viewBox="0 0 48 48" xmlns:xlink="http://www.w3.org/1999/xlink" enable-background="new 0 0 16 16">
<path d="m24,48c-13.254,0-24-10.746-24-24s10.746-24 24-24 24,10.746 24,24-10.746,24-24,24zm0-42c-9.939,0-18,8.061-18,18s8.061,18 18,18 18-8.061 18-18-8.061-18-18-18zm9,21h-6v6c0,1.659-1.341,3-3,3-1.656,0-3-1.341-3-3v-6h-6c-1.656,0-3-1.341-3-3 0-1.656 1.344-3 3-3h6v-6c0-1.656 1.344-3 3-3 1.659,0 3,1.344 3,3v6h6c1.659,0 3,1.344 3,3 0,1.659-1.341,3-3,3z"/>
</svg>
