<svg width="48" fill="#000000" xmlns="http://www.w3.org/2000/svg" height="48" viewBox="0 0 48 48" xmlns:xlink="http://www.w3.org/1999/xlink" enable-background="new 0 0 16 16">
<path d="m42,48h-30c-1.656,0-3-1.341-3-3v-3c1.656,0 3-1.341 3-3v-3c0-1.656-1.344-3-3-3v-18c1.656,0 3-1.344 3-3v-3c0-1.656-1.344-3-3-3v-3c0-1.656 1.344-3 3-3h30c1.659,0 3,1.344 3,3v42c0,1.659-1.341,3-3,3zm-3-24c0-6.627-5.373-12-12-12s-12,5.373-12,12 5.373,12 12,12h1.5c.828,0 1.5-.672 1.5-1.5s-.672-1.5-1.5-1.5h-1.5c-4.968,0-9-4.029-9-9 0-4.971 4.032-9 9-9 4.971,0 9,4.029 9,9v4.5c0,.828-.672,1.5-1.5,1.5s-1.5-.672-1.5-1.5v-4.5c0-3.312-2.688-6-6-6s-6,2.688-6,6 2.688,6 6,6c1.125,0 2.166-.327 3.063-.867 .312,2.181 2.169,3.867 4.437,3.867 2.484,0 4.5-2.016 4.5-4.5v-4.5zm-12,3c-1.659,0-3-1.341-3-3s1.341-3 3-3 3,1.341 3,3-1.341,3-3,3zm-19.5-15h-3c-.828,0-1.5-.672-1.5-1.5 0-.828 .672-1.5 1.5-1.5h3c.828,0 1.5,.672 1.5,1.5 0,.828-.672,1.5-1.5,1.5zm-4.5-9c0-1.656 1.344-3 3-3v6h-3v-3zm3,30h-3v-18h3v18zm-1.5,3h3c.828,0 1.5,.672 1.5,1.5s-.672,1.5-1.5,1.5h-3c-.828,0-1.5-.672-1.5-1.5s.672-1.5 1.5-1.5zm1.5,12c-1.656,0-3-1.341-3-3v-3h3v6z"/>
</svg>
