<svg width="48" fill="#000000" xmlns="http://www.w3.org/2000/svg" height="48" viewBox="0 0 48 48" xmlns:xlink="http://www.w3.org/1999/xlink" enable-background="new 0 0 16 16">
<path d="m46.527,15.783c-2.424-6.633-7.674-11.886-14.313-14.31 1.56-.912 3.348-1.473 5.286-1.473 5.802,0 10.5,4.701 10.5,10.5 0,1.938-.564,3.726-1.473,5.283zm-1.527,8.217c0,5.712-2.298,10.881-6,14.667v.333 6c0,1.659-1.341,3-3,3s-3-1.341-3-3v-2.097c-2.736,1.305-5.766,2.097-9,2.097-3.237,0-6.264-.792-9-2.097v2.097c0,1.659-1.344,3-3,3s-3-1.341-3-3v-6-.333c-3.702-3.786-6-8.955-6-14.667 0-11.598 9.402-21 21-21s21,9.402 21,21zm-21-15c-8.283,0-15,6.714-15,15s6.717,15 15,15c8.286,0 15-6.714 15-15s-6.714-15-15-15zm6,18h-6c-1.656,0-3-1.341-3-3v-6c0-1.659 1.344-3 3-3 1.659,0 3,1.341 3,3v3h3c1.659,0 3,1.341 3,3s-1.341,3-3,3zm-28.527-11.217c-.912-1.557-1.473-3.345-1.473-5.283 0-5.799 4.701-10.5 10.5-10.5 1.938,0 3.726,.561 5.283,1.473-6.636,2.424-11.886,7.677-14.31,14.31z"/>
</svg>