<svg width="48" fill="#000000" xmlns="http://www.w3.org/2000/svg" height="48" viewBox="0 0 48 48" xmlns:xlink="http://www.w3.org/1999/xlink" enable-background="new 0 0 16 16">
<path d="m24,48c-13.254,0-24-10.746-24-24v-6l12,12h-4.941c2.154,6.054 7.449,10.602 13.941,11.697v-14.697h-3c-1.656,0-3-1.341-3-3s1.344-3 3-3h3v-3.552c-3.489-1.239-6-4.533-6-8.448 0-4.557 3.399-8.283 7.791-8.877 .39-.081 .795-.123 1.209-.123s.819,.042 1.209,.123c4.392,.594 7.791,4.32 7.791,8.877 0,3.915-2.514,7.209-6,8.448v3.552h3c1.659,0 3,1.341 3,3s-1.341,3-3,3h-3v14.697c6.492-1.095 11.79-5.646 13.941-11.697l-4.941-0 12-12v6c0,13.254-10.746,24-24,24zm0-42c-1.656,0-3,1.341-3,3s1.344,3 3,3 3-1.341 3-3-1.344-3-3-3z"/>
</svg>
