<svg width="48" fill="#000000" xmlns="http://www.w3.org/2000/svg" height="48" viewBox="0 0 48 48" xmlns:xlink="http://www.w3.org/1999/xlink" enable-background="new 0 0 16 16">
<path d="m24,0c-13.254,0-24,10.746-24,24s10.746,24 24,24 24-10.746 24-24-10.746-24-24-24zm0,42c-9.939,0-18-8.061-18-18s8.061-18 18-18 18,8.061 18,18-8.061,18-18,18zm2.121-29.124l6,6c.855,.858 1.113,2.148 .651,3.273-.462,1.119-1.56,1.851-2.772,1.851h-3v9c0,1.659-1.341,3-3,3-1.659,0-3-1.341-3-3v-9h-3c-1.212,0-2.31-.732-2.772-1.851-.462-1.122-.207-2.415 .651-3.273l6-6c.585-.585 1.353-.879 2.121-.879 .768,0 1.536,.294 2.121,.879Z"/>
</svg>
