<svg width="48" fill="#000000" xmlns="http://www.w3.org/2000/svg" height="48" viewBox="0 0 48 48" xmlns:xlink="http://www.w3.org/1999/xlink" enable-background="new 0 0 16 16">
<path d="m0,24c0,13.254 10.746,24 24,24s24-10.746 24-24-10.746-24-24-24-24,10.746-24,24zm42,0c0,9.939-8.061,18-18,18s-18-8.061-18-18 8.061-18 18-18 18,8.061 18,18zm-29.124-2.121l6-6c.858-.855 2.148-1.113 3.273-.651 1.119,.462 1.851,1.56 1.851,2.772v3h9c1.659,0 3,1.341 3,3 0,1.659-1.341,3-3,3h-9v3c0,1.212-.732,2.31-1.851,2.772-1.122,.462-2.415,.207-3.273-.651l-6-6c-.585-.585-.879-1.353-.879-2.121 0-.768 .294-1.536 .879-2.121Z"/>
</svg>
