<svg width="48" fill="#000000" xmlns="http://www.w3.org/2000/svg" height="48" viewBox="0 0 48 48" xmlns:xlink="http://www.w3.org/1999/xlink" enable-background="new 0 0 16 16">
<path d="m24,0c-13.254,0-24,10.746-24,24s10.746,24 24,24 24-10.746 24-24-10.746-24-24-24zm0,6c9.939,0 18,8.061 18,18s-8.061,18-18,18-18-8.061-18-18 8.061-18 18-18zm11.124,15.879c.585,.585 .879,1.353 .879,2.121s-.294,1.536-.879,2.121l-6,6c-.858,.858-2.151,1.113-3.273,.651-1.119-.462-1.851-1.56-1.851-2.772v-3h-9c-1.659,0-3-1.341-3-3s1.341-3 3-3h9v-3c0-1.212 .732-2.31 1.851-2.772 1.125-.462 2.415-.204 3.273,.651l6,6z"/>
</svg>
