<svg width="48" fill="#000000" xmlns="http://www.w3.org/2000/svg" height="48" viewBox="0 0 48 48" xmlns:xlink="http://www.w3.org/1999/xlink" enable-background="new 0 0 16 16">
<path d="m48,24c0-13.254-10.746-24-24-24s-24,10.746-24,24 10.746,24 24,24 24-10.746 24-24zm-6,0c0,9.939-8.061,18-18,18s-18-8.061-18-18 8.061-18 18-18 18,8.061 18,18zm-15.879,11.124c-.585,.585-1.353,.879-2.121,.879s-1.536-.294-2.121-.879l-6-6c-.858-.858-1.113-2.151-.651-3.273 .462-1.119 1.56-1.851 2.772-1.851h3v-9c0-1.659 1.341-3 3-3s3,1.341 3,3v9h3c1.212,0 2.31,.732 2.772,1.851 .462,1.125 .204,2.415-.651,3.273l-6,6z"/>
</svg>
