<svg width="48" fill="#000000" xmlns="http://www.w3.org/2000/svg" height="48" viewBox="0 0 48 48" xmlns:xlink="http://www.w3.org/1999/xlink" enable-background="new 0 0 16 16">
<path d="m42.588,20.196c-1.53,.882-6.24,2.715-10.554,3.804 4.314,1.089 9.024,2.922 10.557,3.804 2.865,1.656 3.849,5.325 2.193,8.196-1.656,2.871-5.325,3.852-8.193,2.196-1.533-.885-5.475-4.053-8.574-7.245 1.215,4.284 1.983,9.282 1.983,11.049 0,3.312-2.688,6-6,6s-6-2.688-6-6c0-1.767 .768-6.765 1.986-11.049-3.099,3.192-7.041,6.36-8.574,7.245-2.871,1.656-6.54,.675-8.196-2.196s-.675-6.54 2.196-8.196c1.53-.882 6.24-2.715 10.557-3.804-4.317-1.089-9.027-2.922-10.557-3.804-2.871-1.656-3.852-5.325-2.196-8.196s5.325-3.852 8.196-2.196c1.533,.885 5.475,4.053 8.574,7.245-1.218-4.284-1.986-9.282-1.986-11.049 0-3.312 2.688-6 6-6s6,2.688 6,6c0,1.767-.768,6.765-1.986,11.049 3.099-3.192 7.044-6.36 8.574-7.245 2.868-1.656 6.54-.675 8.193,2.196 1.659,2.871 .675,6.54-2.193,8.196z"/>
</svg>
