<svg width="48" fill="#000000" xmlns="http://www.w3.org/2000/svg" height="48" viewBox="0 0 48 48" xmlns:xlink="http://www.w3.org/1999/xlink" enable-background="new 0 0 16 16">
<path d="m39,3c0-1.659 1.341-3 3-3s3,1.341 3,3v24c0,11.598-9.402,21-21,21s-21-9.402-21-21v-12c0-8.286 6.714-15 15-15s15,6.714 15,15v9c0,4.971-4.029,9-9,9s-9-4.029-9-9v-9c0-1.659 1.341-3 3-3s3,1.341 3,3v9c0,1.659 1.341,3 3,3s3-1.341 3-3v-9c0-4.971-4.029-9-9-9s-9,4.029-9,9v12c0,8.286 6.714,15 15,15s15-6.714 15-15v-24z"/>
</svg>
