<svg width="48" fill="#000000" xmlns="http://www.w3.org/2000/svg" height="48" viewBox="0 0 48 48" xmlns:xlink="http://www.w3.org/1999/xlink" enable-background="new 0 0 16 16">
<path d="m36,3c0-1.659 1.341-3 3-3s3,1.341 3,3v28.5c0,9.114-7.389,16.5-16.5,16.5s-16.5-7.386-16.5-16.5v-19.5c0-6.627 5.373-12 12-12s12,5.373 12,12v19.5c0,4.143-3.357,7.5-7.5,7.5s-7.5-3.357-7.5-7.5v-19.5c0-1.656 1.341-3 3-3s3,1.344 3,3v19.5c0,.828 .672,1.5 1.5,1.5s1.5-.672 1.5-1.5v-19.5c0-3.312-2.688-6-6-6s-6,2.688-6,6v19.5c0,5.799 4.701,10.5 10.5,10.5s10.5-4.701 10.5-10.5v-28.5z"/>
</svg>
