<svg width="48" fill="#000000" xmlns="http://www.w3.org/2000/svg" height="48" viewBox="0 0 48 48" xmlns:xlink="http://www.w3.org/1999/xlink" enable-background="new 0 0 16 16">
<path d="m48,27v-6-3h-3c0-4.971-4.029-9-9-9h-9.585l.579-2.856-2.097,2.856h-15.897c-4.971,0-9,4.029-9,9v12c0,4.971 4.029,9 9,9h12.357l-.66,3.045 2.232-3.045h13.071c4.971,0 9-4.029 9-9h3v-3Zm-39-12h11.499l-8.724,11.901h12.21l-1.323,6.099h-13.662c-1.659,0-3-1.341-3-3v-12c0-1.656 1.341-3 3-3Zm30,3v12c0,1.659-1.341,3-3,3h-8.676l8.808-12.021h-12.147l1.212-5.979h10.803c1.659,0 3,1.344 3,3Z"/>
</svg>
