<svg width="48" fill="#000000" xmlns="http://www.w3.org/2000/svg" height="48" viewBox="0 0 48 48" xmlns:xlink="http://www.w3.org/1999/xlink" enable-background="new 0 0 16 16">
<path d="m45,33v6c0,1.659-1.341,3-3,3h-39c-1.656,0-3-1.341-3-3v-27c0-1.656 1.344-3 3-3h39c1.659,0 3,1.344 3,3v6c1.659,0 3,1.344 3,3v9c0,1.659-1.341,3-3,3zm-6-3v-9-3c0-1.656-1.341-3-3-3h-27c-1.656,0-3,1.344-3,3v15c0,1.659 1.344,3 3,3h27c1.659,0 3-1.341 3-3v-3zm-6,3h-3-3v-3h-3v-3h-3v-3h3v-3h3v-3h3 3v3h3v3h-3v3h3v3h-3v3zm-24-9h9v3h-9v-3z"/>
</svg>
