<svg width="48" fill="#000000" xmlns="http://www.w3.org/2000/svg" height="48" viewBox="0 0 48 48" xmlns:xlink="http://www.w3.org/1999/xlink" enable-background="new 0 0 16 16">
<path d="m45,18v-6c0-1.656-1.341-3-3-3h-39c-1.656,0-3,1.344-3,3v27c0,1.659 1.344,3 3,3h39c1.659,0 3-1.341 3-3v-6c1.659,0 3-1.341 3-3v-9c0-1.656-1.341-3-3-3zm-6,15c0,1.659-1.341,3-3,3h-27c-1.656,0-3-1.341-3-3v-15c0-1.656 1.344-3 3-3h27c1.659,0 3,1.344 3,3v15zm-28.5-15c-.828,0-1.5,.672-1.5,1.5v12c0,.828 .672,1.5 1.5,1.5 .828,0 1.5-.672 1.5-1.5v-12c0-.828-.672-1.5-1.5-1.5zm6,0c-.828,0-1.5,.672-1.5,1.5v12c0,.828 .672,1.5 1.5,1.5 .828,0 1.5-.672 1.5-1.5v-12c0-.828-.672-1.5-1.5-1.5zm6,0c-.828,0-1.5,.672-1.5,1.5v12c0,.828 .672,1.5 1.5,1.5 .828,0 1.5-.672 1.5-1.5v-12c0-.828-.672-1.5-1.5-1.5zm6,0c-.825,0-1.5,.672-1.5,1.5v12c0,.828 .675,1.5 1.5,1.5 .828,0 1.5-.672 1.5-1.5v-12c0-.828-.672-1.5-1.5-1.5zm6,0c-.825,0-1.5,.672-1.5,1.5v12c0,.828 .675,1.5 1.5,1.5 .828,0 1.5-.672 1.5-1.5v-12c0-.828-.672-1.5-1.5-1.5z"/>
</svg>
