<svg width="48" fill="#000000" xmlns="http://www.w3.org/2000/svg" height="48" viewBox="0 0 48 48" xmlns:xlink="http://www.w3.org/1999/xlink" enable-background="new 0 0 16 16">
<path d="m16.515,8.031c.519-.303 1.047-.594 1.608-.831-.081-.387-.123-.789-.123-1.2 0-3.312 2.688-6 6-6s6,2.688 6,6c0,.411-.042,.813-.123,1.2 5.361,2.289 9.123,7.605 9.123,13.8v4.038c1.887,1.422 3,3.126 3,4.962 0,.924-.357,1.8-.879,2.637l-24.606-24.606zm25.332,38.061l-39.939-39.939 4.242-4.245 39.939,39.942-4.242,4.242zm-32.847-21.054v-4.038c0-1.083 .153-2.127 .372-3.144l20.598,20.598c-1.881,.333-3.867,.546-5.97,.546-9.939,0-18-4.029-18-9 0-1.836 1.113-3.54 3-4.962zm15,16.962c2.082,0 4.056-.198 5.952-.48 .012,.162 .048,.315 .048,.48 0,3.312-2.688,6-6,6s-6-2.688-6-6c0-.165 .036-.318 .048-.48 1.899,.282 3.87,.48 5.952,.48z"/>
</svg>
