<svg width="48" fill="#000000" xmlns="http://www.w3.org/2000/svg" height="48" viewBox="0 0 48 48" xmlns:xlink="http://www.w3.org/1999/xlink" enable-background="new 0 0 16 16">
<path d="m24,45c-9.939,0-18-4.029-18-9 0-1.836 1.113-3.54 3-4.962v-7.038c0-6.195 3.759-11.511 9.123-13.8-.081-.387-.123-.789-.123-1.2 0-3.312 2.688-6 6-6s6,2.688 6,6c0,.411-.042,.813-.123,1.2 5.361,2.289 9.123,7.605 9.123,13.8v7.038c1.887,1.425 3,3.126 3,4.962 0,4.971-8.061,9-18,9zm0-15c-6.627,0-12,2.688-12,6s5.373,6 12,6 12-2.688 12-6-5.373-6-12-6zm0,9c-2.931,0-5.361-2.103-5.886-4.878 1.581-.69 3.624-1.122 5.886-1.122s4.308,.432 5.889,1.122c-.528,2.775-2.958,4.878-5.889,4.878z"/>
</svg>
