<svg width="48" fill="#000000" xmlns="http://www.w3.org/2000/svg" height="48" viewBox="0 0 48 48" xmlns:xlink="http://www.w3.org/1999/xlink" enable-background="new 0 0 16 16">
<path d="m40.089,44.334l-36.423-36.426 4.242-4.242 36.426,36.426-4.245,4.242Zm-1.089-13.818l-20.943-20.946c-.018-.189-.057-.375-.057-.57 0-3.312 2.688-6 6-6 3.312,0 6,2.688 6,6 0,.411-.042,.813-.123,1.2 5.361,2.289 9.123,7.605 9.123,13.8v6.516Zm-15,8.484c-2.931,0-5.361-2.103-5.886-4.878 1.581-.69 3.624-1.122 5.886-1.122 .201,0 .372,.048 .57,.054l3.861,3.861c-1.101,1.245-2.64,2.085-4.431,2.085Zm0,3c3.072,0 5.847-.594 7.968-1.545l2.742,2.739c-3,1.119-6.678,1.806-10.71,1.806-9.939,0-18-4.029-18-9 0-1.836 1.113-3.54 3-4.962v-7.038c0-1.932 .402-3.756 1.065-5.448l11.568,11.568c-5.493,.549-9.633,2.97-9.633,5.88 0,3.312 5.373,6 12,6Z"/>
</svg>
