<svg width="48" fill="#000000" xmlns="http://www.w3.org/2000/svg" height="48" viewBox="0 0 48 48" xmlns:xlink="http://www.w3.org/1999/xlink" enable-background="new 0 0 16 16">
<path d="m24,39c-9.939,0-18-4.029-18-9 0-1.836 1.113-3.54 3-4.962v-4.038c0-6.195 3.759-11.511 9.123-13.8-.081-.387-.123-.789-.123-1.2 0-3.312 2.688-6 6-6s6,2.688 6,6c0,.411-.042,.813-.123,1.2 5.361,2.289 9.123,7.605 9.123,13.8v4.038c1.887,1.422 3,3.126 3,4.962 0,4.971-8.061,9-18,9zm0,3c2.082,0 4.056-.198 5.952-.48 .012,.162 .048,.315 .048,.48 0,3.312-2.688,6-6,6s-6-2.688-6-6c0-.165 .036-.318 .048-.48 1.899,.282 3.87,.48 5.952,.48z"/>
</svg>
