<svg width="48" fill="#000000" xmlns="http://www.w3.org/2000/svg" height="48" viewBox="0 0 48 48" xmlns:xlink="http://www.w3.org/1999/xlink" enable-background="new 0 0 16 16">
<path d="m42,15v24c0,4.971-4.032,9-9,9h-18c-4.971,0-9-4.029-9-9v-24c-1.656,0-3-1.341-3-3s1.344-3 3-3h9c0-4.971 4.029-9 9-9 4.968,0 9,4.029 9,9h9c1.659,0 3,1.341 3,3s-1.341,3-3,3zm-18-9c-1.656,0-3,1.341-3,3h6c0-1.659-1.341-3-3-3zm-12,9v24c0,1.659 1.344,3 3,3h18c1.659,0 3-1.341 3-3v-24h-24zm16.5,21c-.825,0-1.5-.672-1.5-1.5v-12c0-.828 .675-1.5 1.5-1.5 .828,0 1.5,.672 1.5,1.5v12c0,.828-.672,1.5-1.5,1.5zm-9,0c-.828,0-1.5-.672-1.5-1.5v-12c0-.828 .672-1.5 1.5-1.5 .828,0 1.5,.672 1.5,1.5v12c0,.828-.672,1.5-1.5,1.5z"/>
</svg>
