<svg width="48" fill="#000000" xmlns="http://www.w3.org/2000/svg" height="48" viewBox="0 0 48 48" xmlns:xlink="http://www.w3.org/1999/xlink" enable-background="new 0 0 16 16">
<path d="m45,42c-4.59,.201-13.341,.987-18.09,3.453-.225,1.434-1.413,2.547-2.91,2.547-1.494,0-2.685-1.113-2.91-2.547-4.749-2.466-13.5-3.252-18.09-3.453-1.656,0-3-1.341-3-3v-36c0-1.656 1.344-3 3-3 .105,0 .192,.051 .297,.06 20.631,.534 20.703,5.94 20.703,5.94s.072-5.406 20.703-5.94c.105-.009 .192-.06 .297-.06 1.659,0 3,1.344 3,3v36c0,1.659-1.341,3-3,3zm-24-32.598c-3.87-1.968-10.272-2.787-15-3.138v29.898c8.052,.411 12.558,1.617 15,2.838v-29.598zm21-3.138c-4.725,.351-11.13,1.17-15,3.135v29.601c2.442-1.221 6.945-2.427 15-2.835v-29.901z"/>
</svg>
