<svg width="48" fill="#000000" xmlns="http://www.w3.org/2000/svg" height="48" viewBox="0 0 48 48" xmlns:xlink="http://www.w3.org/1999/xlink" enable-background="new 0 0 16 16">
<path d="m45.363,4.032c-1.008-.681-2.178-1.032-3.363-1.032-.753,0-1.509,.144-2.229,.432l-15,6c-.282,.111-.513,.297-.771,.45-.258-.153-.489-.339-.771-.45l-15-6c-.72-.288-1.476-.432-2.229-.432-1.182,0-2.358,.351-3.363,1.032-1.65,1.116-2.637,2.976-2.637,4.968v27c0,2.451 1.494,4.662 3.771,5.571l15,6c.72,.288 1.476,.429 2.229,.429 1.05,0 2.073-.318 3-.858 .927,.54 1.95,.858 3,.858 .753,0 1.509-.141 2.229-.429l15-6c2.277-.909 3.771-3.12 3.771-5.571v-27c0-1.992-.987-3.852-2.637-4.968zm-24.363,37.968l-15-6v-27l15,6v27zm21-6l-15,6v-27l15-6v27zm-24-19.2l-9-3.6v3l9,3.6v-3zm0,6l-9-3.6v3l9,3.6v-3zm0,6l-9-3.6v3l9,3.6v-3zm0,6l-9-3.6v3l9,3.6v-3zm21-3.6l-9,3.6v3l9-3.597v-3.003zm0-6l-9,3.6v3l9-3.6v-3zm0-6l-9,3.6v3l9-3.6v-3zm0-6l-9,3.6v3l9-3.6v-3z"/>
</svg>
