<svg width="48" fill="#000000" xmlns="http://www.w3.org/2000/svg" height="48" viewBox="0 0 48 48" xmlns:xlink="http://www.w3.org/1999/xlink" enable-background="new 0 0 16 16">
<path d="m45,27h-3c-1.659,0-3-1.344-3-3s1.341-3 3-3h3c1.659,0 3,1.344 3,3s-1.341,3-3,3zm-6.15-13.605c-1.173,1.17-3.072,1.17-4.245,0-1.173-1.173-1.173-3.072 0-4.245l2.124-2.121c1.17-1.173 3.069-1.173 4.242,0s1.173,3.069 0,4.242l-2.121,2.124zm-14.85,22.605c-6.627,0-12-5.373-12-12s5.373-12 12-12 12,5.373 12,12-5.373,12-12,12zm0-18c-3.312,0-6,2.688-6,6s2.688,6 6,6 6-2.688 6-6-2.688-6-6-6zm0-9c-1.659,0-3-1.344-3-3v-3c0-1.656 1.341-3 3-3s3,1.344 3,3v3c0,1.656-1.341,3-3,3zm-14.847,4.395l-2.124-2.124c-1.173-1.173-1.173-3.069 0-4.242s3.072-1.173 4.245,0l2.121,2.121c1.173,1.173 1.173,3.072 0,4.245-1.173,1.17-3.075,1.17-4.242,0zm-.153,10.605c0,1.656-1.341,3-3,3h-3c-1.659,0-3-1.344-3-3s1.341-3 3-3h3c1.659,0 3,1.344 3,3zm.153,10.605c1.17-1.173 3.069-1.173 4.242,0s1.173,3.069 0,4.242l-2.121,2.121c-1.173,1.173-3.072,1.173-4.245,0-1.173-1.17-1.173-3.069 0-4.242l2.124-2.121zm14.847,4.395c1.659,0 3,1.341 3,3v3c0,1.659-1.341,3-3,3s-3-1.341-3-3v-3c0-1.659 1.341-3 3-3zm14.85-4.395l2.121,2.121c1.173,1.173 1.173,3.072 0,4.242-1.173,1.173-3.072,1.173-4.242,0l-2.124-2.121c-1.173-1.173-1.173-3.069 0-4.242s3.075-1.17 4.245,0z"/>
</svg>
