<svg width="48" fill="#000000" xmlns="http://www.w3.org/2000/svg" height="48" viewBox="0 0 48 48" xmlns:xlink="http://www.w3.org/1999/xlink" enable-background="new 0 0 16 16">
<path d="m48,38.994c0,4.971-4.029,9-9,9h-5.268l2.64-2.64c.966-.972 1.68-2.124 2.115-3.36h.513c1.659,0 3-1.341 3-3v-26.997h-36v26.997c0,1.659 1.344,3 3,3h.51c.438,1.242 1.152,2.397 2.124,3.369l2.634,2.631h-5.268c-4.971,0-9-4.029-9-9v-29.997c0-4.971 4.029-9 9-9h30c4.971,0 9,4.029 9,9v29.997zm-39-35.997c-1.656,0-3,1.344-3,3s1.344,3 3,3 3-1.344 3-3-1.344-3-3-3zm9,32.997h3v-8.997c0-1.659 1.344-3 3-3 1.659,0 3,1.341 3,3v8.997h3c1.212,0 2.31,.732 2.772,1.854 .462,1.125 .204,2.415-.651,3.27l-6,6c-.585,.585-1.353,.882-2.121,.882s-1.536-.297-2.121-.882l-6-6c-.858-.855-1.113-2.151-.651-3.27 .462-1.122 1.56-1.854 2.772-1.854z"/>
</svg>
