<svg width="48" fill="#000000" xmlns="http://www.w3.org/2000/svg" height="48" viewBox="0 0 48 48" xmlns:xlink="http://www.w3.org/1999/xlink" enable-background="new 0 0 16 16">
<path d="m39,48h-30c-4.971,0-9-4.029-9-9v-30c0-4.971 4.029-9 9-9h30c4.971,0 9,4.029 9,9v30c0,4.971-4.029,9-9,9zm3-39c0-1.656-1.341-3-3-3h-30c-1.656,0-3,1.344-3,3v6h36v-6zm0,9h-36v21c0,1.659 1.344,3 3,3h30c1.659,0 3-1.341 3-3v-21zm-11.637,18.363c-1.173,1.173-3.069,1.173-4.242,0l-2.121-2.121-2.121,2.121c-1.173,1.173-3.072,1.173-4.242,0-1.173-1.173-1.173-3.069 0-4.242l2.121-2.121-2.121-2.121c-1.173-1.173-1.173-3.072 0-4.242 1.17-1.173 3.069-1.173 4.242,0l2.121,2.121 2.121-2.121c1.173-1.173 3.069-1.173 4.242,0 1.173,1.17 1.173,3.069 0,4.242l-2.121,2.121 2.121,2.121c1.173,1.173 1.173,3.069 0,4.242zm-18.363-24.363h-3v-3h3v3zm6,0h-3v-3h3v3zm21,0h-18v-3h18v3z"/>
</svg>
