<svg width="48" fill="#000000" xmlns="http://www.w3.org/2000/svg" height="48" viewBox="0 0 48 48" xmlns:xlink="http://www.w3.org/1999/xlink" enable-background="new 0 0 16 16">
<path d="m39,48h-6v-6h6c1.659,0 3-1.341 3-3v-21h-36v21c0,1.659 1.344,3 3,3h6v6h-6c-4.971,0-9-4.032-9-9v-30c0-4.971 4.029-9 9-9h30c4.968,0 9,4.029 9,9v30c0,4.968-4.032,9-9,9zm3-39c0-1.656-1.341-3-3-3h-30c-1.656,0-3,1.344-3,3v6h36v-6zm-30,3h-3v-3h3v3zm6,0h-3v-3h3v3zm21,0h-18v-3h18v3zm-17.121,12.876c.585-.585 1.353-.879 2.121-.879s1.536,.294 2.121,.879l6,6c.855,.858 1.113,2.148 .651,3.273-.462,1.119-1.56,1.851-2.772,1.851h-3v9c0,1.659-1.341,3-3,3-1.656,0-3-1.341-3-3v-9h-3c-1.212,0-2.31-.732-2.772-1.851-.462-1.122-.207-2.415 .651-3.273l6-6z"/>
</svg>
