<svg width="48" fill="#000000" xmlns="http://www.w3.org/2000/svg" height="48" viewBox="0 0 48 48" xmlns:xlink="http://www.w3.org/1999/xlink" enable-background="new 0 0 16 16">
<path d="m37.131,22.161c-.189,.597-.507,1.215-1.131,1.839-3,3-3,6-3,6v3c0,1.659-1.341,3-3,3h-12c-1.659,0-3-1.341-3-3v-3c0-2.181-1.572-4.341-2.439-5.373-.027-.03-.051-.063-.072-.09-.294-.342-.489-.537-.489-.537v-.105c-1.866-2.484-3-5.544-3-8.895 0-8.286 6.714-15 15-15s15,6.714 15,15c0,2.607-.69,5.037-1.869,7.161zm-13.131-16.161c-4.971,0-9,4.029-9,9 0,3.915 2.514,7.209 6,8.448v3.552c0,1.659 1.341,3 3,3s3-1.341 3-3v-3.552c3.486-1.239 6-4.533 6-8.448 0-4.971-4.029-9-9-9zm-4.5,33h9c.828,0 1.5,.672 1.5,1.5s-.672,1.5-1.5,1.5h-9c-.828,0-1.5-.672-1.5-1.5s.672-1.5 1.5-1.5zm3,6h3c.828,0 1.5,.672 1.5,1.5s-.672,1.5-1.5,1.5h-3c-.828,0-1.5-.672-1.5-1.5s.672-1.5 1.5-1.5z"/>
</svg>
