<svg width="48" fill="#000000" xmlns="http://www.w3.org/2000/svg" height="48" viewBox="0 0 48 48" xmlns:xlink="http://www.w3.org/1999/xlink" enable-background="new 0 0 16 16">
<path d="m31.458,27.942c-.474,.666-.969,1.302-1.497,1.866 .003,.069 .039,.126 .039,.192v6c0,1.659-1.341,3-3,3h-6c-1.659,0-3-1.341-3-3v-6c0-.066 .036-.123 .039-.189-.528-.564-1.023-1.2-1.497-1.866-4.485-2.595-7.542-7.389-7.542-12.945 0-8.286 6.714-15 15-15s15,6.714 15,15c0,5.556-3.057,10.35-7.542,12.942zm-8.958,14.058h3c.828,0 1.5,.672 1.5,1.5s-.672,1.5-1.5,1.5h-3c-.828,0-1.5-.672-1.5-1.5s.672-1.5 1.5-1.5z"/>
</svg>
