<svg width="48" fill="#000000" xmlns="http://www.w3.org/2000/svg" height="48" viewBox="0 0 48 48" xmlns:xlink="http://www.w3.org/1999/xlink" enable-background="new 0 0 16 16">
<path d="m39,0l-18,6h-9c-4.971,0-9,4.029-9,9-1.656,0-3,1.344-3,3s1.344,3 3,3c0,3.702 2.241,6.879 5.436,8.262l-2.436,15.738c0,1.659 1.344,3 3,3h6c1.656,0 3-1.341 3-3l2.25-15h.75l18,6c4.968,0 9-8.061 9-18s-4.032-18-9-18zm-27,18h-3v-6h3v6zm6,0h-3v-6h3v6zm21,12c-3.312,0-6-5.373-6-12s2.688-12 6-12 6,5.373 6,12-2.688,12-6,12zm0-15h-2.724c-.168,.942-.276,1.941-.276,3s.108,2.058 .276,3h2.724c1.659,0 3-1.344 3-3s-1.341-3-3-3z"/>
</svg>
