<svg width="48" fill="#000000" xmlns="http://www.w3.org/2000/svg" height="48" viewBox="0 0 48 48" xmlns:xlink="http://www.w3.org/1999/xlink" enable-background="new 0 0 16 16">
<path d="m39,15h-2.724c-.168,.942-.276,1.941-.276,3s.108,2.058 .276,3h2.724c1.659,0 3-1.344 3-3s-1.341-3-3-3zm0-15c-8.532,8.718-21,9-21,9h-9c-4.971,0-9,4.029-9,9s4.029,9 9,9c0,.417 .084,.81 .237,1.167 .282,.675 .816,1.194 1.47,1.512 .045,.021 .078,.063 .126,.087 .357,.153 .753,.234 1.167,.234l-3,15c0,1.659 1.344,3 3,3h6c1.656,0 3-1.341 3-3s-1.344-3-3-3l2.4-12h.6c1.353,0 2.454-.915 2.826-2.145 4.368,1.02 10.389,3.255 15.174,8.145 4.968,0 9-8.061 9-18s-4.032-18-9-18zm-30,21h-3v-6h3v6zm30,9c-3.312,0-6-5.373-6-12s2.688-12 6-12 6,5.373 6,12-2.688,12-6,12z"/>
</svg>
