<svg width="48" fill="#000000" xmlns="http://www.w3.org/2000/svg" height="48" viewBox="0 0 48 48" xmlns:xlink="http://www.w3.org/1999/xlink" enable-background="new 0 0 16 16">
<path d="m39,48h-30c-4.971,0-9-4.032-9-9v-30c0-3.912 2.514-7.209 6-8.448v3.948c0,2.487 2.016,4.5 4.5,4.5s4.5-2.013 4.5-4.5v-4.5h18v4.5c0,2.487 2.016,4.5 4.5,4.5s4.5-2.013 4.5-4.5v-3.948c3.486,1.239 6,4.536 6,8.448v30c0,4.968-4.029,9-9,9zm3-33h-36v24c0,1.659 1.341,3 3,3h30c1.659,0 3-1.341 3-3v-24zm-12,15h6v6h-6v-6zm0-9h6v6h-6v-6zm-9,9h6v6h-6v-6zm0-9h6v6h-6v-6zm-9,9h6v6h-6v-6zm0-9h6v6h-6v-6zm25.5-15c-.828,0-1.5-.672-1.5-1.5v-4.5h3v4.5c0,.828-.672,1.5-1.5,1.5zm-27,0c-.828,0-1.5-.672-1.5-1.5v-4.5h3v4.5c0,.828-.672,1.5-1.5,1.5z"/>
</svg>
