<svg width="48" fill="#000000" xmlns="http://www.w3.org/2000/svg" height="48" viewBox="0 0 48 48" xmlns:xlink="http://www.w3.org/1999/xlink" enable-background="new 0 0 16 16">
<path d="m45,48h-42c-1.659,0-3-1.341-3-3v-33c0-1.656 1.341-3 3-3h3v-3h3v3h6v-6c0-1.656 1.341-3 3-3h12c1.659,0 3,1.344 3,3v6h12c1.659,0 3,1.344 3,3v12 3 18c0,1.659-1.341,3-3,3zm-18-42h-6v3h6v-3zm15,9h-12-12-12v9h11.334c1.65-1.827 4.011-3 6.666-3s5.016,1.173 6.666,3h11.334v-9zm-24,15c0,3.312 2.688,6 6,6s6-2.688 6-6-2.688-6-6-6-6,2.688-6,6zm24-3h-9.552c.336,.942 .552,1.941 .552,3 0,4.968-4.029,9-9,9s-9-4.032-9-9c0-1.059 .216-2.058 .552-3h-9.552v15h36v-15zm-3-6h-6v-3h6v3zm-24-3h3v3h-3v-3zm-6,0h3v3h-3v-3z"/>
</svg>
