<svg width="48" fill="#000000" xmlns="http://www.w3.org/2000/svg" height="48" viewBox="0 0 48 48" xmlns:xlink="http://www.w3.org/1999/xlink" enable-background="new 0 0 16 16">
<path d="m45,45h-42c-1.659,0-3-1.341-3-3v-30c0-1.656 1.341-3 3-3h9v-3c0-1.656 1.341-3 3-3h18c1.659,0 3,1.344 3,3v3h9c1.659,0 3,1.344 3,3v30c0,1.659-1.341,3-3,3zm-3-30h-9-3v-6h-12v6h-3-9v24h36v-24zm-31.5,3c.828,0 1.5,.672 1.5,1.5 0,.828-.672,1.5-1.5,1.5s-1.5-.672-1.5-1.5c0-.828 .672-1.5 1.5-1.5zm13.5,0c4.971,0 9,4.029 9,9 0,4.968-4.029,9-9,9s-9-4.032-9-9c0-4.971 4.029-9 9-9zm0,15c3.312,0 6-2.688 6-6s-2.688-6-6-6-6,2.688-6,6 2.688,6 6,6z"/>
</svg>
