<svg width="48" fill="#000000" xmlns="http://www.w3.org/2000/svg" height="48" viewBox="0 0 48 48" xmlns:xlink="http://www.w3.org/1999/xlink" enable-background="new 0 0 16 16">
<path d="m39,42h-3c0-3.312-2.688-6-6-6h-12c-3.312,0-6,2.688-6,6h-3c-4.971,0-9-4.032-9-9v-18c0-4.971 4.029-9 9-9h30c4.968,0 9,4.029 9,9v18c0,4.968-4.032,9-9,9zm0-3h3v-3h-3v3zm-33,0h3v-3h-3v3zm36-24c0-1.656-1.341-3-3-3h-30c-1.656,0-3,1.344-3,3v15c0,1.659 1.344,3 3,3h30c1.659,0 3-1.341 3-3v-15zm-7.5,15c-2.484,0-4.5-2.016-4.5-4.5s2.016-4.5 4.5-4.5 4.5,2.016 4.5,4.5-2.016,4.5-4.5,4.5zm-25.5-15h30v3h-30v-3zm4.5,6c2.487,0 4.5,2.016 4.5,4.5s-2.013,4.5-4.5,4.5-4.5-2.016-4.5-4.5 2.013-4.5 4.5-4.5zm13.5,6h-6v-3h6v3zm-7.5,12h9c1.956,0 3.603,1.257 4.224,3h-17.448c.618-1.743 2.268-3 4.224-3z"/>
</svg>
