<svg width="48" fill="#000000" xmlns="http://www.w3.org/2000/svg" height="48" viewBox="0 0 48 48" xmlns:xlink="http://www.w3.org/1999/xlink" enable-background="new 0 0 16 16">
<path d="m42,3h-6v6h3v33h-30v-33h3v-6h-6c-1.659,0-3,1.344-3,3v39c0,1.659 1.341,3 3,3h36c1.659,0 3-1.341 3-3v-39c0-1.656-1.341-3-3-3zm-24,9h12c1.659,0 3-1.344 3-3v-6h-6v-3h-6v3h-6v6c0,1.656 1.341,3 3,3zm3-6h6v3h-6v-3zm-9,33h24v-27h-3c0,1.656-1.341,3-3,3h-12c-1.659,0-3-1.344-3-3h-3v27zm3-21h18v3h-18v-3zm0,6h12v3h-12v-3zm0,6h15v3h-15v-3z"/>
</svg>
