<svg width="48" fill="#000000" xmlns="http://www.w3.org/2000/svg" height="48" viewBox="0 0 48 48" xmlns:xlink="http://www.w3.org/1999/xlink" enable-background="new 0 0 16 16">
<path d="m39,36h-.54c-.054-.147-.087-.3-.147-.441-.996-2.412-2.313-4.215-5.313-5.046v-3.513c0-4.962-4.038-9-9-9s-9,4.038-9,9v3.507c-3,.831-4.317,2.634-5.313,5.037-.03,.069-.045,.147-.069,.216-5.487-1.104-9.618-5.949-9.618-11.76v-3c0-6.627 5.373-12 12-12 1.14,0 2.223,.21 3.267,.507 1.149-5.43 5.961-9.507 11.733-9.507 6.627,0 12,5.373 12,12 0,1.059-.183,2.067-.438,3.045 .147-.009 .288-.045 .438-.045 4.971,0 9,4.032 9,9v3c0,4.971-4.029,9-9,9zm-21,0h3.006v-9c0-1.659 1.341-3 3-3 1.662,0 3.003,1.341 3.003,3v9h2.994c1.212,0 2.31,.732 2.772,1.851 .117,.282 .186,.567 .216,.861 .081,.879-.222,1.764-.867,2.409l-6.003,6c-.585,.585-1.353,.879-2.121,.879s-1.536-.294-2.121-.879l-6-6c-.639-.645-.942-1.53-.861-2.409 .024-.294 .093-.579 .21-.861 .465-1.119 1.56-1.851 2.772-1.851z"/>
</svg>
