<svg width="48" fill="#000000" xmlns="http://www.w3.org/2000/svg" height="48" viewBox="0 0 48 48" xmlns:xlink="http://www.w3.org/1999/xlink" enable-background="new 0 0 16 16">
<path d="m34.5,48c-7.455,0-13.5-6.045-13.5-13.5s6.045-13.5 13.5-13.5 13.5,6.045 13.5,13.5-6.045,13.5-13.5,13.5zm0-21c-4.143,0-7.5,3.357-7.5,7.5s3.357,7.5 7.5,7.5 7.5-3.357 7.5-7.5-3.357-7.5-7.5-7.5zm1.5,12h-3v-3h-3v-3h3v-3h3v3h3v3h-3v3zm2.562-23.955l-4.062-.045c-10.752,0-19.5,8.748-19.5,19.5 0,.507 .039,1.002 .075,1.5h-3.075c-6.627,0-12-5.373-12-12v-3c0-6.627 5.373-12 12-12 1.14,0 2.223,.21 3.267,.507 1.149-5.43 5.961-9.507 11.733-9.507 6.627,0 12,5.373 12,12 0,1.059-.183,2.067-.438,3.045Z"/>
</svg>
