<svg width="48" fill="#000000" xmlns="http://www.w3.org/2000/svg" height="48" viewBox="0 0 48 48" xmlns:xlink="http://www.w3.org/1999/xlink" enable-background="new 0 0 16 16">
<path d="m39,21c-.15,0-.291,.036-.438,.045 .255-.978 .438-1.986 .438-3.045 0-6.627-5.373-12-12-12-5.772,0-10.584,4.077-11.733,9.507-1.047-.297-2.124-.507-3.267-.507-6.627,0-12,5.373-12,12v3c0,6.627 5.373,12 12,12h27c4.971,0 9-4.029 9-9v-3c0-4.968-4.029-9-9-9zm-13.5,15c-4.143,0-7.5-3.357-7.5-7.5s3.357-7.5 7.5-7.5 7.5,3.357 7.5,7.5-3.357,7.5-7.5,7.5zm-4.5-6h9v-3h-9v3z"/>
</svg>
