<svg width="48" fill="#000000" xmlns="http://www.w3.org/2000/svg" height="48" viewBox="0 0 48 48" xmlns:xlink="http://www.w3.org/1999/xlink" enable-background="new 0 0 16 16">
<path d="m26.127,24.879l6,6c.639,.645 .942,1.53 .861,2.409-.024,.294-.093,.579-.21,.861-.462,1.119-1.56,1.851-2.772,1.851h-3.006v9c0,1.659-1.341,3-3,3-1.659,0-3-1.341-3-3v-9h-2.994c-1.212,0-2.31-.732-2.772-1.851-.117-.282-.186-.567-.216-.861-.081-.879 .222-1.764 .867-2.409l6-6c.585-.585 1.353-.879 2.121-.879 .768,0 1.536,.294 2.121,.879Zm12.873-9.879c4.971,0 9,4.032 9,9v3c0,4.971-4.029,9-9,9h-.537c.258-.723 .441-1.461 .498-2.157 .249-2.664-.687-5.283-2.592-7.206l-6-6c-1.698-1.701-3.96-2.637-6.363-2.637-2.403,0-4.665,.936-6.366,2.637l-6,6c-1.902,1.902-2.847,4.53-2.595,7.248 .066,.627 .216,1.236 .402,1.83-5.397-1.17-9.447-5.964-9.447-11.715v-3c0-6.627 5.373-12 12-12 1.143,0 2.22,.21 3.267,.507 1.149-5.43 5.961-9.507 11.733-9.507 6.627,0 12,5.373 12,12 0,1.059-.183,2.067-.438,3.045 .147-.009 .288-.045 .438-.045Z"/>
</svg>
