<svg width="48" fill="#000000" xmlns="http://www.w3.org/2000/svg" height="48" viewBox="0 0 48 48" xmlns:xlink="http://www.w3.org/1999/xlink" enable-background="new 0 0 16 16">
<path d="m39,18l0,0h-3v12h3l0,0c4.968,0 9,4.032 9,9s-4.032,9-9,9-9-4.032-9-9l0,0v-3h-12v3c0,4.968-4.029,9-9,9s-9-4.032-9-9 4.029-9 9-9l0,0h3v-12h-3c-4.971,0-9-4.029-9-9 0-4.971 4.029-9 9-9s9,4.029 9,9c0,1.059-.216,2.058-.552,3h.552 12 .552c-.336-.942-.552-1.941-.552-3 0-4.971 4.032-9 9-9s9,4.029 9,9c0,4.971-4.032,9-9,9zm0,24c1.659,0 3-1.341 3-3s-1.341-3-3-3-3,1.341-3,3 1.341,3 3,3zm-30-6c-1.656,0-3,1.341-3,3s1.344,3 3,3 3-1.341 3-3-1.344-3-3-3zm0-30c-1.656,0-3,1.344-3,3s1.344,3 3,3 3-1.344 3-3-1.344-3-3-3zm21,12h-12v12h12v-12zm9-12c-1.659,0-3,1.344-3,3s1.341,3 3,3 3-1.344 3-3-1.341-3-3-3z"/>
</svg>
