<svg width="48" fill="#000000" xmlns="http://www.w3.org/2000/svg" height="48" viewBox="0 0 48 48" xmlns:xlink="http://www.w3.org/1999/xlink" enable-background="new 0 0 16 16">
<path d="m27,33c-2.547,0-4.899-.807-6.84-2.16l-8.16,8.16h-3v-3l8.16-8.16 18.84-18.84-20.514,15.291c-.3-1.05-.486-2.145-.486-3.291 0-6.627 23.373-21 30-21 3,0 3,0 3,3 0,6.627-14.373,30-21,30zm15-4.959c2.202-2.871 4.242-6.018 6-9.156v20.115c0,4.971-4.029,9-9,9h-30c-4.971,0-9-4.029-9-9v-30c0-4.971 4.029-9 9-9h20.115c-3.138,1.758-6.285,3.798-9.156,6h-10.959c-1.659,0-3,1.341-3,3v30c0,1.659 1.341,3 3,3h30c1.659,0 3-1.341 3-3v-10.959Z"/>
</svg>
