<svg width="48" fill="#000000" xmlns="http://www.w3.org/2000/svg" height="48" viewBox="0 0 48 48" xmlns:xlink="http://www.w3.org/1999/xlink" enable-background="new 0 0 16 16">
<path d="m24,48c-13.254,0-24-10.746-24-24s10.746-24 24-24c13.254,0 24,10.746 24,24s-10.746,24-24,24zm0-42c-9.939,0-18,8.061-18,18s8.061,18 18,18 18-8.061 18-18-8.061-18-18-18zm-8.487,26.484c-2.343-2.34 1.899-10.383 4.245-12.726 2.343-2.343 10.386-6.585 12.726-4.242 2.343,2.34-1.899,10.383-4.242,12.726s-10.383,6.585-12.729,4.242zm14.85-14.847c-1.173-1.173-7.311,3.069-8.484,4.242l4.242,4.242c1.173-1.173 5.415-7.311 4.242-8.484z"/>
</svg>
