<svg width="48" fill="#000000" xmlns="http://www.w3.org/2000/svg" height="48" viewBox="0 0 48 48" xmlns:xlink="http://www.w3.org/1999/xlink" enable-background="new 0 0 16 16">
<path d="m18,27c1.659,0 3,1.341 3,3v9c0,1.212-.732,2.31-1.851,2.772-.372,.153-.762,.228-1.149,.228-.78,0-1.548-.306-2.121-.879l-2.379-2.379-8.379,8.379c-1.173,1.173-3.069,1.173-4.242,0-1.173-1.173-1.173-3.069 0-4.242l8.379-8.379-2.379-2.379c-.858-.858-1.113-2.148-.651-3.27 .462-1.119 1.56-1.851 2.772-1.851h9Zm12-6c-1.659,0-3-1.341-3-3v-9c0-1.212 .732-2.31 1.851-2.772 .372-.153 .762-.228 1.149-.228 .78,0 1.548,.306 2.121,.879l2.379,2.379 8.379-8.379c1.173-1.173 3.069-1.173 4.242,0 1.173,1.173 1.173,3.069 0,4.242l-8.379,8.379 2.379,2.379c.858,.858 1.113,2.148 .651,3.27-.462,1.119-1.56,1.851-2.772,1.851h-9Zm-10.851-14.772c1.119,.462 1.851,1.56 1.851,2.772v9c0,1.659-1.341,3-3,3h-9c-1.212,0-2.31-.732-2.772-1.851-.462-1.122-.207-2.412 .651-3.27l2.379-2.379-8.379-8.379c-1.173-1.173-1.173-3.069 0-4.242 1.173-1.173 3.069-1.173 4.242,0l8.379,8.379 2.379-2.379c.573-.573 1.341-.879 2.121-.879 .387,0 .777,.075 1.149,.228Zm19.593,28.272l8.379,8.379c1.173,1.173 1.173,3.069 0,4.242-1.173,1.173-3.069,1.173-4.242,0l-8.379-8.379-2.379,2.379c-.573,.573-1.341,.879-2.121,.879-.387,0-.777-.075-1.149-.228-1.119-.462-1.851-1.56-1.851-2.772v-9c0-1.659 1.341-3 3-3h9c1.212,0 2.31,.732 2.772,1.851 .462,1.122 .207,2.412-.651,3.27l-2.379,2.379Z"/>
</svg>
