<svg width="48" fill="#000000" xmlns="http://www.w3.org/2000/svg" height="48" viewBox="0 0 48 48" xmlns:xlink="http://www.w3.org/1999/xlink" enable-background="new 0 0 16 16">
<path d="m45,0c-1.659,0-3,1.344-3,3v9c0,1.656-1.341,3-3,3h-9c-2.313,0-4.407,.9-6,2.337-1.596-1.437-3.684-2.337-6-2.337h-9c-1.656,0-3-1.344-3-3v-9c0-1.656-1.344-3-3-3s-3,1.344-3,3v9c0,4.971 4.029,9 9,9h9c1.656,0 3,1.344 3,3v12h-3c-1.212,0-2.31,.732-2.772,1.851-.462,1.122-.204,2.412 .651,3.27l6,6c.585,.585 1.353,.879 2.121,.879s1.536-.294 2.121-.879l6-6c.858-.858 1.113-2.148 .651-3.27-.462-1.119-1.56-1.851-2.772-1.851h-3v-12c0-1.656 1.341-3 3-3h9c4.971,0 9-4.029 9-9v-9c0-1.656-1.341-3-3-3z"/>
</svg>
