<svg width="48" fill="#000000" xmlns="http://www.w3.org/2000/svg" height="48" viewBox="0 0 48 48" xmlns:xlink="http://www.w3.org/1999/xlink" enable-background="new 0 0 16 16">
<path d="m47.133,42.798l-5.133-5.133v-27.234l5.169-5.166c.519,1.14 .831,2.397 .831,3.735v30c0,1.362-.324,2.64-.867,3.798zm-37.077-36.798l-5.034-5.034c1.203-.597 2.541-.966 3.978-.966h30c1.437,0 2.775,.369 3.978,.966l-5.034,5.034h-27.888zm-4.056,31.665l-5.133,5.133c-.543-1.158-.867-2.436-.867-3.798v-30c0-1.338 .312-2.595 .834-3.735l5.166,5.166v27.234zm30-1.665h-24v-6h24v6zm-24-24h24v6h-24v-6zm24,15h-24v-6h24v6zm1.851,15l5.067,5.067c-1.188,.582-2.505,.933-3.918,.933h-30c-1.41,0-2.73-.351-3.918-.933l5.067-5.067h27.702z"/>
</svg>
