<svg width="48" fill="#000000" xmlns="http://www.w3.org/2000/svg" height="48" viewBox="0 0 48 48" xmlns:xlink="http://www.w3.org/1999/xlink" enable-background="new 0 0 16 16">
<path d="m45,6h-42c-1.656,0-3,1.344-3,3v30c0,1.659 1.344,3 3,3h42c1.659,0 3-1.341 3-3v-30c0-1.656-1.341-3-3-3zm-15,15h6v6h-6v-6zm-9,0h6v6h-6v-6zm9,9v3h-3v-3h3zm-9,0h3v3h-3v-3zm-18-18c0-1.656 1.344-3 3-3h6c1.656,0 3,1.344 3,3v3c0,1.659-1.344,3-3,3h-6c-1.656,0-3-1.341-3-3v-3zm15,9v6h-6v-6h6zm-9,18h-6v-3h6v3zm0-12h-6v-6h6v6zm24,12h-21v-3h21v3zm6-6h-3v-3h3v3zm6,0h-3v-3h3v3zm0-6h-6v-6h6v6z"/>
</svg>
