<svg width="48" fill="#000000" xmlns="http://www.w3.org/2000/svg" height="48" viewBox="0 0 48 48" xmlns:xlink="http://www.w3.org/1999/xlink" enable-background="new 0 0 16 16">
<path d="m45,42h-42c-1.656,0-3-1.341-3-3v-24h48v24c0,1.659-1.341,3-3,3zm-18.729-19.947c-1.113-.654-2.391-1.053-3.771-1.053-4.143,0-7.5,3.357-7.5,7.5s3.357,7.5 7.5,7.5c1.38,0 2.658-.399 3.771-1.053-1.401-1.782-2.271-4.005-2.271-6.447s.87-4.665 2.271-6.447zm8.229-1.053c-4.143,0-7.5,3.357-7.5,7.5s3.357,7.5 7.5,7.5 7.5-3.357 7.5-7.5-3.357-7.5-7.5-7.5zm-34.5-12c0-1.659 1.344-3 3-3h42c1.659,0 3,1.341 3,3v3h-48v-3z"/>
</svg>
