<svg width="48" fill="#000000" xmlns="http://www.w3.org/2000/svg" height="48" viewBox="0 0 48 48" xmlns:xlink="http://www.w3.org/1999/xlink" enable-background="new 0 0 16 16">
<path d="m45,42h-42c-1.656,0-3-1.341-3-3v-27-3c0-1.659 1.344-3 3-3h42c1.659,0 3,1.341 3,3v30c0,1.659-1.341,3-3,3zm0-33h-42v3h42v-3zm0,9h-42v21h42v-21zm-30,6h-9v-3h9v3zm-6,6h-3v-3h3v3zm6,6h-9v-3h9v3zm13.5-15c1.065,0 2.079,.231 3,.633 .921-.402 1.935-.633 3-.633 4.143,0 7.5,3.357 7.5,7.5s-3.357,7.5-7.5,7.5c-1.065,0-2.079-.231-3-.633-.921,.402-1.935,.633-3,.633-4.143,0-7.5-3.357-7.5-7.5s3.357-7.5 7.5-7.5zm5.97,11.994c.012,0 .018,.006 .03,.006 2.484,0 4.5-2.016 4.5-4.5s-2.016-4.5-4.5-4.5c-.012,0-.018,.006-.03,.006 .948,1.257 1.53,2.802 1.53,4.494s-.582,3.24-1.53,4.494zm-2.97-1.188c.909-.825 1.5-1.986 1.5-3.306s-.591-2.481-1.5-3.306c-.909,.825-1.5,1.986-1.5,3.306s.591,2.481 1.5,3.306zm-3,1.194c.012,0 .018-.006 .03-.006-.948-1.254-1.53-2.802-1.53-4.494s.582-3.237 1.53-4.494c-.012,0-.018-.006-.03-.006-2.487,0-4.5,2.016-4.5,4.5s2.013,4.5 4.5,4.5z"/>
</svg>
