<svg width="48" fill="#000000" xmlns="http://www.w3.org/2000/svg" height="48" viewBox="0 0 48 48" xmlns:xlink="http://www.w3.org/1999/xlink" enable-background="new 0 0 16 16">
<path d="m42,48v-3h3v-3h3v6h-6zm3-45h-3v-3h6v6h-3v-3zm-3,39h-36v-36h36v36zm-6-30h-24v24h24v-24zm-18,3c1.659,0 3,1.341 3,3s-1.341,3-3,3-3-1.341-3-3 1.341-3 3-3zm.993,18h-3.993v-4.491c1.344,1.614 2.805,3.999 3.993,4.491zm14.007-10.968v10.968h-13.182c4.053-.978 9.009-15.774 13.182-10.968zm-30-16.032h-3v-6h6v3h-3v3zm0,39h3v3h-6v-6h3v3z"/>
</svg>
