<svg width="48" fill="#000000" xmlns="http://www.w3.org/2000/svg" height="48" viewBox="0 0 48 48" xmlns:xlink="http://www.w3.org/1999/xlink" enable-background="new 0 0 16 16">
<path d="m39,48h-30c-4.971,0-9-4.029-9-9v-30c0-4.971 4.029-9 9-9h30c4.968,0 9,4.029 9,9v30c0,4.971-4.032,9-9,9zm3-39c0-1.659-1.341-3-3-3h-30c-1.656,0-3,1.341-3,3v30c0,1.659 1.344,3 3,3h30c1.659,0 3-1.341 3-3v-30zm-9.516,23.484c-1.173,1.173-3.069,1.173-4.242,0l-4.242-4.242-4.242,4.242c-1.173,1.173-3.072,1.173-4.245,0-1.17-1.173-1.17-3.069 0-4.242l4.245-4.242-4.245-4.242c-1.17-1.173-1.17-3.069 0-4.242 1.173-1.173 3.072-1.173 4.245,0l4.242,4.242 4.242-4.242c1.173-1.173 3.069-1.173 4.242,0s1.173,3.069 0,4.242l-4.242,4.242 4.242,4.242c1.173,1.173 1.173,3.072 0,4.242z"/>
</svg>
