<svg width="48" fill="#000000" xmlns="http://www.w3.org/2000/svg" height="48" viewBox="0 0 48 48" xmlns:xlink="http://www.w3.org/1999/xlink" enable-background="new 0 0 16 16">
<path d="m31.5,48c-7.455,0-13.5-6.045-13.5-13.5s6.045-13.5 13.5-13.5 13.5,6.045 13.5,13.5-6.045,13.5-13.5,13.5zm0-21c-4.143,0-7.5,3.357-7.5,7.5s3.357,7.5 7.5,7.5 7.5-3.357 7.5-7.5-3.357-7.5-7.5-7.5zm-4.5,9v-3h9v3h-9zm12-20.064v3.942c-.45-.231-.885-.48-1.359-.672 .867-.966 1.359-2.058 1.359-3.27zm-5.073,2.307c-.798-.117-1.596-.243-2.427-.243-3.489,0-6.711,1.095-9.378,2.943-.378,.012-.738,.057-1.122,.057-9.939,0-18-4.029-18-9v-3c0-4.971 8.061-9 18-9s18,4.029 18,9v3c0,2.43-1.944,4.626-5.073,6.243zm-14.991,5.676c-1.386,1.647-2.442,3.552-3.105,5.658-7.401-1.116-12.831-4.512-12.831-8.577v-5.064c0,4.62 6.978,7.581 15.936,7.983zm-3.744,8.667c-.075,.636-.192,1.257-.192,1.914 0,1.401 .228,2.736 .558,4.035-7.263-1.158-12.558-4.518-12.558-8.535v-5.064c0,3.951 5.118,6.681 12.192,7.65zm1.572,9.198c1.221,2.463 3.003,4.587 5.229,6.168-.333,.006-.654,.048-.993,.048-9.939,0-18-4.029-18-9v-5.064c0,4.239 5.877,7.092 13.764,7.848z"/>
</svg>
