<svg width="48" fill="#000000" xmlns="http://www.w3.org/2000/svg" height="48" viewBox="0 0 48 48" xmlns:xlink="http://www.w3.org/1999/xlink" enable-background="new 0 0 16 16">
<path d="m39,48h-30c-4.971,0-9-4.029-9-9v-30c0-4.971 4.029-9 9-9h30c4.971,0 9,4.029 9,9v30c0,4.971-4.029,9-9,9zm3-39c0-1.659-1.341-3-3-3h-30c-1.659,0-3,1.341-3,3v30c0,1.659 1.341,3 3,3h30c1.659,0 3-1.341 3-3v-30zm-27,27h-6v-3h3v-3c0-1.659 1.341-3 3-3h18c1.659,0 3,1.341 3,3v3h3v3h-6-18zm18-6h-18v3h18v-3zm-12-9h-12v-3h9v-3c0-1.659 1.341-3 3-3h6c1.659,0 3,1.341 3,3v3h9v3h-12-6zm6-6h-6v3h6v-3z"/>
</svg>
