<svg width="48" fill="#000000" xmlns="http://www.w3.org/2000/svg" height="48" viewBox="0 0 48 48" xmlns:xlink="http://www.w3.org/1999/xlink" enable-background="new 0 0 16 16">
<path d="m27,33h9v3h-9zm12-12.669v-.051-11.28l-12-12h-21c-1.659,0-3,1.341-3,3v42c0,1.659 1.341,3 3,3h25.5c7.455,0 13.5-6.045 13.5-13.5 0-4.671-2.394-8.751-6-11.169zm-18.72,18.669h-11.28v-36h15v9h9v6.114 .036c-.495-.069-.987-.15-1.5-.15-7.455,0-13.5,6.045-13.5,13.5 0,2.778 .843,5.355 2.28,7.5zm11.22,0c-4.143,0-7.5-3.357-7.5-7.5s3.357-7.5 7.5-7.5 7.5,3.357 7.5,7.5-3.357,7.5-7.5,7.5z"/>
</svg>
