<svg width="48" fill="#000000" xmlns="http://www.w3.org/2000/svg" height="48" viewBox="0 0 48 48" xmlns:xlink="http://www.w3.org/1999/xlink" enable-background="new 0 0 16 16">
<path d="m39,42h-30c-4.971,0-9-4.029-9-9v-18c0-4.971 4.029-9 9-9h30c4.968,0 9,4.029 9,9v18c0,4.971-4.032,9-9,9zm-30-30c-.735,0-1.38,.294-1.902,.732l16.902,11.268 16.905-11.268c-.522-.438-1.173-.732-1.905-.732h-30zm33,6l-18,12-18-12v12l9-3-8.121,8.121c.543,.543 1.293,.879 2.121,.879h30c.828,0 1.578-.336 2.121-.879l-8.121-8.121 9,3v-12z"/>
</svg>
