<svg width="48" fill="#000000" xmlns="http://www.w3.org/2000/svg" height="48" viewBox="0 0 48 48" xmlns:xlink="http://www.w3.org/1999/xlink" enable-background="new 0 0 16 16">
<path d="m39,0h-30c-4.971,0-9,4.029-9,9v30c0,4.971 4.029,9 9,9h30c4.971,0 9-4.029 9-9v-30c0-4.971-4.029-9-9-9zm-33,9c0-1.656 1.344-3 3-3h3c1.656,0 3,1.344 3,3v3c0,1.656-1.344,3-3,3h-3c-1.656,0-3-1.344-3-3v-3zm36,30c0,1.659-1.341,3-3,3h-30c-1.656,0-3-1.341-3-3v-18h10.758l7.143,7.143-2.022,2.073c-.858,.858-1.116,2.373-.651,3.492s1.557,2.292 2.772,2.292h8.484c.828,0 1.836-.78 2.379-1.317 .543-.546 1.137-1.737 1.137-2.565v-8.487c0-1.212-.99-2.307-2.109-2.772-1.119-.465-2.67-.207-3.528,.651l-2.277,2.337-7.086-7.089v-10.758h18c1.659,0 3,1.344 3,3v30z"/>
</svg>
