<svg width="48" fill="#000000" xmlns="http://www.w3.org/2000/svg" height="48" viewBox="0 0 48 48" xmlns:xlink="http://www.w3.org/1999/xlink" enable-background="new 0 0 16 16">
<path d="m45.363,32.634l-12.363-12.363v-14.271c1.659,0 3-1.344 3-3s-1.341-3-3-3h-18c-1.656,0-3,1.344-3,3s1.344,3 3,3v14.271l-12.366,12.363c-3.513,3.516-3.513,9.213 0,12.729 1.758,1.758 4.062,2.637 6.366,2.637h30c2.304,0 4.605-.879 6.363-2.637 3.516-3.516 3.516-9.213 0-12.729zm-4.242,8.487c-.765,.765-1.659,.879-2.121,.879h-30c-.465,0-1.356-.114-2.124-.879-1.17-1.17-1.17-3.075 0-4.245l14.124-14.118v-16.758h6v16.758l14.121,14.118c.765,.765 .879,1.659 .879,2.121 0,.465-.114,1.359-.879,2.124z"/>
</svg>
