<svg width="48" fill="#000000" xmlns="http://www.w3.org/2000/svg" height="48" viewBox="0 0 48 48" xmlns:xlink="http://www.w3.org/1999/xlink" enable-background="new 0 0 16 16">
<path d="m45,48h-3v-4.5c0-.825-.672-1.5-1.5-1.5s-1.5,.675-1.5,1.5v4.5h-6v-1.5c0-.825-.672-1.5-1.5-1.5s-1.5,.675-1.5,1.5v1.5h-12v-1.5c0-.825-.672-1.5-1.5-1.5s-1.5,.675-1.5,1.5v1.5h-12c-1.659,0-3-1.341-3-3v-42c0-1.656 1.341-3 3-3h42c1.659,0 3,1.344 3,3v42c0,1.659-1.341,3-3,3zm-24-6c0,1.659 1.341,3 3,3s3-1.341 3-3v-3c0-1.659-1.341-3-3-3s-3,1.341-3,3v3zm3-9c4.971,0 9-4.032 9-9 0-4.971-4.029-9-9-9s-9,4.029-9,9c0,4.968 4.029,9 9,9zm21-27c0-1.656-1.341-3-3-3h-36c-1.659,0-3,1.344-3,3v3c0,1.656 1.341,3 3,3h36c1.659,0 3-1.344 3-3v-3zm-39,0h21v3h-21v-3zm18,12c3.312,0 6,2.688 6,6s-2.688,6-6,6-6-2.688-6-6 2.688-6 6-6zm0,9c1.659,0 3-1.344 3-3s-1.341-3-3-3-3,1.344-3,3 1.341,3 3,3z"/>
</svg>
