<svg width="48" fill="#000000" xmlns="http://www.w3.org/2000/svg" height="48" viewBox="0 0 48 48" xmlns:xlink="http://www.w3.org/1999/xlink" enable-background="new 0 0 16 16">
<path d="m24,48c-13.254,0-24-10.746-24-24s10.746-24 24-24c13.254,0 24,10.746 24,24s-10.746,24-24,24zm0-6c8.817,0 16.122-6.348 17.67-14.715-5.886,4.596-14.376,4.251-19.791-1.164-3.516-3.516-9.213-3.516-12.729,0-1.029,1.032-1.722,2.259-2.148,3.558 2.388,7.14 9.054,12.321 16.998,12.321zm0-36c-8.817,0-16.122,6.348-17.67,14.715 5.886-4.596 14.376-4.251 19.791,1.164 3.516,3.516 9.213,3.516 12.726,0 1.032-1.032 1.722-2.259 2.151-3.558-2.388-7.137-9.054-12.321-16.998-12.321z"/>
</svg>
