<svg width="48" fill="#000000" xmlns="http://www.w3.org/2000/svg" height="48" viewBox="0 0 48 48" xmlns:xlink="http://www.w3.org/1999/xlink" enable-background="new 0 0 16 16">
<path d="m48,34.5c0,7.455-6.045,13.5-13.5,13.5h-25.5c-4.971,0-9-4.029-9-9v-30c0-4.971 4.029-9 9-9h12c3.912,0 7.209,2.511 8.448,6h9.552c4.971,0 9,4.029 9,9v19.5zm-13.503,7.5c4.146,0 7.503-3.357 7.503-7.5 0-4.143-3.357-7.5-7.5-7.5s-7.5,3.357-7.5,7.5 3.357,7.5 7.497,7.5zm4.503-30h-15v-3c0-1.656-1.344-3-3-3h-12c-1.656,0-3,1.344-3,3v30c0,1.659 1.344,3 3,3h14.28c-1.437-2.145-2.28-4.722-2.28-7.5 0-7.455 6.045-13.5 13.5-13.5 2.778,0 5.355,.843 7.5,2.28v-8.28c0-1.656-1.341-3-3-3zm-6,18h3v3h3v3h-3v3h-3v-3h-3v-3h3v-3z"/>
</svg>
