<svg width="48" fill="#000000" xmlns="http://www.w3.org/2000/svg" height="48" viewBox="0 0 48 48" xmlns:xlink="http://www.w3.org/1999/xlink" enable-background="new 0 0 16 16">
<path d="m39,6h-9.552c-1.239-3.486-4.536-6-8.448-6h-12c-4.971,0-9,4.029-9,9v30c0,4.971 4.029,9 9,9h30c4.968,0 9-4.029 9-9v-24c0-4.971-4.032-9-9-9zm-4.5,36c-4.143,0-7.5-3.357-7.5-7.5s3.357-7.5 7.5-7.5 7.5,3.357 7.5,7.5-3.357,7.5-7.5,7.5zm7.5-24h-27c-1.656,0-3,1.341-3,3v21h-3c-1.656,0-3-1.341-3-3v-30c0-1.659 1.344-3 3-3h12c1.656,0 3,1.341 3,3v3h15c1.659,0 3,1.341 3,3v3zm-12,18h9v-3h-9v3z"/>
</svg>
