<svg width="48" fill="#000000" xmlns="http://www.w3.org/2000/svg" height="48" viewBox="0 0 48 48" xmlns:xlink="http://www.w3.org/1999/xlink" enable-background="new 0 0 16 16">
<path d="m39,6h-9.552c-1.239-3.489-4.536-6-8.448-6h-12c-4.971,0-9,4.029-9,9v30c0,4.971 4.029,9 9,9h25.5c7.455,0 13.5-6.045 13.5-13.5v-19.5c0-4.971-4.029-9-9-9zm-4.5,36c-4.143,0-7.5-3.357-7.5-7.5s3.357-7.5 7.5-7.5 7.5,3.357 7.5,7.5-3.357,7.5-7.5,7.5zm7.5-18.72c-2.145-1.437-4.722-2.28-7.5-2.28-7.455,0-13.5,6.045-13.5,13.5 0,2.778 .843,5.355 2.28,7.5h-14.28c-1.656,0-3-1.341-3-3v-30c0-1.656 1.344-3 3-3h12c1.656,0 3,1.344 3,3v3h15c1.659,0 3,1.344 3,3v8.28zm-12,9.72h9v3h-9z"/>
</svg>
