<svg width="48" fill="#000000" xmlns="http://www.w3.org/2000/svg" height="48" viewBox="0 0 48 48" xmlns:xlink="http://www.w3.org/1999/xlink" enable-background="new 0 0 16 16">
<path d="m30,30h-12c-.849,0-1.608,.36-2.154,.927 3.036,1.443 5.154,4.491 5.154,8.073 0,4.971-4.029,9-9,9-4.971,0-9-4.029-9-9 0-3.915 2.511-7.209 6-8.451v-13.101c-3.489-1.239-6-4.533-6-8.448 0-4.971 4.029-9 9-9 4.971,0 9,4.029 9,9 0,3.915-2.511,7.209-6,8.448v7.104c.942-.336 1.941-.552 3-.552h12c1.659,0 3-1.341 3-3v-.552c-3.486-1.239-6-4.533-6-8.448 0-4.971 4.032-9 9-9 4.968,0 9,4.029 9,9 0,3.915-2.514,7.209-6,8.448v.552c0,4.971-4.032,9-9,9Zm6-21c1.659,0 3,1.341 3,3 0,1.659-1.341,3-3,3-1.659,0-3-1.341-3-3 0-1.659 1.341-3 3-3Zm-24-3c1.656,0 3,1.341 3,3 0,1.659-1.344,3-3,3-1.656,0-3-1.341-3-3 0-1.659 1.344-3 3-3Zm0,30c1.656,0 3,1.341 3,3 0,1.659-1.344,3-3,3-1.656,0-3-1.341-3-3 0-1.659 1.344-3 3-3Z"/>
</svg>
