<svg width="48" fill="#000000" xmlns="http://www.w3.org/2000/svg" height="48" viewBox="0 0 48 48" xmlns:xlink="http://www.w3.org/1999/xlink" enable-background="new 0 0 16 16">
<path d="m45,27c-.186,0-.342-.072-.519-.105-1.209,3.543-4.53,6.105-8.481,6.105v-21h-3c0-1.656-1.341-3-3-3h-12c-1.656,0-3,1.344-3,3h-3v18 3 3c0,1.659 1.344,3 3,3 0-1.659 1.344-3 3-3h3c1.656,0 3,1.341 3,3v3c0,1.659-1.344,3-3,3h-3c-1.656,0-3-1.341-3-3-3.312,0-6-2.688-6-6v-3.534c-2.571-.918-4.596-2.976-5.481-5.571-.174,.033-.333,.105-.519,.105-1.656,0-3-1.344-3-3s1.344-3 3-3c.177,0 .33,.072 .501,.102 .888-2.586 2.922-4.635 5.499-5.55v-3.552c0-4.971 4.029-9 9-9h12c4.971,0 9,4.029 9,9v3.552c2.577,.918 4.608,2.967 5.502,5.55 .168-.03 .318-.102 .498-.102 1.659,0 3,1.344 3,3s-1.341,3-3,3zm-36-6h-3v6h3v-6zm33,0h-3v6h3v-6z"/>
</svg>
