<svg width="48" fill="#000000" xmlns="http://www.w3.org/2000/svg" height="48" viewBox="0 0 48 48" xmlns:xlink="http://www.w3.org/1999/xlink" enable-background="new 0 0 16 16">
<path d="m48,24c0-13.254-10.746-24-24-24s-24,10.746-24,24 10.746,24 24,24h3c1.653,0 3-1.347 3-3s-1.347-3-3-3h-3c-9.936,0-18-8.058-18-18s8.064-18 18-18c9.942,0 18,8.058 18,18v9c0,1.653-1.347,3-3,3s-3-1.347-3-3v-9c0-6.624-5.379-12-12-12-6.624,0-12,5.376-12,12 0,6.621 5.376,12 12,12 2.25,0 4.335-.657 6.129-1.734 .621,4.359 4.335,7.734 8.871,7.734 4.968,0 9-4.032 9-9v-9zm-24,6c-3.318,0-6-2.685-6-6 0-3.318 2.682-6 6-6 3.315,0 6,2.682 6,6 0,3.315-2.685,6-6,6z"/>
</svg>
