<svg width="48" fill="#000000" xmlns="http://www.w3.org/2000/svg" height="48" viewBox="0 0 48 48" xmlns:xlink="http://www.w3.org/1999/xlink" enable-background="new 0 0 16 16">
<path d="m19.407,33.093c-2.229,0-5.718-8.814-7.407-5.25-.702,1.482-1.872,4.641-3,7.17v.987c0,1.659 1.344,3 3,3h24c1.659,0 3-1.341 3-3v-1.398c-1.695-3.816-3.891-10.14-6-12.57-4.314-4.968-9.468,11.061-13.593,11.061zm19.593-33.093h-30c-4.971,0-9,4.029-9,9v30c0,4.968 4.029,9 9,9h30c4.968,0 9-4.032 9-9v-30c0-4.971-4.032-9-9-9zm3,39c0,1.659-1.341,3-3,3h-30c-1.656,0-3-1.341-3-3v-30c0-1.656 1.344-3 3-3h30c1.659,0 3,1.344 3,3v30zm-28.5-21c2.487,0 4.5-2.013 4.5-4.5s-2.013-4.5-4.5-4.5-4.5,2.013-4.5,4.5 2.013,4.5 4.5,4.5z"/>
</svg>
