<svg width="48" fill="#000000" xmlns="http://www.w3.org/2000/svg" height="48" viewBox="0 0 48 48" xmlns:xlink="http://www.w3.org/1999/xlink" enable-background="new 0 0 16 16">
<path d="m39,0c4.971,0 9,4.029 9,9v30c0,4.971-4.029,9-9,9h-30c-4.971,0-9-4.029-9-9v-30c0-4.971 4.029-9 9-9h6v6h-6c-1.656,0-3,1.344-3,3v30c0,1.659 1.344,3 3,3h30c1.659,0 3-1.341 3-3v-30c0-1.656-1.341-3-3-3h-6v-6h6Zm-24,30h18l6,9h-30Zm12.879-15.879l-6-6c-.858-.858-1.113-2.148-.651-3.27 .462-1.119 1.56-1.851 2.772-1.851h3v-9c0-1.659 1.344-3 3-3 1.659,0 3,1.341 3,3v9h3c1.212,0 2.31,.732 2.772,1.851 .462,1.122 .204,2.412-.651,3.27l-6,6c-.585,.585-1.353,.879-2.121,.879-.768,0-1.536-.294-2.121-.879Z"/>
</svg>
