<svg width="48" fill="#000000" xmlns="http://www.w3.org/2000/svg" height="48" viewBox="0 0 48 48" xmlns:xlink="http://www.w3.org/1999/xlink" enable-background="new 0 0 16 16">
<path d="m39,48h-30c-4.971,0-9-4.029-9-9v-9l10.335-10.335c.366,.603 .789,1.179 1.302,1.695l2.748,2.748-8.385,8.892h9v3c0,1.659 1.344,3 3,3h12c1.659,0 3-1.341 3-3v-3h9l-8.385-8.892 2.748-2.748c.516-.516 .936-1.092 1.305-1.692l10.332,10.332v9c0,4.971-4.029,9-9,9zm-12.879-24.882c-.585,.585-1.353,.879-2.121,.879s-1.536-.294-2.121-.879l-6-6c-.855-.858-1.113-2.148-.651-3.27 .462-1.119 1.56-1.848 2.772-1.848h3v-9c0-1.656 1.344-3 3-3 1.659,0 3,1.344 3,3v9h3c1.212,0 2.31,.732 2.772,1.851 .462,1.122 .207,2.409-.651,3.267l-6,6z"/>
</svg>
