<svg width="48" fill="#000000" xmlns="http://www.w3.org/2000/svg" height="48" viewBox="0 0 48 48" xmlns:xlink="http://www.w3.org/1999/xlink" enable-background="new 0 0 16 16">
<path d="m45,24c0,6.627-5.373,12-12,12s-12-5.373-12-12c0-3.312-2.688-6-6-6s-6,2.688-6,6 2.688,6 6,6c.366,0 .72-.045 1.068-.108 .687,1.971 1.698,3.765 2.982,5.358-1.269,.456-2.619,.75-4.05,.75-6.627,0-12-5.373-12-12s5.373-12 12-12 12,5.373 12,12c0,3.312 2.688,6 6,6s6-2.688 6-6c0-3.312-2.688-6-6-6-.366,0-.72,.045-1.068,.108-.687-1.971-1.695-3.765-2.982-5.358 1.269-.456 2.619-.75 4.05-.75 6.627,0 12,5.373 12,12z"/>
</svg>
