<svg width="48" fill="#000000" xmlns="http://www.w3.org/2000/svg" height="48" viewBox="0 0 48 48" xmlns:xlink="http://www.w3.org/1999/xlink" enable-background="new 0 0 16 16">
<path d="m21.879,23.121c.585,.585 1.353,.879 2.121,.879s1.536-.294 2.121-.879l6-6c.855-.855 1.113-2.148 .651-3.27-.462-1.119-1.56-1.851-2.772-1.851h-2.997v-9c0-1.659-1.341-3-3-3-1.656,0-3,1.341-3,3v9h-3.003c-1.212,0-2.31,.732-2.772,1.851-.462,1.122-.207,2.415 .651,3.27l6,6zm17.121-11.121h-.54c.699,1.983 .702,4.092 .027,6h.513c.732,0 1.383,.297 1.905,.732l-16.905,11.268-16.902-11.268c.522-.435 1.167-.732 1.902-.732h.51c-.675-1.908-.675-4.017 .027-6h-.537c-4.971,0-9,4.032-9,9v18c0,4.971 4.029,9 9,9h30c4.971,0 9-4.029 9-9v-18c0-4.968-4.029-9-9-9zm3,24l-9-3 8.121,8.121c-.543,.543-1.293,.879-2.121,.879h-30c-.828,0-1.578-.336-2.121-.879l8.121-8.121-9,3v-12l18,12 18-12v12z"/>
</svg>
