<svg width="48" fill="#000000" xmlns="http://www.w3.org/2000/svg" height="48" viewBox="0 0 48 48" xmlns:xlink="http://www.w3.org/1999/xlink" enable-background="new 0 0 16 16">
<path d="m18,12h3.003v9c0,1.659 1.344,3 3,3 1.659,0 3-1.341 3-3v-9h2.997c1.212,0 2.31-.732 2.772-1.851 .462-1.122 .204-2.415-.651-3.27l-6-6c-.585-.585-1.353-.879-2.121-.879s-1.536,.294-2.121,.879l-6,6c-.858,.855-1.113,2.148-.651,3.27 .462,1.119 1.56,1.851 2.772,1.851zm21,0h-.543c-.054,.147-.084,.294-.144,.438-.999,2.415-2.313,4.218-5.313,5.052v.51h6c.732,0 1.383,.297 1.905,.732l-16.905,11.268-16.902-11.268c.522-.435 1.167-.732 1.902-.732h6v-.51c-3-.831-4.317-2.634-5.316-5.049-.06-.141-.096-.294-.147-.441h-.537c-4.971,0-9,4.032-9,9v18c0,4.971 4.029,9 9,9h30c4.971,0 9-4.029 9-9v-18c0-4.968-4.029-9-9-9zm3,24l-9-3 8.121,8.121c-.543,.543-1.293,.879-2.121,.879h-30c-.828,0-1.578-.336-2.121-.879l8.121-8.121-9,3v-12l18,12 18-12v12z"/>
</svg>
