<svg width="48" fill="#000000" xmlns="http://www.w3.org/2000/svg" height="48" viewBox="0 0 48 48" xmlns:xlink="http://www.w3.org/1999/xlink" enable-background="new 0 0 16 16">
<path d="m48,30c0,3.312-2.688,6-6,6 3.312,0 6,2.688 6,6s-2.688,6-6,6-6-2.688-6-6c0,3.312-2.688,6-6,6s-6-2.688-6-6c0,3.312-2.688,6-6,6s-6-2.688-6-6c0,3.312-2.688,6-6,6s-6-2.688-6-6 2.688-6 6-6c-3.312,0-6-2.688-6-6s2.688-6 6-6c-3.312,0-6-2.688-6-6s2.688-6 6-6c-3.312,0-6-2.688-6-6s2.688-6 6-6 6,2.688 6,6c0-3.312 2.688-6 6-6s6,2.688 6,6c0-3.312 2.688-6 6-6s6,2.688 6,6c0-3.312 2.688-6 6-6s6,2.688 6,6-2.688,6-6,6c3.312,0 6,2.688 6,6s-2.688,6-6,6c3.312,0 6,2.688 6,6zm-9-21h-30v30h30v-30zm-15,3c6.627,0 12,5.373 12,12v4.5c0,2.484-2.016,4.5-4.5,4.5-2.268,0-4.125-1.686-4.437-3.867-.897,.54-1.938,.867-3.063,.867-3.312,0-6-2.688-6-6s2.688-6 6-6 6,2.688 6,6v4.5c0,.828 .672,1.5 1.5,1.5s1.5-.672 1.5-1.5v-4.5c0-4.971-4.029-9-9-9-4.968,0-9,4.029-9,9 0,4.971 4.032,9 9,9h1.5c.828,0 1.5,.672 1.5,1.5s-.672,1.5-1.5,1.5h-1.5c-6.627,0-12-5.373-12-12s5.373-12 12-12zm0,9c-1.659,0-3,1.341-3,3s1.341,3 3,3 3-1.341 3-3-1.341-3-3-3z"/>
</svg>
