<svg width="48" fill="#000000" xmlns="http://www.w3.org/2000/svg" height="48" viewBox="0 0 48 48" xmlns:xlink="http://www.w3.org/1999/xlink" enable-background="new 0 0 16 16">
<path d="m9,30v3h3v-3h-3zm0,9h3v-3h-3v3zm9,0v-3h-3v3h3zm-6-3h3v-3h-3v3zm6-27h-3v3h3v-3zm-6,12h3v-3h-3v3zm24-3h-3v3h3v-3zm-24-6h-3v3h3v-3zm9,24h3v-3h-3v3zm15-9h3v-3h-3v3zm-3,6h3v-3h-3v3zm-6-15h3v-3h-3v3zm12-18h-30c-4.971,0-9,4.029-9,9v30c0,4.968 4.029,9 9,9h30c4.971,0 9-4.032 9-9v-30c0-4.971-4.029-9-9-9zm3,39c0,1.659-1.341,3-3,3h-30c-1.659,0-3-1.341-3-3v-30c0-1.656 1.341-3 3-3h30c1.659,0 3,1.344 3,3v30zm-27-6h3v-3h-3v3zm12-12h-3v3h3v-3zm0,15h3v-3h-3v3zm-6-15h-3v3h3v-3z"/>
</svg>
