<svg width="48" fill="#000000" xmlns="http://www.w3.org/2000/svg" height="48" viewBox="0 0 48 48" xmlns:xlink="http://www.w3.org/1999/xlink" enable-background="new 0 0 16 16">
<path d="m39,48h-30c-4.971,0-9-4.032-9-9v-30c0-4.971 4.029-9 9-9h1.674c-1.794,1.989-3.12,4.374-3.885,7.014-.477,.531-.789,1.218-.789,1.986v30c0,1.659 1.341,3 3,3h30c1.659,0 3-1.341 3-3v-30c0-.768-.312-1.455-.789-1.986-.765-2.64-2.091-5.025-3.882-7.014h1.671c4.971,0 9,4.029 9,9v30c0,4.968-4.029,9-9,9zm-27-36c0-6.627 5.373-12 12-12s12,5.373 12,12-12,24-12,24-12-17.373-12-24zm18,0c0-3.312-2.688-6-6-6s-6,2.688-6,6 2.688,6 6,6 6-2.688 6-6z"/>
</svg>
