<svg width="48" fill="#000000" xmlns="http://www.w3.org/2000/svg" height="48" viewBox="0 0 48 48" xmlns:xlink="http://www.w3.org/1999/xlink" enable-background="new 0 0 16 16">
<path d="m6,15v6h-6v-6h6Zm0,12v6h-6v-6h6Zm0,12c0,1.659 1.344,3 3,3v6c-4.971,0-9-4.032-9-9h6Zm9-33v-6h6v6h-6Zm27,3c0-1.656-1.341-3-3-3v-6c4.968,0 9,4.029 9,9h-6Zm-42,0c0-4.971 4.029-9 9-9v6c-1.656,0-3,1.344-3,3h-6Zm42,24v-6h6v6h-6Zm0-12v-6h6v6h-6Zm-3,21c1.659,0 3-1.341 3-3h6c0,4.968-4.032,9-9,9v-6Zm-12-36v-6h6v6h-6Zm-12,42v-6h6v6h-6Zm12,0v-6h6v6h-6Z"/>
</svg>
