<svg width="48" fill="#000000" xmlns="http://www.w3.org/2000/svg" height="48" viewBox="0 0 48 48" xmlns:xlink="http://www.w3.org/1999/xlink" enable-background="new 0 0 16 16">
<path d="m45,0c1.659,0 3,1.344 3,3v9c0,1.212-.732,2.307-1.851,2.772-.372,.153-.762,.228-1.149,.228-.78,0-1.548-.306-2.121-.879l-2.379-2.379-8.379,8.379c-1.173,1.173-3.069,1.173-4.242,0-1.173-1.173-1.173-3.069 0-4.242l8.379-8.379-2.379-2.379c-.858-.858-1.113-2.148-.651-3.27 .462-1.119 1.56-1.851 2.772-1.851h9Zm-29.121,27.879c1.173-1.173 3.069-1.173 4.242,0 1.173,1.173 1.173,3.069 0,4.242l-8.379,8.379 2.379,2.379c.858,.858 1.116,2.148 .651,3.27-.465,1.119-1.56,1.851-2.772,1.851h-9c-1.656,0-3-1.341-3-3v-9c0-1.212 .732-2.31 1.851-2.772 .372-.153 .762-.228 1.149-.228 .78,0 1.548,.306 2.121,.879l2.379,2.379 8.379-8.379Z"/>
</svg>
