<svg width="48" fill="#000000" xmlns="http://www.w3.org/2000/svg" height="48" viewBox="0 0 48 48" xmlns:xlink="http://www.w3.org/1999/xlink" enable-background="new 0 0 16 16">
<path d="m9,21h30v3h-30zm0-9h30v3h-30zm30-18h-30c-4.971,0-9,4.029-9,9v30c0,4.971 4.029,9 9,9h30c4.971,0 9-4.029 9-9v-30c0-4.971-4.029-9-9-9zm3,39c0,1.659-1.341,3-3,3h-30c-1.656,0-3-1.341-3-3v-30c0-1.656 1.344-3 3-3h30c1.659,0 3,1.344 3,3v30zm-33-30h30v3h-30zm21,15c1.212,0 2.31,.729 2.772,1.851 .462,1.125 .204,2.412-.651,3.267l-6,6c-.585,.585-1.353,.882-2.121,.882-.768,0-1.536-.297-2.121-.882l-6-5.997c-.858-.855-1.113-2.151-.651-3.27 .462-1.122 1.56-1.851 2.772-1.851h12Z"/>
</svg>
