<svg width="48" fill="#000000" xmlns="http://www.w3.org/2000/svg" height="48" viewBox="0 0 48 48" xmlns:xlink="http://www.w3.org/1999/xlink" enable-background="new 0 0 16 16">
<path d="m27,25.5c0,.828 .675,1.5 1.5,1.5h7.5c0,3.915-2.514,7.209-6,8.448v-3.948c0-.825-.675-1.5-1.5-1.5s-1.5,.675-1.5,1.5v10.5c0,1.659-1.344,3-3,3s-3-1.341-3-3v-10.5c0-.825-.672-1.5-1.5-1.5-.828,0-1.5,.675-1.5,1.5v3.948c-3.489-1.239-6-4.533-6-8.448h7.5c.828,0 1.5-.672 1.5-1.5 0-.828-.672-1.5-1.5-1.5h-7.5v-3h4.5c.828,0 1.5-.672 1.5-1.5 0-.828-.672-1.5-1.5-1.5h-4.5v-3h7.5c.828,0 1.5-.672 1.5-1.5 0-.828-.672-1.5-1.5-1.5h-7.5c0-3.912 2.511-7.209 6-8.448v3.948c0,.828 .672,1.5 1.5,1.5 .828,0 1.5-.672 1.5-1.5v-4.5h6v4.5c0,.828 .675,1.5 1.5,1.5s1.5-.672 1.5-1.5v-3.948c3.486,1.239 6,4.536 6,8.448h-7.5c-.825,0-1.5,.672-1.5,1.5 0,.828 .675,1.5 1.5,1.5h7.5v3h-4.5c-.825,0-1.5,.672-1.5,1.5 0,.828 .675,1.5 1.5,1.5h4.5v3h-7.5c-.825,0-1.5,.672-1.5,1.5zm-1.5-7.5h-3c-.828,0-1.5,.672-1.5,1.5 0,.828 .672,1.5 1.5,1.5h3c.828,0 1.5-.672 1.5-1.5 0-.828-.672-1.5-1.5-1.5z"/>
</svg>
