<svg width="48" fill="#000000" xmlns="http://www.w3.org/2000/svg" height="48" viewBox="0 0 48 48" xmlns:xlink="http://www.w3.org/1999/xlink" enable-background="new 0 0 16 16">
<path d="m24,48c-9.939,0-18-8.058-18-18 0-1.659 1.344-3 3-3s3,1.341 3,3c0,6.627 5.373,12 12,12s12-5.373 12-12c0-1.659 1.341-3 3-3s3,1.341 3,3c0,9.942-8.061,18-18,18zm4.5-42c-.825,0-1.5,.672-1.5,1.5 0,.828 .675,1.5 1.5,1.5h4.5v3h-4.5c-.825,0-1.5,.672-1.5,1.5 0,.828 .675,1.5 1.5,1.5h4.5v3h-4.5c-.825,0-1.5,.672-1.5,1.5 0,.828 .675,1.5 1.5,1.5h4.5v3h-4.5c-.825,0-1.5,.672-1.5,1.5 0,.828 .675,1.5 1.5,1.5h4.5v3c0,4.968-4.032,9-9,9-4.971,0-9-4.032-9-9v-3h4.5c.828,0 1.5-.672 1.5-1.5 0-.828-.672-1.5-1.5-1.5h-4.5v-3h4.5c.828,0 1.5-.672 1.5-1.5 0-.828-.672-1.5-1.5-1.5h-4.5v-3h4.5c.828,0 1.5-.672 1.5-1.5 0-.828-.672-1.5-1.5-1.5h-4.5v-3h4.5c.828,0 1.5-.672 1.5-1.5 0-.828-.672-1.5-1.5-1.5h-3.948c1.239-3.489 4.536-6 8.448-6 3.915,0 7.209,2.511 8.448,6h-3.948z"/>
</svg>
