<svg width="48" fill="#000000" xmlns="http://www.w3.org/2000/svg" height="48" viewBox="0 0 48 48" xmlns:xlink="http://www.w3.org/1999/xlink" enable-background="new 0 0 16 16">
<path d="m39,48h-30c-4.971,0-9-4.029-9-9v-39h36v3h6v3h3 3v33c0,4.971-4.029,9-9,9zm-9-42h-24v33c0,1.659 1.341,3 3,3h21v-36zm15,3h-3v28.5c0,.828-.672,1.5-1.5,1.5s-1.5-.672-1.5-1.5v-31.5h-3v31.5c0,2.484 2.016,4.5 4.5,4.5s4.5-2.016 4.5-4.5v-28.5zm-36,27h9v3h-9v-3zm0-6h12v3h-12v-3zm18,3h-3v-3h3v3zm-6-9h6v3h-6v-3zm-12-15h18v12h-18v-12zm9,18h-9v-3h9v3z"/>
</svg>
