<svg width="48" fill="#000000" xmlns="http://www.w3.org/2000/svg" height="48" viewBox="0 0 48 48" xmlns:xlink="http://www.w3.org/1999/xlink" enable-background="new 0 0 16 16">
<path d="m7.584,38.646c-.975-.525-1.584-1.539-1.584-2.646v-24c0-1.107 .612-2.124 1.587-2.646 .975-.522 2.157-.462 3.078,.15l18,12c.834,.558 1.335,1.491 1.335,2.496 0,1.002-.501,1.938-1.338,2.496l-18,12c-.918,.615-2.103,.672-3.078,.15Zm25.416,.354c-1.659,0-3-1.341-3-3v-12-12c0-1.659 1.341-3 3-3h6c1.659,0 3,1.341 3,3v24c0,1.659-1.341,3-3,3h-6Z"/>
</svg>
