<svg width="48" fill="#000000" xmlns="http://www.w3.org/2000/svg" height="48" viewBox="0 0 48 48" xmlns:xlink="http://www.w3.org/1999/xlink" enable-background="new 0 0 16 16">
<path d="m43.437,19.437l-14.922-14.922 4.485-4.515 15,15-4.563,4.437zm-4.44,4.323c-.102,.099-.183,.153-.279,.24h-2.718-3l-3,12-24,12h-3l9.54-9.54c.753,.342 1.581,.54 2.46,.54 3.312,0 6-2.688 6-6s-2.688-6-6-6-6,2.688-6,6c0,.879 .198,1.707 .54,2.46l-9.54,9.54v-3l12-24 12-3v-3-2.916c.057-.06 .084-.111 .147-.174l1.377-1.386 14.874,14.874-1.401,1.362z"/>
</svg>
