<svg width="48" fill="#000000" xmlns="http://www.w3.org/2000/svg" height="48" viewBox="0 0 48 48" xmlns:xlink="http://www.w3.org/1999/xlink" enable-background="new 0 0 16 16">
<path d="m24,48c-13.254,0-24-10.746-24-24s10.746-24 24-24c13.254,0 24,10.746 24,24s-10.746,24-24,24zm0-6c3.885,0 7.461-1.26 10.404-3.354l-25.05-25.05c-2.094,2.943-3.354,6.519-3.354,10.404 0,9.939 8.061,18 18,18zm0-36c-3.885,0-7.461,1.26-10.404,3.354l25.05,25.05c2.094-2.943 3.354-6.516 3.354-10.404 0-9.939-8.061-18-18-18z"/>
</svg>
