<svg width="48" fill="#000000" xmlns="http://www.w3.org/2000/svg" height="48" viewBox="0 0 48 48" xmlns:xlink="http://www.w3.org/1999/xlink" enable-background="new 0 0 16 16">
<path d="m42,36v-7.503l6-4.5v12.003c0,4.971-4.029,9-9,9h-30c-4.968,0-9-4.029-9-9v-15c0-4.968 4.032-9 9-9h2.283c-1.533,1.908-2.766,4.062-3.663,6.378-.948,.504-1.62,1.473-1.62,2.622v15c0,1.659 1.344,3 3,3h30c1.659,0 3-1.341 3-3Zm-12-15c-7.833,0-14.478,5.013-16.953,12-.666-1.878-1.047-3.894-1.047-6 0-9.939 8.061-18 18-18v-3c0-1.137 .642-2.175 1.659-2.685 .423-.21 .885-.315 1.341-.315 .636,0 1.272,.204 1.8,.6l12,9c.756,.567 1.2,1.458 1.2,2.4 0,.945-.444,1.833-1.2,2.4l-12,9c-.528,.396-1.164,.6-1.8,.6-.456,0-.918-.105-1.341-.315-1.017-.51-1.659-1.548-1.659-2.685v-3Z"/>
</svg>
