<svg width="48" fill="#000000" xmlns="http://www.w3.org/2000/svg" height="48" viewBox="0 0 48 48" xmlns:xlink="http://www.w3.org/1999/xlink" enable-background="new 0 0 16 16">
<path d="m9,39l6-9h18l6,9Zm-21-27c-1.212,0-2.31-.732-2.772-1.851-.114-.282-.186-.573-.213-.864-.084-.879 .219-1.764 .864-2.409l6-6c.585-.585 1.353-.879 2.121-.879 .768,0 1.536,.294 2.121,.879l6,6c.642,.645 .945,1.533 .864,2.409-.027,.291-.096,.582-.213,.864-.462,1.119-1.56,1.851-2.772,1.851h-3v9c0,1.659-1.341,3-3,3-1.656,0-3-1.341-3-3v-9h-3Zm21-12c4.971,0 9,4.029 9,9v30c0,4.971-4.029,9-9,9h-30c-4.971,0-9-4.029-9-9v-30c0-4.971 4.029-9 9-9h5.271l-2.637,2.634c-.972,.972-1.686,2.124-2.124,3.366h-.51c-1.656,0-3,1.344-3,3v30c0,1.659 1.344,3 3,3h30c1.659,0 3-1.341 3-3v-30c0-1.656-1.341-3-3-3h-.513c-.438-1.239-1.152-2.391-2.124-3.366l-2.634-2.634h5.271Z"/>
</svg>
