<svg width="48" fill="#000000" xmlns="http://www.w3.org/2000/svg" height="48" viewBox="0 0 48 48" xmlns:xlink="http://www.w3.org/1999/xlink" enable-background="new 0 0 16 16">
<path d="m9,48c-4.971,0-9-4.029-9-9v-11.25l6,4.5v6.75c0,1.659 1.341,3 3,3h30c1.659,0 3-1.341 3-3v-30c0-1.656-1.341-3-3-3h-12c0-2.163-.585-4.212-1.617-6h13.617c4.968,0 9,4.032 9,9v30c0,4.971-4.032,9-9,9h-30Zm4.2-21.6l-12-9c-.756-.567-1.2-1.458-1.2-2.4 0-.942 .444-1.833 1.2-2.4l12-9c.528-.396 1.164-.6 1.8-.6 .456,0 .918,.105 1.341,.315 1.017,.51 1.659,1.548 1.659,2.685v3c11.598,0 21,9.402 21,21 0,2.085-.315,4.098-.882,6-2.58-8.673-10.608-15-20.118-15v.129 2.871c0,1.137-.642,2.175-1.659,2.685-.423,.21-.885,.315-1.341,.315-.636,0-1.272-.204-1.8-.6Z"/>
</svg>
