<svg width="48" fill="#000000" xmlns="http://www.w3.org/2000/svg" height="48" viewBox="0 0 48 48" xmlns:xlink="http://www.w3.org/1999/xlink" enable-background="new 0 0 16 16">
<path d="m39,48h-30c-4.968,0-9-4.029-9-9v-30c0-4.971 4.032-9 9-9h13.617c-1.035,1.788-1.617,3.837-1.617,6h-12c-1.659,0-3,1.344-3,3v30c0,1.659 1.341,3 3,3h30c1.659,0 3-1.341 3-3v-6.75l6-4.5v11.25c0,4.971-4.029,9-9,9zm-4.2-21.6c-.528,.396-1.164,.6-1.8,.6-.456,0-.918-.105-1.341-.315-1.017-.51-1.659-1.548-1.659-2.685v-2.874-.126c-9.513,0-17.538,6.327-20.118,15-.57-1.905-.882-3.915-.882-6 0-11.598 9.402-21 21-21v-3c0-1.137 .642-2.175 1.659-2.685 .423-.21 .885-.315 1.341-.315 .636,0 1.272,.204 1.8,.6l12,9c.756,.567 1.2,1.455 1.2,2.4s-.444,1.833-1.2,2.4l-12,9z"/>
</svg>
