<svg width="48" fill="#000000" xmlns="http://www.w3.org/2000/svg" height="48" viewBox="0 0 48 48" xmlns:xlink="http://www.w3.org/1999/xlink" enable-background="new 0 0 16 16">
<path d="m36,24c-2.196,0-4.23-.633-6-1.665v19.665 6h-6-18-6v-6-30c0-6.627 5.373-12 12-12h24c6.627,0 12,5.373 12,12s-5.373,12-12,12zm-24-18c-3.312,0-6,2.688-6,6v30h18v-30c0-2.196 .633-4.227 1.665-6h-13.665zm24,0c-3.312,0-6,2.688-6,6s2.688,6 6,6 6-2.688 6-6-2.688-6-6-6zm-27,30h12v3h-12v-3zm0-9h12v3h-12v-3zm0-9h12v3h-12v-3zm0-9h12v3h-12v-3z"/>
</svg>
