<svg width="48" fill="#000000" xmlns="http://www.w3.org/2000/svg" height="48" viewBox="0 0 48 48" xmlns:xlink="http://www.w3.org/1999/xlink" enable-background="new 0 0 16 16">
<path d="m39,48h-30c-4.971,0-9-4.032-9-9v-30c0-4.971 4.029-9 9-9h30c4.971,0 9,4.029 9,9v30c0,4.968-4.029,9-9,9zm3-39c0-1.656-1.341-3-3-3h-30c-1.659,0-3,1.344-3,3v30c0,1.659 1.341,3 3,3h30c1.659,0 3-1.341 3-3v-30zm-9,18h-6v6c0,1.659-1.341,3-3,3s-3-1.341-3-3v-6h-6c-1.659,0-3-1.344-3-3s1.341-3 3-3h6v-6c0-1.656 1.341-3 3-3s3,1.344 3,3v6h6c1.659,0 3,1.344 3,3s-1.341,3-3,3z"/>
</svg>
