<svg width="48" fill="#000000" xmlns="http://www.w3.org/2000/svg" height="48" viewBox="0 0 48 48" xmlns:xlink="http://www.w3.org/1999/xlink" enable-background="new 0 0 16 16">
<path d="m39,48h-30c-4.971,0-9-4.032-9-9v-30c0-4.971 4.029-9 9-9h30c4.971,0 9,4.029 9,9v30c0,4.968-4.029,9-9,9zm3-39c0-1.656-1.341-3-3-3h-30c-1.659,0-3,1.344-3,3v27h36v-27zm-22.332,13.134c-1.029-1.074-1.668-2.526-1.668-4.134v-3c0-3.312 2.688-6 6-6s6,2.688 6,6v3c0,1.608-.639,3.06-1.668,4.134 2.355,1.302 4.206,3.615 4.668,6.366 0,2.484-2.016,4.5-4.5,4.5h-9c-2.484,0-4.5-2.016-4.5-4.5 .462-2.751 2.313-5.064 4.668-6.366zm7.332-7.134c0-1.656-1.341-3-3-3s-3,1.344-3,3v3c0,1.656 1.341,3 3,3s3-1.344 3-3v-3zm-7.5,15h9c.828,0 1.5-.672 1.5-1.5-.672-2.583-3.207-4.5-6-4.5s-5.328,1.917-6,4.5c0,.828 .672,1.5 1.5,1.5z"/>
</svg>
