<svg width="48" fill="#000000" xmlns="http://www.w3.org/2000/svg" height="48" viewBox="0 0 48 48" xmlns:xlink="http://www.w3.org/1999/xlink" enable-background="new 0 0 16 16">
<path d="m48,39c0,4.971-4.032,9-9,9s-9-4.029-9-9c0-3.915 2.514-7.209 6-8.448v-15.552c0-1.659-1.341-3-3-3v2.997c0,1.212-.732,2.31-1.851,2.772-1.122,.465-2.412,.207-3.27-.648l-6-6.003c-.585-.585-.879-1.35-.879-2.121 0-.765 .294-1.533 .879-2.118l6-6c.858-.858 2.148-1.113 3.27-.651 1.119,.462 1.851,1.557 1.851,2.769v3.003c4.968,0 9,4.029 9,9v15.552c3.486,1.239 6,4.533 6,8.448zm-9-3c-1.659,0-3,1.341-3,3s1.341,3 3,3 3-1.341 3-3-1.341-3-3-3zm-21,3c0,4.971-4.029,9-9,9s-9-4.029-9-9c0-3.915 2.511-7.209 6-8.448v-13.104c-3.489-1.239-6-4.533-6-8.448 0-4.971 4.029-9 9-9s9,4.029 9,9c0,3.915-2.511,7.209-6,8.448v13.101c3.489,1.242 6,4.536 6,8.451zm-9-33c-1.656,0-3,1.341-3,3s1.344,3 3,3 3-1.341 3-3-1.344-3-3-3zm0,30c-1.656,0-3,1.341-3,3s1.344,3 3,3 3-1.341 3-3-1.344-3-3-3z"/>
</svg>
