<svg width="48" fill="#000000" xmlns="http://www.w3.org/2000/svg" height="48" viewBox="0 0 48 48" xmlns:xlink="http://www.w3.org/1999/xlink" enable-background="new 0 0 16 16">
<path d="m39,18c4.971,0 9-4.029 9-9 0-4.971-4.029-9-9-9-27,0-39,45-39,45v1.5c0,.828 .672,1.5 1.5,1.5 .828,0 1.5-.672 1.5-1.5v-1.5c1.914-5.742 6.57-11.472 12.024-16.623 0,.045-.024,.078-.024,.123 0,2.484 2.013,4.5 4.5,4.5 2.487,0 4.5-2.016 4.5-4.5 0-.756-.234-1.437-.564-2.064 .627,.33 1.308,.564 2.064,.564 2.484,0 4.5-2.016 4.5-4.5 0-.756-.234-1.437-.564-2.064 .627,.33 1.305,.564 2.064,.564 2.181,0 3.912-1.578 4.323-3.636 .99,.384 2.049,.636 3.177,.636Z"/>
</svg>
