<svg width="48" fill="#000000" xmlns="http://www.w3.org/2000/svg" height="48" viewBox="0 0 48 48" xmlns:xlink="http://www.w3.org/1999/xlink" enable-background="new 0 0 16 16">
<path d="m44.772,25.851c.465,1.122 .207,2.412-.651,3.27l-6,6c-.585,.585-1.353,.879-2.121,.879-.768,0-1.536-.294-2.121-.879l-6-6c-.858-.858-1.113-2.148-.651-3.27 .462-1.119 1.56-1.851 2.772-1.851h3c0-6.627-5.373-12-12-12-6.627,0-12,5.373-12,12 0,6.627 5.373,12 12,12 1.563,0 3.042-.318 4.413-.861l4.524,4.47c-2.634,1.512-5.682,2.391-8.937,2.391-9.939,0-18-8.061-18-18 0-9.939 8.061-18 18-18 9.939,0 18,8.061 18,18h3c1.212,0 2.31,.732 2.772,1.851Z"/>
</svg>
