<svg width="48" fill="#000000" xmlns="http://www.w3.org/2000/svg" height="48" viewBox="0 0 48 48" xmlns:xlink="http://www.w3.org/1999/xlink" enable-background="new 0 0 16 16">
<path d="m42,19.881v-10.881c0-1.656-1.341-3-3-3h-24c-1.659,0-3,1.344-3,3v30c0,1.659 1.341,3 3,3h4.881c1.23,2.394 2.985,4.464 5.175,6h-10.056c-4.971,0-9-4.032-9-9h-3c-1.659,0-3-1.341-3-3s1.341-3 3-3h3v-6h-3c-1.659,0-3-1.344-3-3s1.341-3 3-3h3v-6h-3c-1.659,0-3-1.344-3-3s1.341-3 3-3h3c0-4.971 4.029-9 9-9h24c4.971,0 9,4.029 9,9v16.056c-1.536-2.19-3.606-3.942-6-5.175zm-27,1.119h10.056c-1.206,.843-2.247,1.875-3.186,3h-6.87v-3zm0,6h4.881c-.489,.951-.882,1.95-1.182,3h-3.699v-3zm0,9v-3h3.153c-.048,.504-.153,.984-.153,1.5s.105,.999 .153,1.5h-3.153zm0-27h24v3h-24v-3zm24,9h-24v-3h24v3zm-18,16.5c0-7.455 6.045-13.5 13.5-13.5s13.5,6.045 13.5,13.5-6.045,13.5-13.5,13.5-13.5-6.045-13.5-13.5zm13.5,7.5c4.143,0 7.5-3.357 7.5-7.5s-3.357-7.5-7.5-7.5-7.5,3.357-7.5,7.5 3.357,7.5 7.5,7.5zm0-12c.828,0 1.5,.675 1.5,1.5v1.5h1.5c.828,0 1.5,.675 1.5,1.5 0,.828-.672,1.5-1.5,1.5h-3c-.828,0-1.5-.672-1.5-1.5v-3c0-.825 .672-1.5 1.5-1.5z"/>
</svg>
