<svg width="48" fill="#000000" xmlns="http://www.w3.org/2000/svg" height="48" viewBox="0 0 48 48" xmlns:xlink="http://www.w3.org/1999/xlink" enable-background="new 0 0 16 16">
<path d="m39,12c4.971,0 9,4.032 9,9v12c0,4.971-4.029,9-9,9h-30c-4.971,0-9-4.029-9-9v-12c0-4.968 4.029-9 9-9h12v-2.997c0-1.212 .732-2.31 1.851-2.772 1.122-.465 2.412-.21 3.27,.651l6,5.997c.585,.585 .879,1.353 .879,2.121 0,.768-.294,1.536-.879,2.121l-6,6c-.855,.858-2.148,1.113-3.27,.651-1.119-.462-1.851-1.56-1.851-2.772v-3h-12c-1.656,0-3,1.341-3,3v12c0,1.659 1.344,3 3,3h30c1.659,0 3-1.341 3-3v-12c0-1.659-1.341-3-3-3h-.546c.339-.954 .546-1.956 .546-3 0-1.044-.207-2.046-.546-3h.546Z"/>
</svg>
