<svg width="48" fill="#000000" xmlns="http://www.w3.org/2000/svg" height="48" viewBox="0 0 48 48" xmlns:xlink="http://www.w3.org/1999/xlink" enable-background="new 0 0 16 16">
<path d="m36,18c6.627,0 12,5.373 12,12 0,2.196-.633,4.227-1.665,6-2.079-3.57-5.904-6-10.335-6v6c0,1.107-.609,2.121-1.587,2.646-.975,.522-2.157,.465-3.078-.15l-18-12c-.834-.558-1.335-1.494-1.335-2.496 0-1.002 .501-1.938 1.338-2.496l18-12c.918-.612 2.103-.672 3.078-.15 .975,.522 1.584,1.539 1.584,2.646v6Zm-27,6c0,2.013 .999,3.876 2.67,4.995l12.108,8.07c-.255,.66-.72,1.233-1.365,1.581-.975,.522-2.157,.465-3.078-.15l-18-12c-.834-.558-1.335-1.494-1.335-2.496 0-1.002 .501-1.938 1.338-2.496l18-12c.918-.612 2.103-.672 3.078-.15 .645,.345 1.11,.918 1.365,1.584l-12.108,8.07c-1.674,1.116-2.673,2.982-2.673,4.992Z"/>
</svg>
