<svg width="48" fill="#000000" xmlns="http://www.w3.org/2000/svg" height="48" viewBox="0 0 48 48" xmlns:xlink="http://www.w3.org/1999/xlink" enable-background="new 0 0 16 16">
<path d="m30,18v3h3c1.659,0 3,1.341 3,3s-1.341,3-3,3h-6c-1.659,0-3-1.341-3-3v-6c0-1.659 1.341-3 3-3s3,1.341 3,3zm-3,27c-6.492,0-12.297-2.949-16.149-7.578 .087-.066 .189-.099 .27-.18l4.221-3.912c2.745,3.432 6.921,5.67 11.658,5.67 8.286,0 15-6.714 15-15 0-8.283-6.714-15-15-15-7.257,0-13.308,5.154-14.697,12h2.697c1.212,0 2.31,.732 2.772,1.851 .462,1.125 .204,2.415-.651,3.27l-6,6c-.585,.585-1.353,.879-2.121,.879s-1.536-.294-2.121-.879l-6-6c-.858-.855-1.113-2.151-.651-3.27s1.56-1.851 2.772-1.851h3.24c1.455-10.173 10.182-18 20.76-18 11.598,0 21,9.402 21,21s-9.402,21-21,21z"/>
</svg>
