<svg width="48" fill="#000000" xmlns="http://www.w3.org/2000/svg" height="48" viewBox="0 0 48 48" xmlns:xlink="http://www.w3.org/1999/xlink" enable-background="new 0 0 16 16">
<path d="m46.416,38.646c-.975,.522-2.16,.465-3.078-.15l-18-12c-.837-.558-1.338-1.494-1.338-2.496 0-1.005 .501-1.938 1.335-2.496l18-12c.921-.612 2.103-.672 3.078-.15s1.587,1.539 1.587,2.646v24c0,1.107-.609,2.121-1.584,2.646zm-24,0c-.975,.522-2.16,.465-3.078-.15l-18-12c-.837-.558-1.338-1.494-1.338-2.496 0-1.005 .501-1.938 1.335-2.496l18-12c.921-.612 2.103-.672 3.078-.15s1.587,1.539 1.587,2.646v12 12c0,1.107-.609,2.121-1.584,2.646z"/>
</svg>
