<svg width="48" fill="#000000" xmlns="http://www.w3.org/2000/svg" height="48" viewBox="0 0 48 48" xmlns:xlink="http://www.w3.org/1999/xlink" enable-background="new 0 0 16 16">
<path d="m7.5,18c.828,0 1.5-.672 1.5-1.5s-.672-1.5-1.5-1.5c-.828,0-1.5,.672-1.5,1.5s.672,1.5 1.5,1.5zm0,12c-.828,0-1.5,.672-1.5,1.5s.672,1.5 1.5,1.5c.828,0 1.5-.672 1.5-1.5s-.672-1.5-1.5-1.5zm31.5-30h-30c-4.971,0-9,4.029-9,9v30c0,4.971 4.029,9 9,9h30c4.968,0 9-4.029 9-9v-30c0-4.971-4.032-9-9-9zm3,39c0,1.659-1.341,3-3,3h-30c-1.656,0-3-1.341-3-3v-3c-1.656,0-3-1.341-3-3v-3c0-1.656 1.344-3 3-3v-6c-1.656,0-3-1.341-3-3v-3c0-1.656 1.344-3 3-3v-3c0-1.656 1.344-3 3-3h30c1.659,0 3,1.344 3,3v30zm-6-30h-24c-1.656,0-3,1.344-3,3 1.656,0 3,1.344 3,3v3c0,1.659-1.344,3-3,3v6c1.656,0 3,1.344 3,3v3c0,1.659-1.344,3-3,3 0,1.659 1.344,3 3,3h24c1.659,0 3-1.341 3-3v-24c0-1.656-1.341-3-3-3zm-12,24c-4.971,0-9-4.029-9-9s4.029-9 9-9c4.968,0 9,4.029 9,9s-4.032,9-9,9zm0-15c-3.312,0-6,2.688-6,6s2.688,6 6,6 6-2.688 6-6-2.688-6-6-6z"/>
</svg>
