<svg width="48" fill="#000000" xmlns="http://www.w3.org/2000/svg" height="48" viewBox="0 0 48 48" xmlns:xlink="http://www.w3.org/1999/xlink" enable-background="new 0 0 16 16">
<path d="m24,12c3.312,0 6.312,1.344 8.484,3.516 2.175,2.172 3.516,5.172 3.516,8.484 0,3.936-1.923,7.401-4.851,9.585 1.146,1.512 1.851,3.375 1.851,5.415 0,4.968-4.032,9-9,9-4.971,0-9-4.032-9-9h6c0,1.659 1.344,3 3,3s3-1.341 3-3-1.344-3-3-3c-3.312,0-6.312-1.341-8.487-3.516-2.169-2.172-3.513-5.172-3.513-8.484 0-3.936 1.923-7.398 4.851-9.588-1.146-1.509-1.851-3.369-1.851-5.412 0-4.971 4.029-9 9-9 4.968,0 9,4.029 9,9h-6c0-1.656-1.344-3-3-3s-3,1.344-3,3 1.344,3 3,3zm-6,12c0,3.312 2.688,6 6,6s6-2.688 6-6-2.688-6-6-6-6,2.688-6,6z"/>
</svg>
