<svg width="48" fill="#000000" xmlns="http://www.w3.org/2000/svg" height="48" viewBox="0 0 48 48" xmlns:xlink="http://www.w3.org/1999/xlink" enable-background="new 0 0 16 16">
<path d="m24,0c-13.254,0-24,10.746-24,24s10.746,24 24,24 24-10.746 24-24-10.746-24-24-24zm15,27h-3.426c-.282,1.089-.714,2.112-1.272,3.063l2.427,2.424c1.17,1.173 1.17,3.072 0,4.245-1.173,1.17-3.072,1.17-4.245,0l-2.424-2.427c-.948,.555-1.971,.99-3.06,1.269v3.426c0,1.659-1.341,3-3,3s-3-1.341-3-3v-3.426c-1.089-.282-2.112-.714-3.063-1.272l-2.424,2.427c-1.173,1.17-3.072,1.17-4.242,0-1.173-1.173-1.173-3.072 0-4.245l2.424-2.424c-.555-.948-.99-1.971-1.269-3.06h-3.426c-1.659,0-3-1.341-3-3s1.341-3 3-3h3.426c.279-1.089 .714-2.112 1.269-3.063l-2.421-2.421c-1.173-1.173-1.173-3.072 0-4.242 1.17-1.173 3.069-1.173 4.242,0l2.424,2.424c.948-.558 1.971-.993 3.06-1.272v-3.426c0-1.659 1.341-3 3-3s3,1.341 3,3v3.426c1.089,.282 2.112,.714 3.063,1.272l2.424-2.424c1.173-1.173 3.072-1.173 4.245,0 1.17,1.17 1.17,3.069 0,4.242l-2.427,2.424c.555,.948 .99,1.971 1.269,3.06h3.426c1.659,0 3,1.341 3,3s-1.341,3-3,3zm-15-9c-3.312,0-6,2.688-6,6s2.688,6 6,6 6-2.688 6-6-2.688-6-6-6z"/>
</svg>
