<svg width="48" fill="#000000" xmlns="http://www.w3.org/2000/svg" height="48" viewBox="0 0 48 48" xmlns:xlink="http://www.w3.org/1999/xlink" enable-background="new 0 0 16 16">
<path d="m45,33c1.659,0 3,1.341 3,3s-1.341,3-3,3h-.552c-.105,.294-.216,.579-.348,.858l.384,.384c1.173,1.173 1.173,3.069 0,4.242s-3.069,1.173-4.242,0l-.384-.384c-.279,.132-.564,.243-.858,.348v.552c0,1.659-1.341,3-3,3s-3-1.341-3-3v-.552c-.294-.105-.579-.216-.858-.348l-.384,.384c-1.173,1.173-3.069,1.173-4.242,0s-1.173-3.069 0-4.242l.384-.384c-.132-.279-.243-.564-.348-.858h-.552c-1.659,0-3-1.341-3-3s1.341-3 3-3h.552c.105-.294 .216-.579 .348-.858l-.384-.384c-1.173-1.173-1.173-3.069 0-4.242s3.069-1.173 4.242,0l.384,.384c.279-.132 .564-.243 .858-.348v-.552c0-1.656 1.341-3 3-3s3,1.344 3,3v.552c.294,.105 .579,.216 .858,.348l.384-.384c1.173-1.173 3.069-1.173 4.242,0s1.173,3.069 0,4.242l-.384,.384c.132,.279 .243,.564 .348,.858h.552zm-9-3c-3.312,0-6,2.688-6,6s2.688,6 6,6 6-2.688 6-6-2.688-6-6-6zm-9-12h-.426c-.279,1.092-.714,2.115-1.272,3.06l.306,.303c1.173,1.173 1.173,3.072 0,4.242-1.173,1.173-3.069,1.173-4.242,0l-.306-.303c-.945,.558-1.968,.993-3.06,1.272v.426c0,1.659-1.344,3-3,3s-3-1.341-3-3v-.426c-1.092-.279-2.115-.714-3.06-1.272l-.303,.303c-1.173,1.173-3.072,1.173-4.245,0-1.173-1.17-1.173-3.069 0-4.242l.306-.303c-.561-.945-.99-1.968-1.272-3.06h-.426c-1.656,0-3-1.344-3-3s1.344-3 3-3h.426c.282-1.092 .714-2.115 1.272-3.06l-.306-.303c-1.173-1.173-1.173-3.072 0-4.245s3.072-1.173 4.245,0l.303,.306c.945-.561 1.968-.99 3.06-1.272v-.426c0-1.656 1.344-3 3-3s3,1.344 3,3v.426c1.092,.282 2.115,.714 3.06,1.272l.303-.306c1.173-1.173 3.069-1.173 4.242,0s1.173,3.072 0,4.245l-.303,.303c.558,.945 .993,1.968 1.272,3.06h.426c1.659,0 3,1.344 3,3s-1.341,3-3,3zm-12-9c-3.312,0-6,2.688-6,6s2.688,6 6,6 6-2.688 6-6-2.688-6-6-6z"/>
</svg>
