<svg width="48" fill="#000000" xmlns="http://www.w3.org/2000/svg" height="48" viewBox="0 0 48 48" xmlns:xlink="http://www.w3.org/1999/xlink" enable-background="new 0 0 16 16">
<path d="m45,36h-3v-3c0-3.312-2.688-6-6-6h-24c-3.312,0-6,2.688-6,6v3h-3c-1.656,0-3-1.341-3-3v-18c0-1.656 1.344-3 3-3h6v-12h30v12h6c1.659,0 3,1.344 3,3v18c0,1.659-1.341,3-3,3zm-9-33h-24v9h24v-9zm0,15h-3v3h3v-3zm6,0h-3v3h3v-3zm-33,30v-12l0,0v-3c0-1.659 1.344-3 3-3h24c1.659,0 3,1.341 3,3v3h-3v6h-3v-6h-3v12h-3v-12h-3v9h-3v-9h-3v6h-3v-6h-3v12h-3z"/>
</svg>
