<svg width="48" fill="#000000" xmlns="http://www.w3.org/2000/svg" height="48" viewBox="0 0 48 48" xmlns:xlink="http://www.w3.org/1999/xlink" enable-background="new 0 0 16 16">
<path d="m3,15c-1.656,0-3-1.344-3-3 0-1.656 1.344-3 3-3h3c3.84,0 7.308,1.488 9.96,3.864-1.302,1.635-2.307,3.492-2.976,5.523-1.65-2.049-4.149-3.387-6.984-3.387h-3Zm27,0c-4.971,0-9,4.029-9,9 0,8.286-6.717,15-15,15h-3c-1.656,0-3-1.341-3-3 0-1.659 1.344-3 3-3h3c4.971,0 9-4.029 9-9 0-8.283 6.717-15 15-15h6v-3.003c0-1.212 .732-2.31 1.851-2.772 1.122-.462 2.412-.204 3.27,.651l6,6c.585,.585 .879,1.353 .879,2.121 0,.768-.294,1.536-.879,2.121l-6,6c-.858,.858-2.148,1.113-3.27,.651-1.119-.462-1.851-1.56-1.851-2.772v-2.997h-6Zm11.121,12.876l6,6c.585,.585 .879,1.353 .879,2.121 0,.768-.294,1.536-.879,2.121l-6,6c-.858,.858-2.148,1.113-3.27,.651-1.119-.462-1.851-1.56-1.851-2.772v-2.997h-6c-3.84,0-7.308-1.485-9.963-3.861 1.302-1.638 2.307-3.492 2.979-5.526 1.65,2.052 4.149,3.387 6.984,3.387h6v-3.003c0-1.212 .732-2.31 1.851-2.772 1.122-.462 2.412-.204 3.27,.651Z"/>
</svg>
