<svg width="48" fill="#000000" xmlns="http://www.w3.org/2000/svg" height="48" viewBox="0 0 48 48" xmlns:xlink="http://www.w3.org/1999/xlink" enable-background="new 0 0 16 16">
<path d="m24,48c-13.254,0-24-10.746-24-24s10.746-24 24-24 24,10.746 24,24-10.746,24-24,24zm0-42c-9.939,0-18,8.061-18,18s8.061,18 18,18 18-8.061 18-18-8.061-18-18-18zm0,24c-1.659,0-3-1.341-3-3 0,0-3-8.688-3-12s2.688-6 6-6 6,2.688 6,6l-3,12c0,1.659-1.341,3-3,3zm0,3c1.659,0 3,1.344 3,3 0,1.659-1.341,3-3,3s-3-1.341-3-3c0-1.656 1.341-3 3-3z"/>
</svg>
