<svg width="48" fill="#000000" xmlns="http://www.w3.org/2000/svg" height="48" viewBox="0 0 48 48" xmlns:xlink="http://www.w3.org/1999/xlink" enable-background="new 0 0 16 16">
<path d="m6,32.448v-17.448c0-4.971 4.029-9 9-9h23.448c-1.239-3.489-4.533-6-8.448-6h-21c-4.971,0-9,4.029-9,9v15c0,3.915 2.514,7.209 6,8.448zm3-14.448v12c0,4.968 4.029,9 9,9h9l6,9 6-9c4.971,0 9-4.032 9-9v-12c0-4.971-4.029-9-9-9h-21c-4.971,0-9,4.029-9,9zm33,0v12c0,1.659-1.341,3-3,3h-2.001l-3.999,6-3.999-6h-11.001c-1.659,0-3-1.341-3-3v-12c0-1.656 1.341-3 3-3h21c1.659,0 3,1.344 3,3z"/>
</svg>
