<svg width="48" fill="#000000" xmlns="http://www.w3.org/2000/svg" height="48" viewBox="0 0 48 48" xmlns:xlink="http://www.w3.org/1999/xlink" enable-background="new 0 0 16 16">
<path d="m45,27h-6c-1.659,0-3-1.341-3-3 0-1.656 1.341-3 3-3h6c1.659,0 3,1.344 3,3 0,1.659-1.341,3-3,3zm-8.274-11.484c-1.173,1.173-3.069,1.173-4.242,0s-1.173-3.069 0-4.242l4.242-4.245c1.173-1.17 3.069-1.17 4.242,0 1.173,1.173 1.173,3.072 0,4.245l-4.242,4.242zm-12.726,32.484c-1.656,0-3-1.341-3-3v-6c0-1.656 1.344-3 3-3 1.659,0 3,1.344 3,3v6c0,1.659-1.341,3-3,3zm0-36c-1.656,0-3-1.341-3-3v-6c0-1.656 1.344-3 3-3 1.659,0 3,1.344 3,3v6c0,1.659-1.341,3-3,3zm-12.729,28.971c-1.173,1.173-3.069,1.173-4.242,0s-1.173-3.072 0-4.242l4.242-4.245c1.173-1.17 3.072-1.17 4.242,0 1.173,1.173 1.173,3.072 0,4.245l-4.242,4.242zm0-25.455l-4.242-4.242c-1.173-1.173-1.173-3.072 0-4.245 1.173-1.17 3.069-1.17 4.242,0l4.242,4.245c1.173,1.173 1.173,3.069 0,4.242-1.17,1.17-3.069,1.17-4.242,0zm.729,8.484c0,1.659-1.344,3-3,3h-6c-1.656,0-3-1.341-3-3 0-1.656 1.344-3 3-3h6c1.656,0 3,1.344 3,3zm24.726,8.484l4.242,4.245c1.173,1.17 1.173,3.069 0,4.242s-3.069,1.173-4.242,0l-4.242-4.242c-1.173-1.173-1.173-3.072 0-4.245 1.173-1.17 3.072-1.17 4.242,0z"/>
</svg>
