<svg width="48" fill="#000000" xmlns="http://www.w3.org/2000/svg" height="48" viewBox="0 0 48 48" xmlns:xlink="http://www.w3.org/1999/xlink" enable-background="new 0 0 16 16">
<path d="m15,36c1.212,0 2.31,.732 2.772,1.851 .462,1.122 .207,2.412-.651,3.27l-6,6c-.585,.585-1.353,.879-2.121,.879-.768,0-1.536-.294-2.121-.879l-6-6c-.855-.858-1.113-2.148-.651-3.27 .462-1.119 1.56-1.851 2.772-1.851h3v-6c0-4.971 3.975-9 8.943-9h18c1.659,0 3.057-1.344 3.057-3v-15c0-1.656 1.341-3 3-3 1.659,0 3,1.344 3,3v15c0,4.971-4.083,9-9.057,9h-18c-1.656,0-2.943,1.344-2.943,3v6h3Zm32.772,1.851c.462,1.122 .207,2.412-.651,3.27l-6,6c-.585,.585-1.353,.879-2.121,.879-.768,0-1.536-.294-2.121-.879l-6-6c-.855-.858-1.113-2.148-.651-3.27 .462-1.119 1.56-1.851 2.772-1.851h3v-6.426c3-.612 3-1.923 6-3.714v10.14h3c1.212,0 2.31,.732 2.772,1.851Z"/>
</svg>
