<svg width="48" fill="#000000" xmlns="http://www.w3.org/2000/svg" height="48" viewBox="0 0 48 48" xmlns:xlink="http://www.w3.org/1999/xlink" enable-background="new 0 0 16 16">
<path d="m24,48c-13.254,0-24-10.746-24-24s10.746-24 24-24 24,10.746 24,24-10.746,24-24,24zm0-42c-9.939,0-18,8.061-18,18 0,9.942 8.061,18 18,18s18-8.058 18-18c0-9.939-8.061-18-18-18zm12.99,25.5c-.825,1.437-2.664,1.929-4.098,1.098-1.434-.828-1.926-2.664-1.098-4.098 .828-1.437 2.667-1.926 4.098-1.098 1.434,.828 1.926,2.661 1.098,4.098zm-12.99-1.5c-3.312,0-6-2.688-6-6s2.688-6 6-6 6,2.688 6,6-2.688,6-6,6zm0-9c-1.656,0-3,1.344-3,3s1.344,3 3,3 3-1.344 3-3-1.344-3-3-3zm0-6c-1.656,0-3-1.344-3-3s1.344-3 3-3 3,1.344 3,3-1.344,3-3,3zm-8.892,17.598c-1.437,.828-3.27,.336-4.098-1.098s-.336-3.27 1.098-4.098c1.434-.828 3.27-.339 4.098,1.098 .828,1.437 .336,3.27-1.098,4.098z"/>
</svg>
