<svg width="48" fill="#000000" xmlns="http://www.w3.org/2000/svg" height="48" viewBox="0 0 48 48" xmlns:xlink="http://www.w3.org/1999/xlink" enable-background="new 0 0 16 16">
<path d="m48,39v6c0,1.659-1.341,3-3,3h-6c0-1.656-1.341-3-3-3s-3,1.344-3,3h-6c0-1.656-1.341-3-3-3s-3,1.344-3,3h-6c0-1.656-1.341-3-3-3s-3,1.344-3,3h-6c-1.659,0-3-1.341-3-3v-6c1.659,0 3-1.341 3-3 0-1.656-1.341-3-3-3v-6c1.659,0 3-1.341 3-3 0-1.656-1.341-3-3-3v-6c1.659,0 3-1.341 3-3 0-1.656-1.341-3-3-3v-6c0-1.656 1.341-3 3-3h6c0,1.659 1.341,3 3,3s3-1.341 3-3h6c0,1.659 1.341,3 3,3s3-1.341 3-3h6c0,1.659 1.341,3 3,3s3-1.341 3-3h6c1.659,0 3,1.344 3,3v6c-1.659,0-3,1.344-3,3 0,1.659 1.341,3 3,3v6c-1.659,0-3,1.344-3,3 0,1.659 1.341,3 3,3v6c-1.659,0-3,1.344-3,3 0,1.659 1.341,3 3,3zm-6-33h-36v36h36v-36zm-3,33h-30v-30h30v30zm-3-27h-24v24h24v-24z"/>
</svg>
