<svg width="48" fill="#000000" xmlns="http://www.w3.org/2000/svg" height="48" viewBox="0 0 48 48" xmlns:xlink="http://www.w3.org/1999/xlink" enable-background="new 0 0 16 16">
<path d="m39,9h-30v30h30v-30zm-27,3h9v3h-9v-3zm0,9h15v3h-15v-3zm12,15h-12v-3h12v3zm9-6h-21v-3h21v3zm3-15h-3v-3h3v3zm12-6v-6c0-1.656-1.341-3-3-3h-6c0,1.659-1.341,3-3,3s-3-1.341-3-3h-6c0,1.659-1.341,3-3,3s-3-1.341-3-3h-6c0,1.659-1.341,3-3,3s-3-1.341-3-3h-6c-1.659,0-3,1.344-3,3v6c1.659,0 3,1.344 3,3 0,1.659-1.341,3-3,3v6c1.659,0 3,1.344 3,3 0,1.659-1.341,3-3,3v6c1.659,0 3,1.344 3,3 0,1.659-1.341,3-3,3v6c0,1.659 1.341,3 3,3h6c0-1.656 1.341-3 3-3s3,1.344 3,3h6c0-1.656 1.341-3 3-3s3,1.344 3,3h6c0-1.656 1.341-3 3-3s3,1.344 3,3h6c1.659,0 3-1.341 3-3v-6c-1.659,0-3-1.341-3-3 0-1.656 1.341-3 3-3v-6c-1.659,0-3-1.341-3-3 0-1.656 1.341-3 3-3v-6c-1.659,0-3-1.341-3-3 0-1.656 1.341-3 3-3zm-6,33h-36v-36h36v36z"/>
</svg>
