<svg width="48" fill="#000000" xmlns="http://www.w3.org/2000/svg" height="48" viewBox="0 0 48 48" xmlns:xlink="http://www.w3.org/1999/xlink" enable-background="new 0 0 16 16">
<path d="m36,30h-24c-1.659,0-3,1.341-3,3v12c0,1.659 1.341,3 3,3h24c1.659,0 3-1.341 3-3v-12c0-1.659-1.341-3-3-3zm6-29.448v17.448c0,1.656-1.341,3-3,3h-30c-1.659,0-3-1.344-3-3v-17.448c-3.486,1.239-6,4.536-6,8.448v30c0,3.915 2.514,7.209 6,8.448v-17.448c0-1.659 1.341-3 3-3h30c1.659,0 3,1.341 3,3v17.448c3.486-1.239 6-4.536 6-8.448v-30c0-3.912-2.514-7.209-6-8.448zm-24,17.448h18c1.659,0 3-1.344 3-3v-12c0-1.656-1.341-3-3-3h-18c-1.659,0-3,1.344-3,3v12c0,1.656 1.341,3 3,3zm12-12c0-1.656 1.341-3 3-3s3,1.344 3,3v6c0,1.656-1.341,3-3,3s-3-1.344-3-3v-6z"/>
</svg>
