<svg width="48" fill="#000000" xmlns="http://www.w3.org/2000/svg" height="48" viewBox="0 0 48 48" xmlns:xlink="http://www.w3.org/1999/xlink" enable-background="new 0 0 16 16">
<path d="m42,30c0,9.939-8.061,18-18,18s-18-8.061-18-18 8.061-18 18-18 18,8.061 18,18zm-18-12c-6.627,0-12,5.373-12,12s5.373,12 12,12 12-5.373 12-12-5.373-12-12-12zm0,15c-1.656,0-3-1.341-3-3s3-9 3-9 3,7.341 3,9-1.341,3-3,3zm-6-27c0-3.312 2.688-6 6-6s6,2.688 6,6-2.688,6-6,6-6-2.688-6-6zm6,3c1.659,0 3-1.341 3-3s-1.341-3-3-3c-1.656,0-3,1.341-3,3s1.344,3 3,3z"/>
</svg>
