<svg width="48" fill="#000000" xmlns="http://www.w3.org/2000/svg" height="48" viewBox="0 0 48 48" xmlns:xlink="http://www.w3.org/1999/xlink" enable-background="new 0 0 16 16">
<path d="m42.411,14.097c1.146,2.121 1.956,4.44 2.337,6.903h-9.174c-1.086-4.2-4.374-7.488-8.574-8.574v-9.174c2.475,.381 4.806,1.2 6.936,2.352l3.846-3.846c2.343-2.343 6.141-2.343 8.484,0s2.343,6.141 0,8.484l-3.855,3.855zm1.734-10.218c-1.173-1.173-3.069-1.173-4.242,0l-3.363,3.366c1.608,1.206 3.033,2.631 4.239,4.242l3.366-3.366c1.17-1.173 1.17-3.069 0-4.242zm-23.145,8.547c-4.2,1.086-7.488,4.374-8.574,8.574h-9.174c.381-2.463 1.191-4.782 2.337-6.903l-3.855-3.855c-2.343-2.343-2.343-6.141 0-8.484s6.141-2.343 8.484,0l3.846,3.846c2.13-1.152 4.461-1.971 6.936-2.352v9.174zm-12.903-8.547c-1.173-1.173-3.069-1.173-4.242,0s-1.173,3.069 0,4.242l3.366,3.366c1.206-1.611 2.628-3.036 4.239-4.242l-3.363-3.366zm-2.508,30.024c-1.146-2.121-1.956-4.44-2.337-6.903h9.174c1.086,4.2 4.374,7.488 8.574,8.574v9.177c-2.475-.384-4.806-1.203-6.936-2.355l-3.846,3.846c-2.343,2.343-6.141,2.343-8.484,0s-2.343-6.141 0-8.484l3.855-3.855zm-1.734,10.218c1.173,1.173 3.069,1.173 4.242,0l3.363-3.363c-1.611-1.209-3.036-2.634-4.239-4.245l-3.366,3.366c-1.17,1.173-1.17,3.069 0,4.242zm23.145-8.547c4.2-1.086 7.488-4.374 8.574-8.574h9.174c-.381,2.463-1.191,4.782-2.337,6.903l3.855,3.855c2.343,2.343 2.343,6.141 0,8.484s-6.141,2.343-8.484,0l-3.846-3.846c-2.13,1.152-4.458,1.971-6.936,2.355l0-9.177zm12.903,8.547c1.173,1.173 3.069,1.173 4.242,0s1.173-3.069 0-4.242l-3.366-3.366c-1.206,1.611-2.631,3.036-4.239,4.245l3.363,3.363z"/>
</svg>
