<svg width="48" fill="#000000" xmlns="http://www.w3.org/2000/svg" height="48" viewBox="0 0 48 48" xmlns:xlink="http://www.w3.org/1999/xlink" enable-background="new 0 0 16 16">
<path d="m42.411,14.097c.666,1.233 1.194,2.547 1.623,3.903h-6.312c-1.518-3.444-4.272-6.222-7.722-7.734v-6.3c1.368,.432 2.688,.966 3.936,1.638l3.846-3.846c2.343-2.343 6.141-2.343 8.484,0 2.343,2.343 2.343,6.141 0,8.484l-3.855,3.855zm1.734-10.218c-1.173-1.173-3.069-1.173-4.242,0l-3.363,3.366c1.608,1.209 3.033,2.631 4.239,4.245l3.366-3.369c1.17-1.173 1.17-3.069 0-4.242zm-23.145,5.424v-6.054c.978-.15 1.977-.249 3-.249s2.022,.099 3,.249v6.051c-.969-.195-1.971-.3-3-.3-1.026,0-2.031,.105-3,.303zm-10.782,36.939c-2.343,2.343-6.141,2.343-8.487,0-2.343-2.343-2.343-6.141 0-8.484l3.855-3.855c-.663-1.233-1.191-2.547-1.62-3.903h6.3c1.512,3.45 4.29,6.204 7.734,7.719v6.312c-1.368-.432-2.691-.963-3.933-1.638l-3.849,3.849zm-2.997-9.729l-3.369,3.366c-1.17,1.173-1.17,3.069 0,4.242 1.173,1.173 3.072,1.173 4.245,0l3.366-3.363c-1.611-1.209-3.036-2.634-4.242-4.245zm-3.972-9.513c-.15-.978-.249-1.977-.249-3s.099-2.022 .249-3h6.087c-.198,.972-.336,1.968-.336,3 0,1.029 .105,2.031 .303,3h-6.054zm7.032-9h-6.315c.429-1.356 .957-2.67 1.623-3.903l-3.855-3.855c-2.343-2.343-2.343-6.141 0-8.484 2.343-2.343 6.141-2.343 8.487,0l3.849,3.846c1.239-.672 2.562-1.206 3.93-1.638v6.3c-3.45,1.512-6.204,4.29-7.719,7.734zm-2.184-14.121c-1.173-1.173-3.072-1.173-4.245,0-1.17,1.173-1.17,3.069 0,4.242l3.369,3.369c1.206-1.614 2.628-3.036 4.242-4.245l-3.366-3.366zm18.903,34.782v6.09c-.978,.15-1.977,.249-3,.249s-2.022-.099-3-.249v-6.09c.972,.198 1.968,.339 3,.339s2.028-.141 3-.339zm17.748-17.661c.153,.978 .252,1.977 .252,3s-.099,2.022-.252,3h-6.051c.198-.969 .303-1.971 .303-3 0-1.032-.141-2.028-.339-3h6.087zm-14.748,16.719c3.444-1.515 6.222-4.269 7.734-7.719h6.3c-.429,1.356-.954,2.67-1.623,3.903l3.855,3.855c2.343,2.343 2.343,6.141 0,8.484s-6.141,2.343-8.484,0l-3.846-3.846c-1.245,.675-2.565,1.206-3.936,1.638l0-6.315zm9.903,6.402c1.173,1.173 3.069,1.173 4.242,0s1.173-3.069 0-4.242l-3.366-3.366c-1.206,1.611-2.631,3.036-4.239,4.245l3.363,3.363z"/>
</svg>
