<svg width="48" fill="#000000" xmlns="http://www.w3.org/2000/svg" height="48" viewBox="0 0 48 48" xmlns:xlink="http://www.w3.org/1999/xlink" enable-background="new 0 0 16 16">
<path d="m48,24c0,1.014-.081,2.01-.204,2.991-.03,.24-.072,.477-.111,.714-.129,.822-.294,1.635-.504,2.43-.039,.141-.069,.285-.108,.423-.57,1.986-1.383,3.873-2.415,5.616-2.064,3.498-4.986,6.42-8.484,8.484-1.743,1.032-3.63,1.842-5.616,2.415-.138,.039-.282,.069-.423,.108-.795,.21-1.605,.375-2.43,.504-.237,.039-.474,.081-.714,.111-.981,.123-1.977,.204-2.991,.204l0,0c-1.014,0-2.01-.081-2.991-.204-.243-.03-.477-.072-.717-.111-.822-.129-1.635-.294-2.43-.504-.138-.039-.282-.069-.42-.108-1.989-.57-3.873-1.383-5.616-2.415-3.498-2.064-6.42-4.986-8.487-8.484-1.029-1.743-1.842-3.63-2.412-5.616-.039-.138-.072-.282-.108-.423-.21-.795-.375-1.605-.504-2.43-.036-.237-.078-.474-.111-.714-.123-.981-.204-1.977-.204-2.991l0,0c0-1.014 .081-2.01 .204-2.991 .03-.243 .072-.477 .111-.717 .129-.822 .294-1.635 .507-2.43 .036-.138 .069-.282 .108-.42 .57-1.986 1.383-3.873 2.412-5.616 2.067-3.498 4.989-6.42 8.487-8.487 1.74-1.026 3.627-1.839 5.613-2.409 .138-.039 .282-.072 .42-.108 .795-.213 1.608-.375 2.43-.507 .24-.036 .474-.078 .717-.111 .981-.123 1.977-.204 2.991-.204l0,0c1.014,0 2.01,.081 2.991,.204 .24,.03 .477,.072 .714,.111 .822,.129 1.635,.294 2.43,.507 .141,.036 .285,.069 .423,.108 1.986,.57 3.873,1.383 5.616,2.412 3.498,2.067 6.42,4.989 8.484,8.487 1.032,1.743 1.842,3.627 2.415,5.616 .039,.138 .069,.282 .108,.42 .21,.795 .375,1.608 .504,2.43 .039,.24 .081,.474 .111,.717 .123,.978 .204,1.974 .204,2.988l0,0zm-37.941-5.454l-4.461-4.464c-1.602,2.967-2.598,6.309-2.598,9.918 0,3.609 .996,6.951 2.598,9.918l4.461-4.461c-.663-1.695-1.059-3.525-1.059-5.457 0-1.929 .396-3.759 1.059-5.454zm13.941,26.454c3.609,0 6.951-.993 9.918-2.595l-4.461-4.464c-1.695,.663-3.525,1.059-5.457,1.059-1.929,0-3.759-.396-5.454-1.062l-4.464,4.464c2.967,1.605 6.309,2.598 9.918,2.598zm0-42c-3.609,0-6.951,.996-9.918,2.598l4.464,4.461c1.695-.663 3.525-1.059 5.454-1.059 1.932,0 3.762,.396 5.454,1.059l4.461-4.461c-2.964-1.602-6.306-2.598-9.915-2.598zm11.556,17.931c-1.101-4.146-4.338-7.383-8.484-8.487l0,0c-.399-.105-.801-.192-1.215-.258-.606-.108-1.218-.186-1.857-.186s-1.251,.078-1.86,.186c-.411,.066-.813,.153-1.209,.258l0,0c-4.146,1.104-7.383,4.341-8.487,8.487l0,0c-.105,.396-.192,.798-.258,1.209-.108,.609-.186,1.221-.186,1.86s.078,1.251 .186,1.857c.063,.414 .153,.813 .258,1.212l0,0c1.101,4.146 4.341,7.383 8.487,8.484l0,0c.396,.105 .798,.192 1.209,.258 .609,.111 1.221,.189 1.86,.189s1.251-.078 1.857-.186c.414-.063 .813-.153 1.212-.258l0,0c4.146-1.101 7.383-4.338 8.484-8.484l0,0c.105-.399 .192-.801 .258-1.212 .111-.609 .189-1.221 .189-1.86s-.078-1.251-.186-1.86c-.066-.411-.153-.813-.258-1.209zm6.849-6.849l-4.464,4.464c.663,1.695 1.059,3.525 1.059,5.454 0,1.932-.396,3.762-1.062,5.454l4.464,4.461c1.605-2.964 2.598-6.306 2.598-9.915 0-3.609-.993-6.951-2.595-9.918z"/>
</svg>
