<svg width="48" fill="#000000" xmlns="http://www.w3.org/2000/svg" height="48" viewBox="0 0 48 48" xmlns:xlink="http://www.w3.org/1999/xlink" enable-background="new 0 0 16 16">
<path d="m39,48h-21c-4.971,0-9-4.029-9-9v-21c0-4.971 4.029-9 9-9h21c4.971,0 9,4.029 9,9v21c0,4.971-4.029,9-9,9zm3-30c0-1.656-1.341-3-3-3h-21c-1.659,0-3,1.344-3,3v21c0,1.659 1.341,3 3,3h12v-9c0-1.659 1.341-3 3-3h9v-12zm-6,18l3,6 3-6h-6zm-30-21v23.448c-3.486-1.239-6-4.533-6-8.448v-21c0-4.971 4.029-9 9-9h21c3.915,0 7.209,2.514 8.448,6h-23.448c-4.971,0-9,4.029-9,9z"/>
</svg>
