<svg width="48" fill="#000000" xmlns="http://www.w3.org/2000/svg" height="48" viewBox="0 0 48 48" xmlns:xlink="http://www.w3.org/1999/xlink" enable-background="new 0 0 16 16">
<path d="m45.363,36.363l-9,9c-3.516,3.516-9.21,3.516-12.726,0l-15-15c-1.758-1.758-2.637-4.059-2.637-6.363v-18h9c0-1.659-1.341-3-3-3h-6c-1.659,0-3,1.341-3,3v4.5c0,.828-.672,1.5-1.5,1.5s-1.5-.672-1.5-1.5v-4.5c0-3.312 2.688-6 6-6h6c3.312,0 6,2.688 6,6v10.5c0,.828-.672,1.5-1.5,1.5s-1.5-.672-1.5-1.5v-4.197c-1.74,.624-3,2.244-3,4.197 0,2.484 2.016,4.5 4.5,4.5s4.5-2.016 4.5-4.5v-10.5h3c2.304,0 4.605,.879 6.363,2.637l15,15c3.516,3.516 3.516,9.21 0,12.726z"/>
</svg>
