<svg width="48" fill="#000000" xmlns="http://www.w3.org/2000/svg" height="48" viewBox="0 0 48 48" xmlns:xlink="http://www.w3.org/1999/xlink" enable-background="new 0 0 16 16">
<path d="m45.363,36.363l-9,9c-3.516,3.516-9.21,3.516-12.726,0l-15-15c-1.758-1.758-2.637-4.059-2.637-6.363v-18h9c0-1.656-1.344-3-3-3h-6c-1.656,0-3,1.344-3,3v4.5c0,.828-.672,1.5-1.5,1.5s-1.5-.672-1.5-1.5v-4.5c0-3.312 2.688-6 6-6h6c3.312,0 6,2.688 6,6h6c2.304,0 4.605,.879 6.363,2.637l15,15c3.516,3.516 3.516,9.21 0,12.726zm-27.363-24.06v4.197c0,.828-.672,1.5-1.5,1.5s-1.5-.672-1.5-1.5v-4.197c-1.74,.624-3,2.244-3,4.197 0,2.487 2.013,4.5 4.5,4.5s4.5-2.013 4.5-4.5c0-1.953-1.26-3.573-3-4.197zm23.121,15.576l-15-15c-.585-.585-1.353-.879-2.121-.879h-1.533c.948,1.257 1.533,2.805 1.533,4.5 0,4.143-3.357,7.5-7.5,7.5-1.695,0-3.243-.585-4.5-1.533v1.533c0,.768 .294,1.536 .879,2.121l15,15c1.173,1.173 3.069,1.173 4.242,0l9-9c1.173-1.173 1.173-3.069 0-4.242z"/>
</svg>
