<svg width="48" fill="#000000" xmlns="http://www.w3.org/2000/svg" height="48" viewBox="0 0 48 48" xmlns:xlink="http://www.w3.org/1999/xlink" enable-background="new 0 0 16 16">
<path d="m45.363,23.637l-21-21c-1.758-1.758-4.059-2.637-6.363-2.637h-18v18c0,2.304 .879,4.605 2.637,6.363l21,21c3.516,3.516 9.21,3.516 12.726,0l9-9c3.516-3.516 3.516-9.21 0-12.726zm-4.242,8.484l-9,9c-1.173,1.173-3.069,1.173-4.242,0l-21-21c-.585-.585-.879-1.353-.879-2.121v-12h12c.768,0 1.536,.294 2.121,.879l21,21c1.173,1.173 1.173,3.069 0,4.242zm-29.121-23.121c-1.659,0-3,1.341-3,3s1.341,3 3,3 3-1.341 3-3-1.341-3-3-3z"/>
</svg>
