<svg width="48" fill="#000000" xmlns="http://www.w3.org/2000/svg" height="48" viewBox="0 0 48 48" xmlns:xlink="http://www.w3.org/1999/xlink" enable-background="new 0 0 16 16">
<path d="m39,48h-30c-4.971,0-9-4.029-9-9v-30c0-4.971 4.029-9 9-9h30c4.968,0 9,4.029 9,9v30c0,4.971-4.032,9-9,9zm3-39c0-1.656-1.341-3-3-3h-30c-1.656,0-3,1.344-3,3v6h36v-6zm0,9h-36v21c0,1.659 1.344,3 3,3h30c1.659,0 3-1.341 3-3v-21zm-27,12h6v3h-6v-3zm-6,0v-3h3v3h-3zm3-6h3v3h-3v-3zm-3-3h3v3h-3v-3zm3-9h-3v-3h3v3zm6,0h-3v-3h3v3zm21,0h-18v-3h18v3z"/>
</svg>
