<svg width="48" fill="#000000" xmlns="http://www.w3.org/2000/svg" height="48" viewBox="0 0 48 48" xmlns:xlink="http://www.w3.org/1999/xlink" enable-background="new 0 0 16 16">
<path d="m39,48h-30c-4.971,0-9-4.029-9-9v-30c0-4.971 4.029-9 9-9h30c4.968,0 9,4.029 9,9v30c0,4.971-4.032,9-9,9zm3-39c0-1.659-1.341-3-3-3h-30c-1.656,0-3,1.341-3,3v30c0,1.659 1.344,3 3,3h30c1.659,0 3-1.341 3-3v-30zm-7.5,27c-1.95,0-3.573-1.26-4.194-3h-6.612c-.621,1.74-2.244,3-4.194,3-2.487,0-4.5-2.016-4.5-4.5s2.013-4.5 4.5-4.5c1.95,0 3.573,1.26 4.194,3h6.609c.621-1.74 2.244-3 4.194-3 2.484,0 4.5,2.016 4.5,4.5s-2.013,4.5-4.497,4.5zm0-6c-.825,0-1.5,.672-1.5,1.5s.675,1.5 1.5,1.5 1.5-.672 1.5-1.5-.675-1.5-1.5-1.5zm-6-9c-1.95,0-3.573-1.26-4.194-3h-6.609c-.624,1.74-2.244,3-4.197,3-2.487,0-4.5-2.016-4.5-4.5s2.013-4.5 4.5-4.5c1.953,0 3.573,1.26 4.197,3h6.609c.621-1.74 2.244-3 4.194-3 2.484,0 4.5,2.016 4.5,4.5s-2.016,4.5-4.5,4.5zm-15-6c-.828,0-1.5,.672-1.5,1.5s.672,1.5 1.5,1.5c.828,0 1.5-.672 1.5-1.5s-.672-1.5-1.5-1.5z"/>
</svg>
