<svg width="48" fill="#000000" xmlns="http://www.w3.org/2000/svg" height="48" viewBox="0 0 48 48" xmlns:xlink="http://www.w3.org/1999/xlink" enable-background="new 0 0 16 16">
<path d="m39,0h-30c-4.971,0-9,4.029-9,9v30c0,4.968 4.029,9 9,9h30c4.968,0 9-4.032 9-9v-30c0-4.971-4.032-9-9-9zm-31.5,6c.828,0 1.5,.672 1.5,1.5 0,.828-.672,1.5-1.5,1.5-.828,0-1.5-.672-1.5-1.5 0-.828 .672-1.5 1.5-1.5zm0,36c-.828,0-1.5-.672-1.5-1.5 0-.825 .672-1.5 1.5-1.5 .828,0 1.5,.675 1.5,1.5 0,.828-.672,1.5-1.5,1.5zm33,0c-.825,0-1.5-.672-1.5-1.5 0-.825 .675-1.5 1.5-1.5s1.5,.675 1.5,1.5c0,.828-.675,1.5-1.5,1.5zm-7.5-9h-18c-4.971,0-9-4.032-9-9 0-4.971 4.029-9 9-9h18c4.968,0 9,4.029 9,9 0,4.968-4.032,9-9,9zm7.5-24c-.825,0-1.5-.672-1.5-1.5 0-.828 .675-1.5 1.5-1.5s1.5,.672 1.5,1.5c0,.828-.675,1.5-1.5,1.5zm-7.5,9c-3.312,0-6,2.688-6,6s2.688,6 6,6 6-2.688 6-6-2.688-6-6-6z"/>
</svg>
