<svg width="48" fill="#000000" xmlns="http://www.w3.org/2000/svg" height="48" viewBox="0 0 48 48" xmlns:xlink="http://www.w3.org/1999/xlink" enable-background="new 0 0 16 16">
<path d="m6.879,20.118l-6-6c-.585-.585-.879-1.353-.879-2.121 0-.768 .294-1.536 .879-2.121l6-6c.858-.855 2.148-1.113 3.27-.651 1.119,.462 1.851,1.56 1.851,2.772v3.003h3v6h-3v2.997c0,1.212-.732,2.31-1.851,2.772-1.122,.462-2.412,.207-3.27-.651Zm34.242,7.758l6,6c.585,.585 .879,1.353 .879,2.121 0,.768-.294,1.536-.879,2.121l-6,6c-.858,.858-2.148,1.113-3.27,.651-1.119-.462-1.851-1.56-1.851-2.772v-2.997h-3v-6h3v-3.003c0-1.212 .732-2.31 1.851-2.772 1.122-.462 2.412-.204 3.27,.651Zm-20.121,5.124h3v6h-3zm-3-30h3v6h-3zm-3,12h-12c-1.656,0-3,1.344-3,3v12c0,1.659 1.344,3 3,3h12c1.656,0 3-1.341 3-3v-12c0-1.656-1.344-3-3-3zm-3,12h-6v-6h6v6zm12-30h3v6h-3zm21-12h-12c-1.659,0-3,1.344-3,3v12c0,1.656 1.341,3 3,3h12c1.659,0 3-1.344 3-3v-12c0-1.656-1.341-3-3-3zm-3,12h-6v-6h6v6zm-15,18h3v6h-3z"/>
</svg>
