<svg width="48" fill="#000000" xmlns="http://www.w3.org/2000/svg" height="48" viewBox="0 0 48 48" xmlns:xlink="http://www.w3.org/1999/xlink" enable-background="new 0 0 16 16">
<path d="m45,12h-12c-1.659,0-3-1.341-3-3s1.341-3 3-3h12c1.659,0 3,1.341 3,3s-1.341,3-3,3zm-21,18c-3.312,0-6-2.688-6-6 0-.102 .024-.195 .03-.297 .465,.162 .948,.297 1.47,.297 2.484,0 4.5-2.016 4.5-4.5 0-.522-.135-1.005-.297-1.47 .102-.006 .195-.03 .297-.03 3.312,0 6,2.688 6,6s-2.688,6-6,6zm0-18c-6.627,0-12,5.373-12,12s5.373,12 12,12 12-5.373 12-12c0-2.196-.633-4.227-1.665-6h10.611c2.142,3.303 3.054,6 3.054,6s-6,18-24,18-24-18-24-18 6-18 24-18c.186,0 .354,.03 .543,.036-.33,.93-.543,1.917-.543,2.964 0,1.077 .219,2.097 .567,3.06-.192-.012-.372-.06-.567-.06z"/>
</svg>
