<svg width="48" fill="#000000" xmlns="http://www.w3.org/2000/svg" height="48" viewBox="0 0 48 48" xmlns:xlink="http://www.w3.org/1999/xlink" enable-background="new 0 0 16 16">
<path d="m24,48c13.254,0 24-10.746 24-24 0-13.254-10.746-24-24-24s-24,10.746-24,24c0,13.254 10.746,24 24,24zm0-42c9.939,0 18,8.061 18,18 0,9.942-8.061,18-18,18s-18-8.058-18-18c0-9.939 8.061-18 18-18zm-12,18c0-6.627 5.373-12 12-12v-3c-8.286,0-15,6.717-15,15h3zm3,0c0,4.968 4.029,9 9,9s9-4.032 9-9c0-4.971-4.029-9-9-9s-9,4.029-9,9zm9-3c1.659,0 3,1.344 3,3s-1.341,3-3,3-3-1.344-3-3 1.341-3 3-3zm0,15v3c8.286,0 15-6.714 15-15h-3c0,6.627-5.373,12-12,12z"/>
</svg>
