<svg width="48" fill="#000000" xmlns="http://www.w3.org/2000/svg" height="48" viewBox="0 0 48 48" xmlns:xlink="http://www.w3.org/1999/xlink" enable-background="new 0 0 16 16">
<path d="m37.5,33h-27c-.726,0-1.434-.072-2.118-.213-2.049-.42-3.882-1.437-5.31-2.862-1.896-1.899-3.072-4.524-3.072-7.425 0-5.802 4.701-10.5 10.5-10.5s10.5,4.698 10.5,10.5c0,1.617-.396,3.132-1.05,4.5h8.1c-.654-1.368-1.05-2.883-1.05-4.5 0-5.802 4.701-10.5 10.5-10.5s10.5,4.698 10.5,10.5c0,5.799-4.701,10.5-10.5,10.5zm-22.5-10.5c0-2.484-2.013-4.5-4.5-4.5s-4.5,2.016-4.5,4.5 2.013,4.5 4.5,4.5 4.5-2.016 4.5-4.5zm22.5-4.5c-2.484,0-4.5,2.016-4.5,4.5s2.016,4.5 4.5,4.5 4.5-2.016 4.5-4.5-2.016-4.5-4.5-4.5z"/>
</svg>
