<svg width="48" fill="#000000" xmlns="http://www.w3.org/2000/svg" height="48" viewBox="0 0 48 48" xmlns:xlink="http://www.w3.org/1999/xlink" enable-background="new 0 0 16 16">
<path d="m45,15h-3v3c0,1.659-1.341,3-3,3s-3-1.341-3-3v-3h-3c-1.659,0-3-1.341-3-3s1.341-3 3-3h3v-3c0-1.659 1.341-3 3-3s3,1.341 3,3v3h3c1.659,0 3,1.341 3,3s-1.341,3-3,3zm-21,18c-3.312,0-6-2.688-6-6 0-.102 .024-.195 .03-.297 .465,.162 .948,.297 1.47,.297 2.484,0 4.5-2.016 4.5-4.5 0-.522-.135-1.005-.297-1.47 .102-.006 .195-.03 .297-.03 3.312,0 6,2.688 6,6s-2.688,6-6,6zm0-18c-6.627,0-12,5.373-12,12s5.373,12 12,12 12-5.373 12-12c0-.186-.048-.363-.057-.552 .954,.351 1.98,.552 3.057,.552 3.012,0 5.649-1.497 7.272-3.774 1.188,2.199 1.728,3.774 1.728,3.774s-6,18-24,18-24-18-24-18 6-18 24-18c.18,0 .336,.03 .513,.033-.327,.927-.513,1.923-.513,2.967 0,1.077 .201,2.103 .552,3.057-.189-.009-.366-.057-.552-.057z"/>
</svg>
