<svg width="48" fill="#000000" xmlns="http://www.w3.org/2000/svg" height="48" viewBox="0 0 48 48" xmlns:xlink="http://www.w3.org/1999/xlink" enable-background="new 0 0 16 16">
<path d="m24,42c-18,0-24-18-24-18s6-18 24-18 24,18 24,18-6,18-24,18zm0-30c-6.627,0-12,5.373-12,12s5.373,12 12,12 12-5.373 12-12-5.373-12-12-12zm0,18c-3.312,0-6-2.688-6-6 0-.102 .024-.195 .03-.297 .465,.162 .948,.297 1.47,.297 2.484,0 4.5-2.016 4.5-4.5 0-.522-.135-1.005-.297-1.47 .102-.006 .195-.03 .297-.03 3.312,0 6,2.688 6,6s-2.688,6-6,6z"/>
</svg>
