<svg width="48" fill="#000000" xmlns="http://www.w3.org/2000/svg" height="48" viewBox="0 0 48 48" xmlns:xlink="http://www.w3.org/1999/xlink" enable-background="new 0 0 16 16">
<path d="m47.772,37.851c-.462-1.119-1.56-1.851-2.772-1.851h-3v-25.5c0-5.799-4.701-10.5-10.5-10.5s-10.5,4.701-10.5,10.5v27c0,2.484-2.013,4.5-4.5,4.5s-4.5-2.016-4.5-4.5 0-25.5 0-25.5h3c1.212,0 2.31-.732 2.772-1.851 .462-1.122 .207-2.412-.651-3.27l-6-6c-.588-.585-1.356-.879-2.121-.879s-1.536,.294-2.124,.879l-6,6c-.855,.858-1.113,2.148-.651,3.27 .465,1.119 1.56,1.851 2.775,1.851h3c0,0 0,19.701 0,25.5s4.701,10.5 10.5,10.5c5.802,0 10.5-4.701 10.5-10.5v-27c0-2.487 2.016-4.5 4.5-4.5s4.5,2.013 4.5,4.5v25.5h-3c-1.212,0-2.31,.732-2.772,1.851-.462,1.122-.204,2.412 .651,3.27l6,6c.585,.585 1.353,.879 2.121,.879s1.536-.294 2.121-.879l6-6c.858-.858 1.113-2.148 .651-3.27z"/>
</svg>
