<svg width="48" fill="#000000" xmlns="http://www.w3.org/2000/svg" height="48" viewBox="0 0 48 48" xmlns:xlink="http://www.w3.org/1999/xlink" enable-background="new 0 0 16 16">
<path d="m46.599,46.599c-1.758,1.758-4.605,1.758-6.363,0l-10.548-10.545c-2.97,1.836-6.438,2.946-10.188,2.946-10.77,0-19.5-8.73-19.5-19.5s8.73-19.5 19.5-19.5 19.5,8.73 19.5,19.5c0,3.75-1.11,7.218-2.943,10.191l10.545,10.545c1.755,1.758 1.755,4.605-.003,6.363zm-27.099-40.599c-7.455,0-13.5,6.045-13.5,13.5s6.045,13.5 13.5,13.5 13.5-6.045 13.5-13.5-6.045-13.5-13.5-13.5zm7.5,12v3h-15v-3h15z"/>
</svg>
