<svg xmlns="http://www.w3.org/2000/svg" viewBox="0 0 24 24">
<g transform="translate(0 -1052.3622)">
<path opacity=".3" fill="none" stroke="#fff" stroke-linejoin="round" stroke-linecap="round" color="#000" stroke-width="2" d="m21,1065.3622 0,1-7-1 0,.031 0,3.9688 2,2.0002c0,.5-.5,1-1,1-2,0-5,0-5,0-.5,0-1-.5-1-1l2-2.0002v-4l-7,1v-1l7-4c0,0 0-.3333 0-2 0-1 .5-4 1.5-4 1,0 1.5,3 1.5,4 0,1.6667 0,2 0,2z"/>
<path fill="#444" d="m21,1065.8622 0,.5-7-1 0,3.9998 2,2.0002c0,.5-.5,1-1,1-2,0-5,0-5,0-.5,0-1-.5-1-1l2-2.0002v-4l-7,1v-.4998c0-.5 .3057-.6379 .5-.75l6.5-3.7502c0,0 0-.3333 0-2 0-1 .5-4 1.5-4 1,0 1.5,3 1.5,4 0,1.6667 0,2 0,2l6.5,3.7502c.2784,.1606 .5,.2411 .5,.75z"/>
</g>
<g transform="translate(-84 -1050.3622)">
<path opacity=".5" fill="none" color="#000" d="m84,1050.36h24v24h-24z"/>
</g>
</svg>
