<svg xmlns="http://www.w3.org/2000/svg" viewBox="0 0 24 24">
<g color="#000" transform="translate(0 -1004.3622)">
<path opacity=".3" fill="#fff" stroke="#fff" stroke-width="2" d="m372.5,53c-6.5,0-9.5,6.5-9.5,6.5 0,0 3,6.5 9.5,6.5 6.5,0 9.5-6.5 9.5-6.5 0,0-3-6.5-9.5-6.5z" transform="translate(-360 956.3622)"/>
<path fill="#444" d="m372.5,53c-6.5,0-9.5,6.5-9.5,6.5 0,0 3,6.5 9.5,6.5 6.5,0 9.5-6.5 9.5-6.5 0,0-3-6.5-9.5-6.5zm-3,5c.277,0 .5,.223 .5,.5v.5h2v-.5c0-.277 .223-.5 .5-.5 .277,0 .5,.223 .5,.5v.5h2v-.5c0-.277 .223-.5 .5-.5 .277,0 .5,.223 .5,.5v.5h1.5c.277,0 .5,.223 .5,.5 0,.277-.223,.5-.5,.5h-1.5v.5c0,.277-.223,.5-.5,.5-.277,0-.5-.223-.5-.5v-.5h-2v.5c0,.277-.223,.5-.5,.5-.277,0-.5-.223-.5-.5v-.5h-2v.5c0,.277-.223,.5-.5,.5-.277,0-.5-.223-.5-.5v-.5h-1.5c-.277,0-.5-.223-.5-.5 0-.277 .223-.5 .5-.5h1.5v-.5c0-.277 .223-.5 .5-.5z" transform="translate(-360 956.3622)"/>
</g>
<g transform="translate(-474 -1098.3622)">
<path opacity=".5" fill="none" color="#000" d="m474,1098.36h24v24h-24z"/>
</g>
</svg>
