<svg xmlns="http://www.w3.org/2000/svg" viewBox="0 0 24 24">
<g color="#000" transform="translate(-318 -1290.3622)">
<path opacity=".3" fill="#fff" stroke="#fff" stroke-linejoin="round" stroke-linecap="round" stroke-width="2" d="m449,244c-5,0-8,4-8,6 0,2 1,3.5 3,3.5 2,0 3,.5 3,2 0,2 1.5,3.5 3.5,3.5 6.5,0 9.5-3.5 9.5-7 0-6-5-8-11-8z" transform="translate(-120 1050.3622)"/>
<path fill="#444" d="m449,244c-5,0-8,4-8,6 0,2 1,3.5 3,3.5 2,0 3,.5 3,2 0,2 1.5,3.5 3.5,3.5 6.5,0 9.5-3.5 9.5-7 0-6-5-8-11-8zm-1.25,2c.6903,0 1.25,.5597 1.25,1.25 0,.6903-.5597,1.25-1.25,1.25-.6903,0-1.25-.5597-1.25-1.25 0-.6903 .5597-1.25 1.25-1.25zm4,0c.6903,0 1.25,.5597 1.25,1.25 0,.6903-.5597,1.25-1.25,1.25-.6903,0-1.25-.5597-1.25-1.25 0-.6903 .5597-1.25 1.25-1.25zm4,2c.6903,0 1.25,.5597 1.25,1.25 0,.6903-.5597,1.25-1.25,1.25-.6903,0-1.25-.5597-1.25-1.25 0-.6903 .5597-1.25 1.25-1.25zm-11.5,1c.6903,0 1.25,.5597 1.25,1.25 0,.6903-.5597,1.25-1.25,1.25-.6903,0-1.25-.5597-1.25-1.25 0-.6903 .5597-1.25 1.25-1.25zm6.25,5c.8284,0 1.5,.6716 1.5,1.5 0,.8284-.6716,1.5-1.5,1.5-.8284,0-1.5-.6716-1.5-1.5 0-.8284 .6716-1.5 1.5-1.5z" transform="translate(-120 1050.3622)"/>
</g>
<g transform="translate(-318 -1290.3622)">
<path opacity=".3" fill="none" color="#000" d="m438,240h24v24h-24z" transform="translate(-120 1050.3622)"/>
</g>
</svg>
