<svg xmlns="http://www.w3.org/2000/svg" viewBox="0 0 24 24">
<g fill="none" stroke="#fff" stroke-width="2">
<path opacity=".3" color="#000" d="m12.5,6c-1.5,0-2.7639,.5359-2.4375,2l1.4375,6.5c.0513,.2301 .1896,.5 .5,.5h1 1c.3104,0 .4487-.2699 .5-.5l1.4375-6.5c.3264-1.4641-.9375-2-2.4375-2h-.5zm-6,3c-1,0-1.9507,.5986-1.5,1.5l2,4c.1667,.3333 .5,.5 1,.5h1c0,0 .6152,.0182 .5-.5l-1-4.5c-.1118-.5031-.5-1-1-1zm11,0c-.5,0-.8882,.4969-1,1l-1,4.5c-.1152,.5182 .5,.5 .5,.5h1c.5,0 .8333-.1667 1-.5l2-4c-.5493-.9014-1.5-1.5-2.5-1.5zm-14.5625,3.125c-.1932-.001-.356,.1184-.4375,.375l-.9577,2.9945c-.1189,.3744-.0375,.566 .4688,.4688l2.489-.4632c.491-.0943 .5724-.2661 .4375-.5l-1.4375-2.5c-.1456-.2526-.3693-.374-.5625-.375zm17.125,0c-.1932,.001-.4169,.1224-.5625,.375l-1.4375,2.5c-.1349,.2339-.0535,.4057 .4375,.5l2.4538,.4743c.5063,.0972 .6189-.0944 .5-.4688l-.9538-3.0055c-.0815-.2566-.2443-.376-.4375-.375z"/>
<g opacity=".5" transform="translate(-0 -6.5)"/>
</g>
<g color="#000">
<path fill="#444" d="m12.5,6c-1.5,0-2.7639,.5359-2.4375,2l1.4375,6.5c.0513,.2301 .1896,.5 .5,.5h1 1c.3104,0 .4487-.2699 .5-.5l1.4375-6.5c.3264-1.4641-.9375-2-2.4375-2h-.5zm-6,3c-1,0-1.9507,.5986-1.5,1.5l2,4c.1667,.3333 .5,.5 1,.5h1c0,0 .6152,.0182 .5-.5l-1-4.5c-.1118-.5031-.5-1-1-1zm11,0c-.5,0-.8882,.4969-1,1l-1,4.5c-.1152,.5182 .5,.5 .5,.5h1c.5,0 .8333-.1667 1-.5l2-4c-.5493-.9014-1.5-1.5-2.5-1.5zm-14.5625,3.125c-.1932-.001-.356,.1184-.4375,.375l-.9577,2.9945c-.1189,.3744-.0375,.566 .4688,.4688l2.489-.4632c.491-.0943 .5724-.2661 .4375-.5l-1.4375-2.5c-.1456-.2526-.3693-.374-.5625-.375zm17.125,0c-.1932,.001-.4169,.1224-.5625,.375l-1.4375,2.5c-.1349,.2339-.0535,.4057 .4375,.5l2.4538,.4743c.5063,.0972 .6189-.0944 .5-.4688l-.9538-3.0055c-.0815-.2566-.2443-.376-.4375-.375z"/>
<path fill="none" d="m0,0h24v24h-24z"/>
</g>
</svg>
