<svg xmlns="http://www.w3.org/2000/svg" viewBox="0 0 24 24">
<g color="#000" transform="translate(-474 -1170.3622)">
<path opacity=".3" fill="none" stroke="#fff" stroke-linejoin="round" stroke-linecap="round" stroke-width="2" d="m480,1173.3622c-1.2523,0-2,.7534-2,2 0,1 2,2.5 3,3.5 2,2 5.3019,3.8019 8.5,7l3,3-.5,.5c0,.5 .5,1 1,1l1-1 1-1c0-.5-.5-1-1-1l-.5,.5-3-3c-2.8634-2.8633-5-6.5-7-8.5-1-1-2.5-3-3.5-3zm3.5,10c-.8284,0-1.5,.6716-1.5,1.5 0,.8284 .6716,1.5 1.5,1.5 .8284,0 1.5-.6716 1.5-1.5 0-.8284-.6716-1.5-1.5-1.5z"/>
<path fill="#444" d="m480,1173.3622c-1.2523,0-2,.7534-2,2 0,1 2,2.5 3,3.5 2,2 5.3019,3.8019 8.5,7l3,3-.5,.5c0,.5 .5,1 1,1l1-1 1-1c0-.5-.5-1-1-1l-.5,.5-3-3c-2.8634-2.8633-5-6.5-7-8.5-1-1-2.5-3-3.5-3zm3.5,10c-.8284,0-1.5,.6716-1.5,1.5 0,.8284 .6716,1.5 1.5,1.5 .8284,0 1.5-.6716 1.5-1.5 0-.8284-.6716-1.5-1.5-1.5z"/>
</g>
<g transform="translate(-474 -1170.3622)">
<path opacity=".5" fill="none" color="#000" d="m474,1170.36h24v24h-24z"/>
</g>
</svg>
