<svg xmlns="http://www.w3.org/2000/svg" viewBox="0 0 24 24">
<g color="#000" transform="translate(-476 -1146.3622)">
<path opacity=".3" fill="#fff" stroke="#fff" stroke-linejoin="round" stroke-linecap="round" stroke-width="2" d="m484.5,1149.3622-4.5,4 0,8c0,.5 .5,1 1,1h3.5625l1.9375,3.5c.2778,.5 .5,.5 1,.5h2c.5,0 .7222,0 1-.5l1.9375-3.5h3.5625c.5,0 1-.5 1-1v-8l-4.5-4h-8zm-.5,4 9,0 0,6-9,0 0-6zm1,1 0,4 7,0 0-4-7,0zm.5625,8 1.4375,0 0,1 1,0 0-1 1,0 0,1 1,0 0-1 1.4375,0-.5625,1-.875,0 0,1 .3438,0-.3438,.625 0-.625-1,0 0,1-1,0 0-1-1,0 0,.625-.3438-.625 .3438,0 0-1-.875,0-.5625-1zm2.4375,2 1,0 0-1-1,0 0,1z"/>
<path fill="#444" d="m484.5,1149.3622-4.5,4 0,8c0,.5 .5,1 1,1h3.5625l1.9375,3.5c.2778,.5 .5,.5 1,.5h2c.5,0 .7222,0 1-.5l1.9375-3.5h3.5625c.5,0 1-.5 1-1v-8l-4.5-4h-8zm-.5,4 9,0 0,6-9,0 0-6zm1,1 0,4 7,0 0-4-7,0zm.5625,8 1.4375,0 0,1 1,0 0-1 1,0 0,1 1,0 0-1 1.4375,0-.5625,1-.875,0 0,1 .3438,0-.3438,.625 0-.625-1,0 0,1-1,0 0-1-1,0 0,.625-.3438-.625 .3438,0 0-1-.875,0-.5625-1zm2.4375,2 1,0 0-1-1,0 0,1z"/>
</g>
<g transform="translate(-474 -1146.3622)">
<path opacity=".5" fill="none" color="#000" d="m474,1146.36h24v24h-24z"/>
</g>
</svg>
