<svg xmlns="http://www.w3.org/2000/svg" viewBox="0 0 24 24">
<g color="#000" transform="translate(-84 -1386.3622)">
<path opacity=".3" fill="#fff" stroke="#fff" stroke-linejoin="round" stroke-width="2" d="m98.875,1390.3622c-.5615,.076-.6371,1.0579-.0938,1.2188l2.2188,.875v1.9062h-7v-1h1.375c.3302,0 .625-.2948 .625-.625 0-.3302-.2948-.6297-.625-.625h-3.875c-.062-.01-.1255-.01-.1875,0-.3273,.049-.5803,.3915-.5312,.7188 .0491,.3272 .3915,.5803 .7188,.5312h1.5v1l-1.0625,3.125c-.2997-.072-.6158-.125-.9375-.125-2.2091,0-4,1.7909-4,4 0,2.2091 1.7909,4 4,4 2.2091,0 4-1.7909 4-4 0-.3004-.0622-.5935-.125-.875h1.125c.1985-.01 .3909-.1152 .5-.2812l3.375-4.8438h.125 1l.6875,2.0313c-2.0619,.1606-3.6875,1.8656-3.6875,3.9687 0,2.2091 1.7909,4 4,4 2.2091,0 4-1.7909 4-4 0-1.8282-1.2311-3.3352-2.9062-3.8125l-1.0938-3.1875v-2.3437c0-.1049-.0423-.211-.0937-.3125-.004-.01 .004-.024 0-.031-.0149-.032-.0429-.064-.0625-.094-.032-.045-.0546-.086-.0937-.125-.0169-.016-.044-.017-.0625-.031-.0183-.015-.0433-.018-.0625-.031-.0324-.019-.0577-.05-.0937-.062l-.0312-.031-.4375-.1562-1.8438-.75c-.065-.025-.1493-.028-.2188-.031-.047,0-.0788-.011-.125,0zm-4.875,5 4.4062,0-2.7188,3.875-1.3125,0c-.3097-.4941-.6991-.9009-1.1875-1.2187l.8123-2.6579zm-3,3.5c1.3807,0 2.5,1.1193 2.5,2.5 0,1.3807-1.1193,2.5-2.5,2.5-1.3807,0-2.5-1.1193-2.5-2.5 0-1.3807 1.1193-2.5 2.5-2.5zm11,0c1.3807,0 2.5,1.1193 2.5,2.5 0,1.3807-1.1193,2.5-2.5,2.5-1.3807,0-2.5-1.1193-2.5-2.5 0-.1726 .0292-.3373 .0625-.5 .2331-1.1392 1.2294-2 2.4375-2z"/>
<path fill="#444" d="m98.875,1390.3622c-.5615,.076-.6371,1.0579-.0938,1.2188l2.2188,.875v1.9062h-7v-1h1.375c.3302,0 .625-.2948 .625-.625 0-.3302-.2948-.6297-.625-.625h-3.875c-.062-.01-.1255-.01-.1875,0-.3273,.049-.5803,.3915-.5312,.7188 .0491,.3272 .3915,.5803 .7188,.5312h1.5v1l-1.0625,3.125c-.2997-.072-.6158-.125-.9375-.125-2.2091,0-4,1.7909-4,4 0,2.2091 1.7909,4 4,4 2.2091,0 4-1.7909 4-4 0-.3004-.0622-.5935-.125-.875h1.125c.1985-.01 .3909-.1152 .5-.2812l3.375-4.8438h.125 1l.6875,2.0313c-2.0619,.1606-3.6875,1.8656-3.6875,3.9687 0,2.2091 1.7909,4 4,4 2.2091,0 4-1.7909 4-4 0-1.8282-1.2311-3.3352-2.9062-3.8125l-1.0938-3.1875v-2.3437c0-.1049-.0423-.211-.0937-.3125-.004-.01 .004-.024 0-.031-.0149-.032-.0429-.064-.0625-.094-.032-.045-.0546-.086-.0937-.125-.0169-.016-.044-.017-.0625-.031-.0183-.015-.0433-.018-.0625-.031-.0324-.019-.0577-.05-.0937-.062l-.0312-.031-.4375-.1562-1.8438-.75c-.065-.025-.1493-.028-.2188-.031-.047,0-.0788-.011-.125,0zm-4.875,5 4.4062,0-2.7188,3.875-1.3125,0c-.3097-.4941-.6991-.9009-1.1875-1.2187l.8123-2.6579zm-3,3.5c1.3807,0 2.5,1.1193 2.5,2.5 0,1.3807-1.1193,2.5-2.5,2.5-1.3807,0-2.5-1.1193-2.5-2.5 0-1.3807 1.1193-2.5 2.5-2.5zm11,0c1.3807,0 2.5,1.1193 2.5,2.5 0,1.3807-1.1193,2.5-2.5,2.5-1.3807,0-2.5-1.1193-2.5-2.5 0-.1726 .0292-.3373 .0625-.5 .2331-1.1392 1.2294-2 2.4375-2z"/>
<path opacity=".3" fill="none" d="m84,1386.36h24v24h-24z"/>
</g>
</svg>
