<svg xmlns="http://www.w3.org/2000/svg" viewBox="0 0 24 24">
<g color="#000" transform="translate(-630.00002 -1074.36218)">
<path opacity=".3" fill="#fff" stroke="#fff" stroke-linejoin="round" stroke-width="2" d="m641,1077.3622-7.5,6.5c-.3561,.3086-.5,.5-.5,.75 0,.4959 .5,.75 1,.75h1v8c0,.554 .446,1 1,1h6.5 6.5c.554,0 1-.446 1-1v-8h1c.5,0 1-.2541 1-.75 0-.25-.138-.4483-.5-.75l-7.5-6.5z"/>
<path opacity=".5" fill="none" d="m630,1074.36h24v24h-24z"/>
<path fill="#444" d="m641,1077.3622-7.5,6.5c-.3561,.3086-.5,.5-.5,.75 0,.4959 .5,.75 1,.75h1v8c0,.554 .446,1 1,1h6.5 6.5c.554,0 1-.446 1-1v-8h1c.5,0 1-.2541 1-.75 0-.25-.138-.4483-.5-.75l-7.5-6.5z"/>
</g>
</svg>
