<svg xmlns="http://www.w3.org/2000/svg" viewBox="0 0 24 24">
<g transform="translate(-84 -1146.3622)">
<path opacity=".3" fill="#fff" stroke="#fff" stroke-linejoin="round" color="#000" stroke-width="2" d="m93,1149.3622 0,1-2,0c-.5,0-1,.5-1,1v6 5 1 1h1v2h2v-2h7v2h2v-2h1v-1-1-5-6c0-.5-.5-1-1-1h-2v-1h-7z"/>
</g>
<g transform="translate(-1 -1005.3622)">
<path fill="#444" color="#000" d="m10,1008.3622 0,1-2,0c-.5,0-1,.5-1,1v13h1v2h2v-2h7v2h2v-2h1v-13c0-.5-.5-1-1-1h-2v-1zm-1,3 9,0 0,5-9,0zm1,8c.554,0 1,.446 1,1 0,.554-.446,1-1,1-.554,0-1-.446-1-1 0-.554 .446-1 1-1zm7,0c.554,0 1,.446 1,1 0,.554-.446,1-1,1-.554,0-1-.446-1-1 0-.554 .446-1 1-1z"/>
</g>
</svg>
