<svg xmlns="http://www.w3.org/2000/svg" viewBox="0 0 24 24">
<g color="#000" transform="translate(-318 -1074.36218)">
<path opacity=".3" fill="#fff" stroke="#fff" stroke-linejoin="round" stroke-width="2" d="m324,1079.3622c-.554,0-1,.446-1,1v9c0,.554 .446,1 1,1h11c.554,0 1-.446 1-1v-1h.5c.5,0 .5-.5 .5-.5v-.5h1c1,0 2-1 2-2v-1-2c0-.5-.5-1-1-1h-3v-1c0-.554-.446-1-1-1zm12,3 2.5,0c.5,0 .5,.5 .5,.5v2.5c0,.5-.5,1-1,1h-1-1zm-15,9 1,1 1,1 13,0 1-1 1-1z"/>
<path fill="#444" d="m324,1079.3622c-.554,0-1,.446-1,1v9c0,.554 .446,1 1,1h11c.554,0 1-.446 1-1v-1h.5c.5,0 .5-.5 .5-.5v-.5h1c1,0 2-1 2-2v-1-2c0-.5-.5-1-1-1h-3v-1c0-.554-.446-1-1-1zm12,3 2.5,0c.5,0 .5,.5 .5,.5v2.5c0,.5-.5,1-1,1h-1-1zm-15,9 1,1 1,1 13,0 1-1 1-1z"/>
</g>
<g transform="translate(-318 -1074.36218)">
<path opacity=".5" fill="none" color="#000" d="m318,1074.36h24v24h-24z"/>
</g>
</svg>
