<svg width="24" xmlns="http://www.w3.org/2000/svg" viewBox="-402.5 403.5 24 24" height="24" enable-background="new -402.5 403.5 24 24">
<g transform="translate(0 -2)">
<path opacity=".3" fill="#fff" stroke="#fff" stroke-width="2" d="m-381.5,411.5h-4v-1c0-.553-.448-1-1-1h-4c-.552,0-1,.447-1,1v1h-3c0-.553-.448-1-1-1h-1c-.552,0-1,.447-1,1h-1c-.552,0-1,.447-1,1v10c0,.553 .448,1 1,1h17c.552,0 1-.447 1-1v-10c0-.553-.448-1-1-1z" stroke-miterlimit="10"/>
</g>
<g fill="#454545" transform="translate(0 -2)">
<path d="m-381.5,411.5h-4v-1c0-.553-.448-1-1-1h-4c-.552,0-1,.447-1,1v1h-3c0-.553-.448-1-1-1h-1c-.552,0-1,.447-1,1h-1c-.552,0-1,.447-1,1v10c0,.553 .448,1 1,1h17c.552,0 1-.447 1-1v-10c0-.553-.448-1-1-1zm-7,10c-2.209,0-4-1.791-4-4 0-2.209 1.791-4 4-4 2.209,0 4,1.791 4,4 0,2.209-1.791,4-4,4z"/>
<circle cx="-388.5" cy="417.5" r="2" d="m -386.5,417.5 c 0,1.10457 -0.89543,2 -2,2 -1.10457,0 -2,-0.89543 -2,-2 0,-1.10457 0.89543,-2 2,-2 1.10457,0 2,0.89543 2,2 z"/>
</g>
</svg>
