<svg xmlns="http://www.w3.org/2000/svg" viewBox="0 0 24 24">
<g line-height="normal" color="#000" transform="translate(0 -1005.3622)">
<path opacity=".3" fill="none" stroke="#fff" stroke-linejoin="round" stroke-linecap="round" stroke-width="2" d="m12.5,5c-.5-.0001-.7261,.2394-.875,.5l-6.2188,11.5h-1.3438c-.5866,0-1.0625,.446-1.0625,1 0,.554 .4759,1 1.0625,1h1.9375 13 1.9375c.5866,0 1.0625-.446 1.0625-1 0-.554-.4759-1-1.0625-1h-1.3438l-6.2188-11.5c-.1489-.2606-.375-.5001-.875-.5zm0,5 3.5,7-7,0z" transform="translate(0 1004.3622)"/>
<path fill="#444" d="m12.5,5c-.5-.0001-.7261,.2394-.875,.5l-6.2188,11.5h-1.3438c-.5866,0-1.0625,.446-1.0625,1 0,.554 .4759,1 1.0625,1h1.9375 13 1.9375c.5866,0 1.0625-.446 1.0625-1 0-.554-.4759-1-1.0625-1h-1.3438l-6.2188-11.5c-.1489-.2606-.375-.5001-.875-.5zm0,5 3.5,7-7,0z" transform="translate(0 1004.3622)"/>
</g>
<g transform="translate(-162 -1218.3622)">
<path opacity=".5" fill="none" color="#000" d="m162,1218.36h24v24h-24z"/>
</g>
</svg>
