<svg width="24" xmlns="http://www.w3.org/2000/svg" viewBox="-402.5 403.5 24 24" height="24" enable-background="new -402.5 403.5 24 24">
<g color="#000" transform="translate(-403.5 -600.8622)">
<path opacity=".3" fill="#fff" stroke="#fff" stroke-linejoin="round" stroke-width="2" d="m9,1009.3622c-1,0-1.3125,.5-1.5,1l-1.5,4c-.1875,.5-1,1-1,2v5h2v1c0,.5 .5,1 1,1h1c.5,0 1-.5 1-1v-1h7v1c0,.5 .5,1 1,1h1c.5,0 1-.5 1-1v-1h2v-5c0-1-.7383-1.3021-1-2l-1.5-4c-.1875-.5-.5-1-1.5-1-3.3333,0-9,0-9,0zm.5,2 8,0 1,3-10,0zm-.5,6c.554,0 1,.446 1,1 0,.554-.446,1-1,1-.554,0-1-.446-1-1 0-.554 .446-1 1-1zm9,0c.554,0 1,.446 1,1 0,.554-.446,1-1,1-.554,0-1-.446-1-1 0-.554 .446-1 1-1z"/>
<path fill="#444" d="m9,1009.3622c-1,0-1.3125,.5-1.5,1l-1.5,4c-.1875,.5-1,1-1,2v5h2v1c0,.5 .5,1 1,1h1c.5,0 1-.5 1-1v-1h7v1c0,.5 .5,1 1,1h1c.5,0 1-.5 1-1v-1h2v-5c0-1-.7383-1.3021-1-2l-1.5-4c-.1875-.5-.5-1-1.5-1-3.3333,0-9,0-9,0zm.5,2 8,0 1,3-10,0zm-.5,6c.554,0 1,.446 1,1 0,.554-.446,1-1,1-.554,0-1-.446-1-1 0-.554 .446-1 1-1zm9,0c.554,0 1,.446 1,1 0,.554-.446,1-1,1-.554,0-1-.446-1-1 0-.554 .446-1 1-1z"/>
</g>
</svg>
