<svg xmlns="http://www.w3.org/2000/svg" viewBox="0 0 24 24">
<g fill-rule="evenodd" transform="translate(0 -1028.3622)">
<path opacity=".3" fill="none" stroke="#fff" stroke-linejoin="round" stroke-linecap="round" color="#000" stroke-width="2" d="m9.2812,3c-.7122,0-1.2812,.4461-1.2812,1 0,.5541 .569,1 1.2812,1h.7188v4l-5,10 .9688,1h3.0312 7 1.0312 1.9375l1.0312-1-5-10v-4h.7188c.7122,0 1.2812-.4459 1.2812-1 0-.5539-.569-1-1.2812-1h-6.4375zm2.7188,2h1v4l3,6h-7l3-6v-4z" transform="translate(0 1028.3622)"/>
<path opacity=".99" fill="#454545" d="m9.2812,3c-.7122,0-1.2812,.4461-1.2812,1 0,.5541 .569,1 1.2812,1h.7188v4l-5,10 .9688,1h3.0312 7 1.0312 1.9375l1.0312-1-5-10v-4h.7188c.7122,0 1.2812-.4459 1.2812-1 0-.5539-.569-1-1.2812-1h-6.4375zm2.7188,2h1v4l3,6h-7l3-6v-4z" transform="translate(0 1028.3622)"/>
</g>
</svg>
