<svg xmlns="http://www.w3.org/2000/svg" viewBox="0 0 24 24">
<g color="#000" transform="translate(-240 -1170.36218)">
<path opacity=".3" fill="#fff" stroke="#fff" stroke-linejoin="round" stroke-linecap="round" stroke-width="2" d="m258,1173.3622-2.25,.6563 1.0938,2.9687 2.1562-.625zm-3.625,1.0313-2.9375,.8437 .0625,.125 .5625,1.5313 .5,1.3125 2.9375-.8438zm-4.2812,1.2187-2.5938,.75 1.125,2.9688 2.5938-.75-.6562-1.6875zm-3.9375,1.125-2.1562,.625 1,3 2.25-.6562zm-1.1562,3.625 0,9c0,.554 .446,1 1,1h13c.554,0 1-.446 1-1v-9zm2,2 11,0 0,3-11,0z"/>
<path fill="#444" d="m258,1173.3622-2.25,.6563 1.0938,2.9687 2.1562-.625zm-3.625,1.0313-2.9375,.8437 .0625,.125 .5625,1.5313 .5,1.3125 2.9375-.8438zm-4.2812,1.2187-2.5938,.75 1.125,2.9688 2.5938-.75-.6562-1.6875zm-3.9375,1.125-2.1562,.625 1,3 2.25-.6562zm-1.1562,3.625 0,9c0,.554 .446,1 1,1h13c.554,0 1-.446 1-1v-9zm2,2 11,0 0,3-11,0z"/>
</g>
<g transform="translate(-240 -1170.36218)">
<path opacity=".5" fill="none" color="#000" d="m240,1170.36h24v24h-24z"/>
</g>
</svg>
