<svg xmlns="http://www.w3.org/2000/svg" viewBox="0 0 24 24">
<g color="#000" transform="translate(72 -1050.3622)">
<g fill="#fff">
<path opacity=".3" fill-opacity="0" d="m-72,1050.36h24v24h-24z"/>
<path opacity=".3" stroke="#fff" stroke-width="2" d="m-59.5,1053.3622c-4.6944,0-8.5,3.8056-8.5,8.5 0,4.6944 3.8056,8.5 8.5,8.5 4.6944,0 8.5-3.8056 8.5-8.5 0-4.6944-3.8056-8.5-8.5-8.5zm0,2c3.5899,0 6.5,2.9101 6.5,6.5 0,3.5899-2.9101,6.5-6.5,6.5-3.5899,0-6.5-2.9101-6.5-6.5 0-3.5899 2.9101-6.5 6.5-6.5z"/>
</g>
<path fill="#444" d="m-59.5,1053.3622c-4.6944,0-8.5,3.8056-8.5,8.5 0,4.6944 3.8056,8.5 8.5,8.5 4.6944,0 8.5-3.8056 8.5-8.5 0-4.6944-3.8056-8.5-8.5-8.5zm0,2c3.5899,0 6.5,2.9101 6.5,6.5 0,3.5899-2.9101,6.5-6.5,6.5-3.5899,0-6.5-2.9101-6.5-6.5 0-3.5899 2.9101-6.5 6.5-6.5z"/>
</g>
</svg>
