<svg xmlns="http://www.w3.org/2000/svg" viewBox="0 0 24 24">
<g color="#000" transform="matrix(-1 0 0 1 -36 -1004.3622)">
<path opacity=".3" fill="#fff" stroke="#fff" stroke-width="1.941" d="m20.5,12.25c0,4.5563-3.6937,8.25-8.25,8.25-4.5563,0-8.25-3.6937-8.25-8.25 0-4.5563 3.6937-8.25 8.25-8.25 4.5563,0 8.25,3.6937 8.25,8.25z" transform="matrix(1.03031 0 0 1.03031 -61.12123 1003.2409)"/>
<path fill="#444" d="m20.5,12.25c0,4.5563-3.6937,8.25-8.25,8.25-4.5563,0-8.25-3.6937-8.25-8.25 0-4.5563 3.6937-8.25 8.25-8.25 4.5563,0 8.25,3.6937 8.25,8.25z" transform="matrix(1.03031 0 0 1.03031 -61.12134 1003.2409)"/>
</g>
<g transform="translate(72 -1074.3622)">
<path opacity=".5" fill="none" color="#000" d="m-72,1074.36h24v24h-24z"/>
</g>
</svg>
