<svg xmlns="http://www.w3.org/2000/svg" viewBox="0 0 24 24">
<g color="#000" transform="translate(-630 -1266.36218)">
<path opacity=".3" fill="#fff" stroke="#fff" stroke-linejoin="round" stroke-linecap="round" stroke-width="2" d="m636,1269.3622 0,2-2,0 0,13 8,0 0-13-2,0 0-2-4,0zm9,2 0,3-2,0 0,12 8,0 0-12-2,0 0-3-1,0 0,3-2,0 0-3-1,0zm-10,2 2,0 0,1-2,0 0-1zm4,0 2,0 0,1-2,0 0-1zm-4,2 2,0 0,1-2,0 0-1zm4,0 2,0 0,1-2,0 0-1zm5,1 2,0 0,1-2,0 0-1zm4,0 2,0 0,1-2,0 0-1zm-13,1 2,0 0,1-2,0 0-1zm4,0 2,0 0,1-2,0 0-1zm5,1 2,0 0,1-2,0 0-1zm4,0 2,0 0,1-2,0 0-1zm-13,1 2,0 0,1-2,0 0-1zm4,0 2,0 0,1-2,0 0-1zm5,1 2,0 0,1-2,0 0-1zm4,0 2,0 0,1-2,0 0-1zm-13,1 2,0 0,1-2,0 0-1zm4,0 2,0 0,1-2,0 0-1zm5,1 2,0 0,1-2,0 0-1zm4,0 2,0 0,1-2,0 0-1z"/>
<path opacity=".5" fill="none" d="m630,1266.36h24v24h-24z"/>
<path fill="#444" d="m636,1269.3622 0,2-2,0 0,13 8,0 0-13-2,0 0-2-4,0zm9,2 0,3-2,0 0,12 8,0 0-12-2,0 0-3-1,0 0,3-2,0 0-3-1,0zm-10,2 2,0 0,1-2,0 0-1zm4,0 2,0 0,1-2,0 0-1zm-4,2 2,0 0,1-2,0 0-1zm4,0 2,0 0,1-2,0 0-1zm5,1 2,0 0,1-2,0 0-1zm4,0 2,0 0,1-2,0 0-1zm-13,1 2,0 0,1-2,0 0-1zm4,0 2,0 0,1-2,0 0-1zm5,1 2,0 0,1-2,0 0-1zm4,0 2,0 0,1-2,0 0-1zm-13,1 2,0 0,1-2,0 0-1zm4,0 2,0 0,1-2,0 0-1zm5,1 2,0 0,1-2,0 0-1zm4,0 2,0 0,1-2,0 0-1zm-13,1 2,0 0,1-2,0 0-1zm4,0 2,0 0,1-2,0 0-1zm5,1 2,0 0,1-2,0 0-1zm4,0 2,0 0,1-2,0 0-1z"/>
</g>
</svg>
