<svg xmlns="http://www.w3.org/2000/svg" viewBox="0 0 24 24">
<defs/>
<g transform="translate(0 -1028.3622)">
<path opacity=".3" fill="#fff" d="m9.9688,1031.4062c-.4179-.082-.6052,.021-.6562,.031a.9984,.9984 0 0,0 -.1875,.031l-2.5,.9687a.9984,.9984 0 0,0 -.3125,.2187c0,0-2.7805,2.5617-3.875,3.6563-.5449,.545-.5014,1.5035-.0625,2.0625a.9984,.9984 0 0,0 .0938,.094l2.4375,2.4062 .0625,.062 .0312-.0304c.5392,.5477 1.3955,.5951 2,.063v6.4062a.9984,.9984 0 0,0 1,1h4.5 4.5a.9984,.9984 0 0,0 1-1v-6.4062c.6323,.5663 1.462,.5234 2.0312-.063l.0312,.031 .0625-.062 2.4375-2.4062a.9984,.9984 0 0,0 .0938-.094c.4389-.559 .4824-1.5175-.0625-2.0625-1.1014-1.1014-3.9062-3.6563-3.9062-3.6563a.9984,.9984 0 0,0 -.3125-.2187l-2.5-.9687a.9984,.9984 0 0,0 -.1562-.031c-.9015-.2134-1.8542,.4448-1.9688,1.3125a.9984,.9984 0 0,0 0,.125c-.0054,.6216-.1625,.9848-.3438,1.1875-.1812,.2027-.3965,.3222-.875,.3125a.9984,.9984 0 0,0 -.0625,0c-.4783,.01-.6938-.1097-.875-.3125-.1812-.2028-.3384-.5659-.3438-1.1875a.9984,.9984 0 0,0 0-.125c-.0863-.6531-.576-1.2065-1.2812-1.3438z"/>
<path fill="#444" d="m9.4375,1032.3622c-.1237-.01-.2721,.019-.4375,.094-1.0176,.4434-2,.9062-2,.9062 0,0-2.8224,2.6037-3.875,3.6563-.1831,.1831-.1923,.4738 0,.7187l2.5,2.4688c.1748,.2043 .5443,.2398 .75,.031l.625-.875h1v8h4.5 4.5v-8h1l.625,.875c.2057,.2086 .5752,.1733 .75-.031l2.5-2.4688c.1923-.2449 .1831-.5356 0-.7187-1.0526-1.0526-3.875-3.6563-3.875-3.6563 0,0-.9824-.4628-2-.9062-.6616-.298-.9864,.1773-1,.4375 .0177,1.0396-1.0906,2.4973-2.5,2.4687-1.4094,.029-2.5177-1.4291-2.5-2.4687-.0102-.1952-.1914-.5111-.5625-.5313z"/>
</g>
</svg>
