<svg xmlns="http://www.w3.org/2000/svg" viewBox="0 0 24 24">
<g color="#000" transform="translate(-474 -1242.3622)">
<path opacity=".3" fill="none" stroke="#fff" stroke-width="2" d="m479,1246.3623c-1,1-1,2-1,2l10,10 1.5-.5 4,4c.3163,.3163 .5063,.5 .9062,.5 .125,0 .2812,0 .4375-.1562 .1563-.1563 .1562-.3125 .1562-.4375 0-.4-.2179-.6242-.5-.9063l-4-4 .5-1.5-10-10c0,0-1,0-2,1zm3.5,9c-.8284,0-1.5,.6716-1.5,1.5 0,.8284 .6716,1.5 1.5,1.5 .8284,0 1.5-.6716 1.5-1.5 0-.8284-.6716-1.5-1.5-1.5z"/>
<path fill="#444" d="m479,1246.3623c-1,1-1,2-1,2l10,10 1.5-.5 4,4c.3163,.3163 .5063,.5 .9062,.5 .125,0 .2812,0 .4375-.1562 .1563-.1563 .1562-.3125 .1562-.4375 0-.4-.2179-.6242-.5-.9063l-4-4 .5-1.5-10-10c0,0-1,0-2,1zm3.5,9c-.8284,0-1.5,.6716-1.5,1.5 0,.8284 .6716,1.5 1.5,1.5 .8284,0 1.5-.6716 1.5-1.5 0-.8284-.6716-1.5-1.5-1.5z"/>
</g>
<g transform="translate(-474 -1242.3622)">
<path opacity=".5" fill="none" color="#000" d="m474,1242.36h24v24h-24z"/>
</g>
</svg>
