<svg xmlns="http://www.w3.org/2000/svg" viewBox="0 0 24 24">
<g color="#000" transform="translate(72 -1242.3622)">
<path opacity=".3" fill="#fff" stroke="#fff" stroke-linejoin="round" line-height="normal" stroke-width="2" d="m-66.9167,1245.3622c-.5417,0-1.0833,.5421-1.0833,1.0833 0,.2697 .0882,.5283 .3047,.7448l6.6719,6.6719-6.6719,6.6719c-.2166,.2165-.3047,.4751-.3047,.7448 0,.5412 .5417,1.0833 1.0833,1.0833 .2708,0 .5417-.067 .7786-.3046l6.638-6.6381 6.638,6.6381c.237,.2374 .5078,.3046 .7786,.3046 .5417,0 1.0833-.5421 1.0833-1.0833 0-.2697-.0882-.5283-.3047-.7448l-6.6719-6.6719 6.6719-6.6719c.2166-.2165 .3047-.4751 .3047-.7448 0-.5412-.5417-1.0833-1.0833-1.0833-.2708,0-.5417,.067-.7786,.3047l-6.638,6.638-6.638-6.638c-.237-.2375-.5078-.3047-.7786-.3047z"/>
<path opacity=".5" fill="none" d="m-72,1242.36h24v24h-24z"/>
<path fill="#444" line-height="normal" d="m-66.9167,1245.3622c-.5417,0-1.0833,.5421-1.0833,1.0833 0,.2697 .0882,.5283 .3047,.7448l6.6719,6.6719-6.6719,6.6719c-.2166,.2165-.3047,.4751-.3047,.7448 0,.5412 .5417,1.0833 1.0833,1.0833 .2708,0 .5417-.067 .7786-.3046l6.638-6.6381 6.638,6.6381c.237,.2374 .5078,.3046 .7786,.3046 .5417,0 1.0833-.5421 1.0833-1.0833 0-.2697-.0882-.5283-.3047-.7448l-6.6719-6.6719 6.6719-6.6719c.2166-.2165 .3047-.4751 .3047-.7448 0-.5412-.5417-1.0833-1.0833-1.0833-.2708,0-.5417,.067-.7786,.3047l-6.638,6.638-6.638-6.638c-.237-.2375-.5078-.3047-.7786-.3047z"/>
</g>
</svg>
