<svg xmlns="http://www.w3.org/2000/svg" viewBox="0 0 24 24">
<g color="#000" transform="translate(-474 -1314.36218)">
<path opacity=".3" fill="#fff" stroke="#fff" stroke-linejoin="round" stroke-linecap="round" stroke-width="2" d="m478,1320.3622c0,2.2083 0,6.625 0,6.625v2.0313 1.9687 1.375c0,.5 .5,1 1,1h5l-4-14c0,0-.6667,0-1,0-.5,0-1,.5-1,1zm8.5,6c-.1055,0-.2167,.033-.3125,.062l-2.4375,.8438 .5312,1.875 2.2188-.7813 2.6875,.9375c.1031,.034 .2072,.062 .3125,.062 .1053,0 .2143-.032 .3125-.062l3.1875-.9375 2,.6563v-2.0313l-1.6875-.5625c-.0994-.033-.207-.062-.3125-.062-.1055,0-.2106,.029-.3125,.062l-3.1875,.9375-2.6875-.9375c-.1055-.035-.207-.062-.3125-.062zm0,4c-.1055,0-.2167,.033-.3125,.062l-1.375,.4688 .5312,1.875 1.1562-.4063 2.6875,.9375c.1031,.034 .2072,.062 .3125,.062 .1053,0 .2143-.032 .3125-.062l3.1875-.9375 2,.6563v-2.0313l-1.6875-.5625c-.0994-.033-.207-.062-.3125-.062-.1055,0-.2106,.029-.3125,.062l-3.1875,.9375-2.6875-.9375c-.1055-.035-.207-.062-.3125-.062z"/>
<path fill="#444" d="m478,1320.3622c0,2.2083 0,6.625 0,6.625v2.0313 1.9687 1.375c0,.5 .5,1 1,1h5l-4-14c0,0-.6667,0-1,0-.5,0-1,.5-1,1zm8.5,6c-.1055,0-.2167,.033-.3125,.062l-2.4375,.8438 .5312,1.875 2.2188-.7813 2.6875,.9375c.1031,.034 .2072,.062 .3125,.062 .1053,0 .2143-.032 .3125-.062l3.1875-.9375 2,.6563v-2.0313l-1.6875-.5625c-.0994-.033-.207-.062-.3125-.062-.1055,0-.2106,.029-.3125,.062l-3.1875,.9375-2.6875-.9375c-.1055-.035-.207-.062-.3125-.062zm0,4c-.1055,0-.2167,.033-.3125,.062l-1.375,.4688 .5312,1.875 1.1562-.4063 2.6875,.9375c.1031,.034 .2072,.062 .3125,.062 .1053,0 .2143-.032 .3125-.062l3.1875-.9375 2,.6563v-2.0313l-1.6875-.5625c-.0994-.033-.207-.062-.3125-.062-.1055,0-.2106,.029-.3125,.062l-3.1875,.9375-2.6875-.9375c-.1055-.035-.207-.062-.3125-.062z"/>
</g>
<g transform="translate(-476 -1314.36218)">
<path opacity=".5" fill="none" color="#000" d="m476,1314.36h24v24h-24z"/>
</g>
</svg>
