<svg xmlns="http://www.w3.org/2000/svg" viewBox="0 0 24 24">
<g color="#000" transform="translate(-1 -1004.3622)">
<path opacity=".3" fill="none" stroke="#fff" stroke-linejoin="round" stroke-linecap="round" stroke-width="2" d="m11,1006.3622-2,1-2,1 0,15c0,.5 .5,1 1,1 .5,0 1-.5 1-1v-9c0,0 1-.5 2.0001-1 1.9999-.9999 4.2112,2.8943 6,1.9999 2.0001-1 3-1.4999 3-1.4999v-7c0,0-1.0001,.5-3.0001,1.5-1.7889,.8944-3.9998-3-6-2z"/>
<path fill="#444" d="m11,1006.3622-2,1-2,1 0,15c0,.5 .5,1 1,1 .5,0 1-.5 1-1v-9c0,0 1-.5 2.0001-1 1.9999-.9999 4.2112,2.8943 6,1.9999 2.0001-1 3-1.4999 3-1.4999v-7c0,0-1.0001,.5-3.0001,1.5-1.7889,.8944-3.9998-3-6-2z"/>
</g>
<g transform="translate(-396 -1170.3622)">
<path opacity=".5" fill="none" color="#000" d="m396,1170.36h24v24h-24z"/>
</g>
</svg>
