<svg xmlns="http://www.w3.org/2000/svg" viewBox="0 0 24 24">
<g transform="translate(0 -1028.3622)">
<path opacity=".3" fill="#fff" line-height="normal" color="#000" d="m7,2c-.6053,0-1.0678,.2811-1.4062,.625-.3385,.3439-.6044,.772-.5938,1.375v4c.0001,.5236 .4764,.9999 1,1h-2.5c-1.3727,0-2.5,1.1314-2.5,2.5 0,1.3686 1.1333,2.5003 2.5,2.5h2.5c-.5236,.0001-.9999,.4764-1,1v4c.0001,1.1301 .8705,1.9998 2,2h11c1.1295-.0002 1.9999-.8699 2-2v-15c-.0001-1.1301-.8705-1.9998-2-2zm9,4 0,3.9688c-12.5411-1.2243-14.0993-2.4566-15.625-3.6875-.4537-.3124-.875-.2812-.8438-.2969 1.9688,.0156 .9135,.0156 5.4688,.0156zm0,7.0312 0,3.9688-5.4688,0c-2.8109-1.5166-1.7955-.5237 0,0 .2729,.0084 .5466-.0694 .8125-.25 .0217-.02 .0426-.0405 .0625-.0625z" transform="translate(0 1028.3622)"/>
<g fill="#444">
<path d="m10,1035.8622 0,2.5-6.5,0c-.8283,0-1.5,.6764-1.5,1.5039 0,.8275 .6717,1.4963 1.5,1.4961h6.499l.001,2.5c.0052,.3582 .4837,.6359 .7802,.4344l5.0111-4.019c.264-.1741 .2811-.6181 .0312-.8117l-5.0111-3.9725c-.4535-.3124-.8114-.0062-.8114,.3688z"/>
<path line-height="normal" color="#000" d="m7,1031.3622c-.5,0-1.0082,.533-1,.9994v4.0006h2v-3h9v13h-9v-3h-2v4.0006c.0001,.5233 .4764,.9993 1,.9994h11c.5236-.0001 .9999-.4761 1-.9994v-15.0012c-.0001-.5233-.4764-.9993-1-.9994-3.7213,0-7.2951,0-11,0z"/>
</g>
</g>
</svg>
