<svg xmlns="http://www.w3.org/2000/svg" viewBox="0 0 24 24">
<g color="#000" transform="translate(-318 -1122.36218)">
<path opacity=".3" fill="none" stroke="#fff" stroke-linejoin="round" stroke-linecap="round" stroke-width="2" d="m328,1127.3622c-3,0-6,1.5-6,4v2h17v-2c-0-2.5-3-4-6-4zm.5,1c.277,0 .5,.223 .5,.5 0,.277-.223,.5-.5,.5-.277,0-.5-.223-.5-.5 0-.277 .223-.5 .5-.5zm4,0c.277,0 .5,.223 .5,.5 0,.277-.223,.5-.5,.5-.277,0-.5-.223-.5-.5 0-.277 .223-.5 .5-.5zm-6,2c.277,0 .5,.223 .5,.5 0,.277-.223,.5-.5,.5-.277,0-.5-.223-.5-.5 0-.277 .223-.5 .5-.5zm4,0c.277,0 .5,.223 .5,.5 0,.277-.223,.5-.5,.5-.277,0-.5-.223-.5-.5 0-.277 .223-.5 .5-.5zm4,0c.277,0 .5,.223 .5,.5 0,.277-.223,.5-.5,.5-.277,0-.5-.223-.5-.5 0-.277 .223-.5 .5-.5zm-12.5,4c-.5,0-1,.5-1,1 0,.5 .5,1 1,1h17c.5,0 1-.5 1-1 0-.5-.5-1-1-1zm0,3 0,1c0,1 1,2 2,2h13c1,0 2-1 2-2v-1z"/>
<path fill="#444" d="m328,1127.3622c-3,0-6,1.5-6,4v2h17v-2c-0-2.5-3-4-6-4zm.5,1c.277,0 .5,.223 .5,.5 0,.277-.223,.5-.5,.5-.277,0-.5-.223-.5-.5 0-.277 .223-.5 .5-.5zm4,0c.277,0 .5,.223 .5,.5 0,.277-.223,.5-.5,.5-.277,0-.5-.223-.5-.5 0-.277 .223-.5 .5-.5zm-6,2c.277,0 .5,.223 .5,.5 0,.277-.223,.5-.5,.5-.277,0-.5-.223-.5-.5 0-.277 .223-.5 .5-.5zm4,0c.277,0 .5,.223 .5,.5 0,.277-.223,.5-.5,.5-.277,0-.5-.223-.5-.5 0-.277 .223-.5 .5-.5zm4,0c.277,0 .5,.223 .5,.5 0,.277-.223,.5-.5,.5-.277,0-.5-.223-.5-.5 0-.277 .223-.5 .5-.5zm-12.5,4c-.5,0-1,.5-1,1 0,.5 .5,1 1,1h17c.5,0 1-.5 1-1 0-.5-.5-1-1-1zm0,3 0,1c0,1 1,2 2,2h13c1,0 2-1 2-2v-1z"/>
</g>
<g transform="translate(-318 -1122.36218)">
<path opacity=".5" fill="none" color="#000" d="m318,1122.36h24v24h-24z"/>
</g>
</svg>
