<svg xmlns="http://www.w3.org/2000/svg" viewBox="0 0 24 24">
<g color="#000" transform="translate(-84 -1338.3622)">
<path opacity=".3" fill="#fff" stroke="#fff" stroke-linejoin="round" stroke-width="2" d="m214,289c-.554,0-1,.446-1,1h-2c-.554,0-1,.446-1,1v6.0625l-2,.9375 2,4v2c1.5,0 2.5,1.0005 3.5,1 1,.0005 1.5-1 3-1 1.5,0 2,.9995 3,1 1,.0005 2-1 3.5-1v-2l2-4-2-.9375v-6.0625c0-.554-.446-1-1-1h-2c0-.554-.446-1-1-1h-5zm-2,3 9,0 0,4.125-4.5-2.125-4.5,2.125 0-4.125zm-2,14c-.6941,0-1.3398,.4049-2,.625v2.0312c0,0 1-.6558 2-.6562 1-.0005 2,1 3.5,1 1.5,0 1.9735-.9653 3-1 1,.0005 1.5,1 3,1 1.5,0 2.5-1 3.5-1 .7017,0 2,.6562 2,.6562v-2.0312c-.6416-.2468-1.3434-.625-2-.625-1.5,0-2.5,1.0005-3.5,1-1-.0005-1.5-1-3-1-1.5,0-2,1.0005-3,1-1,.0005-2-1-3.5-1z" transform="translate(-120 1050.3622)"/>
<path fill="#444" d="m214,289c-.554,0-1,.446-1,1h-2c-.554,0-1,.446-1,1v6.0625l-2,.9375 2,4v2c1.5,0 2.5,1.0005 3.5,1 1,.0005 1.5-1 3-1 1.5,0 2,.9995 3,1 1,.0005 2-1 3.5-1v-2l2-4-2-.9375v-6.0625c0-.554-.446-1-1-1h-2c0-.554-.446-1-1-1h-5zm-2,3 9,0 0,4.125-4.5-2.125-4.5,2.125 0-4.125zm-2,14c-.6941,0-1.3398,.4049-2,.625v2.0312c0,0 1-.6558 2-.6562 1-.0005 2,1 3.5,1 1.5,0 1.9735-.9653 3-1 1,.0005 1.5,1 3,1 1.5,0 2.5-1 3.5-1 .7017,0 2,.6562 2,.6562v-2.0312c-.6416-.2468-1.3434-.625-2-.625-1.5,0-2.5,1.0005-3.5,1-1-.0005-1.5-1-3-1-1.5,0-2,1.0005-3,1-1,.0005-2-1-3.5-1z" transform="translate(-120 1050.3622)"/>
</g>
<g transform="translate(-84 -1338.3622)">
<path opacity=".3" fill="none" color="#000" d="m84,1338.36h24v24h-24z"/>
</g>
</svg>
