<svg xmlns="http://www.w3.org/2000/svg" viewBox="0 0 24 24">
<g color="#000" transform="translate(-1 -1004.3622)">
<path opacity=".3" fill="#fff" stroke="#fff" stroke-linejoin="round" stroke-linecap="round" stroke-width="2" d="m9,1007.3622c-.554,0-1,.446-1,1v16c0,.5 .5,1 1,1h9c.5,0 1-.5 1-1v-5h.5c.5,0 .5,.5 .5,.5v2c0,1 .5,1.5 1.5,1.5 1,0 1.5-.5 1.5-1.5 0-1.1667 0-4.5 0-5.5 0-1-2-2-2-3v-3h-1l-1-1v-1c0-.554-.446-1-1-1zm1,2 7,0 0,4-7,0zm9,3 1,0c0,0 0,.8333 0,1.5 0,1 2,2 2,3v5c0,.5-.5,.5-.5,.5 0,0-.5,0-.5-.5 0,0 0-2 0-2.5 0-.5-.5-1-1-1-.3333,0-1,0-1,0z"/>
<path fill="#444" d="m9,1007.3622c-.554,0-1,.446-1,1v16c0,.5 .5,1 1,1h9c.5,0 1-.5 1-1v-5h.5c.5,0 .5,.5 .5,.5v2c0,1 .5,1.5 1.5,1.5 1,0 1.5-.5 1.5-1.5 0-1.1667 0-4.5 0-5.5 0-1-2-2-2-3v-3h-1l-1-1v-1c0-.554-.446-1-1-1zm1,2 7,0 0,4-7,0zm9,3 1,0c0,0 0,.8333 0,1.5 0,1 2,2 2,3v5c0,.5-.5,.5-.5,.5 0,0-.5,0-.5-.5 0,0 0-2 0-2.5 0-.5-.5-1-1-1-.3333,0-1,0-1,0z"/>
</g>
<g transform="translate(-84 -1170.3622)">
<path opacity=".5" fill="none" color="#000" d="m84,1170.36h24v24h-24z"/>
</g>
</svg>
