<svg xmlns="http://www.w3.org/2000/svg" viewBox="0 0 24 24">
<g color="#000" transform="translate(-162 -1194.3622)">
<g fill="#444">
<path opacity=".3" stroke="#fff" stroke-linejoin="round" stroke-linecap="round" stroke-width="2" d="m170.3,1198.3622c-.253,0-.3,.5596-.3,1v2c0,2.0312 2,3.0625 4,3v8c-1-2-4-5-7-4 0,0 2.5,6 7.5,6 5,0 7.5-6 7.5-6-3-1-6,2-7,4v-8c2,.062 4-.9688 4-3v-2c0-.4404-.0468-1-.3-1-.1929,0-.4256,.2256-.7,.5l-1.5,1.5-1.5-1.6875c-.1566-.1761-.247-.3125-.5-.3125-.2531,0-.3434,.1364-.5,.3125l-1.5,1.6875-1.5-1.5c-.2744-.2744-.5071-.5-.7-.5z"/>
<path d="m170.3,1198.3622c-.253,0-.3,.5596-.3,1v2c0,2.0312 2,3.0625 4,3v8c-1-2-4-5-7-4 0,0 2.5,6 7.5,6 5,0 7.5-6 7.5-6-3-1-6,2-7,4v-8c2,.062 4-.9688 4-3v-2c0-.4404-.0468-1-.3-1-.1929,0-.4256,.2256-.7,.5l-1.5,1.5-1.5-1.6875c-.1566-.1761-.247-.3125-.5-.3125-.2531,0-.3434,.1364-.5,.3125l-1.5,1.6875-1.5-1.5c-.2744-.2744-.5071-.5-.7-.5z"/>
</g>
<path opacity=".5" fill="none" d="m162,1194.36h24v24h-24z"/>
</g>
</svg>
