<svg xmlns="http://www.w3.org/2000/svg" viewBox="0 0 24 24">
<g color="#000" transform="translate(-389 -1243.3622)">
<path opacity=".3" fill="#fff" stroke="#fff" stroke-linejoin="round" stroke-linecap="round" stroke-width="2" d="m443,195 2,16c.0625,.5 .5,1 1,1h9c.5,0 .9375-.5 1-1l2-16zm2.25,2 10.5,0-.4688,4-9.5625,0z" transform="translate(-49 1051.3622)"/>
<path fill="#444" d="m443,195 2,16c.0625,.5 .5,1 1,1h9c.5,0 .9375-.5 1-1l2-16zm2.25,2 10.5,0-.4688,4-9.5625,0z" transform="translate(-49 1051.3622)"/>
</g>
</svg>
