<svg xmlns="http://www.w3.org/2000/svg" viewBox="0 0 24 24">
<g color="#000" transform="translate(-474 -1194.3622)">
<path opacity=".3" fill="none" stroke="#fff" stroke-linejoin="round" stroke-linecap="round" stroke-width="2" d="m483.5,1196.3623c-.3415,0-.5,0-.5,.5v14.4375c-2,.062-3,1.5625-3,2.5625 0,.5 .5,.5 .5,.5h12c0,0 .5,0 .5-.5 0-2.5-1.5-4.5-3-4.5-1.5723,0-2.4431,2.7803-4,3-.6827,.096-1.3424-.3453-2-.6875v-9.3125l7-3-6.4984-2.785c-.3765-.1613-.7515-.215-1.0016-.215z"/>
<path fill="#444" d="m483.5,1196.3623c-.3415,0-.5,0-.5,.5v14.4375c-2,.062-3,1.5625-3,2.5625 0,.5 .5,.5 .5,.5h12c0,0 .5,0 .5-.5 0-2.5-1.5-4.5-3-4.5-1.5723,0-2.4431,2.7803-4,3-.6827,.096-1.3424-.3453-2-.6875v-9.3125l7-3-6.4984-2.785c-.3765-.1613-.7515-.215-1.0016-.215z"/>
</g>
<g transform="translate(-474 -1194.3622)">
<path opacity=".5" fill="none" color="#000" d="m474,1194.36h24v24h-24z"/>
</g>
</svg>
