<svg xmlns="http://www.w3.org/2000/svg" viewBox="0 0 24 24">
<g color="#000" transform="translate(-1 23.00012)">
<path opacity=".3" fill="#fff" stroke="#fff" stroke-linejoin="round" stroke-linecap="round" stroke-width="2" d="m21-19c-.5833,0-1.1009,.1634-1.4688,.5312-.3679,.3679-.5312,.8854-.5312,1.4688h-14l2,9h12v1h-11c-1,0-1,1 0,1h1.5 8 1.5c.5,0 1-.5 1-1v-1-8-1c0,0 .0866-.6491 .2188-.7812 .1321-.1321 .3646-.2188 .7812-.2188 .111,0 .2922,0 .4,0 .5,0 .6-.2487 .6-.5 0-.2474-.1-.5-.6-.5-.131,0-.2628,0-.4,0zm-3.5,13c-.8284,0-1.5,.6716-1.5,1.5 0,.8284 .6716,1.5 1.5,1.5 .8284,0 1.5-.6716 1.5-1.5 0-.8284-.6716-1.5-1.5-1.5zm-8,0c-.8284,0-1.5,.6716-1.5,1.5 0,.8284 .6716,1.5 1.5,1.5 .8284,0 1.5-.6716 1.5-1.5 0-.8284-.6716-1.5-1.5-1.5z"/>
<path fill="#444" d="m21-19c-.5833,0-1.1009,.1634-1.4688,.5312-.3679,.3679-.5312,.8854-.5312,1.4688h-14l2,9h12v1h-11c-1,0-1,1 0,1h1.5 8 1.5c.5,0 1-.5 1-1v-1-8-1c0,0 .0866-.6491 .2188-.7812 .1321-.1321 .3646-.2188 .7812-.2188 .111,0 .2922,0 .4,0 .5,0 .6-.2487 .6-.5 0-.2474-.1-.5-.6-.5-.131,0-.2628,0-.4,0zm-3.5,13c-.8284,0-1.5,.6716-1.5,1.5 0,.8284 .6716,1.5 1.5,1.5 .8284,0 1.5-.6716 1.5-1.5 0-.8284-.6716-1.5-1.5-1.5zm-8,0c-.8284,0-1.5,.6716-1.5,1.5 0,.8284 .6716,1.5 1.5,1.5 .8284,0 1.5-.6716 1.5-1.5 0-.8284-.6716-1.5-1.5-1.5z"/>
</g>
<g transform="translate(-318 -1194.36218)">
<path opacity=".5" fill="none" color="#000" d="m318,1194.36h24v24h-24z"/>
</g>
</svg>
