<svg xmlns="http://www.w3.org/2000/svg" viewBox="0 0 24 24">
<g color="#000" transform="translate(0 -1028.3622)">
<path opacity=".3" fill="#fff" stroke="#fff" stroke-linejoin="round" stroke-width="2" d="m6,1032.8622c-1.6569,0-3,1.3431-3,3 0,1.6569 1.3431,3 3,3 .6847,0 1.3076-.2389 1.8125-.625l2.4062,1.625-2.4062,1.625c-.5049-.3861-1.1278-.625-1.8125-.625-1.6569,0-3,1.3431-3,3 0,1.6569 1.3431,3 3,3 1.6569,0 3-1.3431 3-3 0-.2658-.0601-.5046-.125-.75l13.625-9.0937c-.5-.3334-1-.6563-2-.6563h-1.5c-1,0-1.5012,.3238-2,.6563l-6,4-2.125-1.4063c.0649-.2454 .125-.4842 .125-.75 0-1.6569-1.3431-3-3-3zm9.125,7.9063-2.75,1.8437 4.625,3.0938c.4988,.3325 1,.6562 2,.6562h1.5c1,0 1.5-.3228 2-.6562z"/>
<path fill="#444" d="m6,1032.8622c-1.6569,0-3,1.3431-3,3 0,1.6569 1.3431,3 3,3 .6847,0 1.3076-.2389 1.8125-.625l2.4062,1.625-2.4062,1.625c-.5049-.3861-1.1278-.625-1.8125-.625-1.6569,0-3,1.3431-3,3 0,1.6569 1.3431,3 3,3 1.6569,0 3-1.3431 3-3 0-.2658-.0601-.5046-.125-.75l13.625-9.0937c-.5-.3334-1-.6563-2-.6563h-1.5c-1,0-1.5012,.3238-2,.6563l-6,4-2.125-1.4063c.0649-.2454 .125-.4842 .125-.75 0-1.6569-1.3431-3-3-3zm9.125,7.9063-2.75,1.8437 4.625,3.0938c.4988,.3325 1,.6562 2,.6562h1.5c1,0 1.5-.3228 2-.6562z"/>
</g>
</svg>
