<svg xmlns="http://www.w3.org/2000/svg" viewBox="0 0 24 24">
<g color="#000" transform="translate(-84 -1362.3622)">
<path opacity=".3" fill="#fff" stroke="#fff" stroke-linejoin="round" stroke-width="2" d="m101.5,1365.3622c-1.933,0-3.5,1.567-3.5,3.5 0,.4384 .1028,.8633 .25,1.25l-8.25,8.25c0-1 0-3 0-4 0-1.5 1-2 1-2l1,1c0,0 0-2.6667 0-4 0-1-.5-.5-1,0-3,3-3,2.9724-3,5v4 3c0,.5 .5,1 1,1h3 4c2.0276,0 3.6667-1.6667 5-3 .5-.5 .9999-.9874 0-1h-4l1,1c0,0-.5,1-2,1-1,0-3,0-4,0l8.25-8.25c.3867,.1472 .8116,.25 1.25,.25 1.933,0 3.5-1.567 3.5-3.5 0-1.933-1.567-3.5-3.5-3.5zm0,2c.8284,0 1.5,.6716 1.5,1.5 0,.8284-.6716,1.5-1.5,1.5-.8284,0-1.5-.6716-1.5-1.5 0-.8284 .6716-1.5 1.5-1.5z"/>
<path opacity=".3" fill="none" d="m84,1362.36h24v24h-24z"/>
<path fill="#444" d="m101.5,1365.3622c-1.933,0-3.5,1.567-3.5,3.5 0,.4384 .1028,.8633 .25,1.25l-8.25,8.25c0-1 0-3 0-4 0-1.5 1-2 1-2l1,1c0,0 0-2.6667 0-4 0-1-.5-.5-1,0-3,3-3,2.9724-3,5v4 3c0,.5 .5,1 1,1h3 4c2.0276,0 3.6667-1.6667 5-3 .5-.5 .9999-.9874 0-1h-4l1,1c0,0-.5,1-2,1-1,0-3,0-4,0l8.25-8.25c.3867,.1472 .8116,.25 1.25,.25 1.933,0 3.5-1.567 3.5-3.5 0-1.933-1.567-3.5-3.5-3.5zm0,2c.8284,0 1.5,.6716 1.5,1.5 0,.8284-.6716,1.5-1.5,1.5-.8284,0-1.5-.6716-1.5-1.5 0-.8284 .6716-1.5 1.5-1.5z"/>
</g>
</svg>
