<svg xmlns="http://www.w3.org/2000/svg" viewBox="0 0 24 24">
<g color="#000" transform="translate(0 -1026.3622)">
<path opacity=".3" fill="#fff" line-height="normal" d="m7.8032,1031.3731c-.6883,.047-1.368,.2231-1.9726,.5324-2.4185,1.2377-3.796,4.4927-2.0353,7.8931 1.6898,3.2632 5.924,7.4001 8.0158,9.3024 .3677,.3483 1.01,.3483 1.3777,0 2.0919-1.9023 6.3261-6.0392 8.0158-9.3024 1.7607-3.4004 .3832-6.6554-2.0353-7.8931-2.0695-1.0589-4.832-.5235-6.6694,1.7541-1.3006-1.6122-3.0293-2.4007-4.6968-2.2865z"/>
<path fill="#444" d="m20.2849,1039.3442c-1.5185,2.9316-5.7489,7.167-7.785,9.018-2.0361-1.851-6.2664-6.0864-7.7849-9.018-3.114-6.012 4.7701-10.02 7.7849-4.008 3.0148-6.012 10.8989-2.004 7.785,4.008z"/>
</g>
</svg>
