<svg xmlns="http://www.w3.org/2000/svg" viewBox="0 0 24 24">
<g color="#000" transform="translate(-84 -1073.3622)">
<path opacity=".3" fill="#fff" stroke="#fff" stroke-linejoin="round" stroke-linecap="round" stroke-width="2" d="m96.25,1091.3622 8.75,0c.5,0 1-.5 1-1v-3c0-1-.4808-1.4808-1-2 0,0-.6667-.6667-1-1-.3333-.3333-1-1-2-1h-3v-2h4 2c.554,0 1-.446 1-1 0-.554-.446-1-1-1h-2-3.5-1-4.5-1-1c-.554,0-1,.446-1,1 0,.554 .446,1 1,1h1 1 4v2h-3-4.2812c-.346-.5969-.9791-1-1.7188-1-1.1046,0-2,.8954-2,2 0,1.1046 .8954,2 2,2 .577,0 1.0725-.2653 1.4375-.6562l3.5625,3.6562c1,1.0263 1.75,2 2.25,2zm-7.25-8c.5523,0 1,.4477 1,1 0,.5523-.4477,1-1,1-.5523,0-1-.4477-1-1 0-.5523 .4477-1 1-1z"/>
<path fill="#444" d="m96.25,1091.3622 8.75,0c.5,0 1-.5 1-1v-3c0-1-.4808-1.4808-1-2 0,0-.6667-.6667-1-1-.3333-.3333-1-1-2-1h-3v-2h4 2c.554,0 1-.446 1-1 0-.554-.446-1-1-1h-2-3.5-1-4.5-1-1c-.554,0-1,.446-1,1 0,.554 .446,1 1,1h1 1 4v2h-3-4.2812c-.346-.5969-.9791-1-1.7188-1-1.1046,0-2,.8954-2,2 0,1.1046 .8954,2 2,2 .577,0 1.0725-.2653 1.4375-.6562l3.5625,3.6562c1,1.0263 1.75,2 2.25,2zm-7.25-8c.5523,0 1,.4477 1,1 0,.5523-.4477,1-1,1-.5523,0-1-.4477-1-1 0-.5523 .4477-1 1-1z"/>
</g>
<g transform="translate(-84 -1074.3622)">
<path opacity=".5" fill="none" color="#000" d="m84,1074.36h24v24h-24z"/>
</g>
</svg>
