<svg xmlns="http://www.w3.org/2000/svg" viewBox="0 0 24 24">
<g color="#000" transform="translate(0 -1004.36218)">
<path opacity=".3" fill="none" stroke="#fff" stroke-width="2" d="m11,4c-.554,0-1,.446-1,1v4h-4c-.554,0-1,.446-1,1v3c0,.554 .446,1 1,1h4v4c0,.554 .446,1 1,1h3c.554,0 1.0687-.4503 1-1v-4h4c.554,0 1-.446 1-1v-3c0-.554-.446-1-1-1h-4v-4c0-.554-.446-1-1-1z" transform="translate(0 1004.3622)"/>
<path fill="#444" d="m83,124c-.554,0-1,.446-1,1v4h-4c-.554,0-1,.446-1,1v3c0,.554 .446,1 1,1h4v4c0,.554 .446,1 1,1h3c.554,0 1-.446 1-1v-4h4c.554,0 1-.446 1-1v-3c0-.554-.446-1-1-1h-4v-4c0-.554-.446-1-1-1z" transform="translate(-72 884.3622)"/>
</g>
<g transform="translate(-240 -1122.36218)">
<path opacity=".5" fill="none" color="#000" d="m240,1122.36h24v24h-24z"/>
</g>
</svg>
