<svg xmlns="http://www.w3.org/2000/svg" viewBox="0 0 24 24">
<g color="#000" transform="translate(-630.00002 -1098.36218)">
<path opacity=".3" fill="#fff" stroke="#fff" stroke-linejoin="round" stroke-width="2" d="m646,1102.3622c0,1.3333 0,4 0,4h-3v-3l-4,3v-3l-4,3c-.4432,.3324-1,.5-1,1.5v8.5c0,.554 .446,1 1,1h15c.554,0 1-.446 1-1v-9c0-.554-.446-1-1-1h-2c0,0 0-2.6667 0-4 0-.5-.5286-1-1-1-.4714,0-1,.5-1,1z"/>
<path fill="#444" d="m646,1102.3622c0,1.3333 0,4 0,4h-3v-3l-4,3v-3l-4,3c-.4432,.3324-1,.5-1,1.5v8.5c0,.554 .446,1 1,1h15c.554,0 1-.446 1-1v-9c0-.554-.446-1-1-1h-2c0,0 0-2.6667 0-4 0-.5-.5286-1-1-1-.4714,0-1,.5-1,1z"/>
<path opacity=".5" fill="none" d="m630,1098.36h24v24h-24z"/>
</g>
</svg>
