<svg xmlns="http://www.w3.org/2000/svg" viewBox="0 0 24 24">
<g color="#000" transform="translate(-630 -1242.36218)">
<path opacity=".3" fill="#fff" stroke="#fff" stroke-linejoin="round" stroke-linecap="round" stroke-width="2" d="m637.5,1245.3622c-.5,0-.7834,.1967-1,.5l-2.5,3.5h2v3h5v-3h2l-2.5-3.5c-.2166-.3033-.5-.5-1-.5zm12.5,0 0,2-4,0c-.5,0-1,.5-1,1v4h6v-7zm-14,9c-.5,0-1,.5-1,1v7h2v-2h1v2h4v-7c0-.5-.5-1-1-1zm12-1-3,4 1.5,0-1.5,3 2,0 0,2 2,0 0-2 2,0-1.5-3 1.5,0z"/>
<path fill="#444" d="m757.5,195c-.5,0-.7834,.1967-1,.5l-2.5,3.5h2v3h5v-3h2l-2.5-3.5c-.2166-.3033-.5-.5-1-.5h-2zm12.5,0 0,2-4,0c-.5,0-1,.5-1,1v4h6v-7h-1zm-2,8-3,4 1.5,0-1.5,3 2,0 0,2 2,0 0-2 2,0-1.5-3 1.5,0-3-4zm-12,1c-.5,0-1,.5-1,1v7h2v-2h1v2h4v-7c0-.5-.5-1-1-1h-5zm1,2 1,0 0,1-1,0 0-1zm2,0 1,0 0,1-1,0 0-1zm-2,2 1,0 0,1-1,0 0-1zm2,0 1,0 0,1-1,0 0-1zm0,2 1,0 0,1-1,0 0-1z" transform="translate(-120 1050.3622)"/>
<path opacity=".5" fill="none" d="m630,1242.36h24v24h-24z"/>
</g>
</svg>
