<svg xmlns="http://www.w3.org/2000/svg" viewBox="0 0 24 24">
<g transform="translate(-240 -1096.3622)">
<path opacity=".3" fill="none" stroke="#fff" stroke-linejoin="round" stroke-linecap="round" color="#000" stroke-width="2" d="m244,1101.3622 0,10c3,3 7,2 7,4h1v-9c0-3-5-3-8-5zm17,0c-3,2-8,2-8,5v9h1c0-2 4-1 7-4z"/>
</g>
<g transform="translate(-240 -1097.3622)">
<path fill="#444" color="#000" d="m244,1102.3622 0,10c3,3 7,2 7,4h1v-9c0-3-5-3-8-5zm17,0c-3,2-8,2-8,5v9h1c0-2 4-1 7-4z"/>
</g>
<g transform="translate(-240 -1098.3622)">
<path opacity=".5" fill="none" color="#000" d="m240,1098.36h24v24h-24z"/>
</g>
</svg>
