<svg xmlns="http://www.w3.org/2000/svg" viewBox="0 0 24 24">
<g color="#000" transform="translate(-474 -1242.36218)">
<path opacity=".3" fill="#fff" stroke="#fff" stroke-linejoin="round" stroke-linecap="round" stroke-width="2" d="m768,97-7.5,7.5 1.25,1.25 7.25-7.25 .5,.5-7.25,7.25 1.25,1.25 7.5-7.5 0-2-1-1zm-11.5,5.5-2.5,2.5 .5,.5 1,0 1-1 1,1-3.5,3.5 0,2 3,3 2,0 4.5-4.5z" transform="translate(-276 1148.3622)"/>
<path fill="#444" d="m768,97-7.5,7.5 1.25,1.25 7.25-7.25 .5,.5-7.25,7.25 1.25,1.25 7.5-7.5 0-2-1-1zm-11.5,5.5-2.5,2.5 .5,.5 1,0 1-1 1,1-3.5,3.5 0,2 3,3 2,0 4.5-4.5z" transform="translate(-276 1148.3622)"/>
</g>
<g transform="translate(-476 -1242.36218)">
<path opacity=".5" fill="none" color="#000" d="m476,1242.36h24v24h-24z"/>
</g>
</svg>
