<svg xmlns="http://www.w3.org/2000/svg" viewBox="0 0 24 24">
<g transform="translate(-84 -1266.3622)">
<path opacity=".5" fill="none" color="#000" d="m84,1266.36h24v24h-24z"/>
</g>
<g color="#000" transform="translate(-84 -1266.3622)">
<path opacity=".3" fill="#fff" stroke="#fff" stroke-linejoin="round" stroke-width="2" d="m96.5,1270.3622c-3.6244,0-6.6444,2.5824-7.3438,6h-1.1562c-.5,0-1,.5-1,1v1c0,.5 .5,1 1,1h1.1562c.6993,3.4177 3.7194,6 7.3438,6 3.6244,0 6.6444-2.5823 7.3438-6h1.1562c.5,0 1-.5 1-1v-1c0-.5-.5-1-1-1h-1.1562c-.6993-3.4176-3.7194-6-7.3438-6zm0,2.5c2.0565,0 3.8684,1.6577 4.5,3.5h-9c.6316-1.8423 2.4435-3.5 4.5-3.5zm-4.5,6.5 9,0c-.6316,1.8423-2.4435,3.5-4.5,3.5-2.0565,0-3.8684-1.6577-4.5-3.5z"/>
<path fill="#444" d="m96.5,1270.3622c-3.6244,0-6.6444,2.5824-7.3438,6h-1.1562c-.5,0-1,.5-1,1v1c0,.5 .5,1 1,1h1.1562c.6993,3.4177 3.7194,6 7.3438,6 3.6244,0 6.6444-2.5823 7.3438-6h1.1562c.5,0 1-.5 1-1v-1c0-.5-.5-1-1-1h-1.1562c-.6993-3.4176-3.7194-6-7.3438-6zm0,2.5c2.0565,0 3.8684,1.6577 4.5,3.5h-9c.6316-1.8423 2.4435-3.5 4.5-3.5zm-4.5,6.5 9,0c-.6316,1.8423-2.4435,3.5-4.5,3.5-2.0565,0-3.8684-1.6577-4.5-3.5z"/>
</g>
</svg>
