<svg xmlns="http://www.w3.org/2000/svg" viewBox="0 0 24 24">
<g color="#000" transform="translate(-101.99314 -301.36219)">
<path opacity=".3" fill="#fff" stroke="#fff" stroke-linejoin="round" stroke-width="2" d="m114.4931,304.3622c-3.2287,0-6.5,3-6.5,6.5 0,3.5 5,9.5 6.5,11.5 1.5-2 6.5-8 6.5-11.5 0-3.5-3.2713-6.5-6.5-6.5zm0,2c2.5112,0 4.5,1.7778 4.5,4.5 0,2.7222-3.3333,6.9444-4.5,8.5-1.1667-1.5556-4.5-5.7778-4.5-8.5 0-2.7222 1.9888-4.5 4.5-4.5z"/>
<path fill="#444" d="m114.4931,304.3622c-3.2287,0-6.5,3-6.5,6.5 0,3.5 5,9.5 6.5,11.5 1.5-2 6.5-8 6.5-11.5 0-3.5-3.2713-6.5-6.5-6.5zm0,2c2.5112,0 4.5,1.7778 4.5,4.5 0,2.7222-3.3333,6.9444-4.5,8.5-1.1667-1.5556-4.5-5.7778-4.5-8.5 0-2.7222 1.9888-4.5 4.5-4.5z"/>
</g>
<g transform="translate(72 -1266.3622)">
<path opacity=".5" fill="none" color="#000" d="m-72,1266.36h24v24h-24z"/>
</g>
</svg>
