<svg xmlns="http://www.w3.org/2000/svg" viewBox="0 0 24 24">
<g transform="translate(72 -1257.3622)">
<path opacity=".3" fill="#fff" stroke="#fff" stroke-linejoin="round" color="#000" stroke-width="2" d="m-53,1266.8622c0,3.5-5,9.5-6.5,11.5-1.5-2-6.5-8-6.5-11.5 0-3.5 3.2713-6.5 6.5-6.5 3.2287,0 6.5,3 6.5,6.5z"/>
</g>
<g transform="translate(-101.99314 -301.36219)">
<path fill="#444" color="#000" d="m120.9931,310.8622c0,3.5-5,9.5-6.5,11.5-1.5-2-6.5-8-6.5-11.5 0-3.5 3.2713-6.5 6.5-6.5 3.2287,0 6.5,3 6.5,6.5z"/>
</g>
<g transform="translate(72 -1290.3622)">
<path opacity=".5" fill="none" color="#000" d="m-72,1290.36h24v24h-24z"/>
</g>
</svg>
