<svg xmlns="http://www.w3.org/2000/svg" viewBox="0 0 24 24">
<g color="#000" transform="translate(-552 -1122.3622)">
<path opacity=".3" fill="#fff" stroke="#fff" stroke-linejoin="round" stroke-linecap="round" stroke-width="2" d="m683.5,76-2.5,7-6-4 2,6.5c.4583,1.4895 1,1.5 2,1.5h2v-1h5v1h2c1,0 1.5064-.4306 2-1.5l2-6.5-6,4-2.5-7zm-1.5,11 0,1c-2.216,0-4,.669-4,1.5 0,.831 1.784,1.5 4,1.5h3c2.216,0 4-.669 4-1.5 0-.831-1.784-1.5-4-1.5v-1h-3z" transform="translate(-120 1050.3622)"/>
<path fill="#444" d="m564.5,1126.3622-2.5,7-6-4 2,6.5c.4583,1.4895 1,1.5 2,1.5h2v-1h5v1h2c1,0 1.5064-.4306 2-1.5l2-6.5-6,4-2.5-7zm-1.5,11 0,1c-2.216,0-4,.669-4,1.5 0,.831 1.784,1.5 4,1.5h3c2.216,0 4-.669 4-1.5 0-.831-1.784-1.5-4-1.5v-1h-3z"/>
</g>
<g transform="translate(-552 -1122.3622)">
<path opacity=".5" fill="none" color="#000" d="m552,1122.36h24v24h-24z"/>
</g>
</svg>
