<svg xmlns="http://www.w3.org/2000/svg" viewBox="0 0 24 24">
<g color="#000" transform="translate(-162 -1145.3622)">
<path opacity=".3" fill="#fff" stroke="#fff" stroke-linejoin="round" stroke-linecap="round" stroke-width="2" d="m174.5,1147.3622c0,0-2.5905,2.0041-2.5,3v11h-2c-.554,0-1,.446-1,1v2h-1c-.554,0-1,.446-1,1v1h15v-1c0-.554-.446-1-1-1h-1v-2c0-.554-.446-1-1-1h-2v-11c0-1-2.5-3-2.5-3z"/>
<path fill="#444" d="m174.5,1147.3622c0,0-2.5905,2.0041-2.5,3v11h-2c-.554,0-1,.446-1,1v2h-1c-.554,0-1,.446-1,1v1h15v-1c0-.554-.446-1-1-1h-1v-2c0-.554-.446-1-1-1h-2v-11c0-1-2.5-3-2.5-3z"/>
</g>
<g transform="translate(-162 -1146.3622)">
<path opacity=".5" fill="none" color="#000" d="m162,1146.36h24v24h-24z"/>
</g>
</svg>
