<svg xmlns="http://www.w3.org/2000/svg" viewBox="0 0 24 24">
<g color="#000" transform="translate(-162 -1123.3622)">
<path opacity=".3" fill="#fff" stroke="#fff" stroke-linejoin="round" stroke-linecap="round" stroke-width="2" d="m174.5,1126.3622-6.5,5 13,0zm-5.5,6c-.554,0-.9216,.4516-1,1v7l-1.75,3c-.1483,.2543-.25,.3567-.25,.5 0,.5 .6317,.5 1,.5h15c.355,0 1,0 1-.5 0-.1462-.0866-.2199-.25-.5l-1.75-3v-7c0-.554-.446-1-1-1z"/>
<path fill="#444" d="m174.5,1126.3622-6.5,5 13,0zm-5.5,6c-.554,0-.9216,.4516-1,1v7l-1.75,3c-.1483,.2543-.25,.3567-.25,.5 0,.5 .6317,.5 1,.5h15c.355,0 1,0 1-.5 0-.1462-.0866-.2199-.25-.5l-1.75-3v-7c0-.554-.446-1-1-1zm2,2c.5,0 1,0 1.5,0 .5,0 1,1 1,1l1,2.5 1-2.5c.2232-.558 .5-1 1-1 .5,0 1,0 1.5,0 .554,0 1,.446 1,1v5c0,.5-.5,1-1,1-.5,0-1-.5-1-1v-4l-1.5,3c0,0-.5,1-1,1-.5,0-1-1-1-1l-1.5-3v4c0,.5-.5,1-1,1-.5,0-1-.5-1-1v-1-4c0-.554 .446-1 1-1z"/>
</g>
<g transform="translate(-162 -1122.3622)">
<path opacity=".5" fill="none" color="#000" d="m162,1122.36h24v24h-24z"/>
</g>
</svg>
