<svg xmlns="http://www.w3.org/2000/svg" viewBox="0 0 24 24">
<g color="#000" transform="translate(-474 -1266.36218)">
<path opacity=".3" fill="#fff" stroke="#fff" stroke-linejoin="round" stroke-linecap="round" stroke-width="2" d="m484.5,1269.3622c-.5,0-.8462,.5-1,1l-5.3438,15.9688c-.038,.1133-.1562,.4166-.1562,.5312 0,.5 .5,.5 1,.5 .5,0 .9705,0 1.1562-.5l.8438-2.25 5.5-2.75 5.5,2.75 .8438,2.25c.1858,.5 .6562,.5 1.1562,.5 .5,0 1,0 1-.5 0-.1146-.1182-.418-.1562-.5312l-5.3438-15.9688c-.1538-.5-.5-1-1-1zm4.5,7 .6875,1.9063-3.1875,1.5937-3.1875-1.5937 .6875-1.9063zm-6.3125,3.5938 1.8125,.9062-2.625,1.3125zm7.625,0 .8125,2.2187-2.625-1.3125z"/>
<path fill="#444" d="m484.5,1269.3622c-.5,0-.8462,.5-1,1l-5.3438,15.9688c-.038,.1133-.1562,.4166-.1562,.5312 0,.5 .5,.5 1,.5 .5,0 .9705,0 1.1562-.5l.8438-2.25 5.5-2.75 5.5,2.75 .8438,2.25c.1858,.5 .6562,.5 1.1562,.5 .5,0 1,0 1-.5 0-.1146-.1182-.418-.1562-.5312l-5.3438-15.9688c-.1538-.5-.5-1-1-1zm4.5,7 .6875,1.9063-3.1875,1.5937-3.1875-1.5937 .6875-1.9063zm-6.3125,3.5938 1.8125,.9062-2.625,1.3125zm7.625,0 .8125,2.2187-2.625-1.3125z"/>
</g>
<g transform="translate(-476 -1266.36218)">
<path opacity=".5" fill="none" color="#000" d="m476,1266.36h24v24h-24z"/>
</g>
</svg>
