<svg xmlns="http://www.w3.org/2000/svg" viewBox="0 0 24 24">
<g color="#000" transform="translate(0 -1027.3622)">
<path opacity=".3" fill="none" stroke="#fff" stroke-linejoin="round" stroke-linecap="round" stroke-width="2" d="m12.5,1030.3622-5.5,5 3,0-4,4 3,0-3,4 5,0 0,3 0,.5 0,.5c0,.554 .446,1 1,1h1c.554,0 1-.446 1-1v-.5-.5-3h5l-3-4h3l-4-4h3l-5.5-5z"/>
<path fill="#444" d="m12.5,1030.3622-5.5,5 3,0-4,4 3,0-3,4 5,0 0,3 0,.5 0,.5c0,.554 .446,1 1,1h1c.554,0 1-.446 1-1v-.5-.5-3h5l-3-4h3l-1-1-3-3h3z"/>
</g>
<g transform="translate(-162 -1050.3622)">
<path opacity=".5" fill="none" color="#000" d="m162,1050.36h24v24h-24z"/>
</g>
</svg>
