<svg xmlns="http://www.w3.org/2000/svg" viewBox="0 0 24 24">
<g word-spacing="0" line-height="125%" color="#000" letter-spacing="0" transform="translate(-84 -1212.3622)">
<path opacity=".3" fill="#fff" stroke="#fff" stroke-linejoin="round" stroke-width="2" d="m96.5,1216.3622-6.5,2 0,2 6.5-2 6.5,2 0-2-6.5-2zm-3.0938,4.25 0,11.4063 2.4062,0 0-4.0625 1.0625,0c1.4167,0 2.5156-.3177 3.2812-.9688 .7708-.6511 1.125-1.5834 1.125-2.8125 0-1.1824-.3385-2.0625-1.0625-2.6562-.7188-.5989-1.7708-.9063-3.1562-.9063h-3.6562zm2.4062,1.9688 1.125,0c.6615,0 1.1302,.1354 1.4375,.4062 .3125,.271 .4688,.7136 .4688,1.2813 0,.5625-.1927,.9844-.5625,1.2812-.3698,.2917-.9115,.4375-1.6562,.4375h-.8125v-3.4062z"/>
<path fill="#444" d="m96.5,1216.3622-6.5,2 0,2 6.5-2 6.5,2 0-2-6.5-2zm-3.0938,4.25 0,11.4063 2.4062,0 0-4.0625 1.0625,0c1.4167,0 2.5156-.3177 3.2812-.9688 .7708-.6511 1.125-1.5834 1.125-2.8125 0-1.1824-.3385-2.0625-1.0625-2.6562-.7188-.5989-1.7708-.9063-3.1562-.9063h-3.6562zm2.4062,1.9688 1.125,0c.6615,0 1.1302,.1354 1.4375,.4062 .3125,.271 .4688,.7136 .4688,1.2813 0,.5625-.1927,.9844-.5625,1.2812-.3698,.2917-.9115,.4375-1.6562,.4375h-.8125v-3.4062z"/>
</g>
<g transform="translate(-84 -1218.3622)">
<path opacity=".5" fill="none" color="#000" d="m84,1218.36h24v24h-24z"/>
</g>
</svg>
