<svg xmlns="http://www.w3.org/2000/svg" viewBox="0 0 24 24">
<g transform="translate(-84 -1194.3622)">
<path opacity=".5" fill="none" color="#000" d="m84,1194.36h24v24h-24z"/>
</g>
<g fill="#444" line-height="125%" color="#000" transform="matrix(1.33333 0 0 1.33333 0 -1355.14957)">
<path opacity=".3" fill="#fff" stroke="#fff" stroke-linejoin="round" stroke-width="1.5" d="m8.8711,1025.077 .5977,0c.5586,0 .9766-.1093 1.2539-.3281 .2773-.2226 .416-.5449 .416-.9668-0-.4258-.1172-.7402-.3516-.9434-.2305-.2031-.5938-.3046-1.0898-.3046h-.8262v2.5429m4.1016-1.3593c-0,.9218-.2891,1.6269-.8672,2.1152-.5742,.4883-1.3926,.7324-2.4551,.7324h-.7793v3.0469h-1.8164v-8.5664h2.7363c1.0391,0 1.8281,.2246 2.3672,.6738 .543,.4453 .8144,1.1113 .8145,1.9981"/>
<path d="m8.8711,1025.077 .5977,0c.5586,0 .9766-.1093 1.2539-.3281 .2773-.2226 .416-.5449 .416-.9668-0-.4258-.1172-.7402-.3516-.9434-.2305-.2031-.5938-.3046-1.0898-.3046h-.8262v2.5429m4.1016-1.3593c-0,.9218-.2891,1.6269-.8672,2.1152-.5742,.4883-1.3926,.7324-2.4551,.7324h-.7793v3.0469h-1.8164v-8.5664h2.7363c1.0391,0 1.8281,.2246 2.3672,.6738 .543,.4453 .8144,1.1113 .8145,1.9981"/>
</g>
</svg>
