<svg xmlns="http://www.w3.org/2000/svg" viewBox="0 0 24 24">
<g color="#000" transform="translate(-33 -1074.3622)">
<path opacity=".3" fill="#fff" stroke="#fff" stroke-width="2" d="m52,1085.8622c0-1.0701-.6798-1.9871-1.625-2.3437 .3945-.442 .625-1.0172 .625-1.6563 0-1.3807-1.1193-2.5-2.5-2.5-.1968,0-.3788,.019-.5625,.062-.2093-1.1692-1.2081-2.0625-2.4375-2.0622-1.2294,.0002-2.2282,.8935-2.4375,2.0627-.1837-.043-.3657-.062-.5625-.062-1.3807,0-2.5,1.1193-2.5,2.5 0,.6391 .2305,1.2143 .625,1.6563-.9452,.3566-1.625,1.2731-1.625,2.3432 0,1.3807 1,2.5005 2.5,2.5005h.5l2,3.5v3.4995h3v-3.5l2-3.4995 .7188-.015c1.2812,.0145 2.2812-1.1805 2.2812-2.4855zm-8,2.5 3,0-1,2-1,0z"/>
<path fill="#444" d="m52,1085.8622c0-1.0701-.6798-1.9871-1.625-2.3437 .3945-.442 .625-1.0172 .625-1.6563 0-1.3807-1.1193-2.5-2.5-2.5-.1968,0-.3788,.019-.5625,.062-.2093-1.1692-1.2081-2.0625-2.4375-2.0622-1.2294,.0002-2.2282,.8935-2.4375,2.0627-.1837-.043-.3657-.062-.5625-.062-1.3807,0-2.5,1.1193-2.5,2.5 0,.6391 .2305,1.2143 .625,1.6563-.9452,.3566-1.625,1.2731-1.625,2.3432 0,1.3807 1,2.5005 2.5,2.5005h.5l2,3.5v3.4995h3v-3.5l2-3.4995 .7188-.015c1.2812,.0145 2.2812-1.1805 2.2812-2.4855zm-8,2.5 3,0-1,2-1,0z"/>
</g>
<g transform="translate(-162 -1074.3622)">
<path opacity=".5" fill="none" color="#000" d="m162,1074.36h24v24h-24z"/>
</g>
</svg>
