<svg xmlns="http://www.w3.org/2000/svg" viewBox="0 0 24 24">
<g color="#000" transform="translate(-240 -1146.36218)">
<path opacity=".3" fill="#fff" stroke="#fff" stroke-linejoin="round" stroke-linecap="round" stroke-width="2" d="m252.5,1148.3622c-3.0376,0-5.5,1.1193-5.5,2.5v3c0,1.3807 2.4624,2.5 5.5,2.5 3.0376,0 5.5-1.1193 5.5-2.5v-3c0-1.3807-2.4624-2.5-5.5-2.5zm-5.5,9 0,7.5c0,1.3807 2.4624,2.5 5.5,2.5 3.0376,0 5.5-1.1193 5.5-2.5v-7.5c0-1-.5-1-1-.5-.8386,.8935-2.2278,1.5-4.5,1.5-2.2271,0-3.6351-.6347-4.5-1.5-.5-.5-1-.5-1,.5z"/>
<path fill="#444" d="m252.5,1148.3622c-3.0376,0-5.5,1.1193-5.5,2.5v3c0,1.3807 2.4624,2.5 5.5,2.5 3.0376,0 5.5-1.1193 5.5-2.5v-3c0-1.3807-2.4624-2.5-5.5-2.5zm-5.5,9 0,7.5c0,1.3807 2.4624,2.5 5.5,2.5 3.0376,0 5.5-1.1193 5.5-2.5v-7.5c0-1-.5-1-1-.5-.8386,.8935-2.2278,1.5-4.5,1.5-2.2271,0-3.6351-.6347-4.5-1.5-.5-.5-1-.5-1,.5zm3,3c.7519,.1754 1.5967,.2813 2.5,.2813 .9033,0 1.7481-.1059 2.5-.2813v4c-.7519,.1754-1.5967,.2813-2.5,.2813-.9033,0-1.7481-.1059-2.5-.2813z"/>
</g>
<g transform="translate(-240 -1146.36218)">
<path opacity=".5" fill="none" color="#000" d="m240,1146.36h24v24h-24z"/>
</g>
</svg>
