<svg xmlns="http://www.w3.org/2000/svg" viewBox="0 0 24 24">
<g transform="translate(-6 -1146.3622)">
<path opacity=".3" fill="#fff" stroke="#fff" stroke-linejoin="round" color="#000" stroke-width="2" d="m18.5,1150.3622c0,0-2.5,1-2.5,2 0,.6667 0,1.3958 0,2 0,1-2,1-2,2 0,2.3333 0,9 0,9h9c0,0 0-6.6667 0-9 0-1-2-1-2-2.1875 0-.6042 0-1.2083 0-1.8125 0-1-2.5-2-2.5-2zm-8.5,8c0,2.3333 0,7 0,7h2c0,0 0-4.6667 0-7 0-1-1-1-1-1 0,0-1,0-1,1zm15,0c0,2.3333 0,7 0,7h2c0,0 0-4.6667 0-7 0-1-1-1-1-1 0,0-1,0-1,1z"/>
</g>
<g transform="translate(-6 -1122.3622)">
<path opacity=".5" fill="none" color="#000" d="m6,1122.36h24v24h-24z"/>
</g>
<g transform="translate(-6 -1146.3622)">
<path fill="#444" color="#000" d="m18.5,1150.3622c0,0-2.5,1-2.5,2 0,.6667 0,1.3958 0,2 0,1-2,1-2,2 0,2.3333 0,9 0,9h9c0,0 0-6.6667 0-9 0-1-2-1-2-2.1875 0-.6042 0-1.2083 0-1.8125 0-1-2.5-2-2.5-2zm-8.5,8c0,2.3333 0,7 0,7h2c0,0 0-4.6667 0-7 0-1-1-1-1-1 0,0-1,0-1,1zm15,0c0,2.3333 0,7 0,7h2c0,0 0-4.6667 0-7 0-1-1-1-1-1 0,0-1,0-1,1z"/>
</g>
</svg>
