<svg xmlns="http://www.w3.org/2000/svg" viewBox="0 0 24 24">
<g color="#000" transform="translate(0 -1028.3622)">
<path opacity=".3" fill="#fff" line-height="normal" d="m20.4375,2c-.7666,.04-1.4018,.4275-1.8125,.9375h-.0312l-2.5938,3.0625v-2a.9932,.9932 0 0,0 -1-1h-9c-1.087,0-2,.913-2,2v13c0,1.087 .913,2 2,2h13c1.087,0 2-.913 2-2v-6a.9932,.9932 0 0,0 -1-1h-1.5938l4.0625-4.9062a1.0001,1.0001 0 0,0 .0312-.0312c.2895-.4067 .4121-.8544 .4688-1.3125 .0566-.4581 .0688-.9585-.2188-1.4688-.4874-.8645-1.3905-1.33-2.3125-1.2812zm-5.25,4.9688l-2.2188,2.625-1.0625-1.25c-.9342-1.0925-2.5467-1.1944-3.625-.25-.1105,.0966-.1959,.2335-.2812,.3438v-1.4375h7a.9932,.9932 0 0,0 .1875-.0312zm-7.1875,4.4688c.0513,.0741 .0974,.1492 .1562,.2188l3,3.5312c.382,.4353 .8873,.7113 1.4062,.8125h-4.5625v-4.5625zm9,1.25v3.3125h-3.4062c.5159-.119 1.005-.4298 1.375-.875l2.0312-2.4375z" transform="translate(0 1028.3622)"/>
<g fill="#444">
<path d="m6,4c-.554,0-1,.446-1,1v13c0,.554 .446,1 1,1h13c.554,0 1-.446 1-1v-6h-2v5h-11v-11h8v-2h-9z" transform="translate(0 1028.3622)"/>
<path line-height="normal" d="m19.375,1031.9218-6.375,7.625-1.8438-2.1562c-.5377-.6288-1.6109-.7059-2.2336-.1606-.6227,.5448-.4933,1.5661-.0164,2.1298l2.989,3.5331c.57,.6494 1.7291,.6336 2.2812-.031l7.511-9.0331c.3125-.4389 .4343-1.2459 .1878-1.6831-.2945-.5225-.8616-.8103-1.3753-.7831-.5012,.026-.8825,.2511-1.125,.5596z"/>
</g>
</g>
</svg>
