<svg xmlns="http://www.w3.org/2000/svg" viewBox="0 0 24 24">
<g color="#000" transform="translate(-1 -1004.3622)">
<path opacity=".3" fill="none" stroke="#fff" stroke-linejoin="round" stroke-linecap="round" stroke-width="2" d="m6,1008.3622c-.554,0-1,.446-1,1v3 7 3c0,.554 .446,1 1,1 .554,0 1-.446 1-1v-2h3v2c0,.554 .446,1 1,1 .554,0 1-.446 1-1v-2h3v2c0,.554 .446,1 1,1 .554,0 1-.446 1-1v-2h3v2c0,.554 .446,1 1,1 .554,0 1-.446 1-1v-13c0-.554-.446-1-1-1-.554,0-1,.446-1,1v2h-3v-2c0-.554-.446-1-1-1-.554,0-1,.446-1,1v2h-3v-2c0-.554-.446-1-1-1-.554,0-1,.446-1,1v2h-3v-2c0-.554-.446-1-1-1zm1,5 3,0 0,5-3,0zm5,0 3,0 0,5-3,0zm5,0 3,0 0,5-3,0z"/>
<path fill="#444" d="m6,1008.3622c-.554,0-1,.446-1,1v3 7 3c0,.554 .446,1 1,1 .554,0 1-.446 1-1v-2h3v2c0,.554 .446,1 1,1 .554,0 1-.446 1-1v-2h3v2c0,.554 .446,1 1,1 .554,0 1-.446 1-1v-2h3v2c0,.554 .446,1 1,1 .554,0 1-.446 1-1v-13c0-.554-.446-1-1-1-.554,0-1,.446-1,1v2h-3v-2c0-.554-.446-1-1-1-.554,0-1,.446-1,1v2h-3v-2c0-.554-.446-1-1-1-.554,0-1,.446-1,1v2h-3v-2c0-.554-.446-1-1-1zm1,5 3,0 0,5-3,0zm5,0 3,0 0,5-3,0zm5,0 3,0 0,5-3,0z"/>
</g>
<g transform="translate(-396 -1146.3622)">
<path opacity=".5" fill="none" color="#000" d="m396,1146.36h24v24h-24z"/>
</g>
</svg>
