<svg xmlns="http://www.w3.org/2000/svg" viewBox="0 0 24 24">
<g transform="translate(0 -1028.3622)">
<path opacity=".3" fill="#fff" line-height="normal" color="#000" d="m9.8125,1a1.0001,1.0001 0 0,0 -.8125,1c-1.6447,0-3,1.3553-3,3v10c0,1.2236 .7511,2.2857 1.8125,2.75l-2.5312,2.5312c-.5744,.5554-.08,1.7375 .7188,1.7188h4c.3358,0 .6654-.1842 .8438-.4688l1.6562-2.4688 1.6562,2.4688c.1784,.2845 .508,.4675 .8438,.4688h4c.7987,.019 1.2931-1.1634 .7188-1.7188l-2.5312-2.5312c1.0614-.4643 1.8125-1.5264 1.8125-2.75v-10c0-1.6447-1.3553-3-3-3a1.0001,1.0001 0 0,0 -1-1h-5a1.0001,1.0001 0 0,0 -.0938,0 1.0001,1.0001 0 0,0 -.0938,0zm1.1875,2h3a1.0001,1.0001 0 0,0 .8125,1h-4.625a1.0001,1.0001 0 0,0 .8125-1zm-2,1h1c-1.0907,0-2,.9093-2,2v-1c0-.5713 .4287-1 1-1zm6,0h1c.5713,0 1,.4287 1,1v1c0-1.0907-.9093-2-2-2zm-5,2h5v2h-5v-2zm-2,3.1875a1.0001,1.0001 0 0,0 1,.8125h7a1.0001,1.0001 0 0,0 1-.8125v4.8125 1c0,.5713-.4287,1-1,1h-1-5-1c-.5713,0-1-.4287-1-1v-1-4.8125zm0,4.8125c0,1.0927 .9073,2 2,2 1.0927,0 2-.9073 2-2 0-1.0927-.9073-2-2-2-1.0927,0-2,.9073-2,2zm7,2c1.0927,0 2-.9073 2-2 0-1.0927-.9073-2-2-2-1.0927,0-2,.9073-2,2 0,1.0927 .9073,2 2,2z" transform="translate(0 1028.3622)"/>
<g fill="#444">
<path d="m10,2v1h-1c-1.108,0-2,.892-2,2v10c0,1.108 .892,2 2,2h7c1.108,0 2-.892 2-2v-10c0-1.108-.892-2-2-2h-1v-1h-5zm0,3h5c.554,0 1,.446 1,1v3h-7v-3c0-.554 .446-1 1-1zm0,8c.5523,0 1,.4477 1,1 0,.5523-.4477,1-1,1-.5523,0-1-.4477-1-1 0-.5523 .4477-1 1-1zm5,0c.5523,0 1,.4477 1,1 0,.5523-.4477,1-1,1-.5523,0-1-.4477-1-1 0-.5523 .4477-1 1-1z" transform="translate(0 1028.3622)"/>
<path d="m12,1046.3622-3,0-3,3 4,0z"/>
<path d="m13,1046.3622 3,0 3,3-4,0z"/>
</g>
</g>
</svg>
