<svg xmlns="http://www.w3.org/2000/svg" viewBox="0 0 24 24">
<g transform="translate(0 -1028.3622)">
<path opacity=".3" fill="#fff" line-height="normal" color="#000" d="m12.5,1c-4.0887,0-7.5,3.1008-7.5,7v8c0,1.0907 .9093,2 2,2h.5625l-2.2812,2.2812c-.5744,.5554-.08,1.7375 .7188,1.7188h4c.3358,0 .6654-.1842 .8438-.4688l1.6562-2.4688 1.6562,2.4688c.1784,.2845 .508,.4675 .8438,.4688h4c.7987,.019 1.2931-1.1634 .7188-1.7188l-2.2812-2.2812h.5625c1.0907,0 2-.9093 2-2v-8c0-3.8992-3.4113-7-7.5-7zm-1.5,4.5312v3.4688h-2v-1c0-1.1222 .8624-1.9672 2-2.4688zm3,0c1.1376,.5015 2,1.3465 2,2.4688v1h-2v-3.4688z" transform="translate(0 1028.3622)"/>
<g fill="#444">
<path d="m12.5,2c-3.5899,0-6.5,2.6863-6.5,6v8c0,.554 .446,1 1,1h11c.554,0 1-.446 1-1v-8c0-3.3137-2.9102-6-6.5-6zm-.5,2.0625v5.9375h-4v-2c0-2.0564 1.7539-3.7132 4-3.9375zm1,0c2.2461,.2243 4,1.8811 4,3.9375v2h-4v-5.9375zm-4,8.9375c.5523,0 1,.4477 1,1 0,.5523-.4477,1-1,1-.5523,0-1-.4477-1-1 0-.5523 .4477-1 1-1zm7,0c.5523,0 1,.4477 1,1 0,.5523-.4477,1-1,1-.5523,0-1-.4477-1-1 0-.5523 .4477-1 1-1z" transform="translate(0 1028.3622)"/>
<path d="m12,1046.3622-3,0-3,3 4,0z"/>
<path d="m13,1046.3622 3,0 3,3-4,0z"/>
</g>
</g>
</svg>
