<svg xmlns="http://www.w3.org/2000/svg" viewBox="0 0 24 24">
<g transform="translate(0 -1028.3622)">
<path opacity=".3" fill="#fff" line-height="normal" color="#000" d="m8.9062,1c-.2326,.017-.458,.1184-.625,.2812l-4,4c-.1837,.1898-.2874,.4547-.2812,.7188v7 3c0,1.0907 .9093,2 2,2h.5625l-2.2812,2.2812c-.5744,.5554-.08,1.7376 .7188,1.7188h4c.3358-.0012 .6654-.1843 .8438-.4688l2-3c.1045-.1667 .1425-.341 .125-.5312h1.0625c-.01,.1907 .0183,.3682 .125,.5312l2,3c.1784,.2845 .508,.4676 .8438,.4688h4c.7987,.0188 1.2931-1.1634 .7188-1.7188l-2.2812-2.2812h.5625c1.0907,0 2-.9093 2-2v-3-7c.0061-.264-.0976-.529-.2812-.7188l-4-4c-.1898-.1837-.4547-.2873-.7188-.2812h-7-.0938zm-.9062,7h9v2h-9v-2z" transform="translate(0 1028.3622)"/>
<g fill="#444">
<path d="m9,2l-4,4v7 3c0,.554 .446,1 1,1h13c.554,0 1-.446 1-1v-3-7l-4-4h-7zm1,2h5v2h-5v-2zm-3,3h11v4h-11v-4zm1,6c.5523,0 1,.4477 1,1 0,.5523-.4477,1-1,1-.5523,0-1-.4477-1-1 0-.5523 .4477-1 1-1zm9,0c.5523,0 1,.4477 1,1 0,.5523-.4477,1-1,1-.5523,0-1-.4477-1-1 0-.5523 .4477-1 1-1z" transform="translate(0 1028.3622)"/>
<path d="m11,1046.3622-3,0-3,3 4,0z"/>
<path d="m14,1046.3622 3,0 3,3-4,0z"/>
</g>
</g>
</svg>
