<svg xmlns="http://www.w3.org/2000/svg" viewBox="0 0 24 24">
<g color="#000" transform="translate(0 -1077.3622)">
<path opacity=".3" fill="#fff" stroke="#fff" stroke-linejoin="round" stroke-width="2" d="m9,1079.3622-3,2 0,11c0,.5 .5,1 1,1h11c.5,0 1-.5 1-1v-11l-3-2zm3.5,15-5.5,3 11,0z"/>
<path fill="#444" d="m9,1079.3622-3,2 0,11c0,.5 .5,1 1,1h11c.5,0 1-.5 1-1v-11l-3-2zm1,2 5,0 2,1 0,3-9,0 0-3zm-1,8c.554,0 1,.446 1,1 0,.554-.446,1-1,1-.554,0-1-.446-1-1 0-.554 .446-1 1-1zm7,0c.554,0 1,.446 1,1 0,.554-.446,1-1,1-.554,0-1-.446-1-1 0-.554 .446-1 1-1zm-3.5,5-5.5,3 11,0z"/>
</g>
<g transform="translate(-84 -1122.3622)">
<path opacity=".5" fill="none" color="#000" d="m84,1122.36h24v24h-24z"/>
</g>
</svg>
