<svg xmlns="http://www.w3.org/2000/svg" viewBox="0 0 24 24">
<g color="#000" transform="translate(-6 -1074.3622)">
<path opacity=".3" fill="#fff" stroke="#fff" stroke-linejoin="round" stroke-width="2" d="m18.5,1077.3622c-4.6944,0-8.5,3.8056-8.5,8.5 0,4.6944 3.8056,8.5 8.5,8.5 2.6248,0 4.9721-1.1929 6.5312-3.0625-1.0188,.6632-2.225,1.0625-3.5312,1.0625-3.5899,0-6.5-2.9101-6.5-6.5 0-3.5899 2.9101-6.5 6.5-6.5 1.3062,0 2.5125,.3993 3.5312,1.0625-1.5592-1.8696-3.9065-3.0625-6.5312-3.0625zm5,4-1,3-3.5,0 3,2-1.5,3.5 3-2 3,2-1.5-3.5 3-2-3.5,0-1-3z"/>
<path fill="#444" d="m18.5,1077.3622c-4.6944,0-8.5,3.8056-8.5,8.5 0,4.6944 3.8056,8.5 8.5,8.5 2.6248,0 4.9721-1.1929 6.5312-3.0625-1.0188,.6632-2.225,1.0625-3.5312,1.0625-3.5899,0-6.5-2.9101-6.5-6.5 0-3.5899 2.9101-6.5 6.5-6.5 1.3062,0 2.5125,.3993 3.5312,1.0625-1.5592-1.8696-3.9065-3.0625-6.5312-3.0625zm5,4-1,3-3.5,0 3,2-1.5,3.5 3-2 3,2-1.5-3.5 3-2-3.5,0-1-3z"/>
</g>
<g transform="translate(-6 -1074.3622)">
<path opacity=".5" fill="none" color="#000" d="m6,1074.36h24v24h-24z"/>
</g>
</svg>
