<svg xmlns="http://www.w3.org/2000/svg" viewBox="0 0 24 24">
<g color="#000" transform="translate(-318 -1051.36218)">
<path opacity=".3" fill="#fff" stroke="#fff" stroke-linejoin="round" stroke-width="2" d="m523.5,26c-.5,0-.5,.5-.5,.5v6c0,.5051 .5,1 1,1.5 .5,.5 .526,1.0058 .5,1.5v1.5l-.5,6.5c-.0383,.4985 .5,1.5 1.5,1.5 1,0 1.5385-1 1.5-1.5l-.5-6.5v-1.5c0-.4786 0-1 .5-1.5 .4605-.4605 1-.9786 1-1.5v-6c0,0 0-.5-.5-.5-.5,0-.5,.5-.5,.5v4.5c0,0 0,.5-.5,.5-.5,0-.5-.5-.5-.5v-4.5c0,0 0-.5-.5-.5-.5,0-.5,.5-.5,.5v4.5c0,0 0,.5-.5,.5-.5,0-.5-.5-.5-.5v-4.5c0,0 0-.5-.5-.5zm10.5,0c-1,0-2.8675,.2351-3.5,1.5-.5,1-.5,3.5-.5,4.5v5c0,.5 .5,1 1,1h1v6c0,.5 .5,1 1,1 .5,0 1-.5 1-1z" transform="translate(-198 1027.3622)"/>
<path fill="#444" d="m523.5,26c-.5,0-.5,.5-.5,.5v6c0,.5 .5,1 1,1.5 .5,.5 .5,1 .5,1.5 0,0 0,1 0,1.5 0,.5-.5,6.5-.5,6.5-.0383,.4985 .5,1.5 1.5,1.5 1,0 1.5385-1 1.5-1.5 0,0-.5-6-.5-6.5 0-.5 0-1.5 0-1.5 0-.5 0-1 .5-1.5 .4605-.4605 1-1 1-1.5v-6c0,0 0-.5-.5-.5-.5,0-.5,.5-.5,.5v4.5c0,0 0,.5-.5,.5-.5,0-.5-.5-.5-.5v-4.5c0,0 0-.5-.5-.5-.5,0-.5,.5-.5,.5v4.5c0,0 0,.5-.5,.5-.5,0-.5-.5-.5-.5v-4.5c0,0 0-.5-.5-.5zm10.5,0c-1,0-2.8675,.2351-3.5,1.5-.5,1-.5,3.5-.5,4.5v5c0,.5 .5,1 1,1h1v6c0,.5 .5,1 1,1 .5,0 1-.5 1-1z" transform="translate(-198 1027.3622)"/>
</g>
<g transform="translate(-318 -1050.36218)">
<path opacity=".5" fill="none" color="#000" d="m318,1050.36h24v24h-24z"/>
</g>
</svg>
