<svg xmlns="http://www.w3.org/2000/svg" viewBox="0 0 24 24">
<g color="#000" transform="translate(-552 -1074.36216)">
<path opacity=".3" fill="#fff" stroke="#fff" stroke-linejoin="round" stroke-width="2" d="m564.5,1076.3622c-4.6944,0-8.5,3.8056-8.5,8.5 0,4.6944 3.8056,8.5 8.5,8.5 4.6944,0 8.5-3.8056 8.5-8.5 0-4.6944-3.8056-8.5-8.5-8.5z"/>
<path fill="#444" d="m564.5,1076.3622c-4.6944,0-8.5,3.8056-8.5,8.5 0,4.6944 3.8056,8.5 8.5,8.5 4.6944,0 8.5-3.8056 8.5-8.5 0-4.6944-3.8056-8.5-8.5-8.5zm-5.5,7 11,0 0,3-11,0 0-3z"/>
</g>
<g transform="translate(-552 -1074.36216)">
<path opacity=".5" fill="none" color="#000" d="m552,1074.36h24v24h-24z"/>
</g>
</svg>
