<svg xmlns="http://www.w3.org/2000/svg" viewBox="0 0 24 24">
<g transform="translate(0 -1028.3622)">
<path opacity=".3" fill="none" stroke="#fff" stroke-linejoin="round" stroke-linecap="round" color="#000" stroke-width="2" d="m21,1032.3622-1,0c-2,0-4.6252,.6252-7.5,3.5-3,3-4.5,6.5-4.5,6.5 0,1 2,3 3,3 0,0 3.25-1.25 6.25-4.25 3.2138-3.2138 3.75-5.75 3.75-7.75zm-5.5,4c.8284,0 1.5,.6716 1.5,1.5 0,.8284-.6716,1.5-1.5,1.5-.8284,0-1.5-.6716-1.5-1.5 0-.8284 .6716-1.5 1.5-1.5zm-9.5,2-1,3 2.5,0 1.75-3zm9,5.75-3,1.75 0,2.5 3-1z"/>
<path fill="#444" d="m21,1032.3622-1,0c-2,0-4.6252,.6252-7.5,3.5-3,3-4.5,6.5-4.5,6.5 0,1 2,3 3,3 0,0 3.25-1.25 6.25-4.25 3.2138-3.2138 3.75-5.75 3.75-7.75zm-5.5,4c.8284,0 1.5,.6716 1.5,1.5 0,.8284-.6716,1.5-1.5,1.5-.8284,0-1.5-.6716-1.5-1.5 0-.8284 .6716-1.5 1.5-1.5zm-9.5,2-1,3 2.5,0 1.75-3zm9,5.75-3,1.75 0,2.5 3-1z"/>
</g>
</svg>
