<svg xmlns="http://www.w3.org/2000/svg" viewBox="0 0 24 24">
<g color="#000" transform="translate(-319 -1099.36218)">
<path opacity=".3" fill="none" stroke="#fff" stroke-linejoin="round" stroke-width="2" d="m330,1102.3622c-1,0-1.8862,1.0065-2,2l-.3438,3h-1.6562c-.5,0-1,.5-1,1l-1,10c0,.5 .5,1 1,1h13c.5,0 1-.5 1-1l-1-10c0-.5-.5-1-1-1h-1.6562l-.3438-3c-.1138-.9935-1-2-2-2zm0,1 3,0c.5,0 .9431,.5033 1,1l.3438,3h-5.6875l.3438-3c.0569-.4967 .5-1 1-1z"/>
<path fill="#444" d="m330,1102.3622c-1,0-1.8862,1.0065-2,2l-.3438,3h-1.6562c-.5,0-1,.5-1,1l-1,10c0,.5 .5,1 1,1h13c.5,0 1-.5 1-1l-1-10c0-.5-.5-1-1-1h-1.6562l-.3438-3c-.1138-.9935-1-2-2-2zm0,1 3,0c.5,0 .9431,.5033 1,1l.3438,3h-5.6875l.3438-3c.0569-.4967 .5-1 1-1z"/>
</g>
<g transform="translate(-318 -1098.36218)">
<path opacity=".5" fill="none" color="#000" d="m318,1098.36h24v24h-24z"/>
</g>
</svg>
