<svg xmlns="http://www.w3.org/2000/svg" viewBox="0 0 24 24">
<g color="#000" transform="translate(-1 -1004.8622)">
<path opacity=".3" fill="#fff" stroke="#fff" stroke-linejoin="round" stroke-width="2" d="m13.5,1007.8622c-4.6832,0-8.5,3.8168-8.5,8.5 0,4.6832 3.8168,8.5 8.5,8.5 4.6832,0 8.5-3.8168 8.5-8.5 0-4.6832-3.8168-8.5-8.5-8.5z"/>
<path fill="#444" d="m13.5,1007.8622c-4.6832,0-8.5,3.8168-8.5,8.5 0,4.6832 3.8168,8.5 8.5,8.5 4.6832,0 8.5-3.8168 8.5-8.5 0-4.6832-3.8168-8.5-8.5-8.5zm0,1.5c2.666,0 4.9736,1.4738 6.1562,3.6563-1.116,.7404-2.1418,1.1273-2.1562,1.8437-.0101,.4999 0,.6412 0,1 0,.5 .2605,1.1434 1,1.5l1.75,.8438c-.2003,.7408-.5224,1.4106-.9375,2.0312l-1.3125-.875c-.75-.5-1.5-.8333-2-.5l-1.5,1c-.6934,.4623-.621,1-.5,1.5l.4688,1.9375c-.3172,.044-.6391,.062-.9688,.062-.6933,0-1.3685-.095-2-.2812v-1.7188c0-1-.5-1.5-1-2-.5-.5-1-1-2-1h-1.7188c-.1861-.631-.2812-1.3062-.2812-1.9995 0-3.8778 3.1222-7 7-7zm-3,3.5-.5,2c-.1419,.5676-.52,1.1533 0,1.5l1.5,1c1,.6667 1.441,.2795 2,0l1-.5c.7454-.3727 1-.5 1-1.5v-2c0-.5 .0082-.7984-1-1l-2.5-.5c-1.0473-.2095-1.2443-.023-1.5,1z"/>
</g>
<g transform="translate(-474 -1074.3622)">
<path opacity=".5" fill="none" color="#000" d="m474,1074.36h24v24h-24z"/>
</g>
</svg>
