<svg xmlns="http://www.w3.org/2000/svg" viewBox="0 0 24 24">
<g color="#000" transform="translate(40 -1004.36218)">
<path opacity=".3" fill="none" stroke="#fff" stroke-width="2" d="m-34.875,1007.36h14.75a1.125,1.125 0 0,1 1.125,1.13v14.75a1.125,1.125 0 0,1 -1.125,1.12h-14.75a1.125,1.125 0 0,1 -1.125-1.12v-14.75a1.125,1.125 0 0,1 1.125-1.13"/>
<path fill="#444" d="m-34.875,1007.36h14.75a1.125,1.125 0 0,1 1.125,1.13v14.75a1.125,1.125 0 0,1 -1.125,1.12h-14.75a1.125,1.125 0 0,1 -1.125-1.12v-14.75a1.125,1.125 0 0,1 1.125-1.13"/>
</g>
<g transform="translate(72 -1122.3622)">
<path opacity=".5" fill="none" color="#000" d="m-72,1122.36h24v24h-24z"/>
</g>
</svg>
