<svg xmlns="http://www.w3.org/2000/svg" viewBox="0 0 24 24">
<g color="#000" transform="translate(-130.99314 -201.36214)">
<path opacity=".3" fill="#fff" stroke="#fff" stroke-linejoin="round" stroke-width="2" d="m143.4931,204.3621-2,6-6.5,0 5,5-2.5,7 6-4 6,4-2.5-7 5-5-6.5,0zm0,4 1,3.5 4,0-3.5,3.5 1.5,3.5-3-2.5-3,2.5 1.5-3.5-3.5-3.5 4,0z"/>
<path fill="#444" d="m143.4931,204.3621-2,6-6.5,0 5,5-2.5,7 6-4 6,4-2.5-7 5-5-6.5,0-2-6zm0,4 1,3.5 4,0-3.5,3.5 1.5,3.5-3-2.5-3,2.5 1.5-3.5-3.5-3.5 4,0 1-3.5z"/>
</g>
<g transform="translate(72 -1218.3622)">
<path opacity=".5" fill="none" color="#000" d="m-72,1218.36h24v24h-24z"/>
</g>
</svg>
