<svg width="24" xmlns="http://www.w3.org/2000/svg" viewBox="-402.5 403.5 24 24" height="24" enable-background="new -402.5 403.5 24 24">
<path opacity=".3" fill="#fff" stroke="#fff" stroke-width="2" d="m-382.5,410.5-4,0 0-2c0-.553-.448-1-1-1h-5c-.552,0-1,.447-1,1v2h-4c-.552,0-1,.447-1,1v10c0,.553 .448,1 1,1h15c.552,0 1-.447 1-1v-10c0-.553-.448-1-1-1z" stroke-miterlimit="10"/>
<path fill="#454545" d="m-382.5,410.5-4,0 0-2c0-.553-.448-1-1-1h-5c-.552,0-1,.447-1,1v2h-4c-.552,0-1,.447-1,1v10c0,.553 .448,1 1,1h15c.552,0 1-.447 1-1v-10c0-.553-.448-1-1-1zm-12,11-1,0 0-10 1,0zm7-11-5,0 0-2 5,0zm3,11-1,0 0-10 1,0z"/>
</svg>
