<svg xmlns="http://www.w3.org/2000/svg" viewBox="0 0 24 24">
<g color="#000" transform="translate(-320 -1314.3622)">
<path opacity=".3" fill="none" stroke="#fff" stroke-linejoin="round" stroke-linecap="round" stroke-width="2" d="m336,1318.3622c-1,0-1.3263,.3263-2,1l-8,8c-.5,.5-1,1-1,2 0,.8333 0,1 0,1.5 0,1 .5,1.5 1,2l.5625,.5625 3.5-3.5-.5625-.5625c-.5001-.5 0-1 0-1l5.5-5.5c0,0 .5-.5 1,0l.5625,.5625 3.5-3.5c0,0-.375-.375-.5625-.5625-.5-.5-1-1-2-1-.5,0-1.5,0-1.5,0zm4.4375,1.9375-3.5,3.5 .5625,.5625c.3536,.3535 1.1465,.3536 1.5,0l2-2c.3536-.3537 .3536-1.1465 0-1.5zm-10,10-3.5,3.5 .5625,.5625c.3536,.3537 1.1464,.3534 1.5,0l2-2c.3537-.3536 .3535-1.1466 0-1.5z"/>
<path fill="#444" d="m336,1318.3622c-1,0-1.3263,.3263-2,1l-8,8c-.5,.5-1,1-1,2 0,.8333 0,1 0,1.5 0,1 .5,1.5 1,2l.5625,.5625 3.5-3.5-.5625-.5625c-.5001-.5 0-1 0-1l5.5-5.5c0,0 .5-.5 1,0l.5625,.5625 3.5-3.5c0,0-.375-.375-.5625-.5625-.5-.5-1-1-2-1-.5,0-1.5,0-1.5,0zm4.4375,1.9375-3.5,3.5 .5625,.5625c.3536,.3535 1.1465,.3536 1.5,0l2-2c.3536-.3537 .3536-1.1465 0-1.5zm-10,10-3.5,3.5 .5625,.5625c.3536,.3537 1.1464,.3534 1.5,0l2-2c.3537-.3536 .3535-1.1466 0-1.5z"/>
<path fill="none" d="m320,1314.36h24v24h-24z"/>
</g>
</svg>
