<svg xmlns="http://www.w3.org/2000/svg" viewBox="0 0 24 24">
<g color="#000" transform="translate(-474 -1122.3622)">
<path opacity=".3" fill="#fff" stroke="#fff" stroke-width="2" d="m484,1125.3622c-3.3137,0-6,2.6863-6,6 0,3.3137 2.6863,6 6,6h5l4.5,4.5c.3163,.3163 .5063,.5 .9062,.5 .125,0 .2812,0 .4375-.1562 .1563-.1563 .1562-.3125 .1562-.4375 0-.4-.2179-.6242-.5-.9063l-4.5-4.5v-5c0-3.3137-2.6863-6-6-6zm5,8 0,3-3,0zm-9.5,4c-.8284,0-1.5,.6716-1.5,1.5 0,.8284 .6716,1.5 1.5,1.5 .8284,0 1.5-.6716 1.5-1.5 0-.8284-.6716-1.5-1.5-1.5z"/>
<path fill="#444" d="m484,1125.3622c-3.3137,0-6,2.6863-6,6 0,3.3137 2.6863,6 6,6h5l4.5,4.5c.3163,.3163 .5063,.5 .9062,.5 .125,0 .2812,0 .4375-.1562 .1563-.1563 .1562-.3125 .1562-.4375 0-.4-.2179-.6242-.5-.9063l-4.5-4.5v-5c0-3.3137-2.6863-6-6-6zm5,8 0,3-3,0zm-9.5,4c-.8284,0-1.5,.6716-1.5,1.5 0,.8284 .6716,1.5 1.5,1.5 .8284,0 1.5-.6716 1.5-1.5 0-.8284-.6716-1.5-1.5-1.5z"/>
</g>
<g transform="translate(-474 -1122.3622)">
<path opacity=".5" fill="none" color="#000" d="m474,1122.36h24v24h-24z"/>
</g>
</svg>
