<svg xmlns="http://www.w3.org/2000/svg" viewBox="0 0 24 24">
<g color="#000" transform="translate(-630 -1290.3622)">
<path opacity=".3" fill="#fff" stroke="#fff" stroke-linejoin="round" stroke-linecap="round" stroke-width="2" d="m638,1296.3622-3,1.5c-.5112,.2556-1,1-1,1.5v8h3v-3h2v3h3v-8c0-.5-.502-1.251-1-1.5l-3-1.5zm9,2-3,1.5c-.5112,.2556-1,1-1,1.5v8h3v-3h2v3h3v-8c0-.5-.502-1.251-1-1.5l-3-1.5zm-12,2 2,0 0,1-2,0 0-1zm4,0 2,0 0,1-2,0 0-1zm-4,2 2,0 0,1-2,0 0-1zm4,0 2,0 0,1-2,0 0-1zm5,0 2,0 0,1-2,0 0-1zm4,0 2,0 0,1-2,0 0-1zm-4,2 2,0 0,1-2,0 0-1zm4,0 2,0 0,1-2,0 0-1z"/>
<path fill="#444" d="m638,1296.3622-3,1.5c-.5112,.2556-1,1-1,1.5v8h3v-3h2v3h3v-8c0-.5-.502-1.251-1-1.5l-3-1.5zm9,2-3,1.5c-.5112,.2556-1,1-1,1.5v8h3v-3h2v3h3v-8c0-.5-.502-1.251-1-1.5l-3-1.5zm-12,2 2,0 0,1-2,0 0-1zm4,0 2,0 0,1-2,0 0-1zm-4,2 2,0 0,1-2,0 0-1zm4,0 2,0 0,1-2,0 0-1zm5,0 2,0 0,1-2,0 0-1zm4,0 2,0 0,1-2,0 0-1zm-4,2 2,0 0,1-2,0 0-1zm4,0 2,0 0,1-2,0 0-1z"/>
<path opacity=".5" fill="none" d="m630,1290.36h24v24h-24z"/>
</g>
</svg>
