<svg xmlns="http://www.w3.org/2000/svg" viewBox="0 0 24 24">
<g color="#000" transform="translate(-396 -1098.3622)">
<path opacity=".3" fill="#fff" stroke="#fff" stroke-linejoin="round" stroke-linecap="round" stroke-width="2" d="m416,1106.3622-7.5-5-7.5,5 0,2 0,7-1.75,3c-.1483,.2543-.25,.3567-.25,.5 0,.5 .6316,.5 1,.5h17c.355,0 1,0 1-.5 0-.1462-.0866-.2199-.25-.5l-1.75-3v-7zm-12,3c.554,0 .9089,.4535 1,1v6h-2v-2-4c0-.554 .446-1 1-1zm4.5,0c.554,0 1.0087,.4461 1,1v4 2h-2v-2-4c0-.554 .446-1 1-1zm4.5,0c.554,0 1,.446 1,1v6h-2v-2-4c0-.554 .446-1 1-1z"/>
<path fill="#444" d="m408.5,1101.3622-7.5,5 15,0zm-6.5,6c-.554,0-1,.446-1,1v7l-1.75,3c-.1483,.2543-.25,.3567-.25,.5 0,.5 .6316,.5 1,.5h17c.355,0 1,0 1-.5 0-.1462-.0866-.2199-.25-.5l-1.75-3v-7c0-.554-.446-1-1-1zm2,2c.554,0 .9089,.4535 1,1v6h-2v-2-4c0-.554 .446-1 1-1zm4.5,0c.554,0 1.0087,.4461 1,1v4 2h-2v-2-4c0-.554 .446-1 1-1zm4.5,0c.554,0 1,.446 1,1v6h-2v-2-4c0-.554 .446-1 1-1z"/>
</g>
<g transform="translate(-396 -1098.3622)">
<path opacity=".5" fill="none" color="#000" d="m396,1098.36h24v24h-24z"/>
</g>
</svg>
