<svg xmlns="http://www.w3.org/2000/svg" viewBox="0 0 24 24">
<g fill="#444" line-height="normal" color="#000" transform="translate(108.875 -1157.8622)">
<path opacity=".3" stroke="#fff" stroke-width="2" d="m-96.375,1161.8622c-.5-.0001-.7261,.2394-.875,.5l-8.5,14c-.0881,.1543-.125,.3274-.125,.5 0,.75 .5,1.0002 1,1h17c.5,.0002 1-.25 1-1 0-.1726-.0369-.3457-.125-.5l-8.5-14c-.1489-.2606-.375-.5001-.875-.5z"/>
<path d="m-96.375,1161.8622c-.5-.0001-.7261,.2394-.875,.5l-8.5,14c-.0881,.1543-.125,.3274-.125,.5 0,.75 .5,1.0002 1,1h17c.5,.0002 1-.25 1-1 0-.1726-.0369-.3457-.125-.5l-8.5-14c-.1489-.2606-.375-.5001-.875-.5z"/>
</g>
<g transform="translate(72 -1170.3622)">
<path opacity=".5" fill="none" color="#000" d="m-72,1170.36h24v24h-24z"/>
</g>
</svg>
