<svg xmlns="http://www.w3.org/2000/svg" viewBox="0 0 24 24">
<g color="#000" transform="translate(-630 -1314.36218)">
<path opacity=".3" fill="#fff" stroke="#fff" stroke-linejoin="round" stroke-linecap="round" stroke-width="2" d="m638,1319.3622-4.5,4c-.5,.5 0,1 .5,1h1v5h1 1v-3h2v3h1 1v-5h1c.5,0 1-.5 .5-1l-4.5-4zm9,3-4.5,4c-.5,.5 0,1 .5,1h1v5h1 1v-3h2v3h1 1v-5h1c.5,0 1-.5 .5-1l-4.5-4z"/>
<path opacity=".5" fill="none" d="m630,1314.36h24v24h-24z"/>
<path fill="#444" d="m758,269-4.5,4c-.5,.5 0,1 .5,1h1v5h1 1v-3h2v3h1 1v-5h1c.5,0 1-.5 .5-1l-4.5-4zm9,3-4.5,4c-.5,.5 0,1 .5,1h1v5h1 1v-3h2v3h1 1v-5h1c.5,0 1-.5 .5-1l-4.5-4z" transform="translate(-120 1050.3622)"/>
</g>
</svg>
