<svg xmlns="http://www.w3.org/2000/svg" viewBox="0 0 24 24">
<g color="#000" transform="translate(-318 -1266.3622)">
<path opacity=".3" fill="none" stroke="#fff" stroke-linejoin="round" stroke-linecap="round" stroke-width="2" d="m328.5,1268.3622c-.277,0-.5,.223-.5,.5v1.5h-4c-.554,0-1,.446-1,1 0,.554 .446,1 1,1h13c.554,0 1-.446 1-1 0-.554-.446-1-1-1h-4v-1.5c0-.277-.223-.5-.5-.5zm.5,1 3,0 0,1-3,0zm-5,4c-.554,0-1.0755,.4536-.9844,1l1.9844,12c.0904,.5465 .446,1 1,1h9c.554,0 .9089-.4536 1-1l1.9844-12c.0904-.5465-.4304-1-.9844-1z"/>
<path fill="#444" d="m328.5,1268.3622c-.277,0-.5,.223-.5,.5v1.5h-4c-.554,0-1,.446-1,1 0,.554 .446,1 1,1h13c.554,0 1-.446 1-1 0-.554-.446-1-1-1h-4v-1.5c0-.277-.223-.5-.5-.5zm.5,1 3,0 0,1-3,0zm-5,4c-.554,0-1.0755,.4536-.9844,1l1.9844,12c.0904,.5465 .446,1 1,1h9c.554,0 .9089-.4536 1-1l1.9844-12c.0904-.5465-.4304-1-.9844-1z"/>
<path opacity=".5" fill="none" d="m318,1266.36h24v24h-24z"/>
</g>
</svg>
