<svg xmlns="http://www.w3.org/2000/svg" viewBox="0 0 24 24">
<g color="#000" transform="translate(-240 -1314.3622)">
<g fill="none">
<path opacity=".5" d="m240,1314.36h24v24h-24z"/>
<path opacity=".3" stroke="#fff" stroke-linejoin="round" stroke-linecap="round" stroke-width="2" d="m257,1318.3622c-2,0-3.5975,2-4,4l-1.125,5.5625c.1872-.039 .3968-.062 .625-.062 1.5,0 2,.9995 3,1 .1969,.0001 .3931-.032 .5938-.094 .2256-1.1217 .7493-3.6263 .9062-4.4063 .1916-.9523 1-2 2-2h1c0-.5-.5-1-1-1h-1c-.8306,0-1.6012,.3065-2.1562,.75l.1562-.75c.1973-.9804 1-2 2-2h1c0-.5-.5-1-1-1h-1zm-11,3c-.5,0-1,.5-1,1h1c1,0 1.8084,1.0477 2,2 .1521,.7559 .6626,3.2025 .9062,4.4063 .2007,.062 .3969,.094 .5938,.094 .5658,.0002 .9827-.3158 1.5-.5937l-1-4.9063c-.2012-1-1.5-2-3-2h-1zm0,8c-.6941,0-1.3398,.4049-2,.625v2.0313c0,0 1-.6558 2-.6563 1-.0005 2,1 3.5,1 1.5,0 1.9735-.9653 3-1 1,.0005 1.5,1 3,1 1.5,0 2.5-1 3.5-1 .7016,0 2,.6563 2,.6563v-2.0313c-.6416-.2468-1.3434-.625-2-.625-1.5,0-2.5,1.0005-3.5,1-1-.0005-1.5-1-3-1-1.5,0-2,1.0005-3,1-1,.0005-2-1-3.5-1z"/>
</g>
<path fill="#444" d="m257,1318.3622c-2,0-3.5975,2-4,4l-1.125,5.5625c.1872-.039 .3968-.062 .625-.062 1.5,0 2,.9995 3,1 .1969,.0001 .3931-.032 .5938-.094 .2256-1.1217 .7493-3.6263 .9062-4.4063 .1916-.9523 1-2 2-2h1c0-.5-.5-1-1-1h-1c-.8306,0-1.6012,.3065-2.1562,.75l.1562-.75c.1973-.9804 1-2 2-2h1c0-.5-.5-1-1-1h-1zm-11,3c-.5,0-1,.5-1,1h1c1,0 1.8084,1.0477 2,2 .1521,.7559 .6626,3.2025 .9062,4.4063 .2007,.062 .3969,.094 .5938,.094 .5658,.0002 .9827-.3158 1.5-.5937l-1-4.9063c-.2012-1-1.5-2-3-2h-1zm0,8c-.6941,0-1.3398,.4049-2,.625v2.0313c0,0 1-.6558 2-.6563 1-.0005 2,1 3.5,1 1.5,0 1.9735-.9653 3-1 1,.0005 1.5,1 3,1 1.5,0 2.5-1 3.5-1 .7016,0 2,.6563 2,.6563v-2.0313c-.6416-.2468-1.3434-.625-2-.625-1.5,0-2.5,1.0005-3.5,1-1-.0005-1.5-1-3-1-1.5,0-2,1.0005-3,1-1,.0005-2-1-3.5-1z"/>
</g>
</svg>
