<?xml version="1.0" encoding="utf-8"?>
<!-- Generated by IcoMoon.io -->
<!DOCTYPE svg PUBLIC "-//W3C//DTD SVG 1.1//EN" "http://www.w3.org/Graphics/SVG/1.1/DTD/svg11.dtd">
<svg version="1.1" xmlns="http://www.w3.org/2000/svg" xmlns:xlink="http://www.w3.org/1999/xlink" width="21" height="32" viewBox="0 0 21 32">
<path fill="#444444" d="M0 7.563v1.313c0 0.438 0.406 0.875 0.906 0.875h10.344c0.469 0 0.875-0.406 0.875-0.875v-1.313c0-0.438-0.406-0.844-0.875-0.844h-10.344c-0.5 0-0.906 0.406-0.906 0.844zM0 12.656v1.281c0 0.5 0.406 0.875 0.906 0.875h17.313c0.469 0 0.844-0.375 0.844-0.875v-1.281c0-0.469-0.375-0.844-0.844-0.844h-17.313c-0.5 0-0.906 0.375-0.906 0.844zM0 17.719v1.313c0 0.469 0.406 0.875 0.906 0.875h12.125c0.438 0 0.813-0.406 0.813-0.875v-1.313c0-0.469-0.375-0.875-0.813-0.875h-12.125c-0.5 0-0.906 0.406-0.906 0.875zM0 23.094v1.281c0 0.5 0.406 0.906 0.906 0.906h19.031c0.469 0 0.875-0.406 0.875-0.906v-1.281c0-0.438-0.406-0.875-0.875-0.875h-19.031c-0.5 0-0.906 0.406-0.906 0.875z"></path>
</svg>
