<?xml version="1.0" encoding="utf-8"?>
<!-- Generated by IcoMoon.io -->
<!DOCTYPE svg PUBLIC "-//W3C//DTD SVG 1.1//EN" "http://www.w3.org/Graphics/SVG/1.1/DTD/svg11.dtd">
<svg version="1.1" xmlns="http://www.w3.org/2000/svg" xmlns:xlink="http://www.w3.org/1999/xlink" width="21" height="32" viewBox="0 0 21 32">
<path fill="#444444" d="M0.906 6.719h19.031c0.469 0 0.875 0.406 0.875 0.844v1.281c0 0.5-0.406 0.906-0.875 0.906h-19.031c-0.5 0-0.906-0.406-0.906-0.906v-1.281c0-0.469 0.406-0.844 0.906-0.844zM0.906 11.906h19.031c0.469 0 0.875 0.375 0.875 0.813v1.313c0 0.469-0.406 0.875-0.875 0.875h-19.031c-0.5 0-0.906-0.406-0.906-0.875v-1.313c0-0.438 0.406-0.813 0.906-0.813zM0.906 17.094h19.031c0.469 0 0.875 0.375 0.875 0.813v1.313c0 0.469-0.406 0.875-0.875 0.875h-19.031c-0.5 0-0.906-0.406-0.906-0.875v-1.313c0-0.438 0.406-0.813 0.906-0.813zM0.906 22.219h19.031c0.469 0 0.875 0.438 0.875 0.875v1.281c0 0.5-0.406 0.906-0.875 0.906h-19.031c-0.5 0-0.906-0.406-0.906-0.906v-1.281c0-0.469 0.406-0.875 0.906-0.875z"></path>
</svg>
