<?xml version="1.0" encoding="utf-8"?>
<!-- Generated by IcoMoon.io -->
<!DOCTYPE svg PUBLIC "-//W3C//DTD SVG 1.1//EN" "http://www.w3.org/Graphics/SVG/1.1/DTD/svg11.dtd">
<svg version="1.1" xmlns="http://www.w3.org/2000/svg" xmlns:xlink="http://www.w3.org/1999/xlink" width="22" height="32" viewBox="0 0 22 32">
<path fill="#444444" d="M20.344 9.594c3.063 4.344 2.656 10.438-1.25 14.344s-9.938 4.281-14.313 1.25c-0.5-0.375-1.063-0.813-1.531-1.25-0.469-0.469-0.875-1-1.219-1.531-3.063-4.344-2.688-10.438 1.219-14.344s9.969-4.281 14.344-1.25c0.5 0.375 1.031 0.813 1.5 1.25 0.469 0.469 0.906 1 1.25 1.531zM4.031 20.375l11.563-11.563c-3.25-1.969-7.563-1.563-10.344 1.219-2.813 2.813-3.188 7.125-1.219 10.344zM18.344 11.625l-11.563 11.531c3.25 1.969 7.563 1.563 10.344-1.219 2.813-2.813 3.188-7.094 1.219-10.313z"></path>
</svg>
