<?xml version="1.0" encoding="utf-8"?>
<!-- Generated by IcoMoon.io -->
<!DOCTYPE svg PUBLIC "-//W3C//DTD SVG 1.1//EN" "http://www.w3.org/Graphics/SVG/1.1/DTD/svg11.dtd">
<svg version="1.1" xmlns="http://www.w3.org/2000/svg" xmlns:xlink="http://www.w3.org/1999/xlink" width="20" height="32" viewBox="0 0 20 32">
<path fill="#444444" d="M10.188 14.719h-2.281c-0.375 0-0.719-0.344-0.719-0.75 0-0.375 0.344-0.719 0.719-0.719h2.281c0.406 0 0.719 0.344 0.719 0.719 0 0.406-0.313 0.75-0.719 0.75zM7.906 17.781h4.531c0.406 0 0.719 0.313 0.719 0.719s-0.313 0.719-0.719 0.719h-4.531c-0.375 0-0.719-0.313-0.719-0.719s0.344-0.719 0.719-0.719zM3.063 6.063h14.188c1.688 0 3.063 1.375 3.063 3.063v14.188c0 1.688-1.375 3.063-3.063 3.063h-14.188c-1.688 0-3.063-1.375-3.063-3.063v-14.188c0-1.688 1.375-3.063 3.063-3.063zM16.438 18.656v-3c0-0.563-0.156-0.938-0.844-0.938h-0.531c-0.563 0-0.875-0.344-0.875-0.75v-0.344c0-1.781-1.938-3.656-3.625-3.656h-2.656c-2.219 0-3.969 1.75-3.969 3.969v4.75c0 2.094 1.813 3.781 3.656 3.781h5.031c2.031 0 3.813-1.719 3.813-3.813z"></path>
</svg>
