<?xml version="1.0" encoding="utf-8"?>
<!-- Generated by IcoMoon.io -->
<!DOCTYPE svg PUBLIC "-//W3C//DTD SVG 1.1//EN" "http://www.w3.org/Graphics/SVG/1.1/DTD/svg11.dtd">
<svg version="1.1" xmlns="http://www.w3.org/2000/svg" xmlns:xlink="http://www.w3.org/1999/xlink" width="24" height="32" viewBox="0 0 24 32">
<path fill="#444444" d="M0 23.938v-13.5s1.688-2.531 6.125-2.531c4.469 0 5.875 2.406 5.875 2.406s1.406-2.406 5.875-2.406c4.438 0 6.125 2.531 6.125 2.531v13.5s-2.969-2.188-6.188-2.188c-3.188 0-5.813 2.344-5.813 2.344s-2.625-2.344-5.813-2.344c-3.219 0-6.188 2.188-6.188 2.188zM2.031 10.969v9.813s1.281-0.969 4.344-0.969c3.031 0 4.625 1.813 4.625 1.813v-10.219s-2.156-1.563-4.875-1.563c-2.688 0-4.094 1.125-4.094 1.125zM13 11.406v10.219s1.5-1.813 4.625-1.813c3.094 0 4.344 0.969 4.344 0.969v-9.813s-1.406-1.125-4.094-1.125c-2.719 0-4.875 1.563-4.875 1.563z"></path>
</svg>
