<?xml version="1.0" encoding="utf-8"?>
<!-- Generated by IcoMoon.io -->
<!DOCTYPE svg PUBLIC "-//W3C//DTD SVG 1.1//EN" "http://www.w3.org/Graphics/SVG/1.1/DTD/svg11.dtd">
<svg version="1.1" xmlns="http://www.w3.org/2000/svg" xmlns:xlink="http://www.w3.org/1999/xlink" width="19" height="32" viewBox="0 0 19 32">
<path fill="#444444" d="M1.219 5.594h15.469c1.25 0 2.219 1.063 2.219 2.344v15.813c0 1.563-0.969 2.656-2.406 2.656h-15.156c-0.969 0-1.344-0.75-1.344-1.188v-18.469c0-0.563 0.438-1.156 1.219-1.156zM4.188 25.094h12.313c0.688 0 1.094-0.5 1.094-1.344v-15.813c0-0.469-0.375-1.031-0.906-1.031h-1.469v11.969l-4.313-1.375-4.188 1.375v-11.969h-2.531v18.188zM8.688 11.906v1.156h1.719v1.75h1.156v-1.75h1.719v-1.156h-1.719v-1.75h-1.156v1.75h-1.719z"></path>
</svg>
