<?xml version="1.0" encoding="utf-8"?>
<!-- Generated by IcoMoon.io -->
<!DOCTYPE svg PUBLIC "-//W3C//DTD SVG 1.1//EN" "http://www.w3.org/Graphics/SVG/1.1/DTD/svg11.dtd">
<svg version="1.1" xmlns="http://www.w3.org/2000/svg" xmlns:xlink="http://www.w3.org/1999/xlink" width="19" height="32" viewBox="0 0 19 32">
<path fill="#444444" d="M1.281 5.125h16.406c0.719 0 1.281 0.563 1.281 1.281v18.5c0 0.719-0.563 1.281-1.281 1.281h-4.219v-4.156h-7.969v4.156h-4.219c-0.719 0-1.281-0.563-1.281-1.281v-18.5c0-0.719 0.563-1.281 1.281-1.281zM2.813 9.313h13.344v-1.563h-13.344v1.563zM2.813 12.906h13.344v-1.563h-13.344v1.563zM2.813 16.5h13.344v-1.563h-13.344v1.563zM2.813 20.094h13.344v-1.563h-13.344v1.563zM9.063 26.875h-2.719v-4h2.719v4zM12.625 26.875h-2.719v-4h2.719v4z"></path>
</svg>
