<?xml version="1.0" encoding="utf-8"?>
<!-- Generated by IcoMoon.io -->
<!DOCTYPE svg PUBLIC "-//W3C//DTD SVG 1.1//EN" "http://www.w3.org/Graphics/SVG/1.1/DTD/svg11.dtd">
<svg version="1.1" xmlns="http://www.w3.org/2000/svg" xmlns:xlink="http://www.w3.org/1999/xlink" width="20" height="32" viewBox="0 0 20 32">
<path fill="#444444" d="M0 10v14.875c0 0.813 0.688 1.5 1.531 1.5h17.25c0.844 0 1.531-0.688 1.531-1.5v-14.875c0-0.813-0.688-1.5-1.531-1.5h-1.75v-0.156c0-0.531-0.156-1.125-0.531-1.563-0.406-0.406-1.031-0.719-1.938-0.719-0.938 0-1.563 0.313-1.938 0.719-0.406 0.438-0.563 1.031-0.563 1.563v0.156h-3.813v-0.156c0-0.531-0.156-1.125-0.531-1.563-0.406-0.406-1.031-0.719-1.969-0.719-0.906 0-1.531 0.313-1.906 0.719-0.406 0.438-0.563 1.031-0.563 1.563v0.156h-1.75c-0.844 0-1.531 0.688-1.531 1.5zM2.063 24.344v-3.25h3.656v3.25h-3.656zM2.063 20.594v-3.25h3.656v3.25h-3.656zM2.063 16.844v-3.281h3.656v3.281h-3.656zM4.781 10.969v-2.625c0-0.5 0.313-0.75 0.969-0.75 0.688 0 1 0.25 1 0.75v2.625c0 0.5-0.313 0.75-1 0.75-0.656 0-0.969-0.25-0.969-0.75zM6.219 24.344v-3.25h3.688v3.25h-3.688zM6.219 20.594v-3.25h3.688v3.25h-3.688zM6.219 16.844v-3.281h3.688v3.281h-3.688zM10.406 24.344v-3.25h3.688v3.25h-3.688zM10.406 20.594v-3.25h3.688v3.25h-3.688zM10.406 16.844v-3.281h3.688v3.281h-3.688zM14.594 24.344v-3.25h3.656v3.25h-3.656zM14.594 20.594v-3.25h3.656v3.25h-3.656zM14.594 16.844v-3.281h3.656v3.281h-3.656zM13.563 10.969v-2.625c0-0.5 0.313-0.75 1-0.75 0.625 0 0.969 0.25 0.969 0.75v2.625c0 0.5-0.313 0.75-0.969 0.75-0.688 0-1-0.25-1-0.75z"></path>
</svg>
