<?xml version="1.0" encoding="utf-8"?>
<!-- Generated by IcoMoon.io -->
<!DOCTYPE svg PUBLIC "-//W3C//DTD SVG 1.1//EN" "http://www.w3.org/Graphics/SVG/1.1/DTD/svg11.dtd">
<svg version="1.1" xmlns="http://www.w3.org/2000/svg" xmlns:xlink="http://www.w3.org/1999/xlink" width="21" height="32" viewBox="0 0 21 32">
<path fill="#444444" d="M9.469 15.219h-9.469v-9.469h9.469v9.469zM20.469 15.219h-9.469v-9.469h9.469v9.469zM8.5 6.719h-7.531v7.563h7.531v-7.563zM9.469 26.219h-9.469v-9.469h9.469v9.469zM11 26.219v-9.469h9.469v9.469h-9.469zM12.469 17.719h-0.5v0.5zM13.75 17.719l-1.781 1.781v1.281l3.063-3.063h-1.281zM16.313 17.719l-4.344 4.344v1.281l5.625-5.625h-1.281zM11.969 25.281h0.594l6.969-6.938v-0.625h-0.656l-6.906 6.906v0.656zM15.125 25.281l4.406-4.406v-1.25l-5.688 5.656h1.281zM17.688 25.281l1.844-1.844v-1.281l-3.125 3.125h1.281zM18.969 25.281h0.563v-0.563z"></path>
</svg>
