<?xml version="1.0" encoding="utf-8"?>
<!-- Generated by IcoMoon.io -->
<!DOCTYPE svg PUBLIC "-//W3C//DTD SVG 1.1//EN" "http://www.w3.org/Graphics/SVG/1.1/DTD/svg11.dtd">
<svg version="1.1" xmlns="http://www.w3.org/2000/svg" xmlns:xlink="http://www.w3.org/1999/xlink" width="28" height="32" viewBox="0 0 28 32">
<path fill="#444444" d="M4.125 17.969h-1.313v-3.531h1.313v3.531zM4.125 12h-4.125v8.438h6.938v-12.031h-2.813v3.594zM8.219 10.844h2.813v-2.438h-2.813v2.438zM8.219 20.438h2.813v-8.438h-2.813v8.438zM16.469 17.969h-1.313v-3.531h1.313v3.531zM12.344 21.563v2.469h6.938v-12.031h-6.938v8.438h4.125v1.125h-4.125zM24.688 17.969h-1.313v-3.531h1.313v3.531zM20.563 21.563v2.469h6.938v-12.031h-6.938v8.438h4.125v1.125h-4.125z"></path>
</svg>
