<?xml version="1.0" encoding="utf-8"?>
<!-- Generated by IcoMoon.io -->
<!DOCTYPE svg PUBLIC "-//W3C//DTD SVG 1.1//EN" "http://www.w3.org/Graphics/SVG/1.1/DTD/svg11.dtd">
<svg version="1.1" xmlns="http://www.w3.org/2000/svg" xmlns:xlink="http://www.w3.org/1999/xlink" width="32" height="32" viewBox="0 0 32 32">
<path fill="#444444" d="M5.5 16c0-1.5-1.25-2.75-2.75-2.75-1.531 0-2.75 1.25-2.75 2.75s1.219 2.75 2.75 2.75c1.5 0 2.75-1.25 2.75-2.75zM13.938 16c0-1.5-1.25-2.75-2.75-2.75s-2.75 1.25-2.75 2.75 1.25 2.75 2.75 2.75 2.75-1.25 2.75-2.75zM22.406 16c0-1.5-1.219-2.75-2.75-2.75-1.5 0-2.75 1.25-2.75 2.75s1.25 2.75 2.75 2.75c1.531 0 2.75-1.25 2.75-2.75z"></path>
</svg>
