<?xml version="1.0" encoding="utf-8"?>
<!-- Generated by IcoMoon.io -->
<!DOCTYPE svg PUBLIC "-//W3C//DTD SVG 1.1//EN" "http://www.w3.org/Graphics/SVG/1.1/DTD/svg11.dtd">
<svg version="1.1" xmlns="http://www.w3.org/2000/svg" xmlns:xlink="http://www.w3.org/1999/xlink" width="21" height="32" viewBox="0 0 21 32">
<path fill="#444444" d="M2.625 5.594h15.563c1.469 0 2.625 1.156 2.625 2.625v15.563c0 0.781-0.313 1.375-0.781 1.844-0.438 0.438-1.125 0.781-1.844 0.781h-15.563c-1.469 0-2.625-1.156-2.625-2.625v-15.563c0-0.719 0.344-1.406 0.781-1.844 0.469-0.469 1.063-0.781 1.844-0.781zM6.094 19.438c1.938 0 3.531-1.563 3.531-3.5s-1.594-3.531-3.531-3.531c-1.906 0-3.531 1.594-3.531 3.531s1.625 3.5 3.531 3.5zM14.719 19.438c1.906 0 3.531-1.563 3.531-3.5s-1.625-3.531-3.531-3.531c-1.938 0-3.563 1.594-3.563 3.531s1.625 3.5 3.563 3.5z"></path>
</svg>
