<?xml version="1.0" encoding="utf-8"?>
<!-- Generated by IcoMoon.io -->
<!DOCTYPE svg PUBLIC "-//W3C//DTD SVG 1.1//EN" "http://www.w3.org/Graphics/SVG/1.1/DTD/svg11.dtd">
<svg version="1.1" xmlns="http://www.w3.org/2000/svg" xmlns:xlink="http://www.w3.org/1999/xlink" width="21" height="32" viewBox="0 0 21 32">
<path fill="#444444" d="M10.563 13.656l2.188 2.156c0.125 0.125 0.25 0.188 0.438 0.188 0.156 0 0.281-0.063 0.406-0.188l3.719-3.688 2.25 2.25c0.719 0.688 1.25 0.406 1.25-0.563v-7.063c0-0.594-0.5-1.156-1.188-1.156h-7.063c-1 0-1.25 0.531-0.531 1.25l2.25 2.25-3.719 3.688c-0.094 0.125-0.156 0.281-0.156 0.438 0 0.188 0.063 0.313 0.156 0.438zM0 18.156v7.094c0 0.594 0.5 1.156 1.188 1.156h7.031c1 0 1.281-0.531 0.563-1.25l-2.25-2.25 3.719-3.719c0.094-0.125 0.156-0.25 0.156-0.438 0-0.156-0.063-0.281-0.156-0.406l-2.188-2.188c-0.125-0.094-0.25-0.156-0.438-0.156-0.156 0-0.313 0.063-0.438 0.156l-3.688 3.719-2.25-2.25c-0.719-0.688-1.25-0.438-1.25 0.531z"></path>
</svg>
