<?xml version="1.0" encoding="utf-8"?>
<!-- Generated by IcoMoon.io -->
<!DOCTYPE svg PUBLIC "-//W3C//DTD SVG 1.1//EN" "http://www.w3.org/Graphics/SVG/1.1/DTD/svg11.dtd">
<svg version="1.1" xmlns="http://www.w3.org/2000/svg" xmlns:xlink="http://www.w3.org/1999/xlink" width="32" height="32" viewBox="0 0 32 32">
<path fill="#444444" d="M20.281 9.25l-2.125 2.156c0.563 0.875 0.969 1.875 1.156 2.938h3.094v3.313h-3.094c-0.188 1.063-0.594 2.031-1.156 2.906l2.125 2.188-2.344 2.344-2.156-2.156c-0.875 0.563-1.844 1-2.906 1.188v3.063h-3.344v-3.063c-1.063-0.188-2.031-0.625-2.906-1.188l-2.188 2.156-2.313-2.344 2.125-2.188c-0.563-0.875-1-1.844-1.188-2.906h-3.063v-3.313h3.063c0.188-1.063 0.625-2.063 1.188-2.938l-2.125-2.156 2.313-2.344 2.188 2.156c0.875-0.563 1.844-1 2.906-1.188v-3.094h3.344v3.094c1.063 0.188 2.031 0.625 2.906 1.188l2.156-2.156zM11.188 20.625c2.563 0 4.656-2.063 4.656-4.625s-2.094-4.656-4.656-4.656-4.594 2.094-4.594 4.656 2.031 4.625 4.594 4.625z"></path>
</svg>
