<?xml version="1.0" encoding="utf-8"?>
<!-- Generated by IcoMoon.io -->
<!DOCTYPE svg PUBLIC "-//W3C//DTD SVG 1.1//EN" "http://www.w3.org/Graphics/SVG/1.1/DTD/svg11.dtd">
<svg version="1.1" xmlns="http://www.w3.org/2000/svg" xmlns:xlink="http://www.w3.org/1999/xlink" width="21" height="32" viewBox="0 0 21 32">
<path fill="#444444" d="M9.313 5.594h2.656v1.313h-2.656v-1.313zM4 6.906h2.656v1.344h-2.656v-1.344zM6.656 8.25h1.313v-1.344h1.344v6.656h-1.344v-2.656h-1.313v-2.656zM13.281 6.906h2.656v1.344h-2.656v5.313h-1.313v-6.656h1.313zM2.656 10.906v-2.656h1.344v2.656h-1.344zM17.281 8.25v2.656h1.313v1.313h-1.313v2.656h-1.344v-6.625h1.344zM18.594 10.906v-1.344h1.344v1.344h-1.344zM19.938 12.219v-1.313h1.313v5.313h-1.313v-4zM5.313 13.563h-1.313v-2.656h1.313v2.656zM1.344 13.563h2.656v1.313h-2.656v-1.313zM0 17.531v-2.656h1.344v2.656h-1.344zM4 16.219v-1.344h1.313v-1.313h1.344v3.969h-1.344v-1.313h-1.313zM18.594 18.875v-2.656h1.344v3.969h-1.344v-1.313zM2.656 17.531v1.344h-1.313v-1.344h1.313zM4 21.531h-1.344v-2.656h1.344v2.656zM17.281 22.844v-2.656h1.313v2.656h-1.313zM5.313 21.531v1.313h-1.313v-1.313h1.313zM6.656 22.844v1.344h-1.344v-1.344h1.344zM15.938 25.531v-2.688h1.344v4h-1.344v-1.313zM7.969 26.844h-1.313v-2.656h1.313v2.656z"></path>
</svg>
