<?xml version="1.0" encoding="utf-8"?>
<!-- Generated by IcoMoon.io -->
<!DOCTYPE svg PUBLIC "-//W3C//DTD SVG 1.1//EN" "http://www.w3.org/Graphics/SVG/1.1/DTD/svg11.dtd">
<svg version="1.1" xmlns="http://www.w3.org/2000/svg" xmlns:xlink="http://www.w3.org/1999/xlink" width="24" height="32" viewBox="0 0 24 32">
<path fill="#444444" d="M0 25.344v-18.688h24v18.688h-24zM11.969 21.781v1.969h2v-1.969h2.031v-1.906h-2.031v-1.969h2.031v-1.906h-2.031v-1.938h2.031v-1.906h-2.031v-1.969h2.031v-1.938h-2.031v1.938h-2v-1.938h-2.031v1.938h-1.938v-1.938h-6.406v15.5h8.344v-1.969h2.031zM11.969 10.188v1.969h-2.031v-1.969h2.031zM8 14.063v-1.906h1.938v1.906h-1.938zM13.969 14.063h-2v-1.906h2v1.906zM9.938 14.063h2.031v1.938h-2.031v-1.938zM8 17.906v-1.906h1.938v1.906h-1.938zM13.969 17.906h-2v-1.906h2v1.906zM9.938 19.875v-1.969h2.031v1.969h-2.031zM8 21.781v-1.906h1.938v1.906h-1.938zM11.969 19.875h2v1.906h-2v-1.906z"></path>
</svg>
