<?xml version="1.0" encoding="utf-8"?>
<!-- Generated by IcoMoon.io -->
<!DOCTYPE svg PUBLIC "-//W3C//DTD SVG 1.1//EN" "http://www.w3.org/Graphics/SVG/1.1/DTD/svg11.dtd">
<svg version="1.1" xmlns="http://www.w3.org/2000/svg" xmlns:xlink="http://www.w3.org/1999/xlink" width="26" height="32" viewBox="0 0 26 32">
<path fill="#444444" d="M19.688 16.125c0-3.906-2.031-5.938-5.938-5.938 3.906 0 5.938-2 5.938-5.906 0 3.906 2 5.906 5.906 5.906-3.906 0-5.906 2.031-5.906 5.938zM10.781 6.094c0 7.094 3.719 10.813 10.813 10.813-7.094 0-10.813 3.719-10.813 10.813 0-7.094-3.688-10.813-10.781-10.813 7.094 0 10.781-3.719 10.781-10.813zM18.594 21.031c0 1.844 0.969 2.844 2.813 2.844h0.031c-1.875 0-2.844 0.969-2.844 2.813 0-1.844-0.969-2.813-2.813-2.813 1.844 0 2.813-1 2.813-2.844z"></path>
</svg>
