<?xml version="1.0" encoding="utf-8"?>
<!-- Generated by IcoMoon.io -->
<!DOCTYPE svg PUBLIC "-//W3C//DTD SVG 1.1//EN" "http://www.w3.org/Graphics/SVG/1.1/DTD/svg11.dtd">
<svg version="1.1" xmlns="http://www.w3.org/2000/svg" xmlns:xlink="http://www.w3.org/1999/xlink" width="13" height="32" viewBox="0 0 13 32">
<path fill="#444444" d="M2.375 4h8.281c1.313 0 2.375 1.063 2.375 2.375v19.25c0 1.313-1.063 2.375-2.375 2.375h-8.281c-1.313 0-2.375-1.063-2.375-2.375v-19.25c0-1.313 1.063-2.375 2.375-2.375zM1.531 23.281h9.969v-14.781h-9.969v14.781zM6.5 26.563c0.75 0 1.313-0.563 1.313-1.281 0-0.75-0.563-1.313-1.313-1.313-0.719 0-1.281 0.563-1.281 1.313 0 0.719 0.563 1.281 1.281 1.281z"></path>
</svg>
