<?xml version="1.0" encoding="utf-8"?>
<!-- Generated by IcoMoon.io -->
<!DOCTYPE svg PUBLIC "-//W3C//DTD SVG 1.1//EN" "http://www.w3.org/Graphics/SVG/1.1/DTD/svg11.dtd">
<svg version="1.1" xmlns="http://www.w3.org/2000/svg" xmlns:xlink="http://www.w3.org/1999/xlink" width="21" height="32" viewBox="0 0 21 32">
<path fill="#444444" d="M1.375 9.156h18.063c0.781 0 1.375-0.594 1.375-1.375 0-0.75-0.594-1.344-1.375-1.344h-18.063c-0.781 0-1.375 0.594-1.375 1.344 0 0.781 0.594 1.375 1.375 1.375zM1.375 14.625h18.063c0.781 0 1.375-0.594 1.375-1.375 0-0.75-0.594-1.344-1.375-1.344h-18.063c-0.781 0-1.375 0.594-1.375 1.344 0 0.781 0.594 1.375 1.375 1.375zM1.375 20.094h18.063c0.781 0 1.375-0.594 1.375-1.344 0-0.781-0.594-1.375-1.375-1.375h-18.063c-0.781 0-1.375 0.594-1.375 1.375 0 0.75 0.594 1.344 1.375 1.344zM1.375 25.563h18.063c0.781 0 1.375-0.594 1.375-1.344 0-0.781-0.594-1.375-1.375-1.375h-18.063c-0.781 0-1.375 0.594-1.375 1.375 0 0.75 0.594 1.344 1.375 1.344z"></path>
</svg>
