<?xml version="1.0" encoding="utf-8"?>
<!-- Generated by IcoMoon.io -->
<!DOCTYPE svg PUBLIC "-//W3C//DTD SVG 1.1//EN" "http://www.w3.org/Graphics/SVG/1.1/DTD/svg11.dtd">
<svg version="1.1" xmlns="http://www.w3.org/2000/svg" xmlns:xlink="http://www.w3.org/1999/xlink" width="22" height="32" viewBox="0 0 22 32">
<path fill="#444444" d="M20.438 12.531c3.594-4.438-0.688-7.875-0.688-7.875s1.063 3.344-1.719 4.594c-1.906-1.781-4.5-2.844-7.313-2.844-5.906 0-10.719 4.781-10.719 10.656 0 5.938 4.813 10.719 10.719 10.719 5.938 0 10.75-4.781 10.75-10.719 0-1.594-0.375-3.156-1.031-4.531zM17.375 18.969c-0.844 2.875-3.469 4.969-6.656 4.969-3.781 0-6.875-3.063-6.875-6.875 0-3.094 2.063-5.688 4.906-6.563-0.188 0.625-0.281 1.25-0.281 1.938 0 3.781 3.063 6.844 6.875 6.844 0.688 0 1.375-0.094 2.031-0.313z"></path>
</svg>
