<?xml version="1.0" encoding="utf-8"?>
<!-- Generated by IcoMoon.io -->
<!DOCTYPE svg PUBLIC "-//W3C//DTD SVG 1.1//EN" "http://www.w3.org/Graphics/SVG/1.1/DTD/svg11.dtd">
<svg version="1.1" xmlns="http://www.w3.org/2000/svg" xmlns:xlink="http://www.w3.org/1999/xlink" width="32" height="32" viewBox="0 0 32 32">
<path fill="#444444" d="M7 23.375l3.625 3.625c0.156 0.156 0.344 0.25 0.563 0.219 0.25 0 0.469-0.063 0.625-0.219l3.594-3.625c0.5-0.5 0.344-0.875-0.375-0.875h-2.438v-5.125h5.063v2.5c0 0.719 0.438 0.844 0.938 0.344l3.594-3.594c0.156-0.156 0.219-0.344 0.219-0.594 0.031-0.219-0.063-0.438-0.219-0.625l-3.594-3.563c-0.5-0.5-0.938-0.375-0.906 0.344v2.438h-5.094v-5.063h2.438c0.719 0 0.875-0.406 0.375-0.906l-3.594-3.563c-0.313-0.313-0.875-0.344-1.188 0l-3.625 3.563c-0.5 0.5-0.344 0.906 0.375 0.906h2.438v5.031h-5.031v-2.406c0-0.719-0.438-0.844-0.938-0.344l-3.594 3.563c-0.156 0.156-0.219 0.375-0.25 0.625 0 0.25 0.094 0.438 0.25 0.594l3.594 3.594c0.5 0.5 0.906 0.375 0.906-0.344v-2.469h5.063v5.094h-2.438c-0.719 0-0.875 0.375-0.375 0.875z"></path>
</svg>
