<?xml version="1.0" encoding="utf-8"?>
<!-- Generated by IcoMoon.io -->
<!DOCTYPE svg PUBLIC "-//W3C//DTD SVG 1.1//EN" "http://www.w3.org/Graphics/SVG/1.1/DTD/svg11.dtd">
<svg version="1.1" xmlns="http://www.w3.org/2000/svg" xmlns:xlink="http://www.w3.org/1999/xlink" width="32" height="32" viewBox="0 0 32 32">
<path fill="#444444" d="M13.438 8.156h-10.063c-0.594 0-1.125 0.531-1.125 1.125v8.938c0 0.594 0.531 1.125 1.125 1.125h1.094v2.25h-1.094c-1.844 0-3.375-1.531-3.375-3.375v-8.938c0-1.844 1.531-3.375 3.375-3.375h10.063c1.844 0 3.375 1.531 3.375 3.375h-2.25c0-0.594-0.531-1.125-1.125-1.125zM8.969 10.406h10.063c1.844 0 3.375 1.5 3.375 3.344v8.969c0 1.844-1.531 3.344-3.375 3.344h-10.063c-1.844 0-3.375-1.5-3.375-3.344v-8.969c0-1.844 1.531-3.344 3.375-3.344zM8.969 23.844h10.063c0.594 0 1.125-0.531 1.125-1.125v-8.969c0-0.594-0.531-1.125-1.125-1.125h-10.063c-0.594 0-1.125 0.531-1.125 1.125v8.969c0 0.594 0.531 1.125 1.125 1.125z"></path>
</svg>
