<?xml version="1.0" encoding="utf-8"?>
<!-- Generated by IcoMoon.io -->
<!DOCTYPE svg PUBLIC "-//W3C//DTD SVG 1.1//EN" "http://www.w3.org/Graphics/SVG/1.1/DTD/svg11.dtd">
<svg version="1.1" xmlns="http://www.w3.org/2000/svg" xmlns:xlink="http://www.w3.org/1999/xlink" width="32" height="32" viewBox="0 0 32 32">
<path fill="#444444" d="M10.188 15.688h2.563v-9.656h-2.563v9.656zM14.281 12.969l2.656 2.656c0.438 0.438 0.438 1.125 0 1.563l-8.344 8.313c-0.406 0.438-1.125 0.438-1.531 0l-6.75-6.75c-0.406-0.406-0.406-1.125 0-1.531l8.313-8.344v8.094h5.656v-4zM16.594 13.719c0 0 2.094 0.844 2.094 4.969 0 2.563-0.281 2.969-0.281 2.969s4 0.438 4-3.469c0-3.938-5.813-4.469-5.813-4.469z"></path>
</svg>
