<?xml version="1.0" encoding="utf-8"?>
<!-- Generated by IcoMoon.io -->
<!DOCTYPE svg PUBLIC "-//W3C//DTD SVG 1.1//EN" "http://www.w3.org/Graphics/SVG/1.1/DTD/svg11.dtd">
<svg version="1.1" xmlns="http://www.w3.org/2000/svg" xmlns:xlink="http://www.w3.org/1999/xlink" width="18" height="32" viewBox="0 0 18 32">
<path fill="#444444" d="M18 13.969c0-4.969-4.031-9-9-9s-9 4.031-9 9c0 3.688 2.281 6.969 5.656 8.313 0.406 1.063 1.625 4.031 1.625 4.031 0.281 0.688 0.969 1.156 1.719 1.156s1.438-0.469 1.719-1.156c0 0 1.219-2.969 1.656-4.031 3.344-1.344 5.625-4.625 5.625-8.313zM9 23.75c-0.563-1.406-1.313-3.156-1.313-3.156-0.063-0.219-0.219-0.375-0.438-0.406-2.75-0.781-4.688-3.344-4.688-6.219 0-3.563 2.875-6.438 6.438-6.438s6.438 2.875 6.438 6.438c0 2.875-1.906 5.438-4.688 6.219-0.188 0.031-0.375 0.188-0.438 0.406 0 0-0.719 1.75-1.313 3.156z"></path>
</svg>
