<?xml version="1.0" encoding="utf-8"?>
<!-- Generated by IcoMoon.io -->
<!DOCTYPE svg PUBLIC "-//W3C//DTD SVG 1.1//EN" "http://www.w3.org/Graphics/SVG/1.1/DTD/svg11.dtd">
<svg version="1.1" xmlns="http://www.w3.org/2000/svg" xmlns:xlink="http://www.w3.org/1999/xlink" width="32" height="32" viewBox="0 0 32 32">
<path fill="#444444" d="M15.719 13.25l-8.5-7.719c1.25-0.469 2.563-0.75 3.969-0.75 1.594 0 3.156 0.375 4.531 0.969v7.5zM10.281 9.875l-9.906 9.063c-0.25-0.938-0.375-1.906-0.375-2.938 0-4.313 2.438-8.094 6.031-9.938zM16.938 19.688v-13.313c3.25 1.938 5.469 5.531 5.469 9.625 0 1.281-0.25 2.531-0.625 3.688h-4.844zM5.344 16.031v9.5c-2.063-1.25-3.625-3.125-4.531-5.375zM6.531 20.875h14.75c-1.813 3.719-5.656 6.313-10.094 6.313-1.656 0-3.25-0.406-4.656-1.031v-5.281z"></path>
</svg>
