<?xml version="1.0" encoding="utf-8"?>
<!-- Generated by IcoMoon.io -->
<!DOCTYPE svg PUBLIC "-//W3C//DTD SVG 1.1//EN" "http://www.w3.org/Graphics/SVG/1.1/DTD/svg11.dtd">
<svg version="1.1" xmlns="http://www.w3.org/2000/svg" xmlns:xlink="http://www.w3.org/1999/xlink" width="32" height="32" viewBox="0 0 32 32">
<path fill="#444444" d="M0 16c0 3.094 1.219 5.906 3.281 7.938 2.031 2.031 4.813 3.25 7.906 3.25s5.875-1.219 7.938-3.25c2.031-2.031 3.281-4.844 3.281-7.938s-1.25-5.906-3.281-7.938c-2.063-2.031-4.844-3.281-7.938-3.281s-5.875 1.25-7.906 3.281c-2.063 2.031-3.281 4.844-3.281 7.938zM3.375 16c0-2.188 0.875-4.125 2.281-5.531s3.344-2.313 5.531-2.313 4.156 0.906 5.563 2.313c1.438 1.406 2.281 3.344 2.281 5.531s-0.844 4.125-2.281 5.531c-1.406 1.406-3.344 2.313-5.563 2.313-2.188 0-4.125-0.906-5.531-2.313s-2.281-3.344-2.281-5.531zM8.156 11.625v8.781c0 0.156 0.063 0.281 0.219 0.375 0.063 0.031 0.156 0.063 0.219 0.063s0.188-0.031 0.25-0.063l7.625-4.406c0.125-0.063 0.25-0.188 0.25-0.375s-0.125-0.313-0.25-0.375l-7.625-4.438c-0.094-0.063-0.281-0.063-0.469 0-0.156 0.094-0.219 0.281-0.219 0.438z"></path>
</svg>
