<?xml version="1.0" encoding="utf-8"?>
<!-- Generated by IcoMoon.io -->
<!DOCTYPE svg PUBLIC "-//W3C//DTD SVG 1.1//EN" "http://www.w3.org/Graphics/SVG/1.1/DTD/svg11.dtd">
<svg version="1.1" xmlns="http://www.w3.org/2000/svg" xmlns:xlink="http://www.w3.org/1999/xlink" width="32" height="32" viewBox="0 0 32 32">
<path fill="#444444" d="M5.656 6.938l-0.344 2.688h11.781l-0.344-2.688c0-0.813-0.656-1.438-1.469-1.438h-8.188c-0.813 0-1.438 0.625-1.438 1.438zM1.438 11.094h19.531c0.813 0 1.438 0.625 1.438 1.438v8.563c0 0.813-0.625 1.438-1.438 1.438h-2.656v3.969h-14.219v-3.969h-2.656c-0.813 0-1.438-0.625-1.438-1.438v-8.563c0-0.813 0.625-1.438 1.438-1.438zM16.875 25.063v-9.281h-11.344v9.281h11.344zM15.188 18.469h-8.125c-0.188 0-0.344-0.188-0.344-0.375v-0.438c0-0.188 0.156-0.344 0.344-0.344h8.125c0.188 0 0.375 0.156 0.375 0.344v0.438c0 0.188-0.188 0.375-0.375 0.375zM15.188 21.063h-8.125c-0.188 0-0.344-0.188-0.344-0.375v-0.438c0-0.188 0.156-0.344 0.344-0.344h8.125c0.188 0 0.375 0.156 0.375 0.344v0.438c0 0.188-0.188 0.375-0.375 0.375zM15.188 23.656h-8.125c-0.188 0-0.344-0.188-0.344-0.375v-0.438c0-0.188 0.156-0.344 0.344-0.344h8.125c0.188 0 0.375 0.156 0.375 0.344v0.438c0 0.188-0.188 0.375-0.375 0.375z"></path>
</svg>
