<?xml version="1.0" encoding="utf-8"?>
<!-- Generated by IcoMoon.io -->
<!DOCTYPE svg PUBLIC "-//W3C//DTD SVG 1.1//EN" "http://www.w3.org/Graphics/SVG/1.1/DTD/svg11.dtd">
<svg version="1.1" xmlns="http://www.w3.org/2000/svg" xmlns:xlink="http://www.w3.org/1999/xlink" width="32" height="32" viewBox="0 0 32 32">
<path fill="#444444" d="M11.188 4.781c6.188 0 11.219 5.031 11.219 11.219s-5.031 11.188-11.219 11.188-11.188-5-11.188-11.188 5-11.219 11.188-11.219zM6.188 16.281h-2.156c0 1.875 0.719 3.75 2.094 5.156 2.813 2.781 7.344 2.781 10.156 0 2.781-2.813 2.781-7.375 0-10.156-1.313-1.281-2.938-1.969-4.625-2.063v-2.406l-5.469 3.563 5.469 3.531v-2.563c1.156 0.094 2.219 0.563 3.094 1.438 1.969 1.938 1.969 5.188 0 7.125-1.938 1.969-5.156 1.969-7.094 0-1.031-0.969-1.5-2.313-1.469-3.625z"></path>
</svg>
