<?xml version="1.0" encoding="utf-8"?>
<!-- Generated by IcoMoon.io -->
<!DOCTYPE svg PUBLIC "-//W3C//DTD SVG 1.1//EN" "http://www.w3.org/Graphics/SVG/1.1/DTD/svg11.dtd">
<svg version="1.1" xmlns="http://www.w3.org/2000/svg" xmlns:xlink="http://www.w3.org/1999/xlink" width="21" height="32" viewBox="0 0 21 32">
<path fill="#444444" d="M0 9.094v-3.094c1.219-0.25 2.5-0.406 3.813-0.406 9.375 0 17 7.625 17 17 0 1.313-0.188 2.594-0.438 3.813h-3.063c0.344-1.219 0.5-2.5 0.5-3.813 0-7.75-6.25-14.031-14-14.031-1.313 0-2.594 0.188-3.813 0.531zM0 16.219v-3.313c1.188-0.469 2.469-0.719 3.813-0.719 5.719 0 10.406 4.688 10.406 10.406 0 1.344-0.281 2.625-0.75 3.813h-3.281c0.688-1.125 1.031-2.438 1.031-3.813 0-4.094-3.313-7.438-7.406-7.438-1.406 0-2.688 0.375-3.813 1.063zM3.813 18.781c2.125 0 3.813 1.688 3.813 3.813s-1.688 3.813-3.813 3.813-3.813-1.688-3.813-3.813 1.688-3.813 3.813-3.813z"></path>
</svg>
