<?xml version="1.0" encoding="utf-8"?>
<!-- Generated by IcoMoon.io -->
<!DOCTYPE svg PUBLIC "-//W3C//DTD SVG 1.1//EN" "http://www.w3.org/Graphics/SVG/1.1/DTD/svg11.dtd">
<svg version="1.1" xmlns="http://www.w3.org/2000/svg" xmlns:xlink="http://www.w3.org/1999/xlink" width="24" height="32" viewBox="0 0 24 32">
<path fill="#444444" d="M1.531 17.563c-1.875 1.313-0.75 2.969 0.813 3.063 1.563 0.125 2.875 1.188 2.5 2.469-0.688 2.188-0.25 4 3.313 2.188 1.813-0.906 3.031-3.156 5.375 0.938 1.375 2.406 4.875 0.813 4.406-1.938-0.219-1.344 0.531-2.156 3.156-2.938 4.781-1.406 2.75-5.375 0.375-6.375s-2.719-2.719-1.875-4.469c0.813-1.688-1.5-4.406-3.531-2.594-1.625 1.438-3.656 0.125-3.688-0.375s-1.781-4.156-2.813-1.063c-0.688 1.969 0.406 5.375-5.656 1.844-3.844-2.25-5.719 3.531-1.531 5.563 1.969 0.969 1.031 2.406-0.844 3.688z"></path>
</svg>
