<?xml version="1.0" encoding="utf-8"?>
<!-- Generated by IcoMoon.io -->
<!DOCTYPE svg PUBLIC "-//W3C//DTD SVG 1.1//EN" "http://www.w3.org/Graphics/SVG/1.1/DTD/svg11.dtd">
<svg version="1.1" xmlns="http://www.w3.org/2000/svg" xmlns:xlink="http://www.w3.org/1999/xlink" width="18" height="32" viewBox="0 0 18 32">
<path fill="#444444" d="M1.125 10.156h15.875c0.594 0 1.125 0.531 1.125 1.125v2.625c0 0.625-0.531 1.125-1.125 1.125h-15.875c-0.625 0-1.125-0.5-1.125-1.125v-2.625c0-0.594 0.5-1.125 1.125-1.125zM16.75 12.844v-0.5c0-0.188-0.188-0.375-0.375-0.375h-2c-0.219 0-0.375 0.188-0.375 0.375v0.5c0 0.219 0.156 0.375 0.375 0.375h2c0.188 0 0.375-0.156 0.375-0.375zM1.125 15.906h15.875c0.594 0 1.125 0.5 1.125 1.125v2.625c0 0.625-0.531 1.125-1.125 1.125h-15.875c-0.625 0-1.125-0.5-1.125-1.125v-2.625c0-0.625 0.5-1.125 1.125-1.125zM16.75 18.594v-0.5c0-0.188-0.188-0.375-0.375-0.375h-2c-0.219 0-0.375 0.188-0.375 0.375v0.5c0 0.219 0.156 0.375 0.375 0.375h2c0.188 0 0.375-0.156 0.375-0.375zM1.125 21.656h15.875c0.594 0 1.125 0.5 1.125 1.125v2.625c0 0.625-0.531 1.125-1.125 1.125h-15.875c-0.625 0-1.125-0.5-1.125-1.125v-2.625c0-0.625 0.5-1.125 1.125-1.125zM16.75 24.344v-0.5c0-0.219-0.188-0.375-0.375-0.375h-2c-0.219 0-0.375 0.156-0.375 0.375v0.5c0 0.219 0.156 0.375 0.375 0.375h2c0.188 0 0.375-0.156 0.375-0.375zM17 9.313h-15.875c-0.188 0-0.375 0.031-0.531 0.094l1.906-2.594c0.375-0.5 1.188-0.906 1.813-0.906h9.5c0.594 0 1.406 0.406 1.781 0.906l1.938 2.594c-0.188-0.063-0.375-0.094-0.531-0.094z"></path>
</svg>
