<?xml version="1.0" encoding="utf-8"?>
<!-- Generated by IcoMoon.io -->
<!DOCTYPE svg PUBLIC "-//W3C//DTD SVG 1.1//EN" "http://www.w3.org/Graphics/SVG/1.1/DTD/svg11.dtd">
<svg version="1.1" xmlns="http://www.w3.org/2000/svg" xmlns:xlink="http://www.w3.org/1999/xlink" width="21" height="32" viewBox="0 0 21 32">
<path fill="#444444" d="M8.469 17.031l5.406 3.031c0.781-0.906 1.938-1.469 3.25-1.469 2.375 0 4.281 1.938 4.281 4.313s-1.906 4.281-4.281 4.281c-2.406 0-4.313-1.906-4.313-4.281 0-0.25 0.031-0.531 0.063-0.781l-5.563-3.094c-0.781 0.781-1.844 1.25-3.031 1.25-2.375 0-4.281-1.906-4.281-4.281s1.906-4.281 4.281-4.281c1.219 0 2.344 0.5 3.125 1.313l5.531-3c-0.063-0.313-0.125-0.625-0.125-0.938 0-2.375 1.906-4.313 4.313-4.313 2.375 0 4.281 1.938 4.281 4.313s-1.906 4.281-4.281 4.281c-1.219 0-2.313-0.469-3.094-1.313l-5.563 2.969c0.063 0.313 0.094 0.656 0.094 0.969 0 0.344-0.031 0.719-0.094 1.031z"></path>
</svg>
