<?xml version="1.0" encoding="utf-8"?>
<!-- Generated by IcoMoon.io -->
<!DOCTYPE svg PUBLIC "-//W3C//DTD SVG 1.1//EN" "http://www.w3.org/Graphics/SVG/1.1/DTD/svg11.dtd">
<svg version="1.1" xmlns="http://www.w3.org/2000/svg" xmlns:xlink="http://www.w3.org/1999/xlink" width="24" height="32" viewBox="0 0 24 32">
<path fill="#444444" d="M19.688 27.531l-7.531-3.906-7.531 3.906 1.469-8.344-6.094-5.906 8.406-1.219 3.75-7.625 3.75 7.625 8.406 1.219-6.063 5.906zM8.688 13.813l-4.844 0.719 3.469 3.375c0.406 0.406 0.625 1 0.531 1.563l-0.813 4.813 4.281-2.281c0.25-0.125 0.563-0.188 0.844-0.188s0.594 0.063 0.844 0.188l4.281 2.281-0.813-4.813c-0.094-0.563 0.125-1.156 0.531-1.563l3.469-3.375-4.813-0.719c-0.563-0.094-1.094-0.469-1.344-1l-2.156-4.344-2.125 4.344c-0.25 0.531-0.781 0.906-1.344 1z"></path>
</svg>
