<?xml version="1.0" encoding="utf-8"?>
<!-- Generated by IcoMoon.io -->
<!DOCTYPE svg PUBLIC "-//W3C//DTD SVG 1.1//EN" "http://www.w3.org/Graphics/SVG/1.1/DTD/svg11.dtd">
<svg version="1.1" xmlns="http://www.w3.org/2000/svg" xmlns:xlink="http://www.w3.org/1999/xlink" width="32" height="32" viewBox="0 0 32 32">
<path fill="#444444" d="M11.188 5.094c6.188 0 11.219 4.844 11.219 10.906s-5.031 10.906-11.219 10.906-11.188-4.844-11.188-10.906 5-10.906 11.188-10.906zM3.719 12.469c0 1.813 1.469 3.313 3.281 3.313s3.313-1.5 3.313-3.313-1.5-3.281-3.313-3.281-3.281 1.469-3.281 3.281zM15.406 15.781c1.813 0 3.281-1.5 3.281-3.313s-1.469-3.281-3.281-3.281-3.313 1.469-3.313 3.281 1.5 3.313 3.313 3.313zM8.469 12.469c0 0.813-0.656 1.469-1.469 1.469s-1.469-0.656-1.469-1.469 0.656-1.469 1.469-1.469 1.469 0.656 1.469 1.469zM15.406 11c0.813 0 1.469 0.656 1.469 1.469s-0.656 1.469-1.469 1.469-1.5-0.656-1.5-1.469 0.688-1.469 1.5-1.469zM9.875 23.188h2.625c1.594 0 2.938-1.313 2.938-2.938s-1.344-2.938-2.938-2.938h-2.625c-1.594 0-2.906 1.313-2.906 2.938s1.313 2.938 2.906 2.938z"></path>
</svg>
