<?xml version="1.0" encoding="utf-8"?>
<!-- Generated by IcoMoon.io -->
<!DOCTYPE svg PUBLIC "-//W3C//DTD SVG 1.1//EN" "http://www.w3.org/Graphics/SVG/1.1/DTD/svg11.dtd">
<svg version="1.1" xmlns="http://www.w3.org/2000/svg" xmlns:xlink="http://www.w3.org/1999/xlink" width="32" height="32" viewBox="0 0 32 32">
<path fill="#444444" d="M11.188 27.188c-6.188 0-11.188-5-11.188-11.188s5-11.219 11.188-11.219 11.219 5.031 11.219 11.219-5.031 11.188-11.219 11.188zM11.188 7.563c-4.625 0-8.375 3.813-8.375 8.438s3.75 8.375 8.375 8.375 8.438-3.75 8.438-8.375-3.813-8.438-8.438-8.438zM14.219 20.281l-3.969-2.906c-0.281-0.219-0.563-0.688-0.563-1.063v-6.344c0-0.344 0.313-0.625 0.688-0.625h1.313c0.344 0 0.625 0.281 0.625 0.625v5c0 0.375 0.281 0.844 0.563 1.063l2.906 2.094c0.281 0.219 0.344 0.656 0.125 0.938l-0.781 1.063c-0.219 0.281-0.625 0.344-0.906 0.156z"></path>
</svg>
