<?xml version="1.0" encoding="utf-8"?>
<!-- Generated by IcoMoon.io -->
<!DOCTYPE svg PUBLIC "-//W3C//DTD SVG 1.1//EN" "http://www.w3.org/Graphics/SVG/1.1/DTD/svg11.dtd">
<svg version="1.1" xmlns="http://www.w3.org/2000/svg" xmlns:xlink="http://www.w3.org/1999/xlink" width="20" height="32" viewBox="0 0 20 32">
<path fill="#444444" d="M9 23.563v-7.563c0.313-0.094 0.625-0.125 0.813-0.125s0.5 0.031 0.813 0.125v7.563c0 1.313-0.875 3.281-3.281 3.281-2.375 0-3.25-1.969-3.25-3.281 0-0.438 0.344-0.813 0.813-0.813 0.438 0 0.813 0.375 0.813 0.813 0 0.406 0.156 1.656 1.625 1.656 1.563 0 1.656-1.375 1.656-1.656zM10.625 6.406v0.875c5.031 0.406 9 4.625 9 9.75h-0.125c-0.375-1.406-1.625-2.156-3.156-2.156s-2.781 0.75-3.156 2.156h-0.219c-0.313-1.125-1.188-1.719-2.344-2.031v0c-0.25-0.063-0.531-0.094-0.813-0.094s-0.563 0.031-0.813 0.094v0c-1.156 0.313-2.063 0.906-2.344 2.031h-0.25c-0.344-1.406-1.625-2.156-3.125-2.156-1.531 0-2.813 0.75-3.156 2.156h-0.125c0-5.125 3.969-9.344 9-9.75v-0.875c0-0.438 0.344-0.813 0.813-0.813 0.438 0 0.813 0.375 0.813 0.813z"></path>
</svg>
