<?xml version="1.0" encoding="utf-8"?>
<!-- Generated by IcoMoon.io -->
<!DOCTYPE svg PUBLIC "-//W3C//DTD SVG 1.1//EN" "http://www.w3.org/Graphics/SVG/1.1/DTD/svg11.dtd">
<svg version="1.1" xmlns="http://www.w3.org/2000/svg" xmlns:xlink="http://www.w3.org/1999/xlink" width="32" height="32" viewBox="0 0 32 32">
<path fill="#444444" d="M4.125 13.688h4.031v6.594c0 0.563 0.469 1.031 1.031 1.031h4.031c0.563 0 1.063-0.469 1.063-1.031v-6.594h4.031c0.531 0 0.688-0.281 0.313-0.688l-6.688-6.656c-0.188-0.219-0.469-0.344-0.75-0.344s-0.531 0.125-0.719 0.344l-6.656 6.656c-0.375 0.406-0.25 0.688 0.313 0.688zM0 18.344v7.125c0 0.313 0.156 0.5 0.5 0.5h21.375c0.344 0 0.531-0.188 0.531-0.5v-7.125c0-0.313-0.25-0.563-0.531-0.563h-2.031c-0.281 0-0.531 0.281-0.531 0.563v4.531h-16.25v-4.531c0-0.313-0.219-0.563-0.5-0.563h-2.063c-0.281 0-0.5 0.281-0.5 0.563z"></path>
</svg>
