<?xml version="1.0" encoding="utf-8"?>
<!-- Generated by IcoMoon.io -->
<!DOCTYPE svg PUBLIC "-//W3C//DTD SVG 1.1//EN" "http://www.w3.org/Graphics/SVG/1.1/DTD/svg11.dtd">
<svg version="1.1" xmlns="http://www.w3.org/2000/svg" xmlns:xlink="http://www.w3.org/1999/xlink" width="20" height="32" viewBox="0 0 20 32">
<path fill="#444444" d="M11.656 21.844c-2.219 0-3.531-1.719-3.531-5.094v-10.688h7.156v10.688c0 3.469-1.281 5.094-3.625 5.094zM19.688 16.469v-10.094c0.375 0.281 0.625 0.75 0.625 1.25v17.188c0 0.875-0.688 1.563-1.563 1.563h-17.188c-0.875 0-1.563-0.688-1.563-1.563v-17.188c0-0.875 0.688-1.563 1.563-1.563h2.125v10.344c0 6.219 2.875 9 7.844 9 5.094 0 8.156-2.875 8.156-8.938z"></path>
</svg>
