<?xml version="1.0" encoding="utf-8"?>
<!-- Generated by IcoMoon.io -->
<!DOCTYPE svg PUBLIC "-//W3C//DTD SVG 1.1//EN" "http://www.w3.org/Graphics/SVG/1.1/DTD/svg11.dtd">
<svg version="1.1" xmlns="http://www.w3.org/2000/svg" xmlns:xlink="http://www.w3.org/1999/xlink" width="14" height="32" viewBox="0 0 14 32">
<path fill="#444444" d="M0 13.656v4.688c0 0.281 0.219 0.469 0.469 0.469h2.625l5.281 4.031c0.844 0.875 1.469 0.594 1.469-0.625v-12.469c0-1.188-0.625-1.469-1.469-0.594l-5.281 4.031h-2.625c-0.25 0-0.469 0.219-0.469 0.469zM11.875 21.063c0.156 0.094 0.313 0.156 0.469 0.156 0.375 0 0.688-0.188 0.875-0.531 0.875-1.469 1.281-3.031 1.281-4.688 0-1.625-0.406-3.219-1.281-4.719-0.281-0.469-0.875-0.594-1.344-0.344s-0.625 0.875-0.375 1.344c0.719 1.188 1 2.438 1 3.719s-0.281 2.531-1 3.719c-0.25 0.469-0.094 1.094 0.375 1.344z"></path>
</svg>
