<?xml version="1.0" encoding="utf-8"?>
<!-- Generated by IcoMoon.io -->
<!DOCTYPE svg PUBLIC "-//W3C//DTD SVG 1.1//EN" "http://www.w3.org/Graphics/SVG/1.1/DTD/svg11.dtd">
<svg version="1.1" xmlns="http://www.w3.org/2000/svg" xmlns:xlink="http://www.w3.org/1999/xlink" width="26" height="32" viewBox="0 0 26 32">
<path fill="#444444" d="M15.188 20.031c-1.344-1.313-3.438-1.313-4.781 0-1.313 1.313-1.313 3.438 0 4.781 1.344 1.313 3.438 1.313 4.781 0 1.313-1.344 1.313-3.469 0-4.781zM8.125 17.75c-0.875 0.875-1.438 1.906-1.719 3.031l-2.094-2.031c0.438-1.063 1.094-2 1.969-2.844 3.594-3.625 9.438-3.625 13.031 0 0.844 0.844 1.531 1.781 1.969 2.844l-2.094 2.031c-0.281-1.125-0.844-2.156-1.719-3.031-2.594-2.594-6.781-2.594-9.344 0zM3.969 13.594c-0.813 0.844-1.531 1.75-2.063 2.719l-1.906-1.906c0.594-0.938 1.313-1.813 2.125-2.656 5.875-5.875 15.5-5.875 21.375 0 0.813 0.844 1.5 1.719 2.094 2.656l-1.906 1.906c-0.531-0.969-1.25-1.875-2.063-2.719-4.875-4.875-12.781-4.875-17.656 0z"></path>
</svg>
