<?xml version="1.0" encoding="utf-8"?>
<!-- Generated by IcoMoon.io -->
<!DOCTYPE svg PUBLIC "-//W3C//DTD SVG 1.1//EN" "http://www.w3.org/Graphics/SVG/1.1/DTD/svg11.dtd">
<svg version="1.1" xmlns="http://www.w3.org/2000/svg" xmlns:xlink="http://www.w3.org/1999/xlink" width="32" height="32" viewBox="0 0 32 32">
<path fill="#444444" d="M16.906 20.188l5.5 5.5-2.25 2.281-5.75-5.781c-1.406 0.781-3.031 1.219-4.719 1.219-5.344 0-9.688-4.344-9.688-9.688s4.344-9.688 9.688-9.688 9.719 4.344 9.719 9.688c0 2.5-0.969 4.781-2.5 6.469zM2.688 13.719c0 3.875 3.125 6.969 7 6.969 3.844 0 7-3.094 7-6.969s-3.156-6.969-7-6.969c-3.875 0-7 3.094-7 6.969zM10.813 12.625h3.875v2.219h-3.875v3.844h-2.219v-3.844h-3.844v-2.219h3.844v-3.875h2.219v3.875z"></path>
</svg>
