<svg width="100" xmlns="http://www.w3.org/2000/svg" height="100" viewBox="0 0 100 100" xmlns:xlink="http://www.w3.org/1999/xlink" enable-background="new 0 0 100 100">
<path d="m81.232,15.389h-62.463c-1.882,0-3.407,1.525-3.407,3.407v3.143c0,1.881 1.525,3.407 3.407,3.407h62.463c1.881,0 3.407-1.525 3.407-3.407v-3.143c0-1.882-1.526-3.407-3.407-3.407z"/>
<path d="m81.232,35.144h-62.463c-1.882,0-3.407,1.525-3.407,3.407v3.143c0,1.881 1.525,3.407 3.407,3.407h62.463c1.881,0 3.407-1.525 3.407-3.407v-3.143c0-1.881-1.526-3.407-3.407-3.407z"/>
<path d="m81.232,54.899h-62.463c-1.882,0-3.407,1.525-3.407,3.407v3.143c0,1.881 1.525,3.407 3.407,3.407h62.463c1.881,0 3.407-1.525 3.407-3.407v-3.143c0-1.881-1.526-3.407-3.407-3.407z"/>
<path d="m81.232,74.654h-62.463c-1.882,0-3.407,1.525-3.407,3.407v3.143c0,1.881 1.525,3.407 3.407,3.407h62.463c1.881,0 3.407-1.525 3.407-3.407v-3.143c0-1.881-1.526-3.407-3.407-3.407z"/>
</svg>
