<svg width="100" xmlns="http://www.w3.org/2000/svg" height="100" viewBox="0 0 100 100" xmlns:xlink="http://www.w3.org/1999/xlink" enable-background="new 0 0 100 100">
<path d="m91.17,81.374l.006-.004-.139-.24c-.068-.128-.134-.257-.216-.375l-37.69-65.283c-.611-1.109-1.776-1.87-3.133-1.87-1.47,0-2.731,.887-3.285,2.153l-.004-.002-37.397,64.776 .036,.021c-.505,.618-.82,1.397-.82,2.257 0,1.982 1.607,3.59 3.588,3.59h75.767c1.982,0 3.589-1.607 3.589-3.589 0-.511-.11-.994-.302-1.434zm-41.135-1.757c-2.874,0-5.201-2.257-5.201-5.13 0-2.874 2.326-5.2 5.201-5.2 2.803,0 5.13,2.325 5.13,5.2 .001,2.873-2.327,5.13-5.13,5.13zm5.13-45.367v28.299h-.002c0,.005 .002,.01 .002,.016 0,1.173-.95,2.094-2.094,2.094-.005,0-.009-.001-.014-.001v.001h-6.093c-1.174,0-2.123-.921-2.123-2.094 0-.005 .002-.01 .002-.016h-.002v-28.223c-.001-.026-.008-.051-.008-.077 0-1.117 .865-1.996 1.935-2.078v-.016h6.288v.001c1.149,.007 2.074,.897 2.103,2.039h.005v.053 .002c.002,0 .001,0 .001,0z"/>
</svg>
