<svg width="100" xmlns="http://www.w3.org/2000/svg" height="100" viewBox="0 0 100 100" xmlns:xlink="http://www.w3.org/1999/xlink" enable-background="new 0 0 100 100">
<path d="m81.232,15.138h-62.463c-1.882,0-3.407,1.525-3.407,3.407v3.143c0,1.881 1.525,3.407 3.407,3.407h62.463c1.881,0 3.407-1.525 3.407-3.407v-3.143c0-1.882-1.526-3.407-3.407-3.407z"/>
<path d="m76.224,41.611v-3.143c0-1.882-1.525-3.407-3.407-3.407h-45.634c-1.882,0-3.407,1.525-3.407,3.407v3.143c0,1.881 1.525,3.407 3.407,3.407h45.634c1.882-.001 3.407-1.526 3.407-3.407z"/>
<path d="m77.81,74.905h-55.634c-1.882,0-3.407,1.525-3.407,3.407v3.143c0,1.881 1.525,3.407 3.407,3.407h55.634c1.881,0 3.407-1.525 3.407-3.407h.015v-3.143h-.015c0-1.881-1.526-3.407-3.407-3.407z"/>
<path d="m72.817,58.39c0-1.882-1.525-3.407-3.407-3.407v0h-38.82c-1.882,0-3.407,1.525-3.407,3.407v3.143c0,1.881 1.525,3.407 3.407,3.407h38.82l0,0c1.881,0 3.407-1.525 3.407-3.407 0,0 0-.001 0-.001v-3.141-.001z"/>
</svg>
