<svg width="100" xmlns="http://www.w3.org/2000/svg" height="100" viewBox="0 0 100 100" xmlns:xlink="http://www.w3.org/1999/xlink" enable-background="new 0 0 100 100">
<path d="m95.582,41.448h-7.796v-17.106-.001c0-.956-.775-1.731-1.733-1.731h-81.635c-.957,0-1.732,.775-1.732,1.731v.001 51.316 .001c0,.957 .775,1.731 1.732,1.731h81.635c.957,0 1.732-.775 1.732-1.731v-.001-18.619h7.796c.957,0 1.732-.775 1.732-1.732v-12.127c.001-.957-.774-1.732-1.731-1.732zm-17.753,25.986h-64.967v-34.649h64.967v34.649z"/>
<path d="m56.581,37.635-38.807,0 0,24.73 29.105,0z"/>
</svg>
