<svg width="100" xmlns="http://www.w3.org/2000/svg" height="100" viewBox="0 0 100 100" xmlns:xlink="http://www.w3.org/1999/xlink" enable-background="new 0 0 100 100">
<g fill-rule="evenodd">
<path d="m37.808,77.057-3.397,8.943 32.764,0-3.397-8.943z"/>
<path d="m40.608,68.316 20.369,0-10.184-26.989z"/>
<path d="m79,14h-58c-3.85,0-7,3.15-7,7v58c0,3.85 3.15,7 7,7h2.111l20.812-52.766c.329-1.061 1.307-1.836 2.476-1.836h8.812c1.152,0 2.118,.753 2.462,1.79h.018l20.787,52.812h.522c3.85,0 7-3.15 7-7v-58c0-3.85-3.15-7-7-7z"/>
</g>
</svg>
