<svg width="100" xmlns="http://www.w3.org/2000/svg" height="100" viewBox="0 0 100 100" xmlns:xlink="http://www.w3.org/1999/xlink" enable-background="new 0 0 100 100">
<path d="m68.312,13.111h-36.625c-1.661,0-3.007,1.346-3.007,3.007v6.743 45.917 15.897c0,1.224 .992,2.215 2.216,2.215 .585,0 1.113-.231 1.509-.602h.014l16.094-16.094h.035c.355-.414 .876-.682 1.465-.682s1.109,.268 1.465,.682h.035l15.918,15.918c.406,.472 1.001,.777 1.673,.777 1.224,0 2.216-.992 2.216-2.215v-15.897-45.916-6.743c-0-1.661-1.347-3.007-3.008-3.007z"/>
</svg>
