<svg width="100" xmlns="http://www.w3.org/2000/svg" height="100" viewBox="0 0 100 100" xmlns:xlink="http://www.w3.org/1999/xlink" enable-background="new 0 0 100 100">
<path d="m82.063,22.284h-.006c-.029-.874-.734-1.573-1.612-1.589v-.003h-3.36l-.001,60.404 .001,.01c0,.9-.721,1.627-1.617,1.644v.005l-50.906-.002c-.816,0-1.488-.595-1.619-1.375v-3.602h47.405v-.003c.011,0 .021,.003 .031,.003 .91,0 1.646-.735 1.646-1.646 0-.006-.002-.012-.002-.012l.002-62.202c0-.91-.736-1.647-1.646-1.646-.01,0-.02,.003-.03,.003v-.004l-50.766,.001c-.91,0-1.646,.736-1.646,1.646 0,.021 .006,.042 .006,.063v59.237 12.807c-.001,.02-.006,.039-.006,.059s.005,.039 .006,.059v.076h.008c.07,.845 .769,1.511 1.632,1.511v.001l60.833,.002h.029v-.003c.896-.016 1.617-.743 1.617-1.643l-.001-.01 .002-63.791zm-59.147,1.588c0-.908 .736-1.646 1.646-1.646h40.84c.909,0 1.646,.738 1.646,1.646l-.001,12.361v.002c0,.91-.737,1.646-1.646,1.646h-40.839c-.909,0-1.646-.736-1.646-1.646l.001-12.354c0-.003-.001-.006-.001-.009z"/>
</svg>
