<svg width="100" xmlns="http://www.w3.org/2000/svg" height="100" viewBox="0 0 100 100" xmlns:xlink="http://www.w3.org/1999/xlink" enable-background="new 0 0 100 100">
<path d="m80.761,17.26h-.019c.001-.049 .015-.095 .015-.145 0-2.893-2.346-5.245-5.241-5.245-.04,0-.076,.011-.116,.012h-14.558v-3.402-.002c0-.881-.714-1.593-1.593-1.595v-.008h-18.449v.006c-.015,0-.028-.004-.043-.004-.88,0-1.594,.713-1.594,1.594 0,.01 .003,.02 .003,.03v3.38h-14.665c-.007,0-.013-.002-.02-.002-2.893,0-5.242,2.354-5.242,5.243 0,.047 .013,.09 .014,.137h-.014v70.572h.003c0,.009-.003,.018-.003,.027 0,2.895 2.35,5.238 5.243,5.238 .078,0 .151-.02 .229-.023v.021h50.5c.098,.005 .191,.029 .29,.029 2.894,0 5.239-2.348 5.239-5.238 0-.019-.005-.036-.005-.055h.028v-70.57zm-9.941,65.925h-41.644v-61.376h4.997v3.069c-.002,.033-.01,.063-.01,.097 0,.998 .81,1.814 1.814,1.814 .005,0 .009-.001 .014-.001v.008h28.027c1.005-.002 1.813-.816 1.813-1.813 0-.015-.004-.029-.004-.044v-3.13h4.992v61.376z"/>
<path d="m39.15,41.119c0-.658-.537-1.195-1.198-1.195-.031,0-.058,.015-.088,.018v-.018h-2.502c-.661,0-1.199,.539-1.199,1.197v2.595 .002c0,.656 .537,1.193 1.199,1.193h.001 2.502v-.018c.03,.002 .056,.018 .086,.018 .663,0 1.2-.537 1.2-1.193v-.002-2.595h-.001v-.002z"/>
<path d="m65.831,41.119c0-.658-.537-1.195-1.198-1.195-.001,0-.001,0-.002,0h-19.294c-.661,0-1.199,.539-1.199,1.197v2.595 .002c0,.656 .537,1.193 1.199,1.193h.001 19.294c.663,0 1.2-.537 1.2-1.193v-.002-2.595h-.001v-.002z"/>
<path d="m39.15,51.094c0-.658-.537-1.195-1.198-1.195-.031,0-.058,.015-.088,.018v-.018h-2.502c-.661,0-1.199,.539-1.199,1.197v2.595 .002c0,.656 .537,1.193 1.199,1.193h.001 2.502v-.018c.03,.002 .056,.018 .086,.018 .663,0 1.2-.537 1.2-1.193v-.002-2.595h-.001v-.002z"/>
<path d="m65.831,51.094c0-.658-.537-1.195-1.198-1.195-.001,0-.001,0-.002,0h-19.294c-.661,0-1.199,.539-1.199,1.197v2.595 .002c0,.656 .537,1.193 1.199,1.193h.001 19.294c.663,0 1.2-.537 1.2-1.193v-.002-2.595h-.001v-.002z"/>
<path d="m39.15,61.069c0-.658-.537-1.195-1.198-1.195-.031,0-.058,.015-.088,.018v-.018h-2.502c-.661,0-1.199,.539-1.199,1.197v2.595 .002c0,.656 .537,1.193 1.199,1.193h.001 2.502v-.018c.03,.002 .056,.018 .086,.018 .663,0 1.2-.537 1.2-1.193v-.002-2.595h-.001v-.002z"/>
<path d="m65.831,61.069c0-.658-.537-1.195-1.198-1.195-.001,0-.001,0-.002,0h-19.294c-.661,0-1.199,.539-1.199,1.197v2.595 .002c0,.656 .537,1.193 1.199,1.193h.001 19.294c.663,0 1.2-.537 1.2-1.193v-.002-2.595h-.001v-.002z"/>
</svg>
