<svg width="100" xmlns="http://www.w3.org/2000/svg" height="100" viewBox="0 0 100 100" xmlns:xlink="http://www.w3.org/1999/xlink" enable-background="new 0 0 100 100">
<path d="m88.231,71.062c0,0-.001,0-.001,0h-7.263v-47.103h-.051c.003-.07 .021-.135 .021-.206 0-2.635-2.137-4.772-4.772-4.772h-47.175v-7.068h0c0-1.487-1.205-2.692-2.693-2.693h-4.571c-1.488,0-2.693,1.205-2.693,2.693 0,0 0,0 0,.001v7.067h-7.263c0,0-.001,0-.001,0-1.487,0-2.692,1.205-2.693,2.693v4.571c0,1.488 1.205,2.693 2.693,2.693 0,0 .001,0 .001,0h7.263v47.103h.052c-.003,.07-.021,.135-.021,.206 0,2.635 2.137,4.772 4.772,4.772h47.174v7.068c0,1.487 1.205,2.692 2.693,2.693h4.571c1.488,0 2.693-1.205 2.693-2.693v-7.068h7.263c0,0 0,0 .001,0 1.487,0 2.692-1.205 2.693-2.693v-4.571c-.001-1.488-1.205-2.693-2.693-2.693zm-59.241,.001v-42.126h42.02v42.125h-42.02z"/>
</svg>
