<svg width="100" xmlns="http://www.w3.org/2000/svg" height="100" viewBox="0 0 100 100" xmlns:xlink="http://www.w3.org/1999/xlink" enable-background="new 0 0 100 100">
<path d="m32.948,24.348h-.011c-.057-2.327-1.971-4.133-4.3-4.165v-.006h-15.69v.011c-2.307,.057-4.067,1.852-4.119,4.161h-.01v51.2h.008c.043,2.3 1.838,4.089 4.121,4.178v.097h15.69c2.401-.001 4.311-1.875 4.311-4.274 0,0 0-.001 0-.001v-51.201zm-12.066,50.488c-3.443,0-6.233-2.792-6.233-6.234 0-3.443 2.791-6.234 6.233-6.234 3.444,0 6.235,2.791 6.235,6.234 0,3.443-2.791,6.234-6.235,6.234zm7.078-22.41h-14.155v-27.262h14.155v27.262z"/>
<path d="m62.065,24.348h-.011c-.057-2.327-1.971-4.133-4.3-4.165v-.006h-15.69v.011c-2.307,.057-4.067,1.852-4.119,4.161h-.01v51.2h.008c.043,2.3 1.838,4.089 4.121,4.178v.097h15.69c2.401-.001 4.311-1.875 4.311-4.274 0,0 0-.001 0-.001v-51.201zm-12.066,50.488c-3.443,0-6.233-2.792-6.233-6.234 0-3.443 2.791-6.234 6.233-6.234 3.444,0 6.235,2.791 6.235,6.234 0,3.443-2.791,6.234-6.235,6.234zm7.078-22.41h-14.154v-27.262h14.155v27.262z"/>
<path d="m91.182,24.348h-.011c-.057-2.327-1.971-4.133-4.3-4.165v-.006h-15.69v.011c-2.307,.057-4.067,1.852-4.119,4.161h-.01v51.2h.008c.043,2.3 1.838,4.089 4.121,4.178v.097h15.69c2.401-.001 4.311-1.875 4.311-4.274 0,0 0-.001 0-.001v-51.201zm-12.065,50.488c-3.443,0-6.233-2.792-6.233-6.234 0-3.443 2.791-6.234 6.233-6.234 3.444,0 6.235,2.791 6.235,6.234 0,3.443-2.792,6.234-6.235,6.234zm7.078-22.41h-14.155v-27.262h14.155v27.262z"/>
</svg>
