<svg width="100" xmlns="http://www.w3.org/2000/svg" height="100" viewBox="0 0 100 100" xmlns:xlink="http://www.w3.org/1999/xlink" enable-background="new 0 0 100 100">
<path d="m86.304,40.985h-72.608c-.836,0-1.513,.677-1.513,1.513v15.127c0,.836 .677,1.513 1.513,1.513h72.608c.836,0 1.513-.677 1.513-1.513v-15.128c-0-.835-.677-1.512-1.513-1.512z"/>
<path d="m56.261,17.848v-.053h-42.565c-.836,0-1.513,.677-1.513,1.513v15.127c0,.836 .677,1.513 1.513,1.513h42.565v-.053c.652-.169 1.135-.755 1.135-1.459v-15.129c0-.704-.483-1.29-1.135-1.459z"/>
<path d="m65.883,64.053h-52.187c-.836,0-1.513,.677-1.513,1.513v15.127c0,.836 .677,1.513 1.513,1.513h52.187c.836,0 1.513-.677 1.513-1.513v-15.127c0-.836-.677-1.513-1.513-1.513z"/>
</svg>
