<svg width="100" xmlns="http://www.w3.org/2000/svg" height="100" viewBox="0 0 100 100" xmlns:xlink="http://www.w3.org/1999/xlink" enable-background="new 0 0 100 100">
<path d="m82.488,74.334c0-.12-.019-.234-.035-.35v-26.924h-.001c0-.003 .001-.006 .001-.009 0-1.401-1.136-2.536-2.537-2.536-.047,0-.09,.011-.136,.014h-4.799v.018c-1.361,.04-2.452,1.145-2.461,2.513h-.008v27.502h.043c.12,1.257 1.147,2.243 2.426,2.287v.022h4.971l0,0 0,0c1.4-0 2.536-1.136 2.536-2.537z"/>
<path d="m67.49,78.554v-8.341-28.152c0-.003 .001-.006 .001-.009 0-1.401-1.136-2.536-2.537-2.536-.046,0-.09,.011-.136,.014h-9.932c-.15-.244-.334-.453-.536-.637l-9.88-17.115-.025,.015c-.99-1.753-2.848-2.936-4.98-2.936-3.171,0-5.742,2.608-5.742,5.825h-.058v3.257 .105 11.485h-13.684v.018c-1.361,.04-2.452,1.145-2.461,2.513h-.008v28.152h.006c0,.323 .124,.646 .368,.894l-.003,.003 9.764,9.764 .024-.024c.281,.231 .626,.318 .967,.272h36.103c.073,.006 .143,.022 .217,.022 1.355,0 2.454-1.066 2.523-2.405h.008v-.078c0-.018 .005-.035 .005-.053s-.003-.035-.004-.053zm-46.985-8.342l.042,.047-.047-.047h.005z"/>
</svg>
