<svg width="100" xmlns="http://www.w3.org/2000/svg" height="100" viewBox="0 0 100 100" xmlns:xlink="http://www.w3.org/1999/xlink" enable-background="new 0 0 100 100">
<path d="m88.721,20.13h-62.463c-1.882,0-3.407,1.525-3.407,3.407v3.143c0,1.881 1.525,3.407 3.407,3.407h62.463c1.881,0 3.407-1.525 3.407-3.407v-3.143c0-1.882-1.526-3.407-3.407-3.407z"/>
<path d="m88.721,45.022h-62.463c-1.882,0-3.407,1.525-3.407,3.407v3.143c0,1.881 1.525,3.407 3.407,3.407h62.463c1.881,0 3.407-1.525 3.407-3.407v-3.143c0-1.882-1.526-3.407-3.407-3.407z"/>
<path d="m88.721,69.913h-62.463c-1.882,0-3.407,1.525-3.407,3.407v3.143c0,1.881 1.525,3.407 3.407,3.407h62.463c1.881,0 3.407-1.525 3.407-3.407v-3.143c0-1.881-1.526-3.407-3.407-3.407z"/>
<circle cx="12.856" cy="25.108" r="4.984"/>
<circle cx="12.856" cy="49.002" r="4.984"/>
<circle cx="12.856" cy="74.891" r="4.984"/>
</svg>
