<svg width="100" xmlns="http://www.w3.org/2000/svg" height="100" viewBox="0 0 100 100" xmlns:xlink="http://www.w3.org/1999/xlink" enable-background="new 0 0 100 100">
<path d="m80.182,67.457l-35.4-.001v.001c-.003,0-.006-.001-.009-.001-1.253,0-2.269,1.017-2.269,2.269 0,.042 .01,.08 .012,.121v10.334h.011c0,1.248 1.008,2.26 2.254,2.268v.001h35.4v-.002c1.246-.008 2.254-1.02 2.254-2.268v-10.354c.002-.034 .01-.067 .01-.101 .001-1.25-1.012-2.264-2.263-2.267z"/>
<path d="m30.278,67.454h-10.455-.001c-1.253,0-2.269,1.017-2.269,2.269h0v10.454c0,1.253 1.016,2.269 2.268,2.269h.001 10.454c1.253,0 2.269-1.016 2.269-2.269v-10.454l0,0c.002-1.252-1.014-2.269-2.267-2.269z"/>
<path d="m80.182,42.467l-35.4-.001v.001c-.003,0-.006-.001-.009-.001-1.253,0-2.269,1.017-2.269,2.269 0,.042 .01,.08 .012,.121v10.334h.011c0,1.248 1.008,2.26 2.254,2.268v.001h35.4v-.002c1.246-.008 2.254-1.02 2.254-2.268v-10.354c.002-.034 .01-.067 .01-.101 .001-1.25-1.012-2.264-2.263-2.267z"/>
<path d="m30.278,42.464h-10.455-.001c-1.253,0-2.269,1.017-2.269,2.269h0v10.454c0,1.253 1.016,2.269 2.268,2.269h.001 10.454c1.253,0 2.269-1.016 2.269-2.269v-10.454l0,0c.002-1.252-1.014-2.269-2.267-2.269z"/>
<path d="m42.516,30.276h.011c0,1.248 1.008,2.26 2.254,2.268v.001h35.4v-.002c1.246-.008 2.254-1.02 2.254-2.268v-10.354c.002-.034 .01-.067 .01-.101 0-1.251-1.013-2.265-2.264-2.268v-.001h-35.4v.001c-.003,0-.006-.001-.009-.001-1.253,0-2.269,1.017-2.269,2.269 0,.042 .01,.08 .012,.121v10.335z"/>
<path d="m30.278,17.551h-10.455-.001c-1.253,0-2.269,1.017-2.269,2.269h0v10.454c0,1.253 1.016,2.269 2.268,2.269h.001 10.454c1.253,0 2.269-1.016 2.269-2.269v-10.454l0,0c.002-1.253-1.014-2.269-2.267-2.269z"/>
</svg>
