<svg width="100" xmlns="http://www.w3.org/2000/svg" height="100" viewBox="0 0 100 100" xmlns:xlink="http://www.w3.org/1999/xlink" enable-background="new 0 0 100 100">
<g fill="#231f20">
<path d="m27.725,30.515h44.55v23.113h-44.55z"/>
<path d="m28.793,58.615h11.074v10.87h-11.074z"/>
<path d="m60.915,58.615h11.074v10.87h-11.074z"/>
<path d="m44.854,58.615h11.074v10.87h-11.074z"/>
<path d="m82.69,15.588h-65.379-.001c-2.491,0-4.512,2.02-4.512,4.512h-.001v60.067h.028c.14,2.366 2.085,4.246 4.485,4.246h0 65.38c2.401,0 4.344-1.88 4.484-4.246h.027v-60.067c.001-2.493-2.019-4.512-4.511-4.512zm-5.428,58.885h-54.524v-48.946h54.525v48.946z"/>
</g>
</svg>
