<svg width="100" xmlns="http://www.w3.org/2000/svg" height="100" viewBox="0 0 100 100" xmlns:xlink="http://www.w3.org/1999/xlink" enable-background="new 0 0 100 100">
<path d="m86.45,23.27h-3.475v66.91c0,.835-.677,1.513-1.513,1.513h-49.475v3.475c0,.836 .677,1.513 1.513,1.513h.001 52.95c.836,0 1.513-.677 1.513-1.513v-70.386c-.001-.836-.678-1.512-1.514-1.512z"/>
<path d="m77.988,85.193v-70.386c0-.836-.677-1.513-1.513-1.513h-3.475v66.911c0,.836-.677,1.513-1.513,1.513h-49.476v3.475c0,.836 .677,1.513 1.513,1.513h52.951c.836,0 1.513-.677 1.513-1.513z"/>
<path d="m68.013,75.218v-70.386c0-.836-.677-1.513-1.513-1.513h-52.95c-.836,0-1.513,.677-1.513,1.513v70.386c0,.836 .677,1.513 1.513,1.513h52.95c.836,0 1.513-.677 1.513-1.513z"/>
</svg>
