<svg width="100" xmlns="http://www.w3.org/2000/svg" height="100" viewBox="0 0 100 100" xmlns:xlink="http://www.w3.org/1999/xlink" enable-background="new 0 0 100 100">
<path d="m75.272,7.482h-.005v-4.02c0-.956-.774-1.73-1.73-1.73h-2.45-28.69-1.73l-25.95,25.95v2.447 1.013 52.912 2.447c0,.956 .774,1.73 1.73,1.73h1.582 53.925 1.582c.956,0 1.73-.774 1.73-1.73v-2.448h.005l.001-76.571zm-50.598,70.794v-47.134h17.723c.956,0 1.73-.774 1.73-1.73v-17.723h21.188v66.587h-40.641z"/>
<path d="m83.77,24.857h-3.475v66.911c0,.835-.677,1.513-1.513,1.513h-49.476v3.475c0,.836 .677,1.513 1.513,1.513h.001 52.95c.836,0 1.513-.677 1.513-1.513v-70.386c-0-.836-.677-1.513-1.513-1.513z"/>
</svg>
