<svg width="100" xmlns="http://www.w3.org/2000/svg" height="100" viewBox="0 0 100 100" xmlns:xlink="http://www.w3.org/1999/xlink" enable-background="new 0 0 100 100">
<path d="m81.465,66.127c-.022-.038-.052-.069-.076-.105l.002-.001-26.904-46.599-.014,.008c-.23-.368-.558-.637-.929-.801l.038-.022-11.01-6.357v.044c-.554-.315-1.232-.367-1.846-.107l-.012-.021-.206,.119c-.004,.003-.009,.003-.013,.006-.004,.002-.007,.006-.012,.008l-21.183,12.23c-.656,.378-1.021,1.058-1.037,1.764l-.007-.004v12.714l.021-.012c-.047,.427 .03,.872 .261,1.273 .014,.024 .032,.042 .047,.065l26.816,46.446c.026,.055 .044,.112 .075,.166 .562,.971 1.785,1.316 2.772,.801l.005,.008 32.465-18.743-.014-.025c.996-.578 1.338-1.856 .761-2.855zm-45.099-36.766c-1.849,1.068-4.214,.435-5.281-1.414-1.068-1.849-.434-4.213 1.415-5.281 1.849-1.068 4.213-.434 5.281,1.416 1.068,1.847 .434,4.212-1.415,5.279z"/>
</svg>
