<svg width="100" xmlns="http://www.w3.org/2000/svg" height="100" viewBox="0 0 100 100" xmlns:xlink="http://www.w3.org/1999/xlink" enable-background="new 0 0 100 100">
<path d="m90.443,35.141c-.064-.953-.849-1.708-1.818-1.708h-13.114 0v-21.576c0-1.012-.819-1.83-1.83-1.83h-47.362c-1.011,0-1.83,.818-1.83,1.83v21.576h-13.112c0,0-.002,0-.002,0-.969,0-1.754,.755-1.818,1.708h-.012v36.769c0,1.01 .819,1.829 1.83,1.829h13.114v-15.314h4.987 41.047 4.987v15.314h13.114c1.011,0 1.83-.819 1.83-1.829v-36.769h-.011zm-19.919,6.49h-41.048v-24.787c0-1.012 .819-1.83 1.83-1.83h37.387c1.011,0 1.83,.818 1.83,1.83v24.787z"/>
<path d="m29.602,88.143c0,1.012 .819,1.83 1.83,1.83h37.136c1.011,0 1.83-.818 1.83-1.83v-24.64h-40.796v24.64z"/>
</svg>
