<svg width="100" xmlns="http://www.w3.org/2000/svg" height="100" viewBox="0 0 100 100" xmlns:xlink="http://www.w3.org/1999/xlink" enable-background="new 0 0 100 100">
<path d="m92.11,21.929c0-.973-.789-1.761-1.761-1.761-.002,0-.004,.001-.006,.001v-.005h-45.878v.014c-.965,.005-1.746,.786-1.751,1.752h-.001v.007c0,.001 0,.001 0,.001 0,.001 0,.002 0,.002v6.332c-.001,.03-.009,.057-.009,.087 0,.972 .788,1.76 1.761,1.761h45.878c.002,0 .004,.001 .006,.001 .973,0 1.761-.789 1.761-1.761 0,0 0-.001 0-.001l-0-6.43z"/>
<path d="m92.11,36.83c0-.973-.789-1.761-1.761-1.761-.002,0-.004,.001-.006,.001v-.005h-45.878v.014c-.965,.005-1.746,.786-1.751,1.752h-.001v.007 .002c0,.001 0,.001 0,.001v6.333c-.001,.03-.009,.057-.009,.087 0,.972 .788,1.76 1.761,1.761h45.878v-.001c.002,0 .004,.001 .006,.001 .973,0 1.761-.789 1.761-1.761v-.001l-0-6.43z"/>
<path d="m32.748,21.925c0-.973-.788-1.761-1.761-1.761-.043,0-.084,.01-.126,.013h-21.084c-.042-.003-.083-.013-.126-.013-.973,0-1.761,.789-1.761,1.761v21.335 0c0,.972 .788,1.761 1.761,1.761h21.336 0c.973,0 1.761-.789 1.761-1.761h0v-21.335z"/>
<path d="m92.11,56.744c0-.973-.789-1.761-1.761-1.761-.002,0-.004,.001-.006,.001v-.005h-45.878v.014c-.965,.005-1.746,.786-1.751,1.752h-.001v.007c0,.001 0,.001 0,.002 0,0 0,.001 0,.002v6.332c-.001,.03-.009,.057-.009,.087 0,.972 .788,1.761 1.761,1.761h45.878v-.001c.002,0 .004,.001 .006,.001 .973,0 1.761-.789 1.761-1.761v-.001l-0-6.43z"/>
<path d="m92.11,71.645c0-.973-.789-1.761-1.761-1.761-.002,0-.004,.001-.006,.001v-.005h-45.878v.014c-.965,.005-1.746,.786-1.751,1.752h-.001v.007c0,.001 0,.001 0,.001 0,.001 0,.002 0,.002v6.332c-.001,.03-.009,.057-.009,.087 0,.972 .788,1.761 1.761,1.761h.001 45.877v-.001c.002,0 .004,.001 .006,.001 .973,0 1.761-.789 1.761-1.761 0,0 0-.001 0-.001l-0-6.429z"/>
<path d="m32.748,56.74c0-.973-.788-1.762-1.761-1.762-.043,0-.084,.01-.126,.013h-21.084c-.042-.003-.083-.013-.126-.013-.973,0-1.761,.789-1.761,1.762v21.335 0c0,.972 .789,1.761 1.761,1.761 0,0 0,0 .001,0h21.335c.973,0 1.761-.789 1.761-1.761h0v-21.335z"/>
</svg>
