<svg width="100" xmlns="http://www.w3.org/2000/svg" height="100" viewBox="0 0 100 100" xmlns:xlink="http://www.w3.org/1999/xlink" enable-background="new 0 0 100 100">
<path d="m78.941,49.005c.393-.298 .615-.759 .603-1.242l-.609-26.821c-.018-.562-.341-1.078-.85-1.322-.508-.248-1.111-.19-1.566,.145l-5.861,4.375-.461,.345c-6.527-6.266-15.394-10.094-25.133-9.906-19.532,.376-35.115,16.574-34.739,36.103 .376,19.53 16.572,35.115 36.104,34.739 .704-.014 1.404-.051 2.1-.105 0,0 .469-.024 1.008-.271 .007-.003 .013-.007 .019-.01 .117-.055 .236-.123 .355-.202 .037-.024 .073-.048 .109-.074 .088-.064 .172-.139 .255-.219 .033-.031 .068-.059 .099-.092 .006-.006 .013-.011 .019-.017 .014-.015 .019-.03 .031-.045 .417-.471 .671-1.088 .658-1.766 0-.027-.008-.052-.009-.079l-.175-9.105h-.008c0-.028 .007-.054 .007-.082-.028-1.436-1.212-2.576-2.647-2.548v-.003c-.683,.081-1.371,.138-2.067,.152-11.556,.223-21.14-8.997-21.362-20.55-.223-11.554 8.999-21.135 20.555-21.358 4.878-.094 9.383,1.517 12.998,4.251l-.986,.738-5.866,4.375c-.448,.337-.678,.904-.583,1.46 .092,.556 .49,1.019 1.031,1.188l25.609,8.177c.463,.15 .966,.063 1.362-.231z"/>
<path d="m67.109,59.835-5.941,6.204 2.384,2.407 3.139-3.322 .269,13.963 4.096-.079-.37-19.242z"/>
<path d="m81.525,59.269c-5.51,.106-7.867,5.115-7.771,10.077 .096,4.962 2.644,9.906 8.154,9.8 5.51-.106 7.866-5.145 7.771-10.107-.096-4.962-2.644-9.876-8.154-9.77zm.313,16.242c-2.741,.053-3.832-2.697-3.901-6.245s.917-6.309 3.658-6.362c2.77-.053 3.832,2.668 3.9,6.216 .069,3.548-.916,6.338-3.657,6.391z"/>
</svg>
