<svg width="100" xmlns="http://www.w3.org/2000/svg" height="100" viewBox="0 0 100 100" xmlns:xlink="http://www.w3.org/1999/xlink" enable-background="new 0 0 100 100">
<path d="m79,14h-58c-3.85,0-7,3.15-7,7v58c0,3.85 3.15,7 7,7h58c3.85,0 7-3.15 7-7v-58c0-3.85-3.15-7-7-7zm-43.565,47.5c-6.456,0-11.69-5.233-11.69-11.689 0-6.456 5.234-11.69 11.69-11.69 6.456,0 11.689,5.233 11.689,11.69 0,6.456-5.233,11.689-11.689,11.689zm29.633,0c-6.456,0-11.69-5.233-11.69-11.689 0-6.456 5.233-11.69 11.69-11.69 6.456,0 11.689,5.233 11.689,11.69 .001,6.456-5.233,11.689-11.689,11.689z"/>
</svg>
