<svg width="100" xmlns="http://www.w3.org/2000/svg" height="100" viewBox="0 0 100 100" xmlns:xlink="http://www.w3.org/1999/xlink" enable-background="new 0 0 100 100">
<path d="m80.049,22.127c-.004-1.192-.97-2.156-2.163-2.156-.028,0-.054,.007-.082,.008h-55.502c-.063-.006-.125-.019-.19-.019-1.194,0-2.163,.968-2.163,2.163 0,.101 .016,.198 .03,.295v55.452h.001c0,.003-.001,.006-.001,.009 0,1.194 .969,2.162 2.163,2.162 .046,0 .089-.011 .134-.013v.002h55.688v-.018c1.153-.042 2.077-.98 2.084-2.142h.001v-55.743 0z"/>
</svg>
