<svg width="100" xmlns="http://www.w3.org/2000/svg" height="100" viewBox="0 0 100 100" xmlns:xlink="http://www.w3.org/1999/xlink" enable-background="new 0 0 100 100">
<g fill="#231f20">
<path d="m66.078,14.577c-5.087-2.312-10.495-3.495-16.08-3.495-4.65,0-9.221,.894-13.62,2.542 1.031,.936 28.368,25.748 29.7,26.959 0-1.792 0-25.456 0-26.006v0z"/>
<path d="m29.924,83.389c0-1.524 0-31.734 0-33.531-1.303,1.187-15.665,14.237-16.114,14.642 3.126,7.839 8.832,14.487 16.114,18.889z"/>
<path d="m11,50.082c0,3.35 .505,6.757 1.416,10.132 1.058-.959 33.894-30.793 34.569-31.408-.659-.6-14.314-12.995-14.759-13.398-13.092,6.719-21.226,19.969-21.226,34.674v-0z"/>
<path d="m34.019,67.034c0,.807 0,18.047 0,18.605 3.965,1.776 8.111,2.885 12.378,3.279h7.161c13.471-1.256 25.498-9.561 31.474-21.885-1.408,.001-50.175,.001-51.013,.001z"/>
<path d="m70.189,16.813c0,1.547 0,45.275 0,46.111 .802,0 15.979,0 16.598,0 1.453-4.157 2.213-8.476 2.213-12.842 0-13.553-7.206-26.206-18.811-33.269v0z"/>
</g>
</svg>
