<svg width="100" xmlns="http://www.w3.org/2000/svg" height="100" viewBox="0 0 100 100" xmlns:xlink="http://www.w3.org/1999/xlink" enable-background="new 0 0 100 100">
<g fill="#231f20">
<path d="m65.269,85.165-42.061,0 .221-28.143-6.32-.06-.035,35.038 54.853,0 0-34.874-6.658,0z"/>
<path d="m27.414,73.601h32.947v7.008h-32.947z"/>
<path d="m27.765,62.557h33.122v7.186h-33.122z" transform="matrix(.9954 .0961 -.0961 .9954 6.5615 -3.9532)"/>
<path d="m29.605,51.079h33.122v7.184h-33.122z" transform="matrix(.9624 .2716 -.2716 .9624 16.5844 -10.4838)"/>
<path d="m34.687,38.636h33.122v7.186h-33.122z" transform="matrix(.856 .517 -.517 .856 29.2145 -20.4144)"/>
<path d="m45.221,27.283h33.122v7.185h-33.122z" transform="matrix(-.5824 -.8129 .8129 -.5824 72.6673 99.0802)"/>
<path d="m73.06,8.366h7.185v33.123h-7.185z" transform="matrix(.9863 -.1649 .1649 .9863 -3.0607 12.9782)"/>
</g>
</svg>
