<svg width="100" xmlns="http://www.w3.org/2000/svg" height="100" viewBox="0 0 100 100" xmlns:xlink="http://www.w3.org/1999/xlink" enable-background="new 0 0 100 100">
<path d="m52.872,17.026h10.352v21.471h-10.352z"/>
<path d="m86.217,19.195l.006-.006-5.211-5.212c-.437-.479-1.06-.785-1.76-.785-.014,0-.026,.004-.04,.004h-8.91c-.013,0-.025,0-.038,0h-.139v.024c-.286,.029-.564,.128-.779,.344-.215,.215-.315,.493-.343,.779h-.028v25.306h-.009c-.047,1.277-1.089,2.3-2.378,2.3h-.297-34.156v-.012c-1.234-.062-2.215-1.05-2.259-2.288h-.009v-25.306h-.048c-.051-.266-.158-.526-.367-.735-.311-.311-.724-.427-1.119-.387v-.028h-12.95-.001c-1.318,0-2.387,1.068-2.386,2.388v26.368 9.585 32.887 .001c-.001,1.319 1.067,2.386 2.387,2.386h7.57v-2.387-30.532-.001c0,0 0-.001 0-.001v-.053-.033h.009c.041-1.122 .851-2.046 1.92-2.255v-.013h.132c.108-.015 .215-.032 .326-.032h.001 49.299 .001 .086v.009c1.249,.045 2.247,1.042 2.292,2.291h.009v33.007h7.581c1.319,0 2.387-1.068 2.387-2.386v-.001-63.392c.001-.025 .007-.048 .007-.073-0-.701-.306-1.325-.786-1.761z"/>
</svg>
