<svg width="100" xmlns="http://www.w3.org/2000/svg" height="100" viewBox="0 0 100 100" xmlns:xlink="http://www.w3.org/1999/xlink" enable-background="new 0 0 100 100">
<path d="m30.278,17.553h-10.455-.001c-1.253,0-2.269,1.017-2.269,2.269h0v10.454c0,1.253 1.016,2.269 2.269,2.269h.001 10.454c1.253,0 2.269-1.016 2.269-2.269v-10.453c0,0 0,0 0,0 .001-1.253-1.015-2.27-2.268-2.27z"/>
<path d="m55.227,17.553h-10.454-.001c-1.253,0-2.269,1.017-2.269,2.269h0v10.454c0,1.253 1.016,2.269 2.269,2.269h.001 10.454c1.253,0 2.269-1.016 2.269-2.269v-10.453c0,0 0,0 0,0 .001-1.253-1.015-2.27-2.269-2.27z"/>
<path d="m82.446,19.822c0-1.252-1.016-2.269-2.269-2.269h-10.455-.001c-1.253,0-2.269,1.017-2.269,2.269v.001 10.453c0,0 0,0 0,.001 0,1.253 1.016,2.27 2.269,2.27h.001 10.454c1.253,0 2.269-1.016 2.269-2.269v-10.456h.001z"/>
<path d="m30.278,42.506h-10.455-.001c-1.253,0-2.269,1.017-2.269,2.269h0v10.455c0,1.253 1.016,2.269 2.269,2.269h.001 10.454c1.253,0 2.269-1.016 2.269-2.269v-10.454c0,0 0,0 0,0 .001-1.253-1.015-2.27-2.268-2.27z"/>
<path d="m55.227,42.506h-10.454-.001c-1.253,0-2.269,1.017-2.269,2.269h0v10.455c0,1.253 1.016,2.269 2.269,2.269h.001 10.454c1.253,0 2.269-1.016 2.269-2.269v-10.454c0,0 0,0 0,0 .001-1.253-1.015-2.27-2.269-2.27z"/>
<path d="m80.177,42.506h-10.455-.001c-1.253,0-2.269,1.017-2.269,2.269v.001 10.453c0,0 0,0 0,.001 0,1.253 1.016,2.27 2.269,2.27h.001 10.454c1.253,0 2.269-1.016 2.269-2.269v-10.455c0,0 0,0 0,0 .001-1.253-1.015-2.27-2.268-2.27z"/>
<path d="m30.278,67.454h-10.455-.001c-1.253,0-2.269,1.017-2.269,2.269h0v10.454c0,1.253 1.016,2.269 2.269,2.269h.001 10.454c1.253,0 2.269-1.016 2.269-2.269v-10.454l0,0c.001-1.252-1.015-2.269-2.268-2.269z"/>
<path d="m55.227,67.454h-10.454-.001c-1.253,0-2.269,1.017-2.269,2.269h0v10.454c0,1.253 1.016,2.269 2.269,2.269h.001 10.454c1.253,0 2.269-1.016 2.269-2.269v-10.454l0,0c.001-1.252-1.015-2.269-2.269-2.269z"/>
<path d="m80.177,67.454h-10.455-.001c-1.253,0-2.269,1.017-2.269,2.269v10.453 .001c0,1.253 1.016,2.27 2.269,2.27h.001 10.454c1.253,0 2.269-1.016 2.269-2.269v-10.455l0,0c.001-1.252-1.015-2.269-2.268-2.269z"/>
</svg>
