<svg width="100" xmlns="http://www.w3.org/2000/svg" height="100" viewBox="0 0 100 100" xmlns:xlink="http://www.w3.org/1999/xlink" enable-background="new 0 0 100 100">
<path d="m77.5,75.545c-.036,0-.068,.009-.103,.01v-.01h-55v.01c-1.608,.056-2.897,1.368-2.897,2.99s1.288,2.934 2.897,2.99v.01h55v-.01c.035,.001 .068,.01 .103,.01 1.656,0 3-1.343 3-3s-1.344-3-3-3z"/>
<path d="m50,72.12c15.829,0 23.581-9.057 23.581-22.521v-28.216c0-1.617-1.311-2.928-2.929-2.928h-3.864c-1.618,0-2.929,1.311-2.929,2.928 0,.04 .01,.076 .012,.116v27.856c0,8.649-4.814,14.28-13.871,14.28-9.057,0-13.871-5.631-13.871-14.28v-27.865c.001-.036 .011-.071 .011-.107 0-1.617-1.311-2.928-2.928-2.928h-3.865c-1.617,0-2.929,1.311-2.929,2.928v28.216c0,13.464 7.834,22.521 23.582,22.521z"/>
</svg>
