<svg width="100" xmlns="http://www.w3.org/2000/svg" height="100" viewBox="0 0 100 100" xmlns:xlink="http://www.w3.org/1999/xlink" enable-background="new 0 0 100 100">
<path d="m64.603,35.504c-.032-1.506-1.259-2.719-2.774-2.72-.047,0-.091,.012-.138,.014h-2.039v-15.022-.002c-.001-.929-.755-1.683-1.684-1.684h-16.203v.03c-.788,.141-1.386,.826-1.386,1.654 0,.001 0,.003 0,.004v15.018h-2.052c-.043-.002-.083-.013-.126-.013-1.515,0-2.742,1.213-2.774,2.72h-.036v45.625h.001c0,1.535 1.245,2.78 2.78,2.781 .005,0 .01-.001 .014-.001h23.638c.002,0 .004,0 .005,0 1.534,0 2.779-1.244 2.78-2.779v-45.625h-.006zm-9.938-2.706h-9.329v-11.72h9.329v11.72z"/>
<path d="m47.506,27.933h4.988v2.072h-4.988z"/>
</svg>
