<svg width="100" xmlns="http://www.w3.org/2000/svg" height="100" viewBox="0 0 100 100" xmlns:xlink="http://www.w3.org/1999/xlink" enable-background="new 0 0 100 100">
<path d="m16.201,20.386l9.719,9.721c1.12,1.118 2.935,1.118 4.054,0 1.118-1.121 1.118-2.933 0-4.055l-9.679-9.677c-.002-.003-.004-.005-.006-.008s-.005-.004-.008-.006l-.026-.026-.003,.003c-1.122-1.085-2.909-1.077-4.017,.03-1.107,1.108-1.115,2.895-.03,4.015l-.004,.003z"/>
<path d="m32.898,16.546l3.558,13.277c.41,1.529 1.981,2.437 3.51,2.026 1.527-.409 2.435-1.981 2.027-3.51l-3.545-13.224c0-.002 0-.005-.001-.007s-.002-.004-.003-.007l-.011-.04-.004,.001c-.429-1.5-1.98-2.387-3.493-1.982-1.513,.405-2.413,1.949-2.035,3.463l-.003,.003z"/>
<path d="m16.054,39.423l-.001,.005 .046,.012c0,0 .001,0 .001,0h.001l13.229,3.544c1.53,.41 3.101-.498 3.511-2.025 .41-1.529-.498-3.101-2.026-3.51l-13.215-3.541c-.005-.002-.01-.005-.016-.006s-.011-.001-.017-.003l-.03-.008-.001,.003c-1.515-.377-3.058,.523-3.463,2.035-.405,1.513 .482,3.063 1.981,3.494z"/>
<path d="m83.798,79.613l-9.72-9.72c-1.119-1.119-2.934-1.119-4.053,0-1.118,1.12-1.118,2.933 0,4.055l9.679,9.677c.002,.003 .004,.005 .006,.008 .003,.002 .005,.004 .008,.006l.026,.026 .003-.003c1.122,1.085 2.908,1.077 4.017-.03 1.107-1.108 1.115-2.895 .03-4.016l.004-.003z"/>
<path d="m67.101,83.454l-3.559-13.277c-.41-1.529-1.98-2.436-3.51-2.026-1.53,.409-2.436,1.981-2.027,3.509l3.546,13.231c0,0 0,.001 0,.001 0,.001 0,.001 0,.001l.012,.045 .005-.001c.428,1.501 1.98,2.387 3.493,1.983 1.513-.406 2.412-1.95 2.034-3.463l.006-.003z"/>
<path d="m83.943,60.577l.001-.004-.041-.011c-.002,0-.003-.001-.005-.002-.002,0-.003,0-.005-.001l-13.226-3.544c-1.53-.41-3.1,.499-3.511,2.026-.409,1.529 .498,3.1 2.027,3.511l13.224,3.542c.002,.001 .004,.002 .006,.002 .002,.001 .005,0 .007,.001l.04,.011 .001-.004c1.514,.378 3.058-.522 3.462-2.035 .408-1.512-.48-3.063-1.98-3.492z"/>
<path d="m48.212,51.756c-7.552-7.552-19.648-7.79-27.486-.713l-.019-.019-10.097,10.097c-7.797,7.797-7.797,20.44 0,28.237 7.797,7.798 20.439,7.798 28.237,0l10.098-10.098-.019-.019c7.075-7.837 6.838-19.933-.714-27.485zm-6.553,20.802l-.619,.619-.001,.001h-.001l-9.005,9.005-.001,.001c-3.935,3.935-10.314,3.935-14.248,0s-3.935-10.314 0-14.248l.001-.001 9.005-9.006 .001-.001 .001-.001 .619-.619 .029,.028c3.959-3.329 9.874-3.134 13.6,.591 3.726,3.726 3.921,9.642 .591,13.6l.028,.031z"/>
<path d="m89.389,10.641c-7.552-7.552-19.648-7.79-27.486-.713l-.019-.019-10.097,10.097c-7.797,7.797-7.797,20.44 0,28.237 7.797,7.798 20.439,7.798 28.237,0l10.098-10.098-.019-.019c7.075-7.837 6.838-19.933-.714-27.485zm-6.553,20.802l-.619,.619-.001,.001h-.001l-9.005,9.005-.001,.001c-3.935,3.935-10.314,3.935-14.248,0-3.935-3.935-3.935-10.314 0-14.248l.001-.001 9.005-9.006c0,0 0,0 .001-.001l.001-.001 .619-.619 .029,.028c3.959-3.329 9.874-3.134 13.6,.591s3.921,9.642 .591,13.6l.028,.031z"/>
</svg>
