<svg width="100" xmlns="http://www.w3.org/2000/svg" height="100" viewBox="0 0 100 100" xmlns:xlink="http://www.w3.org/1999/xlink" enable-background="new 0 0 100 100">
<path d="m76.275,22.811c.049-.049 .079-.116 .079-.191 0-.134-.103-.233-.232-.255v-.017h-.488-.488-11.025c-.338,0-.62,.191-.78,.463h-.016l-13.281,21.49-13.281-21.49h-.014c-.159-.272-.442-.463-.78-.463h-11.076-.438-.538c-.15,0-.272,.122-.272,.272 0,.074 .031,.142 .079,.191h-.001l16.42,25.354h-14.166v.017c-.025-.002-.046-.015-.072-.015-.637,0-1.153,.516-1.153,1.153v4.05l0,0v.07h.014c.038,.602 .527,1.083 1.139,1.083 .026,0 .047-.012 .072-.014v.015h18.352v6.439h-18.352v.002c-.004,0-.008-.002-.012-.002-.637,0-1.153,.516-1.153,1.153v3.969c0,.637 .516,1.153 1.153,1.153 .004,0 .008-.002 .012-.002v.004h18.352v9.199c-.001,.021-.012,.038-.012,.058 0,.637 .516,1.153 1.153,1.153 .001,0 .002,0 .002,0l.001,.001h9.141v-.001c.636-.001 1.151-.517 1.151-1.153 0-.011-.006-.021-.006-.031v-9.225h18.433v-.004c.004,0 .007,.002 .01,.002 .637,0 1.153-.516 1.153-1.153v-3.969c0-.637-.516-1.153-1.153-1.153-.004,0-.007,.002-.01,.002v-.002h-18.433v-6.439h18.433v-.003c.004,0 .007,.002 .01,.002 .637,0 1.153-.516 1.153-1.153v-4.121h-.014c-.038-.602-.527-1.083-1.139-1.083-.004,0-.007,.002-.01,.002v-.004h-14.328l16.42-25.354h-.009z"/>
</svg>
