<svg xmlns="http://www.w3.org/2000/svg" viewBox="0 0 580 580">
<path fill="#111" stroke="#eee" stroke-width="3.408" d="m66.275,1.768c-41.335,0-64.571,21.371-64.571,65.036v450.123c0,40.844 20.895,62.229 62.192,62.229h452.024c41.307,0 62.229-20.315 62.229-62.229v-450.123c0-42.601-20.922-65.036-63.521-65.036-.004,0-448.495-.143-448.353,0z"/>
<g fill="none" stroke="#fff" stroke-linejoin="round" stroke-linecap="round" stroke-width="13.162" transform="matrix(1.06365 0 0 1.06365 54.5389 43.81009)">
<path d="m221.1562-6.0938c-22.6451-.3975-35.1017,20.8661-34.25,45.9375-.1885,42.2705 .451,80.546-.375,122.8125-15.3578,12.8443-34.631,19.695-50.5291,31.8192-47.0144,29.3506-95.5112,56.6039-141.4752,87.4628-9.3424,18.0857-2.2085,38.8541-4.5894,58.093 2.0028,10.466 16.1341,13.5262 23.9875,7.52 58.4444-18.0696 115.9117-39.232 174.6062-56.4887-.2404,22.3332 .9513,44.6587 .2812,67-.4937,6.821 .6261,14.3603-1.4062,20.7188-13.0286,14.6144-34.7505,21.1606-42.9688,39.875-2.7093,12.1677-.4196,24.805-1.1875,37.125 .9668,8.6542 10.1903,16.5495 18.8102,12.4933 17.0747-5.4363 34.4127-10.0395 51.1585-16.1495 8.8533-3.224 18.3909-2.0485 26.8276,1.6479 18.8415,5.7476 37.6993,14.7215 57.6411,14.4458 9.6374-4.5155 8.0631-16.8313 7.1009-25.4949 1.7128-12.7431 2.084-29.1283-10.1318-36.9736-11.5567-9.3064-24.1459-17.4983-34.8754-27.844-.7127-28.8825-1.6021-59.1219 .2188-87.1875 22.5026,7.7307 45.4796,14.059 67.9292,22.0237 39.7675,13.0966 79.2554,27.5064 119.8208,37.82 10.1747-1.713 12.5727-14.8003 9.6875-23.2812-.3541-14.8665 4.1666-31.5066-4.2188-44.9375-34.3389-24.7688-72.4076-43.7351-107.9782-66.6499-28.7364-17.242-57.4445-34.531-86.1155-51.8813-3.2326-18.5902 .9071-37.6262-1.1039-56.3749-.1367-32.2454 2.3874-60.8121-2.8649-92.7813-5.778-12.9608-19.8897-21.3415-34-20.75z"/>
</g>
<g opacity=".25" fill="#fff" transform="matrix(1.06365 0 0 1.06365 79.85611 43.81009)">
<path d="m197.354-6.0938c-22.6451-.3975-34.1333,24.4171-34.25,45.9375-.1885,42.2705 .451,80.546-.375,122.8125-15.3578,12.8443-34.6311,19.695-50.5291,31.8192-47.0144,29.3506-95.5112,56.6039-141.4752,87.4628-9.3424,18.0857-2.2085,38.8541-4.5894,58.093 2.0028,10.466 16.1341,13.5262 23.9875,7.52 58.4444-18.0696 115.9117-39.232 174.6062-56.4887-.2404,22.3332 .9513,44.6587 .2812,67-.4937,6.821 .6261,14.3603-1.4062,20.7188-13.0286,14.6144-34.7505,21.1606-42.9688,39.875-2.7093,12.1677-.4196,24.805-1.1875,37.125 .9668,8.6542 10.1904,16.5495 18.8102,12.4933 17.0747-5.4363 34.4127-10.0395 51.1585-16.1495 8.8533-3.224 18.3909-2.0485 26.8276,1.6479 18.8415,5.7476 37.6993,14.7215 57.6411,14.4458 9.6374-4.5155 8.0631-16.8313 7.1009-25.4949 1.7128-12.7431 2.084-29.1283-10.1318-36.9736-11.5567-9.3064-24.1459-17.4983-34.8754-27.844-.7127-28.8825-1.6021-59.1219 .2188-87.1875 22.5026,7.7307 45.4796,14.059 67.9292,22.0237 39.7675,13.0966 79.2554,27.5064 119.8208,37.82 10.1747-1.713 12.5727-14.8003 9.6875-23.2812-.3541-14.8665 4.1666-31.5066-4.2188-44.9375-34.3389-24.7688-72.4076-43.7351-107.9782-66.6499-28.7364-17.242-57.4445-34.531-86.1155-51.8813-3.2326-18.5902 .9071-37.6262-1.1039-56.3749-.1367-32.2454 2.3873-60.8121-2.8649-92.7813-5.778-12.9608-19.8897-21.3415-34-20.75z"/>
</g>
</svg>
