<svg xmlns="http://www.w3.org/2000/svg" viewBox="0 0 580 580">
<path fill="#111" stroke="#eee" stroke-width="3.408" d="m66.275,1.768c-41.335,0-64.571,21.371-64.571,65.036v450.123c0,40.844 20.895,62.229 62.192,62.229h452.024c41.307,0 62.229-20.315 62.229-62.229v-450.123c0-42.601-20.922-65.036-63.521-65.036-.004,0-448.495-.143-448.353,0z"/>
<g fill="#fff" transform="translate(68.79978 58.55231)">
<path d="m196.91,25.3815c.06-34 51.309-34 51.275,.958v142.6915l199.764,120.064v52.717l-198.805-65.43v106.647l46.008,35.944v41.694l-70.927-22.046-70.927,22.046v-41.694l45.529-35.944v-106.647l-198.827,65.43v-52.717l196.91-120.064v-143.6495z"/>
</g>
</svg>
