<svg xmlns="http://www.w3.org/2000/svg" viewBox="0 0 580 580">
<path fill="#111" stroke="#eee" stroke-width="3.408" d="m66.275,1.768c-41.335,0-64.571,21.371-64.571,65.036v450.123c0,40.844 20.895,62.229 62.192,62.229h452.024c41.307,0 62.229-20.315 62.229-62.229v-450.123c0-42.601-20.922-65.036-63.521-65.036-.004,0-448.495-.143-448.353,0z"/>
<g fill="#fff">
<g transform="matrix(.37201 .48693 -.48693 .37201 454.02456 -51.9819)">
<path d="m196.91,25.3815c.06-34 51.309-34 51.275,.958v142.6915l199.764,120.064v52.717l-198.805-65.43v106.647l46.008,35.944v41.694l-70.927-22.046-70.927,22.046v-41.694l45.529-35.944v-106.647l-198.827,65.43v-52.717l196.91-120.064v-143.6495z"/>
</g>
<g stroke="#fff" stroke-linejoin="round" stroke-linecap="round">
<g>
<path stroke-width="20.768" d="m39.0897,377.737 0,118.8049 372.2307,0 0-65.8497 0-1.0745 0-1.0745 111.048,0 0,67.9988 17.898,0 0-118.8049-501.1766,0zm4.7535,3.6938 111.0104,0 0,41.0008-111.0104,0 0-39.624 0-.7052 0-.6716zm125.095,0 111.0104,0 0,41.0008-111.0104,0 0-39.624 0-.7052 0-.6716zm122.2004,0 111.0104,0 0,41.0008-111.0104,0 0-39.624 0-.7052 0-.6716zm120.2004,0 111.0104,0 0,41.0008-111.0104,0 0-39.624 0-.7052 0-.6716zm-367.5147,47.1123 111.048,0 0,63.8349-111.048,0 0-61.6859 0-1.0745 0-1.0745zm125.2441,0 111.048,0 0,63.8349-111.048,0 0-61.6859 0-1.0745 0-1.0745zm122.0514,0 111.048,0 0,63.8349-111.048,0 0-61.6859 0-1.0745 0-1.0745z"/>
</g>
<g stroke-width="21.491">
<path d="m85.7283,376.5099c166.8126,0-44.6162,6 122.1964,6 0-42.4671 0-52.6977 0-95.1648-166.8126,0 44.6162,0-122.1964,0 0,42.4671 0,46.6977 0,89.1648z"/>
<path d="m86.2208,232.8663c4.0539,21.1531 12.1874,45.2463 32.9752,55.2721 14.6308,7.081 31.3316,2.036 46.8772,3.8952 9.1796-1.2777 16.3011-8.618 22.3641-15.0773 9.9685-12.1143 13.9997-27.7565 18.6367-42.1761-2.565-3.3032-8.626,.1846-12.2564-1.0109-36.1877-.2898-72.4651-.6698-108.5968-.9032zm120.5846,1.3096c.1114-.0349-.0461-.062 0,0z"/>
</g>
<g stroke-width="8.83">
<path d="m79.3978,171.3709c184.0964,0-49.239,0 134.8575,0 0-6.4959 0-8.0608 0-14.5568-184.0964,0 49.239,0-134.8575,0 0,6.4959 0,8.0608 0,14.5568z"/>
<path d="m79.3978,232.8002c184.0964,0-49.239,0 134.8575,0 0-6.4959 0-8.0608 0-14.5568-184.0964,0 49.239,0-134.8575,0 0,6.4959 0,8.0608 0,14.5568z"/>
</g>
<g>
<path opacity=".5" stroke-width="16.599" d="m83.2825,217.2866c173.4904,0-46.4022,0 127.0881,0 0-24.3597 0-30.2281 0-54.5878-173.4904,0 46.4022,0-127.0881,0 0,24.3597 0,30.2281 0,54.5878z"/>
<path stroke-width="14.077" d="m342.009,375.5533c208.7641,0-55.8367,0 152.9274,0 0-14.5596 0-18.0671 0-32.6267-208.7641,0 55.8367,0-152.9274,0 0,14.5596 0,18.0671 0,32.6267z"/>
<path opacity=".25" stroke-width="20.768" d="m39.0974,496.5478c167.0537,0 334.1075,0 501.1612,0 0-39.5992 0-79.1985 0-118.7977-167.0537,0-334.1075,0-501.1612,0 0,39.5992 0,79.1985 0,118.7977z"/>
<path stroke-width="7.379" d="m138.6537,68.2898c0,117.0292 0-31.301 0,85.7282 7.1369,0 8.8563,0 15.9932,0 0-117.0292 0,31.301 0-85.7282-7.1369,0-8.8563,0-15.9932,0z"/>
</g>
</g>
</g>
</svg>
