<svg xmlns="http://www.w3.org/2000/svg" viewBox="0 0 580 580">
<path fill="#111" stroke="#eee" stroke-width="3.408" d="m66.275,1.768c-41.335,0-64.571,21.371-64.571,65.036v450.123c0,40.844 20.894,62.229 62.192,62.229h452.024c41.307,0 62.229-20.316 62.229-62.229v-450.123c0-42.601-20.922-65.036-63.522-65.036-.003,0-448.494-.143-448.352,0z"/>
<g fill="#fff" transform="matrix(.37201 .48693 -.48693 .37201 456.55732 -47.56844)">
<path d="m196.91,25.3815c.06-34 51.309-34 51.275,.958v142.6915l199.764,120.064v52.717l-198.805-65.43v106.647l46.008,35.944v41.694l-70.927-22.046-70.927,22.046v-41.694l45.529-35.944v-106.647l-198.827,65.43v-52.717l196.91-120.064v-143.6495z"/>
</g>
<g stroke="#fff" stroke-linejoin="round" stroke-linecap="round">
<path fill="none" stroke-width="37.377" d="m68.6885,524.1639 0-280.3279 190.6229,0 0,280.3279"/>
<path opacity=".1" fill="#fff" stroke-width="40" d="m82.0244,263.216h161.2206v257.387h-161.2206z"/>
</g>
</svg>
