<svg xmlns="http://www.w3.org/2000/svg" viewBox="0 0 580 580">
<path fill="#111" stroke="#eee" stroke-width="3.408" d="m66.275,1.768c-41.335,0-64.571,21.371-64.571,65.036v450.123c0,40.844 20.895,62.229 62.192,62.229h452.024c41.307,0 62.229-20.315 62.229-62.229v-450.123c0-42.601-20.922-65.036-63.521-65.036-.004,0-448.495-.143-448.353,0z"/>
<g stroke="#fff" stroke-linecap="round">
<g fill="#fff" stroke-linejoin="round" transform="matrix(1.00144 0 0 1.05439 -15.58088 -16.45902)">
<path stroke-width="15.298" d="m146.7393,44.0096 37.8387,0 0,124.8596-37.8387,0 0-124.8596z"/>
<path stroke-width="46.242" d="m110.1752,187.4142c-1.6851-9.4947 40.1493-29.3384 55.6566-29.3597 15.5073-.0212 55.7716,22.4898 58.7158,29.3597v316.9517c-28.6692,14.8812-97.9436,12.0013-114.3724,0v-316.9517z"/>
</g>
<path fill="none" stroke-width="24" d="m401.3992,397.291v122.5983"/>
</g>
<g fill="#fff">
<g>
<path d="m564.7314,502.6953a45.5691,12.7485 0 1,1 -91.1382,0 45.5691,12.7485 0 1,1 91.1382,0z" transform="matrix(1.43028 0 0 1.83422 -341.58987 -395.38818)"/>
</g>
<g transform="matrix(1.19901 0 0 1.25912 -72.9904 -108.62601)">
<path opacity=".75" stroke="#fff" stroke-linejoin="round" stroke-linecap="round" stroke-width="8.129" d="m339.85,317.2342c-.0322,1.2979-.0501,2.5989-.0501,3.9098 0,51.9266 25.5766,93.9964 57.1207,93.9964 31.544,0 57.1207-42.0698 57.1207-93.9964 0-1.311-.0177-2.6119-.0501-3.9098-42.0951-10.3018-88.0017-6.7799-114.1412,0h.0001z"/>
<path d="m339.4363,317.7939c-.0323,1.2979-.0501,2.5989-.0501,3.9098 0,51.9266 25.5766,93.9964 57.1207,93.9964 31.544,0 57.1207-42.0698 57.1207-93.9964 0-1.3109-.0177-2.6119-.0501-3.9098-31.852,9.9121-65.8732,16.3535-114.1412,0h.0001z"/>
</g>
<g transform="matrix(25.8183 0 0 25.8183 -7603.868 -1626.0059)">
<path d="m307.3737,64.5763c-1.01,0-1.66,.77-1.66,2.09 0,1.33 .64,2.11 1.66,2.11 1.02,0 1.67-.79 1.67-2.11 0-1.31-.66-2.09-1.67-2.09m4.18,.12-4.18,6.71 .7,0 4.18-6.71-.7,0m-4.21,.33c.45,0 .7,.55 .7,1.64 0,1.1-.25,1.65-.7,1.65-.45,0-.68-.55-.68-1.65 0-1.09 .24-1.64 .68-1.64m4.96,2.31c-1.01,0-1.67,.77-1.67,2.09 0,1.33 .65,2.1 1.67,2.1 1.02,0 1.67-.78 1.67-2.1 0-1.3-.66-2.09-1.67-2.09m-.02,.44c.45,0 .69,.56 .69,1.65 0,1.1-.23,1.65-.69,1.65-.45,0-.69-.56-.69-1.65 0-1.09 .25-1.65 .69-1.65"/>
</g>
</g>
</svg>
