<svg xmlns="http://www.w3.org/2000/svg" viewBox="0 0 580 580">
<path fill="#111" stroke="#eee" stroke-width="3.408" d="m66.275,1.768c-41.335,0-64.571,21.371-64.571,65.036v450.123c0,40.844 20.895,62.229 62.192,62.229h452.024c41.307,0 62.229-20.315 62.229-62.229v-450.123c0-42.601-20.922-65.036-63.521-65.036-.004,0-448.495-.143-448.353,0z"/>
<g stroke="#fff">
<path fill="#fff" stroke-width="4.716" d="m267.9688,50.75c-1.3786-.0167-2.7148,.0311-3.9375,.125-6.1722,.474-13.8418,2.4376-16.75,4.2812-1.2422,.7874-3.7121,2.2537-5.5,3.2812-4.7152,2.7101-15.9366,14.9461-20.9688,22.875-3.1987,5.04-6.712,10.8191-7.9062,12.9688-.2731,.4916-1.8128,2.7212-3.4062,4.9688-1.5935,2.2476-3.5218,5.2839-4.3125,6.75-.7907,1.4661-1.6326,2.6924-1.8438,2.7188-.2112,.0263-1.7127,2.1909-3.3438,4.8125-7.1379,11.4731-15.9389,22.3479-19.4062,23.9375-4.6853,2.148-12.6426,9.3956-17.0938,15.5938-1.6023,2.2311-4.2979,5.911-5.9688,8.1875-3.7314,5.084-9.8437,15.6438-11.9688,20.6562-.8682,2.0479-2.3072,5.4608-3.2188,7.5938-1.9372,4.5327-5.2585,13.6013-5.4688,14.9688-.0801,.5209-.557,2.291-1.0625,3.9062-.5055,1.6153-1.2473,4.1943-1.6562,5.75-.4089,1.5557-1.3652,5.1637-2.125,8.0312-.7598,2.8675-1.5488,6.1125-1.75,7.1875-.2011,1.075-.4321,2.0487-.5312,2.1562-.1608,.1744-1.2211,5.2232-2.1562,10.4062-.187,1.0365-.4164,2.0004-.5312,2.125-.3574,.3876-2.9052,18.4176-2.75,19.4688 .0808,.5472 .0411,1.1005-.0938,1.25-.1349,.1496-.3852,2.0972-.5625,4.3125-.1773,2.2153-.4103,4.9246-.5,6.0312-.0897,1.1067-.2408,3.4046-.3438,5.0938-.103,1.6891-.2699,4.0714-.375,5.3125-.2814,3.3221-.3778,5.064-.4375,7.5625-.0294,1.2307-.1224,2.3044-.1875,2.375-.2089,.2266-.5965,9.6802-.5,12.125 .0513,1.2988 .1044,3.1587 .125,4.1562 .1991,9.6349 1.3035,21.4513 3.1562,33.625 1.1115,7.3031 1.775,13.7318 1.75,17.2188-.0208,2.9052-.0209,2.9086-1.375,2.5-.7447-.2247-2.4715-1.0129-3.8438-1.75-1.3722-.7371-3.4561-1.6064-4.625-1.9375-1.1689-.3311-2.2896-.7482-2.5-.9375-.2104-.1893-2.8528-.7434-5.8438-1.25-2.991-.5066-6.0049-1.2024-6.7188-1.5312-2.4319-1.1205-9.2766-2.6908-12.7812-2.9375-7.6113-.5358-15.3925,2.2752-18.1875,6.5625-2.4188,3.7104-3.9524,9.8938-3.5625,14.4062 .5375,6.2202 3.938,19.0212 5.4062,20.375 .1306,.1204 .4816,.9107 .7812,1.7812 .5638,1.6377 2.4508,4.8458 5.6875,9.6562 1.0298,1.5306 2.065,3.2859 2.3125,3.9062 .4486,1.1244 5.2615,7.6724 12.6562,17.1562 2.1437,2.7493 4.3402,5.6 4.875,6.3438 .39,.5425 5.4023,5.2713 12.3125,11.6875 18.3155-.9065 38.0347-.8871 57.2188,1.0312 65.0987,6.5099 95.4911,8.6799 156.25,0 13.1159-1.8737 27.4901-3.6252 42.3125-5.1875 6.4385-2.0401 11.2502-3.7951 15.1875-5.5625 1.3014-.5842 3.3958-1.433 4.6562-1.9062 7.0905-2.6621 23.4315-11.8823 29.4688-16.625 1.6543-1.2995 3.5968-2.6816 4.3125-3.0625 3.4729-1.848 8.1929-6.194 16.1562-14.8438 8.6579-9.4042 8.8918-9.684 13.9688-18.9375 3.5264-6.4276 15.7693-19.1299 22.8125-23.6562 .9502-.6106 3.0174-2.0898 4.5938-3.3125 4.8436-3.7571 7.6646-5.8207 9.3438-6.8125 .8846-.5225 2.1955-1.471 2.9375-2.125 .7419-.654 2.5341-2.069 3.9688-3.125 12.9288-9.5165 22.1637-18.1588 26.4688-24.75 2.5561-3.9134 4.2672-9.0858 5.4062-16.2812 .8713-5.5039 .8465-6.215-.5312-13.4688-1.8901-9.9516-5.6178-20.207-9.1562-25.1562-5.3524-7.4866-8.6703-10.6545-16.9375-16.0938-3.4442-2.266-11.2267-5.8395-12.7812-5.875-.5424-.0124-1.1865-.2122-1.4375-.4375-.251-.2253-3.7176-.8582-7.6875-1.4062-3.9699-.548-7.3332-1.1-7.5-1.25-.767-.6898 8.4501-9.0681 10.9688-9.9688 1.2659-.4526 2.8775,.2877 6.4688,3.0312 2.5534,1.9507 4.3143,2.3977 6.6562,1.6562 .8641-.2735 5.946-1.5761 11.3125-2.875 14.3342-3.4696 15.0326-3.6789 15.2188-4.375 .2558-.9562-.6527-2.2379-6.4375-9.125-2.9091-3.4635-5.6794-6.7891-6.1562-7.375-3.1089-3.8198-11.6487-12.2205-29.6875-29.1562-23.0532-21.6435-85.8429-79.4462-88.2188-81.2188-.8436-.6294-6.2082-5.3032-11.9062-10.375-16.3932-14.5915-36.1539-30.8588-40.9062-33.6562-2.265-1.3333-2.5112-1.0644-3.2812,3.6875-.3401,2.0988-1.2525,5.7834-2.0312,8.1875-2.5252,7.7961-3.9008,12.7105-4.0312,14.3125-.1685,2.0694 1.7941,5.8328 4.625,8.8125 1.2431,1.3085 2.2969,2.7387 2.3438,3.1875 .1597,1.5308-2.1878,5.4574-6,10.0625-3.8072,4.5991-3.8096,4.6179-4.0625,2.625-.4895-3.8569-2.7931-15.4603-3.375-16.9688-2.103-5.4517-6.8844-12.5663-12.5-18.625-4.3237-4.6649-14.4665-11.7469-20.5312-14.3438-3.8438-1.6459-9.3914-3.3551-9.7188-3-.1303,.1413-.6143,.0225-1.0938-.25-1.2072-.6862-5.5205-1.1999-9.6562-1.25zm5.375,16.5c4.0612-.0778 8.5085,.8225 11.875,2.5938 3.4253,1.8022 4.0085,2.2554 8.4375,6.5625 4.5977,4.4712 4.8219,4.7438 6.7188,8.5 3.5852,7.0998 5.0653,12.7915 4.9688,19.1875-.0705,4.6708-1.3965,13.0483-2.1875,13.9062-.3269,.3546-.6326,1.0465-.6875,1.5312-.2219,1.9587-3.1237,6.6798-6.0312,9.8438-3.4385,3.7418-3.5255,3.7955-10.5,4.4062-13.6735,1.1975-19.2983,.7764-34.9375-2.5938-2.8606-.6164-5.8992-1.2571-6.75-1.4375-.8508-.1804-3.3272-.7698-5.5-1.2812-2.1728-.5115-5.2812-1.0894-6.9062-1.3125-1.625-.2231-3.4794-.6427-4.125-.9062-1.5229-.6217-1.899-1.0007-2-1.9688-.1161-1.113 1.601-5.629 2.9062-7.6562 1.0961-1.7024 3.4423-5.874 5.2188-9.2812 .5235-1.0041 1.973-3.4328 3.2188-5.4062 1.2457-1.9735 3.1159-5.1008 4.1875-6.9375 7.3529-12.6025 17.4797-23.1058 25.5312-26.5312 1.8251-.7765 4.1258-1.1721 6.5625-1.2188zm205.7188,193.2188c8.0507,.1923 15.6243,2.4221 20.75,6.625 4.5438,3.7257 8.043,9.0878 8.8125,13.5625 .7846,4.5631-.3077,12.8399-2.3438,17.875-1.5382,3.8039-1.8086,4.181-8.1875,11.0938-5.1646,5.5967-7.3203,7.6202-9.875,9.2812-1.7967,1.1682-4.4686,2.9755-5.9375,4-1.4688,1.0245-4.3072,2.9143-6.3125,4.1875-2.0053,1.2732-5.0113,3.2132-6.6875,4.3438-4.3481,2.9328-10.0665,5.8519-12.125,6.1562-2.2243,.3289-2.3921,.1615-2.625-2.7188-.1743-2.1556-3.7956-17.0021-5.2812-21.625-1.1744-3.6544-3.7189-16.1232-4.1875-20.5938-1.2408-11.8365 2.9221-22.4267 10.4375-26.625 7.005-3.9132 15.5118-5.7548 23.5625-5.5625z"/>
<path fill="none" fill-rule="evenodd" stroke-linejoin="bevel" stroke-linecap="square" stroke-width="40" d="m55.8957,502.6618c25.8658-4.0332 72.7207-9.5097 116.6158-5.1202 65.0987,6.5099 95.4781,8.6799 156.237,0 53.6801-7.6685 127.6857-13.6434 172.6338-10.4421"/>
</g>
</svg>
