<svg xmlns="http://www.w3.org/2000/svg" viewBox="0 0 580 580">
<path fill="#111" stroke="#eee" stroke-width="3.408" d="m66.275,1.768c-41.335,0-64.571,21.371-64.571,65.036v450.123c0,40.844 20.895,62.229 62.192,62.229h452.024c41.307,0 62.229-20.315 62.229-62.229v-450.123c0-42.601-20.922-65.036-63.521-65.036-.004,0-448.495-.143-448.353,0z"/>
<path fill="#fff" stroke="#fff" stroke-width="5.363" d="m243.908,546.8295c-1.0205-.2096-5.056-.91-8.9678-1.5561-13.494-2.229-22.5605-3.9661-23.8024-4.5604-.6851-.3279-2.9155-.9937-4.9565-1.4795-6.4146-1.5269-10.4558-2.7478-12.1897-3.6824-.9217-.4968-1.841-.9033-2.0429-.9033-2.2713,0-14.984-8.0962-20.2286-12.8827-3.8046-3.4723-7.2943-9.8159-8.1322-14.7829-.9682-5.7394 3.3795-14.0913 10.1566-19.5109 3.1205-2.4954 10.058-6.4536 12.9552-7.3915 .8504-.2753 3.9118-2.0405 6.8032-3.9228 2.8913-1.8822 5.5203-3.4254 5.8422-3.4293 .3219-.0039 1.5936-.5179 2.8262-1.1421 1.2325-.6243 3.6446-1.4963 5.3602-1.9379 1.7156-.4416 3.7704-1.1189 4.5663-1.5051 1.4472-.7023 1.4472-.7023-.7751-3.1474-2.6672-2.9348-8.1907-7.8342-14.75-13.0836-10.9338-8.7503-20.9497-17.7525-28.5437-25.6549-.7863-.8181-2.2838-2.3437-3.3279-3.3902-1.9654-1.9697-8.9248-10.1859-8.9248-10.5364 0-.1093-.7561-1.0591-1.6803-2.1107-1.8762-2.135-3.1285-3.6638-5.4542-6.6584-.8689-1.1188-2.5747-3.2546-3.7908-4.7462-1.2161-1.4917-2.8478-3.5258-3.6259-4.5202-.7782-.9945-2.6909-3.4354-4.2505-5.4243-1.5596-1.9889-2.8376-3.8036-2.8402-4.0326-.0025-.229-.405-.7398-.8944-1.135-.9402-.7593-12.7165-17.7802-12.7165-18.3798 0-.1927-.5258-1.1773-1.1685-2.1882-3.2138-5.0545-6.2531-10.0899-6.2531-10.3596 0-.1663-.5404-1.1647-1.201-2.2186-.6605-1.0539-2.4899-4.3571-4.0652-7.3404-1.5753-2.9834-3.5656-6.7465-4.423-8.3624-.8574-1.616-2.2318-4.362-3.0544-6.1023-.8226-1.7403-1.7693-3.571-2.1038-4.0682-.8783-1.3054-5.1135-11.4416-6.9881-16.7248-.8821-2.4861-2.3016-6.4689-3.1544-8.8505-2.0873-5.8291-5.1005-19.3535-5.8998-26.4809-.3579-3.1915-.9619-8.3396-1.3422-11.4402-1.0564-8.6138-.0071-20.8222 2.2545-26.2301 1.6737-4.0021 .6737-19.8795-2.2029-34.9749-.6573-3.4493-1.0672-6.4227-.911-6.6075 .1563-.1848-.0997-1.8377-.5688-3.673-.4691-1.8354-1.1805-5.8797-1.5808-8.9873-.4003-3.1077-.8511-6.1588-1.0018-6.7803-.6587-2.718-2.1613-10.271-3.3721-16.9509-1.9049-10.5088-1.9642-29.3569-.1109-35.2578 .7028-2.2375 1.6308-5.3904 2.0623-7.0063 1.0104-3.7834 5.9089-11.3248 10.7041-16.4792 3.7998-4.0845 10.1907-9.0655 12.2419-9.5413 .611-.1417 1.1108-.4365 1.1108-.6551 0-.5492 5.9553-3.3873 10.4381-4.9744 7.0728-2.5041 21.005-4.3932 28.2163-3.8259 9.3659,.7367 18.8638,3.0133 24.8249,5.9503 1.6494,.8127 12.5039,8.708 15.8865,11.5555 1.7478,1.4713 1.7478,1.4713 1.3856-5.309-.3627-6.7892-1.4384-11.8883-2.7519-13.0451-.3852-.3392-2.376-.7277-4.4241-.8635-4.664-.3091-9.191-1.9141-10.6454-3.7743-1.1259-1.44-3.7554-6.6237-7.654-15.0888-1.2022-2.6104-3.277-6.3965-4.6106-8.4136-3.0194-4.5668-3.027-4.9745-.1054-5.6058 6.13-1.3246 35.1909-2.9718 60.1462-3.4092 8.674-.152 16.745-.3779 17.9356-.502 3.353-.3495 100.4125-.4107 136.3726-.086 28.1383,.2541 41.7688,.6795 47.3129,1.4766 .8504,.1223 5.7208,.7567 10.8232,1.41 10.146,1.2989 11.9201,1.6806 12.4434,2.6773 .3809,.7255-.056,1.4437-9.3663,15.3949-3.4856,5.2231-6.756,10.2287-7.2677,11.1236-1.3865,2.4254-3.1847,3.414-6.8235,3.7514-5.1176,.4746-7.0344,1.0762-7.7439,2.4305-1.4116,2.6947-2.6699,16.827-1.4969,16.8125 .2551-.0032 3.5253-2.1348 7.267-4.737 3.7418-2.6022 7.117-4.7354 7.5006-4.7405 .3835-.0051 1.0762-.3429 1.5392-.7507 1.3272-1.1688 10.5768-4.1659 15.2035-4.9264 11.1055-1.8254 16.3449-1.7498 26.5915,.3837 6.7739,1.4104 17.7788,7.0921 27.0308,13.9558 6.7439,5.0029 7.3149,5.575 10.8293,10.8486 4.5946,6.8943 7.1553,12.5717 8.035,17.8142 1.4817,8.8298 .4141,23.1679-3.0596,41.0916-.3854,1.9889-.7959,4.5315-.9121,5.6503-.1162,1.1188-.4869,2.9495-.8237,4.0682-.6394,2.1237-1.4131,6.0074-2.5666,12.8827-.3754,2.2375-.9474,5.0853-1.2711,6.3283-2.3996,9.2142-2.855,29.2665-.8485,37.3592 2.8887,11.6508 2.9345,12.0647 2.9452,26.602 .0098,13.3712-.5971,20.6389-2.0762,24.8613-.3048,.8702-.8662,3.5145-1.2475,5.8763-1.3918,8.6196-7.9488,28.922-11.8251,36.6139-.6891,1.3674-1.7747,3.7066-2.4125,5.1983-2.0899,4.888-4.9805,10.4577-9.3272,17.9719-.972,1.6803-1.7673,3.2822-1.7673,3.5596 0,.5395-.844,2.0162-6.812,11.9182-3.4302,5.6913-17.3985,26.0815-21.0989,30.799-1.6402,2.091-8.2322,10.7277-10.0989,13.2313-2.7155,3.6421-25.4932,27.9193-32.9466,35.1155-1.7787,1.7173-4.9668,4.8201-7.0847,6.8952-2.118,2.075-4.7886,4.3377-5.9346,5.0281-1.1461,.6904-3.3864,2.5524-4.9786,4.1376-1.5921,1.5853-4.6328,4.472-6.7571,6.4151-2.1242,1.943-3.8622,3.6243-3.8622,3.7361 0,.1118 2.7135,1.1665 6.0301,2.3438 5.689,2.0194 11.2155,4.9148 18.3658,9.6222 1.7193,1.1319 4.7111,2.7446 6.6484,3.5837 12.7725,5.5325 19.9903,17.2667 17.2105,27.9797-2.2878,8.8171-13.7631,18.0236-29.3914,23.5806-12.382,4.4027-30.5612,8.6288-45.1483,10.4955-4.5426,.5813-98.7082,.8683-101.429,.3092zm224.728-357.7487c1.4865-1.8414 4.0402-8.6653 5.4148-14.4694 .53-2.2375 1.5323-6.204 2.2274-8.8144 .6952-2.6104 1.6226-6.3735 2.0609-8.3624 .4384-1.9889 1.2893-5.5486 1.891-7.9104 .8555-3.3583 1.0949-6.7079 1.0986-15.3688 .0045-10.6974-.0534-11.2285-1.6997-15.5948-2.1791-5.7795-7.6612-13.537-11.8349-16.7474-4.0929-3.1482-11.131-4.9532-17.8023-4.5655-15.0515,.8747-32.2035,15.9473-37.8842,33.2915-3.0473,9.3039 1.6488,21.3454 11.811,30.2855 3.8382,3.3767 15.5647,11.8626 19.3638,14.0127 4.8059,2.72 19.2776,12.3217 21.0851,13.9897 2.4151,2.2287 2.6623,2.2434 4.2685,.2537zm-354.7207,.1691c.743-.2774 2.6033-1.3766 4.134-2.4428 1.5307-1.0662 4.5921-2.9591 6.8032-4.2065 2.211-1.2474 4.7158-2.6812 5.5662-3.1862 .8504-.5051 3.8919-2.3009 6.7589-3.9907 15.6742-9.2384 20.7002-13.2272 31.2096-24.7695 5.3606-5.8874 5.4052-5.9846 5.3957-11.7639-.0081-4.8869-1.2432-11.0933-2.5676-12.902-.3278-.4477-.596-1.2627-.596-1.8113 0-1.3271-5.3688-9.3412-8.9106-13.3009-4.8499-5.4222-10.4497-9.0352-18.9206-12.2076-4.4816-1.6784-4.8937-1.7439-12.1849-1.938-7.0235-.1869-7.8629-.1165-12.1162,1.0173-6.6883,1.7829-14.0067,7.5872-16.4798,13.0704-4.0913,9.0711-4.4353,25.6645-.8678,41.8699 .5199,2.3618 1.3379,6.43 1.8177,9.0404 .4798,2.6104 1.1475,5.7633 1.4838,7.0064 1.1414,4.2183 2.3893,9.4842 2.7852,11.7526 .4715,2.7012 2.535,7.8254 3.4901,8.6664 .8307,.7315 1.4465,.75 3.199,.0958z"/>
</svg>
