<svg xmlns="http://www.w3.org/2000/svg" viewBox="0 0 580 580">
<path fill="#111" stroke="#eee" stroke-width="3.408" d="m66.275,1.768c-41.335,0-64.571,21.371-64.571,65.036v450.123c0,40.844 20.895,62.229 62.192,62.229h452.024c41.307,0 62.229-20.315 62.229-62.229v-450.123c0-42.601-20.922-65.036-63.521-65.036-.004,0-448.495-.143-448.353,0z"/>
<g fill="#fff">
<g>
<path d="m258.8523,128.3481c-17.309,.1542-34.9592,3.0037-54.3544,13.6613-3.238,.9301-10.072,11.6149-16.3136,18.5299-20.1634,22.339-23.8705,54.0075-9.4829,80.7686 14.9549,27.8168 12.4422,47.0007-6.9396,52.9738-8.208,2.5295-11.8221,1.8507-29.9386-5.2683-11.3313-4.4529-24.6828-8.0618-29.6478-8.0296-14.0285,.0909-27.5537,8.5336-34.9162,21.7272-5.5258,9.9026-6.4784,14.2963-6.54,31.4645-.0785,21.9509 2.598,29.668 20.4556,59.9134 18.1406,30.7246 44.9787,58.3029 75.9363,78.0073 21.2846,13.5474 60.4328,27.8716 83.7479,30.9195 23.3152,3.048 59.0593,8.4053 118.5914-2.0347 44.3652-10.3344 88.2592-38.3298 111.8698-65.3997 23.6104-27.0698 27.7549-39.133 33.6445-68.1973 7.1747-35.407-2.6721-84.0458-24.4886-121.0621-14.3291-24.3122-40.1886-53.0444-59.5864-66.1626-33.1545-22.4217-92.7747-44.9106-131.5987-49.6674-13.7152-.7528-26.9762-2.2636-40.4388-2.1437zm-8.2113,33.6808c23.6751,0 42.8731,19.198 42.8731,42.8731 0,23.6751-19.198,42.9095-42.8731,42.9095-23.6751,0-42.9094-19.2343-42.9094-42.9095 0-23.6751 19.2343-42.8731 42.9094-42.8731zm120.3354,19.6199c.8956-.0053 1.8546,.023 2.943,.0727 12.7233,.5807 24.1925,4.9636 29.0302,11.0816 5.5455,7.0132 13.6076,42.4474 11.9536,52.5377-1.3176,8.0384-19.1414,30.2655-24.2705,30.2655-1.2033,0-3.5648,.5058-5.2683,1.1264-1.7037,.6205-6.786-.4975-11.2633-2.4707-4.4773-1.9733-10.9667-3.6673-14.4243-3.7787-10.5829-.3409-17.3196-5.5543-22.4903-17.4036-7.9861-18.3011-6.6893-29.1363 4.9776-42.5098 5.4367-6.232 12.573-15.3713 15.8776-20.3102 4.6292-6.9184 6.6662-8.574 12.9346-8.6109zm75.9363,107.0374c1.6365,.0158 3.4624,.1293 5.5226,.2907 26.1828,2.0513 33.755,12.3358 26.9229,36.5511-2.0582,7.295-4.2674,17.8656-4.905,23.5439-2.6199,23.3298-16.4275,33.6808-34.4075,25.7239-31.1057-13.7656-31.0318-13.731-34.8435-30.0112-3.8645-16.5069-2.489-20.061 14.4243-36.9508 4.5847-4.5781 10.6562-10.9639 13.4796-14.1699 3.2261-3.6636 6.7149-5.0461 13.8066-4.9776zm-310.3214,39.9301c.2322-.0118 .4292-.0132 .654,0 2.9943,.1762 12.7726,.6401 21.7273,1.0173 8.9546,.3772 17.5969,1.6731 19.2202,2.834 3.9142,2.7991 14.497,26.8417 14.4969,32.9542 0,7.6239-6.3225,16.074-21.6182,28.8122-12.1094,10.0845-15.8332,11.8082-25.3605,11.8082-11.4262,0-20.4556-6.2907-20.4556-14.2426 .0001-1.9781-2.7166-9.4332-6.0313-16.5679-5.2657-11.3343-5.6962-14.1569-3.5243-22.4539 3.0361-11.5976 13.6934-23.797 20.8916-24.1615zm206.0816,38.0045c4.5652,.0385 10.5053,2.0485 19.8379,5.7043 5.7566,2.255 13.5658,5.054 17.4036,6.2493 5.3972,1.681 8.4188,5.5007 13.2616,16.8222 11.5392,26.977 7.5331,39.6445-14.2063,44.9804-6.5492,1.6075-15.6583,4.6962-20.2739,6.9033-18.9631,9.0683-33.6911,.5446-36.6601-21.2549-5.1366-37.7135-5.1449-37.6041 5.2683-49.5221 5.6091-6.4195 9.1816-9.5766 14.4969-9.8463 .2932-.0149 .5676-.0389 .872-.0364zm-96.2465,2.6887c5.0233-.0543 9.2936,1.6583 17.2219,6.2493 12.4914,7.2332 24.4158,21.1462 24.4159,28.4489 0,1.9842-2.0923,8.2812-4.6506,14.0246-2.5585,5.7434-4.6829,12.2807-4.7233,14.5333-.0404,2.2525-2.7458,7.5791-5.995,11.8083-5.174,6.7353-7.9057,7.8215-21.9815,8.9743-13.3337,1.0919-16.2823,.6181-17.4763-2.943-.7915-2.3605-6.1999-7.0304-12.0263-10.3549-7.1896-4.1024-11.6448-8.8287-13.7702-14.6423-6.737-18.4284-.6275-43.6876 11.0089-45.5618 3.1015-.4994 7.2399-2.5487 9.1923-4.5416 1.9522-1.9929 7.9837-4.4278 13.3706-5.4136 2.0151-.3688 3.7394-.5633 5.4136-.5813z"/>
</g>
<g fill-rule="evenodd">
<g transform="matrix(1.36421 -.20866 .19447 1.2714 -123.82941 -61.20237)">
<path d="m190.25,81.125l-22.8125,10.4062 98.4062,193.4688 22.0312-5.6875-97.625-198.1875zm186.125,377.875l-19.3125,5.2812 32.3125,63.5625c3.647,8.0999 20.1728,.7209 17.375-7.1562l-30.375-61.6875z" transform="matrix(.71627 .11755 -.10956 .76855 81.98993 61.59385)"/>
<path d="m191.6231,148.8151c-13.7429-17.7858-8.6195-34.8865-5.1833-48.3775 5.511,6.7719 9.7581,10.3625 18.7744,22.3522 6.445,8.5704 2.4715,14.458 3.1106,21.9938l-16.7018,4.0315z"/>
</g>
<g transform="matrix(1.48581 .18245 -.21292 1.27319 -22.48483 -146.57578)">
<path d="m191.8953,151.6271l111.1531,361.4119c1.7248,6.6539 14.3872,2.9273 13.2462-3.4555l-106.921-363.2734-17.4783,5.317z"/>
<path d="m191.6231,148.8151c-13.7429-17.7858-8.6195-34.8865-5.1833-48.3775 5.511,6.7719 9.7581,10.3625 18.7744,22.3522 6.445,8.5704 2.4715,14.458 3.1106,21.9938l-16.7018,4.0315z"/>
</g>
<g>
<path opacity=".1" d="m98.2011,309.9471l-6.1376,61.3757 39.8942,49.1005 116.6138,56.7725h128.8889l76.7196-53.7037 32.2222-55.2381 10.7407-69.0476-55.2381-78.254-32.2222-42.963-76.7196-16.8783-38.3598,141.164-82.8571,12.2751-113.545-4.6032z"/>
<path opacity=".1" d="m165.7143,429.6296l95.1323-127.3545 96.6667,12.2751 88.9947-61.3757 36.8254,18.4127 16.8783,69.0476-32.2222,70.582-136.5609-79.7884-32.2222,38.3598 6.1376,102.8042-65.9788,3.0688-73.6508-46.0317z"/>
</g>
</g>
</g>
</svg>
