<svg xmlns="http://www.w3.org/2000/svg" viewBox="0 0 580 580">
<path fill="#111" stroke="#eee" stroke-width="3.408" d="m66.275,1.768c-41.335,0-64.571,21.371-64.571,65.036v450.123c0,40.844 20.895,62.229 62.192,62.229h452.024c41.307,0 62.229-20.315 62.229-62.229v-450.123c0-42.601-20.922-65.036-63.521-65.036-.004,0-448.495-.143-448.353,0z"/>
<g fill="#fff">
<g fill-rule="evenodd">
<g>
<path d="m23.1599,530.4664l534.4825-.9291-29.084-50.375h-474.3533l-31.0452,51.304z"/>
</g>
<g stroke="#fff">
<path stroke-width="60.798" d="m93.3512,489.962v-345.3282"/>
<path stroke-width="60.577" d="m489.5291,498.7051v-342.8144"/>
</g>
<g>
<path d="m24.453,108.9176h533.4425l-264.2163-89.6062-269.2262,89.6062z"/>
</g>
</g>
<g>
<path stroke="#fff" stroke-linecap="square" stroke-width="29.523" d="m42.8741,106.995h496.4109v44.067h-496.4109z"/>
</g>
</g>
<g transform="matrix(1.45658 0 0 1.45658 -130.4077 -165.48761)">
<path fill="#fff" d="m277.22,277.3299c-6.2937,.0561-12.7114,1.0922-19.7637,4.9673-1.1773,.3382-3.6623,4.2233-5.9318,6.7376-7.3315,8.1226-8.6795,19.6376-3.4481,29.3681 5.4377,10.1144 4.5241,17.0898-2.5233,19.2617-2.9845,.9198-4.2986,.6729-10.8859-1.9156-4.1201-1.6191-8.9749-2.9313-10.7802-2.9196-5.1009,.033-10.0187,3.1029-12.6958,7.9002-2.0092,3.6007-2.3556,5.1982-2.378,11.4407-.0286,7.9815 .9446,10.7875 7.4378,21.785 6.5961,11.1717 16.3546,21.1994 27.611,28.364 7.7392,4.926 21.9738,10.1343 30.4514,11.2426 8.4776,1.1083 21.4744,3.0562 43.1207-.7398 16.1315-3.7577 32.0917-13.937 40.6767-23.7798 8.5849-9.8428 10.0919-14.229 12.2334-24.7971 2.6088-12.8743-.9716-30.5597-8.9042-44.0191-5.2102-8.8401-14.6129-19.2873-21.6661-24.0572-12.0552-8.1527-33.7336-16.3299-47.8503-18.0594-4.987-.2737-9.8088-.8231-14.7038-.7795zm-2.9857,12.2466c8.6084,0 15.589,6.9805 15.589,15.589 0,8.6085-6.9805,15.6022-15.589,15.6022-8.6085,0-15.6022-6.9938-15.6022-15.6022 0-8.6085 6.9937-15.589 15.6022-15.589zm43.7549,7.134c.3256-.0019 .6744,.0084 1.0701,.0264 4.6263,.2112 8.7966,1.8048 10.5556,4.0294 2.0164,2.55 4.9478,15.4342 4.3464,19.1031-.4791,2.9228-6.96,11.0048-8.825,11.0048-.4375,0-1.2962,.1839-1.9156,.4095-.6195,.2256-2.4674-.1809-4.0954-.8983-1.628-.7175-3.9876-1.3335-5.2448-1.3739-3.848-.1239-6.2975-2.0196-8.1776-6.3281-2.9038-6.6544-2.4323-10.5942 1.8099-15.4569 1.9768-2.266 4.5716-5.5891 5.7732-7.3849 1.6832-2.5156 2.4239-3.1176 4.7031-3.131zm27.611,38.9196c.595,.0057 1.259,.047 2.0081,.1057 9.5203,.7459 12.2736,4.4854 9.7894,13.2903-.7484,2.6525-1.5517,6.4961-1.7835,8.5607-.9526,8.4829-5.9731,12.2466-12.5108,9.3534-11.3103-5.0053-11.2834-4.9927-12.6694-10.9123-1.4052-6.002-.905-7.2944 5.2448-13.4356 1.667-1.6646 3.8747-3.9866 4.9013-5.1523 1.173-1.3321 2.4416-1.8348 5.0202-1.8099zm-112.8352,14.5189c.0844-.0043 .1561-.0048 .2378,0 1.0888,.0641 4.6442,.2328 7.9002,.3699 3.256,.1372 6.3984,.6084 6.9886,1.0305 1.4232,1.0178 5.2712,9.7598 5.2712,11.9824 0,2.7721-2.2989,5.8446-7.8605,10.4763-4.4031,3.6668-5.7571,4.2936-9.2213,4.2936-4.1547,0-7.4378-2.2874-7.4378-5.1787 0-.7193-.9878-3.43-2.193-6.0242-1.9146-4.1212-2.0712-5.1476-1.2815-8.1644 1.1039-4.217 4.979-8.6528 7.5963-8.7853zm74.9329,13.8187c1.6599,.014 3.8198,.7449 7.2132,2.0741 2.0931,.8199 4.9326,1.8377 6.3281,2.2723 1.9625,.6112 3.0611,2.0001 4.822,6.1167 4.1957,9.809 2.7391,14.415-5.1655,16.3552-2.3813,.5845-5.6935,1.7076-7.3717,2.5101-6.8952,3.2973-12.2503,.198-13.3299-7.7284-1.8677-13.7129-1.8707-13.6731 1.9156-18.0066 2.0395-2.3342 3.3385-3.4821 5.2712-3.5802 .1066-.0054 .2064-.0141 .3171-.0132zm-34.996,.9776c1.8265-.0197 3.3792,.603 6.262,2.2723 4.542,2.63 8.8778,7.6889 8.8778,10.3442 0,.7215-.7608,3.0111-1.691,5.0995-.9303,2.0883-1.7027,4.4654-1.7174,5.2844-.0147,.819-.9984,2.7558-2.1798,4.2936-1.8813,2.449-2.8746,2.844-7.9927,3.2631-4.8482,.397-5.9204,.2247-6.3545-1.0701-.2878-.8583-2.2543-2.5563-4.3729-3.7651-2.6142-1.4916-4.2341-3.2102-5.007-5.324-2.4496-6.7007-.2282-15.8852 4.0029-16.5666 1.1277-.1816 2.6325-.9267 3.3424-1.6514 .7098-.7246 2.9029-1.61 4.8616-1.9684 .7327-.1341 1.3597-.2048 1.9684-.2114z"/>
</g>
<g fill="#fff" fill-rule="evenodd">
<g transform="matrix(.73092 0 0 .6812 97.13448 108.90086)">
<path d="m191.8953,151.6271l111.1531,361.4119c1.7248,6.6539 14.3872,2.9273 13.2462-3.4555l-106.921-363.2734-17.4783,5.317z"/>
<path d="m191.6231,148.8151c-13.7429-17.7858-8.6195-34.8865-5.1833-48.3775 5.511,6.7719 9.7581,10.3625 18.7744,22.3522 6.445,8.5704 2.4715,14.458 3.1106,21.9938l-16.7018,4.0315z"/>
</g>
<g transform="matrix(.78692 .09663 -.11277 .67431 124.38232 92.85903)">
<path d="m191.8953,151.6271l111.1531,361.4119c1.7248,6.6539 14.3872,2.9273 13.2462-3.4555l-106.921-363.2734-17.4783,5.317z"/>
<path d="m191.6231,148.8151c-13.7429-17.7858-8.6195-34.8865-5.1833-48.3775 5.511,6.7719 9.7581,10.3625 18.7744,22.3522 6.445,8.5704 2.4715,14.458 3.1106,21.9938l-16.7018,4.0315z"/>
</g>
</g>
</svg>
