<svg xmlns="http://www.w3.org/2000/svg" viewBox="0 0 580 580">
<path fill="#111" stroke="#eee" stroke-width="3.408" d="m66.275,1.768c-41.335,0-64.571,21.371-64.571,65.036v450.123c0,40.844 20.895,62.229 62.192,62.229h452.024c41.307,0 62.229-20.315 62.229-62.229v-450.123c0-42.601-20.922-65.036-63.521-65.036-.004,0-448.495-.143-448.353,0z"/>
<g stroke="#fff" fill-rule="evenodd" stroke-linejoin="round" stroke-width="22.853">
<path fill="none" d="m159.2758,112.1716c-1.8316,10.6219-99.7863,429.7665-99.7863,429.7665l461.4352-3.8992-100.0188-427.6034-261.6301,1.7361z"/>
<path opacity=".1" fill="#fff" stroke-linecap="round" d="m159.2758,112.1716c-1.8316,10.6219-99.7863,429.7665-99.7863,429.7665l461.4352-3.8992-100.0188-427.6034-261.6301,1.7361z"/>
</g>
<g transform="matrix(1.29935 0 0 1.14263 -301.5384 133.33861)">
<path fill="#fff" line-height="125%" d="m428.2687,167.1793c.2103,.1053 .9992,.3157 2.3668,.6311 21.5639,4.2078 37.7632,11.8867 48.598,23.0367 10.8345,11.1503 16.2518,25.7717 16.2519,43.8644-.0002,18.5136-5.9434,34.5551-17.8298,48.1247-11.8867,13.5696-28.349,20.9329-49.3869,22.09v28.717h-16.8831v-28.4014c-21.4589-2.4194-37.9212-9.3882-49.3869-20.9066-11.4658-11.5183-17.935-27.6387-19.4076-48.3613l28.4014-5.0491c2.209,15.5683 6.6796,27.56 13.4118,35.9751 6.7321,8.4153 15.7259,13.2014 26.9814,14.3585v-90.4112c-21.3537-4.6283-37.3427-12.3598-47.9669-23.1945-10.6243-10.8345-15.9364-24.7722-15.9364-41.8132 0-16.9355 5.2595-31.478 15.7786-43.6278 10.519-12.1493 26.5605-19.1707 48.1246-21.0644v-13.5696h16.8831v13.5696c17.8823,1.7885 31.9778,7.4688 42.2866,17.0409 10.3085,9.5725 16.7777,22.9843 19.4076,40.2354l-29.5059,4.2602c-1.6832-10.7292-5.2071-19.2234-10.5716-25.4824-5.3648-6.2586-12.5704-10.2822-21.6167-12.0706v82.0486zm-16.8831-3.4713v-78.8929c-11.4658,1.9988-20.2492,6.6009-26.3502,13.8063-6.1011,7.2057-9.1516,15.5421-9.1516,25.009-.0001,10.8348 3.1557,19.3815 9.4671,25.6402 6.3114,6.259 14.9896,11.0714 26.0346,14.4374zm16.8831,117.5504c11.0449-1.683 20.1439-6.4955 27.2969-14.4374 7.1528-7.9418 10.7293-17.9612 10.7294-30.0582-.0001-10.6242-2.7088-19.1709-8.126-25.6402-5.4174-6.4691-15.3842-11.9653-29.9004-16.4886v86.6244z" transform="scale(1.08671 .92021)"/>
</g>
<g stroke="#fff" stroke-linejoin="round" stroke-linecap="round">
<path fill="none" fill-rule="evenodd" stroke-width="34.279" d="m290.1531,178.9597v302.8456"/>
<path opacity=".5" fill="#fff" stroke-width="36.062" d="m63.8125,49.75v104.4375h84.1562c6.6778-24.2315 10.9773-60.0875 11.3125-62.0312l261.625-1.7188 12.2812,63.75h83v-104.4375h-452.375z"/>
</g>
</svg>
