<svg xmlns="http://www.w3.org/2000/svg" viewBox="0 0 580 580">
<path fill="#111" stroke="#eee" stroke-width="3.408" d="m66.275,1.768c-41.335,0-64.571,21.371-64.571,65.036v450.123c0,40.844 20.895,62.229 62.192,62.229h452.024c41.307,0 62.229-20.315 62.229-62.229v-450.123c0-42.601-20.922-65.036-63.521-65.036-.004,0-448.495-.143-448.353,0z"/>
<g stroke="#fff" stroke-linejoin="round" stroke-linecap="round" transform="translate(-4)">
<path opacity=".75" fill="#fff" stroke-width="16" d="m411.2169,457.2487-143.6105-74.5668-142.8414,76.0298 26.5392-159.6242-116.4491-112.3557 160.0127-24.0863 70.8719-145.4695 72.3541,144.738 160.2503,22.4506-115.2954,113.5393 28.1683,159.3447z" transform="translate(30.68783 46.03175)"/>
<path fill="none" stroke-width="20" d="m411.2169,457.2487-143.6105-74.5668-142.8414,76.0298 26.5392-159.6242-116.4491-112.3557 160.0127-24.0863 70.8719-145.4695 72.3541,144.738 160.2503,22.4506-115.2954,113.5393 28.1683,159.3447z" transform="translate(30.68783 46.03175)"/>
</g>
</svg>
