<svg xmlns="http://www.w3.org/2000/svg" viewBox="0 0 580 580">
<g transform="translate(-1.08498 -4.33991)">
<path fill="#111" stroke="#eee" stroke-width="3.408" d="m66.275,1.768c-41.335,0-64.571,21.371-64.571,65.036v450.123c0,40.844 20.895,62.229 62.192,62.229h452.024c41.307,0 62.229-20.315 62.229-62.229v-450.123c0-42.601-20.922-65.036-63.521-65.036-.004,0-448.495-.143-448.353,0z"/>
</g>
<g fill="#fff" fill-rule="evenodd">
<path d="m200.5315,120.5598c-20.7769,.2556-41.5982,5.1733-60.832,14.9346-.2162,.0997-.4177,.216-.6331,.3165-.2841,.146-.5799,.2547-.8633,.4029v.0288c-81.2939,38.6038-104.5705,140.66-66.7886,215.8758 52.4733,109.814 186.7238,147.358 294.3186,112.6859 98.6607-27.2388 180.9133-124.3618 160.4825-234.0621-.127-.6821-.2103-1.36-.3453-2.0431h-.0575c-11.4994-76.2303-89.7179-121.985-161.7486-104.0532-25.8922,6.4471-48.9552,17.1608-69.551,30.8476-26.2845-23.3127-60.0165-35.3516-93.9817-34.9338zm199.3873,19.3661c2.5641-.1804 4.9799,1.4562 5.6976,4.0286l5.6976,20.3732c.0378,.1192 .0855,.2525 .1151,.3741 .7205,2.9678-1.1184,5.9555-4.0862,6.676-2.9678,.7205-5.9555-1.1183-6.676-4.0862l-5.6976-20.3732c-.8202-2.9398 .8873-5.9709 3.8272-6.7911 .3675-.1025 .7559-.1757 1.1223-.2014zm-160.1084,12.8628c3.0513-.1271 5.628,2.2434 5.7552,5.2947 .1271,3.0513-2.2434,5.628-5.2947,5.7552l-21.0926,1.6114c-3.0434,.2304-5.6974-2.0499-5.9278-5.0933-.2304-3.0434 2.0499-5.6974 5.0933-5.9278l21.0926-1.6114c.1243-.0138 .2491-.0234 .3741-.0288zm-102.4705,10.3305c.3671,.0075 .7214,.0598 1.0935,.1439l20.661,4.6329c.1229,.0233 .2243,.0548 .3453,.0863 2.9544,.7736 4.7447,3.8079 3.9711,6.7623-.7736,2.9544-3.8079,4.7159-6.7623,3.9423l-20.6322-4.6617c-2.9771-.6725-4.845-3.6125-4.1725-6.5896 .5885-2.605 2.9263-4.3686 5.4962-4.3164zm195.3299,6.1005c1.7751,.0107 3.5163,.8867 4.5754,2.4747 1.6944,2.5408 1.0157,5.9599-1.5251,7.6543l-17.2079,12.3448c-2.4804,1.7785-5.9046,1.2143-7.6831-1.2661-1.7785-2.4804-1.2142-5.9334 1.2661-7.7119l17.1791-12.3448c.099-.0764 .1838-.1319 .2878-.2014 .9528-.6354 2.0427-.956 3.1078-.9496zm152.1087,12.7477c3.0513-.1271 5.628,2.2434 5.7552,5.2947 .1271,3.0513-2.2434,5.628-5.2947,5.7552l-21.0926,1.6114c-3.0434,.2304-5.6974-2.0499-5.9278-5.0933-.2304-3.0434 2.0499-5.6974 5.0933-5.9278l21.0926-1.6114c.1243-.0138 .2491-.0234 .3741-.0288zm-282.837,6.1292c14.6058,.0603 29.2886,4.3191 41.2932,12.3736-33.3709,37.1348-61.8874,89.8065-80.4572,131.333-5.1543,10.9958-3.9843,23.9043 3.079,33.7828 7.0633,9.8785 18.9197,15.191 30.9915,13.8699 12.0718-1.3211 22.4911-9.057 27.2507-20.2294 17.2883-38.6606 43.1166-84.5175 70.213-114.2977 24.9352,26.5361 52.6756,69.7171 64.2854,103.5645 3.761,11.5254 13.436,20.1179 25.3227,22.5027 11.8867,2.3848 24.1406-1.8095 32.0562-10.9923 7.9156-9.1828 10.269-21.9171 6.158-33.3223-14.3671-41.8861-45.6876-91.7086-75.0188-123.8802 10.499-5.5649 21.5096-10.0436 33.1785-12.9491 4.3147-1.0741 8.7109-1.646 13.1218-1.7553 30.8758-.7653 62.1351,21.0949 66.213,51.5662l.1439,1.0359 .2014,1.0359c13.6241,68.9339-45.366,139.9265-113.4629,158.7271l-.6906,.2014-.6906,.2014c-77.6009,25.0067-178.2922-4.8845-213.3723-78.2989l-.1439-.2878-.1439-.3165c-21.5033-42.8086-6.6419-105.6465 36.3438-125.4623l.7482-.3453 .7482-.4029c9.9554-5.2054 21.2717-7.7013 32.6317-7.6544zm-98.8735,37.0632c1.7027,.0729 3.3546,.9462 4.3739,2.4747 1.6944,2.5408 1.0157,5.9887-1.5251,7.6831l-17.1791,12.3448c-2.4804,1.7785-5.9334,1.1855-7.7119-1.2949-1.7785-2.4804-1.2142-5.9334 1.2661-7.7119l17.1791-12.316c.099-.0764 .2125-.1607 .3165-.2302 .794-.5295 1.673-.8402 2.561-.9208 .2442-.0222 .4761-.0392 .7194-.0288zm254.0613,17.2942c2.3572,.023 4.5234,1.5658 5.2372,3.9423 .8786,2.9249-.7872,6.0277-3.7121,6.9062l-20.0279,6.7623c-2.8916,.9767-6.0446-.5614-7.0213-3.4531-.9767-2.8916 .5902-6.0159 3.4819-6.9925l20.0279-6.7911c.117-.0442 .2256-.079 .3453-.1151 .5484-.1647 1.125-.2643 1.669-.259zm-101.8374,3.2517c3.0513-.1271 5.628,2.2434 5.7551,5.2947 .1271,3.0513-2.2434,5.628-5.2947,5.7552l-21.0926,1.6114c-3.0434,.2304-5.6974-2.0499-5.9278-5.0933-.2304-3.0434 2.0499-5.6974 5.0933-5.9278l21.0926-1.6114c.1243-.0138 .2491-.0234 .3741-.0288zm232.9111,2.187c1.0642-.0243 2.145,.2732 3.1078,.8921l17.8122,11.424c.1075,.0639 .2136,.1304 .3165,.2014 2.5115,1.7375 3.1475,5.1716 1.41,7.6831-1.7375,2.5115-5.2004,3.1475-7.7119,1.41l-17.7834-11.424c-2.5675-1.6503-3.3193-5.0869-1.669-7.6543 1.0314-1.6047 2.7442-2.4917 4.5178-2.5323zm-115.9951,56.8609c.3671,.0075 .7214,.0598 1.0935,.1439l20.6322,4.6617c.1229,.0233 .253,.026 .3741,.0575 2.9544,.7736 4.7159,3.8079 3.9423,6.7623-.7736,2.9544-3.7791,4.7159-6.7335,3.9423l-20.6322-4.6329c-2.9771-.6725-4.845-3.6413-4.1725-6.6184 .5885-2.605 2.9263-4.3686 5.4962-4.3164zm-175.82,4.8631c1.0642-.0243 2.145,.2444 3.1078,.8633l17.8122,11.424c.1075,.0639 .2136,.1304 .3165,.2014 2.5115,1.7375 3.1188,5.2004 1.3812,7.7119-1.7375,2.5115-5.1716,3.1475-7.6831,1.41l-17.8122-11.4528c-2.5675-1.6503-3.2905-5.0581-1.6402-7.6256 1.0314-1.6047 2.7442-2.4917 4.5178-2.5323zm-92.8306,1.2661c3.0513-.1271 5.628,2.2434 5.7552,5.2947 .1271,3.0514-2.2434,5.628-5.2947,5.7552l-21.0926,1.6114c-3.0434,.2304-5.6974-2.0499-5.9278-5.0933-.2304-3.0434 2.0499-5.6974 5.0933-5.9278l21.0926-1.6114c.1243-.0138 .2491-.0234 .3741-.0288zm382.9767,13.6973c1.7751,.0107 3.5164,.8867 4.5754,2.4747 1.6944,2.5408 .987,5.96-1.5539,7.6544l-17.1791,12.3448c-2.4804,1.7785-5.9334,1.2143-7.7119-1.2661-1.7785-2.4804-1.2142-5.9334 1.2661-7.7119l17.2079-12.3448c.099-.0764 .1838-.1319 .2878-.2014 .9528-.6354 2.0427-.956 3.1078-.9496zm-360.8194,37.1207c2.3549,.0694 4.4844,1.6688 5.1509,4.0574l5.6976,20.3732c.0378,.1192 .0855,.2238 .1151,.3453 .7205,2.9678-1.1184,5.9555-4.0862,6.676-2.9678,.7205-5.9555-1.0896-6.676-4.0574l-5.6976-20.3732c-.8202-2.9398 .9161-5.9996 3.856-6.8198 .5512-.1538 1.0968-.2175 1.6402-.2014zm305.7138,12.6038c3.0491-.1349 5.6202,2.2456 5.7552,5.2947l.9496,21.1214c.0099,.1247 .0273,.249 .0288,.3741 .0315,3.0538-2.4423,5.5511-5.4962,5.5825-3.0538,.0315-5.551-2.4136-5.5825-5.4674l-.9496-21.1214c-.135-3.0491 2.2456-5.649 5.2947-5.7839zm-250.6369,42.0702c.3671,.0075 .7501,.0598 1.1222,.1439l20.6322,4.6617c.1229,.0233 .253,.0548 .3741,.0863 2.9544,.7736 4.7159,3.7791 3.9423,6.7335-.7736,2.9544-3.8079,4.7159-6.7623,3.9423l-20.6322-4.6329c-2.9771-.6725-4.845-3.6413-4.1725-6.6184 .5885-2.605 2.9263-4.3686 5.4962-4.3164zm192.9703,9.4385c3.0513-.1271 5.628,2.2434 5.7551,5.2947 .1271,3.0514-2.2434,5.628-5.2947,5.7552l-21.0926,1.6114c-3.0434,.2304-5.6974-2.0499-5.9278-5.0933-.2304-3.0434 2.0499-5.6974 5.0933-5.9278l21.0926-1.6115c.1243-.0138 .2491-.0234 .3741-.0288zm-111.0745,5.3523c1.0641-.0243 2.145,.2444 3.1078,.8633l17.8122,11.424c.1075,.0639 .2136,.1304 .3165,.2014 2.5115,1.7375 3.1188,5.2003 1.3812,7.7119-1.7375,2.5115-5.1716,3.1475-7.6831,1.41l-17.8122-11.4527c-2.5675-1.6503-3.2905-5.0581-1.6402-7.6256 1.0314-1.6047 2.7442-2.4917 4.5178-2.5323z"/>
<path opacity=".1" d="m200.6995,120.7256c-20.7769,.2556-41.5982,5.1733-60.832,14.9346-.2162,.0997-.4177,.216-.6331,.3165-.2841,.146-.5799,.2547-.8633,.4029v.0288c-81.2939,38.6038-104.5705,140.66-66.7886,215.8758 52.4733,109.814 186.7238,147.358 294.3185,112.6859 98.6607-27.2388 180.9134-124.3618 160.4825-234.0621-.1271-.6821-.2103-1.36-.3453-2.0431h-.0576c-11.4993-76.2303-89.7178-121.985-161.7486-104.0532-25.8922,6.4471-48.9552,17.1608-69.551,30.8476-26.2845-23.3127-60.0165-35.3516-93.9817-34.9338zm192.884,67.5367c30.8758-.7653 62.1351,21.0949 66.2131,51.5662l.1439,1.0359 .2014,1.0359c13.6241,68.9339-45.366,139.9265-113.4629,158.7272l-.6906,.2014-.6906,.2014c-77.6009,25.0067-178.2922-4.8845-213.3723-78.2989l-.1439-.2878-.1439-.3165c-21.5033-42.8086-6.6419-105.6465 36.3438-125.4623l.7482-.3453 .7482-.4029c22.7553-11.8981 52.5834-9.5999 73.925,4.7192-33.3709,37.1348-57.8874,81.8065-76.4572,123.333-5.1542,10.9958-3.9725,23.9174 3.0908,33.7959 7.0633,9.8785 18.9083,15.1757 30.9801,13.8545 12.0718-1.3211 22.4908-9.0548 27.2503-20.2271 17.2883-38.6606 39.1166-76.5175 66.213-106.2977 24.9352,26.5361 44.6756,57.7171 56.2854,91.5645 3.761,11.5254 13.4405,20.1301 25.3272,22.5148 11.8867,2.3847 24.1361-1.8204 32.0517-11.0033 7.9155-9.1828 10.269-21.9183 6.158-33.3236-14.3671-41.8861-37.6876-79.7086-67.0188-111.8802 10.4991-5.5649 21.5096-10.0436 33.1785-12.9491 4.3147-1.0741 8.7109-1.646 13.1217-1.7553z"/>
</g>
</svg>
