<svg xmlns="http://www.w3.org/2000/svg" viewBox="0 0 580 580">
<path fill="#111" stroke="#eee" stroke-width="3.408" d="m66.275,1.768c-41.335,0-64.571,21.371-64.571,65.036v450.123c0,40.844 20.895,62.229 62.192,62.229h452.024c41.307,0 62.229-20.315 62.229-62.229v-450.123c0-42.601-20.922-65.036-63.521-65.036-.004,0-448.495-.143-448.353,0z"/>
<g fill="#fff" stroke="#fff">
<g fill-rule="evenodd" transform="matrix(5.42249 0 0 6.32563 2636.42768 -2546.19436)">
<path stroke-linejoin="round" d="m-472.5082,479.5038c20.784-21.9193 43.1002-43.8924 83.1365-65.0987-19.3372,4.0143-37.6803,11.7365-53.2892,24.8329-13.9955,11.7427-25.7885,23.2701-35.8147,34.5697 0,0-2.4412,3.1193 0,5.6961 2.4412,2.5768 6.103,.1356 5.9674,0z"/>
<path d="m-473.5932,471.0953c0,0-5.9674-2.5768-5.5605-8.1373 .4069-5.5605 4.4931-10.1645 9.3579-10.5785 6.3743-.5425 10.4429,3.5262 10.4429,3.5262l-4.8824,5.6961c0,0-5.5605-5.018-8.4086-1.7631-2.8481,3.2549 .6781,9.9004 .6781,9.9004l-1.6275,1.3562z"/>
</g>
<g transform="matrix(5.42249 0 0 6.32563 2636.42768 -2546.19436)">
<path stroke-linejoin="round" stroke-linecap="round" d="m-453.3855,463.3648a3.933,3.933 0 1,1 -7.8661,0 3.933,3.933 0 1,1 7.8661,0z" transform="matrix(.84703 0 0 .84703 -69.68357 70.8797)"/>
</g>
<g fill-rule="evenodd" transform="matrix(-5.42249 0 0 6.32563 -2053.65852 -2546.19436)">
<path stroke-linejoin="round" d="m-472.5082,479.5038c20.784-21.9193 43.1002-43.8924 83.1365-65.0987-19.3372,4.0143-37.6803,11.7365-53.2892,24.8329-13.9955,11.7427-25.7885,23.2701-35.8147,34.5697 0,0-2.4412,3.1193 0,5.6961 2.4412,2.5768 6.103,.1356 5.9674,0z"/>
<path d="m-473.5932,471.0953c0,0-5.9674-2.5768-5.5605-8.1373 .4069-5.5605 4.4931-10.1645 9.3579-10.5785 6.3743-.5425 10.4429,3.5262 10.4429,3.5262l-4.8824,5.6961c0,0-5.5605-5.018-8.4086-1.7631-2.8481,3.2549 .6781,9.9004 .6781,9.9004l-1.6275,1.3562z"/>
</g>
<g transform="matrix(-5.42249 0 0 6.32563 -2053.65852 -2546.19436)">
<path stroke-linejoin="round" stroke-linecap="round" d="m-453.3855,463.3648a3.933,3.933 0 1,1 -7.8661,0 3.933,3.933 0 1,1 7.8661,0z" transform="matrix(.84703 0 0 .84703 -69.68357 70.8797)"/>
</g>
</g>
</svg>
