<svg xmlns="http://www.w3.org/2000/svg" viewBox="0 0 580 580">
<path fill="#111" stroke="#eee" stroke-width="3.408" d="m66.275,1.768c-41.335,0-64.571,21.371-64.571,65.036v450.123c0,40.844 20.894,62.229 62.192,62.229h452.024c41.307,0 62.229-20.316 62.229-62.229v-450.123c0-42.601-20.922-65.036-63.522-65.036-.003,0-448.494-.143-448.352,0z"/>
<g fill-rule="evenodd">
<g fill="#fff">
<path stroke="#fff" stroke-linejoin="round" stroke-linecap="round" stroke-width="10" d="m46.3372,530.4414l73.5555-315.3533h47.422l24.3297,73.6079h49.1733l23.0923-72.9892 49.2258-.6187 23.1447,72.9892 47.9883,1.8037 23.2496-74.1061 49.0685,.4981 72.9892,315.972-483.2389-1.8038z"/>
<path d="m279.6779,47.8726c-.0625,29-.125,58-.1875,87 58.5579,32.4844 109.5833-.3125 164.375-.4688 0-29.2917 0-58.5833 0-87.875-54.7292-9.5954-109.4583,28.5149-164.1875,1.3437z"/>
</g>
<g>
<path fill="none" stroke="#fff" stroke-width="15" d="m287.4892,90.3896v209.6537h-6.277"/>
</g>
</g>
</svg>
