<svg xmlns="http://www.w3.org/2000/svg" viewBox="0 0 580 580">
<path fill="#111" stroke="#eee" stroke-width="3.408" d="m66.275,1.768c-41.335,0-64.571,21.371-64.571,65.036v450.123c0,40.844 20.895,62.229 62.192,62.229h452.024c41.307,0 62.229-20.315 62.229-62.229v-450.123c0-42.601-20.922-65.036-63.521-65.036-.004,0-448.495-.143-448.353,0z"/>
<g stroke="#fff" fill-rule="evenodd">
<path opacity=".25" fill="#fff" stroke-width="1.37" d="m289.4877,29.6576l-258.1567,228.0845h51.631v294.6031h154.8944v-173.8654h106.803l.0004,173.8654h151.3537v-294.6031h51.6313l-258.1571-228.0845z"/>
<path fill="none" stroke-linejoin="round" stroke-linecap="round" stroke-width="12.805" d="m289.4877,29.6576l-258.1567,228.0845h51.631v294.6031h154.8944v-173.8654h106.803l.0004,173.8654h151.3537v-294.6031h51.6313l-258.1571-228.0845z"/>
</g>
<path fill="#fff" line-height="125%" d="m125.6249,223.0369h59.625c9.9374,.0001 17.5663,2.461 22.8867,7.3828 5.3202,4.922 7.9804,11.0157 7.9805,18.2812-.0001,6.0938-1.8985,11.3204-5.6953,15.6797-2.5313,2.9063-6.2345,5.2032-11.1094,6.8906 7.4062,1.7813 12.8554,4.8399 16.3477,9.1758 3.4921,4.336 5.2382,9.7852 5.2383,16.3477-.0001,5.3438-1.2423,10.1484-3.7266,14.4141-2.4845,4.2656-5.8829,7.6406-10.1953,10.125-2.672,1.5469-6.7032,2.6719-12.0938,3.375-7.172,.9375-11.9298,1.4062-14.2734,1.4062h-54.9844v-103.0781zm32.1328,40.4297h13.8516c4.9687,.0001 8.4257-.8554 10.3711-2.5664 1.9452-1.7109 2.9179-4.1835 2.918-7.418-.0001-2.9999-.9727-5.3437-2.918-7.0312-1.9454-1.6874-5.3321-2.5312-10.1601-2.5312h-14.0625v19.5469zm0,40.5h16.2422c5.4843,0 9.3515-.9726 11.6016-2.918 2.2499-1.9453 3.3749-4.5586 3.375-7.8398-.0001-3.0468-1.1134-5.4961-3.3399-7.3477-2.2266-1.8515-6.129-2.7773-11.707-2.7773h-16.1719v20.8828zm161.0859-27.9844l22.3594,4.9922c-1.172,4.125-2.297,7.4297-3.375,9.9141-1.0782,2.4844-2.6017,5.4141-4.5703,8.7891l10.7578,7.3828c1.3124,.8438 2.9999,1.8516 5.0625,3.0234l-15.3984,17.7188c-2.8126-1.5-5.7306-3.2344-8.7539-5.2031-3.0235-1.9688-5.7306-3.6562-8.1211-5.0625-4.9688,3.2812-9.9376,5.6719-14.9062,7.1719-6.8907,2.0625-14.7188,3.0938-23.4844,3.0938-13.7344,0-23.9532-2.8594-30.6562-8.5781-6.7031-5.7187-10.0547-12.6562-10.0547-20.8125 0-5.8594 1.9687-11.4023 5.9062-16.6289 3.9375-5.2265 10.3828-9.6445 19.3359-13.2539-3.75-4.5468-6.3282-8.496-7.7344-11.8476-1.4063-3.3515-2.1094-6.7617-2.1094-10.2305 0-7.3124 2.789-13.3358 8.3672-18.0703 5.5781-4.7343 14.039-7.1015 25.3828-7.1016 11.578,.0001 20.0858,2.2501 25.5234,6.75 5.4374,4.5001 8.1562,9.8907 8.1562,16.1719-.0001,3.5157-.8321,6.8907-2.4961,10.125-1.6642,3.2344-3.6681,5.8594-6.0117,7.875-2.3438,2.0157-6.5391,5.0157-12.5859,9 5.0156,5.0157 10.2421,9.6797 15.6797,13.9922 1.453-2.9062 2.6952-5.9765 3.7266-9.2109zm-32.9062-18.0703c3.7031-2.0156 6.5624-4.207 8.5781-6.5742 2.0155-2.3671 3.0234-4.6054 3.0234-6.7148-.0001-2.203-.8438-4.0663-2.5312-5.5898-1.6876-1.5233-4.0079-2.2851-6.9609-2.2852-2.9063,.0001-5.2735,.8438-7.1016,2.5312-1.8282,1.6876-2.7422,3.6798-2.7422,5.9766-.0001,2.9063 2.5781,7.1251 7.7344,12.6563zm-10.1953,25.0312c-3.9375,2.7657-6.5508,5.1328-7.8398,7.1016-1.2891,1.9688-1.9336,4.0547-1.9336,6.2578 0,3.4219 1.4765,6.4688 4.4297,9.1406 2.9531,2.6719 6.7968,4.0078 11.5312,4.0078 5.1093,0 10.8515-1.9922 17.2266-5.9766-6.0938-4.6875-13.8985-11.5312-23.4141-20.5312zm89.7891-59.9063h59.625c9.9374,.0001 17.5663,2.461 22.8867,7.3828 5.3202,4.922 7.9804,11.0157 7.9805,18.2812-.0001,6.0938-1.8985,11.3204-5.6953,15.6797-2.5313,2.9063-6.2345,5.2032-11.1094,6.8906 7.4062,1.7813 12.8554,4.8399 16.3477,9.1758 3.4921,4.336 5.2382,9.7852 5.2383,16.3477-.0001,5.3438-1.2423,10.1484-3.7266,14.4141-2.4845,4.2656-5.8829,7.6406-10.1953,10.125-2.672,1.5469-6.7032,2.6719-12.0938,3.375-7.172,.9375-11.9298,1.4062-14.2734,1.4062h-54.9844v-103.0781zm32.1328,40.4297h13.8516c4.9687,.0001 8.4257-.8554 10.3711-2.5664 1.9452-1.7109 2.9179-4.1835 2.918-7.418-.0001-2.9999-.9727-5.3437-2.918-7.0312-1.9454-1.6874-5.3321-2.5312-10.1601-2.5312h-14.0625v19.5469zm0,40.5h16.2422c5.4843,0 9.3515-.9726 11.6016-2.918 2.2499-1.9453 3.3749-4.5586 3.375-7.8398-.0001-3.0468-1.1134-5.4961-3.3399-7.3477-2.2266-1.8515-6.129-2.7773-11.707-2.7773h-16.1719v20.8828z"/>
</svg>
