<svg xmlns="http://www.w3.org/2000/svg" viewBox="0 0 580 580">
<path fill="#111" stroke="#eee" stroke-width="3.408" d="m66.275,1.768c-41.335,0-64.571,21.371-64.571,65.036v450.123c0,40.844 20.895,62.229 62.192,62.229h452.024c41.307,0 62.229-20.315 62.229-62.229v-450.123c0-42.601-20.922-65.036-63.521-65.036-.004,0-448.495-.143-448.353,0z"/>
<path fill="#fff" line-height="125%" d="m20.7981,209.9188 99.9327,0c16.6553,.0002 29.4415,4.1247 38.3586,12.3737 8.9168,8.2493 13.3752,18.4625 13.3754,30.6397-.0002,10.2134-3.182,18.9732-9.5454,26.2795-4.2426,4.871-10.4491,8.7206-18.6195,11.5488 12.4129,2.9855 21.5459,8.1117 27.399,15.3788 5.8528,7.2672 8.7793,16.4002 8.7795,27.399-.0002,8.9563-2.0821,17.009-6.2458,24.1582-4.164,7.1493-9.8599,12.8059-17.0875,16.9697-4.4783,2.5926-11.2347,4.4781-20.2694,5.6566-12.0203,1.5713-19.9945,2.3569-23.9226,2.3569h-92.1549v-172.7609zm53.8552,67.7609 23.2155,0c8.3276,.0001 14.1217-1.4337 17.3822-4.3013 3.2603-2.8674 4.8905-7.0117 4.8906-12.4327-.0001-5.0279-1.6303-8.9561-4.8906-11.7845-3.2605-2.8282-8.9367-4.2423-17.0286-4.2424h-23.569v32.7609zm0,67.8788 27.2222,0c9.1918,0 15.6733-1.6301 19.4445-4.8906 3.7709-3.2603 5.6564-7.6402 5.6566-13.1397-.0001-5.1066-1.866-9.2115-5.5976-12.3148-3.7319-3.1032-10.2723-4.6548-19.6212-4.6549h-27.1044v35zm261.6859-46.9024 37.4748,8.367c-1.9643,6.9137-3.8498,12.4524-5.6566,16.6162-1.8071,4.1639-4.3605,9.0741-7.6599,14.7306l18.0303,12.3737c2.1996,1.4142 5.0279,3.1033 8.4848,5.0673l-25.8081,29.697c-4.714-2.514-9.6046-5.4209-14.6717-8.7205-5.0675-3.2997-9.6045-6.1279-13.6111-8.4849-8.3279,5.4995-16.6556,9.5062-24.9832,12.0202-11.5489,3.4568-24.669,5.1852-39.3603,5.1852-23.0192,0-40.146-4.7924-51.3805-14.3771-11.2346-9.5847-16.8519-21.2121-16.8518-34.8822 0-9.8204 3.2996-19.1105 9.899-27.8704 6.5993-8.7597 17.4017-16.1643 32.4074-22.2138-6.2851-7.6205-10.6061-14.2395-12.963-19.8569-2.3569-5.6172-3.5354-11.3327-3.5353-17.1465 0-12.2558 4.6745-22.3511 14.0236-30.2862 9.349-7.9348 23.5297-11.9022 42.5421-11.9024 19.405,.0002 33.6643,3.7712 42.7778,11.3131 9.1132,7.5423 13.6699,16.577 13.67,27.1044-.0002,5.8924-1.3947,11.5489-4.1835,16.9697-2.7891,5.421-6.1477,9.8206-10.0758,13.1987-3.9283,3.3783-10.9597,8.4064-21.0943,15.0842 8.4062,8.4064 17.166,16.2234 26.2795,23.4512 2.4353-4.8709 4.5172-10.0168 6.2458-15.4377zm-55.1515-30.2862c6.2064-3.3781 10.9988-7.051 14.3771-11.0185 3.3781-3.9673 5.0672-7.7187 5.0673-11.2542-.0001-3.6923-1.4143-6.8152-4.2424-9.3687-2.8284-2.5531-6.7173-3.8298-11.6667-3.83-4.871,.0001-8.8385,1.4143-11.9024,4.2424-3.0641,2.8284-4.596,6.1674-4.596,10.0169-.0001,4.871 4.3209,11.9418 12.963,21.2121zm-17.0875,41.9528c-6.5994,4.6353-10.9793,8.6028-13.1397,11.9024-2.1606,3.2997-3.2408,6.7958-3.2408,10.4882-.0001,5.7352 2.4747,10.8418 7.4242,15.3199 4.9494,4.4781 11.3916,6.7172 19.3266,6.7172 8.5633,0 18.1873-3.3389 28.8721-10.0168-10.2133-7.8563-23.2942-19.3265-39.2424-34.4108zm140.191-100.404 99.9327,0c16.6553,.0002 29.4415,4.1247 38.3586,12.3737 8.9168,8.2493 13.3753,18.4625 13.3754,30.6397-.0002,10.2134-3.182,18.9732-9.5454,26.2795-4.2426,4.871-10.4491,8.7206-18.6195,11.5488 12.4129,2.9855 21.5459,8.1117 27.399,15.3788 5.8528,7.2672 8.7793,16.4002 8.7794,27.399-.0002,8.9563-2.0821,17.009-6.2458,24.1582-4.164,7.1493-9.8599,12.8059-17.0876,16.9697-4.4783,2.5926-11.2347,4.4781-20.2693,5.6566-12.0203,1.5713-19.9945,2.3569-23.9226,2.3569h-92.1549v-172.7609zm53.8552,67.7609 23.2155,0c8.3276,.0001 14.1217-1.4337 17.3822-4.3013 3.2603-2.8674 4.8904-7.0117 4.8906-12.4327-.0001-5.0279-1.6303-8.9561-4.8906-11.7845-3.2605-2.8282-8.9367-4.2423-17.0286-4.2424h-23.569v32.7609zm0,67.8788 27.2222,0c9.1918,0 15.6733-1.6301 19.4445-4.8906 3.7709-3.2603 5.6564-7.6402 5.6566-13.1397-.0001-5.1066-1.866-9.2115-5.5976-12.3148-3.7319-3.1032-10.2723-4.6548-19.6212-4.6549h-27.1044v35z"/>
</svg>
