<svg xmlns="http://www.w3.org/2000/svg" viewBox="0 0 580 580">
<path fill="#111" stroke="#eee" stroke-width="3.408" d="m66.275,1.768c-41.335,0-64.571,21.371-64.571,65.036v450.123c0,40.844 20.894,62.229 62.192,62.229h452.024c41.307,0 62.229-20.316 62.229-62.229v-450.123c0-42.601-20.922-65.036-63.522-65.036-.003,0-448.494-.143-448.352,0z"/>
<g fill-rule="evenodd">
<g fill="none" stroke="#fff">
<g stroke-width="26">
<path d="m278.9129,461.9627a78.3806,78.3806 0 1,1 -156.7612,0 78.3806,78.3806 0 1,1 156.7612,0z" transform="matrix(-.98346 0 0 .98346 323.42176 -101.89163)"/>
<path d="m278.9129,461.9627a78.3806,78.3806 0 1,1 -156.7612,0 78.3806,78.3806 0 1,1 156.7612,0z" transform="matrix(-.98346 0 0 .98346 653.78261 -103.3933)"/>
</g>
<g>
<path stroke-linejoin="round" stroke-width="20.53" d="m395.5006,219.7851l-198.2164,1.0011-70.0765,130.1421h134.1465l140.153-95.1038"/>
</g>
</g>
<g fill="#fff">
<g>
<path stroke-linecap="round" stroke-width="25" d="m387.8839,141.791c10.7668,0 18.905-.2402 27.2467,12.5033 2.4011,4.2481 3.4989,9.4351 2.6123,14.5982-1.0636,5.871-4.5394,11.6392-8.637,15.0538-5.4259,4.5216-10.5752,4.1728-9.743,8.2375 1.0678,5.2155 4.3265,12.463 7.8481,24.2315 3.5747,11.9458 7.8194,26.5665 11.9859,40.9672 4.1666,14.4007 8.2566,28.5894 11.4942,39.6457 1.6188,5.5281 3.0326,10.2749 4.1183,13.8299 1.0578,3.4636 1.9917,6.154 1.9054,5.9622 3.3731,5.9347 3.8322,9.8017 9.4899,14.8529 6.3435,5.5518 11.5084,9.6531 13.3008,10.906 4.5528,3.3073 6.6694,10.2871 4.2652,13.7358-3.0299,4.7001-9.2874,5.421-13.8609,4.0149-4.3426-1.3785-11.2168-3.7464-19.188-10.3486l-.0615-.0922-.0922-.0615c-11.0915-9.5136-15.1948-21.0602-15.6124-21.7283l-.584-.8913-.3995-.9835c-.9611-2.3658-1.5368-4.4519-2.6738-8.175-1.137-3.7231-2.5784-8.5331-4.2105-14.1065-3.2641-11.1468-7.3334-25.357-11.4942-39.7379-4.1608-14.3809-8.3951-28.927-11.9244-40.7214-3.5293-11.7943-5.7591-21.4809-6.5833-23.5416-2.0061-5.0153-3.031-10.4298-1.6596-15.8583 1.3714-5.4285 5.4696-9.8097 9.1483-10.8282 8.3971-2.3492 6.169-8.3892 1.873-8.3979l-36.0005-.0733-.0887-22.9933c.0002-.0005 23.3678-.0005 37.5254-.0005z"/>
</g>
<g stroke="#fff">
<g>
<path stroke-width="24.586" d="m258.7857,346.8535l-67.9565-166.3517"/>
<path stroke-linecap="round" stroke-width="8.974" d="m282.147,304.3788l-41.0596,95.5676"/>
<path stroke-width="31.305" d="m278.9129,461.9627a78.3806,78.3806 0 1,1 -156.7612,0 78.3806,78.3806 0 1,1 156.7612,0z" transform="matrix(-.27729 0 0 .24491 316.20929 238.03626)"/>
</g>
<g stroke-linecap="round">
<path stroke-width="12.54" d="m300.4261,304.4224l-36.2699,.3325"/>
<path stroke-width="12.539" d="m259.5769,398.5736l-36.2699,.3325"/>
</g>
</g>
<g>
<path d="m157.5585,165.6358h85.2996c3.1855,0 7.2969,5.6349 3.1855,9.3794-4.4467,4.2321-44.4195,12.9188-44.4195,12.9188 0,0-10.9721,3.0085-16.8122,2.3006-5.84-.7079-26.0146-2.4776-27.2534-24.5988z"/>
</g>
</g>
</g>
</svg>
