<svg xmlns="http://www.w3.org/2000/svg" viewBox="0 0 580 580">
<path fill="#111" stroke="#eee" stroke-width="3.408" d="m66.275,1.768c-41.335,0-64.571,21.371-64.571,65.036v450.123c0,40.844 20.894,62.229 62.192,62.229h452.024c41.307,0 62.229-20.316 62.229-62.229v-450.123c0-42.601-20.922-65.036-63.522-65.036-.003,0-448.494-.143-448.352,0z"/>
<path opacity=".1" fill="#fff" fill-rule="evenodd" d="m116.5411,83.447 119.7119-21.3353 132.2871,13.7969 8.0439,363.3951 18.5884,29.065c0,0-60.3163,57.0371-152.8895,58.1749-92.5732,1.1378-145.8044-56.7902-145.8044-56.7902l23.4815-35.9513-3.419-350.355z"/>
<g fill="none" stroke="#fff" stroke-linejoin="round" stroke-linecap="round">
<g>
<path stroke-width="35" d="m236.0545,60.2239c-40.4687,.8912-80.2896,3.7007-119.2577,17.0247l4.5168,354.208-.3109,.003c-14.3828,9.2637-22.612,25.1485-22.5023,36.7416 .3089,32.6561 67.0306,58.5113 148.9927,57.7359 81.9621-.7754 148.1049-27.8875 147.796-60.5436-.0969-10.2462-6.7558-24.7977-18.3443-33.0909l-2.8953-2.0711 2.1555-355.4369c-47.5562-13.0056-94.2861-15.5806-140.1506-14.5706z"/>
<path stroke-width="24.869" d="m380.6961,125.5471 93.6528-3.9792c15.1917,2.8954 23.023,11.7942 23.6089,26.6026l-23.3058,194.3023c-.6488,14.1624-9.7557,20.0253-22.238,22.5759l-69.3786,7.7486"/>
<path stroke-width="22.058" d="m120.5437,427.0611c28.3031,37.6395 80.6054,47.8991 127.8172,46.3725 45.9211-1.4849 100.9568-11.1219 126.59-44.1202"/>
</g>
<g stroke-width="30">
<path d="m116.3379,427.8844c28.3031,37.6395 84.8112,47.8991 132.023,46.3725 45.9211-1.4849 102.9568-13.1219 128.59-46.1202"/>
<path d="m380.6961,134.3704 87.0353-3.9791c15.1917,2.8954 23.023,11.7942 23.6089,26.6026l-21.1,178.6557c-.6488,14.1624-9.7557,20.0253-22.238,22.5759l-64.967,7.9544"/>
</g>
</g>
<path opacity=".75" fill="#fff" d="m245.7426,64.7186c-85.4416,0-132.637,21.7868-132.637,26.8593 0,.2153 .1068,.4154 .3528,.6273h-.3528l-5.5538,108.3128h18.5834l-2.7062-76.4852c81.2341,56.3095 134.6429-7.6586 241.0596-2.1562l.067,78.6413h19.1816l-7.7204-114.9303h-.2352c.2452-.2119 .392-.4119 .392-.6273 0-5.0726-44.9887-20.2419-130.4312-20.2419h.0001z"/>
</svg>
