<svg xmlns="http://www.w3.org/2000/svg" viewBox="0 0 580 580">
<path fill="#111" stroke="#eee" stroke-width="3.408" d="m66.275,1.768c-41.335,0-64.571,21.371-64.571,65.036v450.123c0,40.844 20.895,62.229 62.192,62.229h452.024c41.307,0 62.229-20.315 62.229-62.229v-450.123c0-42.601-20.922-65.036-63.521-65.036-.004,0-448.495-.143-448.353,0z"/>
<g fill="#fff" stroke="#fff" stroke-width="5.2" transform="translate(9.47856 -37.59068)">
<path d="m235.146,477.418c0,14.09-11.422,25.512-25.512,25.512h-121.976c-14.09,0-25.512-11.422-25.512-25.512v-260.974c0-14.09 9.252-29.8519 25.512-25.512l115.061,37.7746c17.8874,5.9674 24.427,14.1344 24.427,28.2244l8,220.487z"/>
<path d="m522.145,477.418c0,14.09-11.422,25.512-25.512,25.512l-121.976,1c-14.09,0-25.512-11.422-25.512-25.512l14.488-186.975c0-14.09 11.422-25.512 25.512-25.512l105.488,7.487c14.09,0 25.512,11.422 25.512,25.512l2,178.488z"/>
</g>
</svg>
