<svg xmlns="http://www.w3.org/2000/svg" viewBox="0 0 580 580">
<path fill="#111" stroke="#eee" stroke-width="3.408" d="m66.275,1.768c-41.335,0-64.571,21.371-64.571,65.036v450.123c0,40.844 20.894,62.229 62.192,62.229h452.024c41.307,0 62.229-20.316 62.229-62.229v-450.123c0-42.601-20.922-65.036-63.522-65.036-.003,0-448.494-.143-448.352,0z"/>
<g fill="#fff" color="#000">
<path d="m290,109.625c-22.9932,.3499-45.7014,10.1549-61.7231,26.6509-16.0217,16.496-25.1602,39.4804-24.8394,62.4741v234.7812c19.3763,21.2283 155.6658,23.1263 175.7812,0v-234.7812c.3269-23.4363-9.1897-46.8548-25.772-63.4197-16.5823-16.5649-40.0108-26.0569-63.4467-25.7053z"/>
<path d="m293.0938,407.8229c-33.4334,.2909-69.7469-.3802-98.9688,7.6376-9.7303,2.7766-13.8038,7.512-13.9696,12.3919-.1801,5.3024 .5289,20.2707 .2331,33.0648 .7712,8.438 70.4703-14.4353 97.1725-13.4021 36.3568,.4565 126.1774,21.5576 125.7676,14.2955-.0107-11.6215 .084-22.6494-.0642-33.8535-.0396-2.9947-1.4438-5.9553-5.8581-8.4781-12.7479-8.049-37.4266-9.6534-58.4931-10.7746-15.1943-.7825-30.5269-.9552-45.8194-.8814z"/>
<path d="m293.0938,441.8229c-33.4334,.2909-69.7469-.3802-98.9688,7.6376-20.3198,5.7984-18.0969,20.9443 4.0625,25.4809 23.3986,6.3167 52.6713,5.5405 79.3735,6.5736 36.3568,.4565 74.4703,.1676 108.0015-6.3874 16.1147-4.3781 23.9573-14.7258 11.8438-21.6488-12.7479-8.049-37.4266-9.6534-58.4931-10.7746-15.1943-.7825-30.5269-.9552-45.8194-.8814z"/>
</g>
</svg>
