<svg xmlns="http://www.w3.org/2000/svg" viewBox="0 0 580 580">
<path fill="#111" stroke="#eee" stroke-width="3.408" d="m66.275,1.768c-41.335,0-64.571,21.371-64.571,65.036v450.123c0,40.844 20.895,62.229 62.192,62.229h452.024c41.307,0 62.229-20.315 62.229-62.229v-450.123c0-42.601-20.922-65.036-63.521-65.036-.004,0-448.495-.143-448.353,0z"/>
<g fill="#fff" stroke="#fff" fill-rule="evenodd" stroke-linejoin="round" stroke-linecap="round">
<g stroke-width="10">
<path d="m73.9314,159.8883l228.5015,259.4848 218.8193-125.8695-222.6921-257.5483-224.6287,123.933z"/>
<path d="m61.6534,188.6006l224.6285,255.6119 .9683,96.8226-226.565-256.0959 .9682-96.3386z"/>
</g>
<g stroke-width="16.477">
<path opacity=".75" d="m519.5093,327.137l-206.2494,120.8531-.1442,3.1853 206.0763-120.7665 .3174-3.2719z"/>
<path opacity=".75" d="m519.5093,367.137l-206.2494,120.8531-.1442,3.1853 206.0763-120.7665 .3174-3.2719z"/>
<path opacity=".75" d="m519.5093,407.137l-206.2494,120.8531-.1442,3.1853 206.0763-120.7666 .3174-3.2719z"/>
</g>
</g>
</svg>
