<svg xmlns="http://www.w3.org/2000/svg" viewBox="0 0 580 580">
<path fill="#111" stroke="#eee" stroke-width="3.408" d="m66.275,1.768c-41.335,0-64.571,21.371-64.571,65.036v450.123c0,40.844 20.895,62.229 62.192,62.229h452.024c41.307,0 62.229-20.315 62.229-62.229v-450.123c0-42.601-20.922-65.036-63.521-65.036-.004,0-448.495-.143-448.353,0z"/>
<g stroke="#fff" fill-rule="evenodd" stroke-linejoin="round" stroke-linecap="round">
<g fill="#fff">
<g>
<path stroke-width="18.031" d="m27.2427-248.9779l12.3059,20.1871 113.3151,44.7051-.9857-56.9823-111.5901-22.4652-13.0452,14.5553z"/>
</g>
<g transform="matrix(.82813 0 0 .82813 41.09248 2.12298)">
<path stroke-width="18.697" d="m264.7333,44.019h45.5721v499.0933h-45.0962l-.4759-499.0933z"/>
</g>
<g stroke-width="18.8" transform="matrix(.82813 0 0 .82813 41.09248 2.12298)">
<path d="m488.3321,219.3783l-30.1999,22.3796-177.6653-34.1768 1.085-49.6378 175.7665,22.7845 31.0136,38.6504z"/>
<path d="m75.406,253.8283l33.9056,19.2584 177.6652-56.9614 2.17-51.8077-179.0215,47.7391-34.7193,41.7717z"/>
</g>
<g stroke-width="18.031" transform="matrix(.82813 0 0 .82813 41.09248 2.12298)">
<path d="m437.1676,78.5844l-20.9857,36.1218-146.9494,39.6853-10.9491-50.4725 157.1592-40.8051 21.725,15.4703z"/>
<path d="m136.2335,85.4607l20.9857,36.1219 146.9494,39.6853 10.9491-50.4725-157.1592-40.8051-21.725,15.4703z"/>
</g>
</g>
<g stroke-width="19.515">
<path fill="none" d="m37.1495,370.7387c-.0857-1.0257 69.2247,24.1616 69.2247,24.1616l-43.5026,31.9449 55.8283,35.6595-54.2349,16.1395 55.7271,34.9024 52.3801-14.9452 13.3121,21.1212 54.4541,17.9026 92.4598-6.2833 57.5035-17.7402 70.888,8.2626 15.7233-15.8095 31.8597-4.176 34.077-28.2304-37.7022-52.7463-123.9823-46.803 127.6075-28.2304-55.8283-14.1152-95.7056,.7429-107.3063,9.6578-71.0542-2.2287-25.3765,12.6294c0,0-94.2031,15.2389-116.3525,18.184"/>
<path opacity=".2" fill="#fff" d="m37.1495,370.7387c-.0857-1.0257 69.2247,24.1616 69.2247,24.1616l-43.5026,31.9449 55.8283,35.6595-54.2349,16.1395 55.7271,34.9024 52.3801-14.9452 13.3121,21.1212 54.4541,17.9026 92.4598-6.2833 57.5035-17.7402 70.888,8.2626 15.7233-15.8095 31.8597-4.176 34.077-28.2304-37.7022-52.7463-123.9823-46.803 127.6075-28.2304-55.8283-14.1152-95.7056,.7429-107.3063,9.6578-71.0542-2.2287-25.3765,12.6294c0,0-94.2031,15.2389-116.3525,18.184"/>
</g>
</g>
</svg>
