<svg xmlns="http://www.w3.org/2000/svg" viewBox="0 0 580 580">
<path fill="#111" stroke="#eee" stroke-width="3.408" d="m66.275,1.768c-41.335,0-64.571,21.371-64.571,65.036v450.123c0,40.844 20.896,62.229 62.192,62.229h452.024c41.307,0 62.229-20.314 62.229-62.229v-450.123c0-42.601-20.922-65.036-63.521-65.036-.004,0-448.495-.143-448.353,0z"/>
<path fill="#fff" d="m290.625,34.5625c.6764,0 1.3791,.0259 2.0625,.0312 .6882-.0055 1.3815-.0312 2.0625-.0312h-4.125zm2.0625,.0312c-48.0248,.3805-113.0918,13.9028-140.25,25.2188-27.5474,11.4781-45.9178,22.9617-51.6562,51.6562l-20.6562,159.0938v219.1875h35.5938v34.375c0,41.9126 61.3125,41.9126 61.3125,0v-34.375h113.25 .3438 117.7188v34.375c0,41.9126 61.3438,41.9126 61.3438,0v-34.375h35.5938v-219.1875l-20.6562-159.0938c-5.7384-28.6946-24.1089-40.1782-51.6562-51.6562-27.1609-11.317-92.255-24.8408-140.2812-25.2188zm-87.4375,40.1562h85.375 89.5312c17.2177,0 17.2177,25.8125 0,25.8125h-89.7188-85.1875c-17.2177,0-17.2177-25.8125 0-25.8125zm-46.4375,51.9062h131.625 136.125c18.1877,0 22.9481,9.232 25.1562,23.25l16.0938,115.375c1.4993,11.0589-1.7211,22.0312-17,22.0312h-160.1875-156.0625c-15.2789,0-18.468-10.9723-16.9688-22.0312l16.0938-115.375c2.2082-14.018 6.9373-23.25 25.125-23.25zm-12.4062,235.5312c16.2477,0 29.4062,13.1898 29.4062,29.4375 0,16.2477-13.1585,29.4062-29.4062,29.4062-16.2477,0-29.4375-13.1585-29.4375-29.4062 0-16.2477 13.1898-29.4375 29.4375-29.4375zm292.5938,0c16.2477,0 29.4062,13.1898 29.4062,29.4375 0,16.2477-13.1585,29.4063-29.4062,29.4062-16.2477,0-29.4375-13.1585-29.4375-29.4062 0-16.2477 13.1898-29.4375 29.4375-29.4375z"/>
</svg>
