<svg xmlns="http://www.w3.org/2000/svg" viewBox="0 0 580 580">
<path fill="#111" stroke="#eee" stroke-width="3.408" d="m66.275,1.768c-41.335,0-64.571,21.371-64.571,65.036v450.123c0,40.844 20.896,62.229 62.192,62.229h452.024c41.307,0 62.229-20.314 62.229-62.229v-450.123c0-42.601-20.922-65.036-63.521-65.036-.004,0-448.495-.143-448.353,0z"/>
<g fill="#fff">
<path d="m289.075,74.9709c.5299,0 1.0804,.0203 1.6159,.0245 .5392-.0043 1.0824-.0245 1.6159-.0245h-3.2318zm1.6159,.0245c-37.6255,.2981-88.6028,10.8923-109.8802,19.7579-21.5822,8.9926-35.9748,17.9895-40.4706,40.4706l-16.1833,124.6435v171.7246h27.8863v26.9314c0,32.8369 48.0359,32.8368 48.0359,0v-26.9314h88.7268 .2693 92.2279v26.9314c0,32.8369 48.0604,32.8368 48.0604,0v-26.9314h27.8863v-171.7246l-16.1833-124.6435c-4.4958-22.481-18.8883-31.478-40.4706-40.4706-21.2794-8.8664-72.2781-19.4617-109.9047-19.7579zm-68.5037,31.4608h66.8879 70.1441c13.4894,0 13.4894,20.2231 0,20.2231h-70.291-66.741c-13.4894,0-13.4894-20.2231 0-20.2231zm-36.3819,40.6664h103.1229 106.6484c14.2493,0 17.9789,7.2329 19.7089,18.2154l12.6088,90.3917c1.1746,8.6642-1.3484,17.2606-13.3188,17.2606h-125.5004-122.2687c-11.9704,0-14.469-8.5964-13.2943-17.2606l12.6088-90.3917c1.73-10.9825 5.4351-18.2154 19.6844-18.2154zm-9.7198,184.5292c12.7294,0 23.0386,10.3336 23.0386,23.0631 0,12.7294-10.3092,23.0386-23.0386,23.0386-12.7294,0-23.0631-10.3092-23.0631-23.0386 0-12.7294 10.3336-23.0631 23.0631-23.0631zm229.2354,0c12.7294,0 23.0386,10.3337 23.0386,23.0631 0,12.7294-10.3092,23.0386-23.0386,23.0386-12.7294,0-23.0631-10.3092-23.0631-23.0386 0-12.7294 10.3337-23.0631 23.0631-23.0631z"/>
<path opacity=".1" stroke="#fff" stroke-width="25.138" d="m505.7143,305.7143a288.5714,288.5714 0 1,1 -577.1429,0 288.5714,288.5714 0 1,1 577.1429,0z" transform="matrix(.94694 0 0 .94694 84.84388 .50623)"/>
</g>
<path fill="none" stroke="#fff" stroke-width="25.138" d="m505.7143,305.7143a288.5714,288.5714 0 1,1 -577.1429,0 288.5714,288.5714 0 1,1 577.1429,0z" transform="matrix(.94694 0 0 .94694 84.84388 .50623)"/>
</svg>
