<svg xmlns="http://www.w3.org/2000/svg" viewBox="0 0 580 580">
<path fill="#111" stroke="#eee" stroke-width="3.408" d="m66.275,1.768c-41.335,0-64.571,21.371-64.571,65.036v450.123c0,40.844 20.896,62.229 62.192,62.229h452.024c41.307,0 62.229-20.314 62.229-62.229v-450.123c0-42.601-20.922-65.036-63.521-65.036-.004,0-448.495-.143-448.353,0z"/>
<path fill="#fff" d="m295.6334,53.0003c.3232,0 .6591,.0124 .9857,.0149 .3289-.0026 .6602-.0149 .9857-.0149h-1.9714zm.9857,.0149c-22.9514,.1818-54.0473,6.6443-67.0264,12.0522-13.1651,5.4855-21.9444,10.9735-24.6869,24.6869l-9.8718,76.032v104.7512h17.0105v16.428c0,20.0303 29.3017,20.0303 29.3017,0v-16.428h54.123 .1643 56.2586v16.428c0,20.0303 29.3166,20.0303 29.3166,0v-16.428h17.0105v-104.7512l-9.8718-76.032c-2.7425-13.7133-11.5218-19.2014-24.6869-24.6869-12.9804-5.4085-44.0893-11.8716-67.0414-12.0522zm-41.787,19.1909h40.8013 42.7876c8.2285,0 8.2285,12.336 0,12.336h-42.8772-40.7117c-8.2285,0-8.2285-12.336 0-12.336zm-18.1928,24.8063h58.9045 59.0551c8.692,0 10.967,4.4121 12.0223,11.1113l7.6913,55.1385c.7165,5.2852-.8225,10.5289-8.1244,10.5289h-70.5547-70.5833c-7.3019,0-8.826-5.2437-8.1095-10.5289l7.6913-55.1385c1.0553-6.6993 3.3154-11.1113 12.0074-11.1113zm-9.929,110.562c7.7649,0 16.0534,8.3035 16.0534,16.0684 0,7.7649-8.2886,16.0534-16.0534,16.0534-7.7649,0-16.0684-8.2885-16.0684-16.0534 0-7.7649 8.3035-16.0684 16.0684-16.0684zm139.8325,0c7.7649,0 16.0534,8.3035 16.0535,16.0684 0,7.7649-8.2885,16.0535-16.0535,16.0534-7.7649,0-16.0684-8.2885-16.0684-16.0534 0-7.7649 8.3035-16.0684 16.0684-16.0684z"/>
<g fill="none" stroke="#fff">
<g>
<path stroke-linejoin="round" stroke-linecap="round" stroke-width="15" d="m166.688,15.5495h255.227a20.0878,20.0878 0 0,1 20.088,20.0878v282.8627a20.0878,20.0878 0 0,1 -20.088,20.088h-255.227a20.0878,20.0878 0 0,1 -20.087-20.088v-282.8627a20.0878,20.0878 0 0,1 20.087-20.0878"/>
</g>
<g fill-rule="evenodd">
<path stroke-width="28.799" d="m294.6032,339.1997v224.7541"/>
<path stroke-linejoin="round" stroke-linecap="round" stroke-width="30" d="m383.5847,551.291h-181.0318"/>
</g>
</g>
</svg>
