<svg xmlns="http://www.w3.org/2000/svg" viewBox="0 0 580 580">
<defs/>
<path fill="#111" stroke="#eee" stroke-width="3.408" d="m66.275,1.768c-41.335,0-64.571,21.371-64.571,65.036v450.123c0,40.844 20.894,62.229 62.192,62.229h452.024c41.307,0 62.229-20.316 62.229-62.229v-450.123c0-42.601-20.922-65.036-63.522-65.036-.003,0-448.494-.143-448.352,0z"/>
<g fill="#fff" fill-rule="evenodd" transform="matrix(32.1128 0 0 32.1128 41.50013 -33245.965)">
<path d="m6.7916,1048.0368c0,0-1.3363-1.567-2.7257-3.8465-1.1024-1.8085-2.122-4.1906-2.2154-4.4437 .7526-.5472 4.5931-2.2768 5.3718-2.4463 .2264,.8747 .5809,2.5876 1.3298,4.2517 .7737,1.7193 1.7051,3.0597 2.0518,3.5127-.8296,.7825-3.8123,2.9721-3.8123,2.9721zm2.617-.9585c.0966,.8013 2.7968,4.527 3.7098,5.2027 .3524,.2608 .5988,.048 1.1973-.3748 .5985-.4231 .8238-.7834 .6057-1.2928-.4477-1.0456-2.4059-4.7995-3.3253-5.4011-.8846-1.2876-1.6258-2.2611-2.3547-4.0463-.7542-1.847-1.2355-3.7233-1.5241-4.8256-1.0267,.2979-2.7269,1.0185-3.7729,1.5009-1.1654,.5374-1.9991,1.0621-2.9252,1.5588 .2929,.8518 .9933,2.9498 2.4561,5.2163 1.1558,1.7909 2.1274,3.2168 3.2232,4.3016l2.7102-1.8397zm-4.0605-7.4527c0-.4143 .3547-.7504 .7923-.7504 .4375,0 .7923,.3361 .7923,.7504 0,.4146-.3547,.7507-.7923,.7507-.4375,0-.7923-.3361-.7923-.7507z"/>
<path d="m6.7916,1048.0368c0,0-1.3363-1.567-2.7257-3.8465-1.1024-1.8085-2.122-4.1906-2.2154-4.4437 .7526-.5472 4.5931-2.2768 5.3718-2.4463 .2264,.8747 .5809,2.5876 1.3298,4.2517 .7737,1.7193 1.7051,3.0597 2.0518,3.5127-.8296,.7825-3.8123,2.9721-3.8123,2.9721zm2.617-.9585c.0966,.8013 2.7968,4.527 3.7098,5.2027 .3524,.2608 .5988,.048 1.1973-.3748 .5985-.4231 .8238-.7834 .6057-1.2928-.4477-1.0456-2.4059-4.7995-3.3253-5.4011-.8846-1.2876-1.6258-2.2611-2.3547-4.0463-.7542-1.847-1.2355-3.7233-1.5241-4.8256-1.0267,.2979-2.7269,1.0185-3.7729,1.5009-1.1654,.5374-1.9991,1.0621-2.9252,1.5588 .2929,.8518 .9933,2.9498 2.4561,5.2163 1.1558,1.7909 2.1274,3.2168 3.2232,4.3016l2.7102-1.8397zm-4.0605-7.4527c0-.4143 .3547-.7504 .7923-.7504 .4375,0 .7923,.3361 .7923,.7504 0,.4146-.3547,.7507-.7923,.7507-.4375,0-.7923-.3361-.7923-.7507z"/>
<path d="m6.7916,1048.0368c0,0-1.3363-1.567-2.7257-3.8465-1.1024-1.8085-2.122-4.1906-2.2154-4.4437 .7526-.5472 4.5931-2.2768 5.3718-2.4463 .2264,.8747 .5809,2.5876 1.3298,4.2517 .7737,1.7193 1.7051,3.0597 2.0518,3.5127-.8296,.7825-3.8123,2.9721-3.8123,2.9721zm2.617-.9585c.0966,.8013 2.7968,4.527 3.7098,5.2027 .3524,.2608 .5988,.048 1.1973-.3748 .5985-.4231 .8238-.7834 .6057-1.2928-.4477-1.0456-2.4059-4.7995-3.3253-5.4011-.8846-1.2876-1.6258-2.2611-2.3547-4.0463-.7542-1.847-1.2355-3.7233-1.5241-4.8256-1.0267,.2979-2.7269,1.0185-3.7729,1.5009-1.1654,.5374-1.9991,1.0621-2.9252,1.5588 .2929,.8518 .9933,2.9498 2.4561,5.2163 1.1558,1.7909 2.1274,3.2168 3.2232,4.3016l2.7102-1.8397zm-4.0605-7.4527c0-.4143 .3547-.7504 .7923-.7504 .4375,0 .7923,.3361 .7923,.7504 0,.4146-.3547,.7507-.7923,.7507-.4375,0-.7923-.3361-.7923-.7507z"/>
<path opacity=".1" d="m9.4086,1047.0783c.0966,.8013 2.7968,4.527 3.7098,5.2027 .3524,.2608 .5988,.048 1.1973-.3748 .5985-.4231 .8238-.7834 .6057-1.2928-.4477-1.0456-2.4059-4.7995-3.3253-5.4011-.8846-1.2876-1.6258-2.2611-2.3547-4.0463-.7542-1.847-1.2355-3.7233-1.5241-4.8256-1.0267,.2979-2.7269,1.0185-3.7729,1.5009-1.1654,.5374-1.9991,1.0621-2.9252,1.5588 .2929,.8518 .9933,2.9498 2.4561,5.2163 1.1558,1.7909 2.1274,3.2168 3.2232,4.3016z"/>
</g>
</svg>
