<svg xmlns="http://www.w3.org/2000/svg" viewBox="0 0 580 580">
<path fill="#111" stroke="#eee" stroke-width="3.408" d="m66.275,1.768c-41.335,0-64.571,21.371-64.571,65.036v450.123c0,40.844 20.895,62.229 62.192,62.229h452.024c41.307,0 62.229-20.315 62.229-62.229v-450.123c0-42.601-20.922-65.036-63.521-65.036-.004,0-448.495-.143-448.353,0z"/>
<g stroke="#fff" fill-rule="evenodd">
<path fill="#fff" stroke-linejoin="round" stroke-linecap="round" stroke-width="18.622" d="m85.4372,125.0568c0,0-44.0184,338.296 148.9207,337.5595 4.7082,.259 9.1851,.3332 13.443,.2619 4.2579,.0713 8.7348-.0029 13.443-.2619 192.9391,.7365 148.9207-337.5595 148.9207-337.5595l-162.3638,.6692-162.3638-.6692z"/>
<path fill="none" stroke-width="45.627" d="m387.1469,197.0102c0,0 44.9561-34.0191 80.4998-34.0191 35.5439,0 51.8436,55.3799 51.0875,92.5635-.7563,37.1836-27.9813,128.1651-160.3249,129.7473-132.3434,1.5823 29.4938-188.2917 28.7376-188.2917z"/>
</g>
</svg>
