<svg xmlns="http://www.w3.org/2000/svg" viewBox="0 0 580 580">
<path fill="#111" stroke="#eee" stroke-width="3.408" d="m66.275,1.768c-41.335,0-64.571,21.371-64.571,65.036v450.123c0,40.844 20.895,62.229 62.192,62.229h452.024c41.307,0 62.229-20.315 62.229-62.229v-450.123c0-42.601-20.922-65.036-63.521-65.036-.004,0-448.495-.143-448.353,0z"/>
<g stroke="#fff" fill-rule="evenodd" stroke-width="26.28">
<g>
<path fill="none" d="m288.272,138.471c-1.5097,8.3294-195.4467,368.7224-195.4467,368.7224l390.3482-.6466-194.9015-368.0757z"/>
</g>
<g fill="#fff">
<path d="m288.272,162.5808c-.7394,4.0794-12.7698,24.6814 12.8325,114.5492 26.6731,93.6266 98.2719,230.0633 98.2719,230.0633l83.7971-.6466-194.9015-343.9659z"/>
<path d="m291.6525,162.5808c.7394,4.0794 12.7698,24.6814-12.8325,114.5492-26.6731,93.6266-98.2719,230.0633-98.2719,230.0633l-83.7971-.6466 194.9015-343.9659z"/>
</g>
<g fill="none">
<path d="m249.6962,63.7305l233.4773,442.8162-233.4773-442.8162z"/>
<path d="m328.5144,66.1415l-233.1212,440.4052 233.1212-440.4052z"/>
</g>
</g>
</svg>
