<svg xmlns="http://www.w3.org/2000/svg" viewBox="0 0 580 580">
<path fill="#111" stroke="#eee" stroke-width="3.408" d="m66.275,1.768c-41.335,0-64.571,21.371-64.571,65.036v450.123c0,40.844 20.894,62.229 62.192,62.229h452.024c41.307,0 62.229-20.316 62.229-62.229v-450.123c0-42.601-20.922-65.036-63.522-65.036-.003,0-448.494-.143-448.352,0z"/>
<path fill="#fff" d="m183.4846,89.6087c-31.7295,0-48.5613,17.3222-56.3319,37.5986l-41.2485,106.5073c-16.3516,2.0967-45.3382,21.2905-45.3382,57.6511v135.4428h40.1491v43.3153c0,53.2906 75.417,52.6629 75.417,0v-43.3153h135.6627 .0441 135.6626v43.3153c0,52.6629 75.4166,53.2906 75.4171,0v-43.3153h40.1491v-135.4428c0-36.3606-28.9863-55.5544-45.3382-57.6511l-41.2924-106.5073c-7.7706-20.2763-24.6022-37.5986-56.332-37.5986h-58.3106-99.2955-59.0143zm-.4837,38.7859h108.706 .0879 .0441 108.7499c13.5977,.1266 19.4214,8.6303 23.3067,20.4043l31.0902,83.8162h-163.1468-.0441-.0879-163.103l31.0903-83.8162c3.8853-11.774 9.7075-20.2777 23.3067-20.4043zm-63.3679,144.9853c19.2406,0 34.8281,16.0533 34.8281,35.8835 0,19.8317-15.5875,35.9275-34.8281,35.9275-19.2392,0-34.8282-16.0959-34.8282-35.9275 0-19.8302 15.5889-35.8835 34.8282-35.8835zm344.3677,0c19.2406,0 34.8283,16.0533 34.8281,35.8835 0,19.8316-15.5875,35.9275-34.8281,35.9275-19.2392,0-34.8722-16.0959-34.8722-35.9275 0-19.8302 15.633-35.8835 34.8722-35.8835z"/>
</svg>
