<svg xmlns="http://www.w3.org/2000/svg" viewBox="0 0 580 580" xmlns:xlink="http://www.w3.org/1999/xlink">
<defs>
<clipPath id="clipoutline1" clipPathUnits="userSpaceOnUse">
<path id="outline1" d="m22.42,17.2l12.96,12.95-2.5,8.78-8.78,2.5-12.96-12.96-5.86,5.86 14.89,21.46 17.56-3.34 61.63,65.62c9.44,9.51 22.17-4.75 13.34-12.87l-65.85-62.28 4.01-17.76-22.14-14.27-6.3,6.31zm81.06,91.97c1.68-1.68 4.4-1.68 6.08,0 1.68,1.68 1.68,4.4 0,6.08-1.68,1.67-4.4,1.67-6.08,0-1.68-1.68-1.68-4.4 0-6.08z"/>
</clipPath>
</defs>
<path fill="#111" stroke="#eee" stroke-width="3.408" d="m66.275,1.768c-41.335,0-64.571,21.371-64.571,65.036v450.123c0,40.844 20.894,62.229 62.192,62.229h452.024c41.307,0 62.229-20.316 62.229-62.229v-450.123c0-42.601-20.922-65.036-63.522-65.036-.003,0-448.494-.143-448.352,0z"/>
<g fill="#fff">
<g>
<path d="m141.1497,158.3623c-21.3475,0-32.6718,11.6543-37.8998,25.2961l-27.7518,71.6575c-11.0013,1.4107-30.5033,14.3242-30.5033,38.7874v91.1252h27.0121v29.1423c0,35.8536 50.7402,35.4314 50.7402,0v-29.1423h91.2732 .0296 91.2731v29.1423c0,35.4314 50.7399,35.8536 50.7402,0v-29.1423h27.0121v-91.1252c0-24.4632-19.5018-37.3767-30.5033-38.7874l-27.7813-71.6575c-5.228-13.6418-16.5522-25.2961-37.8998-25.2961h-39.2311-66.8055-39.7045zm-.3254,26.0949h73.1369 .0592 .0296 73.1664c9.1485,.0852 13.0666,5.8064 15.6806,13.7279l20.9173,56.3911h-109.7644-.0296-.0592-109.7349l20.9174-56.3911c2.614-7.9215 6.5312-13.6428 15.6806-13.7279zm-42.6336,97.5454c12.945,0 23.4322,10.8006 23.4322,24.1423 0,13.3426-10.4872,24.1719-23.4322,24.1719-12.944,0-23.4322-10.8292-23.4322-24.1719 0-13.3417 10.4882-24.1423 23.4322-24.1423zm231.6888,0c12.945,0 23.4323,10.8006 23.4322,24.1423 0,13.3426-10.4872,24.1719-23.4322,24.1719-12.944,0-23.4618-10.8292-23.4618-24.1719 0-13.3417 10.5178-24.1423 23.4618-24.1423z"/>
</g>
<g stroke="#fff" stroke-linejoin="round" stroke-linecap="round" stroke-width="2.347" transform="matrix(-1.91773 -1.98825 1.98825 -1.91773 460.24478 551.21965)">
<use width="580" height="580" xlink:href="#outline1"/>
<use width="580" height="580" xlink:href="#outline1"/>
<use width="580" height="580" xlink:href="#outline1"/>
<use width="580" height="580" xlink:href="#outline1" clip-path="url(#clipoutline1)"/>
<path d="m24.33,15.4l13.45,13.38-3.33,11.69-10.95,3.27-13.5681-13.74-4.7319,4.54 14.2,19.94 18.9-4.14 62.5,66.36c7.5,8.3 20.2-2.67 11.14-11.6l-66.9-63.1 3.86-17.17-19.96-14.03-4.61,4.6zm79.97,93.3c1.67-1.67 4.63-2 6.3-.3 1.7,1.67 3.06,4.63 .65,7.84-2,2-5.2,1.92-7.2-.24-1.68-1.68-1.45-5.6 .25-7.3z"/>
<path d="m24.2,15.42l23.47,23.65 3.22-13.87-22.1-14.4-4.59,4.62z"/>
</g>
</g>
</svg>
