<svg xmlns="http://www.w3.org/2000/svg" viewBox="0 0 580 580">
<path fill="#111" stroke="#eee" stroke-width="3.408" d="m66.275,1.768c-41.335,0-64.571,21.371-64.571,65.036v450.123c0,40.844 20.895,62.229 62.192,62.229h452.024c41.307,0 62.229-20.315 62.229-62.229v-450.123c0-42.601-20.922-65.036-63.521-65.036-.004,0-448.495-.143-448.353,0z"/>
<path fill="#fff" line-height="125%" d="m-8.7427-60.9885c0,.7731-.3732,1.1597-1.1194,1.1597h-3.96c-.7471,0-1.1206-.3865-1.1206-1.1597v-1.8799c0-.7471 .3735-1.1206 1.1206-1.1206h3.96c.7462,0 1.1194,.3736 1.1194,1.1206v1.8799zm-11.2793,.0403c0,.7463-.387,1.1194-1.1609,1.1194h-8.5596c-.7471,0-1.1206-.3731-1.1206-1.1194v-1.9202c0-.7471 .3735-1.1206 1.1206-1.1206h8.5596c.7739,0 1.1609,.3736 1.1609,1.1206v1.9202zm17.5598,9.0002h-2.8809v-10c0-1.547-.54-2.8538-1.6199-3.9203-1.0799-1.0665-2.38-1.5997-3.9001-1.5997h-18.7195c-1.547,0-2.8538,.5333-3.9203,1.5997-1.0665,1.0665-1.5997,2.3733-1.5997,3.9203v7.0801c0,1.1198 .4,2.0797 1.2,2.8796 .8,.8 1.7598,1.2 2.8796,1.2h6.4404c.0797-1.1466 .533-2.1199 1.3599-2.9199 .8268-.8 1.827-1.1999 3.0005-1.2 1.1466,0 2.1399,.4 2.9797,1.2 .8398,.8 1.2866,1.7599 1.3403,2.8796h14.5593c0-.7463-.3732-1.1194-1.1194-1.1194zm-17.76,2.7991c-.3736,0-.6936-.1333-.9601-.3998-.2665-.2665-.3998-.5865-.3998-.9601 0-.3996 .1332-.7261 .3998-.9796 .2665-.2535 .5865-.3802 .9601-.3802 .3727,0 .6925,.1268 .9595,.3802 .2669,.2535 .4004,.58 .4004,.9796 0,.3735-.1335,.6936-.4004,.9601-.2669,.2665-.5868,.3998-.9595,.3998zm0-4.519c-.8806,0-1.6274,.3066-2.2406,.9198-.6132,.6132-.9198,1.3597-.9198,2.2394 0,.8537 .3066,1.5871 .9198,2.2003 .6132,.6132 1.36,.9198 2.2406,.9198 .8528,0 1.5861-.3066 2.1997-.9198 .6136-.6132 .9204-1.3466 .9204-2.2003 0-.8797-.3068-1.6262-.9204-2.2394-.6136-.6132-1.3469-.9198-2.1997-.9198z" transform="matrix(14.68584 0 0 14.68584 565.76584 1146.0639)"/>
</svg>
