<svg xmlns="http://www.w3.org/2000/svg" viewBox="0 0 580 580">
<path fill="#111" stroke="#eee" stroke-width="3.408" d="m66.275,1.768c-41.335,0-64.571,21.371-64.571,65.036v450.123c0,40.844 20.894,62.229 62.192,62.229h452.024c41.307,0 62.229-20.316 62.229-62.229v-450.123c0-42.601-20.922-65.036-63.522-65.036-.003,0-448.494-.143-448.352,0z"/>
<g fill="#fff" stroke="#fff" fill-rule="evenodd" stroke-linejoin="round" stroke-linecap="round" stroke-width="17.886">
<path d="m87.5368,153.58c61.1,47.0099 122.2,94.0197 183.3001,141.0296 75.7142-40.0579 151.4284-80.1159 227.1425-120.1738-60.9486-45.9851-121.8973-91.9703-182.8459-137.9554-75.8656,39.0332-151.7311,78.0664-227.5967,117.0996zm208.5226-31.1963c18.6816-.912 39.6664,8.2789 45.9735,27.109 6.8404,18.1799-8.0709,36.7661-24.9081,42.3403-21.0971,7.5608-49.1871,4.4035-62.2529-15.7204-9.4564-12.7769-5.6323-31.3623 6.1484-41.2224 9.5189-8.4248 22.4537-12.3562 35.0391-12.5065z"/>
<path d="m75.9735,184.2174c3.0413,69.5041 3.5092,139.0943 6.7074,208.5925 57.1145,50.3464 115.9688,98.6364 173.1691,148.9597-.64-74.0956-1.2805-148.1911-1.9214-222.2867-59.3417-45.6591-118.6833-91.3182-178.025-136.9772l.0456,1.117 .0243,.5948zm42.0958,59.1088c20.9809,.2988 35.6381,19.8597 40.1395,38.7421 6.4221,17.3304-3.3668,41.6267-23.2662,43.7726-22.0165,.9384-38.3718-19.7317-42.0958-39.7203-6.4219-17.643 4.9526-42.0587 25.2225-42.7945zm72.8729,155.1081c21.2091,.0227 35.6123,19.9867 40.2792,38.812 6.2637,17.006-2.8763,40.332-21.9736,43.4582-20.7933,2.3028-37.0102-16.4327-42.4082-34.7741-6.4594-15.996-1.6162-37.4387 14.7752-45.2603 2.8969-1.4383 6.1197-2.0544 9.3274-2.2358z"/>
<path d="m285.2297,321.6837c.6405,73.5599 1.2809,147.1198 1.9214,220.6797 73.9209-43.0856 147.8418-86.1712 221.7627-129.2568 .8734-70.4042 1.7467-140.8084 2.6201-211.2125-75.4347,39.9299-150.8694,79.8597-226.3041,119.7896zm195.1428-79.161c15.7322-.5497 27.9751,14.9727 26.4452,30.1133-.7646,21.5087-17.2686,40.5465-36.9604,47.5455-15.4184,4.4878-35.2338-5.8127-35.598-23.0566-2.6179-26.523 19.6265-52.6071 46.1132-54.6023zm-63.7201,92.6107c15.2997-.5435 27.3944,14.3927 26.2706,29.205-.2238,21.4511-16.3894,40.9284-36.0172,48.2442-15.6142,4.951-36.1877-5.2771-36.5063-23.0217-2.5658-26.4774 19.772-52.4838 46.253-54.4276zm-64.6284,89.816c15.1597,.0022 26.7591,14.734 25.6767,29.3797-.3317,21.6678-16.8705,41.1116-36.681,48.2093-15.4796,4.6253-35.373-5.4985-35.8426-22.8819-2.7913-26.7398 20.0682-53.2799 46.8468-54.7071z"/>
</g>
</svg>
