<svg xmlns="http://www.w3.org/2000/svg" viewBox="0 0 580 580">
<path fill="#111" stroke="#eee" stroke-width="3.408" d="m66.275,1.768c-41.335,0-64.571,21.371-64.571,65.036v450.123c0,40.844 20.895,62.229 62.192,62.229h452.024c41.307,0 62.229-20.315 62.229-62.229v-450.123c0-42.601-20.922-65.036-63.521-65.036-.004,0-448.495-.143-448.353,0z"/>
<g fill="#fff">
<g>
<path fill-rule="evenodd" d="m206.8283,474.9083h-110.8745l54.9166,59.8358 55.9579-59.8358z"/>
</g>
<g stroke="#fff" stroke-linecap="square">
<g stroke-width="18.411">
<path d="m84.4715,113.207h413.8865v20.556h-413.8865z"/>
<path d="m84.4715,237.207h413.8865v20.556h-413.8865z"/>
<path d="m84.4715,361.207h413.8865v20.556h-413.8865z"/>
</g>
<g stroke-width="18.75">
<path d="m56.5544-161.406h429.7456v20.532h-429.7456z" transform="rotate(90)"/>
<path d="m55.6043-300.661h429.7457v20.533h-429.7457z" transform="rotate(90)"/>
<path d="m54.4778-439.276h429.7452v20.532h-429.7452z" transform="rotate(90)"/>
</g>
</g>
<g fill-rule="evenodd">
<path d="m346.5892,475.7937h-110.8745l54.9166,59.8358 55.9579-59.8358z"/>
<path d="m486.5892,475.7937h-110.8745l54.9166,59.8358 55.9579-59.8358z"/>
</g>
</g>
</svg>
