<svg xmlns="http://www.w3.org/2000/svg" viewBox="0 0 580 580">
<path fill="#111" stroke="#eee" stroke-width="3.408" d="m66.275,1.768c-41.335,0-64.571,21.371-64.571,65.036v450.123c0,40.844 20.894,62.229 62.192,62.229h452.024c41.307,0 62.229-20.316 62.229-62.229v-450.123c0-42.601-20.922-65.036-63.522-65.036-.003,0-448.494-.143-448.352,0z"/>
<g fill="#fff">
<path d="m34.703,408.1344c2.3672-5.4809 32.4049-47.8754 66.7503-94.2099 49.2553-66.4489 74.6141-89.4789 120.0496-109.0248 71.1255-30.5974 142.3287-32.3552 168.26-4.154 61.3356,66.7046 124.6305,142.8785 142.8581,171.9263 25.686,40.9337 12.6017,60.0741-14.5098,21.226-10.6876-15.3143-40.6476-51.8847-66.5778-81.2679-111.0937-125.8872-111.433-126.0168-214.6254-82.0562-50.7187,21.6066-70.4304,39.4865-113.2979,102.7695-28.543,42.1366-61.1923,78.4446-72.5538,80.6842-11.3615,2.2398-18.7204-.4125-16.3533-5.8932z"/>
<path opacity=".1" d="m34.703,408.1344c2.3672-5.4809 32.4049-47.8754 66.7503-94.2099 49.2553-66.4489 74.6141-89.4789 120.0496-109.0248 71.1255-30.5974 142.3287-32.3552 168.26-4.154 61.3356,66.7046 124.6305,142.8785 142.8581,171.9263 34.4021,55.715-22.6899,62.2323-174.0877,65.9581-80.6145,2.3128-85.2418,.8736-168.9232,1.7133-39.0736-1.1224-156.3614-19.7405-154.9071-32.209z"/>
<path d="m150.9785,415.181c0-32.3671 90.1917-134.7695 118.6994-134.7695 45.606,0 92.8472,28.2882 127.2556,76.2011 20.3061,28.2757 36.9202,54.5212 36.9202,58.3234 0,3.8021-63.6469,6.913-141.4376,6.913-77.7906,0-141.4376-3.0006-141.4376-6.6681z"/>
</g>
</svg>
