<svg xmlns="http://www.w3.org/2000/svg" viewBox="0 0 580 580">
<path fill="#111" stroke="#eee" stroke-width="3.408" d="m66.275,1.768c-41.335,0-64.571,21.371-64.571,65.036v450.123c0,40.844 20.895,62.229 62.192,62.229h452.024c41.307,0 62.229-20.315 62.229-62.229v-450.123c0-42.601-20.922-65.036-63.521-65.036-.004,0-448.495-.143-448.353,0z"/>
<g opacity=".5" transform="matrix(3.28225 0 0 3.28225 -751.11276 -1010.2429)">
<path fill="none" stroke="#fff" stroke-width="5" d="m348.7821,372.6028c-6.8874,14.6027-13.7873,29.1995-20.7188,43.7812-3.8397-5.2995-7.7045-10.5806-11.5938-15.8438-11.9185,19.0757-23.7213,38.2236-35.7188,57.25 37.4375,.3175 74.8751,.6148 112.3125,.9375-14.1063-30.0131-28.2963-59.9868-42.4688-89.9688-.6042,1.2812-1.2083,2.5625-1.8125,3.8438z"/>
<path fill="#fff" line-height="normal" color="#000" d="m350.5938,362.9062-2.25,4.7812-1.8125,3.8438c-6.2925,13.3413-12.6104,26.6771-18.9375,40-3.0311-4.1657-6.0634-8.3256-9.125-12.4688l-2.1875-2.9688-1.9375,3.125c-11.9239,19.0843-23.7304,38.238-35.7188,57.25l-2.375,3.7812 4.4688,.0312c37.4384,.3175 74.8762,.6148 112.3125,.9375l4,.0312-1.7188-3.5938c-14.1083-30.0171-28.2967-59.9876-42.4688-89.9687l-2.25-4.7812zm0,42.3438c.7572,.002 1.505,.3703 1.9688,.9688 2.2361,2.8166 4.4125,5.1193 5.2812,5.4688 .4344,.1748 .3283,.2028 .7812-.0937 .4529-.2966 1.3675-1.2551 2.375-3.2188 .4248-.8177 1.3286-1.3567 2.25-1.3438 .9214,.0129 1.817,.577 2.2188,1.4062l20.375,43.125c.7425,1.5264-.584,3.616-2.2812,3.5938l-92.0625-.7813c-.8791-.0121-1.7331-.5107-2.1562-1.2812-.4232-.7706-.399-1.783 .0625-2.5312l18.125-29.0938c.7864-1.2688 2.8087-1.5135 3.875-.4688 1.6156,1.6018 3.0144,2.4496 4.6875,2.5625 1.6731,.1129 4.0172-.5138 7.4688-3.0625 1.0586-.7982 2.7544-.543 3.5312,.5312l1.5938,2.1875 6.5625-13.875c.3838-.8387 1.2658-1.4366 2.1875-1.4688 .9217-.0322 1.8398,.5027 2.2812,1.3125 .6494,1.1785 1.2964,1.8353 1.7812,2.125 .4849,.2896 .7982,.3414 1.375,.2188 1.1537-.2454 3.3784-1.8264 5.6875-5.1875 .4495-.6609 1.2321-1.0822 2.0312-1.0938z"/>
</g>
<path fill="#fff" stroke="#fff" fill-rule="evenodd" stroke-width=".852" d="m184.5711,66.1765-162.4436,140.3758h32.4885v210.5636h97.4664v-107.0063h67.2051l.0002,107.0063h95.2385v-210.5636h32.4887l-162.4438-140.3758z"/>
<g opacity=".25" transform="matrix(3.28225 0 0 3.28225 -751.11276 -1010.2429)">
<path fill="none" stroke="#fff" stroke-width="5" d="m348.7821,372.6028c-6.8874,14.6027-13.7873,29.1995-20.7188,43.7812-3.8397-5.2995-7.7045-10.5806-11.5938-15.8438-11.9185,19.0757-23.7213,38.2236-35.7188,57.25 37.4375,.3175 74.8751,.6148 112.3125,.9375-14.1063-30.0131-28.2963-59.9868-42.4688-89.9688-.6042,1.2812-1.2083,2.5625-1.8125,3.8438z"/>
<path fill="#fff" line-height="normal" color="#000" d="m350.5938,362.9062-2.25,4.7812-1.8125,3.8438c-6.2925,13.3413-12.6104,26.6771-18.9375,40-3.0311-4.1657-6.0634-8.3256-9.125-12.4688l-2.1875-2.9688-1.9375,3.125c-11.9239,19.0843-23.7304,38.238-35.7188,57.25l-2.375,3.7812 4.4688,.0312c37.4384,.3175 74.8762,.6148 112.3125,.9375l4,.0312-1.7188-3.5938c-14.1083-30.0171-28.2967-59.9876-42.4688-89.9687l-2.25-4.7812z"/>
</g>
</svg>
