<svg xmlns="http://www.w3.org/2000/svg" viewBox="0 0 580 580">
<path fill="#111" stroke="#eee" stroke-width="3.408" d="m66.275,1.768c-41.335,0-64.571,21.371-64.571,65.036v450.123c0,40.844 20.894,62.229 62.192,62.229h452.024c41.307,0 62.229-20.316 62.229-62.229v-450.123c0-42.601-20.922-65.036-63.522-65.036-.003,0-448.494-.143-448.352,0z"/>
<g fill="#12abdb" stroke="#150b0b" stroke-width="29.58" stroke-dashoffset="18">
<path d="m512.777,1064.66h174.788v133.46h-174.788z" transform="matrix(.91723 -.39835 .408 .91298 0 0)"/>
<path d="m512.777,1208.95h174.788v133.47h-174.788z" transform="matrix(.91723 -.39835 .408 .91298 0 0)"/>
</g>
<g fill="#fff">
<g>
<path d="m1005.6878,565.4999l-160.3125,69.625 1.3438,3 7.625-3.3125 7.375,16.5-7.625,3.3125 45.7188,102.3438 160.3125-69.625-54.4375-121.8438zm-151.5938,89.125l-7.375-16.5-5.4688,2.375 7.375,16.5 5.4688-2.375z"/>
</g>
<g transform="matrix(13.63157 -5.92009 6.00531 13.43812 755.02474 631.71147)">
<path d="m5.0558,6.7388h.9598v1.2277h-.9598v-1.2277z"/>
<path d="m5.0558,10.596h.9598v1.2277h-.9598v-1.2277z"/>
<path d="m5.0558,14.4531h.9598v1.2277h-.9598z"/>
<path d="m5.0558,18.3103h.9598v1.2276h-.9598z"/>
<path d="m5.0558,22.1674h.9598v1.2277h-.9598z"/>
<path d="m5.0558,26.0246h.9598v1.2276h-.9598z"/>
<path d="m5.0558,29.8817h.9598v1.2277h-.9598z"/>
</g>
<g transform="matrix(13.63157 -5.92009 6.00531 13.43812 912.03124 563.52477)">
<path d="m5.0558,6.7388h.9598v1.2277h-.9598v-1.2277z"/>
<path d="m5.0558,10.596h.9598v1.2277h-.9598v-1.2277z"/>
<path d="m5.0558,14.4531h.9598v1.2277h-.9598z"/>
<path d="m5.0558,18.3103h.9598v1.2276h-.9598z"/>
<path d="m5.0558,22.1674h.9598v1.2277h-.9598z"/>
<path d="m5.0558,26.0246h.9598v1.2276h-.9598z"/>
<path d="m5.0558,29.8817h.9598v1.2277h-.9598z"/>
<path d="m5.0558,2.8817h.9598v1.2277h-.9598v-1.2277z"/>
</g>
<g>
<path d="m97.6352,126.2863l200.3151,416.3093 187.9578-90.4394-200.3151-416.3093-187.9578,90.4394zm32.8649-5.7862l128.5039-61.8321 59.2754,123.1903-128.5039,61.8321-59.2754-123.1903zm-19.8959,15.8241l13.7994-6.6399 10.723,22.2853-13.7994,6.6399-10.723-22.2853zm159.0371-76.5237l13.7994-6.6399 10.723,22.2853-13.7994,6.6399-10.723-22.2853zm-134.6147,127.2803l13.7994-6.6399 10.723,22.2853-13.7994,6.6398-10.723-22.2853zm159.0371-76.5237l13.7994-6.6399 10.723,22.2853-13.7994,6.6399-10.723-22.2853zm-134.6146,127.2802l13.7994-6.6398 10.723,22.2853-13.7994,6.6399-10.723-22.2853zm159.0371-76.5237l13.7994-6.6399 10.723,22.2853-13.7994,6.6398-10.723-22.2853zm-122.8596,94.5373l128.5039-61.8321 59.2754,123.1903-128.5039,61.8321-59.2754-123.1903zm-11.7551,32.7429l13.7994-6.6399 10.723,22.2853-13.7994,6.6399-10.723-22.2853zm159.0371-76.5237l13.7994-6.6399 10.723,22.2853-13.7994,6.6399-10.723-22.2853zm-134.6147,127.2803l13.7994-6.6399 10.723,22.2853-13.7994,6.6399-10.723-22.2853zm159.0371-76.5237l13.7994-6.6399 10.723,22.2853-13.7994,6.6399-10.723-22.2853zm-134.6147,127.2803l13.7994-6.6399 10.723,22.2853-13.7994,6.6399-10.723-22.2853zm159.0371-76.5237l13.7994-6.6399 10.723,22.2853-13.7994,6.6399-10.723-22.2853zm-131.0004,77.6185l128.5039-61.8321 59.2754,123.1903-128.5039,61.8321-59.2754-123.1903zm-3.6143,49.6618l13.7994-6.6399 10.723,22.2853-13.7994,6.6399-10.723-22.2853zm159.0371-76.5237l13.7994-6.6399 10.723,22.2853-13.7994,6.6399-10.723-22.2853zm-134.6146,127.2802l13.7994-6.6398 10.723,22.2853-13.7994,6.6399-10.723-22.2853zm159.0371-76.5237l13.7994-6.6399 10.723,22.2853-13.7994,6.6399-10.723-22.2853z"/>
<path opacity=".332" d="m65.3433,165.155h142.6047v136.712h-142.6047z" transform="matrix(.90111 -.43359 .43359 .90111 0 0)"/>
<path opacity=".332" d="m65.3433,315.359h142.6047v136.712h-142.6047z" transform="matrix(.90111 -.43359 .43359 .90111 0 0)"/>
<path opacity=".332" d="m65.3433,465.563h142.6047v136.712h-142.6047z" transform="matrix(.90111 -.43359 .43359 .90111 0 0)"/>
</g>
</g>
</svg>
