<svg xmlns="http://www.w3.org/2000/svg" viewBox="0 0 580 580">
<path fill="#111" stroke="#eee" stroke-width="3.408" d="m66.275,1.768c-41.335,0-64.571,21.371-64.571,65.036v450.123c0,40.844 20.894,62.229 62.192,62.229h452.024c41.307,0 62.229-20.316 62.229-62.229v-450.123c0-42.601-20.922-65.036-63.522-65.036-.003,0-448.494-.143-448.352,0z"/>
<g fill="#fff" transform="matrix(1.44383 0 0 1.44383 -128.87623 -121.85042)">
<path d="m317.4062,102c-2.6124,1.875-5.0776,3.9745-7.4688,6.1875l8.6562,18-13.8125,6.6562-6.5-13.5312c-2.3446,2.1148-4.7342,4.0987-7.2812,5.8125l27.2812,56.7188-128.5,61.8438-34.2812-71.25c-.5931,.2402-1.168,.5017-1.75,.7812-5.7724,2.8208-11.0015,7.55-16.0938,12.5938l11.1562-5.375 10.75,22.2812-13.8125,6.6562-10.2812-21.375c-1.8324,1.8431-3.6601,3.7147-5.5,5.5l132.9062,276.2188c2.7635-2.7779 5.5427-5.5882 8.375-8.1875l-3.375,1.625-10.75-22.2812 13.8125-6.6562 9.6562,20.0938c.8347-.4989 1.7044-.9557 2.5625-1.375 2.0113-.966 4.0881-1.6718 6.2188-2.2188l-28.625-59.5312 128.5-61.8125 34.9375,72.625c8.9243-7.1906 16.5161-17.0302 26.5938-22.8438l-133.375-277.1562zm14.875,52.6875l10.7188,22.2812-13.7812,6.625-10.7188-22.2812 13.7812-6.625zm-8.1562,39.3438l59.2812,123.1875-128.5,61.8125-59.2812-123.1875 128.5-61.8125zm32.5938,11.4062l10.7188,22.2812-13.8125,6.625-10.7188-22.2812 13.8125-6.625zm-183.4688,25.75l10.7188,22.2812-13.7812,6.6562-10.75-22.2812 13.8125-6.6562zm207.875,25l10.7188,22.2812-13.7812,6.6562-10.7188-22.3125 13.7812-6.625zm-183.4688,25.7812l10.75,22.2812-13.8125,6.625-10.7188-22.2812 13.7812-6.625zm207.9062,24.9688l10.7188,22.2812-13.8125,6.6562-10.7188-22.2812 13.8125-6.6562zm-183.4688,25.7812l10.7188,22.2812-13.7812,6.625-10.75-22.2812 13.8125-6.625zm207.875,24.9688l10.7188,22.3125-13.7812,6.625-10.7188-22.2812 13.7812-6.6562zm-183.4375,25.7812l10.7188,22.2812-13.8125,6.6562-10.7188-22.3125 13.8125-6.625z"/>
<path opacity=".332" d="m291,125.125c-1.6985,1.1429-3.4665,2.1671-5.3125,3.0312-14.9785,6.682-34.3372,3.2898-49.125,9.5625-15.0669,6.2025-25.0979,21.6794-39.0625,27.7188-13.2286,5.5348-28.9211,1.7039-42,7l34.2812,71.25 128.5-61.8438-27.2812-56.7188z"/>
<path opacity=".332" d="m65.3433,315.359h142.6047v136.712h-142.6047z" transform="matrix(.90111 -.43359 .43359 .90111 0 0)"/>
<path opacity=".332" d="m389.25,329.375l-128.5,61.8125 28.625,59.5c12.0784-3.098 25.7462-.6135 37.5-5.5312 13.9646-6.0393 24.0269-21.5162 39.0938-27.7188 14.7878-6.2726 34.1466-2.8805 49.125-9.5625 3.2625-1.5272 6.2369-3.5732 9.0938-5.875l-34.9375-72.625z"/>
</g>
</svg>
