<svg xmlns="http://www.w3.org/2000/svg" viewBox="0 0 580 580">
<path fill="#111" stroke="#eee" stroke-width="3.408" d="m66.275,1.768c-41.335,0-64.571,21.371-64.571,65.036v450.123c0,40.844 20.895,62.229 62.192,62.229h452.024c41.307,0 62.229-20.315 62.229-62.229v-450.123c0-42.601-20.922-65.036-63.521-65.036-.004,0-448.495-.143-448.353,0z"/>
<g fill="#fff">
<path opacity=".2" d="m16,8a8,8 0 1,1 -16,0 8,8 0 1,1 16,0z" transform="matrix(32.46438 0 0 32.46438 28.88927 28.42569)"/>
<path opacity=".5" d="m65.8179,271.908h97.3931v32.465h-97.3931z"/>
<path opacity=".5" d="m415.997,271.908h97.393v32.465h-97.393z"/>
<path opacity=".5" d="m65.3541-304.836h97.3929v32.464h-97.3929z" transform="rotate(90)"/>
<path opacity=".5" d="m413.533-304.836h97.394v32.464h-97.394z" transform="rotate(90)"/>
</g>
<path fill="none" stroke="#fff" stroke-width=".924" d="m16,8a8,8 0 1,1 -16,0 8,8 0 1,1 16,0z" transform="matrix(32.46438 0 0 32.46438 28.88927 28.42569)"/>
<g fill="#fff">
<g>
<path opacity=".5" d="m-122.754-415.031h49.6536v32.464h-49.6536z" transform="rotate(120.60874)"/>
<path opacity=".5" d="m-315.838-420.2h49.654v32.464h-49.654z" transform="rotate(147.65687)"/>
<path opacity=".5" d="m175.222,84.3818h49.654v32.4642h-49.654z" transform="matrix(.50917 .86066 .86066 -.50917 0 0)"/>
<path opacity=".5" d="m176.649-110.912h49.654v32.4645h-49.654z" transform="matrix(.84486 .53499 .53499 -.84486 0 0)"/>
<path opacity=".5" d="m-312.919,376.95h49.654v32.464h-49.654z" transform="matrix(.50917 -.86066 .86066 .50917 0 0)"/>
<path opacity=".5" d="m-125.059,371.633h49.6541v32.464h-49.6541z" transform="matrix(.84486 -.53499 .53499 .84486 0 0)"/>
<path opacity=".5" d="m-612.212-119.163h49.654v32.4644h-49.654z" transform="matrix(-.50917 -.86066 -.86066 .50917 0 0)"/>
<path opacity=".5" d="m-617.218,65.8825h49.654v32.4644h-49.654z" transform="matrix(-.84486 -.53499 -.53499 .84486 0 0)"/>
</g>
<g stroke="#fff" stroke-linejoin="round" stroke-linecap="round" stroke-width="11.4">
<path d="m184.826-122.964h243.963v34.8515h-243.963z" transform="rotate(60)"/>
<path d="m-278.266-413.43h174.258v34.852h-174.258z" transform="rotate(155.06568)"/>
</g>
</g>
</svg>
