<svg xmlns="http://www.w3.org/2000/svg" viewBox="0 0 580 580">
<path fill="#111" stroke="#eee" stroke-width="3.408" d="m66.275,1.768c-41.335,0-64.571,21.371-64.571,65.036v450.123c0,40.844 20.895,62.229 62.192,62.229h452.024c41.307,0 62.229-20.315 62.229-62.229v-450.123c0-42.601-20.922-65.036-63.521-65.036-.004,0-448.495-.143-448.353,0z"/>
<g fill="#fff" stroke="#fff" transform="matrix(2.88603 0 0 2.88603 -127.02439 -1474.9789)">
<path fill-rule="evenodd" stroke-width="2" d="m67.6138,570.4174c24.4681-13.1004 45.356-11.7745 66.0414-23.0621 11.0964,2.431 19.357,1.4592 26.9931-.2621 23.4286,10.7864 44.0283,12.5158 66.0414,23.5862-1.8296,11.5595-5.8589,21.5478-12.5793,29.6138-8.1536-4.3699-15.8683-6.1063-23.3241-6.2897l-.5241,78.6207c-32.1215,5.9827-59.3472,3.3978-85.9586-.2621l-.2621-78.0965c-9.3707-.2722-16.5004,3.1905-23.8483,6.2897-7.0672-9.6354-10.3688-19.8087-12.5793-30.1379z"/>
<path fill-rule="evenodd" d="m71.2828,569.107c2.2147,10.7485 6.0835,20.7869 13.6276,29.3517"/>
<path fill-rule="evenodd" d="m105.3517,668.1691c28.1287,4.6044 56.2575,5.5929 84.3862-.2621"/>
<path fill-rule="evenodd" d="m133.3931,547.6174c-.2282,2.3247 1.6924,12.7328 13.8896,13.3655 11.9359,.6191 14.2753-11.536 13.8897-13.1035"/>
<path fill-rule="evenodd" d="m128.2119,550.4187c-.2282,2.3247 4.5742,15.1116 18.3448,15.4621 14.0325,.3571 19.7787-14.6809 19.3931-16.2483"/>
<path fill-rule="evenodd" d="m134.5228,552.3346c8.5381,2.2332 16.0817,1.7542 25.3181-.2019"/>
<path fill-rule="evenodd" d="m104.1618,558.2808c2.5759,9.8854 6.838,21.4889-.2621,35.3793"/>
<path fill-rule="evenodd" d="m190.3752,558.4826c-2.5759,9.8854-6.838,21.4889 .2621,35.3793"/>
<path fill-rule="evenodd" d="m223.2828,568.8449c-2.2147,10.7485-6.0835,20.7869-13.6276,29.3517"/>
</g>
</svg>
