<svg xmlns="http://www.w3.org/2000/svg" viewBox="0 0 580 580">
<defs/>
<path fill="#111" stroke="#eee" stroke-width="3.408" d="m66.275,1.768c-41.335,0-64.571,21.371-64.571,65.036v450.123c0,40.844 20.895,62.229 62.192,62.229h452.024c41.307,0 62.229-20.315 62.229-62.229v-450.123c0-42.601-20.922-65.036-63.521-65.036-.004,0-448.495-.143-448.353,0z"/>
<g fill="#fff">
<path opacity=".75" line-height="normal" color="#000" d="m288.875,46.5a15.395,15.395 0 0,0 -14,9.5938l-39.5938,93.7188h33.4375l21.9375-51.9375 22,51.9375h33.4375l-39.7188-93.7188a15.395,15.395 0 0,0 -15.8125-9.5 15.395,15.395 0 0,0 -1.6875-.0938zm-160.9062,377.3125l-32.6562,79a15.395,15.395 0 1,0 28.4375,11.75l37.5-90.75h-33.2812zm290.0312,0l6.0938,9.875 33.375,80.875a15.3991,15.3991 0 1,0 28.4688-11.75l-32.6562-79h-35.2812z"/>
<path d="m75.5899,152.529 0,268.5671 429.0702,0 0-268.5671-429.0702,0zm93.0244,67.3562c1.6984,.0412 3.3473,.9971 4.227,2.4504l15.6521,25.8827 .245,.3676c4.7815,6.646 7.5687,13.5615 11.3026,17.6431 89.8252-.8791 179.6279-1.7688 269.4553-2.6342 .0837-.005 .1615,.004 .245,0 16.9266-.8274 30.1319,14.3102 29.7421,30.4466h.0306c.005,.0932-.004,.1827 0,.2757-.002,.0718 .003,.1427 0,.2144h-.0306c.5794,16.0844-12.6073,30.502-29.0376,30.5079-.0715,.002-.143,.002-.2144,0-65.1335-2.5991-130.2037-6.3632-195.238-9.4035-.0102-.0004-.0204,.0004-.0306,0-25.2824-.9599-50.5842-3.0031-75.3507-3.3387-10.1274,12.7888-19.2675,27.1578-29.3745,40.8915-1.1379,1.5623-3.2207,2.3729-5.1153,1.991l-73.6967-14.7332c-2.3102-.4683-4.1207-2.7279-4.0738-5.0846l.3676-21.0124c.0479-2.6417 2.4732-5.0089 5.1153-4.9928 17.2065,.025 34.4234,1.041 50.9383,.5514 4.2828-6.4769 8.3294-13.3966 11.7008-20.2467-3.0979-6.9841-6.9825-14.0899-11.0269-20.6755-16.9926-1.0528-34.5762-.6488-52.1941-1.2252-2.6417-.0793-4.9803-2.5341-4.9315-5.1765l.3676-23.0034c.0431-2.3123 1.863-4.4692 4.1351-4.9009l75.6876-14.7026c.3628-.0706 .7332-.1017 1.1027-.0919zm302.2604,64.8445c-.2221-.002-.4481,.0122-.6739,.0306-.1323,.0154-.2651,.0257-.3982,.0306-6.2111,.0169-11.0376,7.0324-8.9134,12.8648 .0345,.1112 .0651,.2236 .0919,.3369 2.0097,6.9565 13.2768,8.5513 17.1224,2.3892 .0946-.1481 .1969-.2913 .3063-.4288 4.3127-5.5182-.6509-15.1632-7.5351-15.2233z"/>
</g>
<path fill="none" stroke="#fff" stroke-linejoin="round" stroke-linecap="round" stroke-width="20.525" d="m73.2633,149.821h437.7487v273.986h-437.7487z"/>
</svg>
