<svg xmlns="http://www.w3.org/2000/svg" viewBox="0 0 580 580">
<defs/>
<path fill="#111" stroke="#eee" stroke-width="3.408" d="m66.275,1.768c-41.335,0-64.571,21.371-64.571,65.036v450.123c0,40.844 20.895,62.229 62.192,62.229h452.024c41.307,0 62.229-20.315 62.229-62.229v-450.123c0-42.601-20.922-65.036-63.521-65.036-.004,0-448.495-.143-448.353,0z"/>
<g fill="#fff">
<path opacity=".75" line-height="normal" color="#000" d="m288.875,46.5a15.395,15.395 0 0,0 -14,9.5938l-39.5938,93.7188h33.4375l21.9375-51.9375 22,51.9375h33.4375l-39.7188-93.7188a15.395,15.395 0 0,0 -15.8125-9.5 15.395,15.395 0 0,0 -1.6875-.0938zm-160.9062,377.3125l-32.6562,79a15.395,15.395 0 1,0 28.4375,11.75l37.5-90.75h-33.2812zm290.0312,0l6.0938,9.875 33.375,80.875a15.3991,15.3991 0 1,0 28.4688-11.75l-32.6562-79h-35.2812z"/>
<path d="m71.6549,152.92 5.064,270.678 435.066-4.5199-2.351-267.7861-437.779,1.628zm318.4828,40.383c1.1537-.006 2.3154,.009 3.4675,.0488 7.8873-.1194 15.9626,.3067 23.6862,1.3674 36.1842,4.9381 67.529,35.0888 71.84,71.547 5.1923,28.6785-4.013,61.1654-29.7421,77.4563h36.6282v35.6514h-83.8541v-38.2398c28.1678-18.2913 36.7887-58.1753 23.1978-88.0541-9.4612-27.1406-48.5994-34.0804-68.5191-14.5047-26.1222,29.0169-19.4632,81.3608 13.528,102.5589v38.2398h-69.7888c-13.027,3.227-16.4141-3.186-14.0652-15.335 1.3679-8.3996-5.0412-24.5762 8.9861-20.3164 8.4266-.3623 20.8544,.7296 26.763-.5372-29.9042-19.6713-36.4274-60.928-24.9072-92.7913 10.897-35.138 47.0146-56.9011 82.7796-57.0911zm-299.2765,3.3209 46.9817,0c.0125,14.9443-.0347,29.8887 .0488,44.8329-1.1656,21.3316 3.2957,45.0765 21.6839,58.312 .5779-34.379 .2169-68.7637 .293-103.1449h47.0306v103.2914c6.7087-5.3004 12.2246-11.7471 15.9699-19.4373 10.5678-26.4897 4.6377-56.0471 6.1047-83.8541h46.9817c-.9321,28.7152 3.3903,58.1975-4.7861,86.1494-8.9435,28.2649-32.7854,56.1187-64.1237,58.8981-.2385,12.5662-.1178,25.135-.1464,37.7026h-47.0306v-37.6538c-21.463-1.4208-39.0705-16.12-51.2306-32.7211-23.497-31.1823-16.9647-72.5339-17.6792-109.0542-.0326-1.107-.0651-2.214-.0977-3.321z"/>
</g>
<path fill="none" stroke="#fff" stroke-linejoin="round" stroke-linecap="round" stroke-width="20.525" d="m73.2633,149.821h437.7487v273.986h-437.7487z"/>
</svg>
