<svg xmlns="http://www.w3.org/2000/svg" viewBox="0 0 580 580">
<path fill="#111" stroke="#eee" stroke-width="3.408" d="m66.275,1.768c-41.335,0-64.571,21.371-64.571,65.036v450.123c0,40.844 20.895,62.229 62.192,62.229h452.024c41.307,0 62.229-20.315 62.229-62.229v-450.123c0-42.601-20.922-65.036-63.521-65.036-.004,0-448.495-.143-448.353,0z"/>
<g fill="none" stroke="#fff">
<g transform="matrix(31.34082 0 0 31.34082 41.13272 109.99261)">
<path stroke-width="1.032" d="m2.4484,8.2362 11.1033,0c.3046,0 .4125,.2781 .5497,.5504l1.4905,2.9574c.1372,.2722-.2452,.5504-.5497,.5504h-14.0843c-.3045,0-.6869-.2781-.5497-.5504l1.4905-2.9574c.1372-.2722 .2452-.5504 .5497-.5504z"/>
</g>
<g stroke-width=".258" transform="matrix(31.34082 0 0 31.34082 41.13272 109.99261)">
<path d="m1.4765,9.2012 13.03,0"/>
<path d="m1.0933,9.8746 13.7431,0"/>
<path d="m.7976,10.6375 14.4112,0"/>
</g>
<g>
<path stroke-width="32.344" d="m128.834,80.9744h326.051a16.0277,16.0277 0 0,1 16.028,16.0278v232.1008a16.0277,16.0277 0 0,1 -16.028,16.028h-326.051a16.0277,16.0277 0 0,1 -16.028-16.028v-232.1008a16.0277,16.0277 0 0,1 16.028-16.0278"/>
</g>
</g>
<g fill="#fff">
<g transform="matrix(35.36138 0 0 35.36138 -2.12664 90.96009)">
<path d="m6.4458,.5431 0,4.6025 1.6795-1.4534 2.0348-.7106-3.7143-2.4385z"/>
<path d="m-9.5682,4.6761h3.1569v1.1156h-3.1569z" transform="matrix(-.5 -.86603 .86603 -.5 0 0)"/>
</g>
<g stroke="#fff">
<path opacity=".1" stroke-width="32.344" d="m128.834,80.9744h326.051a16.0277,16.0277 0 0,1 16.028,16.0278v232.1008a16.0277,16.0277 0 0,1 -16.028,16.028h-326.051a16.0277,16.0277 0 0,1 -16.028-16.028v-232.1008a16.0277,16.0277 0 0,1 16.028-16.0278"/>
<g opacity=".1" transform="matrix(31.34082 0 0 31.34082 41.13272 109.99261)">
<path stroke-width="1.032" d="m2.4484,8.2362 11.1033,0c.3046,0 .4125,.2781 .5497,.5504l1.4905,2.9574c.1372,.2722-.2452,.5504-.5497,.5504h-14.0843c-.3045,0-.6869-.2781-.5497-.5504l1.4905-2.9574c.1372-.2722 .2452-.5504 .5497-.5504z"/>
<g stroke-width=".258">
<path d="m1.4765,9.2012 13.03,0"/>
<path d="m1.0933,9.8746 13.7431,0"/>
<path d="m.7976,10.6375 14.4112,0"/>
</g>
</g>
</g>
</g>
</svg>
