<svg xmlns="http://www.w3.org/2000/svg" viewBox="0 0 580 580" xmlns:xlink="http://www.w3.org/1999/xlink">
<path fill="#111" stroke="#eee" stroke-width="3.408" d="m66.275,1.768c-41.335,0-64.571,21.371-64.571,65.036v450.123c0,40.844 20.895,62.229 62.192,62.229h452.024c41.307,0 62.229-20.315 62.229-62.229v-450.123c0-42.601-20.922-65.036-63.521-65.036-.004,0-448.495-.143-448.353,0z"/>
<path fill="#fff" stroke="#fff" stroke-width="3.331" d="m529.5167,239.184c0,0 5.1659,30.3495 9.0403,36.8069 3.8744,6.4574 10.889,30.331 9.0403,39.3898-6.4573,31.641-10.3317,31.641-29.058,54.2417-7.1279,8.6026-13.3486,14.7275-20.4446,16.8688-11.0329,3.3292-22.3511-1.1412-28.3628-6.7805-16.0381-15.0447-15.1203-50.7695-15.1203-50.7695 0,0-14.2061-4.5201-16.1433-10.9775-1.9372-6.4574-2.583-3.8744-2.583-3.8744 0,0-21.3092,45.8472-30.3495,49.7216-9.0403,3.8744-25.1836,3.2287-25.1836,3.2287l-207.9264-21.955c0,0-9.686,0-17.4348-7.7488-7.7489-7.7488-8.3946-45.8472-8.3946-45.8472l-20.0178-12.2689c0,0-18.0806,15.4976-27.7666,18.0806-9.686,2.5829-51.6587,27.7666-51.6587,27.7666 0,0-14.2062-13.5604-13.5604-27.1209 .6457-13.5604 14.8519-49.0758 14.8519-49.0758l-5.8116-2.5829c0,0 6.4573-20.0178 29.0581-35.5154 22.6007-15.4976 34.2239-22.6007 34.2239-22.6007 0,0 28.4123,30.3495 32.2867,47.1386 3.8744,16.7891 3.2287,27.7666 3.2287,27.7666l12.9147-12.9147 9.686-33.5782c0,0 5.1659-15.4976 14.2061-22.6007 9.0403-7.1031 20.0178-7.1031 20.0178-7.1031 0,0 198.2177,8.3222 209.2179,13.5604 13.5604,6.4573 21.3092,19.3721 21.3092,19.3721 0,0 14.8519,35.5154 15.4976,66.5106 .229,10.9941 90.4028-48.4301 85.237-47.1387z"/>
</svg>
