<svg xmlns="http://www.w3.org/2000/svg" viewBox="0 0 580 580">
<path fill="#111" stroke="#eee" stroke-width="3.408" d="m66.275,1.768c-41.335,0-64.571,21.371-64.571,65.036v450.123c0,40.844 20.895,62.229 62.192,62.229h452.024c41.307,0 62.229-20.315 62.229-62.229v-450.123c0-42.601-20.922-65.036-63.521-65.036-.004,0-448.495-.143-448.353,0z"/>
<path fill="#fff" stroke="#fff" fill-rule="evenodd" stroke-linejoin="round" stroke-linecap="round" stroke-width="4.258" d="m295.8746,82.8143l-88.8933,191.7594 29.5618-8-41.1393,64.5564 33.1549-8-46.9945,69.214 92.3532-13.8397v98.2085h21.9572v-393.8985zm.2662,0v393.8985h21.9572v-98.2085l92.4863,13.8397-46.9945-69.214 33.0218,8-39.1393-64.5564 27.6949,8-89.0264-191.7594z"/>
</svg>
