<svg xmlns="http://www.w3.org/2000/svg" viewBox="0 0 580 580">
<path fill="#111" stroke="#eee" stroke-width="3.408" d="m66.275,1.768c-41.335,0-64.571,21.371-64.571,65.036v450.123c0,40.844 20.895,62.229 62.192,62.229h452.024c41.307,0 62.229-20.315 62.229-62.229v-450.123c0-42.601-20.922-65.036-63.521-65.036-.004,0-448.495-.143-448.353,0z"/>
<g transform="translate(32 66)">
<path fill="none" stroke="#fff" fill-rule="evenodd" stroke-linejoin="round" stroke-linecap="round" stroke-width="28.173" d="m477.0693,164.5769h-428.8728l49.6677,211.8258 329.5308-1.4581 49.6742-210.3677z"/>
<path fill="none" stroke="#fff" fill-rule="evenodd" stroke-linecap="round" stroke-width="18.782" d="m128.0687,165.7354v197.4717"/>
<path fill="none" stroke="#fff" fill-rule="evenodd" stroke-linecap="round" stroke-width="18.782" d="m86.4247,243.0011h358.7674"/>
<path fill="none" stroke="#fff" fill-rule="evenodd" stroke-linecap="round" stroke-width="18.782" d="m215.1525,165.7354v197.5156"/>
<path fill="none" stroke="#fff" fill-rule="evenodd" stroke-linecap="round" stroke-width="18.782" d="m306.2363,165.7354v206.424"/>
<path fill="none" stroke="#fff" fill-rule="evenodd" stroke-linecap="round" stroke-width="18.782" d="m395.3201,165.7354v207.7865"/>
<path fill="none" stroke="#fff" fill-rule="evenodd" stroke-linecap="round" stroke-width="18.782" d="m104.2415,322.0849h323.1339"/>
</g>
<path fill="#fff" stroke="#fff" fill-rule="evenodd" stroke-linejoin="round" stroke-linecap="round" stroke-width="20" d="m287.1128,222.9532l53.7302-144.3942 15.6696,5.8308-54.487,146.4279-14.9129-7.8645z"/>
</svg>
