<svg xmlns="http://www.w3.org/2000/svg" viewBox="0 0 580 580">
<path fill="#111" stroke="#eee" stroke-width="3.408" d="m66.275,1.768c-41.335,0-64.571,21.371-64.571,65.036v450.123c0,40.844 20.895,62.229 62.192,62.229h452.024c41.307,0 62.229-20.315 62.229-62.229v-450.123c0-42.601-20.922-65.036-63.521-65.036-.004,0-448.495-.143-448.353,0z"/>
<g fill="#fff">
<g transform="translate(9.20635 9.20635)">
<path d="m42.125,111.0312 0,424.5312 289.1562,0 0-424.5312-289.1562,0zm134.5312,85.2812c21.167,0 39.2325,3.1139 54.1562,9.3438 15.0757,6.2455 27.2418,15.6378 36.5312,28.125 5.7865,7.613 9.907,17.0439 12.3438,28.3125 2.4363,11.1158 3.656,27.8616 3.6562,50.25v145.9688h-42.25v-37.9375c-8.9848,15.226-20.3261,26.5012-34.0312,33.8125-13.5532,7.1585-30.1018,10.75-49.5938,10.75-26.0403,0-46.8111-7.3188-62.3438-21.9375-15.5328-14.7715-23.3125-34.4875-23.3125-59.1562 0-28.4772 9.5272-50.1035 28.5625-64.875 19.1874-14.7715 47.2767-22.1562 84.2812-22.1562h56.4375v-6.625c-.1524-20.4058-5.3286-35.1754-15.5312-44.3125-10.203-9.29-26.521-13.9375-48.9062-13.9375-14.3146,0-28.7561,2.0265-43.375,6.1562-14.6191,4.1102-28.8612,10.1439-42.7188,18.0625v-42.0312c15.5327-5.936 30.369-10.3584 44.5312-13.25 14.3144-3.0562 28.1616-4.5625 41.5625-4.5625zm11.2188,133.375c-24.5175,0-43.0443,4.3525-55.5312,13.0312-12.3349,8.5298-18.5001,21.3232-18.5,38.375-.0001,15.3827 4.6482,27.3491 13.9375,35.875 9.2891,8.5298 22.1472,12.7812 38.5938,12.7812 23.1467,0 41.3451-7.9787 54.5938-23.9688 13.2483-16.1428 19.9725-38.3944 20.125-66.7188v-9.375h-39.3125-13.9062z"/>
<path opacity=".5" d="m42.125,111.0312 0,424.5312 289.1562,0 0-424.5312-289.1562,0z"/>
</g>
<g>
<path opacity=".8" d="m241.7812,38.3125 0,138.0312 48.4062-36c15.5327-5.936 30.369-10.3584 44.5312-13.25 14.3144-3.0562 28.1928-4.5625 41.5938-4.5625 21.167,0 39.2012,3.1139 54.125,9.3438 15.0757,6.2455 27.2731,15.6378 36.5625,28.125 5.7865,7.613 9.8758,17.0439 12.3125,28.3125 2.4363,11.1158 3.656,27.8616 3.6562,50.25v145.9688h-42.25v-37.9375c-8.9848,15.226-20.3261,26.5012-34.0312,33.8125-13.5532,7.1585-30.0706,10.75-49.5625,10.75-23.9828,0-43.5216-6.2239-58.5938-18.625v90.3125h232.375v-424.5312h-289.125zm0,138.0312zm55.5625,195.1875c-.8785-.749-1.7468-1.5154-2.5938-2.3125l2.5938,2.3125zm0-124.1875zc.8614-.7357 1.7497-1.4528 2.6562-2.1562 19.1874-14.7715 47.3079-22.1562 84.3125-22.1562h56.4062v-6.625c-.1524-20.4058-5.3286-35.1754-15.5312-44.3125-10.2031-9.29-26.4897-13.9375-48.875-13.9375-14.3146,0-28.7873,2.0265-43.4062,6.1562-12.1178,3.4069-23.9671,8.1593-35.5625,14.1875v68.8438zm0,124.1875zm90.1562-115.5938c-24.5175,0-43.013,4.3213-55.5,13-12.3349,8.5298-18.5001,21.3232-18.5,38.375-.0001,15.3827 4.617,27.3491 13.9062,35.875 9.2891,8.5298 22.1785,12.7812 38.625,12.7812 23.1467,0 41.3451-7.9787 54.5938-23.9688 13.2483-16.1428 19.9413-38.3944 20.0938-66.7188v-9.3438h-39.2812-13.9375z"/>
<path opacity=".502" d="m241.7812,38.3125 0,138.0312c66.6903,16.5697 52.8303,166.2224 56.75,286.5h232.375v-424.5312h-289.125zm0,138.0312z"/>
</g>
</g>
</svg>
