<svg xmlns="http://www.w3.org/2000/svg" viewBox="0 0 580 580">
<path fill="#111" stroke="#eee" stroke-width="3.408" d="m66.275,1.768c-41.335,0-64.571,21.371-64.571,65.036v450.123c0,40.844 20.895,62.229 62.192,62.229h452.024c41.307,0 62.229-20.315 62.229-62.229v-450.123c0-42.601-20.922-65.036-63.521-65.036-.004,0-448.495-.143-448.353,0z"/>
<g stroke="#fff" stroke-linejoin="round" stroke-linecap="round">
<g fill-rule="evenodd">
<g fill="#fff">
<path stroke-width="10.829" d="m290.7246,56.6353l-16.569,438.4421h-112.1596v24.2163h131.2777l-2.5491-462.6583z"/>
<path stroke-width="5.415" d="m58.1296,137.9562c14.3417,13.9858 50.1085,29.9606 71.3656,28.2896 24.6131-.145 50.1603-9.6303 76.4724-26.7654 24.3429-16.3158 52.9907-24.0218 84.1197-26.7654l-.6373,20.3927c-33.2291-3.6566-56.3354,15.4629-83.4824,25.4908-19.8868,10.4916-38.4756,21.6911-76.4724,22.3045-39.3095-4.1278-57.4751-23.8957-71.3656-42.9468z"/>
</g>
<g>
<path fill="none" stroke-width="10.829" d="m37.7282,384.5849l84.1197-202.4074 82.8452,202.4074h-166.9649z"/>
</g>
</g>
<g>
<path fill="#fff" stroke-width="10.829" d="m35.1393,379.0259c4.9699,32.9811 41.6174,58.6289 86.0713,58.6289 44.454,0 81.1014-25.6478 86.0713-58.6289h-172.1427z"/>
</g>
<g fill-rule="evenodd">
<g fill="#fff">
<path stroke-width="10.829" d="m291.0927,56.6353l16.569,438.4421h112.1596v24.2163h-131.2777l2.5491-462.6583z"/>
<path stroke-width="5.415" d="m523.6877,137.9562c-14.3417,13.9858-50.1085,29.9606-71.3656,28.2896-24.6131-.145-50.1603-9.6303-76.4725-26.7654-24.3429-16.3158-52.9907-24.0218-84.1197-26.7654l.6373,20.3927c33.2291-3.6566 56.3354,15.4629 83.4824,25.4908 19.8868,10.4916 38.4756,21.6911 76.4725,22.3045 39.3095-4.1278 57.4751-23.8957 71.3656-42.9468z"/>
</g>
<g>
<path fill="none" stroke-width="10.829" d="m544.0891,384.5849l-84.1197-202.4074-82.8452,202.4074h166.9649z"/>
</g>
</g>
<g>
<path fill="#fff" stroke-width="10.829" d="m546.678,379.0259c-4.9699,32.9811-41.6174,58.6289-86.0713,58.6289-44.454,0-81.1014-25.6478-86.0713-58.6289h172.1427z"/>
</g>
</g>
</svg>
