<svg xmlns="http://www.w3.org/2000/svg" viewBox="0 0 580 580">
<path fill="#111" stroke="#eee" stroke-width="3.408" d="m66.275,1.768c-41.335,0-64.571,21.371-64.571,65.036v450.123c0,40.844 20.894,62.229 62.192,62.229h452.024c41.307,0 62.229-20.316 62.229-62.229v-450.123c0-42.601-20.922-65.036-63.522-65.036-.003,0-448.494-.143-448.352,0z"/>
<g stroke="#fff" transform="matrix(1.40357 0 0 1.40357 482.70151 -226.81019)">
<path fill="none" stroke-linejoin="round" stroke-linecap="round" stroke-width="27.803" d="m-279.3122,527.0859 58.3854-303.0478 73.6767-2.7807 44.4841,300.2675"/>
<path fill="none" stroke-linejoin="round" stroke-linecap="round" stroke-width="27.803" d="m-286.2628,222.6481-1.2197,82.0175 116.6003-5.5605l179.3264-80.6274-294.707,4.1704z"/>
<path fill="none" stroke-width="13.901" d="m-272.3615,489.5525 152.914-51.4347-120.9411-59.7755 108.4299-55.6051"/>
<path fill="none" stroke-linejoin="round" stroke-linecap="round" stroke-width="12.293" d="m18.1751,217.0513 0,204.6894"/>
<path fill="none" stroke-linejoin="round" stroke-linecap="round" stroke-width="22.242" d="m16.785,411.7054c0,0 7.1573,27.8573 4.1704,43.094-2.9869,15.2367-45.8742-5.5605-45.8742-5.5605"/>
</g>
</svg>
