<svg xmlns="http://www.w3.org/2000/svg" viewBox="0 0 580 580">
<path fill="#111" stroke="#eee" stroke-width="3.408" d="m66.275,1.768c-41.335,0-64.571,21.371-64.571,65.036v450.123c0,40.844 20.895,62.229 62.192,62.229h452.024c41.307,0 62.229-20.315 62.229-62.229v-450.123c0-42.601-20.922-65.036-63.521-65.036-.004,0-448.495-.143-448.353,0z"/>
<g fill="#fff">
<path d="m433.9762,217.1041c-42.9142,1.0884-77.4063,36.2626-77.4062,79.4375 0,43.8602 35.6085,79.4688 79.4688,79.4688 43.8602,0 79.4688-35.6085 79.4688-79.4688 0-43.8602-35.6085-79.4375-79.4688-79.4375-.6853,0-1.3813-.0173-2.0625,0zm6.7812,26.625c8.9531,.0001 18.0312,2.4064 27.2188,7.1875l-6.3125,25.5313c-6.3751-5.8593-13.0313-8.8124-19.9688-8.8125-9.0938,.0001-15.25,4.0938-18.4375,12.25h25.3125l-3.0312,12.7812h-24.75c-.0938,.9375-.125,2.3125-.125,4.0938v3.7188h26.1562l-3.0312,12.8125h-21.3125c2.7656,8.7656 8.7656,13.125 18,13.125 10.1249,0 19.5937-3.2812 28.4062-9.8438v26.25c-7.3126,5.0156-16.1407,7.5-26.5,7.5-16.7344,0-29.1094-3.7969-37.125-11.4375-8.0156-7.6406-12.9063-16.1719-14.6875-25.5938h-12.7188l3.375-12.8125h7.7188c-.0938-.7031-.125-1.9375-.125-3.7188 0-1.8749 .0312-3.25 .125-4.0938h-9.3438l3.3125-12.7812h7.6562c6.0937-24.0937 22.8125-36.1562 50.1875-36.1563z"/>
<path d="m156.3034,281.1498c-42.9141,1.0884-77.4062,36.2626-77.4062,79.4375 0,43.8602 35.6085,79.4688 79.4687,79.4688 43.8602,0 79.4688-35.6085 79.4688-79.4688 0-43.8602-35.6085-79.4375-79.4688-79.4375-.6853,0-1.3813-.0173-2.0625,0zm.8438,20.625c8.0624,.0001 14.4452,.9142 19.1562,2.7188 4.7109,1.8048 8.6796,4.8048 11.9375,9 3.2577,4.1954 5.4999,9.2657 6.7188,15.2188l-26.8438,4.2188c-1.3594-5.0155-2.9297-8.328-4.6875-9.9688-1.7579-1.6406-3.75-2.4687-6-2.4688-2.7188,.0001-4.9375,.8751-6.625,2.6562-1.6875,1.7813-2.5313,4.3126-2.5312,7.5938 0,1.7344 .1718,3.4141 .5,5.0312 .3281,1.6172 1.4531,5.4376 3.375,11.4375h21.3125v16.8125h-18.8438c-.2344,3.9844-.9688,7.5625-2.1875,10.75-.9844,2.4375-2.6094,4.9688-4.9062,7.5938 2.625-.6093 4.875-.9062 6.75-.9062 2.3906,0 5.5,.4688 9.3438,1.4062 5.2499,1.2188 9.4531,1.8125 12.5938,1.8125 2.578,0 4.789-.2109 6.6875-.6562 1.8984-.4453 4.4062-1.375 7.5-2.7812l9.5625,20.9375c-4.6407,2.3437-8.7032,3.9844-12.2188,4.875-3.5157,.8906-7.3126,1.3125-11.3438,1.3125-4.4063,0-9.4219-.7656-15.0938-2.3125-7.4532-2.0625-12.0938-3.2656-13.875-3.5938-1.7813-.3281-3.6875-.4688-5.75-.4688-6.0469,0-12.7188,2.1094-20.0312,6.375l-9.0938-19.9688c9.8437-7.0781 14.7812-14.1406 14.7812-21.2188 0-.375-.0625-1.4218-.1562-3.1562h-14.625v-16.8125h10.5c-1.7813-6.1874-2.7969-9.7656-3.0312-10.75-.2813-1.4999-.4375-3.3593-.4375-5.5625 0-5.8593 1.5703-11.1171 4.6875-15.7812 3.1172-4.6639 7.2265-8.0468 12.3125-10.1562 5.0859-2.1093 11.9375-3.1874 20.5625-3.1875z"/>
<path opacity=".5" d="m287.5811,86.5973v.0625h10.25v-.0625h-10.25zm10.25-17.9375v24.9062c10.4999,.6564 18.539,3.1564 24.0938,7.4688 5.5546,4.3126 9.1562,10.2188 10.8438,17.7188l-26.1562,4.125c-1.3125-3.328-2.4766-5.6171-3.5312-6.9062-1.0547-1.289-2.8126-2.5937-5.25-3.9062v20.3125c14.2499,3.7969 23.7812,7.8126 28.5625,12.0312 6.328,5.6719 9.4687,12.875 9.4688,21.5938-.0001,5.1094-1.1329,9.7969-3.4062,14.0625-2.2735,4.2656-5.1798,7.8281-8.7188,10.6875-3.5391,2.8594-7.2969,4.9297-11.2812,6.2188-3.9844,1.2891-8.8594,2.0469-14.625,2.2812v13.2812h-10.25v-13.2812c-6.8907-.6094-12.4922-1.7266-16.7812-3.3438-4.2891-1.6172-7.9766-3.8594-11.0938-6.7188-3.1172-2.8594-5.5313-5.9453-7.2188-9.25-1.6875-3.3047-2.9688-7.2812-3.8125-11.9688l28.4062-3.3125c.8437,4.6406 2.0078,8 3.4375,10.0625 1.4297,2.0625 3.7812,3.875 7.0625,5.4688v-24.8125c-9.4688-2.6249-16.1953-4.8906-20.1562-6.8125-3.961-1.9218-7.4063-5.0078-10.3125-9.25-2.9062-4.2421-4.3438-9.4062-4.3438-15.5 0-8.3437 2.9141-15.3358 8.75-20.9375 5.8359-5.6015 14.5312-8.703 26.0625-9.3125v-24.9062h-197.8438v157.8125h403.8125v-157.8125h-195.7188zm-10.25,43.0625c-3,.9845-5.1094,2.2032-6.2812,3.6562-1.1719,1.4532-1.75,3.1563-1.75,5.125 0,2.0626 .6171,3.8516 1.8125,5.375 1.1953,1.5235 3.2656,2.8126 6.2188,3.8438v-18zm10.25,46.6875v22.5c3.9843-.8906 6.8984-2.3672 8.75-4.4062 1.8515-2.039 2.7812-4.3125 2.7812-6.8438-.0001-2.2031-.7735-4.2422-2.3438-6.0938-1.5704-1.8515-4.6407-3.5625-9.1875-5.1562z"/>
</g>
<path fill="none" stroke="#fff" stroke-linejoin="round" stroke-linecap="round" stroke-width="10" d="m85.1662,67.2382h411.6218v164.2458h-411.6218z"/>
<path fill="#fff" d="m318.625,380.4375c-42.9142,1.0885-77.4062,36.2626-77.4062,79.4375 0,43.8602 35.6085,79.4688 79.4688,79.4688 43.8602,0 79.4688-35.6085 79.4688-79.4688 0-43.8602-35.6085-79.4375-79.4688-79.4375-.6853,0-1.3813-.0173-2.0625,0zm-46.7188,34h32.125l16.125,35 15.875-35h32.2188l-24.5625,44.4375h20.9062v15.5312h-29.625v8.5h29.625v15.75h-29.625v18.8438h-29.25v-18.8438h-30.0938v-15.75h30.0938v-8.5h-30.0938v-15.5312h21.5312l-25.25-44.4375z"/>
</svg>
