<svg xmlns="http://www.w3.org/2000/svg" viewBox="0 0 580 580" xmlns:xlink="http://www.w3.org/1999/xlink">
<defs/>
<path fill="#111" stroke="#eee" stroke-width="3.408" d="m66.275,1.768c-41.335,0-64.571,21.371-64.571,65.036v450.123c0,40.844 20.895,62.229 62.192,62.229h452.024c41.307,0 62.229-20.315 62.229-62.229v-450.123c0-42.601-20.922-65.036-63.521-65.036-.004,0-448.495-.143-448.353,0z"/>
<g fill="#fff">
<path d="m32.7257,437.771h178.9523v35.048h-178.9523z"/>
<path d="m32.7257,384.72h178.9523v35.047h-178.9523z"/>
<path d="m32.7257,331.539h178.9523v35.047h-178.9523z"/>
<path d="m32.7257,278.296h178.9523v35.047h-178.9523z"/>
<path d="m284.0793,100.1127c-3.2677-7.7527-11.0204-13.2629-19.9263-13.2629l-28.7682,.1281v385.7763h136.2807l-87.5862-372.6416z"/>
<path d="m32.7257,225.244h178.9523v34.919h-178.9523z"/>
<path d="m32.7257,172.065h178.9523v35.048h-178.9523z"/>
<path d="m32.7257,118.885h178.9523v35.047h-178.9523z"/>
<path d="m388.3241,442.2561c2.627,.5126 5.2539,.7689 7.8808,.7689 6.9838,0 13.6473-1.6018 19.5419-4.2287 6.1509-2.8832 12.8784-4.485 20.1185-4.485 7.112,0 13.9036,1.6018 20.0545,4.485 5.8946,2.627 12.6222,4.2287 19.5419,4.2287 6.9198,0 13.5192-1.6018 19.5419-4.2287 6.0227-2.8832 12.8784-4.485 20.0545-4.485 7.1761,0 14.0317,1.6018 20.1186,4.485 5.8946,2.627 12.494,4.2287 19.5419,4.2287v29.1527c-6.9838,0-13.6473-1.4737-19.5419-4.1006-6.1509-2.8832-13.0066-4.485-20.1186-4.485-7.112,0-14.0317,1.6018-20.0545,4.485-6.0227,2.6269-12.6221,4.1006-19.5419,4.1006-6.9197,0-13.6473-1.4737-19.5419-4.1006-6.1509-2.8832-12.8784-4.485-20.0545-4.485-7.2401,0-14.0317,1.6018-20.1185,4.485-5.8946,2.6269-12.494,4.1006-19.5419,4.1006-.3844,0-.7689,0-1.1533,0l-6.7275-29.9215z"/>
<path d="m376.6631,385.04c6.0227,2.627 12.6221,4.2287 19.5419,4.2287 6.9838,0 13.6473-1.6018 19.5419-4.2287 6.1509-2.8832 12.8784-4.485 20.1185-4.485 7.112,0 13.9036,1.6018 20.0545,4.485 5.8946,2.627 12.6222,4.2287 19.5419,4.2287 6.9198,0 13.5192-1.6018 19.5419-4.2287 6.0227-2.8832 12.8784-4.485 20.0545-4.485 7.1761,0 14.0317,1.6018 20.1186,4.485 5.8946,2.627 12.494,4.2287 19.5419,4.2287v29.1527c-6.9838,0-13.6473-1.4737-19.5419-4.1006-6.1509-2.8832-13.0066-4.485-20.1186-4.485-7.112,0-14.0317,1.6018-20.0545,4.485-6.0227,2.627-12.6221,4.1006-19.5419,4.1006-6.9197,0-13.6473-1.4737-19.5419-4.1006-6.1509-2.8832-12.8784-4.485-20.0545-4.485-7.2401,0-14.0317,1.6018-20.1185,4.485-5.8946,2.627-12.494,4.1006-19.5419,4.1006-4.2287,0-8.3934-.5126-12.3659-1.6018l-7.176-31.7796z"/>
</g>
</svg>
