<svg xmlns="http://www.w3.org/2000/svg" viewBox="0 0 580 580">
<path fill="#111" stroke="#eee" stroke-width="3.408" d="m66.275,1.768c-41.335,0-64.571,21.371-64.571,65.036v450.123c0,40.844 20.895,62.229 62.192,62.229h452.024c41.307,0 62.229-20.315 62.229-62.229v-450.123c0-42.601-20.922-65.036-63.521-65.036-.004,0-448.495-.143-448.353,0z"/>
<path fill="#fff" d="m286.8826,97.8732c-25.785-.4359-52.9262,13.8325-58.4119,43.074-2.3226,12.3807-4.2627,16.362-18.9168,16.6161-45.1425,.7828-64.3406,67.1419-26.2023,98.4183 3.779,3.0991 1.602,5.7907-11.12,15.4657-64.7458,49.2392 4.9698,147.4911 71.1935,100.3356 9.6955-6.9038 11.2329-6.9793 13.4207-1.2782 4.6179,12.034 2.5656,69.8176-3.1954,88.9599l-5.7517,19.0446h34.6381c3.4292,0 5.1444,.012 7.9246,0 2.8149,.0125 4.5679,0 8.0524,0h34.6381l-5.6239-19.0446c-5.761-19.1423-7.9412-76.9259-3.3232-88.9599 2.1877-5.7012 3.7252-5.6256 13.4207,1.2782 66.2237,47.1555 135.9393-51.0964 71.1935-100.3356-12.722-9.6751-15.555-13.7148-10.9922-15.4657 38.1383-14.6351 17.7029-90.9789-26.3301-98.4183-14.4515-2.4416-16.4663-4.2354-18.789-16.6161-5.7455-30.6258-35.303-44.7261-62.1186-42.8184-1.2222-.0875-2.4757-.2348-3.7067-.2556z"/>
</svg>
