<svg xmlns="http://www.w3.org/2000/svg" viewBox="0 0 580 580" xmlns:xlink="http://www.w3.org/1999/xlink">
<defs/>
<path fill="#111" stroke="#eee" stroke-width="3.408" d="m66.275,1.768c-41.335,0-64.571,21.371-64.571,65.036v450.123c0,40.844 20.895,62.229 62.192,62.229h452.024c41.307,0 62.229-20.315 62.229-62.229v-450.123c0-42.601-20.922-65.036-63.521-65.036-.004,0-448.495-.143-448.353,0z"/>
<g fill="#fff" transform="matrix(1.95505 0 0 1.95505 130.03311 -143.33673)">
<path d="m209.745,225.7977c0,0-10.5617,35.7954-41.595,25.1254-.005,.0224 3.7446-31.1854 41.595-25.1254z"/>
<path d="m157.7265,270.0771c5.3627-5.3051 12.6861-8.5054 20.8167-8.5054 16.4054,0 29.7546,13.2915 29.7546,29.7258 0,.6055 0,1.1244-.0288,1.7588h-.0576c-.519,6.4295-2.5661,14.416-7.4099,24.3342 0,0-8.3324,15.9441-15.0215,23.2674l-.6055,.5766c-3.2292,3.258-7.7846,5.3051-12.7149,5.3051-6.0547,0-11.4175-2.9409-14.6755-7.4963h-.0865c-3.258,4.5555-8.6208,7.4963-14.6755,7.4963-4.9879,0-9.4857-2.0182-12.7437-5.3051l-.6055-.5766c-6.6314-7.3233-15.0215-23.2674-15.0215-23.2674-4.8438-9.9182-6.8908-17.9623-7.3522-24.3342h-.1441c-.0865-.6055-.0865-1.1245-.0865-1.7588 0-16.4342 13.3492-29.7258 29.8123-29.7258 8.1018,0 15.4251,3.2004 20.8455,8.5054"/>
<path d="m113.6829,214.6905c0,0 6.2753,31.2733 33.5029,24.5444 .003,.0195-.8218-26.8316-33.5028-24.5444z"/>
<path stroke="#fff" stroke-width="1.351" d="m156.8595,263.7817c0,0-.3024-32.1106-3.6289-40.4873-3.3265-8.3767 11.1891,0 11.1891,0l-7.5602,40.4873z"/>
</g>
<g stroke="#fff">
<g stroke-linejoin="round">
<g fill="#fff" fill-rule="evenodd" stroke-linecap="round">
<g stroke-width="5.491" transform="translate(2 -4)">
<path d="m56.4913,345.3433 114.9957,151.0654 124.7755-60.375-111.8896-149.7774-127.8816,59.087z"/>
<path d="m42.4787,360.3116 113.026,148.7926-3.2594,53.0684-114.0677-149.1335 4.301-52.7275z"/>
</g>
<g stroke-width="9.048" transform="translate(2 -4)">
<path opacity=".75" d="m293.2733,464.4379-117.6946,58.1195-.2037,1.739 117.5964-58.0789 .3019-1.7796z"/>
<path opacity=".75" d="m290.9894,496.3973-117.6946,58.1195-.2037,1.739 117.5964-58.0789 .3019-1.7796z"/>
</g>
</g>
<g fill="none" transform="matrix(14.77089 0 0 14.77089 324.32224 26.08003)">
<path d="m8,15-7.5-9 15,0z"/>
<path d="m.5,6 2.5-3 10,0 2.5,3z"/>
<path d="M 4.5,3 8,15 11.5,3"/>
</g>
<g fill="#fff" stroke-width="31.922" transform="matrix(.46272 0 0 .46272 307.94236 19.16309)">
<path opacity=".1" d="m290.7743,493.7768-239.4142-287.297h478.8284z"/>
<path opacity=".1" d="m51.3601,206.4798 79.8047-95.7657 319.2189,0 79.8047,95.7657z"/>
</g>
</g>
<g fill="#fff" fill-rule="evenodd" transform="matrix(1.75477 0 0 1.75477 -87.87586 -928.42807)">
<path stroke-width="2" d="m67.6138,570.4174c24.4681-13.1004 45.356-11.7745 66.0414-23.0621 11.0964,2.431 19.357,1.4592 26.9931-.2621 23.4286,10.7864 44.0283,12.5158 66.0414,23.5862-1.8296,11.5595-5.8589,21.5478-12.5793,29.6138-8.1536-4.3699-15.8683-6.1063-23.3241-6.2897l-.5241,78.6207c-32.1215,5.9827-59.3472,3.3977-85.9586-.2621l-.2621-78.0965c-9.3707-.2722-16.5004,3.1905-23.8483,6.2897-7.0672-9.6354-10.3688-19.8087-12.5793-30.1379z"/>
<path d="m71.2828,569.107c2.2147,10.7485 6.0835,20.7869 13.6276,29.3517"/>
<path d="m105.3517,668.1691c28.1287,4.6044 56.2575,5.5929 84.3862-.2621"/>
<path d="m133.3931,547.6174c-.2282,2.3247 1.6924,12.7328 13.8896,13.3655 11.9359,.6191 14.2753-11.536 13.8897-13.1034"/>
<path d="m128.2119,550.4187c-.2282,2.3247 4.5742,15.1117 18.3448,15.4621 14.0325,.3571 19.7787-14.6809 19.3931-16.2483"/>
<path d="m134.5228,552.3346c8.5381,2.2332 16.0817,1.7542 25.3181-.2019"/>
<path d="m104.1618,558.2808c2.5759,9.8854 6.838,21.4889-.2621,35.3793"/>
<path d="m190.3752,558.4826c-2.5759,9.8854-6.838,21.4889 .2621,35.3793"/>
<path d="m223.2828,568.8449c-2.2147,10.7485-6.0835,20.7869-13.6276,29.3517"/>
</g>
</g>
</svg>
