<svg xmlns="http://www.w3.org/2000/svg" viewBox="0 0 580 580" xmlns:xlink="http://www.w3.org/1999/xlink">
<defs>
<clipPath id="clipoutline2" clipPathUnits="userSpaceOnUse">
<path id="outline2" d="m55.8,12l.76,.16c8.84-2.94 28.68,8.64 24.26,18.96-1.12,1.62-.93,4.5 .42,6.31l-24.81,24.82c-1.39-1.39-4.48-1.36-5.9,0l-41.03,39.38c-3.74,3.59-.8,6.64 .78,8.25l7.36,7.36c1.61,1.6 5.86,3.76 8.88,.56l38.72-40.81c1.35-1.42 1.36-4.47 0-5.87 0,0 .01-.02 0-.02l24.91-24.9c2.63,2.37 5.1138,2.5749 7.47,1.93 4.5506-1.2454 7.0872,3.2066 9.81,6.46l-1.23,1.21c-1.82,1.84-1.65,4.94 .39,6.98 2.04,2.04 5.15,2.21 6.97,.39l8.14-8.13c1.82-1.84 1.65-4.94-.4-6.97-1.84-1.85-4.51-2.09-6.37-.77-5.58-6.26-2.65-7.2-10.01-15.35l-13.79-14.09c-9.93-9.74-22.83-9.73-35.33-5.86z"/>
</clipPath>
<clipPath id="clipoutline1" clipPathUnits="userSpaceOnUse">
<path id="outline1" d="m22.42,17.2l12.96,12.95-2.5,8.78-8.78,2.5-12.96-12.96-5.86,5.86 14.89,21.46 17.56-3.34 61.63,65.62c9.44,9.51 22.17-4.75 13.34-12.87l-65.85-62.28 4.01-17.76-22.14-14.27-6.3,6.31zm81.06,91.97c1.68-1.68 4.4-1.68 6.08,0 1.68,1.68 1.68,4.4 0,6.08-1.68,1.67-4.4,1.67-6.08,0-1.68-1.68-1.68-4.4 0-6.08z"/>
</clipPath>
</defs>
<path fill="#111" stroke="#eee" stroke-width="3.408" d="m66.275,1.768c-41.335,0-64.571,21.371-64.571,65.036v450.123c0,40.844 20.895,62.229 62.192,62.229h452.024c41.307,0 62.229-20.315 62.229-62.229v-450.123c0-42.601-20.922-65.036-63.521-65.036-.004,0-448.495-.143-448.353,0z"/>
<g fill="#fff" stroke="#fff" stroke-linejoin="round" stroke-linecap="round" stroke-width="2.347" transform="matrix(-2.39037 -2.47827 2.47827 -2.39037 402.26708 618.45764)">
<use width="580" class="outline-big" height="580" xlink:href="#outline1"/>
<use width="580" class="outline-small" height="580" xlink:href="#outline1"/>
<use width="580" class="aluminium4" height="580" xlink:href="#outline1"/>
<use width="580" class="stroke-highlight" height="580" xlink:href="#outline1" clip-path="url(#clipoutline1)"/>
<path class="high-specularity" d="m24.33,15.4l13.45,13.38-3.33,11.69-10.95,3.27-13.5681-13.74-4.7319,4.54 14.2,19.94 18.9-4.14 62.5,66.36c7.5,8.3 20.2-2.67 11.14-11.6l-66.9-63.1 3.86-17.17-19.96-14.03-4.61,4.6zm79.97,93.3c1.67-1.67 4.63-2 6.3-.3 1.7,1.67 3.06,4.63 .65,7.84-2,2-5.2,1.92-7.2-.24-1.68-1.68-1.45-5.6 .25-7.3z"/>
<path class="specularity" d="m24.2,15.42l23.47,23.65 3.22-13.87-22.1-14.4-4.59,4.62z"/>
</g>
<use width="580" class="stroke-highlight" fill="#fff" height="580" stroke="#fff" stroke-linejoin="round" xlink:href="#outline2" stroke-linecap="round" stroke-width="2.535" clip-path="url(#clipoutline2)" transform="matrix(2.785 -2.79341 2.79341 2.785 -144.60212 251.90736)"/>
</svg>
