<svg xmlns="http://www.w3.org/2000/svg" viewBox="0 0 580 580">
<path fill="#111" stroke="#eee" stroke-width="3.408" d="m66.275,1.768c-41.335,0-64.571,21.371-64.571,65.036v450.123c0,40.844 20.895,62.229 62.192,62.229h452.024c41.307,0 62.229-20.315 62.229-62.229v-450.123c0-42.601-20.922-65.036-63.521-65.036-.004,0-448.495-.143-448.353,0z"/>
<g fill="#6800ff" stroke="#000">
<path opacity=".716" d="m-732.625,360.2812c-3.1568,.0498-5.9624,1.585-8.3438,5.375 9.928,97.4585 14.0251,234.3311 15.75,387.1562l-6.1875-7.6562c-11.5498-7.2622-44.0583-6.1471-34.875,15.8125 7.6012,18.1764 28.7962,73.0917 42.0312,132 .3448,88.6385 .2954,180.0073 .4062,270.2188-1.9067-1.6483-17.8405-2.2788-14.1562,6.5313 2.5916,6.1971 9.0381,22.8648 14.25,42.1874 .1447,67.2248 .419,133.4029 1.125,196.8438 0,0 65.7779-30.8072 49-46.9375-4.4725-4.2999-3.2985-145.101 .7188-318.1563 6.8288-36.2012 20.6795-72.1401 25.3125-83.2187 5.0387-12.0489-17.2679-10.9609-19.125-8.6562l-4,4.9688c1.5252-56.6314 3.2808-114.6701 5.1875-171.125 5.7816-16.1901 10.8018-28.8252 13.75-35.875 4.453-10.6484-2.8174-15.6568-11.875-17.5312 6.6126-182.7346 14.5512-335.7685 20.6562-342.0625 4.5127-20.0952-22.6495-9.4843-43.9375-8.2812-15.8091,.8934-33.3032-21.7893-45.6875-21.5938z"/>
<path opacity=".644" stroke-width="10.2" d="m-704.25,435.0625c-54.9505-.0687-99.6804,31.0335-101.0312,101.0625 1.2372,94.2574 170.3066,118.9901 171.4688,213.3125 1.1621,94.3224-162.2013,152.8379-163.3125,245.9688-1.1112,93.1309 159.4175,117.1168 161.2812,175.5312 1.8638,58.4144-114.782,113.0786-187.8125,153.0937 7.7424,14.0876 225.7718-67.3607 230.6562-150.0312 4.8844-82.6705-149.37-121.1772-152.0625-183.7188-2.6925-62.5416 165.6664-126.6699 164.3125-253.0938-1.3539-126.4239-157.3934-135.6657-163.2812-202.0938-2.2961-17.6483 8.6114-34.1237 25.5-33.6875 16.8886,.4362 20.9461,11.5827 37.5938,27.3438 8.7008,8.2374 23.8474,12.6483 32.8438,15.0312 8.9963,2.383 12.9712,1.2356 20.1562-.875 4.7921-1.4077-5.3163-18.9691-1.3438-22.0938 3.3947-2.6702 21.0398,9.3345 23,5.3438 2.2464-4.5734 3.1744-10.0965 2.0625-16.5938 2.7183-29.2403-45.0807-74.4313-100.0312-74.5zm49.7812,31.1562c6.8102,.1024 12.4823,6.5459 11.2812,13.4375-.8071,9.2135-13.7017,13.4032-19.8125,6.5312-7.077-6.4067-2.3492-19.4652 7.1562-19.9062 .4624-.0513 .921-.0693 1.375-.0625z"/>
</g>
<g fill="#fff" stroke="#fff" transform="matrix(.7886 0 0 .69872 -395.86191 -81.60261)">
<path stroke-width=".705" d="m851.5394,136.0203c-7.2794,.7683-10.241,9.43-7.8438,15.5625 .649,8.4286 1.2521,16.8679 1.8125,25.3125 9.2386-1.6674 18.5775-2.6217 27.875-2.8125 13.1446-.3265 26.5743,.0939 39.8437,1.6875 .0939-1.1464 .1855-2.2913 .2813-3.4375 .5744-6.6012 5.5164-15.9025-1.5-20.8125-10.9233-6.9129-24.0583,4.548-35.1875-.7812-8.6126-4.5378-14.6296-14.8469-25.2812-14.7188zm14.1874,136.4063c-5.2173,.1305-10.4053,.9139-15.4062,2.3438 .4434,13.1196 .8052,26.2306 1.125,39.3438 7.0777,4.1154 14.6739,7.5153 22.0312,10.7187 10.2474,4.3589 20.7672,8.3836 31.3126,12.4063 .5106-14.8585 1.0526-29.7091 1.6562-44.5625-6.4412-6.7963-12.9773-13.4603-21.4062-17.75-6.1838-1.8229-12.7567-2.6639-19.3126-2.5zm-23.9374,151.8438c-6.7184,.1614-13.3014,3.0662-15.75,9.5312-2.4296,10.4945 5.1443,19.8377 7.0312,29.8125 4.1554,13.2777 8.2467,26.6333 11.8438,40.0937 18.4977-6.6035 37.3536-12.3287 55.2187-20.3124 .3032-7.5589 .6303-15.1084 1.0625-22.6563 1.2729-5.5242 3.5894-10.9183 5.5938-16.375-3.8385-1.5928-7.7213-3.0528-11.4376-4.5625-13.843-5.1668-28.0928-9.885-42.2187-14.9375 .006,.6348 .0257,1.2715 .0313,1.9063-3.264-1.7119-7.3441-2.5969-11.375-2.5zm55.75,155.8124c-14.6061,5.5037-29.2011,10.9927-43.3438,17.5626 .022,9.1885 .0424,18.3734 .0625,27.5624 14.0792,7.6653 28.9132,13.9054 43.875,19.9063 3.8011-18.0074 9.7386-35.5459 14.75-53.1875-.049-7.4384-9.2099-10.5162-15.4375-8.9062 .0308-.9793 .0642-1.9582 .0938-2.9376zm-43.3126,144.25c-.0237,6.2325-.0571,12.4574-.0937,18.6876-6.1947-.2789-11.9955,6.3962-8.5,12.2812 4.8981,14.0989 9.8051,28.5053 9.0313,43.5312 13.2997-4.5583 26.462-9.4574 39.125-15.5 .2202-14.4943 .4872-28.9768 .6562-43.4687-6.8026-2.8947-13.7839-5.4643-20.6875-8-6.446-2.5374-12.978-5.0297-19.5313-7.5313zm39.5,138.5938c-12.8216,4.1797-25.8438,7.7842-39,10.8438 .1288,20.3445 .2848,40.6871 .4688,61.0312 15.1416-9.3449 33.1646-17.3789 41.4375-34.125 2.1524-6.1532-3.4687-11.4544-2.25-17.6875-.2808-6.6903-.5014-13.3704-.6563-20.0625z"/>
<path stroke-width="7.571" d="m298.2188,53.875c-52.9115-.0493-103.1928,27.4045-104.125,70.2188 3.3903,85.8274 154.9937,76.4578 157.9062,113.7188 3.8197,48.8659-152.4896,34.2533-149.9062,112.1562 1.9566,60.0111 147.4923,65.6077 147.5938,97.125 .113,36.5301-104.6897,46.8532-162.2812,74.8125 6.1056,9.8433 204.9925-13.0314 205.625-76.5 .5765-57.8619-147.3756-65.3672-147.0938-100.8438 .2682-33.7618 154.6614-36.4016 153.5938-107.9375-1.0676-71.5359-152.5132-66.8354-157.1562-113.25-.2009-23.7414 33.8275-30.9698 59.2188-27.8125 13.1934,1.6406 24.5905,14.5187 37.7188,25.5312 6.8613,5.7556 18.8118,8.835 25.9062,10.5 7.0944,1.6651 10.2089,.8498 15.875-.625 3.779-.9835-4.1952-13.2542-1.0625-15.4375 2.677-1.8657 16.6105,6.5384 18.1562,3.75 1.7715-3.1955 2.5018-7.054 1.625-11.5938 2.1437-20.4308-35.5726-52.0145-78.9062-52.0625-7.5295-1.1648-15.1287-1.743-22.6875-1.75zm61.1875,18.0625c8.7688,0 15.875,7.1062 15.875,15.875 0,8.7688-7.1062,15.875-15.875,15.875-8.7688,0-15.875-7.1062-15.875-15.875 0-8.7688 7.1062-15.875 15.875-15.875z" transform="matrix(1.26808 0 0 1.43119 501.98376 116.78877)"/>
</g>
</svg>
