<svg xmlns="http://www.w3.org/2000/svg" viewBox="0 0 580 580">
<path fill="#111" stroke="#eee" stroke-width="3.408" d="m66.275,1.768c-41.335,0-64.571,21.371-64.571,65.036v450.123c0,40.844 20.895,62.229 62.192,62.229h452.024c41.307,0 62.229-20.315 62.229-62.229v-450.123c0-42.601-20.922-65.036-63.521-65.036-.004,0-448.495-.143-448.353,0z"/>
<g stroke="#fff">
<g stroke-linecap="round">
<g fill="#fff" stroke-linejoin="round" stroke-width="15" transform="translate(20 12)">
<path opacity=".985" d="m391.6773,24.4909c-11.6635,4.3616-27.6453,10.8498-33.6343,10.8498-5.9891,0-10.8498-4.8607-10.8498-10.8498 0-5.9891 4.8607-10.8498 10.8498-10.8498 5.7084,.2192 22.3059,6.9647 33.6343,10.8498z" transform="translate(15.1897 15.1897)"/>
<path opacity=".985" d="m396.3829,39.6806c11.6635,4.3616 27.6453,10.8498 33.6343,10.8498 5.9891,0 10.8498-4.8607 10.8498-10.8498 0-5.9891-4.8607-10.8498-10.8498-10.8498-5.7084,.2192-22.3059,6.9647-33.6343,10.8498z"/>
</g>
<g stroke-width="30" transform="translate(20 12)">
<path fill="none" fill-rule="evenodd" d="m401.4421,39.1381v66.1837l.8137,25.7682"/>
<path opacity=".985" fill="#fff" stroke-linejoin="round" d="m424.2267,125.3939a22.7846,45.5691 0 1,1 -45.5691,0 22.7846,45.5691 0 1,1 45.5691,0z"/>
</g>
</g>
<g transform="translate(20 12)">
<path fill="none" fill-rule="evenodd" stroke-width="50" d="m522.9597,130.8188l-177.9369-1.0053-14.1043-.0797c-69.4386-1.085-65.0987,64.0137-65.0987,64.0137"/>
</g>
</g>
<g fill="#fff">
<path d="m401.2034,264.6652h-.1578c.1804-.1559 .2797-.313 .2797-.4714 0-3.7314-50.9501-6.7563-113.8013-6.7563-62.8506,0-113.8013,3.0249-113.8013,6.7563 0,.1584 .0993,.3155 .2803,.4714h-.2803l35.5174,270.8355h.1603c-.3142,.1697-.4808,.3419-.4808,.516 0,2.5781 35.1931,4.6666 78.6057,4.6666 43.4132,0 78.6057-2.0885 78.6057-4.6666 0-.1741-.1672-.3469-.4808-.516l35.5532-270.8355zm-58.3574,251.0345c-1.8195,1.6837-109.7354,.8947-111.5549-.789l-33.7389-233.8467c57.5856,.1919 99.0558,3.0542 177.3356-1.578l-32.0418,236.2138z"/>
<path opacity=".1" fill-rule="evenodd" d="m188.1914,276.6434l194.8874,1.578-31.5607,249.5493-133.344,1.578-29.9827-252.7054z"/>
</g>
</svg>
