<svg xmlns="http://www.w3.org/2000/svg" viewBox="0 0 580 580">
<path fill="#111" stroke="#eee" stroke-width="3.408" d="m66.275,1.768c-41.335,0-64.571,21.371-64.571,65.036v450.123c0,40.844 20.895,62.229 62.192,62.229h452.024c41.307,0 62.229-20.315 62.229-62.229v-450.123c0-42.601-20.922-65.036-63.521-65.036-.004,0-448.495-.143-448.353,0z"/>
<path fill="#fff" stroke="#fff" stroke-linejoin="round" line-height="normal" stroke-linecap="round" color="#000" stroke-width="4.217" d="m45.4074,51.7326c0,0-16.3502,50.0482 11.143,86.6862 13.9944,21.2349 49.465,43.5623 81.75,53.8306l47.9532,52.5884c-8.9627-5.88-19.7971-11.6725-32.4216-16.1963-41.4079-14.8379-97.0497,2.8797-96.293,1.2174 0,0 19.5753,56.0518 62.6454,71.6464 24.6354,10.662 77.1279,7.0851 94.357-23.2405 29.4248,34.5755 55.9899,55.9258 80.3389,70.0003-27.7279-3.2848-55.7936-4.0723-83.5577-1.1137-37.6417,5.8406-57.7874,32.1857-97.3717,53.5952-2.8719,1.9333-12.9384,11.6426-16.4721,12.0773 36.8043,21.5252 73.1544,55.128 108.2814,59.1565 69.0712,7.9214 133.6003-43.0023 131.6934-104.5302 14.586,4.9469 28.3611,8.296 41.5207,11.8495 24.4215,6.5944 40.509,13.9399 63.5955,33.478 23.0865,19.5381 41.2891,51.663 68.3183,108.3834l23.2925-5.4165c-27.485-57.6767-52.6046-91.4171-77.5469-112.5258-24.9425-21.1087-49.5128-29.1824-74.3522-35.8897-11.3455-3.0636-8.8108,.1619-20.5885-3.4489 57.2693-33.5127 48.1778-180.2404-63.5228-227.616-34.7039,98.0938-3.5057,169.4332 38.2867,218.4638-30.175-12.9859-77.4286-41.6556-117.3359-90.2475 60.9039-61.8615 42.9091-131.8127-36.098-195.8809-36.7074,77.3401-18.1936,123.2386 10.3577,165.6153l-43.0095-47.238c-.0153-14.6126-2.612-45.4479-22.073-71.2039-26.517-35.0944-84.4347-63.0641-82.8911-64.0404z"/>
</svg>
