<svg xmlns="http://www.w3.org/2000/svg" viewBox="0 0 580 580">
<path fill="#111" stroke="#eee" stroke-width="3.408" d="m66.275,1.768c-41.335,0-64.571,21.371-64.571,65.036v450.123c0,40.844 20.895,62.229 62.192,62.229h452.024c41.307,0 62.229-20.315 62.229-62.229v-450.123c0-42.601-20.922-65.036-63.521-65.036-.004,0-448.495-.143-448.353,0z"/>
<g fill="#fff" color="#000">
<path d="m111.25,35.5625c-3.0314-.1333-5.8782,2.6221-5.8438,5.6562l1.9375,275.5625c.0509,7.1683 4.7287,12.8059 10.625,17.9062 5.8963,5.1004 13.5816,9.7627 22.0312,13.875 16.8992,8.2246 36.4472,14.2188 50.6875,14.2188 18.3814,0 40.0062-7.1611 61.0938-14.0625 21.0876-6.9014 41.7005-13.5 55.3438-13.5 13.6433,0 30.0778,6.491 47.75,13.4062 17.6722,6.9152 36.651,14.1562 56.4375,14.1562 38.951,0 82.1875-22.0312 82.1875-22.0312 1.8455-.9231 3.0913-2.9366 3.0938-5v-288.0625c-.004-1.8948-1.0439-3.7557-2.656-4.7515-1.6121-.9959-3.7416-1.0932-5.4378-.2485 0,0-42.5902,20.8438-77.1875,20.8438-16.9877,0-34.7741-6.5312-52.3438-13.4062-17.5697-6.8751-34.8419-14.1562-51.8438-14.1562-17.0018,0-37.763,7.1736-58.8125,14.0625-21.0495,6.8889-42.2968,13.5-57.625,13.5-15.307,0-34.8529-6.6603-50.2188-13.5-15.3658-6.8397-26.5625-13.6562-26.5625-13.6562-.7989-.4871-1.7216-.7694-2.6562-.8125z"/>
<path fill-rule="evenodd" d="m95.375,33.3125c-2.9283,.0023-5.5914,2.6655-5.5938,5.5938v518.6562c.0023,2.9283 2.6655,5.5914 5.5938,5.5938h16.4062c2.9283-.002 5.5914-2.6655 5.5938-5.5938v-518.6562c-.002-2.9282-2.6655-5.5914-5.5938-5.5938h-16.4062z"/>
<path stroke="#fff" stroke-linejoin="round" stroke-linecap="round" stroke-width="2.502" d="m137.826,86.1263c0,0-6.1902,30.6157 12.5312,50.3125 9.7074,11.5495 32.1447,22.2649 51.875,26.0938l31.875,27.6875c-5.6858-2.848-12.4685-5.5156-20.2188-7.3125-25.4204-5.8936-56.9878,8.3753-56.6562,7.3438 0,0 15.3918,31.6811 41.8438,37.9062 15.25,4.5872 45.9347-1.1327 54-20.1875 19.7177,18.3485 36.8402,29.101 52.1563,35.7188-16.5645-.0275-33.1562,1.4398-49.3125,5.0938-21.7782,6.0319-31.836,22.9419-53.6875,38.2812-1.5592,1.3368-6.8227,7.7507-8.875,8.25 23.168,10.1509 46.8994,27.4497 67.875,27.4062 41.2449-.0855 75.7639-34.5325 70.4062-70.6562 8.9351,1.9112 17.2825,2.9367 25.2812,4.125 14.844,2.2052 28.3644,5.0135 43.3125,14.9375 14.9481,9.924 31.42,27.1879 51.25,58.75l6.2813-3.9688c-20.1644-32.0943-37.2878-50.247-53.4375-60.9688-16.1498-10.7218-31.1833-13.7883-46.2813-16.0312-6.8961-1.0245-13.8428-1.8703-21.0312-3.1875 31.4394-23.6881 15.9852-109.5209-53.0938-129.75-13.6988,60.1893 9.5938,100.0787 37.5938,126.0938-18.6741-5.5753-39.8285-16.645-66.6875-42.5312 31.6302-40.6426 16.2132-80.6226-34.75-112.9375-16.3075,48.0982-2.2398,73.8696 17.5,96.875l-28.5938-24.875c-1.0146-8.6093-4.6666-26.6001-17.9062-40.4375-18.04-18.8544-54.0924-31.3498-53.25-32.0313z"/>
</g>
</svg>
