<svg xmlns="http://www.w3.org/2000/svg" viewBox="0 0 580 580">
<path fill="#111" stroke="#eee" stroke-width="3.408" d="m66.275,1.768c-41.335,0-64.571,21.371-64.571,65.036v450.123c0,40.844 20.895,62.229 62.192,62.229h452.024c41.307,0 62.229-20.315 62.229-62.229v-450.123c0-42.601-20.922-65.036-63.521-65.036-.004,0-448.495-.143-448.353,0z"/>
<g fill="#fff" transform="translate(20)">
<path d="m276.2402,45.5312c-23.1185,2.4977-107.3444,41.0674-109.8422,239.4919-2.6139,209.1125 86.6655,253.0842 110.0745,252.6776v-138.0723c-19.2848,0-23.1185-20.9693-27.5912-64.3021-2.8462-28.6949-3.7175-64.1278 0-99.3865 2.7301-24.745 7.2608-48.9091 27.4751-48.9091l-.1162-141.4995z"/>
<path d="m340.1357,537.9331c8.9454,0 15.3349-7.2609 15.3349-15.4511l.1162-.1162c0,0-.1162-107.5768-.1162-107.6929 0-8.4807-6.9123-15.2187-15.3349-15.2187h-39.1505v138.4209c0,0 39.0343,.1162 39.0343,0h.1162z"/>
<path d="m340.1357,187.0307c8.9454,0 15.3349-7.2609 15.3349-15.4511h.1162c0,0-.1162-110.7135-.1162-110.8296 0-8.4807-6.9123-15.2187-15.3349-15.2187h-39.1505v141.4995l39.0343,.1162 .1162-.1162z"/>
</g>
</svg>
