<svg xmlns="http://www.w3.org/2000/svg" viewBox="0 0 580 580">
<path fill="#111" stroke="#eee" stroke-width="3.408" d="m66.275,1.768c-41.335,0-64.571,21.371-64.571,65.036v450.123c0,40.844 20.894,62.229 62.192,62.229h452.024c41.307,0 62.229-20.316 62.229-62.229v-450.123c0-42.601-20.922-65.036-63.522-65.036-.003,0-448.494-.143-448.352,0z"/>
<g stroke="#fff" stroke-linejoin="round" stroke-linecap="round">
<g transform="matrix(1.07122 0 0 1.07122 11.01045 -120.68715)">
<path fill="none" stroke-width="37.377" d="m68.6885,524.1639 0-280.3279 190.6229,0 0,280.3279"/>
<path opacity=".1" fill="#fff" stroke-width="40" d="m82.0244,263.216h161.2206v257.387h-161.2206z"/>
</g>
<g fill="none" stroke-width="42.849" transform="translate(306)">
<path d="m53.4571,288.6498 160.5832,0-39.3883-75.7468"/>
<path d="m53.4571,294.3158 160.5832,0-39.3883,75.7468"/>
</g>
</g>
</svg>
