<svg xmlns="http://www.w3.org/2000/svg" viewBox="0 0 580 580">
<path fill="#111" stroke="#eee" stroke-width="3.408" d="m66.275,1.768c-41.335,0-64.571,21.371-64.571,65.036v450.123c0,40.844 20.895,62.229 62.192,62.229h452.024c41.307,0 62.229-20.315 62.229-62.229v-450.123c0-42.601-20.922-65.036-63.521-65.036-.004,0-448.495-.143-448.353,0z"/>
<g fill-opacity=".39">
<g fill="#fff">
<path d="m153.1351,124.0803a224.0212,214.0476 0 0,1 261.3338,4.129l-133.6753,171.7643z" transform="matrix(-1.73392 0 0 -2.40491 778.19436 744.44854)"/>
<path d="m239.9972,143.1165a122.7513,234.7619 0 0,1 143.1966,4.5286l-73.2467,188.3867z" transform="matrix(-3.04662 0 0 -2.11765 1237.1249 734.61229)"/>
</g>
<g>
<path d="m316.0846,223.254a39.8942,37.5926 0 1,1 -79.7884,0 39.8942,37.5926 0 1,1 79.7884,0z" transform="matrix(.67308 0 0 .65306 51.16605 141.13271)"/>
<path d="m316.0846,223.254a39.8942,37.5926 0 1,1 -79.7884,0 39.8942,37.5926 0 1,1 79.7884,0z" transform="matrix(.67308 0 0 .65306 145.53115 216.31787)"/>
<path d="m316.0846,223.254a39.8942,37.5926 0 1,1 -79.7884,0h39.8942z" transform="matrix(.3043 .60036 -.58251 .29525 472.27177 48.79305)"/>
<path d="m316.0846,223.254a39.8942,37.5926 0 1,1 -79.7884,0 39.8942,37.5926 0 1,1 79.7884,0z" transform="matrix(.67308 0 0 .65306 137.85918 47.53482)"/>
<path d="m316.0846,223.254a39.8942,37.5926 0 1,1 -79.7884,0h39.8942z" transform="matrix(.32484 -.5895 .57197 .31518 15.80532 220.0184)"/>
<path d="m316.0846,223.254a39.8942,37.5926 0 1,1 -79.6166-3.4843l39.7225,3.4843z" transform="matrix(.28987 -.60746 .58939 .28125 -106.61737 462.6994)"/>
<path d="m316.0846,223.254a39.8942,37.5926 0 1,1 -79.7884,0 39.8942,37.5926 0 1,1 79.7884,0z" transform="matrix(.67308 0 0 .65306 28.91739 268.4872)"/>
<path d="m316.0846,223.254a39.8942,37.5926 0 1,1 -79.7884,0 39.8942,37.5926 0 1,1 79.7884,0z" transform="matrix(.67308 0 0 .65306 208.4412 303.77821)"/>
</g>
</g>
</svg>
