<svg xmlns="http://www.w3.org/2000/svg" viewBox="0 0 580 580">
<path fill="#111" stroke="#eee" stroke-width="3.408" d="m66.275,1.768c-41.335,0-64.571,21.371-64.571,65.036v450.123c0,40.844 20.895,62.229 62.192,62.229h452.024c41.307,0 62.229-20.315 62.229-62.229v-450.123c0-42.601-20.922-65.036-63.521-65.036-.004,0-448.495-.143-448.353,0z"/>
<path fill="#fff" line-height="125%" d="m-4.9023-73.1089l-2.1204,7.4805h-10.7996l2.6001,20.6396h8.8391l2.6404-20.6396h-1.9995l2.0801-7.1204-1.2402-.3601zm-14.2004,19.5203c.2132-1.8669-1.2-2.88-4.2395-3.0396h-7.3206c-3.0396,.1595-4.4661,1.1727-4.2798,3.0396h15.8398zm-15.8398,5.6006c-.1864,1.866 1.2402,2.8658 4.2798,2.9993h7.3206c3.0395-.1335 4.4527-1.1332 4.2395-2.9993h-15.8398zm15.1599-4.1602h-14.5203c-.3727,0-.6925,.1333-.9595,.3998-.2669,.2665-.4004,.5731-.4004,.9198 0,.4004 .1335,.7271 .4004,.9802 .2669,.2531 .5867,.3796 .9595,.3796h14.5203c.3735,0 .6935-.1265 .9601-.3796 .2665-.2531 .3998-.5798 .3998-.9802 0-.3467-.1333-.6533-.3998-.9198-.2665-.2665-.5866-.3998-.9601-.3998z" transform="matrix(14.68584 0 0 14.68584 577.76584 1150.0639)"/>
</svg>
