<svg xmlns="http://www.w3.org/2000/svg" viewBox="0 0 580 580">
<path fill="#111" stroke="#eee" stroke-width="3.408" d="m66.275,1.768c-41.335,0-64.571,21.371-64.571,65.036v450.123c0,40.844 20.895,62.229 62.192,62.229h452.024c41.307,0 62.229-20.315 62.229-62.229v-450.123c0-42.601-20.922-65.036-63.521-65.036-.004,0-448.495-.143-448.353,0z"/>
<g fill="#fff">
<path d="m290.375,61.0938c-51.8106,.0076-105.4099,13.8934-149.9688,37.5-44.2069,23.4383-79.6486,56.4642-95.0625,95.5-8.0244,7.3436-13.8969,15.2507-17.125,23.7188-4.322,10.5794-6.5236,23.4959-6.5312,36.875 0,12.4382 1.9304,25.2738 6,37.0312-1.3081,7.9556-1.875,15.971-1.875,23.7812 0,12.9431 1.577,25.3448 4.0938,36.0312 2.532,10.7094 5.9278,19.6884 9.875,25.9688l.2812,.4688c1.0786,1.8818 2.2538,3.7342 3.5312,5.5625 1.0097,14.6719 3.3608,30.7045 8.5625,41.4062l1.0312,2.1562h.0312c12.553,25.0218 42.724,45.8372 83.6875,60.9375 42.2334,15.498 96.1747,24.75 155,24.75 58.8253,0 112.7979-9.252 155.0312-24.75 40.9635-15.1003 71.1033-35.9157 83.6562-60.9375h.0312l1.0625-2.1562c3.0981-6.3262 5.0848-14.4344 6.5-23.0938 1.3463-8.2998 2.1003-17.0514 2.4062-24.9688 3.7789-6.2497 7.0285-14.9703 9.4688-25.3125 2.5091-10.6941 4.0938-23.0882 4.0938-36.0312 0-7.7949-.5822-15.7938-1.875-23.7188 4.0849-11.7804 6.0232-24.6562 6.0312-37.125-.0077-13.4862-2.2418-26.4921-6.625-37.125-2.8686-7.4048-7.804-14.3423-14.375-20.875-13.907-40.5887-49.2818-74.278-94.0625-97.9688-45.1325-23.8514-99.9705-37.6174-152.875-37.625zm0,7.6562c58.9094-.0153 120.6749,17.6225 167.4062,47.2188 23.3542,14.779 42.9635,32.5256 56.6562,52.4375 13.6928,19.9272 21.5,41.9642 21.5,65.5938-.0077,9.0188-2.5047,17.0403-7.125,24.4375-4.2455,6.8234-10.397,13.0664-18.0312,18.75-.8261-.5431-1.5596-.7061-2.1562-.8438-.7114-.1377-1.307-.1562-1.7812-.1562-.5814,0-.9554,.0472-1.0625,.0625h-.1562l-.125,.0312c-7.1982,1.3081-12.4008,3.427-17.2812,5.5-4.9034,2.0807-9.4839,4.0874-16.0625,5.625-5.5842,1.3234-12.6349,2.502-18.9688,5.5312-3.1593,1.5223-6.1841,3.5613-8.5938,6.4375-1.8206,2.1572-3.2765,4.7756-4.1562,7.8125-17.9306,4.6433-36.9703,8.2206-55.75,10.875-36.4503,5.1635-71.9238,6.9375-96.5938,6.9375-36.5421,.0153-96.1731-6.7023-147.2188-20.9688-.6732-1.2163-1.473-2.3404-2.4062-3.2812-4.0007-4.0696-9.4296-5.9305-14.5625-7.4375-5.1405-1.4611-10.2105-2.4955-13.125-3.75-4.0237-1.6676-9.3955-5.2885-15.125-8.5625-5.7678-3.2434-11.9705-6.3214-18.6562-6.375-1.637,0-3.2928,.2209-4.9375,.6875-.3136-.2065-.6551-.4185-.9688-.625-8.3457-5.6607-14.9701-11.7459-19.4375-18.1562-4.475-6.4256-6.8049-13.0823-6.8125-20.25 .0076-23.2242 7.7919-45.2011 21.5-65.2812 20.5391-30.1011 54.4346-55.7588 94.2812-73.7812 39.839-18.0454 85.6043-28.4764 129.75-28.4688zm-213.375,213.5c4.1078-.0535 9.482,2.2693 14.875,5.375 5.4312,3.0675 10.8206,6.781 15.9688,8.9688 2.7691,1.1551 5.8969,1.9162 9.125,2.75 4.8269,1.2239 9.8217,2.5896 13.1875,4.5938 1.6829,.9944 2.9468,2.1039 3.75,3.3125 .7038,1.0709 1.1742,2.2297 1.2812,3.8438h-.0312c-4.5515,.0459-10.199-1.8345-15.875-2.5-5.653-.6196-11.6909-.9375-17.7188-.9375-2.3943,0-4.7925,.0492-7.1562,.1562-6.9688,.2983-13.5232,2.2634-19.75,5.0938-3.3199,1.5299-5.973,3.6978-8.375,5.2812-1.2469,.8415-2.3576,1.4855-3.375,1.9062-.4284-1.2086-.8835-2.2792-1.2812-3.2812-.765-1.9047-1.349-3.5194-1.5938-5.5312-.0229-.2218-.0312-.4351-.0312-.6875-.0153-1.3234 .4512-3.2209 1.0938-5.1562 .6273-1.9583 1.4084-3.9027 1.875-5.9375 1.1015-4.8728 2.028-6.8134 3.3438-8.6875 1.2622-1.8053 3.3285-3.8116 6.2812-7.4375l.75-.4688c1.1474-.4437 2.3329-.6562 3.6562-.6562zm428.3125,1.875c-.0688,1.6523-.1978,3.8703-.3125,6.2188-.1989,3.7712-.3986,7.9268-.4062,11.0938 0,.6808 .0396,1.3249 .0625,1.9062 .0918,2.2643 .5085,5.0735 .9062,8.1562 .4054,3.0598 .7812,6.306 .7812,8.9375 .0383,2.2872-.3962,4.1086-.6562,4.4375-.5125,.8644-1.0584,1.3293-1.9688,1.75-.895,.3978-2.1825,.6327-3.7812,.625-3.603,.0229-8.502-1.2782-13-2.9688-4.5209-1.6829-8.6395-3.681-11.1562-4.8438-5.8672-2.7079-11.9134-6.3202-19.2188-7.7812-1.6064-.3213-3.1071-.4139-4.4688-.4062-1.9583,.0077-3.6332,.1888-4.75,.25v-.0312c.4896-3.144 1.5715-5.3592 3.0938-7.1875 2.2796-2.7309 5.801-4.6397 10.0312-6.0625 4.2149-1.4228 9.0084-2.3111 13.4375-3.3438 7.2747-1.6982 12.462-3.9888 17.2812-6.0312 4.4291-1.8818 8.5485-3.556 14.125-4.7188zm-466.2188,22.8438c.9791,1.5529 2.0235,3.0619 3.125,4.5 29.8028,43.7403 129.4422,75.8438 247.7812,75.8438 118.3085,0 217.9243-32.0951 247.75-75.8125h.0312c1.0939-1.4458 2.1146-2.9471 3.0938-4.5-16.7143,47.9552-92.4699,86.3591-190.4688,97.7188 .1606-.4972 .2672-1.0194 .3438-1.5625l.2812-2.0938-1.625-1.3438c-4.2991-3.4959-9.7524-4.2194-15-4.25-6.3568,.0077-12.794,1.2158-17.0625,1.8125-9.0112,1.2928-18.7777,3.3517-27.7812,3.3438-1.6141,0-3.2284-.0734-4.7812-.2188-10.3805-.9256-20.6321-3.8068-31.9688-5.375-2.096-.2907-4.1859-.5312-6.3125-.5312-3.427-.0077-7.0271,.6495-10.5,2.5312-1.331,.7267-2.9382,1.7564-4.4375,3.1562-.742,.7038-1.4741,1.482-2.0938,2.4688-.3442,.5584-.6532,1.2267-.875,1.9688-97.5475-11.5203-172.8775-49.854-189.5-97.6562zm493.5625,75.25c-.2983,4.7274-.756,9.6253-1.4062,14.4062-1.1704,8.6287-3.0056,16.8917-5.4688,22.8125h-.0625l-1,2.25c-10.1893,22.8493-39.2062,44.0789-80.4375,59.1562-41.1777,15.1309-94.3529,24.2812-152.375,24.2812-58.0221,0-111.1897-9.1504-152.375-24.2812-41.2313-15.0697-70.2483-36.3069-80.4375-59.1562l-1-2.25h-.0625c-2.4632-5.9208-4.306-14.1838-5.4688-22.8125-.4054-2.9833-.7399-6.0014-1-9 35.9913,42.5623 129.1632,72.875 238.4375,72.875 113.8564,0 210.2067-32.9039 242.6562-78.2812zm-286.1562,19.9375c1.5835,0 3.3536,.1698 5.2812,.4375 10.6635,1.4534 20.9988,4.3895 32.3125,5.4375 1.813,.1606 3.6169,.2188 5.4375,.2188 10.0974-.0153 20.2157-2.1587 28.875-3.375 4.5133-.6502 10.5834-1.7577 15.9688-1.75 2.9221-.0229 5.55,.3198 7.5312,1.0312-.2065,.1989-.4274,.4108-.6875,.625-2.073,1.7212-5.8647,3.5142-9.7812,5.2812-3.9242,1.8206-8.004,3.5912-11.125,6.4062-3.9013,3.6182-7.5419,8.3635-11.3438,12.5938-3.7712,4.2379-7.6776,7.8431-11.25,9.2812-1.4687,.6043-2.9305,.8673-4.4375,.875-3.8095,.0306-8.1977-1.8585-12.3438-4.75-4.1537-2.8686-8.0147-6.629-10.9062-9.75-3.7636-4.0543-8.4681-8.4908-13.9375-12.0938-5.4694-3.5876-11.7397-6.3529-18.5938-6.7812l-.75-.0625c.1912-.1912 .4191-.4025 .6562-.5938 .7344-.5814 1.6068-1.1086 2.2188-1.4375 2.2184-1.178 4.2971-1.5784 6.875-1.5938z"/>
<path opacity=".25" d="m290.375,61.0938c-51.8106,.0076-105.4099,13.8934-149.9688,37.5-44.2069,23.4383-79.6486,56.4642-95.0625,95.5-8.0244,7.3436-13.8969,15.2507-17.125,23.7188-4.322,10.5794-6.5236,23.4959-6.5312,36.875 0,12.4382 1.9304,25.2738 6,37.0312-1.3081,7.9556-1.875,15.971-1.875,23.7812 0,12.9431 1.577,25.3448 4.0938,36.0312 2.532,10.7094 5.9278,19.6884 9.875,25.9688l.2812,.4688c1.0786,1.8818 2.2538,3.7342 3.5312,5.5625 1.0097,14.6719 3.3608,30.7045 8.5625,41.4062l1.0312,2.1562h.0312c12.553,25.0218 42.724,45.8372 83.6875,60.9375 42.2334,15.498 96.1747,24.75 155,24.75 58.8253,0 112.7979-9.252 155.0312-24.75 40.9635-15.1003 71.1033-35.9157 83.6562-60.9375h.0312l1.0625-2.1562c3.0981-6.3262 5.0848-14.4344 6.5-23.0938 1.3463-8.2998 2.1003-17.0514 2.4062-24.9688 3.7789-6.2497 7.0285-14.9703 9.4688-25.3125 2.5091-10.6941 4.0938-23.0882 4.0938-36.0312 0-7.7949-.5822-15.7938-1.875-23.7188 4.0849-11.7804 6.0232-24.6562 6.0312-37.125-.008-13.4862-2.2418-26.4921-6.625-37.125-2.8686-7.4048-7.804-14.3423-14.375-20.875-13.9069-40.5887-49.2818-74.278-94.0625-97.9688-45.1325-23.8514-99.9705-37.6174-152.875-37.625z"/>
</g>
</svg>
