<svg xmlns="http://www.w3.org/2000/svg" viewBox="0 0 580 580" xmlns:xlink="http://www.w3.org/1999/xlink">
<path fill="#111" stroke="#eee" stroke-width="3.408" d="m66.275,1.768c-41.335,0-64.571,21.371-64.571,65.036v450.123c0,40.844 20.896,62.229 62.192,62.229h452.024c41.307,0 62.229-20.314 62.229-62.229v-450.123c0-42.601-20.922-65.036-63.521-65.036-.004,0-448.495-.143-448.353,0z"/>
<g fill="#fff" fill-rule="evenodd">
<path d="m170.8465,479.7176c-36.5817-20.633-58.8772-68.8752-42.4145-140.9764 11.5488-50.58 45.2012-113.0037 19.4101-164.9818 31.286,21.6245 63.8135,73.0468 96.6184,131.125 2.262-62.8077-30.3292-103.9593-6.9013-189.7861 16.0755,106.1788 80.5594,112.7599 113.2965,209.3398 13.9247-45.409 42.8907-60.355 28.7555-173.1079 142.3425,194.3976 61.2145,263.454 32.7812,332.9884l9.2018-96.6184c-44.6437,129.0499-80.4125,152.8579-112.7215,181.7346 18.0572-60.5782 25.1776-121.1564-11.5022-181.7346-8.9051,99.4623-34.0389,78.7642-39.1074,158.7302-50.2543-37.9296-60.5756-76.8379-69.5882-140.3267-6.8372,7.4291-18.3819,38.4808-17.8284,73.614z"/>
<path d="m274.9413,15.6043c-37.2258,151.1583 30.7395,149.8302 68.4381,238.6704 26.4426-136.9883-52.6631-106.1659-68.4381-238.6704z"/>
</g>
</svg>
