<svg xmlns="http://www.w3.org/2000/svg" viewBox="0 0 580 580" xmlns:xlink="http://www.w3.org/1999/xlink">
<path fill="#111" stroke="#eee" stroke-width="3.408" d="m66.275,1.768c-41.335,0-64.571,21.371-64.571,65.036v450.123c0,40.844 20.896,62.229 62.192,62.229h452.024c41.307,0 62.229-20.314 62.229-62.229v-450.123c0-42.601-20.922-65.036-63.521-65.036-.004,0-448.495-.143-448.353,0z"/>
<g fill="#fff">
<g>
<path stroke="#fff" stroke-linejoin="round" stroke-linecap="round" stroke-width="9.5" d="m287.5475,24.8294c-24.5642,.0677-44.9223,15.567-65.5235,26.9873-23.6266,12.3658-50.6274,17.6871-77.221,16.1805-8.0091,.3057-20.0864,.3244-22.5339,9.8864-2.1579,9.8972 7.8342,15.9153 12.764,22.9052 11.4565,13.4113 23.0763,26.5269 35.154,39.3229 1.8282-2.5579 9.4379-4.2666 4.7588-7.4636-13.4647-16.0576-28.7322-30.8211-40.6231-48.0844-1.0416-7.2314 7.6892-8.7905 13.0927-8.1778 20.5879-.1581 42.2386,1.0503 60.8922-9.1012 27.4969-12.5218 52.8428-33.8927 84.4948-34.172 30.3867,.5887 55.3673,20.3339 81.2587,33.786 18.3505,10.378 38.7856,17.8937 60.0905,17.1602 6.9719,.55 15.773-1.0349 20.8417,4.6909 2.876,7.1396-5.6677,10.8523-9.1814,15.6536-11.7667,11.7878-23.5835,23.5224-35.4114,35.2332 2.9898,1.2593 5.9977,7.3639 8.6562,4.7225 16.1209-16.6222 33.6732-31.8891 48.2872-49.8497 2.2937-6.3243-.5509-15.2557-8.2845-15.639-17.9931-4.0761-36.9881-1.9607-54.7748-7.5481-33.8053-9.0252-59.7367-36.5862-93.8171-44.7116-7.4682-1.5937-15.2243-1.9246-22.9199-1.7813zm-200.6083,86.4839c-7.4804-.1089-9.4297,8.7916-9.366,14.6311-1.7421,17.5864-1.1822,35.9373-8.5656,52.3192-12.4306,34.6684-41.0447,62.8987-44.7994,100.6102-2.5527,26.1443 10.5643,49.8937 22.5051,72.1877 13.4532,25.2235 25.0519,53.1061 22.3235,82.3177-.3794,8.1223-.2968,19.8589 8.3723,23.4543 7.6005,2.0751 12.7404-5.647 18.6447-8.877 15.0589-11.1471 28.9742-23.4877 42.8412-36.0424-2.8239-2.3273-4.8055-10.4058-8.4592-4.8614-15.0415,12.3872-29.1424,26.1034-45.0699,37.2521-7.0023,1.0108-8.4986-7.6662-7.6598-12.8256 .495-17.5436 .1755-35.6624-8.0457-51.5104-13.1346-30.4626-35.8001-58.286-37.2596-92.6889-.0771-31.584 20.1665-57.8035 34.647-84.1979 10.4552-18.1273 18.3158-38.2298 17.6056-59.4373 .6199-6.216-1.3514-15.1109 4.8393-18.8822 7.4534-2.0534 11.0766,6.7978 16.2695,10.3318 11.6531,11.4028 22.6948,23.2738 34.647,34.4095 2.6995-3.4627 8.2733-6.9219 2.1953-10.0483-16.3646-16.4168-31.7433-33.8695-50.1133-48.053-1.8456-.1638-3.7015-.1288-5.5518-.0891zm407.4216,11.3115c-7.3539,3.5703-11.6933,11.1389-18.4364,15.6429-11.5335,10.6634-23.3167,21.0509-34.6474,31.9188 2.7085,1.8442 4.5935,9.7692 7.7721,5.3913 15.1099-13.2381 29.0855-28.1614 45.4008-40.0087 6.8662-1.5628 8.8952,6.9841 7.8973,12.0537-.43,18.624 .4596,37.8643 9.2268,54.717 13.0417,31.0616 34.5394,60.1686 35.7223,94.9451-.8323,30.2854-20.7273,55.0335-34.8252,80.3977-10.1943,17.1618-17.7315,36.5299-16.9227,56.8544-.695,6.5226 1.0904,15.7245-5.2846,19.7729-7.27,2.3851-11.5318-6.1098-16.437-9.718-10.9063-10.4009-21.816-20.7983-32.7279-31.1934-1.2403,2.8687-7.8419,5.8402-3.3549,8.3129 17.0249,15.734 32.4213,33.4115 51.0056,47.0273 7.7096,1.2974 13.2254-6.475 13.0631-13.5382 2.4386-16.4053 1.1859-33.6592 7.7785-49.2837 10.4037-32.0501 35.3358-57.4091 43.7615-90.1654 5.3288-23.2158-.2414-47.6726-11.3412-68.3737-14.6859-30.8806-33.0653-62.6132-31.4109-98.0923-.4124-8.6418 .685-19.2053-5.9675-25.7106-3.2146-1.3148-6.8931-.8476-10.2724-.95zm-337.9791,317.8797c-14.4268,16.3481-32.1724,29.6688-44.4147,47.7992-2.416,7.8873 5.3138,15.1177 12.9903,14.6179 16.4846,2.1552 33.7904,.8999 49.4456,7.5597 30.5176,9.8727 55.2292,33.1602 86.1315,42.2003 26.6602,7.0051 55.229,1.1287 78.6485-12.6528 29.0669-14.1617 59.6492-29.8491 92.9792-27.7036 8.0283-.4037 17.639,.2305 23.9-5.258 2.9727-5.841 1.2508-13.0285-4.0138-16.9562-13.3288-15.8298-27.8854-30.9081-41.44-46.6078-1.374,2.3185-9.792,4.4248-5.1956,6.5613 12.8414,14.8702 27.7213,28.635 39.4269,44.6819 2.5894,6.5777-5.7971,9.9726-11.074,9.1145-22.4934-1.6049-45.1558,2.2628-65.286,12.6178-28.6796,13.3844-57.4531,32.6406-90.5513,30.6984-33.2612-2.2578-59.1751-25.6624-88.0278-39.6348-15.5115-7.8563-32.7041-11.4981-50.0259-11.3115-5.5075-.008-15.0966,.4062-15.3195-7.155 1.1191-6.843 8.5854-10.0172 12.2426-15.4123 10.4003-10.751 20.758-21.5349 31.1627-32.2682-3.3189-1.7129-6.5693-8.6647-9.4445-3.0911-.7114,.7335-1.4228,1.467-2.1342,2.2005z"/>
</g>
<g fill-rule="evenodd" transform="matrix(1.04788 0 0 1.04788 -14.01647 -23.01651)">
<path d="m198.6715,429.1347c-27.9052-15.7392-44.9127-52.5393-32.3546-107.5395 8.8097-38.5834 34.4804-86.2014 14.8064-125.8513 23.8655,16.4956 48.6782,55.7215 73.7024,100.0246 1.7255-47.9109-23.1357-79.3021-5.2644-144.7725 12.2627,80.9952 61.4523,86.0154 86.4247,159.6884 10.622-34.6389 32.7179-46.0399 21.9352-132.05 108.5816,148.2902 46.6956,200.9678 25.0061,254.0099l7.0193-73.7023c-34.055,98.4417-61.3402,116.6029-85.9861,138.6306 13.7744-46.2102 19.206-92.4204-8.7741-138.6306-6.793,75.8717-25.9655,60.0829-29.8319,121.0824-38.3349-28.9335-46.2082-58.6134-53.0832-107.0439-5.2155,5.6671-14.0221,29.3539-13.5998,56.1542z"/>
<path d="m278.077,75.1002c-28.3966,115.3064 23.4487,114.2934 52.2058,182.0623 20.1709-104.4973-40.1724-80.9854-52.2058-182.0623z"/>
</g>
<g>
<path opacity=".1" fill-rule="evenodd" d="m83.6208,116.4316-5.564,44.5119-15.1022,38.9479-27.0251,50.0759-10.3331,37.3582 17.4868,49.281 24.6405,48.4862 10.3331,66.7678 56.4347-43.717 29.4096,31.7942-48.4862,50.8707 8.7434,7.9486 32.5891,3.1794 30.2045,7.9486 51.6656,30.2045 36.5633,11.128 34.9736-4.7691 44.5119-19.8714 38.9479-15.1023 42.1273-5.564 18.2817-11.128-45.3067-46.8964 32.589-30.2045 48.4862,46.1016 8.7434-14.3074 4.7691-42.9222 21.4611-41.3325 23.0508-43.717 5.564-30.9993-14.3074-39.7427-23.8456-44.5119-9.5383-45.3067-3.9743-34.9736-27.8199,20.6662-28.6148,25.4354-28.6148-30.9993 45.3067-49.281-9.5383-10.3331-42.9222-4.7691-40.5376-15.8971-44.5119-24.6405-32.5891-7.1537-38.9479,8.7434-37.3582,22.2559-34.1788,10.3331-54.0501,3.9743 0,9.5383 46.1016,52.4604-33.3839,28.6148-56.4347-48.4862z"/>
</g>
</g>
</svg>
