<svg xmlns="http://www.w3.org/2000/svg" viewBox="0 0 580 580" xmlns:xlink="http://www.w3.org/1999/xlink">
<path fill="#111" stroke="#eee" stroke-width="3.408" d="m66.275,1.768c-41.335,0-64.571,21.371-64.571,65.036v450.123c0,40.844 20.896,62.229 62.192,62.229h452.024c41.307,0 62.229-20.314 62.229-62.229v-450.123c0-42.601-20.922-65.036-63.521-65.036-.004,0-448.495-.143-448.353,0z"/>
<g fill="#fff">
<g>
<path d="m289.9263,19.0421c-13.6687-.0307-29.5928,4.1419-41.0094,10.7201-1.5739,.9068-4.4846,2.544-6.4736,3.6525-1.9891,1.1085-7.1239,4.0946-11.4031,6.6221-11.951,7.0589-22.4703,12.1713-30.4972,14.8477-15.9795,5.3282-30.1903,7.5249-47.78,7.3348-14.9855-.162-21.8538,.6771-27.201,3.3556-3.8187,1.9129-5.9763,3.9569-7.5723,7.1863-1.2382,2.5053-1.3669,3.0117-1.5145,6.5924-.1758,4.2657 .2592,7.128 1.4254,9.3244 .7944,1.496 3.2868,4.6744 7.1863,9.2056 1.2941,1.5037 3.4777,4.0982 4.8701,5.7609 1.3923,1.6627 4.2663,4.9795 6.3548,7.3645 2.0885,2.3849 4.4308,5.1073 5.2264,6.0579 1.6857,2.0141 8.7764,9.9142 11.9673,13.3332 1.2121,1.2988 4.3706,4.7966 7.0081,7.7802 2.9067,3.288 5.852,6.5749 8.8492,9.9183 5.0943-4.3061 10.4394-8.3632 15.9761-12.1157-.2819-.3226-.4656-.5149-.7424-.8315-4.9661-5.6797-11.3651-13.0209-14.2241-16.3028-6.6593-7.6444-11.3481-13.0055-13.6302-15.5604-.9945-1.1134-3.1303-3.5345-4.7216-5.4046-1.5912-1.8701-3.6358-4.2215-4.5434-5.2264-.9077-1.0049-2.0394-2.351-2.5241-2.9695-.4847-.6186-1.9169-2.2962-3.1774-3.7416-1.9767-2.2667-2.2234-2.7061-1.7817-3.1477 .5977-.5977 4.6917-.7623 24.8848-1.0096 19.2977-.2364 20.9989-.4804 34.1497-4.8107 7.5547-2.4876 13.4253-5.0945 22.6279-10.0668 7.6389-4.1274 16.5501-8.9876 20.4305-11.1655 9.6624-5.4233 19.8383-10.3467 24.9442-12.0563 4.1116-1.3767 11.3021-3.3231 15.2338-4.098 5.2774-1.0401 14.6618-1.1339 19.6584-.2079 11.6778,2.1642 26.9567,8.1268 38.0102,14.818 2.468,1.494 5.3555,3.1478 6.4142,3.6822 1.0586,.5344 5.1135,2.7841 9.0274,4.9888 3.914,2.2047 7.9439,4.4432 8.9383,4.9888 .9945,.5457 3.9963,2.2232 6.6815,3.7416 10.9304,6.181 22.4464,11.2128 32.8135,14.3132 7.514,2.2472 11.4958,2.8505 21.6183,3.2665 17.0453,.7004 24.4169,1.3329 24.9145,2.1381 .0905,.1464-3.771,4.2494-8.582,9.1165-8.195,8.2906-25.7349,25.6715-40.0294,39.7325 5.6745,4.1713 11.1089,8.6543 16.2731,13.4223 5.4992-5.5076 10.894-10.9386 17.55-17.5797 22.5258-22.4753 34.8766-35.046 35.6939-36.3472 2.0471-3.2594 2.1972-3.8628 2.2272-9.651 .0224-4.3422-.1146-5.7465-.683-7.4832-.8631-2.6372-3.1788-5.314-5.7015-6.5924-6.5908-3.3398-12.7201-4.6054-25.9241-5.3749-15.6034-.9093-18.4912-1.1997-25.2708-2.5241-10.3423-2.0203-20.5979-5.4757-31.685-10.6607-4.3268-2.0235-6.1966-3.0895-18.7675-10.6607-4.6003-2.7707-10.0569-5.9969-12.1454-7.1863-2.0884-1.1894-5.671-3.2872-7.9584-4.6622-11.3764-6.8384-26.4955-12.841-36.6442-14.5508-4.5975-.7746-11.6668-1.2609-18.7675-1.2769zm-199.1079,86.5028c-3.4463-.0856-7.3734,.4102-10.0074,1.3957-6.5329,2.4443-9.0976,10.1531-9.9777,30.1706-.7229,16.4435-.8534,17.4739-3.801,28.2404-2.6251,9.5887-5.3422,16.5144-11.1952,28.5076-4.3534,8.4398-8.9177,17.3701-14.6398,24.7957 0,.6592-2.729,6.2502-3.6228,7.4239-1.1502,1.5103-8.9047,16.6327-10.7497,20.965-5.032,11.816-7.5831,22.1102-8.4335,34.2388-.7899,11.2656 .5674,20.1128 5.3155,34.8327 1.9306,5.9854 6.289,15.339 14.8477,31.8335 12.2789,23.664 15.4029,30.501 19.0348,41.6924 4.9872,15.3675 5.9683,22.3406 5.7609,40.7718-.0869,7.723 .0218,13.228 .2673,14.818 1.6863,10.9237 7.3488,17.1358 16.184,17.7579 2.6594,.1873 2.9322,.1376 5.4046-1.069 3.4002-1.6595 5.6001-3.087 12.5909-8.1365 5.4376-3.9277 8.3424-6.2063 15.4713-12.0861 1.6271-1.342 3.8652-3.1137 4.9591-3.9495 1.094-.8357 3.215-2.6658 4.7216-4.0683 1.5066-1.4025 4.7319-4.2663 7.1863-6.3548 7.5735-6.4445 11.9618-10.2287 16.8076-14.5211-4.4709-5.2958-8.6594-10.8572-12.5315-16.6294-.1091,.0986-.3591,.3364-.4454,.4157-1.1988,1.1015-3.0144,2.6612-4.0089,3.4447-.9945,.7834-3.6934,3.0546-5.9985,5.0482-5.6659,4.9006-12.2575,10.5274-17.1046,14.5805-3.7664,3.1494-5.0666,4.2714-12.8581,10.9873-1.6925,1.4589-4.5928,3.8928-6.4142,5.4343-1.8214,1.5415-3.3795,2.8211-3.4744,2.8211-.6408,0-.7987-3.058-.8315-17.0155-.0243-10.3921-.1596-16.5904-.4454-18.2627-1.281-7.4944-4.2122-17.1178-7.8099-25.6569-1.8197-4.3191-7.4305-15.3538-16.1543-31.8335-10.8728-20.5393-13.7983-26.9423-16.8967-37.0599-5.2345-17.0932-5.3133-28.2607-.3563-44.3056 3.4835-11.2755 8.2129-21.1718 17.9063-37.446 14.339-24.0735 18.1973-31.4192 23.6376-44.9292 5.8432-14.5104 6.1986-16.752 7.4832-46.5624 .2397-5.5634 .3074-5.9589 .9799-6.0876 .5536-.1059 8.4653,7.6319 34.0904,33.4074 5.5445,5.577 10.4937,10.5738 14.9962,15.1447 4.1148-5.4296 8.5463-10.614 13.2145-15.5604-.416-.4201-.6976-.6928-1.1284-1.1284-18.5049-18.7004-36.6369-38.2497-56.6886-55.2632-1.3227-.4776-3.218-.7504-5.2858-.8018zm404.0955,11.1952c-2.1785,.0551-3.4964,.446-4.6622,1.2175-.7985,.5284-4.7011,3.9019-8.6711,7.513-3.97,3.611-8.2163,7.4569-9.4431,8.5226-1.2268,1.0657-5.1342,4.6482-8.7008,7.9584-12.6775,11.7662-17.513,16.1774-21.3807,19.5693-2.1546,1.8896-5.0085,4.419-6.3251,5.6124-.7138,.647-1.6977,1.5072-2.4944,2.2272 4.5448,5.2948 8.7981,10.8481 12.7393,16.6294 1.2594-1.1593 2.7126-2.4822 3.6228-3.3259 2.5751-2.3869 6.33-5.7757 8.3444-7.5426 2.0144-1.767 5.8374-5.2697 8.5226-7.7802 2.6852-2.5105 6.1889-5.7083 7.7802-7.0972 1.5912-1.3889 5.1926-4.6279 7.9881-7.216 10.8204-10.0178 13.6908-12.4703 14.0756-12.086 .2413,.2409 .4323,6.0485 .5642,16.3325 .2601,20.2838 .3219,20.6876 4.5731,34.2685 3.1347,10.0143 4.5109,13.0626 17.7579,39.7622 11.3364,22.8486 12.4583,25.3868 16.8967,37.8023 5.239,14.6546 6.6909,26.1298 4.7216,37.3569-1.1581,6.6028-1.6894,8.5673-3.801,14.0756-4.4504,11.6094-7.3257,17.1539-19.4802,37.535-3.6771,6.166-7.5791,12.7503-8.6711,14.6399-1.092,1.8896-2.5458,4.419-3.2368,5.6124-3.5842,6.1898-10.6768,22.0795-12.1751,27.2901-1.8312,6.3681-2.7912,12.5084-3.118,20.0741-.5005,11.585-1.1318,21.5926-1.4254,22.5982-.1452,.4973-.5066,.9524-.8018,1.0097-.9346,.1814-.9008,.2139-17.1343-15.2932-4.3726-4.177-14.1996-13.5269-21.8558-20.7868-3.5645-3.38-5.8875-5.6048-8.6414-8.2256-3.9763,5.2501-8.2153,10.2859-12.7097,15.0853 4.99,4.8107 10.2031,9.8381 11.7891,11.403 1.6125,1.5912 5.9892,5.8332 9.7401,9.4135 3.7508,3.5803 8.7965,8.387 11.1952,10.6904 2.3987,2.3033 8.5943,8.1655 13.7787,13.0363 10.871,10.2135 10.2312,9.8474 16.8373,9.651 3.809-.1132 4.3177-.2148 6.533-1.3066 1.5889-.7831 3.0487-1.8641 4.2761-3.2071 4.3846-4.7975 6.0238-10.8369 6.8596-25.063 .9508-16.1833 1.0232-16.7193 2.3459-22.5982 3.6476-16.2119 9.9136-31.0271 21.351-50.4525 6.5126-11.0609 9.8988-16.7857 11.6703-19.6881 2.5421-4.1649 6.6029-11.9513 8.0475-15.4119 4.1046-9.8336 4.6179-11.2072 6.1173-17.1937 4.2515-16.9751 3.8821-32.8921-1.1284-49.532-3.2342-10.7406-5.9941-17.0494-19.4505-44.6619-8.6479-17.7455-8.2298-16.7987-11.7297-26.0132-4.5618-12.0101-6.939-20.2618-8.582-29.7251-.6556-3.7761-.8132-6.6107-1.0393-18.3815-.2539-13.2146-.3047-14.1439-1.2175-18.2627-1.7095-7.7135-2.8496-10.3842-5.4046-12.7393-2.0481-1.8879-4.1799-2.5605-9.8292-3.0586-2.082-.1836-3.7114-.2707-5.0185-.2376zm-334.0143,310.9112c-11.153,11.5381-24.7237,25.4485-32.9916,33.7637-18.8612,18.969-20.672,21.2103-21.648,26.815-.9501,5.456 .0958,9.9806 3.118,13.5114 4.2861,5.0074 11.1054,7.3186 23.1327,7.8396 19.5455,.8467 22.4456,1.2454 34.0013,4.5434 14.2015,4.0531 30.2762,11.717 50.2447,23.9345 1.7902,1.0953 4.2408,2.5413 5.4343,3.2071 1.1934,.6659 4.1164,2.3525 6.5033,3.7713 16.6313,9.8864 30.2403,14.5522 45.9388,15.7386 2.9809,.2253 5.4808,.4868 5.5827,.5939 .3467,.3641 14.6324-.2459 18.0845-.7721 11.1106-1.6935 20.6122-4.497 29.6657-8.7899 2.0885-.9903 6.8028-3.2267 10.4825-4.9591 3.6797-1.7324 10.1065-4.8106 14.2835-6.8596 8.5825-4.2103 18.1826-8.7349 20.0741-9.4431 .6962-.2607 2.4875-.9805 3.9792-1.6036 10.2358-4.2749 18.5357-6.7625 30.3784-9.1462 9.0498-1.8215 8.7965-1.8235 21.7371-1.752 11.333,.0626 11.966,.0394 16.6295-.8612 5.15-.9945 11.1223-2.7398 12.6206-3.6822 2.076-1.3059 3.6865-3.9377 4.2761-6.9784 .2121-1.094 .493-4.012 .6236-6.5033 .1889-3.6021 .1305-4.7973-.2969-5.8203-.51-1.2207-7.7429-9.8366-12.8878-15.3525-2.817-3.0201-10.4226-11.5415-20.8462-23.3109-4.1397-4.6742-10.4592-11.6674-14.0459-15.5307-1.243-1.3389-2.5642-2.7753-3.8604-4.187-5.0416,4.2212-10.2983,8.1667-15.7683,11.8485 2.6456,2.8992 4.8563,5.2575 6.8003,7.3051 1.7068,1.7978 6.1442,6.6916 9.8886,10.8685 3.7444,4.177 8.2266,9.0487 9.948,10.8388 1.7214,1.7901 4.1044,4.3995 5.2858,5.7906 1.1814,1.3911 3.4639,3.9206 5.0779,5.6124 3.8817,4.069 7.7348,8.7278 7.5129,9.0868-.5203,.8417-3.8011,1.0601-16.6591,1.0393-13.5861-.022-13.7216-.0279-19.8662,1.0393-9.8932,1.7183-21.2616,5.0249-29.9924,8.7305-1.7901,.7598-12.4292,5.9336-23.6673,11.4921-27.5952,13.6491-26.4529,13.1418-38.4259,17.1046-7.0291,2.3265-11.7447,3.4941-17.4609,4.3355-3.4096,.5019-6.4272,.6914-11.017,.6533-6.8108-.0565-6.648-.0471-12.2642-.8909-7.3884-1.11-22.211-6.4836-30.4081-11.017-3.2515-1.7983-14.5837-8.3387-15.0259-8.6711-.7389-.5555-20.9485-12.2976-25.6569-14.9071-6.927-3.8392-17.1087-8.2294-25.3896-10.9576-8.8035-2.9003-13.1213-3.467-34.8921-4.5434-4.7071-.2328-8.7493-.5592-8.9977-.7127-.3333-.206-.2064-.5936 .5345-1.4848 1.2728-1.5311 11.5416-12.2199 25.152-26.1914 3.4808-3.5731 10.9609-11.3033 16.6294-17.164 1.403-1.4505 2.4689-2.5412 3.9792-4.098-5.4115-4.1468-10.6056-8.5749-15.5307-13.2739z"/>
<path d="m295.034,92.2414c.6375,4.5608 1.1807,9.1405 2.2271,13.452 .6707,3.3684 1.5844,6.6326 2.6726,9.8292 93.1401,4.8562 167.0665,81.7958 167.0665,176.1533 0,62.2286-32.1586,116.874-80.7716,148.2693-.0106,.009-.0191,.0212-.0297,.0297-.7796,.6243-1.6329,1.168-2.5241,1.6035-.0591,.0289-.1187,.061-.1782,.0891-9.316,5.7774-19.2087,10.7153-29.5767,14.6992-8.511,11.4281-18.1741,21.9019-28.5373,31.7444 93.4646-16.505 164.6909-98.3133 164.6909-196.4353 0-108.4952-87.1039-197.0543-195.0396-199.4345zm-34.031,2.1084c-96.015,14.3342-169.8876,97.3854-169.8876,197.3262 0,101.7508 76.5913,185.9418 175.1437,197.9795-13.0167-8.8172-25.0375-19.3899-34.7734-31.7147-68.3824-24.2751-117.297-89.5057-117.297-166.2647 0-85.9756 61.3606-157.4799 142.7163-173.1838 .9572-8.1638 2.3869-16.2434 4.098-24.1424zm20.7571,373.4795c-.8191,7.6625-1.0404,15.3755-.5939,23.0734 1.7959,.0839 3.5967,.1423 5.4046,.1782 2.2806-7.6477 4.4447-15.3189 6.2954-23.0437-.7643,.01-1.5199,.0297-2.2865,.0297-2.9573,0-5.8982-.0941-8.8195-.2376z"/>
</g>
<g fill-rule="evenodd" transform="matrix(.95025 0 0 .95025 14.41208 10.63833)">
<path d="m198.6715,429.1347c-27.9052-15.7392-44.9127-52.5393-32.3546-107.5395 8.8097-38.5834 34.4804-86.2014 14.8064-125.8513 23.8655,16.4956 48.6782,55.7215 73.7024,100.0246 1.7255-47.9109-23.1357-79.3021-5.2644-144.7725 12.2627,80.9952 61.4523,86.0154 86.4247,159.6884 10.622-34.6389 32.7179-46.0399 21.9352-132.05 108.5816,148.2902 46.6956,200.9678 25.0061,254.0099l7.0193-73.7023c-34.055,98.4417-61.3402,116.6029-85.9861,138.6306 13.7744-46.2102 19.206-92.4204-8.7741-138.6306-6.793,75.8717-25.9655,60.0829-29.8319,121.0824-38.3349-28.9335-46.2082-58.6134-53.0832-107.0439-5.2155,5.6671-14.0221,29.3539-13.5998,56.1542z"/>
<path d="m278.077,75.1002c-28.3966,115.3064 23.4487,114.2934 52.2058,182.0623 20.1709-104.4973-40.1724-80.9854-52.2058-182.0623z"/>
</g>
</g>
</svg>
