<svg xmlns="http://www.w3.org/2000/svg" viewBox="0 0 580 580">
<path fill="#111" stroke="#eee" stroke-width="3.408" d="m66.275,1.768c-41.335,0-64.571,21.371-64.571,65.036v450.123c0,40.844 20.895,62.229 62.192,62.229h452.024c41.307,0 62.229-20.315 62.229-62.229v-450.123c0-42.601-20.922-65.036-63.521-65.036-.004,0-448.495-.143-448.353,0z"/>
<g fill="#fff">
<path d="m387.9968,121.2986c-10.3116,22.4628-54.8014,68.3533-78.6395,57.4104-23.838-10.9429-18.0418-74.5958-7.7302-97.0586 10.3116-22.4628 45.0934-40.6343 59.6459-13.8443 30.6322-6.0479 37.0354,31.0297 26.7239,53.4925z"/>
<path d="m402.7308,252.2254c-24.6701,1.5136-86.1276-16.0437-87.7339-42.2243-1.6063-26.1805 57.244-51.1191 81.9141-52.6327 24.6701-1.5136 57.1088,20.5707 40.3614,46.0462 19.792,24.1493-9.8715,47.2971-34.5416,48.8107z"/>
<path d="m169.7149,272.4472c13.7502-20.5387 64.9674-58.7759 86.7636-44.1838 21.7961,14.5921 5.9581,76.515-7.7921,97.0536-13.7502,20.5386-50.9778,32.9519-61.088,4.1897-31.2041,1.1031-31.6337-36.5209-17.8835-57.0595z"/>
<path d="m177.2599,139.8068c24.2735,4.6587 79.4479,36.9243 74.504,62.6839-4.9439,25.7596-68.1431,35.3067-92.4165,30.648-24.2735-4.6586-50.2136-34.105-27.6658-54.625-13.1769-28.3069 21.3049-43.3655 45.5784-38.7069z"/>
<path d="m277.1026,77.6678c11.3157,21.9741 19.9812,85.3002-3.3382,97.3087-23.3194,12.0085-69.8367-31.8256-81.1524-53.7996-11.3157-21.9741-4.1566-60.5581 25.9051-55.4817 14.1399-27.8383 47.2698-10.0014 58.5855,11.9727z"/>
<path d="m298,376.3622a59,58 0 1,1 -118,0 59,58 0 1,1 118,0z" transform="matrix(.70533 0 0 .70533 114.12867 -60.98677)"/>
<path d="m274.8601,324.1554c-8.5877-23.1767-9.5656-87.0854 15.0301-96.1988 24.5956-9.1134 65.4968,40.0025 74.0845,63.1791 8.5876,23.1767-3.1649,60.618-32.3968,51.9591-17.3888,25.9334-48.1301,4.2373-56.7178-18.9393z"/>
<path line-height="normal" color="#000" d="m276.375,192.0625c-4.2207,11.416-8.426,22.8376-12.6562,34.25 3.6403,.5358 8.3152,5.6853 10.625,1.0312 7.6063-9.3856 20.9163-12.9161 32.2812-8.6562-1.3639-5.2811-1.7852-10.7948-.8438-16.1875-9.4227-4.483-18.9314-8.697-28.7188-12.3438-.2292,.6354-.4583,1.2708-.6875,1.9062zm79.2188,65.6562c15.3213,17.9205 25.5944,42.3628 19.4062,65.9688-2.0368,8.9271-7.6623,16.5855-13.75,22.9375-13.3376,59.5168-34.6679,116.9218-56.8104,173.6986-.3794,4.7838 9.994,5.0247 14.0328,7.9412 6.9758,2.8441 13.97,5.6435 20.9339,8.5164 23.7979-60.8535 46.6498-122.5461 60.5312-186.5 5.1481-24.699 8.6847-52.1996-3.6562-75.3438-2.7701-4.5061-5.0257-10.227-9.1562-13.25-12.227-1.1668-23.884-5.6675-35.625-9.0938 1.3646,1.7083 2.7292,3.4167 4.0938,5.125z"/>
</g>
</svg>
