<svg xmlns="http://www.w3.org/2000/svg" viewBox="0 0 580 580">
<path fill="#111" stroke="#eee" stroke-width="3.408" d="m66.275,1.768c-41.335,0-64.571,21.371-64.571,65.036v450.123c0,40.844 20.894,62.229 62.192,62.229h452.024c41.307,0 62.229-20.316 62.229-62.229v-450.123c0-42.601-20.922-65.036-63.522-65.036-.003,0-448.494-.143-448.352,0z"/>
<g fill="#fff" transform="matrix(2.77296 0 0 2.77296 -628.68284 -980.10202)">
<path d="m297.9759,371.4117c-9.6148,0-14.7152,5.249-17.0699,11.3932l-12.4993,32.2742c-4.9549,.6354-13.7385,6.4515-13.7385,17.4697v41.0423h12.1661v13.1256c0,16.1483 22.8531,15.9581 22.8531,0v-13.1256h41.109 .0134 41.1089v13.1256c0,15.9581 22.853,16.1483 22.8531,0v-13.1256h12.1661v-41.0423c0-11.0181-8.7835-16.8343-13.7386-17.4697l-12.5125-32.2742c-2.3547-6.1442-7.4551-11.3932-17.0699-11.3932h-17.6695-30.0889-17.8827zm-.1466,11.753h32.9405 .0266 .0134 32.9538c4.1204,.0384 5.8852,2.6152 7.0625,6.183l9.4211,25.3983h-49.4373-.0134-.0266-49.424l9.4211-25.3983c1.1773-3.5678 2.9416-6.1446 7.0625-6.183zm-19.202,43.934c5.8304,0 10.5537,4.8645 10.5537,10.8735 0,6.0095-4.7234,10.8869-10.5537,10.8869-5.8299,0-10.5537-4.8774-10.5537-10.8869 0-6.009 4.7238-10.8735 10.5537-10.8735zm104.3515,0c5.8304,0 10.5538,4.8645 10.5537,10.8735 0,6.0095-4.7234,10.8869-10.5537,10.8869-5.8299,0-10.5671-4.8774-10.5671-10.8869 0-6.009 4.7372-10.8735 10.5671-10.8735z"/>
<path stroke="#fff" stroke-linejoin="round" line-height="normal" stroke-linecap="round" color="#000" stroke-width="3.717" d="m295.0625,508.9199c-12.6836,.3781-27.3435,4.8102-45.2188,15.4062l7.1562,12.0938c18.8425-11.1694 31.9866-14.0502 42.5312-13.4062 10.5446,.6439 19.1261,4.9241 28.75,10.125 9.6239,5.2009 20.1855,11.3253 33.8438,13.4375 13.6583,2.1122 29.9844-.0644 50.4375-9.875l-6.0938-12.6562c-18.6155,8.9292-31.5253,10.3051-42.1875,8.6562-10.6622-1.6488-19.4982-6.6024-29.3125-11.9062-9.8143-5.3038-20.7165-10.9651-34.5938-11.8125-1.7347-.1059-3.5005-.1165-5.3125-.0625z"/>
</g>
</svg>
