<svg xmlns="http://www.w3.org/2000/svg" viewBox="0 0 580 580">
<path fill="#111" stroke="#eee" stroke-width="3.408" d="m66.275,1.768c-41.335,0-64.571,21.371-64.571,65.036v450.123c0,40.844 20.896,62.229 62.192,62.229h452.024c41.307,0 62.229-20.314 62.229-62.229v-450.123c0-42.601-20.922-65.036-63.521-65.036-.004,0-448.495-.143-448.353,0z"/>
<g fill="#fff">
<g fill-rule="evenodd">
<path d="m520.67,490.848c-4.0727,1.1204-9.3325,.9448-16.232-.532-7.0122-1.5345-13.404-9.0979-25.0543-8.5659-11.9336,.4128-28.7886,11.1029-45.0744,11.1029-16.5165-.3525-35.0663-11.5747-51.92-11.5747-16.7973,.1192-32.0678,11.7541-48.1856,12.1067-16.4012,.0602-32.7459-10.8657-48.8074-11.1029-16.2884-.4141-31.7281,9.6864-46.9422,9.5684-14.9872-.2948-28.2784-11.0452-43.1528-10.5722-15.2705,.5897-32.0114,12.4015-46.9422,13.113-15.0436,.2346-28.6745-10.9875-41.9644-11.1055-13.4027-.2346-28.4476,8.2096-37.4968,10.1004-9.0492,1.8332-14.7616,1.7717-16.9101,.473v31.3025c2.1485,1.2986 7.8609,1.3601 16.9101-.473 9.0492-1.8922 24.0928-10.335 37.4968-10.1004 13.2912,.1179 26.9208,11.3401 41.9644,11.1055 14.9308-.7115 31.6717-12.5233 46.9422-13.113 14.8744-.473 28.1643,10.2773 43.1528,10.5722 15.2141,.1179 30.6538-9.9825 46.9422-9.5684 16.0614,.2372 32.4062,11.1632 48.8074,11.1029 16.1178-.3526 31.3884-11.9913 48.1856-12.1067 16.8537,0 35.4034,11.2221 51.92,11.5747 16.2858,0 33.1421-10.6901 45.0744-11.1029 11.6503-.4141 18.0421,7.0263 25.0543,8.6236 6.8994,1.4768 12.1592,1.714 16.232,.4743v-31.3025z"/>
<path d="m170.1562,103.6562h-.4062l-1.125,.125-.4062,.0312-1.1562,.1875-.4062,.0625-1.1875,.25-.4062,.0938-1.1562,.3125-.4062,.0938-1.1875,.4062-.375,.125-1.2188,.4688-.375,.1562-1.2188,.5312-.3438,.1562-1.2188,.625-.3438,.1875-1.2188,.7188-.3125,.1875-1.25,.7812-.3125,.2188-1.25,.875-.2812,.2188-1.25,.9688-.25,.2188-.5312,.4375-2.375,3.6562 .0625,4.375 2.5,3.5938 4.0938,1.5938 4.25-.9688 1.125-.7812 .3125-.25 1-.8125 .125-.0938 .125-.0938 .7188-.5 .1875-.125 .0938-.0625 .6562-.4375 .1562-.0938 .1562-.0938 .9375-.5 .5625-.2812 .8438-.4062 .2188-.0938 .1562-.0625 .4375-.1562 .4062-.1562 .4062-.125 .1562-.0312 .25-.0938 .375-.0938 .2812-.0625 .125-.0312 .3438-.0625 .75-.125h.0625l.3438-.0625 .3125-.0312h.1562l.5625-.0312h.1875 .2188l.6562,.0312h.0312l.6875,.0625 .3125,.0312 .25,.0312 .125,.0312 .625,.125h.0625l1.25,.3125 1.3125,.4375 1.5,.6875 .1562,.0625 .8125,.4375 4.3125,.8438 4-1.7188 2.4062-3.6562-.0625-4.375-2.5-3.5938-1.1562-.75-1.3125-.6875-.5-.25-1.9062-.8438-.5625-.2188-1.9688-.6875-.625-.1875-2.0625-.5-.5312-.0938-1.0625-.1875-.375-.0625-1.0625-.125-.375-.0312-1.0938-.0938h-.4062l-1.0938-.0312h-.4062l-1.125,.0625zm22.0312,13.0625l-3.5625,2.5-1.5938,4.0938 .9688,4.25 .7812,1.125 .75,.875 .1562,.1875 .0938,.125 .9688,1.25 .0625,.0625 .125,.1875 .5,.7812 .1562,.1875 .0625,.125 .0938,.125 2.375,3.8438 .0938,.125 2.3438,3.9375 .0938,.125 2.3125,4.0938 .0625,.0938 2.3125,4.2188 .0625,.0938 2.0312,3.8438 3.0938,3.0938 4.2812,.8438 4.0312-1.6562 2.4062-3.6562-.0312-4.375-.5312-1.2812-2.0625-3.9375-.0625-.0938-2.4375-4.4375-.0625-.0938-2.4688-4.3125-.0625-.125-2.5312-4.1875-.0625-.125-2.5312-4.0938-.0938-.125-.2812-.4375-.1562-.2188-.8438-1.2188-.1875-.25-1.375-1.8125-.25-.2812-.9688-1.1875-3.6875-2.3438-4.375,.0625zm-51.9062,6.8438l-.9062,1.0312-.0312,.0312-.0938,.1562-1.3438,1.9688-.125,.1875-2.6562,4.1562-.125,.2188-2.5938,4.3438-.0938,.1875-2.5312,4.5312-.0938,.1562-2.4375,4.6875-.0938,.1562-2.375,4.8125-.0625,.125-.75,1.625-.625,4.3125 1.9062,3.9375 3.75,2.2188 4.375-.25 3.4688-2.6562 .6875-1.1875 .6875-1.4688 .0625-.1562 2.25-4.5 .0625-.1562 2.2812-4.375 .0938-.1562 2.3438-4.1875 .0938-.1875 2.3438-3.9688 .125-.1875 2.4062-3.7812 .0625-.0938 .0625-.0938 1.0938-1.5938h.0312v-.0312l.0938-.125-.0312-.0312 1.3438-3.9688-1.125-4.2188-3.2812-2.875-4.3438-.5625-3.9062,1.9688zm71.9375,33.3438l-2.5625,3.5312-.1562,4.375 .4688,1.3125 .5625,1.1562 .0312,.0938 2.1562,4.6875 .0625,.0938 2.125,4.7812 .0312,.0938 2.0938,4.8438 .0312,.0938 2.0625,4.9375 .0312,.0625 2.0312,5 .0312,.0625 .4688,1.1562 2.7188,3.4062 4.1562,1.3125 4.1875-1.2188 2.8125-3.3438 .4375-4.3438-.375-1.3438-.4688-1.1875-.0312-.0625-2.0938-5.1562-.0312-.0625-2.125-5.0938-.0312-.0938-2.1562-5-.0625-.0938-2.1875-4.9375-.0312-.0938-2.25-4.875-.0625-.0938-.5938-1.25-2.9375-3.2188-4.25-1.0312-4.0938,1.5zm-90.5312,5.0312l-3.3125,2.8438-.6562,1.2188-1.9375,4.8125-.0625,.0938-2,5.1562-.0312,.0938-1.9375,5.1562-.0312,.0625-1.8438,5.125-.0312,.0938-1.7812,5.0938-.0312,.0625-.9375,2.7812-.125,4.375 2.3125,3.6875 4,1.7812 4.3125-.75 3.1562-3.0312 .5625-1.25 .9062-2.7188 .0312-.0625 1.7188-4.9375 .0312-.0938 1.7812-4.9688 .0312-.0625 1.875-4.9688 .0312-.0938 1.9375-4.9688 .0312-.0938 1.9375-4.7188 .4062-4.3438-2.0938-3.8438-3.9062-2.0312-4.3438,.5zm108.3438,36.125l-2.875,3.3125-.5312,4.3438 .375,1.3438 .1562,.4375 .0312,.0938 3.7812,10.5 .0312,.0938 3.5938,10.5938 2.0625,6.3125 2.5,3.5938 4.0625,1.5938 4.2812-.9688 3-3.1875 .7188-4.3125-.2812-1.3438-2.0625-6.3125-.0312-.0938-3.6875-10.8125-.0312-.125-3.8438-10.6875-.0312-.0938-.1875-.5312-2.6562-3.4688-4.1562-1.4062-4.2188,1.125zm-124.0312,6.5625l-3.0312,3.125-.5312,1.2812-2.125,7.0312-.0312,.0938-2.4688,8.5938-.0312,.0938-2.0938,7.75-.0312,.0938-1.4375,5.5 .1875,4.375 2.5938,3.5312 4.0938,1.4688 4.25-1.0312 2.9375-3.25 .4688-1.3125 1.4062-5.4375v-.0625l2.0625-7.5625 .0312-.0938 2.4062-8.4062 .0312-.0938 2.0938-6.9375v-4.3438l-2.4375-3.625-4.0625-1.6562-4.2812,.875zm138.6562,35.9062l-3.0312,3.125-.8125,4.3125 .3125,1.3438 .3125,1.0938 .0312,.0938 3.1562,10.7188 .0312,.0625 3,10.6875 .0312,.0938 1.5625,5.8438 2.3438,3.6875 3.9688,1.7812 4.3125-.7188 3.1562-3.0312 .9375-4.2812-.2188-1.3438-1.5938-5.9375-.0312-.0625-3.0625-10.8438-.0312-.0938-3.1875-10.9062-.0312-.0938-.375-1.1875-2.4375-3.5938-4.0625-1.6562-4.2812,.9062zm12.3438,43.1875l-3.1875,3-1,4.25 .2188,1.375 .2188,.8438 .0312,.0625 2.5312,10.3125 .0312,.0625 2.375,10.1562h.0312l1.6875,7.5312 2.1562,3.7812 3.9375,1.9375 4.3125-.5625 3.2812-2.875 1.125-4.25-.1875-1.3438-1.7188-7.625v-.0625l-2.4375-10.2188v-.0625l-2.5938-10.4375v-.0625l-.25-.9375-2.2812-3.75-3.9688-1.8125-4.3125,.6875zm10.4688,43.6875l-3.3438,2.8438-1.1875,4.1875 .1562,1.375 1.3438,6.5938 .0312,.0625 1.7188,8.7812 1.625,8.4062h-.0312l.9688,5.4062 2,3.9062 3.8125,2.125 4.375-.375 3.4062-2.75 1.3125-4.1562-.125-1.375-.9688-5.4375-.0312-.0625-1.5938-8.4688v-.0625l-1.7812-8.9375v-.0625l-1.375-6.625-2.0938-3.8438-3.875-2-4.3438,.4688zm8.5,44.125l-3.4688,2.6562-1.375,4.1562 .0938,1.375 .3438,2.125v.0938l.9062,6.1562 .7812,5.5938h-.0312l.5938,4.875v.125l.4062,3.9375 .0312,.2188 .2188,3.3125 .0938,2.4062 1.4062,4.1562 3.4688,2.625 4.3438,.2812 3.7812-2.2188 1.9062-3.9375 .0625-1.375-.0625-2.7188-.0312-.3125-.25-3.5312-.0312-.1875-.4062-4.2812-.0312-.1562-.5938-5v-.125l-.7812-5.6875v-.0938l-.9375-6.3438-.0312-.0625-.3438-2.2188-1.9062-3.9375-3.7812-2.1875-4.375,.2812z"/>
<path d="m406.7188,103.625h-.4062l-1.0938,.0938-.375,.0312-1.0625,.125-.375,.0625-1.0625,.1875-.5312,.0938-2.0312,.5-.6562,.1875-1.9688,.6875-.5625,.2188-1.9062,.8438-.5,.25-1.3125,.6875-3.0938,3.0625-.875,4.3125 1.6875,4.0312 3.625,2.4062 4.375-.0312 1.2812-.5312 .8438-.4375 1.6562-.75 1.2812-.4375 1.25-.3125h.0625l.625-.125 .125-.0312 .25-.0312 .3125-.0312 .6875-.0625h.0625l.625-.0312h.2188 .1875l.5625,.0312h.1562l.3125,.0312 .2812,.0312 .1562,.0312 .7188,.125 .375,.0625 .25,.0625 .125,.0312 .75,.2188h.0312l.8125,.2812 .4688,.1562 .3125,.1562h.0312l.5,.2188 .375,.1875 .5312,.2812 .9375,.5 .1562,.0938 .1562,.0938 .6562,.4375 .1562,.0938 .125,.0938 .7188,.5 1.0312,.7812 .2188,.2188h.0312l.2812,.25 4,1.7188 4.3125-.8125 3.125-3.0625 .875-4.2812-1.6562-4.0625-.9688-.9688-.5312-.4375-.25-.2188-1.2812-.9688-.2812-.2188-1.25-.875-.2812-.2188-1.25-.7812-.3125-.1875-1.25-.7188-.3438-.1875-1.2188-.625-.3438-.1562-1.2188-.5312-.375-.1562-1.1875-.4688-.4062-.125-1.1875-.4062-.375-.0938-1.1875-.3125-.4062-.0938-1.1562-.25-.4062-.0625-1.1562-.1875-.4062-.0312-1.1562-.125h-.4062l-1.125-.0625h-.4062l-1.0938,.0312zm-26.4688,14.4062l-1,.9688-.9688,1.1875-.25,.2812-1.375,1.8125-.1875,.25-.8438,1.2188-.1562,.2188-.2812,.4375-.0625,.125-2.5625,4.0938-.0625,.125-2.5,4.1875-.0938,.125-2.4688,4.3125-.0625,.0938-2.4062,4.4375-.0625,.0938-2.0938,3.9375-.8438,4.2812 1.7188,4.0312 3.6562,2.4062 4.375-.0625 3.5938-2.4688 .75-1.1562 2.0312-3.8438 .0625-.0938 2.3125-4.2188 .0625-.0938 2.3438-4.0938 .0625-.125 2.375-3.9375 .0625-.125 2.375-3.8438 .0938-.125 .0625-.125 .1562-.1875 .5312-.7812 .1562-.1875 .0312-.0625 .9375-1.25 .125-.1562 .125-.1562 .75-.875 1.7188-4-.8125-4.3125-3.0625-3.0938-4.2812-.9062-4.0312,1.6562zm48.2812,5.9062l-1.875,3.9375 .625,4.3438 .625,1.0312h-.0312l.125,.1562 1.0938,1.5938 .0625,.0938 .0625,.0938 2.4062,3.7812 .125,.1875 2.3438,3.9688 .125,.1875 2.3125,4.1875 .0938,.1562 2.2812,4.375 .0625,.1562 2.25,4.5 .0625,.1562 .6875,1.4688 2.9375,3.2188 4.2188,1.0625 4.125-1.4688 2.5938-3.5312 .1562-4.375-.4688-1.2812-.75-1.625-.0625-.125-2.375-4.8125-.0625-.1562-2.4688-4.6875-.0938-.1562-2.5-4.5312-.125-.1875-2.5938-4.3438-.125-.2188-2.625-4.1562-.125-.1875-1.3438-1.9688-.125-.1562-.0312-.0312-3.4688-2.625-4.375-.25-3.75,2.2188zm-68.3438,31.9062l-3.5,2.625-.6875,1.1875-.5938,1.25-.0625,.0938-2.2188,4.875-.0625,.0938-2.1875,4.9375-.0312,.0938-2.1875,5-.0312,.0938-2.125,5.0938-.0312,.0625-2.0938,5.1562-.0312,.0625-.4688,1.1875-.3438,4.375 2.125,3.8125 3.9062,1.9688 4.3438-.5312 3.3125-2.875 .625-1.2188 .4375-1.1562 .0312-.0625 2.0312-5 .0312-.0625 2.0625-4.9375 .0312-.0938 2.0938-4.8438 .0312-.0938 2.1562-4.7812 .0312-.0938 2.1562-4.6875 .0312-.0938 .5625-1.1562 .6562-4.3438-1.875-3.9375-3.75-2.25-4.375,.25zm90.4688,6.75l-2.75,3.375-.4062,4.375 .375,1.3125 1.9375,4.7188 .0312,.0938 1.9375,4.9688 .0312,.0938 1.875,4.9688 .0312,.0625 1.7812,4.9688 .0312,.0938 1.7188,4.9375 .0312,.0625 .9062,2.7188 2.5625,3.5312 4.0938,1.5312 4.25-1 2.9688-3.2188 .6562-4.3125-.3125-1.3438-.9375-2.7812-.0312-.0625-1.75-5.0938-.0312-.0938-1.875-5.125-.0312-.0625-1.9375-5.1562-.0312-.0938-2-5.1562-.0312-.0938-1.9688-4.8125-2.75-3.4062-4.1875-1.2812-4.1875,1.2812zm-108.3438,35.0312l-3.25,2.9375-.5938,1.25-.2188,.5312-.0312,.0938-3.8438,10.6875-.0312,.125-3.6875,10.8125-.0312,.0938-2.0312,6.3125-.0938,4.375 2.375,3.6875 4.0312,1.7188 4.2812-.8125 3.125-3.0625 .5312-1.2812 2.0312-6.1875 .0312-.125 3.5938-10.5938 .0312-.0938 3.7812-10.5 .0312-.0938 .1562-.4375 .2812-4.375-2.2188-3.7812-3.9375-1.9062-4.3125,.625zm124,7l-3.0625,3.125-.8125,4.2812 .2812,1.3438 2.0938,6.9375 .0312,.0938 2.4062,8.4062 .0312,.0938 2.0625,7.5625 .0312,.0625 1.4062,5.4375 2.2812,3.7188 3.9688,1.8438 4.3125-.7188 3.1875-3 .9688-4.25-.2188-1.375-1.4375-5.5v-.0938l-2.125-7.75-.0312-.0938-2.4688-8.5938-.0312-.0938-2.125-7.0312-2.4375-3.625-4.0312-1.6562-4.2812,.875zm-138.6562,35.875l-3.0625,3.125-.5312,1.25-.375,1.1875v.0938l-3.2188,10.9062-.0312,.0938-3.0625,10.8438-.0312,.0625-1.5938,5.9375 .1562,4.375 2.5625,3.5312 4.0938,1.5312 4.25-1.0312 2.9688-3.2188 .4688-1.2812 1.5625-5.8438 .0312-.0938 3-10.6875 .0312-.0625 3.1562-10.7188 .0312-.0938 .3438-1.0938v-4.375l-2.4062-3.625-4.0625-1.6875-4.2812,.875zm-12.3125,43.5312l-2.9375,3.25-.4688,1.3125-.2188,.9375-.0312,.0625-2.5938,10.4375v.0625l-2.4062,10.2188-.0312,.0625-1.7188,7.625 .3125,4.3438 2.6875,3.4375 4.1875,1.3438 4.1875-1.1875 2.8125-3.3125 .4375-1.3125 1.6875-7.5312h.0312l2.4062-10.1562v-.0625l2.5312-10.3125 .0312-.0625 .2188-.8438-.1875-4.375-2.5938-3.5312-4.125-1.4688-4.2188,1.0625zm-10.4375,44.0312l-2.7812,3.4062-.4062,1.3125-1.375,6.625v.0625l-1.75,8.9375-.0312,.0625-1.5938,8.4688v.0625l-1,5.4375 .5312,4.3438 2.8438,3.3125 4.2188,1.1562 4.1562-1.375 2.6562-3.4688 .375-1.3438 .9688-5.3438v-.0625l1.5938-8.4062 1.7188-8.7812 .0312-.0625 1.3438-6.5938-.375-4.3438-2.7812-3.375-4.1562-1.2812-4.1875,1.25zm-8.5,44.4688l-2.5938,3.5-.3438,1.3438-.3438,2.2188v.0625l-.9375,6.3438-.0312,.0938-.75,5.6875-.0312,.125-.5938,5v.1562l-.4375,4.2812-.0312,.1875-.25,3.5312v.3125l-.0938,2.7188 1.125,4.2188 3.3125,2.875 4.3438,.5312 3.9062-1.9688 2.125-3.8125 .1875-1.375 .0625-2.4062 .25-3.3125 .4062-4.1562v-.125l.5938-4.875h-.0312l.7812-5.5v-.0938l.9062-6.1562v-.0938l.3438-2.125-.5938-4.3125-2.9062-3.2812-4.25-1.0625-4.125,1.4688z"/>
<path d="m373.7812,252.4062l-.5312,.0312-1.375,.1875-.5312,.0625-1.3438,.2812-.4688,.0938-1.2812,.3438-.4375,.1562-1.2188,.4062-.4062,.1562-1.1875,.5-.3438,.1562-1.125,.5312-.3125,.1875-1.0625,.5625-.2812,.1875-1,.5938-.3438,.25-1.8125,1.2812-.375,.2812-.9375,.7812-2.1875,3.4375 .1875,4.0625 2.5312,3.1875 3.9062,1.1562 3.8438-1.3438 .25-.1875 .9375-.75 1.0625-.75 .7188-.4688 .2812-.1562 .4688-.25 .7812-.4062 .2188-.0938 .125-.0625 .4375-.1875 .0625-.0312 .75-.25 1.1875-.3125 .0938-.0312 .8438-.1562h.0312l.625-.0625 .5312-.0312h.1875l1.0938,.0625 .5312,.0625 .0938,.0312 1.1562,.25 .75,.2188 .0938,.0312 1.25,.5312 1.2188,.6562 .1875,.0938 1.0312,.6875 3.9375,1.0312 3.8125-1.4062 2.2812-3.375-.0938-4.0938-2.4688-3.25-.25-.1875-1.5-.9375-.4688-.2812-1.625-.875-.5-.25-1.625-.6875-.5625-.2188-1.5625-.5-.5625-.1562-1.5625-.375-.5938-.0938-1.5-.2188-.5938-.0625-1.4688-.0625h-.5625l-1.4375,.0312zm16.5,15.8125l-1.3125,3.875 1.1562,3.9062 .1562,.25 .9688,1.2812 .125,.1875 1.4375,2 .0938,.1562 1.4062,2.0938 .0938,.1562 1.375,2.2188 .0625,.125 1.3438,2.2812 .0938,.125 1.3125,2.3438 .0625,.0938 1.2812,2.4062 .0625,.0938 1.25,2.4375 .0625,.0938 1.1875,2.4375 .0625,.125 .5625,1.1875 2.75,3 4,.8438 3.7188-1.625 2.0938-3.5-.3125-4.0625-.125-.2812-.625-1.3438-.0625-.125-1.3125-2.6562-.0312-.125-1.375-2.625-.0625-.125-1.4062-2.5938-.0625-.125-1.4375-2.5938-.0938-.125-1.5-2.5312-.0625-.125-1.5625-2.5-.0938-.125-1.5938-2.4062-.0938-.1562-1.6562-2.3438-.125-.1875-1.0938-1.4375-3.3125-2.375h-4.0938l-3.3125,2.375zm-42.5,2.5312l-.1875,.25-1.3438,1.9688-.125,.1562-3.0938,4.6875-.0938,.1875-3,4.9062-.0938,.1562-2.9062,5.0625-.0938,.1562-2.7812,5.2188-.0938,.1562-.5625,1.125-.6562,4 1.8125,3.6562 3.5938,1.9375 4.0625-.5 3-2.7812 .125-.2812 .5-.9688 .0938-.1562 2.625-4.9062 .0938-.1562 2.6875-4.7188 .125-.1875 2.7812-4.5312 2.9688-4.5625 .125-.1562 1.25-1.8125 1.2188-3.9062-1.3125-3.875-3.2812-2.4062-4.0625-.0625-3.375,2.3438zm62.5938,31.5625l-2.2812,3.375 .125,4.0938 .125,.2812 .75,1.8438 .0312,.125 1.75,4.5312 .0312,.125 1.5312,4.2188 .0312,.0938 1.3125,3.7812 .0312,.0625v.0312l1.0625,3.2812 .0312,.0938 1.5,4.7812h-.0312l.5,1.6562 2.25,3.4062 3.8438,1.4375 3.9375-1.0312 2.5938-3.1562 .3125-4.0625-.0625-.2812-.5-1.6875-.0312-.125-1.5312-5-.0312-.0938-1.1562-3.4688-.0312-.0938-1.375-4-.0312-.0938-1.5938-4.4375-.0625-.125-1.8125-4.75-.0625-.1562-.7812-1.9375-2.625-3.125-3.9375-1.0312-3.8125,1.4375zm-79.9062,1.5938l-2.875,2.9062-.125,.2812-1.4062,3.0938-.0625,.125-2.4062,5.5625-.0312,.125-2.3125,5.5938-.0312,.125-2.1875,5.625-.0312,.0938-1.8125,4.875-.1875,4.0625 2.1875,3.4375 3.7812,1.5 3.9688-.9688 2.6562-3.0625 .125-.3125 1.7812-4.7812 .0312-.0938 2.125-5.4062 .0312-.125 2.1875-5.375h.0312l2.3438-5.4688 .0625-.125 1.3438-2.9688 .4688-4.0625-1.9688-3.5625-3.6562-1.7812-4.0312,.6875zm-15.1562,37.8125l-2.5312,3.1875-.0938,.3125-1.5312,4.7188-.0312,.0625-1.6875,5.375v.0938l-1.5938,5.25v.0938l-1.4688,5.125-.0312,.0625-1.375,4.9688v.0938l-.0625,.1875 .2188,4.0625 2.5312,3.1875 3.9375,1.125 3.8438-1.3438 2.3438-3.3438 .0938-.3125 .0312-.125v-.0625l1.3125-4.8125h.0312l1.4062-5.0625h.0312l1.5312-5.1875 .0312-.0938 1.625-5.2188 .0312-.0625 1.5-4.6562 .0312-4.0625-2.3438-3.3438-3.8438-1.3438-3.9375,1.125zm-11.3438,38.9688l-2.2812,3.375-.0625,.3125-.1562,.5625v.0938l-.9375,4.125-.0312,.125-1.5312,7.4375-.0312,.125-.625,3.25v.125l-.5,2.9375-.0312,.125-.375,2.5625-.0312,.1562-.2812,2.2188-.0312,.2188-.1562,1.8125-.0312,.375-.0625,1.375 1.0938,3.9375 3.1562,2.5625 4.0938,.2812 3.4688-2.1562 1.5625-3.7812 .0312-.3125 .0312-1.0312 .125-1.5938 .0312-.2188 .2188-1.8438 .0312-.1562 .3438-2.3125 .0312-.125 .4375-2.6875h.0312l.5625-3.125 .0312-.0938v-.0625l1.5-7.1875 .0312-.0938 .875-3.9375 .0312-.0938 .0938-.5-.2812-4.0625-2.625-3.125-3.9375-1.0312-3.8125,1.4375z"/>
<path d="m199.5938,252.4375l-.5625,.0625-1.5312,.2188-.5938,.0938-1.5312,.375-.5625,.1562-1.5938,.5-.5312,.2188-1.625,.6875-.5,.25-1.6562,.875-.4688,.2812-1.4688,.9375-2.625,3.1562-.2812,4.0625 2.125,3.4688 3.75,1.625 3.9688-.875 .2812-.1562 1.0312-.6875 .1875-.0938 .9375-.5312 .1875-.0625 1.25-.5625 .1562-.0625 .7188-.2188 1.125-.25 .1562-.0312 .5625-.0625 1.0625-.0625h.1875l.5312,.0312 .6562,.0625h.0938l.7812,.1562 .0938,.0312 1.1875,.3125 .4062,.125 .1875,.0938 .2188,.0625 .4375,.1875 .1562,.0625 .1875,.0938 .7812,.4062 .4688,.25 .2812,.1562 .7188,.4688 1.0625,.75 .0938,.0938 .8125,.6562 3.8125,1.5312 3.9375-.9688 2.6875-3.0938 .375-4.0625-2.0312-3.5312-.25-.1875-.9062-.7812-.4062-.2812-1.7812-1.2812-.375-.25-1-.5938-.2812-.1875-1.0625-.5625-.3125-.1875-1.125-.5312-.3438-.1562-1.1875-.5-.375-.1562-1.25-.4062-.4062-.1562-1.3125-.3438-.4688-.0938-1.3438-.2812-.5-.0625-1.375-.1875-.5625-.0312-1.4062-.0312h-.5938l-1.4688,.0625zm-23.5312,15.5312l-.2188,.25-1.0938,1.4375-.125,.1875-1.625,2.3438-.0938,.1562-1.5938,2.4062-.0938,.125-1.5625,2.5-.0938,.125-1.5,2.5312-.0625,.125-1.4688,2.5938-.0625,.125-1.4062,2.5938-.0312,.125-1.375,2.625-.0625,.125-1.2812,2.6562-.0938,.125-.5938,1.3438-.5312,4.0312 1.9375,3.5938 3.6562,1.8125 4.0312-.6562 2.9062-2.875 .125-.2812 .5625-1.1875 .0625-.125 1.1875-2.4375 .0625-.0938 1.25-2.4375 .0625-.0938 1.2812-2.4062 .0625-.0938 1.3125-2.3438 .0625-.125 1.3438-2.2812 .0938-.125 1.375-2.2188 .0938-.1562 1.4062-2.0938 .0938-.1562 1.4062-2 .125-.1875 .9688-1.2812 1.3438-3.8438-1.1562-3.9375-3.1875-2.5-4.0938-.2188-3.4062,2.2188zm42.4688,2.6562l-1.4688,3.8125 1.0312,3.9375 .1562,.2812 1.2812,1.8125 .0938,.1562 2.875,4.375 .125,.1875 2.7812,4.5312 .0938,.1875 2.7188,4.7188 .0938,.1562 2.625,4.9062 .0938,.1562 .4688,.9688 2.875,2.9062 4,.7188 3.6875-1.7812 1.9688-3.5625-.4375-4.0312-.125-.2812-.5938-1.125-.0625-.1562-2.8125-5.2188-.0625-.1562-2.9062-5.0625-.0938-.1562-3-4.9062-.125-.1875-3.0938-4.6875-.0938-.1562-1.375-1.9688-3.2188-2.4688-4.0938-.1562-3.4062,2.25zm-59.5312,31.125l-2.75,3-.125,.2812-.8125,1.9375-.0312,.1562-1.8438,4.75-.0312,.125-1.5938,4.4375-.0625,.0938-1.375,4-.0312,.0938-1.125,3.4688-.0312,.0938-1.5312,5-.0625,.125-.4688,1.6875 .125,4.0625 2.4688,3.25 3.875,1.2188 3.875-1.25 2.4375-3.2812 .0938-.3125 .4375-1.5625 .0312-.0938 1.4688-4.7812 .0312-.0938 1.0938-3.2812 .0312-.0938 1.3438-3.875h-.0312l1.5312-4.2188 .0625-.125 1.7188-4.5312 .0625-.125 .75-1.8438 .3125-4.0625-2.125-3.5-3.7188-1.625-4,.875zm79.9375,3.0312l-2.125,3.4688 .2812,4.0625 .125,.3125 1.3438,2.9688 .0625,.125 2.2812,5.3438 .0625,.125 2.1875,5.375 .0625,.125 2.125,5.4062h-.0312l1.8125,4.875 2.5312,3.2188 3.9062,1.1562 3.875-1.3438 2.3438-3.3125v-4.0938l-.0938-.2812-1.8125-4.875-.0312-.0938-2.1875-5.625-.0625-.125-2.2812-5.5938-.0625-.125-2.375-5.5625-.0625-.125-1.4062-3.0938-2.75-3.0312-3.9688-.875-3.75,1.5938zm15.0938,36.9688l-2.5,3.25-.1875,4.0625 .0938,.2812 1.5312,4.6562v.0625h.0312l1.5938,5.2188 .0312,.0938 1.5312,5.0938 .0312,.0938 1.4062,4.9688 .0312,.0938 1.3125,4.8125 .0312,.0625 .0312,.125 2.1875,3.4688 3.7812,1.5312 3.9688-.9375 2.6875-3.0938 .4062-4.0312-.0625-.3125-.0625-.1875-.0312-.0938-1.3438-4.9688-.0312-.0625-1.4688-5.125-.0312-.0938-1.5625-5.25-.0312-.0938-1.6562-5.375-.0312-.0625-1.5312-4.7188-2.4062-3.3125-3.8438-1.3125-3.9062,1.1562zm11.375,38.375l-2.75,3-.5,4.0625 .0625,.2812 .125,.5 .0312,.0938 .875,3.9375 .0312,.0938 1.5,7.3438h.0312l.5312,3 .0312,.125 .4688,2.8125h.0312l.3438,2.4688h.0312l.2188,2.0625h.0312l.0938,1.25 .0312,.3438 .0312,1.0312 1.4062,3.8438 3.3438,2.3125 4.0938-.0625 3.2812-2.4375 1.25-3.875v-.3125l-.0625-1.375v-.375l-.1875-1.8125v-.2188l-.2812-2.2188-.0312-.1562-.4062-2.5625v-.125l-.5-2.9375-.0312-.125-.5938-3.25-.0312-.125-1.5312-7.4375-.0312-.125-.9375-4.125-.0312-.0938-.125-.5625-2.125-3.5-3.7188-1.5938-4,.8438z"/>
<path d="m286.125,46.9062l-3.4375,3.6875-1.125,4.5v38.3438l1.3125,4.8438 3.5938,3.5312 4.875,1.2188 4.8438-1.4375 3.4375-3.6562 1.125-4.5v-38.3438l-1.3125-4.875-3.5938-3.5-4.875-1.2188-4.8438,1.4062zm0,57.5312l-3.4375,3.6562-1.125,4.5312v38.3438l1.3125,4.8438 3.5938,3.5312 4.875,1.1875 4.8438-1.4062 3.4375-3.6562 1.125-4.5v-38.3438l-1.3125-4.875-3.5938-3.5-4.875-1.2188-4.8438,1.4062zm0,57.5312l-3.4375,3.6562-1.125,4.5v38.375l1.3125,4.8438 3.5938,3.5 4.875,1.2188 4.8438-1.4062 3.4375-3.6562 1.125-4.5v-38.375l-1.3125-4.8438-3.5938-3.5-4.875-1.2188-4.8438,1.4062zm0,57.5312l-3.4375,3.6562-1.125,4.5v38.3438l1.3125,4.875 3.5938,3.5 4.875,1.2188 4.8438-1.4062 3.4375-3.6875 1.125-4.5v-38.3438l-1.3125-4.8438-3.5938-3.5312-4.875-1.2188-4.8438,1.4375zm0,57.5312l-3.4375,3.6562-1.125,4.5v38.3438l1.3125,4.8438 3.5938,3.5312 4.875,1.2188 4.8438-1.4375 3.4375-3.6562 1.125-4.5v-38.3438l-1.3125-4.8438-3.5938-3.5312-4.875-1.2188-4.8438,1.4375zm0,57.5l-3.4375,3.6875-1.125,4.5v36.4375l1.3125,4.8438 3.5938,3.5 4.875,1.2188 4.8438-1.4062 3.4375-3.6562 1.125-4.5v-36.4375l-1.3125-4.875-3.5938-3.5-4.875-1.2188-4.8438,1.4062z"/>
</g>
<g stroke="#fff" stroke-linejoin="bevel" stroke-linecap="round">
<path stroke-width="20" d="m206.349,398.942h164.18v96.666h-164.18z"/>
<path stroke-width="17.343" d="m168.195,445.179h245.091v48.689h-245.091z"/>
</g>
</g>
</svg>
