<svg xmlns="http://www.w3.org/2000/svg" viewBox="0 0 580 580" xmlns:xlink="http://www.w3.org/1999/xlink">
<path fill="#111" stroke="#eee" stroke-width="3.408" d="m66.275,1.768c-41.335,0-64.571,21.371-64.571,65.036v450.123c0,40.844 20.895,62.229 62.192,62.229h452.024c41.307,0 62.229-20.315 62.229-62.229v-450.123c0-42.601-20.922-65.036-63.521-65.036-.004,0-448.495-.143-448.353,0z"/>
<g fill="#fff" transform="matrix(31.32434 0 0 31.32434 37.06487 -32426.481)">
<g fill="#fff" id="g3890" transform="matrix(1.07521 0 0 1.13282 -44.03354 -140.05992)">
<path line-height="normal" color="#000" d="m45.1562,1043.2973c-.4094-.086-.845,.032-1.2188,.2867-.3737,.2542-.7048,.6543-1.0312,1.1757-.6529,1.0429-1.2439,2.8667-1.4246,3.6942-.1806,.8276-.3891,1.7889-.4766,2.5026 .1554-.6834 .4431-1.7111 .6821-2.499 .239-.788 .9655-2.574 1.5902-3.4681 .3302-.4725 .6827-.8352 .9725-1.0323 .2898-.1972 .5295-.2533 .7812-.2008 .5035,.105 1.3737,.6712 1.912,2.0587 .5383,1.3874 1.1185,3.4851 1.414,6.3035l.1427,.039c-.298-2.8423-.7512-4.948-1.3125-6.3947-.5613-1.4465-1.2125-2.2953-2.0312-2.466v-.0005-.0001 .0005z"/>
<path line-height="normal" color="#000" d="m47.3212,1038.5625c-.1114-.068-.2879-.036-.3942,.031-.2125,.1349-.3565,.3299-.464,.625-.0866,.2377-.2803,.861-.4379,1.6327-.1577,.7717-.1589,1.2135-.2118,1.8834 .0821-.6739 .2322-1.1009 .4184-1.8384 .2086-.7179 .5299-1.2927 .6693-1.5105 .0974-.1523 .1594-.2601 .208-.261 .1309,0 .2781,.6184 .3712,1.0335 .3816,1.7019 .7067,5.2951 .8526,11.8213l.2922-.011c-.1462-6.5371-.4359-10.3842-.7883-12.1563-.0881-.443-.1893-.7475-.3032-.9687-.0569-.1107-.1008-.2133-.2122-.2813v.0001 .0002z"/>
<path line-height="normal" color="#000" d="m45.6875,1043.2973c-.3692-.091-.7737,.029-1.0937,.2867-.32,.2585-.6006,.6554-.875,1.1757-.5488,1.0407-.9287,2.4195-1.1426,3.6341-.2139,1.2145-.3178,2.6173-.3178,2.6173 0,0 .2633-1.3631 .5081-2.5715 .2447-1.2083 .7393-2.5054 1.2525-3.4788 .2566-.4867 .6798-.8108 .9186-1.0036 .2388-.1929 .4375-.2472 .625-.2008 .1875,.047 .5,.1701 .7434,.5229 .2434,.3528 .6623,.9037 .8895,1.5991 .4545,1.3908 .7967,3.4731 1.0457,6.2934l.2901-.013c-.2507-2.8404-.6534-4.9513-1.125-6.3945-.2358-.7217-.4686-1.284-.75-1.6918-.2814-.4079-.5996-.6829-.9688-.7744v-.0003-.0002-.0004z"/>
<path line-height="normal" color="#000" d="m45.9062,1043.3259c-.1556,.06-.2845,.1552-.4062,.2868-.2435,.2633-.4523,.6578-.6562,1.1757-.4078,1.0357-.7488,2.5203-.9495,3.7665-.2006,1.2462-.2353,2.2685-.2353,2.2685 0,0 .1999-.9721 .4922-2.2308 .2923-1.259 .7319-2.6534 1.1171-3.6317 .1926-.4892 .4329-.8443 .6067-1.0323 .0869-.094 .1647-.1513 .2188-.1721 .0541-.021 .0773-.015 .125,0 .0954,.032 .3988,.1449 .5818,.5001 .183,.3552 .4566,.9136 .6269,1.6118 .3407,1.3963 .7115,3.4806 .8976,6.3035l.2375-.012c-.1871-2.8379-.493-4.9282-.8438-6.3659-.1754-.7188-.3536-1.2864-.5625-1.6919-.2089-.4055-.4297-.668-.75-.7742-.1601-.053-.3444-.06-.5,0v-.0007-.0001-.0004z"/>
<path line-height="normal" color="#000" d="m47.1875,1043.2686c-.0889,.01-.161,.045-.2188,.087-.1155,.083-.1853,.1853-.25,.3154-.1293,.2601-.2353,.6346-.3438,1.147-.217,1.0247-.4384,2.5935-.5938,4.6168l-.0096,1.3525 .2978-1.3242c.1545-2.0124 .4634-3.5698 .673-4.5593 .1048-.4948 .3187-.841 .4138-1.0324 .0182-.036 .0156-.035 .0312-.057 .0115,.017 .0186,0 .0312,.029 .0452,.092 .1631,.2496 .2487,.4211 .1727,.3458 .3003,.8834 .3925,1.5861 .1844,1.4053 .3987,3.501 .4989,6.3272l.2348-.018c-.1005-2.8344-.25-4.937-.4375-6.3658-.0938-.7145-.2025-1.2375-.3125-1.6346-.055-.1985-.0921-.3855-.1562-.5161-.0642-.1306-.1535-.2367-.2812-.3155-.0639-.039-.1298-.062-.2188-.057v-.0008z"/>
<path line-height="normal" color="#000" d="m47.7128,1038.6562c-.0779,.082-.1869,.4033-.2716,.6573-.0847,.254-.2752,1.0681-.3275,1.514-.0523,.4459-.1057,1.7017-.0991,1.7017 0,0 .2213-1.388 .2752-1.6965 .0539-.3085 .2079-.9201 .3366-1.2563 .1072-.2801 .249-.4256 .3295-.4258 .0805-.0002 .1778,.2335 .2571,1.3257 .0793,1.0923 .0639,5.2513 .1183,11.4766l.1887,.016c-.0571-6.5336-.02-11.1392-.0932-12.125-.0732-.9858-.3536-1.3128-.4868-1.3126-.1331,.0002-.1493,.043-.2272,.1249z"/>
<path d="m49.3519,1050.9606c-3.2198-.3605-4.9726,1.3107-7.4404,1.2353 0,0 0,.4153 0,.4153 .9301,0 1.8601,0 6.5104,0"/>
</g>
<use width="16" height="16" xlink:href="#g3890" transform="matrix(-1 0 0 1 16.06032 0)"/>
</g>
</svg>
