<svg xmlns="http://www.w3.org/2000/svg" viewBox="0 0 580 580">
<path fill="#111" stroke="#eee" stroke-width="3.408" d="m66.275,1.768c-41.335,0-64.571,21.371-64.571,65.036v450.123c0,40.844 20.894,62.229 62.192,62.229h452.024c41.307,0 62.229-20.316 62.229-62.229v-450.123c0-42.601-20.922-65.036-63.522-65.036-.003,0-448.494-.143-448.352,0z"/>
<g fill="#fff">
<g fill-rule="evenodd">
<path d="m229,31.75c-8.4824,0-16.9375,6.1306-16.9375,15.9375l-.1875,315.25h17.4375l.1562,24.9375 160.0938-.0938 .125-24.8438 15,.125v-318.625c0-6.7961-3.9366-12.6875-11.3438-12.6875h-164.3438zm26.7812,34.8438h104.9062c5.8083,0 10.375,2.3655 10.375,10.375v82.875c0,5.6137-3.0009,9.6875-9.4062,9.6875l-105.5938-.2812c-6.0983,0-11.3438-4.5054-11.3438-11.0625l.5312-81.5c0-6.5237 4.5198-10.0938 10.5312-10.0938z"/>
<path d="m212.8321,140.1079l-16.0216-.0949c-.1039,65.193 .3713,193.8549 .6428,196.0563 .5796,4.6993 .2291,9.5678-.9775,14.0031-25.1165,63.2731-106.3881,34.2117-94.8485-27.3567 25.3448-61.0705 60.8833-102.395 78.5709-174.4254l1.5746,53.5448c-15.9182,30.9757-44.001,85.3765-65.7799,130.8498-1.8349,41.9839 48.1089,55.8162 63.7507,10.7522 6.9705-78.8817-.2621-164.8649-.3931-247.2974 10.1645-30.2173 21.38-33.1097 32.7621-31.6704"/>
</g>
<g>
<path line-height="125%" d="m151.7672,432.2528h31.8516v77.6953h49.7109v25.3828h-81.5625v-103.0781zm96.0469,0h52.9453c11.5312,.0001 20.1679,2.7423 25.9102,8.2266 5.7421,5.4845 8.6132,13.2891 8.6133,23.4141-.0001,10.4063-3.129,18.5391-9.3867,24.3984-6.2579,5.8594-15.8087,8.7891-28.6524,8.7891h-17.4375v38.25h-31.9922v-103.0781zm31.9922,43.9453h7.8047c6.1406,.0001 10.4531-1.0663 12.9375-3.1992 2.4843-2.1327 3.7265-4.8632 3.7266-8.1914-.0001-3.2343-1.0782-5.9765-3.2344-8.2266-2.1563-2.2499-6.211-3.3749-12.1641-3.375h-9.0703v22.9922zm124.0312,21.7969v-21.4453h49.2188v43.9453c-9.422,6.4219-17.754,10.793-24.9961,13.1133-7.2423,2.3203-15.8321,3.4805-25.7695,3.4805-12.2344,0-22.2071-2.0859-29.918-6.2578-7.711-4.1719-13.6875-10.3828-17.9297-18.6328-4.2422-8.25-6.3633-17.7187-6.3633-28.4062 0-11.2499 2.3203-21.0351 6.9609-29.3555 4.6406-8.3202 11.4375-14.6366 20.3906-18.9492 6.9843-3.328 16.3828-4.9921 28.1953-4.9922 11.3905,.0001 19.9101,1.0313 25.5586,3.0938 5.6483,2.0626 10.3358,5.2618 14.0625,9.5976 3.7265,4.336 6.5272,9.8321 8.4023,16.4883l-30.7266,5.4844c-1.2657-3.8906-3.4102-6.8671-6.4336-8.9297-3.0235-2.0624-6.879-3.0937-11.5664-3.0938-6.9844,.0001-12.5508,2.4259-16.6992,7.2773-4.1485,4.8516-6.2227,12.5274-6.2226,23.0274 0,11.1563 2.0976,19.125 6.293,23.9062 4.1953,4.7813 10.0429,7.1719 17.543,7.1719 3.5624,0 6.9609-.5156 10.1953-1.5469 3.2343-1.0312 6.9374-2.789 11.1094-5.2734v-9.7031h-21.3047z"/>
</g>
</g>
</svg>
