<svg xmlns="http://www.w3.org/2000/svg" viewBox="0 0 580 580">
<path fill="#111" stroke="#eee" stroke-width="3.408" d="m66.275,1.768c-41.335,0-64.571,21.371-64.571,65.036v450.123c0,40.844 20.894,62.229 62.192,62.229h452.024c41.307,0 62.229-20.316 62.229-62.229v-450.123c0-42.601-20.922-65.036-63.522-65.036-.003,0-448.494-.143-448.352,0z"/>
<g fill="#fff" fill-rule="evenodd">
<path d="m249,111.75c-8.4824,0-16.9375,6.1306-16.9375,15.9375l-.1875,315.25h17.4375l.1562,24.9375 160.0938-.0938 .125-24.8438 15,.125v-318.625c0-6.7961-3.9366-12.6875-11.3438-12.6875h-164.3438zm26.7812,34.8438h104.9062c5.8083,0 10.375,2.3655 10.375,10.375v82.875c0,5.6137-3.0009,9.6875-9.4062,9.6875l-105.5938-.2812c-6.0983,0-11.3438-4.5054-11.3438-11.0625l.5312-81.5c0-6.5237 4.5198-10.0938 10.5312-10.0938z"/>
<path d="m232.8321,220.1079l-16.0216-.0949c-.1039,65.193 .3713,193.8549 .6428,196.0563 .5796,4.6993 .2291,9.5678-.9775,14.0031-25.1165,63.2731-106.388,34.2117-94.8485-27.3567 25.3448-61.0705 60.8833-102.395 78.5709-174.4254l1.5746,53.5448c-15.9182,30.9757-44.001,85.3765-65.7799,130.8498-1.8349,41.9839 48.1089,55.8162 63.7507,10.7522 6.9705-78.8817-.2621-164.8649-.3931-247.2974 10.1645-30.2173 21.38-33.1097 32.7621-31.6704"/>
</g>
</svg>
