<svg xmlns="http://www.w3.org/2000/svg" viewBox="0 0 580 580">
<path fill="#111" stroke="#eee" stroke-width="3.408" d="m66.275,1.768c-41.335,0-64.571,21.371-64.571,65.036v450.123c0,40.844 20.895,62.229 62.192,62.229h452.024c41.307,0 62.229-20.315 62.229-62.229v-450.123c0-42.601-20.922-65.036-63.521-65.036-.004,0-448.495-.143-448.353,0z"/>
<g fill="#fff" stroke="#fff" stroke-linejoin="round" stroke-linecap="round" stroke-width="17.278">
<g transform="matrix(1.04777 0 0 1.04777 -25.10563 -24.36069)">
<path d="m241.5977,498.9042 1.8746-226.8321c7.9227-6.9186 91.6573-20.1548 210.8976-2.812l-1.8746,226.8321c-39.1593,35.3908-181.0648,26.1234-210.8976,2.812z"/>
<path d="m325.9567,303.9411c15.0924-50.034 29.0734-100.2902 31.8689-152.7836l27.1824,3.7493c-14.1957,50.5815-19.0376,103.5014-23.4331,156.5329l-35.6182-7.4986z"/>
<path d="m442.1848,284.2573c-3.772,24.268 22.338-21.2153 51.3731-19.1245 16.772,.9146 34.4919,11.201 38.5107,28.4477 3.4192,12.9829 2.9016,25.006-2.3668,37.3976-7.1024,12.7725-21.5056,25.7367-32.129,34.3263-17.3662,15.5279-41.5463,33.2409-57.3296,52.6213-1.5767,2.6186-1.4247,11.3467 3.2549,11.38 8.7109-4.6257 15.3369-12.207 23.0465-18.2333 21.4084-18.8442 36.5952-32.3174 57.7051-53.3447 9.3691-11.3986 18.9337-24.353 19.9916-36.1741 3.1431-18.3366 .2012-39.4589-14.0452-52.6597-18.3252-20.6337-59.3482-19.8354-83.248,4.436-4.1626,4.1953-.4773,6.8534-4.7633,10.9275z"/>
</g>
<g transform="matrix(1.04777 0 0 1.04777 -2.36945 7.46996)">
<path d="m100.9993,257.075 161.2195,149.9716-1.8747,67.4872-182.7779-195.9004 23.4331-21.5584z"/>
<path d="m104.6458,277.7674c11.3297-10.0917 22.0635-35.1304 18.3805-71.3079-40.2231,13.5377-87.13,68.4673-93.2636,88.1083 26.4847,6.9335 57.4073,2.5315 74.8831-16.8004z"/>
</g>
</g>
</svg>
