<svg xmlns="http://www.w3.org/2000/svg" viewBox="0 0 580 580">
<path fill="#111" stroke="#eee" stroke-width="3.408" d="m66.275,1.768c-41.335,0-64.571,21.371-64.571,65.036v450.123c0,40.844 20.895,62.229 62.192,62.229h452.024c41.307,0 62.229-20.315 62.229-62.229v-450.123c0-42.601-20.922-65.036-63.521-65.036-.004,0-448.495-.143-448.353,0z"/>
<path fill="#fff" stroke="#fff" fill-rule="evenodd" stroke-linejoin="round" stroke-linecap="round" stroke-width="18.031" d="m27.2427-248.9779l12.3059,20.1871 113.3151,44.7051-.9857-56.9823-111.5901-22.4652-13.0452,14.5553z"/>
<g transform="matrix(1.30439 0 0 1.30439 -86.58452 -49.27208)">
<path fill="#fff" stroke="#fff" stroke-linejoin="round" stroke-linecap="round" stroke-width="5.1" d="m328.3125,213.2812c-.0545,.0709-.1013,.1482-.1562,.2188-1.1134,1.4297-2.3148,2.7788-3.625,4.0625-1.3127,1.4636-2.7137,2.8089-4.1875,4.0312-1.4738,1.2223-3.0159,2.3262-4.625,3.3125-1.6091,.9863-3.2814,1.8383-5,2.5938-.9666,.4248-1.9739,.7406-2.9688,1.0938v71.8125h145.7812v-74.0938c0-7.2203-5.811-13.0312-13.0312-13.0312h-112.1875zm125.2188,87.125v41.25-41.25zm0,41.25h-145.7812v83.9375h132.75c7.2203,0 13.0312-5.811 13.0312-13.0312v-70.9062zm-145.7812,0v-41.25 41.25z"/>
<path fill="#fff" stroke="#fff" stroke-linejoin="round" stroke-linecap="round" stroke-width="5.1" d="m133.4688,213.2812c-7.2203,0-13.0312,5.811-13.0312,13.0312v74.0938h151.1875v-73.0625c-1.6404-.679-3.2575-1.4374-4.8125-2.2812-1.6653-.9036-3.2701-1.8812-4.8125-2.9688-1.5424-1.0875-3.0437-2.2963-4.4375-3.5625-1.3938-1.2662-2.6869-2.5915-3.9062-4.0312-.3249-.3836-.5949-.8231-.9062-1.2188h-119.2812zm138.1562,87.125v41.25-41.25zm0,41.25h-151.1875v70.9062c0,7.2203 5.811,13.0312 13.0312,13.0312h138.1562v-83.9375zm-151.1875,0v-41.25 41.25z"/>
<path fill="#fff" stroke="#fff" stroke-linejoin="round" stroke-linecap="round" stroke-width="5.1" d="m294.0292,152.5184c0,15.5796-12.6298,28.2094-28.2095,28.2094-15.5796,0-28.2094-12.6298-28.2094-28.2094 0-15.5796 12.6298-28.2094 28.2094-28.2094 15.5797,0 28.2095,12.6298 28.2095,28.2094z" transform="matrix(.99463 0 0 .99463 26.10794 28.10785)"/>
</g>
<g transform="matrix(1.10288 0 0 1.10288 39.57723 55.5369)">
<path fill="#fff" stroke="#000" stroke-width="1.517" d="m424.25,28.1562c-34.3252-.2968-116.3669,30.8249-145.1188,62.8938 7.0431,3.7731 18.5326,5.988 37.5251,4.5437 37.4557-24.231 90.9928-44.7209 124.4062-40.4688 7.9707-9.7799 .4783-20.2506-4.4062-23.8438-2.3181-2.0726-6.6172-3.075-12.4062-3.125z"/>
<path fill="#fff" d="m281.5421,135.4008c-2.8739,2.0528 132.117-3.1369 169.0639-45.5119 24.8947-28.5521-21.375-70.0383-7.2501-55.3846 38.3673,39.8039-136.3038,76.0537-163.4593,59.7604 8.7172,13.712 8.2723,27.424 1.6454,41.1361z"/>
</g>
<g transform="matrix(-1.10288 0 0 1.10288 547.918 53.90303)">
<path fill="#fff" stroke="#000" stroke-width="1.517" d="m424.25,28.1562c-34.3252-.2968-116.3669,30.8249-145.1188,62.8938 7.0431,3.7731 18.5326,5.988 37.5251,4.5437 37.4557-24.231 90.9928-44.7209 124.4062-40.4688 7.9707-9.7799 .4783-20.2506-4.4062-23.8438-2.3181-2.0726-6.6172-3.075-12.4062-3.125z"/>
<path fill="#fff" d="m281.5421,135.4008c-2.8739,2.0528 132.117-3.1369 169.0639-45.5119 24.8947-28.5521-21.375-70.0383-7.2501-55.3846 38.3673,39.8039-136.3038,76.0537-163.4593,59.7604 8.7172,13.712 8.2723,27.424 1.6454,41.1361z"/>
</g>
<g transform="matrix(1.30439 0 0 1.30439 -86.58452 -49.27208)">
<path opacity=".99" fill="none" stroke="#fff" stroke-width="5.1" d="m250.9013,425.6618h78.1185"/>
</g>
</svg>
