<svg xmlns="http://www.w3.org/2000/svg" viewBox="0 0 580 580">
<path fill="#111" stroke="#eee" stroke-width="3.408" d="m66.275,1.768c-41.335,0-64.571,21.371-64.571,65.036v450.123c0,40.844 20.894,62.229 62.192,62.229h452.024c41.307,0 62.229-20.316 62.229-62.229v-450.123c0-42.601-20.922-65.036-63.522-65.036-.003,0-448.494-.143-448.352,0z"/>
<g fill="none" stroke="#fff" stroke-linejoin="round" stroke-linecap="round" stroke-width="15.573">
<g transform="matrix(.74836 0 0 .74836 21.4084 4.63441)">
<path d="m219.4357,376.0793 .4405-111.4409"/>
<path d="m285.4319,303.9921-35.2382,72.2384"/>
<path d="m329.5552,332.0315-43.1668,44.0478"/>
<path d="m159.3496,300.9087 30.393,75.3217"/>
<path d="m110.8214,333.353 42.7264,42.7264"/>
</g>
<g transform="matrix(.74836 0 0 .74836 221.4084 -91.36559)">
<path d="m219.4357,376.0793 .4405-111.4409"/>
<path d="m285.4319,303.9921-35.2382,72.2384"/>
<path d="m329.5552,332.0315-43.1668,44.0478"/>
<path d="m159.3496,300.9087 30.393,75.3217"/>
<path d="m110.8214,333.353 42.7264,42.7264"/>
</g>
<g transform="matrix(.74836 0 0 .74836 125.4084 154.63442)">
<path d="m219.4357,376.0793 .4405-111.4409"/>
<path d="m285.4319,303.9921-35.2382,72.2384"/>
<path d="m329.5552,332.0315-43.1668,44.0478"/>
<path d="m159.3496,300.9087 30.393,75.3217"/>
<path d="m110.8214,333.353 42.7264,42.7264"/>
</g>
</g>
</svg>
