<svg xmlns="http://www.w3.org/2000/svg" viewBox="0 0 580 580" xmlns:xlink="http://www.w3.org/1999/xlink">
<path fill="#111" stroke="#eee" stroke-width="3.408" d="m66.275,1.768c-41.335,0-64.571,21.371-64.571,65.036v450.123c0,40.844 20.895,62.229 62.192,62.229h452.024c41.307,0 62.229-20.315 62.229-62.229v-450.123c0-42.601-20.922-65.036-63.521-65.036-.004,0-448.495-.143-448.353,0z"/>
<g fill="#fff">
<path d="m472.0021,95.1295c0,0-37.7935,128.0884-148.8412,89.9073-.0193,.0801 13.3995-111.5921 148.8412-89.9073z"/>
<path d="m285.862,253.5767c19.1897-18.9834 45.3952-30.4354 74.4892-30.4354 58.7042,0 106.4722,47.5617 106.4722,106.369 0,2.1666 0,4.0237-.1032,6.2934h-.2063c-1.8571,23.0071-9.1822,51.5854-26.515,87.0761 0,0-29.8163,57.0534-53.752,83.2588l-2.1666,2.0634c-11.5551,11.6583-27.8561,18.9834-45.4982,18.9834-21.6659,0-40.8557-10.5234-52.514-26.8244h-.3095c-11.6583,16.301-30.848,26.8244-52.5139,26.8244-17.8485,0-33.9432-7.222-45.6015-18.9834l-2.1666-2.0634c-23.7293-26.2054-53.7519-83.2588-53.7519-83.2588-17.3327-35.4907-24.6578-64.2754-26.3085-87.0761h-.5159c-.3095-2.1666-.3095-4.0236-.3095-6.2934 0-58.8073 47.7681-106.369 106.6785-106.369 28.991,0 55.1963,11.452 74.5924,30.4354"/>
<path d="m128.2588,55.3843c0,0 22.4553,111.9065 119.8847,87.8284 .0103,.0697-2.9406-96.0128-119.8847-87.8284z"/>
<path stroke="#fff" stroke-width="4.836" d="m282.7594,231.0496c0,0-1.0821-114.9027-12.9854-144.8773-11.9033-29.9746 40.0384,0 40.0384,0l-27.053,144.8773z"/>
</g>
</svg>
