<svg xmlns="http://www.w3.org/2000/svg" viewBox="0 0 580 580">
<path fill="#111" stroke="#eee" stroke-width="3.408" d="m66.275,1.768c-41.335,0-64.571,21.371-64.571,65.036v450.123c0,40.844 20.895,62.229 62.192,62.229h452.024c41.307,0 62.229-20.315 62.229-62.229v-450.123c0-42.601-20.922-65.036-63.521-65.036-.004,0-448.495-.143-448.353,0z"/>
<g fill="#fff" stroke="#fff" fill-rule="evenodd">
<g>
<path stroke-linejoin="round" stroke-linecap="round" stroke-width="9.306" d="m269.4171,65.3085c0,0-118.5746-14.9618-132.4592-7.3517-13.8846,7.6101-92.3044,413.742-82.5008,430.1923 9.8036,16.4504 138.9046,15.6013 138.9046,15.6013l-134.1913-19.1025 82.3719-423.187 127.8748,3.8476z"/>
</g>
<g stroke-linecap="square" stroke-width="6.204">
<path d="m132.8007,97.2637 128.636,17.4016-130.9319-2.4779 2.2959-14.9237z"/>
<path d="m125.4141,145.214 128.636,17.4016-130.9319-2.4779 2.2959-14.9237z"/>
<path d="m116.7727,193.1643 128.636,17.4016-130.9319-2.4779 2.2959-14.9237z"/>
<path d="m107.254,241.1145 128.636,17.4016-130.9319-2.4779 2.2959-14.9237z"/>
<path d="m98.4,289.0648 128.636,17.4016-130.9319-2.4779 2.2959-14.9237z"/>
<path d="m90.5529,337.0151 128.636,17.4016-130.9319-2.4779 2.2959-14.9237z"/>
<path d="m79.0658,384.9653 128.636,17.4016-130.9319-2.4779 2.2959-14.9237z"/>
<path d="m71.6458,432.9156 128.636,17.4016-130.9319-2.4779 2.2959-14.9237z"/>
</g>
<g stroke-linejoin="round" stroke-linecap="round" stroke-width="8" transform="matrix(1.23907 0 0 1.23907 -109.93184 -67.23945)">
<path d="m378.0312,82.5938c-3.3439,.3155 13.1714,105.456 19.8945,131.3356 10.2491,39.4525 .3567,4.6712 15.3868,67.6019 22.0263,92.2237 45.0944,167.9093 55.2549,178.849 15.3633,16.5414 45.0101,11.1068 54.4792-15.4615 7.1088-19.9459 11.0365-47.5896-13.5579-64.9538-24.3379-17.1831-48.7799,1.6513-48.7799,1.6513l-81.7089-298.7725c-.1337-.2153-.491-.2951-.9688-.25zm112.9062,300.75c14.412,.0355 29.0817,16.8764 29.0774,38.27v.0625c-.0239,21.4122-14.7467,39.2967-29.1712,39.2612-14.4246-.0355-29.6438-20.9578-29.6199-42.3699 .0239-21.4121 15.2891-35.2593 29.7137-35.2238z"/>
<path d="m478.092,83.6787c3.3439,.3155-13.1714,105.456-19.8945,131.3356-10.2491,39.4525-.3567,4.6712-15.3868,67.6019-22.0263,92.2237-45.0944,167.9093-55.2549,178.849-15.3633,16.5414-45.0101,11.1068-54.4792-15.4615-7.1089-19.9459-11.0365-47.5896 13.5579-64.9538 24.3379-17.1831 48.7799,1.6513 48.7799,1.6513l81.7089-298.7725c.1337-.2153 .491-.2951 .9688-.25zm-112.9062,300.75c-14.412,.0355-29.0817,16.8764-29.0774,38.27v.0625c.0239,21.4122 14.7466,39.2967 29.1712,39.2612 14.4246-.0355 29.6438-20.9578 29.6199-42.3699-.0239-21.4121-15.2891-35.2593-29.7137-35.2238z"/>
</g>
</g>
</svg>
