<svg xmlns="http://www.w3.org/2000/svg" viewBox="0 0 580 580" xmlns:xlink="http://www.w3.org/1999/xlink">
<defs/>
<path fill="#111" stroke="#eee" stroke-width="3.408" d="m66.275,1.768c-41.335,0-64.571,21.371-64.571,65.036v450.123c0,40.844 20.895,62.229 62.192,62.229h452.024c41.307,0 62.229-20.315 62.229-62.229v-450.123c0-42.601-20.922-65.036-63.521-65.036-.004,0-448.495-.143-448.353,0z"/>
<g fill="#fff">
<g>
<path d="m290.3345,291.1251"/>
<path d="m290.3345,291.1251"/>
<path d="m290.3345,291.1251"/>
<path d="m282.2911,185.4463h10.5679c58.9453,.1174 92.7625,56.2446 92.9974,94.2303-.2348,7.3975-2.0549,13.7382-10.4505,13.5621-17.6719,.1761-11.3311-28.2397-25.8913-52.4284-6.8691-11.9182-29.003-33.465-54.2485-33.2888h-9.2763c-13.5034-.1761-38.9837,7.6324-56.0685,33.2888-21.3119,30.9991-7.3388,53.7201-25.2455,53.6026-2.7594,.1174-10.6853-.7045-10.5679-13.5034 .8219-58.2995 54.2485-95.3458 88.1831-95.4632z"/>
<path d="m290.3345,507.8254c22.1338,.2348 39.2186-22.1925 39.4534-37.6334v-32.0559c-.2348-65.6383 68.6912-91.5296 68.4564-157.2266 .2348-61.5286-55.364-108.0273-107.9098-107.9098-43.5632-.1174-73.2707,28.0049-84.4844,42.5651-33.6998,41.6844-14.3254,81.4314-38.1618,81.4314-6.7517,0-13.4447-3.8162-13.5034-17.3196-1.0568-65.1686 52.722-134.2708 137.4999-134.3882 68.339,.1174 135.5625,54.6007 135.5625,138.1457 0,77.3804-67.7519,93.5845-67.7519,161.5125v29.003c0,29.8249-26.5958,63.9357-70.2764,64.1118-1.5852-.4697-3.4639-1.0568-5.5188-1.2329-8.0433-2.4071-13.6208-10.8614-11.6834-19.0809 2.2897-7.1627 8.924-8.924 17.9067-9.8634h.411v-.0587z"/>
<path d="m-138.979,376.999h24.364v66.519h-24.364z" transform="matrix(.70591 -.70831 .70831 .70591 0 0)"/>
<path d="m232.7395,335.158c-.2348-7.5149 5.871-13.6208 13.0924-13.8557 7.9259,.2348 13.9731,6.3407 13.8557,13.8557 .1174,7.5736-5.9885,13.6208-13.8557,13.8557-7.2214-.1761-13.2686-6.282-13.0924-13.8557z"/>
<path d="m276.4788,291.4774c.1174-7.8085 6.1646-13.9144 13.8557-13.8557 7.4562-.0587 13.5034,6.1059 13.8557,13.8557-.3523,7.2214-6.3994,13.386-13.8557,13.0924-7.6911,.2935-13.7382-5.8711-13.8557-13.0924z"/>
<path d="m98.9384,468.9004c-.3523-7.3388 5.871-13.4447 13.2099-13.0924 7.6911-.411 13.7382,5.7536 13.8557,13.0924-.1174,7.7498-6.1646,13.797-13.8557,13.8557-7.3388-.0587-13.5621-6.1646-13.2099-13.8557z"/>
<path d="m142.7364,425.2198c0-7.6911 6.1059-13.797 13.8557-13.8557 7.2214,.1174 13.4447,6.1646 13.0924,13.8557 .3523,7.3975-5.871,13.4447-13.0924,13.8557-7.7498-.411-13.8557-6.4581-13.8557-13.8557z"/>
</g>
<g fill-rule="evenodd">
<path d="m330.375,118.8099c58.3582,14.795 105.1504,58.9453 123.4094,115.9532l21.5467-6.8104c-20.8422-64.2293-72.9184-114.0744-138.7328-130.6895l-6.1646,22.1926v-.6458h-.0587z"/>
<path d="m342.1758,73.779 6.1059-22.1926c81.5488,20.49 146.7762,81.9598 172.6675,161.5125l-22.8384,7.3975c-23.3668-71.7442-82.4295-127.8127-155.935-146.7174z"/>
</g>
</g>
</svg>
