<svg xmlns="http://www.w3.org/2000/svg" viewBox="0 0 580 580">
<path fill="#111" stroke="#eee" stroke-width="3.408" d="m66.275,1.768c-41.335,0-64.571,21.371-64.571,65.036v450.123c0,40.844 20.895,62.229 62.192,62.229h452.024c41.307,0 62.229-20.315 62.229-62.229v-450.123c0-42.601-20.922-65.036-63.521-65.036-.004,0-448.495-.143-448.353,0z"/>
<g stroke="#fff">
<g fill="#fff" stroke-linejoin="round" stroke-linecap="round" stroke-width="1.583" transform="matrix(10.99513 0 0 10.99513 557.22085 953.85807)">
<path d="m-35.1367-75.4777 3.9453,0 0,11.9531 14.3359,0 0-11.9531 3.9453,0 0,29.1602-3.9453,0 0-13.8867-14.3359,0 0,13.8867-3.9453,0 0-29.1602"/>
</g>
<g>
<path fill="none" stroke-width="25.138" d="m505.7143,305.7143a288.5714,288.5714 0 1,1 -577.1429,0 288.5714,288.5714 0 1,1 577.1429,0z" transform="matrix(.85327 0 0 .85327 105.32353 26.1999)"/>
</g>
</g>
</svg>
