<svg xmlns="http://www.w3.org/2000/svg" viewBox="0 0 580 580">
<path fill="#111" stroke="#eee" stroke-width="3.408" d="m66.275,1.768c-41.335,0-64.571,21.371-64.571,65.036v450.123c0,40.844 20.896,62.229 62.192,62.229h452.024c41.307,0 62.229-20.314 62.229-62.229v-450.123c0-42.601-20.922-65.036-63.521-65.036-.004,0-448.495-.143-448.353,0z"/>
<g fill="#fff">
<g stroke="#fff">
<g stroke-linejoin="round" stroke-linecap="round" transform="matrix(1.48515 0 0 1.48515 -135.79563 -178.9105)">
<path stroke-width="18.7" d="m265.1087,398.2169 133.2798,0"/>
<path stroke-width="8.5" d="m325.4005,283.745c-27.1143,.8451-53.3427,9.4246-80.529,9.8796-34.9293,2.294-76.9975,3.8767-111.9406,2.337 1.9966,1.2953 11.5442,.3737 11.4615,10.5042 2.816,5.2117-6.1435,12.8561-2.3709,14.3794 44.4149,2.7783 104.7814,26.5899 152.5041,46.6498 24.344,8.366 50.9394,6.8236 76.25,4.625 13.2154-2.2049 29.9283-3.2619 37.1562-16.5 3.203-9.1162-.0009-19.2865-3.3438-27.875-11.6761-27.0271-41.1744-41.7099-69.4655-43.7371-3.2314-.2689-6.4806-.3543-9.722-.2629zm25.9629,11.9717c12.0857,1.0386 24.3027,7.0564 32.101,16.1831 8.6238,8.0803 13.1613,20.0468 14.024,31.9419-15.666,.5292-28.8175-.0801-43.7166-.0801-7.736-16.0596-16.4703-31.1974-24.1271-47.2949 7.2289-.5623 12.9362-1.236 21.7188-.75zm-34.5938,1.7252c7.2081,7.0192 17.1198,39.0273 20.9355,47.7889-12.8438-.1436-32.9088,.3544-45.7523,.1904-.134-7.9585-.6194-39.7774-.7515-47.736 8.1043-.1244 17.464-.1331 25.5683-.2433z"/>
</g>
<g transform="matrix(1.48515 0 0 1.48515 -135.79563 -178.9105)">
<path stroke-width="3.7" d="m311.7279,272.3188c-12.3058-2.2618-27.0543,8.7294-38.9311,13.8143l36.4194,2.5117 41.7915-5.0234c-8.5885-4.4561-26.0728-13.0045-39.2798-11.3026z"/>
<path stroke-width="10.4" d="m311.7279,245.3183-.6279,30.7681"/>
</g>
<g stroke-linejoin="round" stroke-linecap="round">
<g transform="matrix(1.48515 0 0 1.48515 -135.79563 -178.9105)">
<path stroke-width="5.1" d="m156.0824,228.9923 154.3896,14.4422 159.413-13.8142-7.535,8.7909-150.6221,8.163-148.1104-6.9071-7.5351-10.6747z"/>
</g>
<g stroke-width="10.1" transform="matrix(1.48515 0 0 1.48515 -135.79563 -178.9105)">
<path d="m124.3287,293.7512c-3.5623-9.4795-6.9891-19.0381-10.5219-28.5375l-6.5938,.375c4.6551,9.7091 9.0831,19.8287 13.7393,29.5356"/>
<path d="m132.4186,323.7808 10.1694,29.1829c1.6827-.5431 6.5322,.9888 6.9062-1.0625-5.3782-9.4218-9.3767-19.6869-13.7658-29.7152"/>
</g>
</g>
</g>
<g transform="matrix(1.48515 0 0 1.48515 -135.79563 -178.9105)">
<path stroke-linejoin="round" stroke-linecap="round" stroke-width="18.7" d="m126.5824,291.3025c-12.6321,.0284-21.2103,15.4643-14.7528,26.2272 5.6325,11.5971 23.7324,12.381 30.4382,1.4131 8.0817-11.833-1.2235-28.5845-15.6854-27.6403zm.4805,7.9982c8.3469-.7882 13.606,10.541 7.5742,16.3637-5.3433,6.461-17.0178,2.1319-16.929-6.2176-.302-5.2467 4.0988-10.0194 9.3547-10.1461z"/>
</g>
</g>
</svg>
