<svg xmlns="http://www.w3.org/2000/svg" viewBox="0 0 580 580">
<path fill="#111" stroke="#eee" stroke-width="3.408" d="m66.275,1.768c-41.335,0-64.571,21.371-64.571,65.036v450.123c0,40.844 20.895,62.229 62.192,62.229h452.024c41.307,0 62.229-20.315 62.229-62.229v-450.123c0-42.601-20.922-65.036-63.521-65.036-.004,0-448.495-.143-448.353,0z"/>
<path fill="#fff" stroke="#fff" fill-rule="evenodd" stroke-linejoin="round" stroke-linecap="round" stroke-width="18.031" d="m27.2427-248.9779l12.3059,20.1871 113.3151,44.7051-.9857-56.9823-111.5901-22.4652-13.0452,14.5553z"/>
<g transform="matrix(2.33788 0 0 2.33788 -390.83818 -608.90721)">
<path fill="#fff" d="m102.5,468.7888c-7.3552,0-13.2812,5.926-13.2812,13.2812v46.0549c0,7.3552 5.926,13.2812 13.2812,13.2812h378.7188c7.3552,0 13.2812-5.926 13.2812-13.2812v-46.0549c0-7.3552-5.926-13.2812-13.2812-13.2812h-378.7188zm8.75,22.1799h55.1875c5.2586,0 9.4688,4.2414 9.4688,9.5v11.3438c0,5.2586-4.2101,9.5-9.4688,9.5h-55.1875c-5.2586,0-9.5-4.2414-9.5-9.5v-11.3438c0-5.2586 4.2414-9.5 9.5-9.5zm100,0h55.1875c5.2586,0 9.4688,4.2414 9.4688,9.5v11.3438c0,5.2586-4.2101,9.5-9.4688,9.5h-55.1875c-5.2586,0-9.5-4.2414-9.5-9.5v-11.3438c0-5.2586 4.2414-9.5 9.5-9.5zm100,0h55.1875c5.2586,0 9.4688,4.2414 9.4688,9.5v11.3438c0,5.2586-4.2101,9.5-9.4688,9.5h-55.1875c-5.2586,0-9.5-4.2414-9.5-9.5v-11.3438c0-5.2586 4.2414-9.5 9.5-9.5zm100,0h55.1875c5.2586,0 9.4688,4.2414 9.4688,9.5v11.3438c0,5.2586-4.2101,9.5-9.4688,9.5h-55.1875c-5.2586,0-9.5-4.2414-9.5-9.5v-11.3438c0-5.2586 4.2414-9.5 9.5-9.5z" transform="matrix(.51935 0 0 .51935 141.36813 159.95148)"/>
<path fill="#fff" d="m207.061,436.783h23.869a6.5099,6.5099 0 0,1 6.51,6.51 6.5099,6.5099 0 0,1 -6.51,6.51h-23.869a6.5099,6.5099 0 0,1 -6.51-6.51 6.5099,6.5099 0 0,1 6.51-6.51"/>
<path fill="#fff" d="m355.061,436.783h23.869a6.5099,6.5099 0 0,1 6.51,6.51 6.5099,6.5099 0 0,1 -6.51,6.51h-23.869a6.5099,6.5099 0 0,1 -6.51-6.51 6.5099,6.5099 0 0,1 6.51-6.51"/>
</g>
<g transform="matrix(2.33788 0 0 2.33788 -390.83818 -760.5313)">
<path fill="#fff" d="m102.5,319.2146c-7.3552,0-13.2812,5.926-13.2812,13.2812v72.3792c0,7.3552 5.926,13.2812 13.2812,13.2812h378.7188c7.3552,0 13.2812-5.926 13.2812-13.2812v-72.3792c0-7.3552-5.926-13.2812-13.2812-13.2812h-378.7188zm331.6875,15.2854c20.7682,0 37.5938,16.8255 37.5938,37.5938 0,20.7682-16.8255,37.5938-37.5938,37.5938-20.7682,0-37.625-16.8255-37.625-37.5938 0-20.7682 16.8568-37.5938 37.625-37.5938zm-318.2188,4 55.1875,0c5.2586,0 9.5,4.2414 9.5,9.5v11.3438c0,5.2586-4.2414,9.5-9.5,9.5h-55.1875c-5.2586,0-9.4688-4.2414-9.4688-9.5v-11.3438c0-5.2586 4.2101-9.5 9.4688-9.5z" transform="matrix(.51935 0 0 .51935 141.36813 223.95148)"/>
<path fill="#fff" d="m207.061,436.783h23.869a6.5099,6.5099 0 0,1 6.51,6.51 6.5099,6.5099 0 0,1 -6.51,6.51h-23.869a6.5099,6.5099 0 0,1 -6.51-6.51 6.5099,6.5099 0 0,1 6.51-6.51"/>
<path fill="#fff" d="m355.061,436.783h23.869a6.5099,6.5099 0 0,1 6.51,6.51 6.5099,6.5099 0 0,1 -6.51,6.51h-23.869a6.5099,6.5099 0 0,1 -6.51-6.51 6.5099,6.5099 0 0,1 6.51-6.51"/>
</g>
</svg>
