<svg xmlns="http://www.w3.org/2000/svg" viewBox="0 0 580 580">
<path fill="#111" stroke="#eee" stroke-width="3.408" d="m66.275,1.768c-41.335,0-64.571,21.371-64.571,65.036v450.123c0,40.844 20.894,62.229 62.192,62.229h452.024c41.307,0 62.229-20.316 62.229-62.229v-450.123c0-42.601-20.922-65.036-63.522-65.036-.003,0-448.494-.143-448.352,0z"/>
<g fill="#fff">
<path d="m362.9823,178.7495c-18.3712,.5952-37.2403,3.3017-53.875,11.2188-11.2549,7.221-22.3617,14.5029-33.4062,22.0312-1.4685,1.06-6.639,5.0934-2.0938,3.0625 23.1495-7.6049 43.8109-22.2592 68.1927-26.4769 20.6097-5.155 44.5539-7.4855 63.0573,4.8832 12.3432,7.7097 22.9958,18.0565 36.3125,24.25 14.2775,7.771 24.7179,24.7607 41.0938,26.75-16.387-23.1321-44.7465-33.047-64.5901-52.785-14.7154-13.8343-35.8556-12.6291-54.6911-12.9338z"/>
<path d="m196.7054,94.2544c-39.2208-.837-81.1844,5.7351-111.3237,32.7422-17.8471,15.2061-33.7635,33.6304-55.27,43.7578-2.6508,3.0097 2.8001,3.7593 4.9062,3 9.0192-2.2793 15.9548-9.3516 24.0769-13.8436 15.986-10.6157 29.6765-23.9299 42.5742-37.9433 13.177-9.5366 29.8714-12.0089 45.2614-16.3728 24.519-5.3223 49.9094-8.7792 74.9937-6.6529 17.9245,4.5763 29.1299,21.0951 44.8438,29.9688 15.1761,9.8926 31.5249,18.7369 45.25,30.25 1.1155-1.9244-.9151-5.5337-1.1562-7.8438-3.153-7.0615-11.4334-9.8669-17.1875-14.5312-15.5631-9.4791-31.5485-18.7702-44.2812-31.8125-7.3915-7.1188-17.2136-11.0695-27.5-10.4688-8.3866-.4434-16.7929-.3317-25.1875-.25z"/>
<path d="m230.655,246.0068c-31.6238,2.6122-64.4086,9.4229-89.7117,29.6552-17.035,12.8395-31.0421,29.7946-50.0696,39.6886-1.9209,2.7815 2.8422,7.2858 4.9375,3.7812 24.245-13.1651 41.5513-35.8163 64.8437-50.2188 22.7486-11.9244 48.9527-14.498 74.0938-17.625 17.5728-.8973 36.1996,4.8049 47.5625,18.7188 15.2644,12.8578 34.815,19.8318 48.8125,34.1875 6.3389,5.2207 11.4996,13.4962 19.4375,15.4375-.5308-5.8625-6.2813-9.8149-9.5312-14.3438-14.0264-15.2832-32.8509-24.4709-49.75-35.9375-9.3585-7.951-17.8051-19.7368-31.3806-19.9444-9.7225-1.5408-19.3656-3.6178-29.2444-3.3994z"/>
</g>
</svg>
