<svg xmlns="http://www.w3.org/2000/svg" viewBox="0 0 580 580">
<path fill="#111" stroke="#eee" stroke-width="3.408" d="m66.275,1.768c-41.335,0-64.571,21.371-64.571,65.036v450.123c0,40.844 20.895,62.229 62.192,62.229h452.024c41.307,0 62.229-20.315 62.229-62.229v-450.123c0-42.601-20.922-65.036-63.521-65.036-.004,0-448.495-.143-448.353,0z"/>
<g stroke="#fff">
<g>
<path fill="none" stroke-width="25.138" d="m505.7143,305.7143a288.5714,288.5714 0 1,1 -577.1429,0 288.5714,288.5714 0 1,1 577.1429,0z" transform="matrix(.86047 0 0 .86047 100.67386 22.91201)"/>
</g>
<g fill="#fff" stroke-linejoin="round" stroke-width="20">
<path d="m-468.656-326.888h362.273v81.835h-362.273z" transform="scale(-1)"/>
<path d="m-467.107,246.602h362.273v81.835h-362.273z" transform="matrix(0 -1 1 0 0 0)"/>
</g>
</g>
</svg>
