<svg xmlns="http://www.w3.org/2000/svg" viewBox="0 0 580 580">
<path fill="#111" stroke="#eee" stroke-width="3.408" d="m66.275,1.768c-41.335,0-64.571,21.371-64.571,65.036v450.123c0,40.844 20.895,62.229 62.192,62.229h452.024c41.307,0 62.229-20.315 62.229-62.229v-450.123c0-42.601-20.922-65.036-63.521-65.036-.004,0-448.495-.143-448.353,0z"/>
<g stroke="#fff">
<g>
<path fill="none" stroke-width="25.138" d="m505.7143,305.7143a288.5714,288.5714 0 1,1 -577.1429,0 288.5714,288.5714 0 1,1 577.1429,0z" transform="matrix(.62628 0 0 .62628 91.52624 94.50681)"/>
</g>
<g fill="#fff" stroke-width="7.872">
<path d="m-370.104-318.18h285.169v64.418h-285.169z" transform="scale(-1)"/>
<path d="m-428.555,195.31h285.169v64.418h-285.169z" transform="matrix(0 -1 1 0 0 0)"/>
</g>
</g>
<path fill="#fff" d="m489.22,385.4224c-2.5653,.3784-4.4892,.5676-5.7717,.5675-1.7957,.0001-4.4891-.2837-8.0803-.8512l-12.3128-163.4252c-.7696-11.3487-2.95-25.8186-6.5412-43.4098-5.1304-23.4543-7.6955-40.2885-7.6955-50.5029 0-10.2137 3.2064-17.9216 9.6194-23.1235 6.4129-5.2012 14.2366-7.802 23.4713-7.8024 10.0041,.0004 18.4692,2.6012 25.3953,7.8024 6.9258,5.202 10.3888,12.5315 10.3889,21.9886-.0001,8.7012-2.5653,29.4131-7.6955,62.1356-10.0043,62.7978-15.2629,103.5595-15.7758,122.2852l-3.0782,68.0938c-.2566,1.5133-.8979,3.5939-1.9239,6.2419zm-45.4036,59.8658c0-7.9442 3.9119-14.8009 11.7357-20.57 7.8237-5.769 17.379-8.6535 28.6658-8.6536 10.7737,0 19.8159,2.79 27.1268,8.3699 7.3106,5.5799 10.966,11.9637 10.9661,19.1514-.0001,7.1877-4.2327,14.1862-12.6976,20.9956-8.4652,6.8094-16.9303,10.2141-25.3953,10.2141-9.2347,0-18.2769-3.3101-27.1267-9.9304-8.8499-6.6202-13.2748-13.1459-13.2748-19.577z"/>
</svg>
