<svg xmlns="http://www.w3.org/2000/svg" viewBox="0 0 580 580">
<path fill="#111" stroke="#eee" stroke-width="3.408" d="m66.275,1.768c-41.335,0-64.571,21.371-64.571,65.036v450.123c0,40.844 20.895,62.229 62.192,62.229h452.024c41.307,0 62.229-20.315 62.229-62.229v-450.123c0-42.601-20.922-65.036-63.521-65.036-.004,0-448.495-.143-448.353,0z"/>
<g stroke="#fff">
<g>
<path fill="none" stroke-width="25.138" d="m505.7143,305.7143a288.5714,288.5714 0 1,1 -577.1429,0 288.5714,288.5714 0 1,1 577.1429,0z" transform="matrix(.76747 0 0 .76747 122.86876 55.3443)"/>
</g>
<g fill="#fff" stroke-width="9.702">
<path d="m-465.265-329.671h351.492v79.4h-351.492z" transform="scale(-1)"/>
<path d="m-465.717,249.819h351.492v79.4h-351.492z" transform="matrix(0 -1 1 0 0 0)"/>
</g>
<g>
<path fill="none" stroke-width="21.699" d="m505.7143,305.7143a288.5714,288.5714 0 1,1 -577.1429,0 288.5714,288.5714 0 1,1 577.1429,0z" transform="matrix(.88911 0 0 .88911 96.45554 18.15727)"/>
</g>
</g>
</svg>
