<svg xmlns="http://www.w3.org/2000/svg" viewBox="0 0 580 580">
<path fill="#111" stroke="#eee" stroke-width="3.408" d="m66.275,1.768c-41.335,0-64.571,21.371-64.571,65.036v450.123c0,40.844 20.895,62.229 62.192,62.229h452.024c41.307,0 62.229-20.315 62.229-62.229v-450.123c0-42.601-20.922-65.036-63.521-65.036-.004,0-448.495-.143-448.353,0z"/>
<g fill="#fff" stroke="#fff">
<g fill-rule="evenodd" stroke-width="35.829">
<path stroke-linecap="round" d="m47.5458,43.3939-3.199,494.7269"/>
<path d="m50.7448,485.35 479.8495,3.199"/>
<path stroke-linecap="round" d="m533.7933,528.5239 3.199-384.4845"/>
</g>
<g>
<path stroke-width="34.702" d="m256.43,393.631h169.361a19.3027,19.3027 0 0,1 19.303,19.302 19.3027,19.3027 0 0,1 -19.303,19.303h-169.361a19.3027,19.3027 0 0,1 -19.303-19.303 19.3027,19.3027 0 0,1 19.303-19.302"/>
<path stroke-width="2.3" d="m9.2857,16.0179a1.5179,1.3393 0 1,1 -3.0357,0 1.5179,1.3393 0 1,1 3.0357,0z" transform="matrix(18.92139 0 0 19.88919 29.57252 29.58284)"/>
<path stroke-width="30.176" d="m123.425,423.963h73.397a3.4469,3.4469 0 0,1 3.447,3.447 3.4469,3.4469 0 0,1 -3.447,3.447h-73.397a3.4469,3.4469 0 0,1 -3.447-3.447 3.4469,3.4469 0 0,1 3.447-3.447"/>
<path fill-rule="evenodd" stroke-width="35.829" d="m55.5036,249.652 479.8495,3.199"/>
<path stroke-width="34.702" d="m260.975,159.186h169.361a19.3027,19.3027 0 0,1 19.303,19.303 19.3027,19.3027 0 0,1 -19.303,19.303h-169.361a19.3027,19.3027 0 0,1 -19.302-19.303 19.3027,19.3027 0 0,1 19.302-19.303"/>
<path stroke-width="2.3" d="m9.2857,16.0179a1.5179,1.3393 0 1,1 -3.0357,0 1.5179,1.3393 0 1,1 3.0357,0z" transform="matrix(18.92139 0 0 19.88919 34.1178 -204.86148)"/>
<path stroke-width="30.176" d="m127.971,189.519h73.397a3.4469,3.4469 0 0,1 3.446,3.447 3.4469,3.4469 0 0,1 -3.446,3.447h-73.397a3.4469,3.4469 0 0,1 -3.447-3.447 3.4469,3.4469 0 0,1 3.447-3.447"/>
</g>
</g>
</svg>
