<svg xmlns="http://www.w3.org/2000/svg" viewBox="0 0 580 580">
<path fill="#111" stroke="#eee" stroke-width="3.408" d="m66.275,1.768c-41.335,0-64.571,21.371-64.571,65.036v450.123c0,40.844 20.895,62.229 62.192,62.229h452.024c41.307,0 62.229-20.315 62.229-62.229v-450.123c0-42.601-20.922-65.036-63.521-65.036-.004,0-448.495-.143-448.353,0z"/>
<g stroke="#fff" stroke-linejoin="round" color="#000">
<g>
<path fill="none" stroke-width="27.988" d="m224.6534,174.2156-133.245,364.7944 305.9344-230.4128z"/>
</g>
<g fill="#fff" stroke-width="35">
<path opacity=".25" d="m371.3227,145.7672c0,44.0659-35.7225,79.7884-79.7884,79.7884-44.0659,0-79.7884-35.7225-79.7884-79.7884 0-44.0659 35.7225-79.7884 79.7884-79.7884 44.0659,0 79.7884,35.7225 79.7884,79.7884z" transform="matrix(.99561 -.09364 .09364 .99561 7.90251 17.7221)"/>
<path d="m371.3227,145.7672c0,44.0659-35.7225,79.7884-79.7884,79.7884-44.0659,0-79.7884-35.7225-79.7884-79.7884 0-44.0659 35.7225-79.7884 79.7884-79.7884 44.0659,0 79.7884,35.7225 79.7884,79.7884z" transform="matrix(.99561 -.09364 .09364 .99561 115.017 97.11943)"/>
</g>
<g>
<path fill="none" stroke-width="10" d="m371.3227,145.7672c0,44.0659-35.7225,79.7884-79.7884,79.7884-44.0659,0-79.7884-35.7225-79.7884-79.7884 0-44.0659 35.7225-79.7884 79.7884-79.7884 44.0659,0 79.7884,35.7225 79.7884,79.7884z" transform="matrix(1.15457 -.10859 .10859 1.15457 -40.61965 -1.09088)"/>
<path opacity=".01" fill="#fff" stroke-width="27.988" d="m224.6534,174.2156-133.245,364.7944 305.9344-230.4128z"/>
</g>
</g>
</svg>
