<svg xmlns="http://www.w3.org/2000/svg" viewBox="0 0 580 580">
<path fill="#111" stroke="#eee" stroke-width="3.408" d="m66.275,1.768c-41.335,0-64.571,21.371-64.571,65.036v450.123c0,40.844 20.894,62.229 62.192,62.229h452.024c41.307,0 62.229-20.316 62.229-62.229v-450.123c0-42.601-20.922-65.036-63.522-65.036-.003,0-448.494-.143-448.352,0z"/>
<path fill="#fff" line-height="100%" d="m-293.9688,344.2415c0-.8437 .2734-1.5351 .8203-2.0742 .5469-.539 1.25-.8086 2.1094-.8086 .9219,0 1.6875,.2852 2.2969,.8555 .6094,.5703 .914,1.2149 .9141,1.9336 0,.5313-.1211,1.0625-.3633,1.5938-.2422,.5313-.625,.9571-1.1484,1.2774-.5235,.3203-1.0586,.4805-1.6055,.4805-.75,0-1.4414-.3203-2.0742-.9609-.6328-.6406-.9492-1.4062-.9492-2.2969zm-3.2812,27.9609l-.0469-1.5234 2.6484-.3516c.3906-.1094 .6601-.2695 .8086-.4805 .1484-.2109 .2226-.6836 .2226-1.418v-.2578c0-.1875 .0117-.5273 .0352-1.0195 .0234-.4922 .0351-.9258 .0351-1.3008 0-.2969-.0234-.8672-.0703-1.7109l.0234-1.1719-.0234-1.1016 .0469-3.8203c0-.4844-.0469-.9844-.1406-1.5-.1719-.2344-.4844-.4375-.9375-.6094-.4531-.1719-1.2422-.2969-2.3672-.375v-1.3125c1.6094-.0937 3.0234-.4297 4.2422-1.0078 .8281-.375 1.7266-1.039 2.6953-1.9922h1.5703c.0625,1.9375 .0937,4.4531 .0938,7.5469l-.1641,9.5625c0,.6562 .0312,1.25 .0937,1.7812 .4844,.1719 1.2734,.3438 2.3672,.5156 .4219,.0625 .7578,.1406 1.0078,.2344l-.0234,1.2891c-.4219,.0156-.7344,.0234-.9375,.0234-.2344,0-.5938-.0156-1.0781-.0469-1.5938-.0781-3.7266-.1172-6.3984-.1172-.7656,0-1.5078,.0273-2.2266,.082-.7188,.0547-1.2109,.082-1.4766,.082z" transform="matrix(12.87265 0 0 12.87265 4041.8845 -4307.9258)"/>
</svg>
