<svg xmlns="http://www.w3.org/2000/svg" viewBox="0 0 580 580">
<path fill="#111" stroke="#eee" stroke-width="3.408" d="m66.275,1.768c-41.335,0-64.571,21.371-64.571,65.036v450.123c0,40.844 20.895,62.229 62.192,62.229h452.024c41.307,0 62.229-20.315 62.229-62.229v-450.123c0-42.601-20.922-65.036-63.521-65.036-.004,0-448.495-.143-448.353,0z"/>
<g stroke="#fff" stroke-linejoin="round" stroke-linecap="round" stroke-width="20.136">
<path opacity=".25" fill="#fff" d="m207.059,373.001h168.921v168.92h-168.921z"/>
<path fill="none" d="m207.059,373.001h168.921v168.92h-168.921z"/>
</g>
<g fill="#fff">
<path d="m266.2719,338.4675c-5.6741-1.1282-16.7003-4.295-24.5027-7.0373-39.9877-14.0545-78.6021-53.6342-93.0111-95.3363-5.0269-14.5485-8.2696-30.3903-8.0788-51.7223 .1863-21.3471 3.0519-35.0423 8.0788-49.5908 13.7372-39.7575 48.4841-77.1303 86.7993-93.3589 13.9195-5.8957 44.8403-11.6297 62.7134-11.6297 26.6392,0 77.079,16.8419 87.2909,29.1465 5.2207,6.2906 .3644,6.5038-25.3622,1.1135-20.5885-4.3137-27.4183-4.7115-43.3374-2.5244-45.8366,6.2976-87.0718,40.8412-103.5515,86.7471-7.7741,21.6556-7.8039,60.5998-.0627,82.117 16.0266,44.5474 56.6233,79.3839 101.4602,87.0642 13.9149,2.3835 20.296,2.0005 43.1312-2.5886 14.7402-2.9623 27.7578-4.4643 28.928-3.3377 2.7249,2.6232-9.5327,11.3461-27.5068,19.575-26.5398,12.1503-65.2422,16.8795-92.9886,11.3627zm85.1461-102.5032c-.7805-1.2629 1.4549-10.7461 4.9675-21.0737 3.5127-10.3277 6.3867-19.0951 6.3867-19.4833 0-.3881-7.525-6.0754-16.7222-12.6384-9.1972-6.563-16.7222-12.942-16.7222-14.1755 0-1.2335 9.551-2.579 21.2243-2.99l21.2244-.7472 6.6877-19.1658c3.6783-10.5412 7.9051-19.5717 9.393-20.0676 1.4879-.496 5.809,8.4181 9.6026,19.809l6.8973,20.7108h21.8706c12.0636,0 21.4861,1.0506 21.0131,2.3429-.4717,1.2886-8.0931,7.6535-16.9366,14.1442-8.8435,6.4907-16.079,12.7802-16.079,13.9765 0,1.1964 2.3154,8.905 5.1453,17.1303 4.9552,14.4024 6.543,24.4401 3.8662,24.4401-.7035,0-8.3559-5.2096-17.0052-11.5769-8.6494-6.3673-16.8059-11.5769-18.1256-11.5769-1.3197,0-8.4279,4.4166-15.796,9.8146-17.8135,13.0505-19.235,13.8076-20.8918,11.1269z"/>
<path d="m387.4375,123.6562c-5.4844,3.9489-6.5402,11.6879-9.4375,17.4688-2.6362,7.2226-5.0821,14.5294-7.6562,21.7812-13.8735,1.1821-28.5729-.6401-41.9062,3.6875-3.3664,3.9729 3.4942,7.0799 5.75,9.6562 8.4976,6.9702 17.7534,12.8969 26.3438,19.7812-3.6542,13.328-10.3935,26.2298-11.1562,40.125 2.293,6.1662 9.3004,1.1139 12.5087-1.3207 8.7638-5.7857 16.9589-13.3701 26.3976-17.6793 12.0684,6.4529 22.3242,16.2866 34.375,22.9375 5.3842,.1545 3.8246-7.4391 3.1875-10.875-1.9884-11.0572-7.516-21.8239-9.3125-32.5938 9.9022-10.1889 23.0546-16.5843 32.5-27.2188 .606-5.3371-7.2311-4.0475-10.625-4.875-10.8599-.6967-21.7511-.2467-32.625-.375-5.151-13.2822-7.5025-28.2007-15.9375-39.8125-.6591-.5293-1.5261-.938-2.4062-.6875z"/>
</g>
</svg>
