<svg xmlns="http://www.w3.org/2000/svg" viewBox="0 0 580 580">
<path fill="#111" stroke="#eee" stroke-width="3.408" d="m66.275,1.768c-41.335,0-64.571,21.371-64.571,65.036v450.123c0,40.844 20.895,62.229 62.192,62.229h452.024c41.307,0 62.229-20.315 62.229-62.229v-450.123c0-42.601-20.922-65.036-63.521-65.036-.004,0-448.495-.143-448.353,0z"/>
<g stroke="#fff">
<g>
<path fill="none" stroke-linejoin="round" stroke-linecap="round" stroke-width="60.387" d="m457.861,326.115a180.1065,180.1065 0 1,1 -360.2129,0 180.1065,180.1065 0 1,1 360.2129,0z" transform="matrix(.74599 0 0 .74599 87.91225 101.97486)"/>
</g>
<g fill-rule="evenodd">
<g>
<g opacity=".4" fill="#fff" stroke-width="11.604" transform="matrix(1.3954 0 0 1.3954 -121.6059 -34.81592)">
<path d="m256.9241,180.0418l-40.486-75.147 50.5581-33.129h48.5053l4.3737,100.7219-62.9512,7.5541z"/>
<path d="m340.7154,180.0418l40.486-75.147-50.5581-33.129h-56.5053l3.6263,100.7219 62.9511,7.5541z"/>
</g>
</g>
<g fill="none" stroke-width="16.192">
<path opacity=".6" d="m250.9534,65.3435l-70.5308,46.2223 56.4788,104.8699 58.4669-7.0486 58.4669,7.0486 56.4788-104.8699-70.5308-46.2223h-21.1457-57.6988-9.9854z"/>
<path opacity=".6" stroke-linejoin="bevel" d="m250.9534,123.1778l-70.5308-11.6121 56.4788,104.8699 58.4669-7.0486 58.4669,7.0486 56.4788-104.8699-70.5308,11.6121h-88.8299z"/>
<path opacity=".6" d="m249.8239,123.1326l-12.9224,93.303 58.4669-7.0486 58.4669,7.0486-9.9835-92.8116-6.9602-58.2806h-81.7362l-5.3316,57.7892z"/>
</g>
</g>
</g>
</svg>
