<svg xmlns="http://www.w3.org/2000/svg" viewBox="0 0 580 580">
<path fill="#111" stroke="#eee" stroke-width="3.408" d="m66.275,1.768c-41.335,0-64.571,21.371-64.571,65.036v450.123c0,40.844 20.895,62.229 62.192,62.229h452.024c41.307,0 62.229-20.315 62.229-62.229v-450.123c0-42.601-20.922-65.036-63.521-65.036-.004,0-448.495-.143-448.353,0z"/>
<g stroke="#fff" stroke-linejoin="round">
<g fill="none" transform="matrix(31.92189 0 0 31.92189 35.39915 14.94844)">
<path d="m8,15-7.5-9 15,0z"/>
<path d="m.5,6 2.5-3 10,0 2.5,3z"/>
<path d="M 4.5,3 8,15 11.5,3"/>
</g>
<g fill="#fff" stroke-width="31.922">
<path opacity=".1" d="m290.7743,493.7768-239.4142-287.297h478.8284z"/>
<path opacity=".1" d="m51.3601,206.4798 79.8047-95.7657 319.2189,0 79.8047,95.7657z"/>
</g>
</g>
</svg>
