<svg xmlns="http://www.w3.org/2000/svg" viewBox="0 0 580 580">
<path fill="#111" stroke="#eee" stroke-width="3.408" d="m66.275,1.768c-41.335,0-64.571,21.371-64.571,65.036v450.123c0,40.844 20.895,62.229 62.192,62.229h452.024c41.307,0 62.229-20.315 62.229-62.229v-450.123c0-42.601-20.922-65.036-63.521-65.036-.004,0-448.495-.143-448.353,0z"/>
<g stroke="#fff" stroke-linecap="round">
<g fill="none">
<g>
<path stroke-linejoin="round" stroke-width="20.955" d="m82.4375,65.4062v454.9688h411.7812v-454.9688h-411.7812zm203.5625,132.6875c55.2217,0 100.0312,44.8408 100.0312,100.0625 0,55.2217-44.8095,100.0312-100.0312,100.0312-55.2217,0-100.0625-44.8095-100.0625-100.0312 0-55.2217 44.8408-100.0625 100.0625-100.0625z"/>
</g>
<g transform="matrix(1.04777 0 0 1.04777 -9.58317 -13.99193)">
<path stroke-linejoin="round" stroke-width="20" d="m373.2327,276.206c0,52.7311-42.747,95.4781-95.4781,95.4781-52.7311,0-95.4781-42.747-95.4781-95.4781 0-52.7311 42.747-95.4781 95.4781-95.4781 52.7311,0 95.4781,42.747 95.4781,95.4781z" transform="translate(4.33991 21.69957)"/>
</g>
<g fill-rule="evenodd" transform="matrix(1.04777 0 0 1.04777 -9.58317 -13.99193)">
<path stroke-width="18.665" d="m190.7863,250.1963v99.7583"/>
<path stroke-linejoin="round" stroke-width="39.801" d="m370.0948,300.0755h-19.8942"/>
</g>
<g stroke-linejoin="round" stroke-width="25">
<path d="m351.5331,124.309a10.8498,10.8498 0 1,1 -21.6996,0 10.8498,10.8498 0 1,1 21.6996,0z" transform="matrix(.85303 0 0 .85303 92.86503 12.02548)"/>
<path d="m351.5331,124.309a10.8498,10.8498 0 1,1 -21.6996,0 10.8498,10.8498 0 1,1 21.6996,0z" transform="matrix(.85303 0 0 .85303 150.14226 12.02548)"/>
<path d="m351.5331,124.309a10.8498,10.8498 0 1,1 -21.6996,0 10.8498,10.8498 0 1,1 21.6996,0z" transform="matrix(.85303 0 0 .85303 35.5878 12.02548)"/>
</g>
</g>
<g fill="#fff" stroke-linejoin="round">
<path opacity=".1" stroke-width="20.955" d="m82.4375,65.4062v454.9688h411.7812v-454.9688h-411.7812zm203.5625,132.6875c55.2217,0 100.0312,44.8408 100.0312,100.0625 0,55.2217-44.8095,100.0312-100.0312,100.0312-55.2217,0-100.0625-44.8095-100.0625-100.0312 0-55.2217 44.8408-100.0625 100.0625-100.0625z"/>
<path opacity=".2" stroke-width="20" d="m373.2327,276.206a95.4781,95.4781 0 1,1 -190.9562,0 95.4781,95.4781 0 1,1 190.9562,0z" transform="matrix(1.04777 0 0 1.04777 -5.03593 8.74429)"/>
</g>
</g>
</svg>
