<svg xmlns="http://www.w3.org/2000/svg" viewBox="0 0 580 580">
<path fill="#111" stroke="#eee" stroke-width="3.408" d="m66.275,1.768c-41.335,0-64.571,21.371-64.571,65.036v450.123c0,40.844 20.894,62.229 62.192,62.229h452.024c41.307,0 62.229-20.316 62.229-62.229v-450.123c0-42.601-20.922-65.036-63.522-65.036-.003,0-448.494-.143-448.352,0z"/>
<path fill="none" stroke="#fff" stroke-linecap="round" stroke-width="54.685" d="m124.7263,239.0716 369.5279-82.3799"/>
<g fill="#fff" color="#000">
<path opacity=".75" d="m458.25,264.9062c-3.7229-.002-7.4235,1.5302-10.056,4.1627-2.6325,2.6325-4.1644,6.3331-4.1627,10.056v170.5312c-.002,3.7229 1.5302,7.4235 4.1627,10.056 2.6325,2.6325 6.3331,4.1644 10.056,4.1627h51.8438c3.7229,.002 7.4235-1.5302 10.056-4.1627 2.6325-2.6325 4.1644-6.3331 4.1627-10.056v-170.5312c.002-3.7229-1.5302-7.4235-4.1627-10.056-2.6325-2.6325-6.3331-4.1644-10.056-4.1627h-51.8438z"/>
<path opacity=".75" d="m81.75,121.9062c-4.6387,.0002-9.2512,1.9074-12.5312,5.1875-3.2801,3.2801-5.1873,7.8925-5.1875,12.5312v306.5312c.0002,4.6387 1.9074,9.2512 5.1875,12.5312 3.2801,3.2801 7.8925,5.1873 12.5312,5.1875h44.8438c4.6387-.0002 9.2512-1.9074 12.5312-5.1875 3.2801-3.2801 5.1873-7.8925 5.1875-12.5312v-154.4688c-22.4154,6.8824-49.3011,.7861-63.7812-18.25-21.9607-26.2689-10.7553-72.6893 21.625-84.9375 14.0496-3.2538 28.1041-6.4779 42.1562-9.7188v-39.1562c-.0002-4.6387-1.9074-9.2512-5.1875-12.5312-3.2801-3.2801-7.8925-5.1873-12.5312-5.1875h-44.8438z"/>
</g>
</svg>
