<svg xmlns="http://www.w3.org/2000/svg" viewBox="0 0 580 580">
<path fill="#111" stroke="#eee" stroke-width="3.408" d="m66.275,1.768c-41.335,0-64.571,21.371-64.571,65.036v450.123c0,40.844 20.895,62.229 62.192,62.229h452.024c41.307,0 62.229-20.315 62.229-62.229v-450.123c0-42.601-20.922-65.036-63.521-65.036-.004,0-448.495-.143-448.353,0z"/>
<g fill="#fff" stroke="#fff" stroke-linejoin="round" stroke-width="10">
<path d="m361.7146,80.721c2.3541,.0004 3.5313-.9796 3.5316-2.94-.0004-1.1828-.586-2.1628-1.7569-2.94l-72.2639-39.9415-71.6544,39.9415c-1.1834,.7772-1.775,1.7572-1.7748,2.94-.0002,1.9604 .9798,2.9404 2.94,2.94h140.9783zm3.5316,99.8829c4.3021,.0003 6.4534-2.151 6.4537-6.4537-.0004-4.3141-2.1516-6.4714-6.4537-6.4717h-147.45c-4.3027,.0003-6.454,2.1575-6.4537,6.4717-.0002,4.3028 2.151,6.454 6.4537,6.4537h12.3338l-48.17,363.0699h218.5307l-47.5784-363.0699h12.3338z"/>
<path opacity=".5" d="m239.1787,105.7517l-203.2569-25.8508 .5916,85.763 202.6653-25.2592v-34.653zm106.703,34.0614l202.6653,25.8508v-85.763l-202.6653,25.8508v34.0614z"/>
<path stroke-linecap="round" d="m323.3236,125.3939a36.8893,36.8893 0 1,1 -73.7785,0 36.8893,36.8893 0 1,1 73.7785,0z" transform="matrix(.87049 0 0 .87049 43.09484 14.23921)"/>
</g>
</svg>
