<svg xmlns="http://www.w3.org/2000/svg" viewBox="0 0 580 580">
<path fill="#111" stroke="#eee" stroke-width="3.408" d="m66.275,1.768c-41.335,0-64.571,21.371-64.571,65.036v450.123c0,40.844 20.895,62.229 62.192,62.229h452.024c41.307,0 62.229-20.315 62.229-62.229v-450.123c0-42.601-20.922-65.036-63.521-65.036-.004,0-448.495-.143-448.353,0z"/>
<g fill="#fff">
<g stroke="#fff" fill-rule="evenodd" stroke-linejoin="round" stroke-linecap="round">
<path stroke-width="20.078" d="m484.3449,60.5942 20.3859,0 0,474.4818-20.173,0-.2129-474.4818z"/>
<path stroke-width="20" d="m77.2691,62.5942 20.3859,0 0,470.8115-20.173,0-.2129-470.8115z"/>
</g>
<g>
<path opacity=".01" d="m500.375,37.0625c-143.1513,1.2868-286.3358-1.1439-429.4688,1.3125-14.9616,3.9094-21.4615,21.4843-19.0312,35.625 1.5573,102.8125-1.4208,205.6955 1.5938,308.4688 4.7476,14.6418 22.4594,20.4159 36.5312,17.5312 140.0388-.4796 280.1025,.9688 420.125-.8125 15.2799-3.9742 22.1-22.0439 18.9375-36.4688-.546-102.2416 1.1402-204.5539-.9688-306.75-2.8919-12.0888-15.8012-19.4763-27.7188-18.9062z"/>
<path opacity=".75" color="#000" d="m500.375,37.0625c-143.1513,1.2868-286.3358-1.1439-429.4688,1.3125-14.9616,3.9094-21.4615,21.4843-19.0312,35.625 1.5573,102.8125-1.4208,205.6955 1.5938,308.4688 4.7476,14.6418 22.4594,20.4159 36.5312,17.5312 140.0388-.4796 280.1025,.9688 420.125-.8125 15.2799-3.9742 22.1-22.0439 18.9375-36.4688-.546-102.2416 1.1402-204.5539-.9688-306.75-2.8919-12.0888-15.8012-19.4763-27.7188-18.9062zm-212.7812,15.2812c1.4281-.0164 2.8397,.37 4,1.2188 24.2762,32.7219 46.2709,67.1685 69.9375,100.375 5.1001,3.8451 5.7738,14.4364-1.75,15.8125-16.8879-4.3867-32.6721-12.4457-48.8438-19-.0291,21.3811 .4993,43.0402-1.9375,64.2188-6.5266,6.3879-16.7158,3.099-24.9062,3.5312-7.8072-.8059-18.2179,3.2505-23.875-4.2188-1.9856-20.9123 .1717-42.1129 .2188-63.125-13.5405,5.5594-27.4587,10.3919-40.9062,16.25-5.1634,4.792-15.814,.6329-14.0312-6.9375 20.0446-29.5615 42.1069-57.938 63-87 6.5268-6.6356 9.3789-17.2289 18.4688-21.0938 .2031-.0189 .421-.0289 .625-.0312zm54.5,182.875c5.1513-.2199 10.6512,2.7379 10.625,8.4688 .0256,44.8536 .8412,89.7897-.3438,134.6562-3.8003,8.2464-14.8006,6.4614-21.9375,4.4688-23.9236-23.228-46.3585-48.1886-69.625-72.1562-.1005,21.2334 .6894,42.498-.375,63.7188 .9313,7.0592-7.5502,8.8117-12.9062,8.125-7.907-1.5317-16.1573,1.7543-23.7812-1.0312-6.8753-2.4203-4.477-10.9857-5.2812-16.5938 .6739-40.228-.82-80.4712 .5625-120.6875-1.521-6.7037 6.0921-8.865 11.25-8.875 4.0704-.1201 8.0697,.5191 12.0312,1.1562 23.9138,21.5481 45.4095,45.9757 68.2812,68.75 .0141-13.8478-.1096-27.7147-.0625-41.5625 1.2141-8.5255-2.1078-18.0203 2.4688-25.875 8.1628-4.626 18.0134-.9829 26.9062-2.2812 .7036-.1624 1.4516-.2498 2.1875-.2812z"/>
</g>
</g>
</svg>
