<svg xmlns="http://www.w3.org/2000/svg" viewBox="0 0 580 580">
<path fill="#111" stroke="#eee" stroke-width="3.408" d="m66.275,1.768c-41.335,0-64.571,21.371-64.571,65.036v450.123c0,40.844 20.895,62.229 62.192,62.229h452.024c41.307,0 62.229-20.315 62.229-62.229v-450.123c0-42.601-20.922-65.036-63.521-65.036-.004,0-448.495-.143-448.353,0z"/>
<path fill="#fff" line-height="125%" d="m-19.0625-67.7878c-.4802,0-.9003-.18-1.2604-.5402-.3601-.3601-.5402-.7936-.5402-1.3007 0-.4801 .18-.9 .5402-1.2598 .3601-.3597 .7802-.5395 1.2604-.5396 .507,0 .9403,.1799 1.3,.5396 .3597,.3597 .5395,.7796 .5396,1.2598 0,.507-.1799,.9406-.5396,1.3007-.3597,.3601-.7931,.5402-1.3,.5402zm13.6804,9.7998c-.1066-.6405-.5066-.9607-1.2-.9607-.3207,0-.614,.1335-.8801,.4004l-4.4409,4.1602c-.3199,.2661-.4798,.5859-.4797,.9595 0,.6405 .2933,1.0539 .8801,1.2402l1.1206,.3601c-.5599,1.5202-1.4533,2.8202-2.6801,3.9001-1.2268,1.0799-2.6402,1.7798-4.2401,2.0996v-19.7192c1.7863-.7739 2.6794-2.1342 2.6794-4.0808 0-1.1995-.4334-2.2326-1.3-3.0994-.8667-.8667-1.9133-1.3-3.1396-1.3-1.2004,0-2.2337,.4334-3.1,1.3-.8663,.8667-1.2995,1.8998-1.2994,3.0994 0,1.9466 .9066,3.3069 2.7197,4.0808v19.7595c-1.6268-.3198-3.0803-1.0199-4.3604-2.1002-1.2801-1.0803-2.2001-2.3936-2.76-3.9398l1.1206-.3601c.5859-.1864 .8789-.5998 .8789-1.2402 0-.3467-.1465-.6665-.4395-.9595l-4.48-4.1602c-.2669-.2669-.5603-.4004-.8801-.4004-.6934,0-1.0933,.3202-1.2,.9607l-.9595,6.04c-.0269,.1327-.0403,.2258-.0403,.2795 0,.8537 .4399,1.2805 1.3196,1.2805 .1335,0 .2535-.0134 .3601-.0403l1.04-.3601c.8537,2.5602 2.3804,4.6535 4.5801,6.2799 2.1997,1.6264 4.6863,2.4396 7.4597,2.4396 2.7466,0 5.24-.8264 7.4805-2.4792 2.1598-1.5999 3.6666-3.68 4.5203-6.2402l1.04,.3601c.1066,.0269 .2266,.0403 .3601,.0403 .8797,0 1.3195-.4268 1.3196-1.2805 0-.0537-.0135-.1469-.0403-.2795l-.9595-6.04z" transform="matrix(14.68584 0 0 14.68584 565.76584 1146.0639)"/>
</svg>
