<svg xmlns="http://www.w3.org/2000/svg" viewBox="0 0 580 580" xmlns:xlink="http://www.w3.org/1999/xlink">
<path fill="#111" stroke="#eee" stroke-width="3.408" d="m66.275,1.768c-41.335,0-64.571,21.371-64.571,65.036v450.123c0,40.844 20.895,62.229 62.192,62.229h452.024c41.307,0 62.229-20.315 62.229-62.229v-450.123c0-42.601-20.922-65.036-63.521-65.036-.004,0-448.495-.143-448.353,0z"/>
<g stroke="#fff" stroke-linejoin="round" stroke-linecap="round">
<g stroke-width="10.99">
<path fill="#fff" d="m52.5634,155.992c29.5466,13.994 60.765,15.5894 94.3008,0l29.7045-102.365h-74.1709z"/>
<path fill="none" d="m147.1893,155.992c29.5466,13.994 60.765,15.5894 94.3008,0l10.194-102.365h-74.1709z"/>
<path fill="#fff" d="m240.8398,155.992c29.5466,13.994 60.765,15.5894 94.3008,0l-9.3165-102.365h-74.1709z"/>
<path fill="none" d="m335.4657,155.992c29.5466,13.994 60.765,15.5894 94.3008,0l-28.827-102.365h-74.1709z"/>
<path fill="#fff" d="m429.1161,155.992c29.5466,13.994 60.765,15.5894 94.3008,0l-48.3376-102.365h-74.1709z"/>
</g>
<g fill="none">
<g transform="translate(0 14)">
<path stroke-width="28.988" d="m88.6746,376.219 399.6555,0"/>
</g>
<g stroke-width="25" transform="translate(0 14)">
<path d="m126.7028,514.917 0-130.4978"/>
<path d="m446.2606,514.917 0-130.4978"/>
</g>
</g>
</g>
<g fill="#fff">
<g transform="matrix(1.09629 0 0 1.09629 3.5933 -35.16922)">
<path d="m209.745,225.7977c0,0-10.5617,35.7954-41.595,25.1254-.005,.0224 3.7446-31.1854 41.595-25.1254z"/>
<path d="m157.7265,270.0771c5.3627-5.3051 12.6861-8.5054 20.8167-8.5054 16.4054,0 29.7546,13.2915 29.7546,29.7258 0,.6055 0,1.1244-.0288,1.7588h-.0576c-.519,6.4295-2.5661,14.416-7.4099,24.3342 0,0-8.3324,15.9441-15.0215,23.2674l-.6055,.5766c-3.2292,3.258-7.7846,5.3051-12.7149,5.3051-6.0547,0-11.4175-2.9409-14.6755-7.4963h-.0865c-3.258,4.5555-8.6208,7.4963-14.6755,7.4963-4.9879,0-9.4857-2.0182-12.7437-5.3051l-.6055-.5766c-6.6314-7.3233-15.0215-23.2674-15.0215-23.2674-4.8438-9.9182-6.8908-17.9623-7.3522-24.3342h-.1441c-.0865-.6055-.0865-1.1245-.0865-1.7588 0-16.4342 13.3492-29.7258 29.8123-29.7258 8.1018,0 15.4251,3.2004 20.8455,8.5054"/>
<path d="m113.6829,214.6905c0,0 6.2753,31.2733 33.5029,24.5444 .003,.0195-.8218-26.8316-33.5028-24.5444z"/>
<path stroke="#fff" stroke-width="1.351" d="m156.8595,263.7817c0,0-.3024-32.1106-3.6289-40.4873-3.3265-8.3767 11.1891,0 11.1891,0l-7.5602,40.4873z"/>
</g>
<g transform="matrix(.61265 0 0 .61265 223.35252 104.87275)">
<path stroke="#fff" d="m366.8048,182.5927c-2.24,.006-4.103,.6128-5.625,1.3438-2.662,1.319-4.565,3.015-6.375,4.75-2.664,2.603-5.0133,5.4475-7.0312,7.6875-.998,1.113-1.8945,2.0795-2.5625,2.6875-.33,.305-.603,.521-.75,.625-.025,.019-.0465,.0203-.0625,.0312l-12.2812,5.2812c-.434-.007-.8403,0-1.2812,0-16.779,.023-31.7917,4.8918-45.9688,9.3438-15.629,4.95-30.556,10.832-45.625,13.75-6.92,1.36-14.723,1.734-22.875,2.375-8.147,.66-16.6815,1.56-25.0625,4.5-7.453,2.614-13.7643,5.5795-20.5312,9.8125-2.964,1.872-5.5705,4.1258-8.0625,5.9688-2.423,1.855-4.753,3.1558-5.625,3.3438l-3.8438,2.5625c0,0-3.4624,2.6459-5.2587,4.186l-7.2323,6.201c-7.2683,6.2319-9.638,21.9965-9.6341,30.8005 0,.001 0,.007 0,.0312 0,.024 0,.081 0,.125 .063,13.491 4.4395,26.2498 11.4375,37.5938 7.03,11.392 16.6912,21.4595 27.6562,29.9375 22.031,16.899 49.6945,27.896 75.8125,28 5.102-.002 10.1658-.43 15.0938-1.375 4.608-.846 8.6123-3.0417 11.6562-5.8438 1.914-1.758 5.485-3.7375 6.75-5.8125 2.215-1.003 2.3272-2.3965 4.0312-4.1875 2.515-2.608 4.1615-5.4862 6.0625-9.0312 3.137-5.928 6.959-12.2515 10-19.0625 3.468-7.858 4.7153-16.1472 5.9062-23.9062 1.152-7.758 2.2342-15.018 4.4062-20.625 2.213-5.803 6.0577-10.686 10.8438-15.875 4.748-5.184 10.3927-10.5457 15.2188-17.4688 3.757-5.454 8.1915-10.2788 12.0625-16.3438 3.406-5.295 6.172-11.8053 6.75-19.6562l9.6875-5.0938 .8125-.8438c1.048-1.036 1.8927-1.4812 3.2188-1.9062 1.96-.639 5.054-.7618 9-1.0938 3.852-.361 9.0152-1.1592 13.6562-4.9062 1.914-1.557 3.5333-3.2148 4.7812-5.2188 1.242-1.979 2.0725-4.4195 2.0625-6.9375 .007-2.053-.555-4.039-1.375-5.625-1.465-2.799-3.4615-4.5517-5.4375-5.9688-2.996-2.094-6.2038-3.4493-9.2188-4.5312-1.313-.463-2.5942-.8767-3.7812-1.2188-.661-1.467-1.442-2.8088-2.5-4.0938-1.009-1.204-2.303-2.334-3.875-3.125-1.563-.8-3.3863-1.1985-5.0312-1.1875zm-.2812,7.5c2.3661-.161 4.4787,1.7389 6,7.1875 7.16,1.61 26.3135,7.357 13.9375,17.375-7.616,6.166-18.628,.509-26.5,8.5l-12.5625,6.5938c-.007-.239-.0193-.4757-.0312-.7188-3.176,1.153-6.4367,2.5482-9.7188,3.1562-.472-3.34-1.2128-6.5903-2.0938-9.7812-2.442,.967-5.4157,1.815-7.8438,2.25 .928-4.522 1.9622-7.9845 4.2812-11.4375l15.5312-6.6562c5.0866-2.2109 12.9534-16.0574 19-16.4688zm-197.7188,71.3438c.5712-.0176 1.1456,.0002 1.7188,0 13.664,.027 27.9265,4.6985 38.8125,8.8125 8.845,3.362 16.1535,6.4775 22.8125,10.8125 6.661,4.327 12.5577,9.87 18.5938,17.75 9.455,12.354 19.2912,27.7883 23.2812,43.9062 .959,3.915 1.5917,8.8705 1.5938,14.0625-.013,5.728-.7502,11.7337-3.0312,16.9688-2.208,5.186-6.487,9.8433-12.875,11.0312-4.415,.847-8.9942,1.248-13.6562,1.25-23.967-.04-50.4592-10.4115-71.2812-26.4375-20.744-16.031-36.0872-37.9108-36.1562-61.7188-.002-7.727 1.6672-15.6065 5.2812-23.3125l6.2812-7 6.9375-4.25c3.7678-1.1812 7.689-1.752 11.6875-1.875zm16.75,35.375c4.645,.033 9.5377,1.0813 13.2188,4.1562 1.41,1.215 3.1103,3.0922 4.6562,5.4062 1.503,2.324 2.9168,5.007 2.9688,8.25 .004,1.325-.2773,2.7808-1.0312,4.0938-1.016,1.787-2.6775,2.996-4.3125,3.625-1.647,.646-3.3022,.8397-4.9062,.8438-4.36-.022-8.605-1.428-10.75-2.125l-.2812-.0937-9.4062-5.125-.375-.2188-.3438-.2812c-2.834-2.661-4.586-5.4563-4.625-8.6562-.013-1.848 .703-3.6162 1.75-4.9062 1.049-1.305 2.3593-2.2255 3.7812-2.9375 2.851-1.406 6.2022-2.0192 9.6562-2.0312zm0,7c-1.914-.005-3.7637,.2992-5.2188,.7812-1.466,.469-2.452,1.1515-2.75,1.5625-.208,.285-.2057,.3503-.2188,.5312-.037,.247 .2397,1.4067 2.0938,3.2188l8.4688,4.625c1.974,.656 5.5557,1.6793 8.2188,1.6562 1.014,.006 1.8547-.1438 2.3438-.3438 .503-.217 .6233-.373 .7812-.625 .068-.126 .121-.2568 .125-.5938 .052-.812-.6252-2.69-1.7812-4.375-1.113-1.693-2.6173-3.2775-3.4062-3.9375-1.664-1.491-5.1902-2.535-8.6562-2.5z"/>
</g>
<g fill-rule="evenodd" transform="matrix(.61265 0 0 .61265 223.35252 104.87275)">
<path opacity=".1" d="m144.946,333.4253 23.6578,26.6567 30.322,17.9933 32.6545,9.6631 27.9896,1.666 10.9959-6.6642 7.3306-12.3287 5.3313-39.9851-28.3228-52.9802-46.3161-19.3261-38.6523-3.9985-17.9933,6.6642-12.6619,11.9955-4.6649,19.3261 2.6657,23.6578 7.6638,17.6601z"/>
<path opacity=".1" d="m323.2128,212.1372 22.325-9.6631 18.9929-16.3272 10.3295,4.9981 15.994,10.6627 2.6657,9.6631-8.9966,7.997-17.9933,2.9989-24.9907,16.6604-27.9896-3.6653 9.6631-23.3246z"/>
</g>
<g stroke="#fff" stroke-linejoin="round" stroke-linecap="round" stroke-width="10.99">
<path opacity=".1" d="m147.1893,155.992c29.5466,13.994 60.765,15.5894 94.3008,0l10.194-102.365h-74.1709z"/>
<path opacity=".1" d="m335.4657,155.992c29.5466,13.994 60.765,15.5894 94.3008,0l-28.827-102.365h-74.1709z"/>
</g>
</g>
</svg>
