<svg xmlns="http://www.w3.org/2000/svg" viewBox="0 0 580 580">
<path fill="#111" stroke="#eee" stroke-width="3.408" d="m66.275,1.768c-41.335,0-64.571,21.371-64.571,65.036v450.123c0,40.844 20.895,62.229 62.192,62.229h452.024c41.307,0 62.229-20.315 62.229-62.229v-450.123c0-42.601-20.922-65.036-63.521-65.036-.004,0-448.495-.143-448.353,0z"/>
<g fill="#fff">
<g>
<path opacity=".75" line-height="normal" color="#000" d="m159.4375,30.6875c-15.3279,0-28.3438,13.047-28.3438,28.375v372c.0584,1.4445 327.6484,.7855 327.5938,0v-372c0-15.328-13.0471-28.375-28.375-28.375h-270.875zm55.875,26.625c1.1495,0 2.1381,.4259 2.9375,1.2812 .7994,.8555 1.1875,1.9958 1.1875,3.4375 0,1.4418-.3881,2.5682-1.1875,3.4062-.7994,.838-1.788,1.2813-2.9375,1.2812-1.1503,0-2.1073-.4432-2.9062-1.2812-.799-.838-1.2188-1.9645-1.2188-3.4062 0-1.4417 .4198-2.582 1.2188-3.4375 .799-.8554 1.7559-1.2812 2.9062-1.2812zm65.5,.0625c1.1495,0 2.1068,.4259 2.9062,1.2812 .7994,.8555 1.2187,1.9958 1.2188,3.4375 0,1.4418-.4194,2.5995-1.2188,3.4375-.7994,.838-1.7568,1.25-2.9062,1.25-1.1503,0-2.1385-.412-2.9375-1.25-.5573-.5845-.8939-1.3405-1.0625-2.2188-.0802,.2945-.1756,.59-.3125,.9375-.3368,.8549-.7801,1.7195-1.3125,2.625-.4485-.3018-1.0174-.6192-1.7188-.9375-.7014-.3182-1.4712-.4687-2.3125-.4688-.7292,0-1.3392,.2353-1.8438,.6875-.5046,.4523-.7812,1.1519-.7812,2.125v1.2188h6.25v7.5h-6.25v16.7812h-8.3438v-24.0312c0-.4359-.0138-1.0415 0-1.8125 .0137-.771 .0684-1.4053 .125-1.875 .3646-2.7156 1.3186-4.7621 2.875-6.1875 1.5564-1.4253 3.7235-2.1562 6.5-2.1562 .5615,0 1.1504,.0411 1.7812,.125 .6308,.084 1.2549,.2072 1.8438,.375 1.0099,.3019 1.8645,.7713 2.5938,1.375 .4221,.3494 .6972,.7896 .875,1.3125 .1653-.8991 .5283-1.6446 1.0938-2.25 .799-.8554 1.7872-1.2812 2.9375-1.2812zm-4.0312,3.5312c-.0682,.3713-.0937,.7661-.0937,1.1875 0,.4361 .0519,.8379 .125,1.2188 .1171-.43 .1875-.8268 .1875-1.125 0-.4801-.0894-.9007-.2188-1.2812zm-43.875-3.3125c.5615,0 1.1817,.0411 1.8125,.125 .6308,.084 1.2236,.2072 1.8125,.375 1.0099,.3019 1.8957,.7401 2.625,1.3438 .7292,.6037 1.0937,1.4852 1.0938,2.625 0,.5024-.1632,1.1764-.5,2.0312-.3368,.8549-.7801,1.7507-1.3125,2.6562-.4485-.3018-1.0173-.6192-1.7188-.9375-.7014-.3182-1.4712-.4687-2.3125-.4688-.7292,0-1.3705,.204-1.875,.6562-.5046,.4523-.75,1.1832-.75,2.1562v1.1875h6.2188v7.5h-6.2188v16.8125h-8.375v-24.0625c0-.4359 .0174-1.0102 .0312-1.7812 .0137-.771 .0373-1.4053 .0937-1.875 .3646-2.7156 1.3185-4.7934 2.875-6.2188 1.5564-1.4253 3.7235-2.125 6.5-2.125zm10.6562,.3438c.6736,0 1.338,.0679 1.9688,.2188 .6308,.151 1.1795,.4268 1.6562,.8125 .4767,.3858 .8618,.9062 1.1562,1.5938 .2944,.6876 .4375,1.5839 .4375,2.6562v30.1562c-1.1495,.4359-2.1647,.6562-3.0625,.6562-1.2899,0-2.2849-.1936-3-.5625-.7151-.3688-1.2433-.8338-1.5938-1.4375-.3505-.6037-.5548-1.3059-.625-2.0938-.0702-.7879-.125-1.6282-.125-2.5v-29.1562c.3364-.0337 .6979-.0897 1.0625-.1562 .3081-.0675 .6525-.1225 1.0312-.1562 .3787-.0337 .7291-.0312 1.0938-.0312zm-54.875,.6562c.6736,0 1.3067,.0679 1.9375,.2188 .6308,.151 1.1795,.4268 1.6562,.8125 .4767,.3858 .8931,.9062 1.1875,1.5938 .2944,.6876 .4375,1.5839 .4375,2.6562v16.1875c.1404-.7367 .3477-1.4666 .6562-2.1875 .3085-.7209 .7107-1.42 1.1875-2.125l2.2812-3.4688c.5324-.8042 1.1046-1.5069 1.75-2.0938 .6453-.5868 1.535-.875 2.6562-.875 .6453,0 1.2891,.0946 1.9062,.3125 .6171,.218 1.1482,.4507 1.625,.7188 .5323,.3019 1.0232,.6619 1.5,1.0312l-5.75,9.6562 6.8125,12.4062c-1.8513,.9045-3.5514,1.375-5.0938,1.375-1.3181,0-2.3363-.3051-3.0938-.875-.7575-.5699-1.4394-1.283-2-2.1875l-2.6875-4.5c-.4768-.7705-.8443-1.4855-1.125-2.1562-.2807-.6707-.4846-1.412-.625-2.25v11.4062h-8.4375v-35.3125c.3364-.0337 .6979-.0897 1.0625-.1562 .3081-.0675 .6525-.0912 1.0312-.125 .3787-.0337 .7604-.0625 1.125-.0625zm-12.5312,.4375c.6736,0 1.3067,.0991 1.9375,.25 .6308,.151 1.2107,.3955 1.6875,.7812 .4767,.3858 .8618,.9374 1.1562,1.625 .2944,.6876 .4375,1.5527 .4375,2.625v30.1875c-1.1495,.4359-2.1959,.6562-3.0938,.6562-1.2899,0-2.2849-.1936-3-.5625-.7151-.3688-1.2433-.8338-1.5938-1.4375-.3505-.6037-.5548-1.3059-.625-2.0938-.0702-.7879-.0937-1.6282-.0937-2.5v-29.1562c.3364-.0337 .6666-.0897 1.0312-.1562 .3081-.0675 .6525-.1225 1.0312-.1562 .3787-.0337 .7604-.0625 1.125-.0625zm162.3438,.0625c.5615,0 1.1504,.0411 1.7812,.125 .6308,.084 1.2549,.2072 1.8438,.375 1.0099,.3019 1.8645,.7713 2.5938,1.375 .5469,.4528 .8945,1.0269 1.0312,1.7812v-2.8438c.3364-.0337 .6979-.0897 1.0625-.1562 .3081-.0675 .6525-.1225 1.0312-.1562 .3787-.0337 .7604-.0625 1.125-.0625 .6736,0 1.3067,.0679 1.9375,.2188 .6308,.151 1.1795,.4268 1.6562,.8125 .4767,.3858 .8618,.9374 1.1562,1.625 .2944,.6876 .4375,1.5527 .4375,2.625v30.1875c-1.1495,.4359-2.1647,.6562-3.0625,.6562-1.2899,0-2.2849-.1936-3-.5625-.7151-.3688-1.2433-.865-1.5938-1.4688-.3505-.6037-.5548-1.2746-.625-2.0625-.0702-.7879-.125-1.6282-.125-2.5v-24.9375c-.0743,.4152-.2113,.8945-.4375,1.4688-.3368,.8549-.7801,1.7507-1.3125,2.6562-.4485-.3018-1.0174-.6192-1.7188-.9375-.7014-.3182-1.4712-.4687-2.3125-.4688-.7292,0-1.3392,.2353-1.8438,.6875-.5046,.4523-.75,1.1519-.75,2.125v1.2188h6.2188v7.4688h-6.2188v16.8125h-8.375v-24.0312c0-.4359-.0138-1.0415 0-1.8125 .0137-.771 .0684-1.4053 .125-1.875 .3646-2.7156 1.3185-4.7933 2.875-6.2188 1.5564-1.4253 3.7235-2.125 6.5-2.125zm7.25,5.0312c.0363-.2029 .0625-.3976 .0625-.5625 0-.285-.0169-.561-.0625-.8125v1.375zm46.4062-5c.5614,0 1.1504,.0411 1.7812,.125 .6308,.084 1.2549,.2072 1.8438,.375 1.0099,.3019 1.8645,.7713 2.5938,1.375 .7292,.6037 1.0937,1.4852 1.0938,2.625 0,.5024-.1632,1.1764-.5,2.0312-.3368,.8549-.7801,1.7195-1.3125,2.625-.4485-.3018-1.0174-.588-1.7188-.9062-.7014-.3182-1.4712-.5-2.3125-.5-.7292,0-1.3392,.2353-1.8438,.6875-.5046,.4523-.75,1.1519-.75,2.125v1.2188h6.2188v7.5h-6.2188v16.7812h-8.375v-24.0312c0-.4359-.0138-1.0415 0-1.8125 .0137-.771 .0684-1.3741 .125-1.8438 .3646-2.7156 1.3186-4.7933 2.875-6.2188 1.5564-1.4253 3.7235-2.1562 6.5-2.1562zm-71.1875,.0625c.6727,0 1.3375,.0679 1.9688,.2188 .6312,.151 1.1795,.4268 1.6562,.8125 .4767,.3858 .8618,.9062 1.1562,1.5938 .2944,.6876 .4375,1.5839 .4375,2.6562v30.375h-6.3125c-.4211,0-.7887-.1402-1.125-.375-.3364-.2348-.5-.7295-.5-1.5-.3929,.6027-1.0195,1.1697-1.875,1.6562-.8555,.4865-1.9289,.7188-3.2188,.7188-.9535,0-1.8868-.1936-2.8125-.5625-.9257-.3689-1.7571-1.0156-2.5-1.9375-.7429-.9219-1.3495-2.1886-1.8125-3.7812-.463-1.5927-.6875-3.5852-.6875-6 0-2.4138 .1902-4.4484 .625-6.125 .4348-1.6765 1.0208-3.0546 1.75-4.0938 .7292-1.0391 1.5778-1.7803 2.5312-2.25 .9535-.4696 1.9618-.7187 3-.7188 .6727,0 1.2797,.1135 1.8125,.2812 .5328,.1678 .965,.3446 1.3438,.5625 .3787,.218 .6991,.4383 .9375,.6562 .2384,.218 .3849,.3685 .4688,.4688v-12.3125c.3372-.0337 .6987-.0897 1.0625-.1562 .309-.0675 .6354-.1225 1-.1562 .3646-.0337 .7291-.0312 1.0938-.0312zm39.7188,.3438c.6736,0 1.3379,.0679 1.9688,.2188 .6308,.151 1.1795,.4268 1.6562,.8125 .4767,.3858 .8618,.9374 1.1562,1.625 .2944,.6876 .4375,1.5527 .4375,2.625v16.1875c.1404-.7367 .3789-1.4666 .6875-2.1875 .3085-.7209 .7108-1.42 1.1875-2.125l2.25-3.4688c.5324-.8042 1.1359-1.5069 1.7812-2.0938 .6453-.5868 1.535-.875 2.6562-.875 .6453,0 1.2579,.1259 1.875,.3438 .6171,.218 1.1795,.4507 1.6562,.7188 .5324,.3019 1.0232,.6306 1.5,1l-5.75,9.6562 6.8125,12.4375c-1.8513,.9045-3.5514,1.3438-5.0938,1.3438-1.3181,0-2.3675-.2738-3.125-.8438-.7575-.5699-1.4081-1.3142-1.9688-2.2188l-2.6875-4.4688c-.4767-.7705-.8443-1.5168-1.125-2.1875-.2807-.6707-.5159-1.412-.6562-2.25v11.4062h-8.4062v-35.2812c.3364-.0337 .6979-.0897 1.0625-.1562 .3081-.0675 .6525-.1225 1.0312-.1562 .3787-.0337 .7291-.0625 1.0938-.0625zm53.8125,0c.6727,0 1.3375,.0679 1.9688,.2188 .6312,.151 1.1795,.4268 1.6562,.8125 .4767,.3858 .8618,.9374 1.1562,1.625 .2944,.6876 .4375,1.5527 .4375,2.625v30.375h-6.3125c-.4211,0-.7886-.1089-1.125-.3438-.3364-.2348-.5-.7295-.5-1.5-.3929,.6027-1.0195,1.1385-1.875,1.625-.8555,.4865-1.9289,.7188-3.2188,.7188-.9535,0-1.8868-.1624-2.8125-.5312-.9257-.3689-1.7571-1.0156-2.5-1.9375-.7429-.9219-1.3495-2.1886-1.8125-3.7812-.463-1.5927-.6875-3.5852-.6875-6 0-2.4138 .1902-4.4797 .625-6.1562 .4348-1.6765 1.0208-3.0234 1.75-4.0625 .7292-1.0391 1.5778-1.7803 2.5312-2.25 .9535-.4696 1.9618-.7187 3-.7188 .6727,0 1.2797,.0823 1.8125,.25 .5328,.1678 .965,.3758 1.3438,.5938 .3787,.218 .6991,.4383 .9375,.6562 .2384,.218 .3849,.3685 .4688,.4688v-12.3125c.3372-.0337 .6987-.0897 1.0625-.1562 .309-.0675 .6354-.1225 1-.1562 .3646-.0337 .7291-.0625 1.0938-.0625zm-118.8125,9.8125c2.2998,0 4.3203,.412 6.0312,1.25 .7566,.3694 1.3841,.824 1.875,1.3438 .4908,.5198 .7187,1.1398 .7188,1.8438 0,.6027-.1465,1.3177-.4688,2.1562-.3223,.8386-.742,1.6347-1.2188,2.4062-.8422-.7715-1.6998-1.3889-2.625-1.875-.9252-.486-1.8903-.7187-2.8438-.7188-1.206,0-1.8125,.412-1.8125,1.25 0,.5362 .239,.9338 .6875,1.2188 .4485,.285 1.0143,.5177 1.6875,.7188 .6732,.2011 1.4022,.4358 2.1875,.6875 .7853,.2517 1.5143,.6221 2.1875,1.125 .6732,.5029 1.2386,1.1907 1.6875,2.0625 .4489,.8718 .6562,2.0295 .6562,3.4375 0,2.6829-.7903,4.8136-2.375,6.4062-1.5847,1.5927-3.8772,2.4062-6.9062,2.4062-1.7392,0-3.0949-.1813-4.0625-.5-.9676-.3187-1.7519-.6331-2.3125-.9688-.7292-.4359-1.2197-.9177-1.5-1.4375-.2803-.5198-.4062-1.0551-.4062-1.625 0-.8718 .1495-1.7245 .5-2.5625 .3505-.838 .7703-1.6645 1.2188-2.4688 .3364,.3684 .7215,.7125 1.1562,1.0312 .4348,.3187 .9013,.6069 1.4062,.875 .505,.2681 1.0297,.4741 1.5625,.625 .5328,.1509 1.0263,.2188 1.5312,.2188 .7292,0 1.2539-.1213 1.5625-.4062 .3085-.285 .4687-.6578 .4688-1.0938 0-.5034-.2245-.9169-.6875-1.2188-.463-.3018-1.0456-.5469-1.7188-.7812-.6732-.2343-1.4057-.5106-2.2188-.8125-.8131-.3019-1.5456-.7302-2.2188-1.25-.6732-.5198-1.2561-1.2076-1.7188-2.0625-.4626-.8549-.6875-1.9685-.6875-3.3438 0-1.3404 .242-2.4941 .7188-3.5 .4767-1.0058 1.1073-1.8461 1.9062-2.5 .799-.6538 1.7122-1.15 2.75-1.4688 1.0378-.3187 2.1309-.4687 3.2812-.4688zm-81.125,.0312c.6736,0 1.338,.0679 1.9688,.2188 .6308,.1509 1.1795,.4273 1.6562,.8125 .4767,.3853 .8618,.9062 1.1562,1.5938 .2944,.6876 .4375,1.5839 .4375,2.6562v17.8125c0,.7378-.0377,1.629-.0937,2.7188-.056,1.0897-.179,2.0657-.375,2.9375-.309,1.3414-.7926,2.4699-1.4375,3.375-.6449,.905-1.3569,1.6339-2.1562,2.1875-.7994,.5536-1.5932,.9532-2.4062,1.1875-.8131,.2343-1.5361,.3437-2.125,.3438-1.206,0-2.064-.2595-2.625-.8125-.561-.5531-.9603-1.3641-1.1562-2.4375-.0847-.4359-.1456-.889-.1875-1.375-.042-.486-.0998-1.162-.1562-2 .8978-.1003 1.6265-.2919 2.1875-.5938 .561-.3019 1.004-.6866 1.3125-1.1562 .3085-.4697 .5129-1.0362 .625-1.6562 .1122-.6201 .1875-1.2935 .1875-2.0312v-23.4375c.3364-.0338 .6666-.0898 1.0312-.1562 .3081-.0675 .6525-.1229 1.0312-.1562 .3787-.0332 .7604-.0312 1.125-.0312zm65.5,.0625c.6736,0 1.3067,.0679 1.9375,.2188 .6308,.1509 1.1795,.4273 1.6562,.8125 .4767,.3853 .8618,.9374 1.1562,1.625 .2944,.6876 .4687,1.5527 .4688,2.625v17.8125c0,.7378-.0377,1.6603-.0937,2.75-.056,1.0897-.179,2.0657-.375,2.9375-.309,1.3414-.7926,2.4699-1.4375,3.375-.6449,.905-1.3569,1.6339-2.1562,2.1875-.7994,.5536-1.6244,.9219-2.4375,1.1562-.8131,.2343-1.5049,.375-2.0938,.375-1.206,0-2.0952-.2907-2.6562-.8438-.561-.5531-.929-1.3641-1.125-2.4375-.0847-.4359-.1456-.889-.1875-1.375-.0419-.486-.0998-1.162-.1562-2 .8978-.1003 1.6265-.2919 2.1875-.5938 .561-.3019 1.0039-.6866 1.3125-1.1562 .3085-.4697 .5129-1.0049 .625-1.625 .1121-.6201 .1562-1.3247 .1562-2.0625v-23.4375c.3364-.0338 .6979-.0585 1.0625-.125 .3081-.0675 .6525-.1229 1.0312-.1562 .3787-.0332 .7604-.0625 1.125-.0625zm36.3438,7.8438c-.9535,0-1.6183,.4942-1.9688,1.5-.3505,1.0059-.5312,2.3814-.5312,4.125 0,.8043 .0411,1.5624 .125,2.25 .0839,.6876 .2269,1.2927 .4375,1.8125 .2105,.5198 .5074,.9169 .8438,1.2188 .3363,.3019 .745,.4688 1.25,.4688 .3363,0 .6161-.043 .8125-.0938 .1964-.0506 .3215-.0912 .4062-.125v-10.8125c-.1686-.134-.3897-.2311-.6562-.2812-.2666-.0502-.4945-.0625-.7188-.0625zm93.1875,.375c-.7683,.11-1.3183,.6199-1.625,1.5-.3505,1.0059-.5313,2.3814-.5312,4.125 0,.8043 .0411,1.5311 .125,2.2188 .0839,.6876 .2269,1.2927 .4375,1.8125 .2106,.5198 .5074,.9481 .8438,1.25 .3364,.3019 .745,.4375 1.25,.4375 .3364,0 .616-.0117 .8125-.0625 .1964-.0506 .3215-.0912 .4062-.125v-10.8125c-.1686-.134-.3897-.2311-.6562-.2812-.2666-.0502-.4945-.0625-.7188-.0625-.1192,0-.234-.0157-.3438,0zm-175.7813,30.4062c.6736,.0001 1.3067,.0992 1.9375,.25 .6308,.1509 1.2107,.3955 1.6875,.7812 .4767,.3858 .8618,.9374 1.1562,1.625 .2944,.6876 .4375,1.5527 .4375,2.625v30.1875c-1.1495,.4359-2.1959,.6562-3.0938,.6562-1.2899,0-2.2849-.1936-3-.5625-.7151-.3689-1.2433-.8338-1.5938-1.4375-.3505-.6037-.5548-1.3059-.625-2.0938-.0702-.7879-.125-1.6282-.125-2.5v-29.1562c.3364-.0336 .6979-.0896 1.0625-.1562 .3081-.0675 .6525-.1224 1.0312-.1562 .3787-.0336 .7604-.0625 1.125-.0625zm11.75,0c.6736,.0001 1.338,.0992 1.9688,.25 .6308,.1509 1.1795,.3955 1.6562,.7812 .4767,.3858 .8618,.9374 1.1562,1.625 .2944,.6876 .4375,1.5527 .4375,2.625v16.1875c.1404-.7367 .379-1.4354 .6875-2.1562 .3085-.7208 .7107-1.4512 1.1875-2.1562l2.25-3.4688c.5324-.8042 1.1359-1.5069 1.7812-2.0938 .6453-.5868 1.535-.875 2.6562-.875 .6453,0 1.2579,.1259 1.875,.3438 .6171,.218 1.1795,.4507 1.6562,.7188 .5323,.3019 1.0233,.6306 1.5,1l-5.75,9.6562 6.8125,12.4375c-1.8513,.9045-3.5514,1.3438-5.0938,1.3438-1.3181,0-2.3675-.2738-3.125-.8438-.7575-.5699-1.4082-1.3142-1.9688-2.2188l-2.6875-4.4688c-.4768-.7705-.8443-1.5168-1.125-2.1875-.2807-.6707-.5159-1.412-.6562-2.25v11.4062h-8.4062v-35.2812c.3364-.0336 .6979-.0896 1.0625-.1562 .3081-.0675 .6525-.1224 1.0312-.1562 .3787-.0336 .7291-.0625 1.0938-.0625zm-23.9375,.25c.6727,.0001 1.3063,.0679 1.9375,.2188 .6312,.1509 1.1795,.4268 1.6562,.8125 .4767,.3858 .8618,.9374 1.1562,1.625 .2944,.6876 .4687,1.5527 .4688,2.625v30.375h-6.3125c-.4211,0-.8199-.109-1.1562-.3438-.3364-.2348-.5-.7295-.5-1.5-.3929,.6027-1.0195,1.1385-1.875,1.625-.8555,.4865-1.9289,.7188-3.2188,.7188-.9535,0-1.8869-.1624-2.8125-.5312-.9257-.3689-1.7571-1.0156-2.5-1.9375-.7429-.9219-1.3495-2.1886-1.8125-3.7812-.463-1.5926-.6875-3.5852-.6875-6 0-2.4138 .2215-4.4797 .6562-6.1562 .4348-1.6765 1.0208-3.0234 1.75-4.0625 .7292-1.0391 1.5465-1.7803 2.5-2.25 .9535-.4697 1.9618-.7187 3-.7188 .6727,0 1.2797,.0823 1.8125,.25 .5328,.1678 .9963,.3758 1.375,.5938 .3787,.218 .6679,.4071 .9062,.625 .2384,.218 .4161,.3997 .5,.5v-12.3438c.3372-.0336 .6675-.0584 1.0312-.125 .309-.0675 .6666-.1224 1.0312-.1562 .3646-.0336 .7291-.0625 1.0938-.0625zm-23.0938,.0312c.5615,0 1.1505,.0412 1.7812,.125 .6308,.084 1.2549,.2072 1.8438,.375 1.01,.3019 1.8645,.7713 2.5938,1.375 .7292,.6038 1.0937,1.4539 1.0938,2.5938 0,.5024-.1632,1.1764-.5,2.0312-.3368,.8549-.7801,1.7507-1.3125,2.6562-.4485-.3018-1.0174-.6192-1.7188-.9375-.7014-.3182-1.4712-.4687-2.3125-.4688-.7292,0-1.3392,.2353-1.8438,.6875-.5046,.4523-.75,1.1519-.75,2.125v1.2188h6.2188v7.4688h-6.2188v16.8125h-8.375v-24.0312c0-.4359 .0174-1.0415 .0312-1.8125 .0137-.771 .0372-1.4053 .0937-1.875 .3646-2.7156 1.3185-4.7934 2.875-6.2188 1.5565-1.4253 3.7235-2.125 6.5-2.125zm201.6562,.625c1.1495,0 2.1381,.4259 2.9375,1.2812 .7994,.8555 1.1875,2.027 1.1875,3.4688 0,1.4418-.3881,2.5682-1.1875,3.4062-.7994,.838-1.788,1.25-2.9375,1.25-1.1503,0-2.1073-.412-2.9062-1.25-.799-.838-1.1875-1.9645-1.1875-3.4062 0-1.4417 .3885-2.6133 1.1875-3.4688 .799-.8554 1.7559-1.2812 2.9062-1.2812zm-109,.0312c.6736,.0001 1.3379,.0679 1.9688,.2188 .6308,.1509 1.1795,.4268 1.6562,.8125 .4767,.3858 .8618,.9062 1.1562,1.5938 .2944,.6876 .4375,1.5839 .4375,2.6562v16.1875c.1404-.7367 .3477-1.4666 .6562-2.1875 .3085-.7208 .7108-1.42 1.1875-2.125l2.2812-3.4688c.5324-.8042 1.1046-1.5069 1.75-2.0938 .6453-.5868 1.535-.875 2.6562-.875 .6453,0 1.2891,.0946 1.9062,.3125 .6171,.218 1.1483,.4819 1.625,.75 .5324,.3019 1.0545,.6306 1.5312,1l-5.7812,9.6562 6.8125,12.4062c-1.8513,.9045-3.5202,1.375-5.0625,1.375-1.3181,0-2.3675-.3051-3.125-.875-.7575-.5699-1.4081-1.283-1.9688-2.1875l-2.7188-4.5c-.4767-.7705-.8443-1.4855-1.125-2.1562-.2807-.6707-.4846-1.412-.625-2.25v11.4062h-8.4062v-35.3125c.3364-.0336 .6666-.0896 1.0312-.1562 .3081-.0675 .6525-.0912 1.0312-.125 .3787-.0336 .7604-.0625 1.125-.0625zm30.5625,.125c.5615,0 1.1504,.0412 1.7812,.125 .6308,.084 1.2549,.2072 1.8438,.375 1.0099,.3019 1.8645,.7401 2.5938,1.3438 .7292,.6038 1.0937,1.4852 1.0938,2.625 0,.5024-.1632,1.1764-.5,2.0312-.3368,.8549-.7489,1.7507-1.2812,2.6562-.4485-.3018-1.0486-.6192-1.75-.9375-.7014-.3182-1.4712-.4687-2.3125-.4688-.7292,0-1.3392,.204-1.8438,.6562-.5046,.4523-.75,1.1832-.75,2.1562v1.1875h6.2188v7.5h-6.2188v16.8125h-8.375v-24.0625c0-.4359 .0174-1.0415 .0312-1.8125 .0137-.771 .0372-1.3741 .0937-1.8438 .3646-2.7156 1.3186-4.7934 2.875-6.2188 1.5564-1.4253 3.7235-2.125 6.5-2.125zm40.7812,.7188c.6727,.0001 1.3375,.0679 1.9688,.2188 .6312,.1509 1.1795,.4268 1.6562,.8125 .4767,.3858 .8618,.9062 1.1562,1.5938 .2944,.6876 .4375,1.5839 .4375,2.6562v30.375h-6.3125c-.4211,0-.7886-.1402-1.125-.375-.3364-.2348-.5-.7295-.5-1.5-.3929,.6027-1.0195,1.1385-1.875,1.625-.8555,.4865-1.9289,.75-3.2188,.75-.9535,0-1.8868-.1936-2.8125-.5625-.9257-.3689-1.7571-1.0156-2.5-1.9375-.7429-.9219-1.3495-2.1886-1.8125-3.7812-.463-1.5926-.6875-3.5852-.6875-6 0-2.4138 .1902-4.4484 .625-6.125 .4348-1.6765 1.0208-3.0546 1.75-4.0938 .7292-1.0391 1.5778-1.7803 2.5312-2.25 .9535-.4697 1.9618-.7187 3-.7188 .6727,0 1.2797,.1135 1.8125,.2812 .5328,.1678 .965,.3446 1.3438,.5625 .3787,.218 .6991,.4383 .9375,.6562 .2384,.218 .3849,.3685 .4688,.4688v-12.3125c.3372-.0336 .6987-.0896 1.0625-.1562 .309-.0675 .6354-.1224 1-.1562 .3646-.0336 .7291-.0312 1.0938-.0312zm11.7812,0c.6736,.0001 1.3067,.0679 1.9375,.2188 .6308,.1509 1.1795,.4268 1.6562,.8125 .4767,.3858 .8618,.9062 1.1562,1.5938 .2944,.6876 .4688,1.5839 .4688,2.6562v16.1875c.1404-.7367 .3477-1.4666 .6562-2.1875 .3085-.7209 .7108-1.4512 1.1875-2.1562l2.2814-3.4687c.5324-.8042 1.1046-1.4756 1.75-2.0625 .6453-.5868 1.535-.9062 2.6562-.9062 .6453,0 1.2579,.1259 1.875,.3438 .6171,.218 1.1795,.4507 1.6562,.7188 .5324,.3019 1.0232,.6306 1.5,1l-5.75,9.6562 6.8125,12.4375c-1.8513,.9045-3.5514,1.3438-5.0938,1.3438-1.3181,0-2.3363-.2738-3.0938-.8438-.7575-.5699-1.4394-1.3142-2-2.2188l-2.6875-4.4688c-.4767-.7705-.8443-1.4855-1.125-2.1562-.2807-.6707-.4846-1.4432-.625-2.2812v11.4375h-8.4375v-35.3125c.3364-.0336 .6979-.0896 1.0625-.1562 .3081-.0675 .6525-.1224 1.0312-.1562 .3787-.0336 .7604-.0312 1.125-.0312zm-97.9688,9.3438c3.2815,0 5.6147,.77 7.0312,2.3125 1.4165,1.5425 2.125,3.9906 2.125,7.3437v9.8125c0,.838 .0753,1.7605 .1875,2.75 .1121,.9895 .2727,1.856 .4688,2.5938-.3929,.1341-.7544,.2286-1.0625,.3125-.3081,.084-.6114,.1686-.9062,.2188-.2949,.0502-.6153,.0769-.9375,.0937-.3223,.0168-.6697,.0312-1.0625,.0312-2.2716,0-3.6042-.7695-3.9688-2.3125-.4767,.5699-1.1681,1.0928-2.0938,1.5625-.9257,.4697-2.0981,.6875-3.5,.6875-.8696,0-1.7006-.1382-2.5-.4062-.7994-.2681-1.5079-.6944-2.125-1.2812-.6171-.5868-1.1041-1.3568-1.4688-2.3125-.3646-.9557-.5312-2.1248-.5312-3.5 0-1.9441 .4258-3.4995 1.2812-4.6562 .8555-1.1567 1.8737-2.0213 3.0938-2.625 1.2201-.6037 2.5085-.9889 3.8125-1.1562 1.3039-.1673 2.4177-.25 3.3438-.25v-.7188c0-.4697-.0784-.84-.2188-1.125-.1404-.2849-.3241-.5053-.5625-.6562-.2384-.1509-.5211-.2311-.8438-.2812-.3227-.0502-.6666-.0937-1.0312-.0937-.9809,0-1.9524,.1506-2.9062,.4688-.9539,.3182-2.0098,.8288-3.1875,1.5-.5332-.7715-.9526-1.5435-1.2188-2.2812-.2662-.7377-.4062-1.2879-.4062-1.6562 0-.5034 .1572-.9852 .4375-1.4375 .2803-.4523 .8492-.9028 1.7188-1.4062 .7575-.4696 1.7726-.8569 3.0625-1.125 1.2898-.2681 2.6224-.4062 3.9688-.4062zm60.0938,1.3125c2.2998,0 4.289,.412 6,1.25 .7566,.3694 1.3841,.824 1.875,1.3438 .4908,.5198 .75,1.1085 .75,1.8125 0,.6027-.1778,1.3177-.5,2.1562-.3223,.8386-.7108,1.666-1.1875,2.4375-.8422-.7715-1.731-1.4202-2.6562-1.9062-.9252-.486-1.859-.7187-2.8125-.7188-1.206,0-1.8125,.412-1.8125,1.25 0,.5362 .2077,.965 .6562,1.25 .4485,.285 1.0143,.5177 1.6875,.7188 .6732,.2011 1.4022,.4358 2.1875,.6875 .7853,.2517 1.5143,.6221 2.1875,1.125 .6732,.5029 1.2386,1.1907 1.6875,2.0625 .4489,.8718 .6875,1.9983 .6875,3.4062 0,2.6829-.7903,4.8448-2.375,6.4375-1.5847,1.5927-3.9085,2.375-6.9375,2.375-1.7392,0-3.0949-.15-4.0625-.4688-.9676-.3187-1.7206-.6644-2.2812-1-.7292-.4359-1.2509-.9177-1.5312-1.4375-.2803-.5198-.4062-1.0551-.4062-1.625 0-.8718 .1808-1.7245 .5312-2.5625 .3505-.838 .739-1.6645 1.1875-2.4688 .3364,.3684 .7215,.7125 1.1562,1.0312 .4348,.3187 .9013,.6069 1.4062,.875 .505,.2681 1.0297,.4741 1.5625,.625 .5328,.1509 1.0575,.25 1.5625,.25 .7292,0 1.2539-.1526 1.5625-.4375 .3085-.285 .4687-.6578 .4688-1.0938 0-.5034-.2557-.8856-.7188-1.1875-.4631-.3018-1.0143-.5782-1.6875-.8125-.6732-.2343-1.4369-.5106-2.25-.8125-.8131-.3019-1.5456-.6989-2.2188-1.2188-.6732-.5198-1.2249-1.2076-1.6875-2.0625-.4626-.8549-.7188-1.9685-.7188-3.3438 0-1.3404 .242-2.5254 .7188-3.5312 .4767-1.0058 1.1073-1.8149 1.9062-2.4688 .799-.6538 1.7435-1.15 2.7812-1.4688 1.0378-.3187 2.1309-.4687 3.2812-.4688zm63,.5625c.6736,0 1.3379,.0679 1.9688,.2188 .6308,.1509 1.1795,.4273 1.6562,.8125 .4767,.3853 .8618,.9062 1.1562,1.5938 .2944,.6876 .4375,1.5839 .4375,2.6562v17.7812c0,.7378-.0377,1.6603-.0937,2.75-.056,1.0897-.179,2.0657-.375,2.9375-.309,1.3414-.7613,2.47-1.4062,3.375-.6449,.905-1.3881,1.6339-2.1875,2.1875-.7994,.5536-1.5931,.9532-2.4062,1.1875-.8131,.2343-1.5049,.3437-2.0938,.3438-1.206,0-2.0952-.2907-2.6562-.8438-.561-.5531-.9602-1.3641-1.1562-2.4375-.0847-.4359-.1456-.889-.1875-1.375-.0419-.486-.0684-1.1307-.125-1.9688 .8978-.1003 1.6265-.3231 2.1875-.625 .561-.3019 .9727-.6866 1.2812-1.1562 .3085-.4697 .5441-1.0049 .6562-1.625 .1122-.6201 .1562-1.2935 .1562-2.0312v-23.4375c.3364-.0338 .6979-.0898 1.0625-.1562 .3081-.0675 .6525-.1231 1.0312-.1562 .3787-.0332 .7291-.0312 1.0938-.0312zm-182.75,5.375c-.7683,.11-1.3183,.6199-1.625,1.5-.3505,1.0059-.5,2.3814-.5,4.125 0,.8043 .0411,1.5311 .125,2.2188 .0839,.6876 .2269,1.2927 .4375,1.8125 .2105,.5198 .4761,.9481 .8125,1.25 .3364,.3019 .745,.4375 1.25,.4375 .3364,0 .6161-.0117 .8125-.0625 .1964-.0506 .3215-.0912 .4062-.125v-10.8125c-.1686-.1339-.3584-.2311-.625-.2812-.2666-.0502-.5258-.0625-.75-.0625-.1192,0-.234-.0157-.3438,0zm141.2812,1.5c-.9535,0-1.6183,.4942-1.9688,1.5-.3505,1.0059-.5313,2.3814-.5312,4.125 0,.8043 .0411,1.5624 .125,2.25 .0839,.6876 .2269,1.2927 .4375,1.8125 .2105,.5198 .5074,.9169 .8438,1.2188 .3364,.3019 .745,.4688 1.25,.4688 .3363,0 .616-.0429 .8125-.0937 .1964-.0506 .3215-.0912 .4062-.125v-10.8125c-.1686-.1339-.3897-.2311-.6562-.2812-.2666-.0502-.4945-.0625-.7188-.0625zm-80.3125,4.9375c-.5324,.0676-1.0541,.1785-1.5312,.3125-.4772,.1341-.8995,.3113-1.25,.5625-.3505,.2512-.6024,.5974-.8125,1-.2101,.4027-.3438,.9261-.3438,1.5625 0,.7715 .1807,1.3622 .5312,1.7812 .3505,.419 .8516,.625 1.4688,.625 .505,0 .9513-.1382 1.3438-.4062 .3924-.2681 .5937-.6815 .5938-1.2188v-4.2188zm56.9688,76.6875c1.1495,0 2.1381,.4259 2.9375,1.2812 .7994,.8554 1.1875,1.9958 1.1875,3.4375 0,1.4418-.3881,2.5995-1.1875,3.4375-.7994,.8381-1.788,1.25-2.9375,1.25-1.1503,0-2.1073-.4119-2.9062-1.25-.799-.838-1.2188-1.9957-1.2188-3.4375 0-1.4417 .4198-2.5821 1.2188-3.4375 .799-.8554 1.7559-1.2812 2.9062-1.2812zm-89.1875,.4688c.5615,0 1.1817,.041 1.8125,.125 .6308,.084 1.2236,.2072 1.8125,.375 1.0099,.3019 1.8958,.7401 2.625,1.3438 .7292,.6037 1.0937,1.4852 1.0938,2.625 0,.5024-.1945,1.1764-.5312,2.0312-.3368,.8549-.7489,1.7195-1.2812,2.625-.4485-.3018-1.0174-.588-1.7188-.9062-.7014-.3182-1.5024-.5-2.3438-.5-.7292,0-1.3392,.2353-1.8438,.6875-.5046,.4523-.75,1.1832-.75,2.1562v1.1875h6.2188v7.5h-6.2188v16.8125h-8.375v-24.0625c0-.4359 .0174-1.0415 .0312-1.8125 .0137-.771 .0373-1.3741 .0937-1.8438 .3646-2.7156 1.3185-4.7934 2.875-6.2188 1.5565-1.4253 3.7235-2.125 6.5-2.125zm106.5,0c.5614,0 1.1504,.041 1.7812,.125 .6308,.084 1.2549,.2072 1.8438,.375 1.0099,.3019 1.8645,.7401 2.5938,1.3438 .7292,.6037 1.0937,1.4852 1.0938,2.625 0,.5024-.1632,1.1764-.5,2.0312-.3368,.8549-.7802,1.7195-1.3125,2.625-.4485-.3018-1.0174-.588-1.7188-.9062-.7014-.3182-1.4712-.5-2.3125-.5-.7292,0-1.3392,.2353-1.8438,.6875-.5046,.4523-.75,1.1832-.75,2.1562v1.1875h6.2188v7.5h-6.2188v16.8125h-8.375v-24.0625c0-.4359-.0138-1.0415 0-1.8125 .0137-.771 .0684-1.3741 .125-1.8438 .3646-2.7156 1.3186-4.7934 2.875-6.2188 1.5564-1.4253 3.7235-2.125 6.5-2.125zm-76.9688,.375c.6736,0 1.3067,.0992 1.9375,.25 .6308,.1509 1.2108,.3955 1.6875,.7812 .4767,.3858 .8618,.9374 1.1562,1.625 .2944,.6876 .4375,1.5527 .4375,2.625v30.1875c-1.1495,.4359-2.1959,.6562-3.0938,.6562-1.2899,0-2.2849-.1936-3-.5625-.7151-.3689-1.2433-.8338-1.5938-1.4375-.3505-.6037-.5548-1.3059-.625-2.0938-.0702-.7879-.0937-1.6282-.0937-2.5v-29.1562c.3364-.0336 .6666-.0896 1.0312-.1562 .3081-.0675 .6525-.1224 1.0312-.1562 .3787-.0336 .7604-.0625 1.125-.0625zm11.75,0c.6736,0 1.3067,.0992 1.9375,.25 .6308,.1509 1.2108,.3955 1.6875,.7812 .4767,.3858 .8618,.9374 1.1562,1.625 .2944,.6876 .4375,1.5527 .4375,2.625v16.2188c.1404-.7367 .3477-1.4666 .6562-2.1875 .3085-.7209 .7108-1.4512 1.1875-2.1562l2.2812-3.4688c.5324-.8042 1.1046-1.5069 1.75-2.0938 .6453-.5868 1.535-.875 2.6562-.875 .6453,0 1.2891,.1259 1.9062,.3438 .6171,.218 1.1482,.4507 1.625,.7188 .5323,.3019 1.0545,.6306 1.5312,1l-5.7812,9.6562 6.8125,12.4375c-1.8513,.9045-3.5514,1.3438-5.0938,1.3438-1.3181,0-2.3363-.2738-3.0938-.8438-.7575-.5699-1.4394-1.3142-2-2.2188l-2.6875-4.4688c-.4767-.7705-.8443-1.4855-1.125-2.1562-.2807-.6707-.4846-1.4432-.625-2.2812v11.4375h-8.4375v-35.3125c.3364-.0336 .6979-.0896 1.0625-.1562 .3081-.0675 .6525-.1224 1.0312-.1562 .3787-.0336 .7604-.0625 1.125-.0625zm-26.1562,10.7187c2.2998,0 4.3203,.412 6.0312,1.25 .7566,.3694 1.3841,.824 1.875,1.3438 .4908,.5198 .7187,1.1398 .7188,1.8438 0,.6027-.1465,1.3177-.4688,2.1562-.3223,.8386-.742,1.6347-1.2188,2.4062-.8422-.7715-1.731-1.3889-2.6562-1.875-.9252-.486-1.859-.7187-2.8125-.7188-1.206,0-1.8125,.412-1.8125,1.25 0,.5362 .239,.9338 .6875,1.2188 .4485,.285 1.0143,.5489 1.6875,.75 .6732,.2011 1.4022,.4046 2.1875,.6562 .7853,.2517 1.5143,.6533 2.1875,1.1562 .6732,.5029 1.2386,1.1907 1.6875,2.0625 .4489,.8718 .6562,1.9983 .6562,3.4062 0,2.6829-.7903,4.8136-2.375,6.4062-1.5847,1.5927-3.8772,2.4062-6.9062,2.4062-1.7392,0-3.0949-.1813-4.0625-.5-.9676-.3187-1.7519-.6331-2.3125-.9688-.7292-.4359-1.2197-.9177-1.5-1.4375-.2803-.5198-.4375-1.0551-.4375-1.625 0-.8718 .1808-1.7245 .5312-2.5625 .3505-.838 .7703-1.6645 1.2188-2.4688 .3364,.3684 .7215,.7125 1.1562,1.0312 .4348,.3187 .9013,.6069 1.4062,.875 .505,.2681 1.0297,.4741 1.5625,.625 .5328,.1509 1.0263,.2188 1.5312,.2188 .7292,0 1.2539-.1213 1.5625-.4062 .3085-.285 .4687-.6578 .4688-1.0938 0-.5034-.2245-.9169-.6875-1.2188-.4631-.3018-1.0456-.5469-1.7188-.7812-.6732-.2343-1.4056-.5106-2.2188-.8125-.8131-.3019-1.5456-.6989-2.2188-1.2188-.6732-.5198-1.2561-1.2076-1.7188-2.0625-.4626-.8549-.6875-1.9685-.6875-3.3438 0-1.3404 .242-2.5254 .7188-3.5312 .4767-1.0058 1.1073-1.8461 1.9062-2.5 .799-.6538 1.7122-1.1187 2.75-1.4375 1.0378-.3187 2.1309-.5 3.2812-.5zm57.5938,0c3.2815,0 5.646,.77 7.0625,2.3125 1.4165,1.5425 2.125,3.9906 2.125,7.3438v9.8125c0,.838 .0441,1.7605 .1562,2.75 .1121,.9895 .2727,1.856 .4688,2.5938-.3929,.1339-.7544,.2286-1.0625,.3125-.3082,.084-.6114,.1686-.9062,.2188-.2949,.0502-.584,.0769-.9062,.0937-.3223,.0168-.7009,.0312-1.0938,.0312-2.2716,0-3.5729-.7695-3.9375-2.3125-.4767,.5699-1.1681,1.0616-2.0938,1.5312-.9257,.4697-2.0981,.7188-3.5,.7188-.8696,0-1.7006-.1382-2.5-.4062-.7994-.2681-1.5079-.6944-2.125-1.2812-.6171-.5868-1.1041-1.3568-1.4688-2.3125-.3646-.9557-.5625-2.1248-.5625-3.5 0-1.9441 .4258-3.4995 1.2812-4.6562 .8555-1.1567 1.9049-2.0213 3.125-2.625 1.2201-.6037 2.4773-.9889 3.7812-1.1562 1.3039-.1673 2.4177-.25 3.3438-.25v-.7188c0-.4697-.0784-.84-.2188-1.125-.1404-.285-.3241-.5053-.5625-.6562-.2384-.1509-.5211-.2623-.8438-.3125-.3227-.0502-.6666-.0625-1.0312-.0625-.9809,0-1.9524,.1506-2.9062,.4688-.9539,.3182-2.0098,.8288-3.1875,1.5-.5332-.7715-.9213-1.5435-1.1875-2.2812-.2662-.7376-.4062-1.2878-.4062-1.6562 0-.5034 .1259-.9852 .4062-1.4375 .2803-.4522 .8492-.9028 1.7188-1.4062 .7575-.4696 1.8039-.8569 3.0938-1.125 1.2898-.2681 2.5912-.4062 3.9375-.4062zm15.7188,.5c.6736,0 1.3379,.0992 1.9688,.25 .6308,.1509 1.1795,.396 1.6562,.7812 .4767,.3853 .8618,.9374 1.1562,1.625 .2944,.6876 .4375,1.5527 .4375,2.625v17.8125c0,.7378-.0377,1.6603-.0937,2.75-.056,1.0897-.179,2.0657-.375,2.9375-.309,1.3414-.7926,2.47-1.4375,3.375-.6449,.905-1.3569,1.6339-2.1562,2.1875-.7994,.5535-1.5931,.9532-2.4062,1.1875-.8131,.2343-1.5362,.3437-2.125,.3438-1.206,0-2.064-.2907-2.625-.8438-.561-.5531-.9603-1.3641-1.1562-2.4375-.0847-.4359-.1456-.889-.1875-1.375-.0419-.486-.0998-1.162-.1562-2 .8978-.1003 1.6265-.2919 2.1875-.5938 .561-.3019 1.0039-.6866 1.3125-1.1562 .3085-.4697 .5129-1.0049 .625-1.625 .1122-.6201 .1875-1.2935 .1875-2.0312v-23.4375c.3364-.0338 .6666-.0898 1.0312-.1562 .3081-.0675 .6525-.1231 1.0312-.1562 .3787-.0332 .7604-.0625 1.125-.0625zm-14.4062,13.1875c-.5324,.0676-1.0229,.1785-1.5,.3125-.4772,.1341-.8995,.3113-1.25,.5625-.3505,.2512-.6336,.5974-.8438,1-.2101,.4027-.3125,.8948-.3125,1.5312 0,.7715 .1807,1.3935 .5312,1.8125 .3505,.419 .8204,.625 1.4375,.625 .505,0 .9513-.1382 1.3438-.4062 .3924-.2681 .5937-.6815 .5938-1.2188v-4.2188zm-66.3438,25.0312c1.1495,0 2.1381,.4571 2.9375,1.3125 .7994,.8555 1.1875,1.9958 1.1875,3.4375 0,1.4418-.3881,2.5682-1.1875,3.4062-.7994,.8381-1.788,1.25-2.9375,1.25-1.1503,0-2.1385-.4119-2.9375-1.25-.799-.838-1.1875-1.9645-1.1875-3.4062 0-1.4417 .3885-2.582 1.1875-3.4375 .799-.8554 1.7872-1.3125 2.9375-1.3125zm91.875,0c1.1495,0 2.1068,.4571 2.9062,1.3125 .7994,.8555 1.1875,1.9958 1.1875,3.4375 0,1.4418-.3881,2.5682-1.1875,3.4062-.7994,.8381-1.7568,1.25-2.9062,1.25-1.1503,0-2.1385-.4119-2.9375-1.25-.6414-.6728-.9985-1.5318-1.125-2.5938-.0775,.4034-.2215,.8578-.4375,1.4062-.3368,.8549-.7489,1.7507-1.2812,2.6562-.4485-.3018-1.0486-.6192-1.75-.9375-.7014-.3182-1.4712-.4687-2.3125-.4688-.7292,0-1.3392,.2353-1.8438,.6875-.5046,.4523-.75,1.1519-.75,2.125v1.2188h6.2188v7.4688h-6.2188v16.8125h-8.375v-24.0312c0-.4359 .0174-1.0415 .0312-1.8125 .0137-.771 .0372-1.4053 .0937-1.875 .3646-2.7156 1.3186-4.7934 2.875-6.2188 1.5564-1.4253 3.7235-2.125 6.5-2.125 .5614,0 1.1504,.0412 1.7812,.125 .6308,.084 1.2549,.2072 1.8438,.375 1.0099,.3019 1.8645,.7713 2.5938,1.375 .5294,.4383 .8549,.9979 1,1.7188 .1109-1.1203 .4903-2.037 1.1562-2.75 .799-.8554 1.7872-1.3125 2.9375-1.3125zm-4.0938,4.0625c-.0222,.2238-.0312,.4474-.0312,.6875 0,.2843 .0314,.5517 .0625,.8125 .0433-.2254 .0625-.4449 .0625-.625 0-.3124-.039-.6029-.0937-.875zm40.375-3.5938c.5615,0 1.1504,.0412 1.7812,.125 .6308,.084 1.2236,.2072 1.8125,.375 1.0099,.3019 1.8958,.7713 2.625,1.375 .7292,.6037 1.0937,1.4539 1.0938,2.5938 0,.5024-.1632,1.1764-.5,2.0312-.3368,.8549-.7801,1.7507-1.3125,2.6562-.4485-.3018-1.0174-.6192-1.7188-.9375-.7014-.3182-1.4712-.4687-2.3125-.4688-.7292,0-1.3392,.2353-1.8438,.6875-.5046,.4523-.7812,1.1519-.7812,2.125v1.2188h6.25v7.4688h-6.25v16.8125h-8.375v-24.0312c0-.4359 .0174-1.0415 .0312-1.8125 .0137-.771 .0372-1.4053 .0937-1.875 .3646-2.7156 1.3498-4.7934 2.9062-6.2188 1.5564-1.4253 3.7235-2.125 6.5-2.125zm-159.6562,.4062c.6727,0 1.3375,.0679 1.9688,.2188 .6312,.1509 1.1795,.4268 1.6562,.8125 .4767,.3858 .8618,.9062 1.1562,1.5938 .2944,.6877 .4375,1.5839 .4375,2.6562v30.375h-6.3125c-.4211,0-.7886-.109-1.125-.3438-.3364-.2348-.5-.7607-.5-1.5312-.3929,.6027-1.0195,1.1697-1.875,1.6562-.8555,.4865-1.9289,.7188-3.2188,.7188-.9535,0-1.9181-.1936-2.8438-.5625-.9257-.3689-1.7571-1.0156-2.5-1.9375-.7429-.9219-1.3495-2.1573-1.8125-3.75-.4631-1.5926-.6875-3.6164-.6875-6.0312 0-2.4138 .2215-4.4484 .6562-6.125 .4348-1.6765 1.0208-3.0234 1.75-4.0625 .7292-1.0391 1.5778-1.8116 2.5312-2.2812 .9535-.4697 1.9305-.6875 2.9688-.6875 .6727,0 1.2797,.0822 1.8125,.25 .5328,.1678 .9963,.3446 1.375,.5625 .3787,.218 .6991,.4383 .9375,.6562 .2383,.218 .3849,.3685 .4688,.4688v-12.3125c.3372-.0338 .6987-.0896 1.0625-.1562 .309-.0675 .6354-.1224 1-.1562 .3646-.0337 .7291-.0312 1.0938-.0312zm16.3438,10.7188c2.2998,0 4.3203,.412 6.0312,1.25 .7566,.3694 1.3841,.824 1.875,1.3438 .4908,.5198 .7187,1.1085 .7188,1.8125 0,.6027-.1465,1.3177-.4688,2.1562-.3223,.8386-.742,1.666-1.2188,2.4375-.8422-.7715-1.731-1.4202-2.6562-1.9062-.9252-.486-1.859-.7187-2.8125-.7188-1.206,0-1.8125,.412-1.8125,1.25 0,.5362 .239,.965 .6875,1.25 .4485,.285 1.0143,.5177 1.6875,.7188 .6731,.2011 1.4022,.4358 2.1875,.6875 .7853,.2517 1.5143,.6221 2.1875,1.125 .6731,.5029 1.2386,1.1907 1.6875,2.0625 .4489,.8718 .6562,1.9983 .6562,3.4062 0,2.6829-.7903,4.8448-2.375,6.4375-1.5847,1.5927-3.8772,2.375-6.9062,2.375-1.7392,0-3.0949-.15-4.0625-.4688-.9676-.3187-1.7519-.6644-2.3125-1-.7292-.4359-1.2197-.8865-1.5-1.4062-.2803-.5198-.4375-1.0863-.4375-1.6562 0-.8718 .1808-1.7245 .5312-2.5625 .3505-.838 .7703-1.6645 1.2188-2.4688 .3364,.3684 .7215,.7125 1.1562,1.0312 .4348,.3187 .9013,.6069 1.4062,.875 .505,.2681 1.0297,.5053 1.5625,.6562 .5328,.1509 1.0263,.2188 1.5312,.2188 .7292,0 1.2539-.1526 1.5625-.4375 .3085-.285 .4687-.6266 .4688-1.0625 0-.5034-.2245-.9169-.6875-1.2188-.4631-.3018-1.0456-.5782-1.7188-.8125-.6732-.2343-1.4057-.5106-2.2188-.8125-.8131-.3019-1.5456-.699-2.2188-1.2188-.6732-.5198-1.2561-1.2076-1.7188-2.0625-.4626-.8549-.6875-1.9685-.6875-3.3438 0-1.3404 .242-2.5254 .7188-3.5312 .4767-1.0058 1.1073-1.8149 1.9062-2.4688 .799-.6538 1.7122-1.15 2.75-1.4688 1.0378-.3187 2.1309-.4687 3.2812-.4688zm32.6562,0c1.7109,0 3.169,.3026 4.375,.9062 1.2059,.6037 2.1941,1.4004 2.9375,2.4062 .7433,1.0059 1.2886,2.1903 1.625,3.5312 .3363,1.341 .5,2.7433 .5,4.2188v.6562c0,.285-.0169,.6044-.0312,.9062-.0141,.3019-.0176,.5757-.0312,.8438-.0137,.2681-.0342,.4597-.0625,.5938h-11.25c.1404,1.2739 .5426,2.3613 1.1875,3.25 .6449,.8887 1.6948,1.3438 3.125,1.3438 1.1221,0 2.0554-.2229 2.8125-.625 .757-.4021 1.5238-.9225 2.2812-1.5938 .3646,.6712 .7291,1.4407 1.0938,2.3125 .3646,.8718 .5312,1.6423 .5312,2.3125 0,.5699-.1225,1.1221-.375,1.625-.2525,.5029-.6993,.9678-1.3438,1.4375-.6171,.4359-1.4481,.8231-2.5,1.125-1.0519,.3019-2.3669,.4375-3.9375,.4375-1.1495,0-2.369-.1644-3.6875-.5-1.3185-.3356-2.5659-.9967-3.6875-1.9688-1.1217-.9721-2.0379-2.3333-2.7812-4.0938-.7434-1.7605-1.125-4.0565-1.125-6.9062 0-2.113 .3033-3.958 .9062-5.5 .603-1.542 1.4074-2.8066 2.375-3.8125 .9676-1.0058 2.0642-1.7491 3.3125-2.2188 1.2483-.4697 2.4884-.6875 3.75-.6875zm22.2188,0c1.9352,0 3.5599,.3293 4.9062,1 1.3463,.6707 2.4399,1.5789 3.2812,2.7188 .8413,1.1399 1.465,2.4744 1.8438,4 .3787,1.5256 .5625,3.134 .5625,4.8438 0,1.7098-.2009,3.3761-.5938,4.9688-.3929,1.5927-1.02,2.9806-1.875,4.1875-.8551,1.2069-1.9521,2.1536-3.3125,2.875-1.3605,.7214-3.0366,1.0938-5,1.0938-1.9352,0-3.5604-.358-4.9062-1.0625-1.3459-.7045-2.457-1.6537-3.3125-2.8438-.8555-1.19-1.4821-2.5656-1.875-4.125-.3929-1.5594-.5938-3.1939-.5938-4.9375 0-1.7436 .2386-3.4098 .6875-4.9688 .4489-1.5589 1.1197-2.8913 2.0312-4.0312 .9115-1.1399 2.0604-2.048 3.4062-2.7188 1.3459-.6707 2.9269-1 4.75-1zm25.9688,0c.4211,0 .8434,.0244 1.25,.125 .4065,.1008 .7574,.2821 1.0938,.5 .3363,.218 .6332,.5061 .8438,.875 .2105,.3689 .3125,.8076 .3125,1.3438 0,.5362-.0753,1.1443-.1875,1.7812-.1122,.637-.2552,1.2668-.4375,1.9375-.1823,.6707-.3691,1.3318-.5938,1.9688-.2247,.637-.4633,1.2153-.6875,1.7188-.5889-.5699-1.1406-.9963-1.6875-1.2812-.5469-.2849-1.168-.4375-1.8125-.4375-.7292,0-1.2634,.2204-1.6562,.6562-.3929,.4359-.5938,1.0148-.5938,1.7188v14.0312h-8.4688v-24.0312c.2525-.0675 .5386-.1523 .875-.2188 .3081-.0675 .6696-.1231 1.0625-.1562 .3929-.0332 .8388-.0312 1.3438-.0312 2.524,0 4.1016,.824 4.7188,2.5 .1395-.3018 .3614-.6167 .6562-.9688 .2948-.352 .6388-.6981 1.0312-1 .3924-.3018 .8388-.5489 1.3438-.75 .505-.2011 1.0331-.2812 1.5938-.2812zm41.75,0c2.2998,0 4.3203,.412 6.0312,1.25 .7566,.3694 1.3529,.824 1.8438,1.3438 .4908,.5198 .75,1.1085 .75,1.8125 0,.6027-.1465,1.3177-.4688,2.1562-.3223,.8386-.742,1.666-1.2188,2.4375-.8422-.7715-1.731-1.4202-2.6562-1.9062-.9252-.486-1.859-.7187-2.8125-.7188-1.206,0-1.8125,.412-1.8125,1.25 0,.5362 .239,.965 .6875,1.25 .4485,.285 1.0143,.5177 1.6875,.7188 .6732,.2011 1.4022,.4358 2.1875,.6875 .7853,.2517 1.5143,.6221 2.1875,1.125 .6732,.5029 1.2386,1.1907 1.6875,2.0625 .4489,.8718 .6562,1.9983 .6562,3.4062 0,2.6829-.7903,4.8448-2.375,6.4375-1.5847,1.5927-3.8772,2.375-6.9062,2.375-1.7392,0-3.0949-.15-4.0625-.4688-.9676-.3187-1.7519-.6644-2.3125-1-.7292-.4359-1.2197-.8865-1.5-1.4062-.2803-.5198-.4375-1.0863-.4375-1.6562 0-.8718 .1808-1.7245 .5312-2.5625 .3505-.838 .7703-1.6645 1.2188-2.4688 .3364,.3684 .7215,.7125 1.1562,1.0312 .4348,.3187 .9013,.6069 1.4062,.875 .505,.2681 .9984,.5053 1.5312,.6562 .5328,.1509 1.0575,.2188 1.5625,.2188 .7292,0 1.2539-.1526 1.5625-.4375 .3085-.285 .4687-.6266 .4688-1.0625 0-.5034-.2245-.9169-.6875-1.2188-.463-.3018-1.0456-.5782-1.7188-.8125-.6732-.2343-1.4056-.5106-2.2188-.8125-.8131-.3019-1.5768-.699-2.25-1.2188-.6732-.5198-1.2249-1.2076-1.6875-2.0625-.4626-.8549-.6875-1.9685-.6875-3.3438 0-1.3404 .242-2.5254 .7188-3.5312 .4767-1.0058 1.1073-1.8149 1.9062-2.4688 .799-.6538 1.7122-1.15 2.75-1.4688 1.0378-.3187 2.1309-.4687 3.2812-.4688zm-108.1875,.5c.6736,0 1.3067,.0679 1.9375,.2188 .6308,.1509 1.2108,.4273 1.6875,.8125 .4767,.3853 .8618,.9062 1.1562,1.5938 .2944,.6876 .4375,1.5839 .4375,2.6562v17.7812c0,.7378-.0377,1.6603-.0937,2.75-.056,1.0897-.179,2.0657-.375,2.9375-.309,1.3414-.7926,2.4699-1.4375,3.375-.6449,.9051-1.3569,1.6339-2.1562,2.1875-.7994,.5535-1.6244,.9532-2.4375,1.1875-.8131,.2343-1.5049,.3437-2.0938,.3438-1.206,0-2.0952-.2595-2.6562-.8125-.561-.5531-.929-1.3641-1.125-2.4375-.0847-.4359-.1456-.9202-.1875-1.4062-.042-.486-.0998-1.1307-.1562-1.9688 .8978-.1003 1.6265-.2919 2.1875-.5938 .561-.3019 1.004-.7178 1.3125-1.1875 .3085-.4697 .5129-1.0049 .625-1.625 .1122-.6201 .1562-1.2935 .1562-2.0312v-23.4375c.3364-.0338 .6979-.0898 1.0625-.1562 .3081-.0675 .6525-.1231 1.0312-.1562 .3787-.0332 .7604-.0312 1.125-.0312zm91.8438,0c.6736,0 1.3379,.0679 1.9688,.2188 .6308,.1509 1.1795,.4273 1.6562,.8125 .4767,.3853 .8618,.9062 1.1562,1.5938 .2944,.6876 .4375,1.5839 .4375,2.6562v17.7812c0,.7378-.006,1.6603-.0625,2.75-.056,1.0897-.2103,2.0657-.4062,2.9375-.309,1.3414-.7613,2.4699-1.4062,3.375-.6449,.9051-1.3881,1.6339-2.1875,2.1875-.7994,.5535-1.5931,.9532-2.4062,1.1875-.8131,.2343-1.5049,.3437-2.0938,.3438-1.206,0-2.0952-.2595-2.6562-.8125-.561-.5531-.9602-1.3641-1.1562-2.4375-.0847-.4359-.1456-.9202-.1875-1.4062-.0419-.486-.0684-1.1307-.125-1.9688 .8978-.1003 1.6265-.2919 2.1875-.5938 .561-.3019 .9727-.7178 1.2812-1.1875 .3086-.4697 .5441-1.0049 .6562-1.625 .1122-.6201 .1562-1.2935 .1562-2.0312v-23.4375c.3364-.0338 .6979-.0898 1.0625-.1562 .3081-.0675 .6525-.1231 1.0312-.1562 .3787-.0332 .7291-.0312 1.0938-.0312zm-73.6562,5.7812c-1.319,0-2,1.2112-2,3.625h4.0625c0-1.3742-.1778-2.324-.5-2.8438-.3223-.5198-.8333-.7812-1.5625-.7812zm-53.5312,1.0938c-.9535,0-1.587,.5254-1.9375,1.5312-.3505,1.0059-.5313,2.3502-.5312,4.0938v.0312c0,.8043 .0411,1.5312 .125,2.2188 .0839,.6876 .2269,1.2927 .4375,1.8125 .2105,.5198 .4761,.9481 .8125,1.25 .3364,.3019 .7763,.4375 1.2812,.4375 .3364,0 .5848-.0119 .7812-.0625 .1964-.0506 .3527-.0912 .4375-.125v-10.8438c-.1686-.1341-.3897-.1999-.6562-.25-.2666-.0501-.5258-.0937-.75-.0937zm75.7186,.0623c-.4767,0-.879,.1357-1.1875,.4375-.3086,.3019-.5536,.7158-.75,1.2188-.1964,.5029-.3361,1.0818-.4062,1.7188-.0702,.637-.0937,1.2673-.0937,1.9375 0,.7378 .0235,1.4543 .0937,2.125 .0702,.6707 .2098,1.2615 .4062,1.7812 .1964,.5198 .4556,.9487 .75,1.25 .2944,.3014 .6795,.4375 1.1562,.4375 .4767,0 .8477-.1504 1.1562-.4688 .3085-.3182 .5505-.7302 .7188-1.25 .1682-.5198 .3048-1.1418 .375-1.8125 .0702-.6707 .0937-1.356 .0937-2.0938 0-1.4745-.1637-2.7273-.5-3.75-.3364-1.0227-.9429-1.5312-1.8125-1.5312zm-69.9062,31.2812c1.1495,0 2.1381,.4259 2.9375,1.2812 .7994,.8555 1.1875,1.9958 1.1875,3.4375 0,1.4418-.3881,2.5995-1.1875,3.4375-.7994,.8381-1.788,1.25-2.9375,1.25-1.1503,0-2.1073-.4119-2.9062-1.25-.799-.838-1.2188-1.9957-1.2188-3.4375 0-1.4417 .4198-2.582 1.2188-3.4375 .799-.8554 1.7559-1.2812 2.9062-1.2812zm-36.4375,.4375c.5615,0 1.1505,.041 1.7812,.125 .6308,.084 1.2549,.2072 1.8438,.375 1.0099,.3019 1.8645,.7713 2.5938,1.375 .7292,.6037 1.0937,1.4851 1.0938,2.625 0,.5024-.1632,1.1764-.5,2.0312-.3368,.8549-.7489,1.7195-1.2812,2.625-.4485-.3018-1.0486-.588-1.75-.9062-.7014-.3182-1.4712-.5-2.3125-.5-.7292,0-1.3392,.2353-1.8438,.6875-.5046,.4523-.75,1.1519-.75,2.125v1.2188h6.2188v7.5h-6.2188v16.7812h-8.375v-24.0312c0-.4359 .0174-1.0415 .0312-1.8125 .0137-.771 .0373-1.3741 .0937-1.8438 .3646-2.7156 1.3185-4.7934 2.875-6.2188 1.5565-1.4253 3.7235-2.1562 6.5-2.1562zm89.0625,0c.5615,0 1.1817,.041 1.8125,.125 .6308,.084 1.2236,.2072 1.8125,.375 1.0099,.3019 1.8958,.7713 2.625,1.375 .7292,.6037 1.0937,1.4851 1.0938,2.625 0,.5024-.1945,1.1764-.5312,2.0312-.3368,.8549-.7489,1.7195-1.2812,2.625-.4485-.3018-1.0174-.588-1.7188-.9062-.7014-.3182-1.5024-.5-2.3438-.5-.7292,0-1.3392,.2353-1.8438,.6875-.5046,.4523-.75,1.1519-.75,2.125v1.2188h6.2188v7.5h-6.2188v16.7812h-8.375v-24.0312c0-.4359 .0174-1.0415 .0312-1.8125 .0137-.771 .0373-1.3741 .0937-1.8438 .3646-2.7156 1.3185-4.7934 2.875-6.2188 1.5564-1.4253 3.7235-2.1562 6.5-2.1562zm-78.531,.4062c.6736,0 1.338,.0679 1.9688,.2188 .6308,.1509 1.1795,.4268 1.6562,.8125 .4767,.3858 .8618,.9374 1.1562,1.625 .2944,.6877 .4375,1.5527 .4375,2.625v16.1875c.1404-.7367 .379-1.4666 .6875-2.1875 .3085-.7208 .6795-1.42 1.1562-2.125l2.2812-3.4688c.5324-.8042 1.1359-1.5069 1.7812-2.0938 .6453-.5868 1.5038-.875 2.625-.875 .6453,0 1.2891,.1259 1.9062,.3438 .6171,.218 1.1795,.4507 1.6562,.7188 .5324,.3019 1.0232,.6306 1.5,1l-5.75,9.6562 6.8125,12.4375c-1.8513,.9045-3.5514,1.3438-5.0938,1.3438-1.3181,0-2.3675-.2738-3.125-.8438-.7575-.5699-1.4081-1.3142-1.9688-2.2188l-2.6875-4.4688c-.4768-.7705-.8755-1.5168-1.1562-2.1875-.2807-.6707-.4846-1.412-.625-2.25v11.4062h-8.4062v-35.2812c.3364-.0337 .6979-.0896 1.0625-.1562 .3081-.0675 .6525-.1224 1.0312-.1562 .3787-.0337 .7291-.0625 1.0938-.0625zm36.9062,0c.6736,0 1.3067,.0679 1.9375,.2188 .6308,.1509 1.2107,.4268 1.6875,.8125 .4767,.3858 .8618,.9374 1.1562,1.625 .2944,.6877 .4375,1.5527 .4375,2.625v30.1875c-1.1495,.4359-2.1959,.6562-3.0938,.6562-1.2899,0-2.2849-.1936-3-.5625-.7151-.3689-1.2433-.865-1.5938-1.4688-.3505-.6037-.5548-1.2746-.625-2.0625-.0702-.7879-.0937-1.6282-.0937-2.5v-29.1562c.3364-.0337 .6666-.0896 1.0312-.1562 .3081-.0675 .6525-.1224 1.0312-.1562 .3787-.0337 .7604-.0625 1.125-.0625zm23.5625,0c.6727,0 1.3375,.0679 1.9688,.2188 .6312,.1509 1.1795,.4268 1.6562,.8125 .4767,.3858 .8618,.9374 1.1562,1.625 .2944,.6877 .4375,1.5527 .4375,2.625v30.375h-6.3125c-.4211,0-.7886-.109-1.125-.3438-.3364-.2348-.5-.7295-.5-1.5-.3929,.6027-1.0195,1.1385-1.875,1.625-.8555,.4865-1.9289,.7188-3.2188,.7188-.9535,0-1.8869-.1624-2.8125-.5312-.9257-.3689-1.7883-1.0156-2.5312-1.9375-.7429-.9219-1.3182-2.1886-1.7812-3.7812-.463-1.5926-.7188-3.5852-.7188-6 0-2.4138 .2215-4.4797 .6562-6.1562 .4348-1.6765 1.0208-3.0234 1.75-4.0625 .7292-1.0391 1.5778-1.7803 2.5312-2.25 .9535-.4697 1.9305-.7187 2.9688-.7188 .6727,0 1.2797,.0822 1.8125,.25 .5328,.1678 .9963,.3758 1.375,.5938 .3787,.218 .6991,.4383 .9375,.6562 .2384,.218 .3849,.3685 .4688,.4688v-12.3125c.3372-.0337 .6987-.0896 1.0625-.1562 .309-.0675 .6354-.1224 1-.1562 .3646-.0337 .7291-.0625 1.0938-.0625zm109.5312,1.9062c1.9626,0 3.6288,.3853 5.0312,1.1562 1.4024,.771 2.5401,1.9144 3.4375,3.4062 .8974,1.4919 1.5618,3.3082 1.9688,5.4375 .407,2.1294 .625,4.5344 .625,7.25 0,5.5326-.9098,9.797-2.7188,12.7812-1.809,2.9842-4.657,4.4688-8.5,4.4688-3.8704,0-6.6945-1.4285-8.5312-4.3125-1.8368-2.884-2.7812-7.2043-2.7812-12.9375 0-2.6491 .239-5.0274 .6875-7.1562 .4485-2.1288 1.1368-3.9456 2.0625-5.4375 .9257-1.4918 2.1182-2.6327 3.5625-3.4375 1.4443-.8047 3.1646-1.2187 5.1562-1.2188zm24.4062,0c1.8231,0 3.4555,.3586 4.8438,1.0625 1.3883,.704 2.5435,1.7236 3.4688,3.0312 .9252,1.3077 1.5994,2.9037 2.0625,4.7812 .463,1.8777 .7187,3.9652 .7188,6.3125 0,3.4534-.4224,6.4274-1.25,8.875-.8277,2.4476-1.9178,4.4268-3.25,5.9688-1.3322,1.542-2.8486,2.6849-4.5312,3.4062-1.6827,.7214-3.3516,1.0625-5.0625,1.0625-.9809,0-1.772-.0822-2.375-.25-.603-.1678-1.1041-.4144-1.4688-.75-.3646-.3356-.6238-.7327-.75-1.2188-.1263-.486-.1875-1.0798-.1875-1.75 0-.5034 .0553-1.0942 .125-1.7812 .0698-.6871 .131-1.2778 .1875-1.7812 .5606,.1341 1.0104,.2162 1.375,.25 .3646,.0338 .8045,.0625 1.2812,.0625 .6453,0 1.2785-.099 1.9375-.25 .659-.1509 1.2861-.3811 1.875-.75 .5888-.3689 1.1513-.8799 1.6562-1.5 .505-.6201 .9136-1.4044 1.25-2.3438-.6171,.4697-1.326,.8158-2.125,1-.799,.1842-1.5109,.25-2.1562,.25-1.3463,0-2.5217-.303-3.5312-.9062-1.0095-.6032-1.8581-1.3855-2.5312-2.375-.6732-.9895-1.1945-2.1303-1.5312-3.4375-.3368-1.3072-.5-2.6848-.5-4.0938 0-2.1794 .2793-4.0472 .8125-5.6562 .5332-1.609 1.2653-2.9579 2.2188-4.0312 .9535-1.0733 2.0817-1.8869 3.3438-2.4062 1.262-.5192 2.6071-.7812 4.0938-.7812zm-24.5,7.7188c-.505,0-.9449,.15-1.2812,.4688-.3364,.3188-.602,.8397-.8125,1.5938-.2106,.7541-.3536,1.745-.4375,2.9688-.0839,1.2238-.125,2.7227-.125,4.5 0,3.521 .2013,6.0127 .5938,7.4375 .3924,1.4249 1.0808,2.125 2.0625,2.125 .4767,0 .8648-.15 1.1875-.4688 .3227-.3187 .6024-.8709 .8125-1.625 .2101-.7541 .3703-1.745 .4688-2.9688 .0984-1.2238 .125-2.7226 .125-4.5 0-1.7773-.0266-3.2762-.125-4.5-.0984-1.2238-.2586-2.2146-.4688-2.9688-.2101-.7541-.4898-1.275-.8125-1.5938-.3227-.3187-.7108-.4687-1.1875-.4688zm24.5625,.0312c-.5606,0-1.0275,.414-1.4062,1.2188-.3788,.8048-.5625,2.0155-.5625,3.625 0,1.6423 .2073,2.8391 .6562,3.5938 .4489,.7547 1.0931,1.125 1.9062,1.125 .6453,0 1.2138-.0822 1.7188-.25 .0556-.5024 .0967-1.0114 .125-1.5312 .0283-.5198 .0312-1.055 .0312-1.625 0-.8053-.0236-1.5747-.0937-2.3125-.0702-.7377-.2098-1.3988-.4062-1.9688-.1965-.5699-.4415-1.0399-.75-1.375-.3086-.3351-.7138-.5-1.2188-.5zm-92.4375,1.0625c2.2998,0 4.3203,.412 6.0312,1.25 .7566,.3694 1.3841,.824 1.875,1.3438 .4908,.5198 .7187,1.1398 .7188,1.8438 0,.6027-.1465,1.3177-.4688,2.1562-.3223,.8386-.7108,1.6347-1.1875,2.4062-.8422-.7715-1.731-1.3889-2.6562-1.875-.9252-.486-1.859-.75-2.8125-.75-1.206,0-1.8125,.4432-1.8125,1.2812 0,.5362 .2078,.9338 .6562,1.2188 .4485,.285 1.0143,.5177 1.6875,.7188 .6732,.2011 1.4022,.4358 2.1875,.6875 .7853,.2517 1.5143,.6221 2.1875,1.125 .6732,.5029 1.2386,1.1907 1.6875,2.0625 .4489,.8718 .6562,2.0295 .6562,3.4375 0,2.6829-.7903,4.8136-2.375,6.4062-1.5847,1.5927-3.8772,2.375-6.9062,2.375-1.7392,0-3.0949-.15-4.0625-.4688-.9676-.3187-1.7206-.6331-2.2812-.9688-.7292-.4359-1.2509-.9177-1.5312-1.4375-.2803-.5198-.4062-1.0551-.4062-1.625 0-.8718 .1808-1.7245 .5312-2.5625 .3505-.838 .739-1.6645 1.1875-2.4688 .3364,.3684 .7215,.7125 1.1562,1.0312 .4348,.3187 .9013,.6069 1.4062,.875 .505,.2681 1.0297,.4741 1.5625,.625 .5328,.1509 1.0575,.2188 1.5625,.2188 .7292,0 1.2227-.1213 1.5312-.4062 .3085-.285 .4687-.6578 .4688-1.0938 0-.5034-.2245-.9169-.6875-1.2188-.463-.3018-1.0456-.5469-1.7188-.7812-.6732-.2343-1.4057-.5106-2.2188-.8125-.8131-.3019-1.5456-.7302-2.2188-1.25-.6732-.5197-1.2562-1.2075-1.7188-2.0625-.4626-.8549-.6875-1.9685-.6875-3.3438 0-1.3404 .242-2.4941 .7188-3.5 .4767-1.0058 1.1073-1.8461 1.9062-2.5 .799-.6538 1.7122-1.15 2.75-1.4688 1.0378-.3187 2.1309-.4687 3.2812-.4688zm20.7188,0c3.2815,0 5.6147,.77 7.0312,2.3125 1.4165,1.5426 2.125,3.9906 2.125,7.3438v9.8125c0,.838 .0753,1.7605 .1875,2.75 .1121,.9895 .2727,1.856 .4688,2.5938-.3929,.1341-.7544,.2286-1.0625,.3125-.3082,.084-.6114,.1374-.9062,.1875-.2949,.0501-.6153,.1082-.9375,.125-.3223,.0168-.6696,0-1.0625,0-2.2716,0-3.5729-.7695-3.9375-2.3125-.4767,.5699-1.1993,1.0928-2.125,1.5625-.9257,.4697-2.0981,.7188-3.5,.7188-.8696,0-1.7006-.1382-2.5-.4062-.7994-.2681-1.5079-.6944-2.125-1.2812-.6171-.5868-1.1041-1.3568-1.4688-2.3125-.3646-.9557-.5313-2.1248-.5312-3.5 0-1.9441 .4258-3.4995 1.2812-4.6562 .8555-1.1567 1.8737-2.0213 3.0938-2.625 1.2201-.6037 2.5085-.9889 3.8125-1.1562 1.3039-.1673 2.4177-.25 3.3438-.25v-.7188c0-.4697-.0784-.84-.2188-1.125-.1404-.285-.3241-.5053-.5625-.6562-.2384-.1509-.5211-.2624-.8438-.3125-.3227-.0501-.6666-.0625-1.0312-.0625-.9809,0-1.9524,.1506-2.9062,.4688-.9539,.3182-2.0098,.8288-3.1875,1.5-.5332-.7715-.9526-1.5435-1.2188-2.2812-.2662-.7377-.4062-1.2879-.4062-1.6562 0-.5034 .1572-.9852 .4375-1.4375 .2803-.4522 .8492-.934 1.7188-1.4375 .7575-.4696 1.7726-.8256 3.0625-1.0938 1.2898-.2681 2.6224-.4062 3.9688-.4062zm25.9375,0c.8696,0 1.7451,.208 2.6562,.5938 .9111,.3858 1.7566,1.0156 2.5,1.9375 .7433,.922 1.3499,2.1599 1.8125,3.7188 .4626,1.5589 .6875,3.499 .6875,5.8125 0,2.7167-.242,4.9444-.7188,6.6875-.4767,1.7431-1.121,3.1335-1.9062,4.1562-.7853,1.0227-1.6574,1.7393-2.625,2.125-.9676,.3857-1.9246,.5625-2.9062,.5625-.7566,0-1.4218-.097-1.9688-.2812-.5469-.1842-.9963-.4045-1.375-.6562-.3788-.2517-.6961-.4696-.9062-.6875-.2101-.2179-.3155-.3685-.3438-.4688v12.4062h-8.3438v-35c.2525-.0675 .5699-.121 .9062-.1875 .3081-.0675 .6384-.1229 1.0312-.1562 .3929-.0332 .8388-.0625 1.3438-.0625 2.5523,0 4.1299,.7967 4.7188,2.4062 .4767-.7715 1.1445-1.4444 2-2.0312 .8555-.5868 2.0073-.875 3.4375-.875zm-123.5312,.5c.6736,0 1.3067,.0679 1.9375,.2188 .6308,.1509 1.2107,.4273 1.6875,.8125 .4767,.3853 .8618,.9374 1.1562,1.625 .2944,.6876 .4375,1.5527 .4375,2.625v17.8125c0,.7378-.0377,1.6603-.0937,2.75-.056,1.0897-.179,2.0657-.375,2.9375-.309,1.3414-.7926,2.4699-1.4375,3.375-.6449,.905-1.3569,1.6339-2.1562,2.1875-.7994,.5535-1.6244,.9219-2.4375,1.1562-.8131,.2343-1.5049,.375-2.0938,.375-1.206,0-2.0952-.2907-2.6562-.8438-.561-.5531-.929-1.3641-1.125-2.4375-.0847-.4359-.1455-.889-.1875-1.375-.042-.486-.0998-1.162-.1562-2 .8978-.1003 1.6265-.2919 2.1875-.5938 .561-.3019 1.004-.6866 1.3125-1.1562 .3085-.4697 .5129-1.0049 .625-1.625 .1122-.6201 .1875-1.3247 .1875-2.0625v-23.4375c.3364-.0338 .6666-.0585 1.0312-.125 .3081-.0675 .6525-.1229 1.0312-.1562 .3787-.0332 .7604-.0625 1.125-.0625zm119.75,6.6875c-.3372,0-.6165,.0436-.8125,.0937-.196,.0501-.3215,.0912-.4062,.125v10.1562c.1686,.1341 .3584,.2311 .625,.2812 .2666,.0501 .5257,.0625 .75,.0625 .9535,0 1.6182-.5358 1.9688-1.625 .3505-1.0892 .5-2.5064 .5-4.25 0-1.5092-.1838-2.7076-.5625-3.5625-.3788-.8549-1.0534-1.2812-2.0625-1.2812zm-89.375,.2188c-.7683,.11-1.2871,.6199-1.5938,1.5-.3505,1.0059-.5313,2.3814-.5312,4.125 0,.8043 .0411,1.5624 .125,2.25 .0839,.6876 .2269,1.2615 .4375,1.7812 .2105,.5198 .4761,.9482 .8125,1.25 .3364,.3019 .7763,.4375 1.2812,.4375 .3364,0 .5848-.0117 .7812-.0625 .1964-.0506 .3527-.0912 .4375-.125v-10.8125c-.1686-.1341-.3896-.2311-.6562-.2812-.2666-.0501-.5258-.0625-.75-.0625-.1192,0-.234-.0157-.3438,0zm68.5312,6.2813c-.5324,.0676-1.0541,.1785-1.5312,.3125-.4772,.1341-.8995,.3113-1.25,.5625-.3505,.2512-.6024,.5661-.8125,.9688-.2101,.4027-.3438,.9261-.3438,1.5625 0,.7715 .1807,1.3622 .5312,1.7812 .3505,.419 .8516,.6562 1.4688,.6562 .505,0 .9513-.1382 1.3438-.4062 .3924-.2681 .5937-.6815 .5938-1.2188v-4.2188zm89.2812,2.6562c1.1777,0 2.1316,.4264 2.875,1.2812 .7433,.8549 1.125,1.9696 1.125,3.3438 0,1.3752-.3615,2.5176-1.0625,3.4062-.701,.8887-1.6751,1.3125-2.9375,1.3125-1.2342,0-2.2224-.4238-2.9375-1.3125-.7151-.8887-1.0625-2.031-1.0625-3.4062 0-1.3742 .3988-2.4888 1.1562-3.3438 .7575-.8549 1.6943-1.2812 2.8438-1.2812zm-142.6875,22.375c1.1495,0 2.1068,.4259 2.9062,1.2812 .7994,.8555 1.2188,2.027 1.2188,3.4688 0,1.4418-.4194,2.5682-1.2188,3.4062-.7994,.8381-1.7568,1.25-2.9062,1.25-1.1503,0-2.1385-.4119-2.9375-1.25-.799-.838-1.1875-1.9645-1.1875-3.4062 0-1.4417 .3885-2.6133 1.1875-3.4688 .799-.8554 1.7872-1.2812 2.9375-1.2812zm-33,.4688c.5615,0 1.1817,.041 1.8125,.125 .6308,.084 1.2236,.2072 1.8125,.375 1.01,.3019 1.8957,.7401 2.625,1.3438 .7292,.6037 1.0937,1.4851 1.0938,2.625 0,.5024-.1945,1.1764-.5312,2.0312-.3368,.8549-.7489,1.7507-1.2812,2.6562-.4485-.3018-1.0486-.6192-1.75-.9375-.7014-.3182-1.4712-.4687-2.3125-.4688-.7292,0-1.3392,.204-1.8438,.6562-.5046,.4523-.75,1.1832-.75,2.1562v1.1875h6.2188v7.5h-6.2188v16.8125h-8.375v-24.0625c0-.4359 .0174-1.0102 .0312-1.7812 .0137-.771 .0372-1.4053 .0937-1.875 .3646-2.7156 1.3185-4.7934 2.875-6.2188 1.5565-1.4253 3.7235-2.125 6.5-2.125zm50.2812,0c.5615,0 1.1817,.041 1.8125,.125 .6308,.084 1.2236,.2072 1.8125,.375 1.0099,.3019 1.8958,.7401 2.625,1.3438 .7292,.6037 1.0937,1.4851 1.0938,2.625 0,.5024-.1632,1.1764-.5,2.0312-.3368,.8549-.7801,1.7507-1.3125,2.6562-.4485-.3018-1.0174-.6192-1.7188-.9375-.7014-.3182-1.4712-.4687-2.3125-.4688-.7292,0-1.3705,.204-1.875,.6562-.5046,.4523-.75,1.1832-.75,2.1562v1.1875h6.2188v7.5h-6.2188v16.8125h-8.375v-24.0625c0-.4359 .0174-1.0102 .0312-1.7812 .0137-.771 .0372-1.4053 .0937-1.875 .3646-2.7156 1.3186-4.7934 2.875-6.2188 1.5564-1.4253 3.7235-2.125 6.5-2.125zm51.5625,.4062c.6736,0 1.3067,.0679 1.9375,.2188 .6308,.1509 1.1795,.4268 1.6562,.8125 .4767,.3858 .8618,.9062 1.1562,1.5938 .2944,.6877 .4375,1.5839 .4375,2.6562v16.1875c.1404-.7367 .3789-1.4666 .6875-2.1875 .3085-.7208 .7108-1.4512 1.1875-2.1562l2.25-3.4688c.5324-.8042 1.1359-1.4756 1.7812-2.0625 .6453-.5868 1.535-.9062 2.6562-.9062 .6453,0 1.2579,.1259 1.875,.3438 .6171,.218 1.1795,.4507 1.6562,.7188 .5323,.3019 1.0233,.6306 1.5,1l-5.75,9.6562 6.8125,12.4375c-1.8513,.9045-3.5514,1.3438-5.0938,1.3438-1.3181,0-2.3675-.2738-3.125-.8438-.7575-.5699-1.4081-1.3142-1.9688-2.2188l-2.6875-4.4688c-.4767-.7705-.8443-1.4855-1.125-2.1562-.2807-.6707-.5159-1.4432-.6562-2.2812v11.4375h-8.4062v-35.3125c.3364-.0337 .6979-.0896 1.0625-.1562 .3081-.0675 .6525-.1224 1.0312-.1562 .3787-.0337 .7604-.0312 1.125-.0312zm25.125,0c.6736,0 1.3379,.0679 1.9688,.2188 .6308,.1509 1.1795,.4268 1.6562,.8125 .4767,.3858 .8618,.9062 1.1562,1.5938 .2944,.6877 .4375,1.5839 .4375,2.6562v30.1562c-1.1495,.4359-2.1647,.6562-3.0625,.6562-1.2898,0-2.2849-.1624-3-.5312-.7151-.3689-1.2745-.865-1.625-1.4688-.3505-.6037-.5548-1.3059-.625-2.0938-.0702-.7879-.0937-1.6282-.0937-2.5v-29.1562c.3364-.0337 .6666-.0896 1.0312-.1562 .3081-.0675 .6525-.1224 1.0312-.1562 .3787-.0337 .7604-.0312 1.125-.0312zm-109.9061,10.6874c1.7109,0 3.169,.3026 4.375,.9062 1.2059,.6037 2.1941,1.4317 2.9375,2.4375 .7433,1.0059 1.2574,2.1591 1.5938,3.5 .3363,1.341 .5312,2.7745 .5312,4.25 0,.1678 0,.3713 0,.6562 0,.285-.0168,.5731-.0312,.875-.0142,.3019-.0176,.6069-.0312,.875-.0137,.2681-.0342,.4597-.0625,.5938h-11.25c.1404,1.2739 .5426,2.3613 1.1875,3.25 .6449,.8887 1.6635,1.3438 3.0938,1.3438 1.1221,0 2.0867-.2229 2.8438-.625 .757-.4021 1.4925-.9225 2.25-1.5938 .3646,.6712 .7291,1.4407 1.0938,2.3125 .3646,.8718 .5625,1.6423 .5625,2.3125 0,.5699-.1225,1.0908-.375,1.5938-.2525,.5029-.6993,.9991-1.3438,1.4688-.6171,.4359-1.4481,.7919-2.5,1.0938-1.0519,.3019-2.3669,.4688-3.9375,.4688-1.1495,0-2.4002-.1644-3.7188-.5-1.3185-.3356-2.5346-.9967-3.6562-1.9688-1.1216-.9721-2.0379-2.3333-2.7812-4.0938-.7433-1.7605-1.125-4.0565-1.125-6.9062 0-2.113 .3033-3.958 .9062-5.5 .603-1.542 1.3761-2.8066 2.3438-3.8125 .9676-1.0058 2.0954-1.7491 3.3438-2.2188 1.2483-.4697 2.4884-.7187 3.75-.7188zm50.0625,0c3.2815,0 5.646,.8013 7.0625,2.3438 1.4165,1.5426 2.125,3.9594 2.125,7.3125v9.8125c0,.838 .0441,1.7605 .1562,2.75 .1121,.9895 .2727,1.856 .4688,2.5938-.3929,.1341-.7544,.2286-1.0625,.3125-.3082,.084-.5802,.1686-.875,.2188-.2949,.0501-.6153,.0769-.9375,.0937-.3223,.0168-.6696,.0312-1.0625,.0312-2.2716,0-3.6042-.7695-3.9688-2.3125-.4767,.5699-1.1681,1.0928-2.0938,1.5625-.9257,.4697-2.0981,.6875-3.5,.6875-.8696,0-1.7006-.1382-2.5-.4062-.7994-.2681-1.5079-.6944-2.125-1.2812-.6171-.5868-1.1041-1.3568-1.4688-2.3125-.3646-.9557-.5625-2.1248-.5625-3.5 0-1.9441 .4258-3.4682 1.2812-4.625 .8555-1.1567 1.9049-2.0525 3.125-2.6562 1.2201-.6037 2.4773-.9889 3.7812-1.1562 1.3039-.1673 2.4177-.25 3.3438-.25v-.7188c0-.4697-.0784-.84-.2188-1.125-.1404-.285-.3241-.5053-.5625-.6562-.2384-.1509-.5211-.2311-.8438-.2812-.3227-.0501-.6666-.0937-1.0312-.0937-.9809,0-1.9524,.1818-2.9062,.5-.9539,.3182-2.0098,.7975-3.1875,1.4688-.5332-.7715-.9213-1.5122-1.1875-2.25-.2662-.7377-.4062-1.3191-.4062-1.6875 0-.5034 .1259-.954 .4062-1.4062 .2803-.4522 .8804-.934 1.75-1.4375 .7575-.4696 1.7726-.8569 3.0625-1.125 1.2898-.2681 2.5912-.4062 3.9375-.4062zm20.3125,0c2.2998,0 4.289,.4432 6,1.2812 .7566,.3694 1.3841,.7927 1.875,1.3125 .4908,.5198 .75,1.1398 .75,1.8438 0,.6027-.1778,1.3177-.5,2.1562-.3223,.8386-.7108,1.666-1.1875,2.4375-.8422-.7715-1.731-1.4202-2.6562-1.9062-.9252-.486-1.859-.7187-2.8125-.7188-1.206,0-1.8125,.412-1.8125,1.25 0,.5362 .239,.965 .6875,1.25 .4485,.285 1.0143,.5177 1.6875,.7188 .6732,.2011 1.4022,.4358 2.1875,.6875 .7853,.2517 1.5143,.6221 2.1875,1.125 .6732,.5029 1.2073,1.1907 1.6562,2.0625 .4489,.8718 .6875,1.9983 .6875,3.4062 0,2.6829-.7903,4.8136-2.375,6.4062-1.5847,1.5927-3.9085,2.4062-6.9375,2.4062-1.7392,0-3.0949-.15-4.0625-.4688-.9676-.3187-1.7206-.6644-2.2812-1-.7292-.4359-1.2197-.9177-1.5-1.4375-.2803-.5198-.4375-1.0551-.4375-1.625 0-.8718 .1808-1.7245 .5312-2.5625 .3505-.838 .739-1.6645 1.1875-2.4688 .3364,.3684 .7215,.7125 1.1562,1.0312 .4348,.3187 .9325,.6069 1.4375,.875 .505,.2681 .9984,.4741 1.5312,.625 .5328,.1509 1.0575,.25 1.5625,.25 .7292,0 1.2539-.1526 1.5625-.4375 .3085-.285 .4687-.6578 .4688-1.0938 0-.5034-.2245-.8856-.6875-1.1875-.4631-.3018-1.0456-.5782-1.7188-.8125-.6732-.2343-1.4056-.5106-2.2188-.8125-.8131-.3019-1.5768-.699-2.25-1.2188-.6732-.5198-1.2249-1.2076-1.6875-2.0625-.4626-.8549-.6875-1.9685-.6875-3.3438 0-1.3404 .2108-2.5254 .6875-3.5312 .4767-1.0058 1.1385-1.8461 1.9375-2.5 .799-.6538 1.7122-1.1187 2.75-1.4375 1.0378-.3187 2.1309-.5 3.2812-.5zm-55.1875,.5312c.6736,0 1.3067,.0679 1.9375,.2188 .6308,.1509 1.1795,.4273 1.6562,.8125 .4767,.3853 .8618,.9062 1.1562,1.5938 .2944,.6876 .4375,1.5839 .4375,2.6562v17.7812c0,.7378-.006,1.6603-.0625,2.75-.056,1.0897-.179,2.0657-.375,2.9375-.309,1.3414-.7926,2.4699-1.4375,3.375-.6449,.905-1.3569,1.6339-2.1562,2.1875-.7994,.5535-1.6244,.9532-2.4375,1.1875-.8131,.2343-1.5049,.3437-2.0938,.3438-1.206,0-2.0952-.2595-2.6562-.8125-.561-.5531-.929-1.3954-1.125-2.4688-.0847-.4359-.1456-.889-.1875-1.375-.0419-.486-.0998-1.1307-.1562-1.9688 .8978-.1003 1.6265-.3231 2.1875-.625 .561-.3019 1.0039-.6866 1.3125-1.1562 .3086-.4697 .5129-1.0049 .625-1.625 .1122-.6201 .1562-1.2935 .1562-2.0312v-23.4375c.3364-.0338 .6979-.0898 1.0625-.1562 .3081-.0675 .6525-.1229 1.0312-.1562 .3787-.0332 .7604-.0312 1.125-.0312zm-15.2812,5.7812c-1.3189,0-1.9688,1.2112-1.9688,3.625h4.0312c0-1.3742-.1465-2.3239-.4688-2.8438-.3223-.5198-.8645-.7812-1.5938-.7812zm51.4688,7.375c-.5324,.0675-1.0229,.1785-1.5,.3125-.4772,.1341-.8995,.3113-1.25,.5625-.3505,.2512-.6336,.5974-.8438,1-.2101,.4027-.3125,.9261-.3125,1.5625 0,.7715 .1808,1.3622 .5312,1.7812 .3505,.419 .8204,.625 1.4375,.625 .505,0 .9513-.1382 1.3438-.4062 .3924-.2681 .5938-.6815 .5938-1.2188v-4.2188z"/>
</g>
<g stroke="#fff" stroke-linejoin="round" stroke-linecap="round" stroke-width="12.945">
<path opacity=".75" d="m129.8662,448.6745h327.2409l18.2581,25.2804h-363.5371l18.0381-25.2804z"/>
<path opacity=".75" d="m107.6082,542.2048h371.7571v-43.5385h-371.5371l-.22,43.5385z"/>
</g>
</g>
</svg>
