<svg xmlns="http://www.w3.org/2000/svg" viewBox="0 0 580 580">
<path fill="#111" stroke="#eee" stroke-width="3.408" d="m66.275,1.768c-41.335,0-64.571,21.371-64.571,65.036v450.123c0,40.844 20.894,62.229 62.192,62.229h452.024c41.307,0 62.229-20.316 62.229-62.229v-450.123c0-42.601-20.922-65.036-63.522-65.036-.003,0-448.494-.143-448.352,0z"/>
<g stroke="#fff" stroke-linecap="round">
<g fill="none">
<g stroke-width="80">
<path d="m96.3744,94.4151 60.5636,60.5637"/>
<path d="m479.8548,94.4151-60.5636,60.5637"/>
<path d="m96.3744,475.5481 60.5636-60.5637"/>
<path d="m479.8548,475.5481-60.5636-60.5637"/>
</g>
<g>
<path stroke-linejoin="round" stroke-width="15.981" d="m88,1083.5a45.5,45.5 0 1,1 -91,0 45.5,45.5 0 1,1 91,0z" transform="matrix(3.7544 0 0 3.7544 129.09096 -3785.1688)"/>
</g>
<g stroke-width="80">
<path d="m491.9453,288.672-22.2254,0"/>
<path d="m109.9453,288.672-22.2254,0"/>
<path d="m290.8326,463.5593 0,22.2254"/>
<path d="m290.8326,79.5593 0,22.2254"/>
</g>
</g>
<g>
<path opacity=".1" fill="#fff" stroke-linejoin="round" stroke-width="15.981" d="m88,1083.5a45.5,45.5 0 1,1 -91,0 45.5,45.5 0 1,1 91,0z" transform="matrix(3.7544 0 0 3.7544 129.09096 -3785.1688)"/>
</g>
</g>
</svg>
