<svg xmlns="http://www.w3.org/2000/svg" viewBox="0 0 580 580">
<path fill="#111" stroke="#eee" stroke-width="3.408" d="m66.275,1.768c-41.335,0-64.571,21.371-64.571,65.036v450.123c0,40.844 20.894,62.229 62.192,62.229h452.024c41.307,0 62.229-20.316 62.229-62.229v-450.123c0-42.601-20.922-65.036-63.522-65.036-.003,0-448.494-.143-448.352,0z"/>
<g fill="#fff" stroke="#fff" stroke-linejoin="round" stroke-linecap="round" stroke-width="20">
<path d="m383.0006,74.9234-51.5938,45.2188 69.75,68.9062c-26.0003,28.2141-52.1807,56.3028-78.4062,84.3438 5.9843,5.5813 11.9594,11.162 17.9375,16.75 25.5677-28.7606 51.2008-57.4803 76.9688-86.0312 5.3748-3.8284 35.909,25.484 39.5938,31l84.5938,44.5938c-4.6559-3.3278-42.7734-96.0063-48.7812-101.25-9.2805-8.1354-20.1256-17.8048-31.4375-28.0312l17.9062-17.4375-13.7812-11.6562-17.375,17.0625c-24.4115-22.3689-49.3459-46.1323-65.375-63.4688zm-135.125,278.5313c-4.2386,4.5439-8.4852,9.0771-12.7188,13.625l-123.25,131.8438 23.7812,21.6875 119.9688-134.8438c3.9575-4.4296 7.8906-8.8786 11.8437-13.3125-6.5426-6.3324-13.0762-12.674-19.625-19z"/>
<path d="m116.0094,151.663c-28.4531,28.8637-47.5641,65.6672-71.4458,98.3677l52.8233,38.5282 57.166-82.389c6.869-3.612 11.3378,5.2785 15.4893,9.246 57.5835,57.0998 114.4975,115.0101 171.8214,172.4279l127.2514,127.9882 22.5449-22.9731-130.3596-124.821c-58.4861-56.2336-117.4569-112.048-175.63-168.547-4.0449-4.0761-13.0178-8.3769-9.5357-15.3126l81.299-58.706-39.5152-52.0891c-35.2385,24.7077-71.0647,48.0612-101.9091,78.2799z"/>
</g>
</svg>
