<svg xmlns="http://www.w3.org/2000/svg" viewBox="0 0 580 580">
<path fill="#111" stroke="#eee" stroke-width="3.408" d="m66.275,1.768c-41.335,0-64.571,21.371-64.571,65.036v450.123c0,40.844 20.894,62.229 62.192,62.229h452.024c41.307,0 62.229-20.316 62.229-62.229v-450.123c0-42.601-20.922-65.036-63.522-65.036-.003,0-448.494-.143-448.352,0z"/>
<g stroke="#fff" stroke-linejoin="round" stroke-linecap="round" stroke-width="10">
<g fill="#fff">
<path opacity=".1" d="m376.5,54.875c-10.9724,6.5028-19.3173,16.7355-29.4478,24.509-8.9376,8.0813-19.2563,15.5024-26.5675,25.1232-.1948,8.9594 9.9523,12.6913 14.5628,19.1486 17.3696,17.1668 34.7392,34.3336 52.1088,51.5004-24.8009,27.0837-50.3245,53.6046-74.9375,80.8125-2.6184,8.1561 6.5647,12.424 11.0625,17.1562 3.7272,5.4915 12.6352,11.9339 18.3125,5.2812 23.5524-27.8556 48.3435-55.0515 73-81.9062 15.9393,7.8159 25.1136,24.1555 40.2348,33.0359 27.0413,13.7518 53.4785,29.0633 80.8902,41.8391 6.2239,.4881 7.8301-8.2332 3.75-11.7812-16.9416-31.9797-28.6299-66.6368-46.6562-98.0938-9.0796-8.802-18.909-17.0031-28.2188-25.4688 5.3212-5.6901 14.0513-10.2897 15-18.6562-5.3953-6.5649-12.0162-13.8816-20.5-15.7188-6.9805,2.8682-10.9747,9.6712-16.5,14.4062-21.2811-19.6948-42.0501-39.7278-62.4375-60.4375-1.1247-.5755-2.3826-.9192-3.6562-.75zm-136.1562,279.2188c-9.2108,5.9141-14.9291,15.7697-23.0206,23.0126-38.5853,41.5113-77.6797,82.6517-115.9482,124.3937-2.599,8.7683 7.619,12.8569 12.3438,18.0312 5.7469,4.3521 10.4712,13.3315 18.5938,12.25 24.4926-24.7598 46.4178-51.936 70.0196-77.4893 21.4413-24.4273 43.664-48.3462 64.5429-73.1357 1.9559-9.1742-8.6368-13.2859-13.4062-19-3.4043-3.684-7.2342-9.6175-13.125-8.0625z"/>
<path opacity=".1" d="m211.8125,53.2812c-14.636,7.7959-27.3007,18.7557-41.2522,27.7362-38.3713,26.7483-75.2545,57.1115-100.1228,97.3263-12.3054,18.7643-25.2675,37.3322-37.0312,56.3125 .7398,9.5112 11.7642,11.3977 17.3922,17.2665 13.5159,9.0604 25.8597,21.0101 40.6361,27.9352 9.1312-2.1829 11.2257-13.0881 17.1719-19.2453 14.7812-20.8869 28.8487-42.437 44.081-62.8939 5.1425,3.3885 7.5469,9.6205 12.8401,13.1213 98.2233,98.0407 195.7682,196.7572 293.7224,295.0662 7.5532,4.1125 13.1717-4.6306 17.4688-9.4062 4.9577-6.1101 14.2482-10.502 14.8586-19.0032-12.3219-14.9344-27.5853-27.8424-41.5642-41.4934-91.1638-87.246-182.5973-175.0645-273.9819-262.2534-.2652-2.0509 4.5412-2.3269 5.4432-4.2938 24.8467-18.4514 50.8696-35.6307 74.9608-54.9094 2.8989-9.0043-7.1337-14.2399-10.8409-21.171-10.7853-13.1675-19.4205-28.5304-32.0944-39.9695-.5433-.1519-1.1274-.1972-1.6875-.125z"/>
</g>
<g fill="none">
<path d="m211.8125,53.2812c-14.636,7.7959-27.3007,18.7557-41.2522,27.7362-38.3713,26.7483-75.2545,57.1115-100.1228,97.3263-12.3054,18.7643-25.2675,37.3322-37.0312,56.3125 .7398,9.5112 11.7642,11.3977 17.3922,17.2665 13.5159,9.0604 25.8597,21.0101 40.6361,27.9352 9.1312-2.1829 11.2257-13.0881 17.1719-19.2453 14.7812-20.8869 28.8487-42.437 44.081-62.8939 5.1425,3.3885 7.5469,9.6205 12.8401,13.1213 98.2233,98.0407 195.7682,196.7572 293.7224,295.0662 7.5532,4.1125 13.1717-4.6306 17.4688-9.4062 4.9577-6.1101 14.2482-10.502 14.8586-19.0032-12.3219-14.9344-27.5853-27.8424-41.5642-41.4934-91.1638-87.246-182.5973-175.0645-273.9819-262.2534-.2652-2.0509 4.5412-2.3269 5.4432-4.2938 24.8467-18.4514 50.8696-35.6307 74.9608-54.9094 2.8989-9.0043-7.1337-14.2399-10.8409-21.171-10.7853-13.1675-19.4205-28.5304-32.0944-39.9695-.5433-.1519-1.1274-.1972-1.6875-.125z"/>
<path d="m376.5,54.875c-10.9724,6.5028-19.3173,16.7355-29.4478,24.509-8.9376,8.0813-19.2563,15.5024-26.5675,25.1232-.1948,8.9594 9.9523,12.6913 14.5628,19.1486 17.3696,17.1668 34.7392,34.3336 52.1088,51.5004-24.8009,27.0837-50.3245,53.6046-74.9375,80.8125-2.6184,8.1561 6.5647,12.424 11.0625,17.1562 3.7272,5.4915 12.6352,11.9339 18.3125,5.2812 23.5524-27.8556 48.3435-55.0515 73-81.9062 15.9393,7.8159 25.1136,24.1555 40.2348,33.0359 27.0413,13.7518 53.4785,29.0633 80.8902,41.8391 6.2239,.4881 7.8301-8.2332 3.75-11.7812-16.9416-31.9797-28.6299-66.6368-46.6562-98.0938-9.0796-8.802-18.909-17.0031-28.2188-25.4688 5.3212-5.6901 14.0513-10.2897 15-18.6562-5.3953-6.5649-12.0162-13.8816-20.5-15.7188-6.9805,2.8682-10.9747,9.6712-16.5,14.4062-21.2811-19.6948-42.0501-39.7278-62.4375-60.4375-1.1247-.5755-2.3826-.9192-3.6562-.75zm-136.1562,279.2188c-9.2108,5.9141-14.9291,15.7697-23.0206,23.0126-38.5853,41.5113-77.6797,82.6517-115.9482,124.3937-2.599,8.7683 7.619,12.8569 12.3438,18.0312 5.7469,4.3521 10.4712,13.3315 18.5938,12.25 24.4926-24.7598 46.4178-51.936 70.0196-77.4893 21.4413-24.4273 43.664-48.3462 64.5429-73.1357 1.9559-9.1742-8.6368-13.2859-13.4062-19-3.4043-3.684-7.2342-9.6175-13.125-8.0625z"/>
</g>
</g>
</svg>
