<svg xmlns="http://www.w3.org/2000/svg" viewBox="0 0 580 580">
<path fill="#111" stroke="#eee" stroke-width="3.408" d="m66.275,1.768c-41.335,0-64.571,21.371-64.571,65.036v450.123c0,40.844 20.895,62.229 62.192,62.229h452.024c41.307,0 62.229-20.315 62.229-62.229v-450.123c0-42.601-20.922-65.036-63.521-65.036-.004,0-448.495-.143-448.353,0z"/>
<g fill="#fff" fill-rule="evenodd">
<path d="m119.5749,340.9671 72.1486-73.3782-.3314-42.8298-53.1072,51.9294c-1.7615-83.0656 69.7638-152.8311 136.9428-161.804l-5.9517-35.9415c-117.9541,23.3475-165.4555,115.5585-167.725,197.4413l-53.612-52.123-.244,44.5392 71.8798,72.1664z"/>
<path d="m450.5179,406.5485-99.7253-25.3897-36.8378,21.8513 71.6063,19.7376c-70.8811,43.3458-167.1713,16.6756-208.7488-36.8488l-28.0565,23.2389c79.5624,90.156 183.1492,84.7682 255.0381,45.5008l-18.0401,72.5645 38.6044-22.2149 26.1595-98.4397z"/>
<path d="m341.5106,88.0909 28.1143,98.9917 37.3933,20.8864-18.8839-71.8362c73.075,39.5352 98.3572,136.199 72.9445,199.0301l34.1843,12.5954c38.0201-114.0734-18.6498-200.9514-88.7038-243.4058l71.8125-20.833-38.5948-22.2316-98.2664,26.803z"/>
</g>
</svg>
