<svg xmlns="http://www.w3.org/2000/svg" viewBox="0 0 580 580">
<path fill="#111" stroke="#eee" stroke-width="3.408" d="m66.275,1.768c-41.335,0-64.571,21.371-64.571,65.036v450.123c0,40.844 20.895,62.229 62.192,62.229h452.024c41.307,0 62.229-20.315 62.229-62.229v-450.123c0-42.601-20.922-65.036-63.521-65.036-.004,0-448.495-.143-448.353,0z"/>
<g stroke="#fff" stroke-width="4.833" transform="matrix(1.00842 .23066 -.23066 1.00842 59.65499 -88.72619)">
<path fill="#fff" d="m211.8501,83.5152c-11.0196,.555-19.7276,9.6193-19.7276,20.7815v416.9146c0,11.5223 9.2921,20.8144 20.8144,20.8144h167.3389c11.5223,0 20.7815-9.2921 20.7815-20.8144v-416.9146c0-11.5223-9.2592-20.7815-20.7815-20.7815h-167.3389c-.3601,0-.7314-.0179-1.0868,0zm17.8833,25.7875h133.713c9.8604,0 17.8174,7.957 17.8174,17.8174v178.0425c0,9.8604-7.957,17.8174-17.8174,17.8174h-133.713c-9.8604,0-17.7845-7.957-17.7845-17.8174v-178.0425c0-9.8604 7.9241-17.8174 17.7845-17.8174zm-6.7845,242.396h23.4163c6.3247,0 11.4282,5.0705 11.4282,11.3952v22.1318c0,6.3247-5.1034,11.3952-11.4282,11.3952h-23.4163c-6.3247,0-11.4282-5.0705-11.4282-11.3952v-22.1318c0-6.3247 5.1034-11.3952 11.4282-11.3952zm61.4553,0h23.4162c6.3248,0 11.3953,5.0705 11.3953,11.3952v22.1318c0,6.3247-5.0705,11.3952-11.3953,11.3952h-23.4162c-6.3247,0-11.4282-5.0705-11.4282-11.3952v-22.1318c0-6.3247 5.1034-11.3952 11.4282-11.3952zm61.4224,0h23.4492c6.3247,0 11.3952,5.0705 11.3952,11.3952v22.1318c0,6.3247-5.0705,11.3952-11.3952,11.3952h-23.4492c-6.3247,0-11.3952-5.0705-11.3952-11.3952v-22.1318c0-6.3247 5.0705-11.3952 11.3952-11.3952zm-122.8777,61.4882h23.4163c6.3247,0 11.4282,5.1034 11.4282,11.4282v22.0989c0,6.3247-5.1034,11.4282-11.4282,11.4282h-23.4163c-6.3247,0-11.4282-5.1034-11.4282-11.4282v-22.0989c0-6.3247 5.1034-11.4282 11.4282-11.4282zm61.4553,0h23.4162c6.3248,0 11.3953,5.1034 11.3953,11.4282v22.0989c0,6.3247-5.0705,11.4282-11.3953,11.4282h-23.4162c-6.3247,0-11.4282-5.1034-11.4282-11.4282v-22.0989c0-6.3247 5.1034-11.4282 11.4282-11.4282zm61.4224,0h23.4492c6.3247,0 11.3952,5.1034 11.3952,11.4282v22.0989c0,6.3247-5.0705,11.4282-11.3952,11.4282h-23.4492c-6.3247,0-11.3952-5.1034-11.3952-11.4282v-22.0989c0-6.3247 5.0705-11.4282 11.3952-11.4282zm-122.8777,61.5212h23.4163c6.3247,0 11.4282,5.0705 11.4282,11.3953v22.1318c0,6.3247-5.1034,11.3953-11.4282,11.3953h-23.4163c-6.3247,0-11.4282-5.0705-11.4282-11.3953v-22.1318c0-6.3248 5.1034-11.3953 11.4282-11.3953zm61.4553,0h23.4162c6.3248,0 11.3953,5.0705 11.3953,11.3953v22.1318c0,6.3247-5.0705,11.3953-11.3953,11.3953h-23.4162c-6.3247,0-11.4282-5.0705-11.4282-11.3953v-22.1318c0-6.3248 5.1034-11.3953 11.4282-11.3953zm61.4224,0h23.4492c6.3247,0 11.3952,5.0705 11.3952,11.3953v22.1318c0,6.3247-5.0705,11.3953-11.3952,11.3953h-23.4492c-6.3247,0-11.3952-5.0705-11.3952-11.3953v-22.1318c0-6.3248 5.0705-11.3953 11.3952-11.3953z"/>
<path fill="#fff" d="m350.621,32.8416h24.211a6.8952,6.8952 0 0,1 6.895,6.8952v45.5346a6.8952,6.8952 0 0,1 -6.895,6.8952h-24.211a6.8952,6.8952 0 0,1 -6.895-6.8952v-45.5346a6.8952,6.8952 0 0,1 6.895-6.8952"/>
<path opacity=".2" fill="#fff" d="m192.1225,331.0161v190.1953c0,11.5223 9.2922,20.8144 20.8144,20.8144h167.3389c11.5223,0 20.7815-9.2921 20.7815-20.8144v-190.1953h-208.9348z"/>
<path opacity=".2" fill="#fff" d="m211.8501,83.5152c-11.0196,.555-19.7276,9.6193-19.7276,20.7815v223.1624h208.9348v-223.1624c0-11.5223-9.2592-20.7815-20.7815-20.7815h-167.3389c-.3601,0-.7314-.0179-1.0868,0z"/>
</g>
</svg>
