<svg xmlns="http://www.w3.org/2000/svg" viewBox="0 0 580 580">
<path fill="#111" stroke="#eee" stroke-width="3.408" d="m66.275,1.768c-41.335,0-64.571,21.371-64.571,65.036v450.123c0,40.844 20.895,62.229 62.192,62.229h452.024c41.307,0 62.229-20.315 62.229-62.229v-450.123c0-42.601-20.922-65.036-63.521-65.036-.004,0-448.495-.143-448.353,0z"/>
<g fill="#fff" fill-rule="evenodd">
<g stroke="#fff">
<path stroke-width="18.023" d="m35.8449,509.6217l504.9043,.0072m-487.1956-36.1251l469.2336,.0267m-451.1717-35.9783l433.1129-.0607"/>
<path stroke-width="36.045" d="m71.7563,212.2689l433.1129-.0607m-396.4473,5.3313l.0313,222.8165m72.0594-222.8165l.0312,222.8165m72.0594-222.8165l.0312,222.8165m72.0594-222.8165l.0313,222.8165m72.0594-222.8165l.0312,222.8165m72.0594-222.8165l.0312,222.8165"/>
</g>
<g>
<path d="m71.9743,176.8669v-32.9636l214.1878-90.8279 216.4043,88.8326v32.9649l-218.376-84.3331-212.2161,86.3271zm58.5742-1.5185l157.2743-62.9107 152.9713,64.6003-61.9592-.2816-91.5294-32.4064-91.2688,30.3517-65.4883,.6467z"/>
</g>
</g>
</svg>
