<svg xmlns="http://www.w3.org/2000/svg" viewBox="0 0 580 580">
<path fill="#111" stroke="#eee" stroke-width="3.408" d="m66.275,1.768c-41.335,0-64.571,21.371-64.571,65.036v450.123c0,40.844 20.895,62.229 62.192,62.229h452.024c41.307,0 62.229-20.315 62.229-62.229v-450.123c0-42.601-20.922-65.036-63.521-65.036-.004,0-448.495-.143-448.353,0z"/>
<g stroke="#fff" stroke-linejoin="round" stroke-linecap="round">
<g fill-rule="evenodd">
<path fill="#fff" stroke-width="5" d="m305.6412,68.9545c-1.5212,0-3.1569,.1129-4.7903,.2566v82.1203c1.6334-.1437 3.2692-.2566 4.7903-.2566 22.6195,0 48.9543,16.7401 75.9613,22.5831v-82.1203c-27.007-5.8429-53.3418-22.5831-75.9613-22.5831z"/>
<path fill="none" stroke-width="10" d="m130.4512,68.6123l1.7474,246.1524c.1111,15.6487 47.0336,36.1363 69.4236,36.1363 30.1108,0 76.6456-24.6361 104.0191-24.6361 27.3734,0 60.2216,24.6361 93.0697,24.6361 32.8481,0 71.171-19.1614 71.171-19.1614v-257.3104c0,0-38.3228,19.1614-71.171,19.1614-32.8481,0-65.6963-24.6361-93.0697-24.6361-27.3734,0-73.9083,24.6361-104.0191,24.6361-30.1108,0-71.171-24.9783-71.171-24.9783z"/>
</g>
<g fill="#fff">
<g stroke-width="5">
<g fill-rule="evenodd">
<path d="m467.8289,162.9652c-5.318,2.5649-38.8609,18.2204-69.1179,18.2204-3.8779,0-7.7648-.3353-11.6337-.941v82.1203c3.8689,.6056 7.7558,.941 11.6337,.941 30.257,0 63.7999-15.6556 69.1179-18.2204v-82.1203z"/>
<path d="m305.6412,244.1445c-1.5212,0-3.1569,.1129-4.7903,.2566v82.1203c1.6334-.1437 3.2692-.2566 4.7903-.2566 22.6195,0 48.9543,16.7401 75.9613,22.5831v-82.1203c-27.007-5.8429-53.3418-22.5831-75.9613-22.5831z"/>
</g>
<g>
<path d="m130.4512,243.8024l1.7108,70.9999c.3852,15.6444 47.0701,36.0987 69.4601,36.0987 2.8245,0 5.8122-.2914 8.8964-.6843v-82.1203c-3.0842,.3929-6.0719,.6843-8.8964,.6843-30.1108,0-71.171-24.9783-71.171-24.9783z"/>
<path d="m296.0605,157.4049c-23.3378,3.5689-55.208,17.9224-80.7517,22.412v82.1203c25.5436-4.4896 57.4139-18.8431 80.7517-22.412v-82.1203z"/>
<path d="m130.4512,68.6123l1.7108,70.9999c.3852,15.6444 47.0701,36.0987 69.4601,36.0987 2.8245,0 5.8122-.2914 8.8964-.6843v-82.1203c-3.0842,.3929-6.0719,.6843-8.8964,.6843-30.1108,0-71.171-24.9783-71.171-24.9783z"/>
</g>
</g>
<g>
<path fill-rule="evenodd" stroke-width="10" d="m116.4994,529.8813v-463.2955h14.6361v463.2955h-14.6361z"/>
</g>
</g>
</g>
</svg>
