<svg xmlns="http://www.w3.org/2000/svg" viewBox="0 0 580 580">
<path fill="#111" stroke="#eee" stroke-width="3.408" d="m66.275,1.768c-41.335,0-64.571,21.371-64.571,65.036v450.123c0,40.844 20.895,62.229 62.192,62.229h452.024c41.307,0 62.229-20.315 62.229-62.229v-450.123c0-42.601-20.922-65.036-63.521-65.036-.004,0-448.495-.143-448.353,0z"/>
<g fill="#fff">
<g fill-rule="evenodd">
<g>
<path d="m23.1599,470.4664l534.4825-.9291-29.084-50.375h-474.3533l-31.0452,51.3041z"/>
</g>
<g stroke="#fff" stroke-width="48.487">
<path d="m101.3512,425.1164v-219.6369"/>
<path d="m223.9554,425.1164v-219.6369"/>
<path d="m354.9248,425.1164v-219.6369"/>
<path d="m477.5291,425.1164v-219.6369"/>
</g>
<g>
<path d="m24.453,148.9176h533.4425l-264.2163-89.6062-269.2262,89.6062z"/>
</g>
</g>
<g>
<path stroke="#fff" stroke-linecap="square" stroke-width="29.523" d="m42.8741,148.995h496.4109v44.067h-496.4109z"/>
</g>
</g>
</svg>
