<svg xmlns="http://www.w3.org/2000/svg" viewBox="0 0 580 580">
<path fill="#111" stroke="#eee" stroke-width="3.408" d="m66.275,1.768c-41.335,0-64.571,21.371-64.571,65.036v450.123c0,40.844 20.894,62.229 62.192,62.229h452.024c41.307,0 62.229-20.316 62.229-62.229v-450.123c0-42.601-20.922-65.036-63.522-65.036-.003,0-448.494-.143-448.352,0z"/>
<g fill="#fff" fill-rule="evenodd">
<path opacity=".03" d="m43.2256,125.0437c-.3216,99.4515-.309,324.2643-.309,324.2643 0,14.1403 9.0817,25.5234 20.394,25.5234h418.6019c.707,0 1.4133-.0368 2.1012-.1236h37.0182c11.2435,0 20.2704-10.5752 20.2704-23.7003v-301.2747l-40.2704,.4017 1.9776,292.0665c.2811,14.4913-19.1755,15.5161-20.6721,2.4102l20.7416-318.8568z"/>
<path opacity=".75" stroke="#e5d2d2" stroke-width=".989" d="m31.2188,125.0312c-.3216,99.4515-.3125,313.3911-.3125,324.2812 0,14.1403 9.094,25.5312 20.4062,25.5312h430.5938c.707,0 1.4059-.0382 2.0938-.125h51.0312c11.2435,0 20.2812-10.5937 20.2812-23.7188v-301.2812l-20.2812,.4062 1.9688,290.0625c.2811,14.4913-25.1596,15.5434-26.6562,2.4375l.75-316.875-479.875-.7188zm83.9688,27.5625h6.3438v10.5938c.9517-1.1515 1.962-2.022 3.0312-2.5625 1.0692-.5522 2.2075-.8125 3.5-.8125 2.2795,0 4.0437,.6955 5.2188,2.0938 1.1867,1.3983 1.7812,3.4265 1.7812,6.0938v12h-6.375v-1.9375-7.1875c0-1.7273-.0427-2.9475-.125-3.5938-.0705-.6462-.187-1.1007-.375-1.4062-.2468-.4112-.577-.7455-1-.9688-.423-.235-.897-.3437-1.4375-.3438-1.316,0-2.373,.5402-3.125,1.5625-.752,1.0105-1.0938,2.3897-1.0938,4.1875v9.6875h-6.3438v-27.4062zm116.4062,0h6.3438v14.9375l7.25-7.25h7.3125l-9.625,9.0625 10.375,10.6562h-7.625l-7.6875-8.2188v8.2188h-6.3438v-27.4062zm134.875,0h6.3125v5.1562h-6.3125v-5.1562zm-278.7188,1.125h24.25v5.125h-8.75v21.1562h-6.75v-21.1562h-8.75v-5.125zm97.0938,0h8.0938l9.7188,26.2812h-6.7812l-1.6875-4.7812h-10.5938l-1.6875,4.7812h-6.8125l9.75-26.2812zm154.1562,0h24.25v5.125h-8.7188v21.1562h-6.7812v-21.1562h-8.75v-5.125zm-188.5938,6.0938c3.102,0 5.581,.9442 7.4375,2.8125 1.8683,1.8683 2.8125,4.3432 2.8125,7.4688v1.7812h-14.75c.1527,1.4805 .646,2.6035 1.5625,3.3438 .9165,.7403 2.23,1.125 3.875,1.125 1.3278,0 2.7072-.206 4.0938-.5938 1.3982-.3995 2.8125-.9822 4.2812-1.7812v4.8438c-1.4923,.564-2.9765,.9992-4.4688,1.2812-1.4923,.2937-3.0077,.4375-4.5,.4375-3.572,0-6.358-.9092-8.3438-2.7188-1.974-1.8213-2.9688-4.3779-2.9688-7.6562 0-3.2195 .9675-5.7177 2.9062-7.5625 1.9505-1.8448 4.655-2.7812 8.0625-2.7812zm68.375,0c2.2795,0 3.9812,.6955 5.1562,2.0938 1.1867,1.3983 1.7812,3.4265 1.7812,6.0938v12h-6.3438v-1.9375-7.25c0-1.7038-.0427-2.885-.125-3.5312-.0705-.6462-.187-1.1007-.375-1.4062-.2468-.4112-.6083-.7455-1.0312-.9688-.423-.235-.897-.3437-1.4375-.3438-1.316,0-2.3418,.5402-3.0938,1.5625-.752,1.0105-1.125,2.3897-1.125,4.1875v9.6875h-6.3125v-19.7188h6.3125v2.9062c.9518-1.1515 1.962-2.022 3.0312-2.5625 1.0693-.5522 2.27-.8125 3.5625-.8125zm45.3438,0c3.102,0 5.5497,.9442 7.4062,2.8125 1.8683,1.8683 2.8125,4.3432 2.8125,7.4688v1.7812h-14.7188c.1528,1.4805 .6772,2.6035 1.5938,3.3438 .9165,.7403 2.1987,1.125 3.8438,1.125 1.3277,0 2.676-.206 4.0625-.5938 1.3983-.3995 2.8437-.9822 4.3125-1.7812v4.8438c-1.4923,.564-3.0077,.9992-4.5,1.2812-1.4923,.2937-2.9765,.4375-4.4688,.4375-3.572,0-6.358-.9092-8.3438-2.7188-1.974-1.8213-2.9375-4.3779-2.9375-7.6562 0-3.2195 .9675-5.7177 2.9062-7.5625 1.9505-1.8448 4.6237-2.7812 8.0312-2.7812zm24.4375,0c3.102,0 5.6122,.9442 7.4688,2.8125 1.8682,1.8683 2.8125,4.3432 2.8125,7.4688v1.7812h-14.7812c.1527,1.4805 .6772,2.6035 1.5938,3.3438 .9165,.7403 2.23,1.125 3.875,1.125 1.3278,0 2.6447-.206 4.0312-.5938 1.3982-.3995 2.875-.9822 4.3438-1.7812v4.8438c-1.4923,.564-2.9765,.9992-4.4688,1.2812-1.4923,.2937-3.0077,.4375-4.5,.4375-3.5721,0-6.358-.9092-8.3438-2.7188-1.974-1.8213-2.9688-4.3779-2.9688-7.6562 0-3.2195 .9675-5.7177 2.9062-7.5625 1.9505-1.8448 4.6237-2.7812 8.0312-2.7812zm27.9062,0c2.2795,0 4.0125,.6955 5.1875,2.0938 1.1867,1.3983 1.7812,3.4265 1.7812,6.0938v12h-6.3438v-1.9375-7.25c0-1.7038-.0427-2.885-.125-3.5312-.0705-.6462-.2183-1.1007-.4062-1.4062-.2468-.4112-.577-.7455-1-.9688-.423-.235-.897-.3437-1.4375-.3438-1.316,0-2.3417,.5402-3.0938,1.5625-.752,1.0105-1.125,2.3897-1.125,4.1875v9.6875h-6.3125v-19.7188h6.3125v2.9062c.9517-1.1515 1.9307-2.022 3-2.5625 1.0693-.5522 2.27-.8125 3.5625-.8125zm74.7188,0c1.363,0 2.5792,.3108 3.625,.9688 1.0457,.658 1.8345,1.5633 2.375,2.75 .799-1.222 1.751-2.1467 2.8438-2.7812 1.1045-.6462 2.309-.9375 3.625-.9375 2.2677,0 4.0007,.6955 5.1875,2.0938 1.1867,1.3983 1.75,3.4265 1.75,6.0938v12h-6.3438v-10.2812c.0118-.1527 .0312-.3042 .0312-.4688 .0117-.1645 0-.382 0-.6875 0-1.3983-.1825-2.4085-.5938-3.0312-.4113-.6345-1.0835-.9687-2-.9688-1.1985,0-2.1233,.513-2.7812,1.5-.6463,.987-.9765,2.413-1,4.2812v9.6562h-6.3438v-10.2812c0-2.1855-.2178-3.5647-.5938-4.1875-.376-.6345-1.0365-.9687-2-.9688-1.2103,0-2.1232,.5012-2.7812,1.5-.658,.987-1,2.4052-1,4.25v9.6875h-6.3438v-19.7188h6.3438v2.9062c.7755-1.1162 1.6575-1.9985 2.6562-2.5625 1.0105-.564 2.1335-.8125 3.3438-.8125zm34.7812,0c3.102,0 5.6122,.9442 7.4688,2.8125 1.8683,1.8683 2.8125,4.3432 2.8125,7.4688v1.7812h-14.7812c.1527,1.4805 .7085,2.6035 1.625,3.3438 .9165,.7403 2.1987,1.125 3.8438,1.125 1.3277,0 2.676-.206 4.0625-.5938 1.3982-.3995 2.8125-.9822 4.2812-1.7812v4.8438c-1.4923,.564-2.9452,.9992-4.4375,1.2812-1.4923,.2937-3.0077,.4375-4.5,.4375-3.5721,0-6.358-.9092-8.3438-2.7188-1.974-1.8213-2.9688-4.3779-2.9688-7.6562 0-3.2195 .9675-5.7177 2.9062-7.5625 1.9505-1.8448 4.6237-2.7812 8.0312-2.7812zm22.5938,0c1.1633,0 2.4067,.105 3.6875,.2812 1.2808,.1763 2.6522,.4053 4.1562,.7812v4.8438c-1.3513-.564-2.649-1.0305-3.9062-1.3125-1.2573-.282-2.4463-.4062-3.5625-.4062-1.1985,0-2.1,.1633-2.6875,.4688-.5758,.2938-.875,.7523-.875,1.375 0,.5053 .2215,.886 .6562,1.1562 .4465,.2703 1.2352,.4645 2.375,.5938l1.125,.1562c3.2313,.4113 5.415,1.0913 6.5312,2.0312 1.1162,.94 1.6875,2.4282 1.6875,4.4375 0,2.1033-.7928,3.6612-2.3438,4.7188-1.551,1.0575-3.859,1.5938-6.9375,1.5938-1.3043,0-2.6642-.101-4.0625-.3125-1.3865-.1998-2.8125-.495-4.2812-.9062v-4.8125c1.2573,.611 2.559,1.0695 3.875,1.375 1.3278,.3055 2.637,.4688 4,.4688 1.2338,0 2.1585-.1905 2.7812-.5312 .6227-.3408 .9687-.8302 .9688-1.5 0-.564-.2215-.9797-.6562-1.25-.423-.282-1.2817-.5035-2.5625-.6562l-1.0938-.1562c-2.8083-.3525-4.7782-.9857-5.9062-1.9375-1.128-.9518-1.7188-2.3737-1.7188-4.3125 0-2.0915 .754-3.677 2.1875-4.6875 1.4335-1.0105 3.6014-1.5 6.5625-1.5zm-259.6875,.0625l-3.5938,10.4688h7.2188l-3.625-10.4688zm177.5938,.4062h6.3125v19.7188h-6.3125v-19.7188zm-216.125,3.7188c-1.222,0-2.205,.338-2.9688,1.0312-.7638,.6815-1.2183,1.6763-1.4062,2.9688h8.1875c0-1.1985-.3575-2.1465-1.0625-2.875-.6933-.7403-1.622-1.125-2.75-1.125zm113.75,0c-1.222,0-2.2362,.338-3,1.0312-.7638,.6815-1.2183,1.6763-1.4062,2.9688h8.1875c0-1.1985-.3575-2.1465-1.0625-2.875-.6933-.7403-1.5908-1.125-2.7188-1.125zm24.4375,0c-1.222,0-2.205,.338-2.9688,1.0312-.7638,.6815-1.2183,1.6763-1.4062,2.9688h8.1875c0-1.1985-.3575-2.1465-1.0625-2.875-.6933-.7403-1.622-1.125-2.75-1.125zm137.4062,0c-1.222,0-2.1737,.338-2.9375,1.0312-.7638,.6815-1.2495,1.6763-1.4375,2.9688h8.1875c0-1.1985-.3575-2.1465-1.0625-2.875-.6933-.7403-1.622-1.125-2.75-1.125zm-372,41.7188h4.4375v3.5938h-4.4375v-3.5938zm14.4062,0h3.4062v2.875h-2.4375c-.6251,0-1.097,.1447-1.3438,.375-.2468,.2221-.375,.6282-.375,1.1875v.9375h3.8125v3.1562h-3.8125v10.6562h-4.4062v-10.6562h-2.1875v-3.1562h2.1875v-.9375c0-1.5052 .4423-2.6281 1.2812-3.3438 .839-.7238 2.1148-1.0937 3.875-1.0938zm5.3125,0h4.4375v10.4375l5.0625-5.0625h5.125l-6.75,6.3438 7.2812,7.4688h-5.3438l-5.375-5.7812v5.7812h-4.4375v-19.1875zm77.8438,0h4.4375v19.1875h-4.4375v-2c-.6087,.8143-1.268,1.4029-2,1.7812-.732,.3784-1.5689,.5625-2.5312,.5625-1.7026,0-3.1248-.6511-4.2188-2-1.0939-1.3571-1.625-3.0884-1.625-5.2188 0-2.1303 .5311-3.8698 1.625-5.2188 1.0939-1.3571 2.5162-2.0625 4.2188-2.0625 .9541,0 1.7992,.2072 2.5312,.5938 .7403,.3784 1.3913,.944 2,1.75v-7.375zm91.0312,0h4.4062v10.4375l5.0938-5.0625h5.125l-6.75,6.3438 7.2812,7.4688h-5.375l-5.375-5.7812v5.7812h-4.4062v-19.1875zm26.2188,0h4.4688v19.1875h-4.4688v-2c-.6087,.8143-1.268,1.4029-2,1.7812-.732,.3784-1.6002,.5625-2.5625,.5625-1.7026,0-3.0623-.6511-4.1562-2-1.094-1.3571-1.6563-3.0884-1.6562-5.2188 0-2.1303 .5623-3.8698 1.6562-5.2188 1.0939-1.3571 2.4536-2.0625 4.1562-2.0625 .9541,0 1.7992,.2072 2.5312,.5938 .7403,.3784 1.4226,.944 2.0312,1.75v-7.375zm8.7188,0h4.4375v10.4375l5.0625-5.0625h5.125l-6.75,6.3438 7.2812,7.4688h-5.3438l-5.375-5.7812v5.7812h-4.4375v-19.1875zm-153.0938,5.0312c.9541,0 1.7679,.2269 2.5,.6875 .732,.4606 1.2779,1.1068 1.6562,1.9375 .5593-.8554 1.2663-1.4933 2.0312-1.9375 .7731-.4524 1.61-.6875 2.5312-.6875 1.5874,0 2.763,.49 3.5938,1.4688 .8307,.9788 1.2812,2.4142 1.2812,4.2812v8.4062h-4.4688v-7.1875c.007-.1069 0-.2286 0-.3438 .007-.1151 .0312-.2861 .0312-.5 0-.9788-.1184-1.6891-.4062-2.125-.2879-.4442-.7647-.6562-1.4062-.6562-.839,0-1.4769,.3404-1.9375,1.0312-.4524,.6909-.7023,1.6922-.7188,3v6.7812h-4.4375v-7.1875c0-1.5299-.1431-2.5328-.4062-2.9688-.2632-.4442-.7318-.6562-1.4062-.6562-.8472,0-1.5082,.3634-1.9688,1.0625-.4606,.6909-.6875,1.6774-.6875,2.9688v6.7812h-4.4375v-13.8125h4.4375v2c.5428-.7814 1.1759-1.3552 1.875-1.75 .7074-.3948 1.4965-.5937 2.3438-.5938zm41.1562,0c.8143,0 1.666,.0641 2.5625,.1875 .8965,.1234 1.8534,.3306 2.9062,.5938v3.3438c-.9459-.3948-1.8387-.6776-2.7188-.875-.8801-.1974-1.7186-.3125-2.5-.3125-.839,0-1.495,.0987-1.9062,.3125-.403,.2056-.5625,.5328-.5625,.9688 0,.3537 .1644,.6546 .4688,.8438 .3125,.1892 .8272,.2845 1.625,.375l.8125,.125c2.2619,.2879 3.7499,.7795 4.5312,1.4375 .7814,.658 1.1875,1.6873 1.1875,3.0938 0,1.4723-.5393,2.5722-1.625,3.3125-1.0857,.7403-2.72,1.0938-4.875,1.0938-.913,0-1.865-.0708-2.8438-.2188-.9706-.1398-1.9719-.3684-3-.6562v-3.3125c.8801,.4277 1.7976,.7237 2.7188,.9375 .9294,.2139 1.8584,.3125 2.8125,.3125 .8636,0 1.5016-.1052 1.9375-.3438 .4359-.2385 .6562-.5937 .6562-1.0625 0-.3948-.1332-.6858-.4375-.875-.2961-.1974-.8847-.3618-1.7812-.4688l-.7812-.0938c-1.9658-.2467-3.3354-.6775-4.125-1.3438-.7896-.6662-1.1875-1.6741-1.1875-3.0312 0-1.464 .4965-2.5739 1.5-3.2812 1.0035-.7073 2.5523-1.0625 4.625-1.0625zm16.3438,0c2.1714,0 3.9192,.661 5.2188,1.9688 1.3078,1.3078 1.9375,3.0621 1.9375,5.25v1.25h-10.3125c.1069,1.0364 .5147,1.7943 1.1562,2.3125 .6415,.5182 1.536,.7812 2.6875,.7812 .9294,0 1.8732-.1348 2.8438-.4062 .9788-.2797 1.9718-.6594 3-1.2188v3.375c-1.0446,.3948-2.0804,.6776-3.125,.875-1.0446,.2056-2.1117,.3125-3.1562,.3125-2.5004,0-4.4225-.6083-5.8125-1.875-1.3818-1.2749-2.0625-3.0489-2.0625-5.3438 0-2.2537 .6429-4.0212 2-5.3125 1.3654-1.2913 3.2397-1.9687 5.625-1.9688zm19.125,0c.9541,0 1.7992,.2269 2.5312,.6875 .732,.4606 1.3091,1.1068 1.6875,1.9375 .5593-.8554 1.2038-1.4933 1.9688-1.9375 .7731-.4524 1.61-.6875 2.5312-.6875 1.5874,0 2.8255,.49 3.6562,1.4688 .8307,.9788 1.2187,2.4142 1.2188,4.2812v8.4062h-4.4375v-7.1875c.007-.1069 .0312-.2286 .0312-.3438 .007-.1151 0-.2861 0-.5 0-.9788-.1497-1.6891-.4375-2.125-.2879-.4442-.7647-.6562-1.4062-.6562-.839,0-1.4769,.3404-1.9375,1.0312-.4524,.6909-.7023,1.6922-.7188,3v6.7812h-4.4375v-7.1875c0-1.5299-.1118-2.5328-.375-2.9688-.2632-.4442-.7318-.6562-1.4062-.6562-.8472,0-1.5082,.3634-1.9688,1.0625-.4606,.6909-.6875,1.6774-.6875,2.9688v6.7812h-4.4688v-13.8125h4.4688v2c.5429-.7814 1.1446-1.3552 1.8438-1.75 .7074-.3948 1.4966-.5937 2.3438-.5938zm33.4375,0c.7238,0 1.4259,.056 2.125,.1875 .7073,.1234 1.4259,.3388 2.125,.5938v3.5938c-.6004-.4112-1.2039-.7088-1.8125-.9062-.6004-.1974-1.2252-.3125-1.875-.3125-1.2338,0-2.1841,.37-2.875,1.0938-.6827,.7156-1.0312,1.7399-1.0312,3.0312 0,1.2913 .3486,2.2762 1.0312,3 .6909,.7156 1.6412,1.0625 2.875,1.0625 .6909,0 1.3519-.1069 1.9688-.3125 .6251-.2056 1.1923-.472 1.7188-.875v3.5938c-.6909,.255-1.4094,.4391-2.125,.5625-.7074,.1316-1.4094,.1875-2.125,.1875-2.4922,0-4.4373-.6001-5.8438-1.875-1.4065-1.2831-2.0938-3.0654-2.0938-5.3438 0-2.2783 .6873-4.0688 2.0938-5.3438 1.4065-1.2831 3.3515-1.9375 5.8438-1.9375zm-180.5,.3438h4.4375v13.5625c0,1.8507-.4554,3.2794-1.3438,4.25-.8883,.9788-2.1576,1.4375-3.8438,1.4375h-2.1875v-2.875h.75c.839,0 1.4062-.2154 1.7188-.5938 .3126-.3784 .4687-1.1084 .4688-2.2188v-13.5625zm43.5938,0h4.4062l3.4688,9.5625 3.4062-9.5625h4.4375l-5.4375,13.8125h-4.8438l-5.4375-13.8125zm195.0312,0h4.4062l3.4375,9.5625 3.4375-9.5625h4.4375l-5.4375,13.8125h-4.8438l-5.4375-13.8125zm-110.6875,2.5938c-.8554,0-1.5591,.2335-2.0938,.7188-.5346,.4771-.8684,1.189-1,2.0938h5.75c0-.8389-.2565-1.5213-.75-2.0312-.4853-.5182-1.1166-.7812-1.9062-.7812zm-33.2812,.2812c-.9377,0-1.6545,.3404-2.1562,1.0312-.4935,.6909-.75,1.7152-.75,3.0312 0,1.316 .2565,2.3091 .75,3 .5017,.6909 1.2186,1.0312 2.1562,1.0312 .9459,0 1.6627-.3403 2.1562-1.0312 .5017-.6909 .75-1.684 .75-3 0-1.316-.2483-2.3403-.75-3.0312-.4935-.6909-1.2104-1.0312-2.1562-1.0312zm117.2812,0c-.9377,0-1.6858,.3404-2.1875,1.0312-.4935,.6909-.7188,1.7152-.7188,3.0312 0,1.316 .2252,2.3091 .7188,3 .5017,.6909 1.2498,1.0312 2.1875,1.0312 .9459,0 1.6315-.3403 2.125-1.0312 .5017-.6909 .75-1.684 .75-3 0-1.316-.2483-2.3403-.75-3.0312-.4935-.6909-1.1791-1.0312-2.125-1.0312zm122.75,1.7812h39.5625l7.4688,11.9375h-55.1875l8.1562-11.9375zm11.4375,1.4062v9.375h16.5938v-9.375h-16.5938zm54.9062,3.625h16.2812l2.625,6.8125h-21.8125l2.9062-6.8125zm-106.2188,2.3438h12.2188l1.0312,4.4375h-14.6562l1.4062-4.4375zm-8.7188,8.4062h136.375c7.8817,0 14.2188,6.3371 14.2188,14.2188v76.0312c0,7.8817-6.3371,14.2188-14.2188,14.2188h-136.375c-7.8817,0-14.2188-6.3371-14.2188-14.2188v-76.0312c0-7.8817 6.3371-14.2188 14.2188-14.2188zm-286.0938,5.7812h4.4375v10.4375l5.0938-5.0625h5.125l-6.7812,6.3125 7.3125,7.5h-5.3438l-5.4062-5.75v5.75h-4.4375v-19.1875zm22.5625,0h3.375v2.9062h-2.4375c-.6251,0-1.0658,.1135-1.3125,.3438-.2468,.2221-.375,.597-.375,1.1562v.9688h3.7812v3.1562h-3.7812v10.6562h-4.4062v-10.6562h-2.1875v-3.1562h2.1875v-.9688c0-1.5052 .4423-2.6282 1.2812-3.3438 .839-.7238 2.1148-1.0625 3.875-1.0625zm46.8125,0h4.4688v19.1875h-4.4688v-2.0312c-.6087,.8143-1.268,1.4341-2,1.8125-.732,.3784-1.5689,.5938-2.5312,.5938-1.7026,0-3.1248-.7136-4.2188-2.0625-1.0939-1.3571-1.625-3.0884-1.625-5.2188 0-2.1303 .5311-3.8698 1.625-5.2188 1.0939-1.3571 2.5161-2.0312 4.2188-2.0312 .9541,0 1.7992,.2072 2.5312,.5938 .7402,.3784 1.3913,.944 2,1.75v-7.375zm14.4375,0h3.375v2.9062h-2.4375c-.6251,0-1.0658,.1135-1.3125,.3438-.2468,.2221-.375,.597-.375,1.1562v.9688h3.7812v3.1562h-3.7812v10.6562h-4.4062v-10.6562h-2.1875v-3.1562h2.1875v-.9688c0-1.5052 .411-2.6282 1.25-3.3438 .839-.7238 2.1461-1.0625 3.9062-1.0625zm20.3438,0h4.4062v10.4375l5.0938-5.0625h5.125l-6.75,6.3125 7.2812,7.5h-5.3438l-5.4062-5.75v5.75h-4.4062v-19.1875zm35,0h4.4375v19.1875h-4.4375v-2.0312c-.6087,.8143-1.268,1.4341-2,1.8125-.732,.3784-1.5689,.5938-2.5312,.5938-1.7026,0-3.1248-.7136-4.2188-2.0625-1.0939-1.3571-1.625-3.0884-1.625-5.2188 0-2.1303 .5311-3.8698 1.625-5.2188 1.0939-1.3571 2.5162-2.0312 4.2188-2.0312 .9541,0 1.7992,.2072 2.5312,.5938 .7402,.3784 1.3913,.944 2,1.75v-7.375zm29.4688,0h3.4062v2.9062h-2.4375c-.6251,0-1.097,.1135-1.3438,.3438-.2467,.2221-.375,.597-.375,1.1562v.9688h3.8125v3.1562h-3.8125v10.6562h-4.4062v-10.6562h-2.1875v-3.1562h2.1875v-.9688c0-1.5052 .4423-2.6282 1.2812-3.3438 .839-.7238 2.1148-1.0625 3.875-1.0625zm38.5312,0h4.4688v19.1875h-4.4688v-2.0312c-.6087,.8143-1.268,1.4341-2,1.8125-.732,.3784-1.5689,.5938-2.5312,.5938-1.7026,0-3.1248-.7136-4.2188-2.0625-1.0939-1.3571-1.625-3.0884-1.625-5.2188 0-2.1303 .5311-3.8698 1.625-5.2188 1.0939-1.3571 2.5161-2.0312 4.2188-2.0312 .9541,0 1.7992,.2072 2.5312,.5938 .7403,.3784 1.3913,.944 2,1.75v-7.375zm14.4375,0h3.375v2.9062h-2.4375c-.6251,0-1.0657,.1135-1.3125,.3438-.2468,.2221-.375,.597-.375,1.1562v.9688h3.7812v3.1562h-3.7812v10.6562h-4.4062v-10.6562h-2.1875v-3.1562h2.1875v-.9688c0-1.5052 .411-2.6282 1.25-3.3438 .839-.7238 2.1461-1.0625 3.9062-1.0625zm28.125,0h3.4062v2.9062h-2.4688c-.6251,0-1.0657,.1135-1.3125,.3438-.2468,.2221-.375,.597-.375,1.1562v.9688h3.8125v3.1562h-3.8125v10.6562h-4.4062v-10.6562h-2.2188v-3.1562h2.2188v-.9688c0-1.5052 .411-2.6282 1.25-3.3438 .839-.7238 2.1461-1.0625 3.9062-1.0625zm-155.3125,5.0312c.8143,0 1.666,.0641 2.5625,.1875 .8965,.1234 1.8847,.3306 2.9375,.5938v3.3125c-.9459-.3948-1.8699-.6463-2.75-.8438-.8801-.1974-1.7186-.3125-2.5-.3125-.839,0-1.4325,.0987-1.8438,.3125-.403,.2056-.625,.5328-.625,.9688 0,.3537 .1644,.6233 .4688,.8125 .3125,.1892 .8584,.347 1.6562,.4375l.7812,.0938c2.2619,.2879 3.7811,.7482 4.5625,1.4062 .7814,.658 1.1562,1.6873 1.1562,3.0938 0,1.4723-.5393,2.6035-1.625,3.3438-1.0857,.7403-2.72,1.125-4.875,1.125-.913,0-1.8337-.102-2.8125-.25-.9706-.1398-1.9719-.3371-3-.625v-3.375c.8801,.4277 1.7663,.7549 2.6875,.9688 .9294,.2139 1.8584,.3438 2.8125,.3438 .8636,0 1.5641-.1365 2-.375 .4359-.2385 .625-.5937 .625-1.0625 0-.3948-.1644-.6858-.4688-.875-.2961-.1974-.8847-.3305-1.7812-.4375l-.7812-.125c-1.9658-.2467-3.3354-.7088-4.125-1.375-.7896-.6662-1.1875-1.6741-1.1875-3.0312 0-1.4641 .4965-2.5739 1.5-3.2812 1.0034-.7073 2.5523-1.0312 4.625-1.0312zm58.7812,0c.8143,0 1.666,.0641 2.5625,.1875 .8965,.1234 1.8847,.3306 2.9375,.5938v3.3125c-.9459-.3948-1.8699-.6463-2.75-.8438-.8801-.1974-1.7186-.3125-2.5-.3125-.839,0-1.4638,.0987-1.875,.3125-.403,.2056-.5938,.5328-.5938,.9688 0,.3537 .1332,.6233 .4375,.8125 .3125,.1892 .8897,.347 1.6875,.4375l.7812,.0938c2.2619,.2879 3.7811,.7482 4.5625,1.4062 .7814,.658 1.1562,1.6873 1.1562,3.0938 0,1.4723-.5393,2.6035-1.625,3.3438-1.0857,.7403-2.6888,1.125-4.8438,1.125-.913,0-1.865-.102-2.8438-.25-.9706-.1398-1.9719-.3371-3-.625v-3.375c.8801,.4277 1.7663,.7549 2.6875,.9688 .9294,.2139 1.8896,.3438 2.8438,.3438 .8636,0 1.5016-.1365 1.9375-.375 .4359-.2385 .6562-.5937 .6562-1.0625 0-.3948-.1644-.6858-.4688-.875-.2961-.1974-.8847-.3305-1.7812-.4375l-.7812-.125c-1.9658-.2467-3.3354-.7088-4.125-1.375-.7896-.6662-1.1875-1.6741-1.1875-3.0312 0-1.4641 .4965-2.5739 1.5-3.2812 1.0034-.7073 2.5523-1.0312 4.625-1.0312zm34.8438,0c.8143,0 1.666,.0641 2.5625,.1875 .8965,.1234 1.8534,.3306 2.9062,.5938v3.3125c-.9459-.3948-1.8387-.6463-2.7188-.8438-.8801-.1974-1.7186-.3125-2.5-.3125-.839,0-1.4638,.0987-1.875,.3125-.403,.2056-.5938,.5328-.5938,.9688 0,.3537 .1332,.6233 .4375,.8125 .3125,.1892 .8584,.347 1.6562,.4375l.8125,.0938c2.2619,.2879 3.7499,.7482 4.5312,1.4062 .7814,.658 1.1875,1.6873 1.1875,3.0938 0,1.4723-.5705,2.6035-1.6562,3.3438-1.0857,.7403-2.6888,1.125-4.8438,1.125-.913,0-1.865-.102-2.8438-.25-.9706-.1398-1.9719-.3371-3-.625v-3.375c.8801,.4277 1.7975,.7549 2.7188,.9688 .9294,.2139 1.8584,.3438 2.8125,.3438 .8636,0 1.5328-.1365 1.9688-.375 .4359-.2385 .625-.5937 .625-1.0625 0-.3948-.1019-.6858-.4062-.875-.2961-.1974-.916-.3305-1.8125-.4375l-.7812-.125c-1.9658-.2467-3.3354-.7088-4.125-1.375-.7896-.6662-1.1875-1.6741-1.1875-3.0312 0-1.4641 .4965-2.5739 1.5-3.2812 1.0035-.7073 2.5523-1.0312 4.625-1.0312zm45.5,0c2.1714,0 3.8879,.661 5.1875,1.9688 1.3078,1.3078 1.9687,3.0309 1.9688,5.2188v1.2812h-10.3438c.1069,1.0364 .4834,1.7943 1.125,2.3125 .6415,.5182 1.536,.8125 2.6875,.8125 .9294,0 1.8732-.1661 2.8438-.4375 .9788-.2796 1.9718-.6907 3-1.25v3.4062c-1.0446,.3948-2.0804,.7088-3.125,.9062-1.0446,.2056-2.0492,.3125-3.0938,.3125-2.5004,0-4.4537-.6708-5.8438-1.9375-1.3818-1.2749-2.0938-3.0489-2.0938-5.3438 0-2.2537 .7054-4.0212 2.0625-5.3125 1.3654-1.2913 3.2397-1.9375 5.625-1.9375zm-206.9062,.3438h4.2812l2.3125,9.5 2.3438-9.5h3.6875l2.3125,9.4062 2.3438-9.4062h4.3125l-3.6562,13.8125h-4.8125l-2.3438-9.5-2.3125,9.5h-4.8438l-3.625-13.8125zm342.6562,2.5625c-20.8624,0-37.75,16.9188-37.75,37.7812 0,20.8624 16.8876,37.7812 37.75,37.7812 20.8624,0 37.7812-16.9188 37.7812-37.7812 0-20.8624-16.9188-37.7812-37.7812-37.7812zm-135.7812,.0312c-.8554,0-1.5904,.2647-2.125,.75-.5346,.4771-.8372,1.1578-.9688,2.0625h5.75c0-.839-.2565-1.5213-.75-2.0312-.4853-.5182-1.1166-.7812-1.9062-.7812zm-167.0312,.2812c-.9377,0-1.6545,.3091-2.1562,1-.4935,.6909-.75,1.7152-.75,3.0312 0,1.316 .2565,2.3091 .75,3 .5017,.6909 1.2186,1.0625 2.1562,1.0625 .9459,0 1.6627-.3716 2.1562-1.0625 .5017-.6909 .75-1.684 .75-3 0-1.316-.2483-2.3403-.75-3.0312-.4935-.6909-1.2104-1-2.1562-1zm69.7812,0c-.9377,0-1.6545,.3091-2.1562,1-.4935,.6909-.75,1.7152-.75,3.0312 0,1.316 .2565,2.3091 .75,3 .5017,.6909 1.2186,1.0625 2.1562,1.0625 .9459,0 1.6627-.3716 2.1562-1.0625 .5017-.6909 .75-1.684 .75-3 0-1.316-.2483-2.3403-.75-3.0312-.4935-.6909-1.2104-1-2.1562-1zm68,0c-.9377,0-1.6545,.3091-2.1562,1-.4935,.6909-.75,1.7152-.75,3.0312 0,1.316 .2565,2.3091 .75,3 .5017,.6909 1.2186,1.0625 2.1562,1.0625 .9459,0 1.694-.3716 2.1875-1.0625 .5017-.6909 .7187-1.684 .7188-3 0-1.316-.217-2.3403-.7188-3.0312-.4935-.6909-1.2416-1-2.1875-1zm165.0312,14.9062c12.4633,0 22.5938,10.0992 22.5938,22.5625 0,12.4633-10.1305,22.5625-22.5938,22.5625-12.4633,0-22.5625-10.0992-22.5625-22.5625 0-12.4633 10.0992-22.5625 22.5625-22.5625zm-359.8438,8.4062h4.4062v19.1875h-4.4062v-2c-.6087,.8143-1.268,1.4029-2,1.7812-.732,.3784-1.6002,.5938-2.5625,.5938-1.7026,0-3.0936-.6823-4.1875-2.0312-1.0939-1.3571-1.6563-3.0884-1.6562-5.2188 0-2.1303 .5623-3.8698 1.6562-5.2188 1.0939-1.3571 2.4849-2.0625 4.1875-2.0625 .9541,0 1.7992,.2072 2.5312,.5938 .7402,.3784 1.4226,.9752 2.0312,1.7812v-7.4062zm26.875,0h4.4688v19.1875h-4.4688v-2c-.6087,.8143-1.268,1.4029-2,1.7812-.732,.3784-1.5689,.5938-2.5312,.5938-1.7026,0-3.1248-.6823-4.2188-2.0312-1.0939-1.3571-1.625-3.0884-1.625-5.2188 0-2.1303 .5311-3.8698 1.625-5.2188 1.0939-1.3571 2.5161-2.0625 4.2188-2.0625 .9541,0 1.7992,.2072 2.5312,.5938 .7403,.3784 1.3913,.9752 2,1.7812v-7.4062zm29.4688,0h3.375v2.9062h-2.4375c-.6251,0-1.0345,.1135-1.2812,.3438-.2468,.2221-.375,.6282-.375,1.1875v.9375h3.75v3.1562h-3.75v10.6562h-4.4375v-10.6562h-2.1875v-3.1562h2.1875v-.9375c0-1.5052 .4423-2.6282 1.2812-3.3438 .839-.7238 2.1148-1.0937 3.875-1.0938zm5.3125,0h4.4062v10.4375l5.0938-5.0625h5.125l-6.75,6.3438 7.2812,7.4688h-5.3438l-5.4062-5.75v5.75h-4.4062v-19.1875zm16.8125,0h4.4375v3.5938h-4.4375v-3.5938zm26.875,0h4.4375v19.1875h-4.4375v-2c-.6087,.8143-1.2992,1.4029-2.0312,1.7812-.732,.3784-1.5689,.5938-2.5312,.5938-1.7026,0-3.0936-.6823-4.1875-2.0312-1.0939-1.3571-1.6562-3.0884-1.6562-5.2188 0-2.1303 .5623-3.8698 1.6562-5.2188 1.0939-1.3571 2.4849-2.0625 4.1875-2.0625 .9541,0 1.7992,.2072 2.5312,.5938 .7402,.3784 1.4226,.9752 2.0312,1.7812v-7.4062zm14.4375,0h3.375v2.9062h-2.4375c-.6251,0-1.0658,.1135-1.3125,.3438-.2468,.2221-.375,.6282-.375,1.1875v.9375h3.75v3.1562h-3.75v10.6562h-4.4375v-10.6562h-2.1875v-3.1562h2.1875v-.9375c0-1.5052 .4423-2.6282 1.2812-3.3438 .839-.7238 2.1461-1.0937 3.9062-1.0938zm38.5312,0h4.4375v19.1875h-4.4375v-2c-.6087,.8143-1.2992,1.4029-2.0312,1.7812-.732,.3784-1.5689,.5938-2.5312,.5938-1.7026,0-3.0936-.6823-4.1875-2.0312-1.0939-1.3571-1.6562-3.0884-1.6562-5.2188 0-2.1303 .5623-3.8698 1.6562-5.2188 1.0939-1.3571 2.4849-2.0625 4.1875-2.0625 .9541,0 1.7992,.2072 2.5312,.5938 .7402,.3784 1.4226,.9752 2.0312,1.7812v-7.4062zm14.4062,0h3.375v2.9062h-2.4375c-.6251,0-1.0658,.1135-1.3125,.3438-.2468,.2221-.3438,.6282-.3438,1.1875v.9375h3.75v3.1562h-3.75v10.6562h-4.4375v-10.6562h-2.1875v-3.1562h2.1875v-.9375c0-1.5052 .4423-2.6282 1.2812-3.3438 .839-.7238 2.1148-1.0937 3.875-1.0938zm5.2812,0h4.4375v10.4375l5.0938-5.0625h5.125l-6.75,6.3438 7.2812,7.4688h-5.3438l-5.4062-5.75v5.75h-4.4375v-19.1875zm16.8438,0h4.4375v3.5938h-4.4375v-3.5938zm17.4688,0h4.4062v3.5938h-4.4062v-3.5938zm8.6875,0h4.4062v10.4375l5.0938-5.0625h5.125l-6.75,6.3438 7.2812,7.4688h-5.3438l-5.4062-5.75v5.75h-4.4062v-19.1875zm16.8438,0h4.4062v3.5938h-4.4062v-3.5938zm-196.9375,5.0312c.8143,0 1.6659,.0641 2.5625,.1875 .8965,.1234 1.8534,.3306 2.9062,.5938v3.375c-.9459-.3948-1.8387-.7088-2.7188-.9062-.8801-.1974-1.7186-.3125-2.5-.3125-.839,0-1.4638,.1299-1.875,.3438-.403,.2056-.5938,.5328-.5938,.9688 0,.3537 .1644,.6233 .4688,.8125 .3126,.1892 .8272,.3158 1.625,.4062l.8125,.0938c2.2619,.2879 3.7498,.7795 4.5312,1.4375 .7814,.658 1.1875,1.6873 1.1875,3.0938 0,1.4723-.5393,2.6035-1.625,3.3438-1.0857,.7402-2.72,1.0938-4.875,1.0938-.913,0-1.865-.0707-2.8438-.2188-.9706-.1398-1.9719-.3684-3-.6562v-3.3438c.8801,.4277 1.7976,.7236 2.7188,.9375 .9294,.2138 1.8584,.3438 2.8125,.3438 .8636,0 1.5328-.1365 1.9688-.375 .4359-.2385 .625-.5624 .625-1.0312 0-.3948-.1332-.7171-.4375-.9062-.2961-.1974-.8847-.3306-1.7812-.4375l-.7812-.125c-1.9658-.2467-3.3354-.6775-4.125-1.3438-.7896-.6662-1.1875-1.6741-1.1875-3.0312 0-1.464 .4965-2.5426 1.5-3.25 1.0035-.7073 2.5523-1.0937 4.625-1.0938zm98.2188,0c.8143,0 1.7285,.0641 2.625,.1875 .8965,.1234 1.8222,.3306 2.875,.5938v3.375c-.9459-.3948-1.8699-.7088-2.75-.9062-.8801-.1974-1.6874-.3125-2.4688-.3125-.839,0-1.4638,.1299-1.875,.3438-.403,.2056-.5938,.5328-.5938,.9688 0,.3537 .1332,.6233 .4375,.8125 .3125,.1892 .8897,.3158 1.6875,.4062l.75,.0938c2.2619,.2879 3.8124,.7795 4.5938,1.4375 .7814,.658 1.1562,1.6873 1.1562,3.0938 0,1.4723-.5393,2.6035-1.625,3.3438-1.0857,.7402-2.72,1.0938-4.875,1.0938-.913,0-1.8337-.0707-2.8125-.2188-.9706-.1398-1.9719-.3684-3-.6562v-3.3438c.8801,.4277 1.7975,.7236 2.7188,.9375 .9294,.2138 1.8584,.3438 2.8125,.3438 .8636,0 1.5016-.1365 1.9375-.375 .4359-.2385 .6562-.5624 .6562-1.0312 0-.3948-.1332-.7171-.4375-.9062-.2961-.1974-.916-.3306-1.8125-.4375l-.75-.125c-1.9658-.2467-3.3666-.6775-4.1562-1.3438-.7896-.6662-1.1875-1.6741-1.1875-3.0312 0-1.464 .4965-2.5426 1.5-3.25 1.0035-.7073 2.521-1.0937 4.5938-1.0938zm-60.6562,.3438h4.4375v13.5625c0,1.8506-.4555,3.2794-1.3438,4.25-.8883,.9788-2.1576,1.4687-3.8438,1.4688h-2.1875v-2.9062h.75c.839,0 1.4374-.1841 1.75-.5625 .3126-.3784 .4375-1.1396 .4375-2.25v-13.5625zm116.375,0h4.4375v13.5625c0,1.8506-.4554,3.2794-1.3438,4.25-.8883,.9788-2.1576,1.4687-3.8438,1.4688h-2.2188v-2.9062h.7812c.8389,0 1.4062-.1841 1.7188-.5625 .3125-.3784 .4688-1.1396 .4688-2.25v-13.5625zm17.4688,0h4.4062v13.5625c0,1.8506-.4242,3.2794-1.3125,4.25-.8883,.9788-2.1889,1.4687-3.875,1.4688h-2.1875v-2.9062h.7812c.839,0 1.4062-.1841 1.7188-.5625 .3125-.3784 .4688-1.1396 .4688-2.25v-13.5625zm25.5312,0h4.4062v13.5625c0,1.8506-.4242,3.2794-1.3125,4.25-.8883,.9788-2.1889,1.4687-3.875,1.4688h-2.1875v-2.9062h.75c.839,0 1.4374-.1841 1.75-.5625 .3125-.3784 .4688-1.1396 .4688-2.25v-13.5625zm-240.7812,2.875c-.9377,0-1.6233,.3716-2.125,1.0625-.4935,.6909-.75,1.684-.75,3 0,1.316 .2565,2.3091 .75,3 .5017,.6909 1.1873,1.0313 2.125,1.0312 .9459,0 1.6627-.3403 2.1562-1.0312 .5017-.6909 .7812-1.684 .7812-3 0-1.316-.2795-2.3091-.7812-3-.4935-.6909-1.2104-1.0625-2.1562-1.0625zm26.9062,0c-.9377,0-1.6545,.3716-2.1562,1.0625-.4935,.6909-.75,1.684-.75,3 0,1.316 .2565,2.3091 .75,3 .5017,.6909 1.2186,1.0313 2.1562,1.0312 .9459,0 1.6627-.3403 2.1562-1.0312 .5017-.6909 .75-1.684 .75-3 0-1.316-.2483-2.3091-.75-3-.4935-.6909-1.2104-1.0625-2.1562-1.0625zm78.4688,0c-.9377,0-1.6545,.3716-2.1562,1.0625-.4935,.6909-.75,1.684-.75,3 0,1.316 .2565,2.3091 .75,3 .5017,.6909 1.2186,1.0313 2.1562,1.0312 .9459,0 1.6627-.3403 2.1562-1.0312 .5017-.6909 .75-1.684 .75-3 0-1.316-.2483-2.3091-.75-3-.4935-.6909-1.2104-1.0625-2.1562-1.0625zm52.9688,0c-.9377,0-1.6858,.3716-2.1875,1.0625-.4935,.6909-.7188,1.684-.7188,3 0,1.316 .2252,2.3091 .7188,3 .5017,.6909 1.2498,1.0313 2.1875,1.0312 .9459,0 1.6627-.3403 2.1562-1.0312 .5017-.6909 .75-1.684 .75-3 0-1.316-.2483-2.3091-.75-3-.4935-.6909-1.2104-1.0625-2.1562-1.0625zm-164.8438,23.3438h4.4375v10.4375l5.0938-5.0625h5.125l-6.7812,6.3438 7.3125,7.4688h-5.3438l-5.4062-5.75v5.75h-4.4375v-19.1875zm16.8438,0h4.4375v19.1875h-4.4375v-19.1875zm14.4062,0h3.375v2.9062h-2.4375c-.6251,0-1.0657,.1135-1.3125,.3438-.2468,.2221-.375,.5969-.375,1.1562v.9688h3.7812v3.1562h-3.7812v10.6562h-4.4062v-10.6562h-2.1875v-3.1562h2.1875v-.9688c0-1.5052 .411-2.6282 1.25-3.3438 .839-.7238 2.1461-1.0625 3.9062-1.0625zm20.3438,0h4.4062v3.5938h-4.4062v-3.5938zm17.4688,0h4.4375v10.4375l5.0625-5.0625h5.125l-6.75,6.3438 7.2812,7.4688h-5.3438l-5.375-5.75v5.75h-4.4375v-19.1875zm41.2812,0h4.4375v19.1875h-4.4375v-1.9688c-.6087,.8143-1.268,1.4029-2,1.7812-.732,.3784-1.6002,.5625-2.5625,.5625-1.7026,0-3.0623-.7136-4.1562-2.0625-1.0939-1.3571-1.6562-3.0884-1.6562-5.2188 0-2.1303 .5623-3.8698 1.6562-5.2188 1.0939-1.3571 2.4537-2.0312 4.1562-2.0312 .9541,0 1.7992,.2072 2.5312,.5938 .7403,.3784 1.4226,.9752 2.0312,1.7812v-7.4062zm14.4062,0h3.4062v2.9062h-2.4375c-.6251,0-1.097,.1135-1.3438,.3438-.2468,.2221-.375,.5969-.375,1.1562v.9688h3.8125v3.1562h-3.8125v10.6562h-4.375v-10.6562h-2.2188v-3.1562h2.2188v-.9688c0-1.5052 .411-2.6282 1.25-3.3438 .839-.7238 2.1148-1.0625 3.875-1.0625zm5.3125,0h4.4375v10.4375l5.0625-5.0625h5.125l-6.75,6.3438 7.2812,7.4688h-5.3438l-5.375-5.75v5.75h-4.4375v-19.1875zm25.625,0h4.4062v3.5938h-4.4062v-3.5938zm18.0625,0h4.4688v19.1875h-4.4688v-1.9688c-.6087,.8143-1.268,1.4029-2,1.7812-.732,.3784-1.5689,.5625-2.5312,.5625-1.7026,0-3.0936-.7136-4.1875-2.0625-1.094-1.3571-1.6562-3.0884-1.6562-5.2188 0-2.1303 .5623-3.8698 1.6562-5.2188 1.0939-1.3571 2.4849-2.0312 4.1875-2.0312 .9541,0 1.768,.2072 2.5,.5938 .7403,.3784 1.4226,.9752 2.0312,1.7812v-7.4062zm29.5,0h3.3438v2.9062h-2.4375c-.6251,0-1.0345,.1135-1.2812,.3438-.2468,.2221-.375,.5969-.375,1.1562v.9688h3.7812v3.1562h-3.7812v10.6562h-4.4062v-10.6562h-2.2188v-3.1562h2.2188v-.9688c0-1.5052 .411-2.6282 1.25-3.3438 .839-.7238 2.1461-1.0625 3.9062-1.0625zm5.2812,0h4.4062v3.5938h-4.4062v-3.5938zm26.875,0h4.4375v19.1875h-4.4375v-1.9688c-.6087,.8143-1.268,1.4029-2,1.7812-.732,.3784-1.6002,.5625-2.5625,.5625-1.7026,0-3.0936-.7136-4.1875-2.0625-1.0939-1.3571-1.625-3.0884-1.625-5.2188 0-2.1303 .5311-3.8698 1.625-5.2188 1.0939-1.3571 2.4849-2.0312 4.1875-2.0312 .9541,0 1.7992,.2072 2.5312,.5938 .7403,.3784 1.4226,.9752 2.0312,1.7812v-7.4062zm14.4375,0h3.375v2.9062h-2.4688c-.6251,0-1.0345,.1135-1.2812,.3438-.2468,.2221-.375,.5969-.375,1.1562v.9688h3.7812v3.1562h-3.7812v10.6562h-4.4062v-10.6562h-2.2188v-3.1562h2.2188v-.9688c0-1.5052 .3798-2.6282 1.2188-3.3438 .839-.7238 2.1773-1.0625 3.9375-1.0625zm-208,5.0312c.8143,0 1.666,.0641 2.5625,.1875 .8965,.1234 1.8847,.3306 2.9375,.5938v3.3438c-.9459-.3948-1.8699-.6776-2.75-.875-.8801-.1974-1.7186-.3125-2.5-.3125-.839,0-1.4325,.1299-1.8438,.3438-.403,.2056-.625,.5016-.625,.9375 0,.3537 .1644,.6233 .4688,.8125 .3125,.1892 .8584,.347 1.6562,.4375l.7812,.0938c2.2619,.2879 3.7811,.7482 4.5625,1.4062 .7814,.658 1.1875,1.7185 1.1875,3.125 0,1.4723-.5706,2.5722-1.6562,3.3125-1.0857,.7403-2.6888,1.125-4.8438,1.125-.913,0-1.865-.0707-2.8438-.2188-.9706-.1398-1.9719-.3684-3-.6562v-3.375c.8801,.4277 1.7663,.7549 2.6875,.9688 .9294,.2139 1.8896,.3438 2.8438,.3438 .8636,0 1.5328-.1365 1.9688-.375 .4359-.2385 .625-.5937 .625-1.0625 0-.3948-.1332-.6546-.4375-.8438-.2961-.1974-.916-.3618-1.8125-.4688l-.7812-.0938c-1.9658-.2468-3.3354-.74-4.125-1.4062-.7896-.6662-1.1875-1.6741-1.1875-3.0312 0-1.4641 .5278-2.5114 1.5312-3.2188 1.0035-.7073 2.521-1.0937 4.5938-1.0938zm49.3438,0c.8143,0 1.666,.0641 2.5625,.1875 .8965,.1234 1.8847,.3306 2.9375,.5938v3.3438c-.9459-.3948-1.8699-.6776-2.75-.875-.8801-.1974-1.7186-.3125-2.5-.3125-.839,0-1.4325,.1299-1.8438,.3438-.403,.2056-.625,.5016-.625,.9375 0,.3537 .1644,.6233 .4688,.8125 .3125,.1892 .8584,.347 1.6562,.4375l.7812,.0938c2.2619,.2879 3.7811,.7482 4.5625,1.4062 .7814,.658 1.1875,1.7185 1.1875,3.125 0,1.4723-.5393,2.5722-1.625,3.3125-1.0857,.7403-2.72,1.125-4.875,1.125-.913,0-1.865-.0707-2.8438-.2188-.9706-.1398-1.9719-.3684-3-.6562v-3.375c.8801,.4277 1.7663,.7549 2.6875,.9688 .9294,.2139 1.8896,.3438 2.8438,.3438 .8636,0 1.5328-.1365 1.9688-.375 .4359-.2385 .625-.5937 .625-1.0625 0-.3948-.1332-.6546-.4375-.8438-.2961-.1974-.916-.3618-1.8125-.4688l-.75-.0938c-1.9658-.2468-3.3666-.74-4.1562-1.4062-.7896-.6662-1.1875-1.6741-1.1875-3.0312 0-1.4641 .5278-2.5114 1.5312-3.2188 1.0035-.7073 2.521-1.0937 4.5938-1.0938zm96.5938,0c.8143,0 1.666,.0641 2.5625,.1875 .8965,.1234 1.8534,.3306 2.9062,.5938v3.3438c-.9459-.3948-1.8387-.6776-2.7188-.875-.8801-.1974-1.7186-.3125-2.5-.3125-.839,0-1.4638,.1299-1.875,.3438-.403,.2056-.5938,.5016-.5938,.9375 0,.3537 .1332,.6233 .4375,.8125 .3126,.1892 .8584,.347 1.6562,.4375l.8125,.0938c2.2619,.2879 3.7499,.7482 4.5312,1.4062 .7814,.658 1.1875,1.7185 1.1875,3.125 0,1.4723-.5393,2.5722-1.625,3.3125-1.0857,.7403-2.72,1.125-4.875,1.125-.913,0-1.865-.0707-2.8438-.2188-.9706-.1398-1.9718-.3684-3-.6562v-3.375c.8801,.4277 1.7975,.7549 2.7188,.9688 .9294,.2139 1.8584,.3438 2.8125,.3438 .8636,0 1.5328-.1365 1.9688-.375 .4359-.2385 .625-.5937 .625-1.0625 0-.3948-.1019-.6546-.4062-.8438-.2961-.1974-.916-.3618-1.8125-.4688l-.75-.0938c-1.9658-.2468-3.3666-.74-4.1562-1.4062-.7896-.6662-1.1875-1.6741-1.1875-3.0312 0-1.4641 .4965-2.5114 1.5-3.2188 1.0035-.7073 2.5523-1.0937 4.625-1.0938zm-136.1875,.3438h4.4062v13.5625c0,1.8506-.4242,3.2482-1.3125,4.2188-.8883,.9788-2.1889,1.5-3.875,1.5h-2.1562v-2.9062h.7188c.839,0 1.4374-.1841 1.75-.5625 .3126-.3784 .4688-1.1396 .4688-2.25v-13.5625zm104.0938,0h4.4062v13.5625c0,1.8506-.4555,3.2482-1.3438,4.2188-.8883,.9788-2.1889,1.5-3.875,1.5h-2.1562v-2.9062h.7812c.839,0 1.3749-.1841 1.6875-.5625 .3125-.3784 .5-1.1396 .5-2.25v-13.5625zm52.8438,0h4.4062v13.5625c0,1.8506-.4242,3.2482-1.3125,4.2188-.8883,.9788-2.1889,1.5-3.875,1.5h-2.1875v-2.9062h.7812c.839,0 1.4062-.1841 1.7188-.5625 .3126-.3784 .4687-1.1396 .4688-2.25v-13.5625zm-101.125,2.875c-.9377,0-1.6233,.3404-2.125,1.0312-.4935,.6909-.75,1.684-.75,3 0,1.316 .2565,2.3404 .75,3.0312 .5017,.6909 1.1873,1.0313 2.125,1.0312 .9459,0 1.694-.3403 2.1875-1.0312 .5017-.6909 .75-1.7152 .75-3.0312 0-1.316-.2483-2.3091-.75-3-.4935-.6909-1.2416-1.0312-2.1875-1.0312zm63.4375,0c-.9377,0-1.6545,.3404-2.1562,1.0312-.4935,.6909-.75,1.684-.75,3 0,1.316 .2565,2.3404 .75,3.0312 .5017,.6909 1.2186,1.0313 2.1562,1.0312 .9459,0 1.694-.3403 2.1875-1.0312 .5017-.6909 .7187-1.7152 .7188-3.0312 0-1.316-.217-2.3091-.7188-3-.4935-.6909-1.2416-1.0312-2.1875-1.0312zm61.6562,0c-.9377,0-1.6545,.3404-2.1562,1.0312-.4935,.6909-.75,1.684-.75,3 0,1.316 .2565,2.3404 .75,3.0312 .5017,.6909 1.2186,1.0313 2.1562,1.0312 .9459,0 1.6315-.3403 2.125-1.0312 .5017-.6909 .7812-1.7152 .7812-3.0312 0-1.316-.2795-2.3091-.7812-3-.4935-.6909-1.1791-1.0312-2.125-1.0312zm-232.5,23.3125h4.4375v3.625h-4.4375v-3.625zm23.2188,0h3.375v2.9062h-2.4375c-.6251,0-1.0658,.1135-1.3125,.3438-.2468,.2221-.375,.6282-.375,1.1875v.9375h3.7812v3.1562h-3.7812v10.6562h-4.4062v-10.6562h-2.1875v-3.1562h2.1875v-.9375c0-1.5052 .3798-2.6282 1.2188-3.3438 .839-.7238 2.1773-1.0937 3.9375-1.0938zm29.7188,0h4.4688v19.1875h-4.4688v-1.9688c-.6087,.8143-1.268,1.4029-2,1.7812-.732,.3784-1.5689,.5625-2.5312,.5625-1.7026,0-3.1248-.6511-4.2188-2-1.094-1.3571-1.625-3.1197-1.625-5.25 0-2.1303 .531-3.8698 1.625-5.2188 1.0939-1.3571 2.5161-2.0312 4.2188-2.0312 .9541,0 1.7992,.176 2.5312,.5625 .7403,.3784 1.3913,1.0065 2,1.8125v-7.4375zm14.4375,0h3.375v2.9062h-2.4375c-.6251,0-1.0657,.1135-1.3125,.3438-.2468,.2221-.375,.6282-.375,1.1875v.9375h3.7812v3.1562h-3.7812v10.6562h-4.4062v-10.6562h-2.1875v-3.1562h2.1875v-.9375c0-1.5052 .411-2.6282 1.25-3.3438 .8389-.7238 2.1461-1.0937 3.9062-1.0938zm32.25,0h4.4688v19.1875h-4.4688v-1.9688c-.6087,.8143-1.268,1.4029-2,1.7812-.732,.3784-1.5689,.5625-2.5312,.5625-1.7026,0-3.1248-.6511-4.2188-2-1.094-1.3571-1.625-3.1197-1.625-5.25 0-2.1303 .531-3.8698 1.625-5.2188 1.0939-1.3571 2.5161-2.0312 4.2188-2.0312 .9541,0 1.7992,.176 2.5312,.5625 .7403,.3784 1.3913,1.0065 2,1.8125v-7.4375zm29.5,0h3.3438v2.9062h-2.4375c-.6251,0-1.0345,.1135-1.2812,.3438-.2468,.2221-.375,.6282-.375,1.1875v.9375h3.75v3.1562h-3.75v10.6562h-4.4375v-10.6562h-2.1875v-3.1562h2.1875v-.9375c0-1.5052 .4423-2.6282 1.2812-3.3438 .839-.7238 2.1461-1.0937 3.9062-1.0938zm38.5312,0h4.4375v19.1875h-4.4375v-1.9688c-.6087,.8143-1.2992,1.4029-2.0312,1.7812-.732,.3784-1.5689,.5625-2.5312,.5625-1.7026,0-3.0936-.6511-4.1875-2-1.0939-1.3571-1.6562-3.1197-1.6562-5.25 0-2.1303 .5623-3.8698 1.6562-5.2188 1.0939-1.3571 2.4849-2.0312 4.1875-2.0312 .9541,0 1.768,.176 2.5,.5625 .7403,.3784 1.4538,1.0065 2.0625,1.8125v-7.4375zm29.4688,0h3.375v2.9062h-2.4375c-.6251,0-1.0658,.1135-1.3125,.3438-.2468,.2221-.375,.6282-.375,1.1875v.9375h3.7812v3.1562h-3.7812v10.6562h-4.4062v-10.6562h-2.1875v-3.1562h2.1875v-.9375c0-1.5052 .411-2.6282 1.25-3.3438 .839-.7238 2.1461-1.0937 3.9062-1.0938zm5.2812,0h4.4062v10.4688l5.125-5.0938h5.125l-6.7812,6.375 7.2812,7.4375h-5.3438l-5.4062-5.75v5.75h-4.4062v-19.1875zm16.8438,0h4.4062v3.625h-4.4062v-3.625zm33.125,0h4.4375v19.1875h-4.4375v-1.9688c-.6087,.8143-1.268,1.4029-2,1.7812-.732,.3784-1.6002,.5625-2.5625,.5625-1.7026,0-3.0936-.6511-4.1875-2-1.0939-1.3571-1.625-3.1197-1.625-5.25 0-2.1303 .5311-3.8698 1.625-5.2188 1.0939-1.3571 2.4849-2.0312 4.1875-2.0312 .9541,0 1.8305,.176 2.5625,.5625 .7403,.3784 1.3913,1.0065 2,1.8125v-7.4375zm-218.5625,5.0625c.8143,0 1.6659,.0329 2.5625,.1562 .8965,.1234 1.8534,.3306 2.9062,.5938v3.375c-.9459-.3948-1.8387-.7088-2.7188-.9062-.8801-.1974-1.7186-.2812-2.5-.2812-.839,0-1.4638,.0987-1.875,.3125-.403,.2056-.5938,.5328-.5938,.9688 0,.3537 .1332,.6233 .4375,.8125 .3126,.1892 .8584,.347 1.6562,.4375l.8125,.125c2.2619,.2879 3.7498,.717 4.5312,1.375 .7814,.658 1.1875,1.7185 1.1875,3.125 0,1.4723-.5706,2.5722-1.6562,3.3125-1.0857,.7403-2.6888,1.0938-4.8438,1.0938-.913,0-1.865-.0707-2.8438-.2188-.9706-.1398-1.9719-.3371-3-.625v-3.375c.8801,.4277 1.7975,.7549 2.7188,.9688 .9294,.2138 1.8584,.3125 2.8125,.3125 .8636,0 1.5328-.1365 1.9688-.375 .4359-.2385 .625-.5624 .625-1.0312 0-.3948-.1332-.6858-.4375-.875-.2961-.1974-.8847-.3618-1.7812-.4688l-.7812-.0938c-1.9658-.2468-3.3354-.7088-4.125-1.375-.7896-.6662-1.1875-1.6741-1.1875-3.0312 0-1.4641 .4965-2.5426 1.5-3.25 1.0035-.7073 2.5523-1.0625 4.625-1.0625zm79.8438,0c.8143,0 1.6659,.0329 2.5625,.1562 .8965,.1234 1.8534,.3306 2.9062,.5938v3.375c-.9459-.3948-1.8387-.7088-2.7188-.9062-.8801-.1974-1.7186-.2812-2.5-.2812-.839,0-1.4638,.0987-1.875,.3125-.403,.2056-.5938,.5328-.5938,.9688 0,.3537 .1644,.6233 .4688,.8125 .3125,.1892 .8584,.347 1.6562,.4375l.7812,.125c2.2619,.2879 3.7499,.717 4.5312,1.375 .7814,.658 1.1875,1.7185 1.1875,3.125 0,1.4723-.5393,2.5722-1.625,3.3125-1.0857,.7403-2.72,1.0938-4.875,1.0938-.913,0-1.865-.0707-2.8438-.2188-.9706-.1398-1.9719-.3371-3-.625v-3.375c.8801,.4277 1.7975,.7549 2.7188,.9688 .9294,.2138 1.8584,.3125 2.8125,.3125 .8636,0 1.5328-.1365 1.9688-.375 .4359-.2385 .6562-.5624 .6562-1.0312 0-.3948-.1644-.6858-.4688-.875-.2961-.1974-.8847-.3618-1.7812-.4688l-.7812-.0938c-1.9658-.2468-3.3354-.7088-4.125-1.375-.7896-.6662-1.1875-1.6741-1.1875-3.0312 0-1.4641 .4965-2.5426 1.5-3.25 1.0034-.7073 2.5523-1.0625 4.625-1.0625zm26.0625,0c.8143,0 1.6659,.0329 2.5625,.1562 .8965,.1234 1.8847,.3306 2.9375,.5938v3.375c-.9459-.3948-1.8699-.7088-2.75-.9062-.8801-.1974-1.7186-.2812-2.5-.2812-.839,0-1.4637,.0987-1.875,.3125-.403,.2056-.625,.5328-.625,.9688 0,.3537 .1644,.6233 .4688,.8125 .3125,.1892 .8897,.347 1.6875,.4375l.75,.125c2.2619,.2879 3.8124,.717 4.5938,1.375 .7814,.658 1.1562,1.7185 1.1562,3.125 0,1.4723-.5393,2.5722-1.625,3.3125-1.0857,.7403-2.6888,1.0938-4.8438,1.0938-.913,0-1.865-.0707-2.8438-.2188-.9706-.1398-1.9719-.3371-3-.625v-3.375c.8801,.4277 1.7663,.7549 2.6875,.9688 .9294,.2138 1.8896,.3125 2.8438,.3125 .8636,0 1.5016-.1365 1.9375-.375 .4359-.2385 .6562-.5624 .6562-1.0312 0-.3948-.1644-.6858-.4688-.875-.2961-.1974-.8847-.3618-1.7812-.4688l-.7812-.0938c-1.9658-.2468-3.3666-.7088-4.1562-1.375-.7896-.6662-1.1562-1.6741-1.1562-3.0312 0-1.4641 .4965-2.5426 1.5-3.25 1.0034-.7073 2.5523-1.0625 4.625-1.0625zm41.9375,0c.8143,0 1.6972,.0329 2.5938,.1562 .8965,.1234 1.8222,.3306 2.875,.5938v3.375c-.9459-.3948-1.8387-.7088-2.7188-.9062-.8801-.1974-1.7186-.2812-2.5-.2812-.839,0-1.4637,.0987-1.875,.3125-.403,.2056-.5938,.5328-.5938,.9688 0,.3537 .1332,.6233 .4375,.8125 .3126,.1892 .8897,.347 1.6875,.4375l.75,.125c2.2619,.2879 3.8124,.717 4.5938,1.375 .7814,.658 1.1562,1.7185 1.1562,3.125 0,1.4723-.5393,2.5722-1.625,3.3125-1.0857,.7403-2.6888,1.0938-4.8438,1.0938-.913,0-1.865-.0707-2.8438-.2188-.9706-.1398-1.9719-.3371-3-.625v-3.375c.8801,.4277 1.7975,.7549 2.7188,.9688 .9294,.2138 1.8584,.3125 2.8125,.3125 .8636,0 1.5016-.1365 1.9375-.375 .4359-.2385 .6562-.5624 .6562-1.0312 0-.3948-.1332-.6858-.4375-.875-.2961-.1974-.916-.3618-1.8125-.4688l-.75-.0938c-1.9658-.2468-3.3666-.7088-4.1562-1.375-.7896-.6662-1.1875-1.6741-1.1875-3.0312 0-1.4641 .4965-2.5426 1.5-3.25 1.0034-.7073 2.5523-1.0625 4.625-1.0625zm51.5625,0c.8143,0 1.6972,.0329 2.5938,.1562 .8965,.1234 1.8534,.3306 2.9062,.5938v3.375c-.9459-.3948-1.8387-.7088-2.7188-.9062-.8801-.1974-1.7186-.2812-2.5-.2812-.839,0-1.495,.0987-1.9062,.3125-.403,.2056-.5625,.5328-.5625,.9688 0,.3537 .1019,.6233 .4062,.8125 .3126,.1892 .8897,.347 1.6875,.4375l.7812,.125c2.2619,.2879 3.7811,.717 4.5625,1.375 .7814,.658 1.1562,1.7185 1.1562,3.125 0,1.4723-.5393,2.5722-1.625,3.3125-1.0857,.7403-2.6888,1.0938-4.8438,1.0938-.913,0-1.865-.0707-2.8438-.2188-.9706-.1398-1.9719-.3371-3-.625v-3.375c.8801,.4277 1.7975,.7549 2.7188,.9688 .9294,.2138 1.8584,.3125 2.8125,.3125 .8636,0 1.5016-.1365 1.9375-.375 .4359-.2385 .6562-.5624 .6562-1.0312 0-.3948-.1332-.6858-.4375-.875-.2961-.1974-.8847-.3618-1.7812-.4688l-.7812-.0938c-1.9658-.2468-3.3354-.7088-4.125-1.375-.7896-.6662-1.2188-1.6741-1.2188-3.0312 0-1.4641 .4965-2.5426 1.5-3.25 1.0034-.7073 2.5523-1.0625 4.625-1.0625zm-233.2188,.3125h4.4375v13.8125h-4.4375v-13.8125zm219.25,0h4.4062v13.5625c0,1.8506-.4242,3.2794-1.3125,4.25-.8883,.9788-2.1889,1.4687-3.875,1.4688h-2.1875v-2.9062h.7812c.839,0 1.4062-.1529 1.7188-.5312 .3125-.3784 .4687-1.1709 .4688-2.2812v-13.5625zm-169.2188,2.875c-.9377,0-1.6545,.3716-2.1562,1.0625-.4935,.6909-.75,1.684-.75,3 0,1.316 .2565,2.3404 .75,3.0312 .5017,.6909 1.2186,1 2.1562,1 .9459,0 1.6627-.3091 2.1562-1 .5017-.6909 .75-1.7152 .75-3.0312 0-1.316-.2483-2.3091-.75-3-.4935-.6909-1.2104-1.0625-2.1562-1.0625zm46.6875,0c-.9377,0-1.6545,.3716-2.1562,1.0625-.4935,.6909-.75,1.684-.75,3 0,1.316 .2565,2.3404 .75,3.0312 .5017,.6909 1.2186,1 2.1562,1 .9459,0 1.6627-.3091 2.1562-1 .5017-.6909 .75-1.7152 .75-3.0312 0-1.316-.2483-2.3091-.75-3-.4935-.6909-1.2104-1.0625-2.1562-1.0625zm68.0312,0c-.9377,0-1.6858,.3716-2.1875,1.0625-.4935,.6909-.7188,1.684-.7188,3 0,1.316 .2252,2.3404 .7188,3.0312 .5017,.6909 1.2498,1 2.1875,1 .9459,0 1.6627-.3091 2.1562-1 .5017-.6909 .75-1.7152 .75-3.0312 0-1.316-.2483-2.3091-.75-3-.4935-.6909-1.2104-1.0625-2.1562-1.0625zm84.7188,0c-.9377,0-1.6545,.3716-2.1562,1.0625-.4935,.6909-.75,1.684-.75,3 0,1.316 .2565,2.3404 .75,3.0312 .5017,.6909 1.2186,1 2.1562,1 .9459,0 1.6627-.3091 2.1562-1 .5017-.6909 .75-1.7152 .75-3.0312 0-1.316-.2483-2.3091-.75-3-.4935-.6909-1.2104-1.0625-2.1562-1.0625zm-225,23.3438h4.4375v19.2188h-4.4375v-2c-.6087,.8143-1.268,1.4029-2,1.7812-.732,.3784-1.6002,.5625-2.5625,.5625-1.7026,0-3.0623-.6511-4.1562-2-1.0939-1.3571-1.6563-3.151-1.6562-5.2812 0-2.1303 .5623-3.8386 1.6562-5.1875 1.0939-1.3571 2.4536-2.0312 4.1562-2.0312 .9541,0 1.7992,.1759 2.5312,.5625 .7403,.3784 1.4226,.9752 2.0312,1.7812v-7.4062zm14.4062,0h3.4062v2.9062h-2.4375c-.6251,0-1.097,.1135-1.3438,.3438-.2468,.2221-.3438,.597-.3438,1.1562v.9688h3.7812v3.1875h-3.7812v10.6562h-4.4062v-10.6562h-2.1875v-3.1875h2.1875v-.9688c0-1.5052 .411-2.5969 1.25-3.3125 .839-.7238 2.1148-1.0937 3.875-1.0938zm5.3125,0h4.4375v10.4688l5.0625-5.0938h5.125l-6.75,6.375 7.2812,7.4688h-5.3438l-5.375-5.7812v5.7812h-4.4375v-19.2188zm35.0312,0h4.4375v19.2188h-4.4375v-2c-.6087,.8143-1.2992,1.4029-2.0312,1.7812-.732,.3784-1.5689,.5625-2.5312,.5625-1.7026,0-3.0936-.6511-4.1875-2-1.0939-1.3571-1.6563-3.151-1.6562-5.2812 0-2.1303 .5623-3.8386 1.6562-5.1875 1.0939-1.3571 2.4849-2.0312 4.1875-2.0312 .9541,0 1.768,.1759 2.5,.5625 .7402,.3784 1.4538,.9752 2.0625,1.7812v-7.4062zm29.4688,0h3.375v2.9062h-2.4375c-.6251,0-1.0658,.1135-1.3125,.3438-.2467,.2221-.375,.597-.375,1.1562v.9688h3.7812v3.1875h-3.7812v10.6562h-4.4062v-10.6562h-2.1875v-3.1875h2.1875v-.9688c0-1.5052 .411-2.5969 1.25-3.3125 .839-.7238 2.1461-1.0937 3.9062-1.0938zm14.6875,0h4.4375v19.2188h-4.4375v-2c-.6087,.8143-1.2992,1.4029-2.0312,1.7812-.732,.3784-1.5689,.5625-2.5312,.5625-1.7026,0-3.0936-.6511-4.1875-2-1.0939-1.3571-1.6562-3.151-1.6562-5.2812 0-2.1303 .5623-3.8386 1.6562-5.1875 1.0939-1.3571 2.4849-2.0312 4.1875-2.0312 .9541,0 1.7992,.1759 2.5312,.5625 .7403,.3784 1.4226,.9752 2.0312,1.7812v-7.4062zm14.4062,0h3.375v2.9062h-2.4375c-.6251,0-1.0345,.1135-1.2812,.3438-.2468,.2221-.375,.597-.375,1.1562v.9688h3.75v3.1875h-3.75v10.6562h-4.4375v-10.6562h-2.1875v-3.1875h2.1875v-.9688c0-1.5052 .4423-2.5969 1.2812-3.3125 .839-.7238 2.1148-1.0937 3.875-1.0938zm19.8125,0h3.375v2.9062h-2.4375c-.6251,0-1.0657,.1135-1.3125,.3438-.2468,.2221-.375,.597-.375,1.1562v.9688h3.7812v3.1875h-3.7812v10.6562h-4.4062v-10.6562h-2.1875v-3.1875h2.1875v-.9688c0-1.5052 .411-2.5969 1.25-3.3125 .839-.7238 2.1461-1.0937 3.9062-1.0938zm20.3438,0h4.4062v3.625h-4.4062v-3.625zm18.0625,0h4.4688v19.2188h-4.4688v-2c-.6087,.8143-1.268,1.4029-2,1.7812-.732,.3784-1.5689,.5625-2.5312,.5625-1.7026,0-3.1248-.6511-4.2188-2-1.0939-1.3571-1.625-3.151-1.625-5.2812 0-2.1303 .5311-3.8386 1.625-5.1875 1.0939-1.3571 2.5162-2.0312 4.2188-2.0312 .9541,0 1.7992,.1759 2.5312,.5625 .7403,.3784 1.3913,.9752 2,1.7812v-7.4062zm8.7188,0h4.4375v10.4688l5.0938-5.0938h5.125l-6.7812,6.375 7.3125,7.4688h-5.3438l-5.4062-5.7812v5.7812h-4.4375v-19.2188zm22.5625,0h3.375v2.9062h-2.4375c-.6251,0-1.0657,.1135-1.3125,.3438-.2468,.2221-.375,.597-.375,1.1562v.9688h3.7812v3.1875h-3.7812v10.6562h-4.4062v-10.6562h-2.1875v-3.1875h2.1875v-.9688c0-1.5052 .3798-2.5969 1.2188-3.3125 .839-.7238 2.1773-1.0937 3.9375-1.0938zm5.2812,0h4.4062v10.4688l5.0938-5.0938h5.125l-6.75,6.375 7.3125,7.4688h-5.4062l-5.375-5.7812v5.7812h-4.4062v-19.2188zm47.7812,0h3.3438v2.9062h-2.4375c-.6251,0-1.0345,.1135-1.2812,.3438-.2468,.2221-.375,.597-.375,1.1562v.9688h3.7812v3.1875h-3.7812v10.6562h-4.4062v-10.6562h-2.2188v-3.1875h2.2188v-.9688c0-1.5052 .3798-2.5969 1.2188-3.3125 .839-.7238 2.1773-1.0937 3.9375-1.0938zm20.3125,0h4.4375v10.4688l5.0625-5.0938h5.125l-6.75,6.375 7.3125,7.4688h-5.375l-5.375-5.7812v5.7812h-4.4375v-19.2188zm16.8438,0h4.4375v3.625h-4.4375v-3.625zm14.4062,0h3.375v2.9062h-2.4375c-.6251,0-1.0658,.1135-1.3125,.3438-.2468,.2221-.375,.597-.375,1.1562v.9688h3.7812v3.1875h-3.7812v10.6562h-4.4062v-10.6562h-2.1875v-3.1875h2.1875v-.9688c0-1.5052 .3798-2.5969 1.2188-3.3125 .839-.7238 2.1773-1.0937 3.9375-1.0938zm36.9062,0h3.375v2.9062h-2.4375c-.6251,0-1.0657,.1135-1.3125,.3438-.2468,.2221-.375,.597-.375,1.1562v.9688h3.7812v3.1875h-3.7812v10.6562h-4.4062v-10.6562h-2.2188v-3.1875h2.2188v-.9688c0-1.5052 .411-2.5969 1.25-3.3125 .839-.7238 2.1461-1.0937 3.9062-1.0938zm14.6875,0h4.4375v19.2188h-4.4375v-2c-.6087,.8143-1.268,1.4029-2,1.7812-.732,.3784-1.6002,.5625-2.5625,.5625-1.7026,0-3.0936-.6511-4.1875-2-1.094-1.3571-1.625-3.151-1.625-5.2812 0-2.1303 .531-3.8386 1.625-5.1875 1.0939-1.3571 2.4849-2.0312 4.1875-2.0312 .9541,0 1.7992,.1759 2.5312,.5625 .7403,.3784 1.4226,.9752 2.0312,1.7812v-7.4062zm14.4062,0h3.4062v2.9062h-2.4375c-.6251,0-1.097,.1135-1.3438,.3438-.2468,.2221-.375,.597-.375,1.1562v.9688h3.8125v3.1875h-3.8125v10.6562h-4.375v-10.6562h-2.2188v-3.1875h2.2188v-.9688c0-1.5052 .411-2.5969 1.25-3.3125 .839-.7238 2.1148-1.0937 3.875-1.0938zm14.7188,0h4.4375v19.2188h-4.4375v-2c-.6087,.8143-1.2992,1.4029-2.0312,1.7812-.732,.3784-1.5689,.5625-2.5312,.5625-1.7026,0-3.0936-.6511-4.1875-2-1.0939-1.3571-1.625-3.151-1.625-5.2812 0-2.1303 .5311-3.8386 1.625-5.1875 1.0939-1.3571 2.4849-2.0312 4.1875-2.0312 .9541,0 1.7992,.1759 2.5312,.5625 .7402,.3784 1.4226,.9752 2.0312,1.7812v-7.4062zm14.4375,0h3.3438v2.9062h-2.4375c-.6251,0-1.0345,.1135-1.2812,.3438-.2468,.2221-.375,.597-.375,1.1562v.9688h3.75v3.1875h-3.75v10.6562h-4.4375v-10.6562h-2.1875v-3.1875h2.1875v-.9688c0-1.5052 .4423-2.5969 1.2812-3.3125 .839-.7238 2.1461-1.0937 3.9062-1.0938zm-421.75,5.0625c.8143,0 1.666,.0641 2.5625,.1875 .8965,.1234 1.8847,.2993 2.9375,.5625v3.375c-.9459-.3948-1.8699-.7088-2.75-.9062-.8801-.1974-1.7186-.2812-2.5-.2812-.839,0-1.4325,.0987-1.8438,.3125-.403,.2056-.625,.5328-.625,.9688 0,.3537 .1644,.6233 .4688,.8125 .3125,.1892 .8584,.3158 1.6562,.4062l.7812,.125c2.2619,.2879 3.8124,.7795 4.5938,1.4375 .7814,.658 1.1562,1.656 1.1562,3.0625 0,1.4723-.5393,2.5722-1.625,3.3125-1.0857,.7403-2.72,1.125-4.875,1.125-.913,0-1.865-.0707-2.8438-.2188-.9706-.1398-1.9406-.3684-2.9688-.6562v-3.3438c.8801,.4277 1.7663,.7549 2.6875,.9688 .9294,.2138 1.8896,.3125 2.8438,.3125 .8636,0 1.5016-.1052 1.9375-.3438 .4359-.2385 .6562-.6249 .6562-1.0938 0-.3948-.1644-.6546-.4688-.8438-.2961-.1974-.916-.3618-1.8125-.4688l-.75-.0938c-1.9658-.2468-3.3666-.7088-4.1562-1.375-.7896-.6662-1.1563-1.6741-1.1562-3.0312 0-1.464 .4965-2.5426 1.5-3.25 1.0035-.7074 2.521-1.0625 4.5938-1.0625zm87.9062,0c.8143,0 1.6972,.0641 2.5938,.1875 .8965,.1234 1.8534,.2993 2.9062,.5625v3.375c-.9459-.3948-1.8387-.7088-2.7188-.9062-.8801-.1974-1.7499-.2812-2.5312-.2812-.839,0-1.4638,.0987-1.875,.3125-.403,.2056-.5938,.5328-.5938,.9688 0,.3537 .1332,.6233 .4375,.8125 .3125,.1892 .8896,.3158 1.6875,.4062l.75,.125c2.2619,.2879 3.8124,.7795 4.5938,1.4375 .7814,.658 1.1562,1.656 1.1562,3.0625 0,1.4723-.5393,2.5722-1.625,3.3125-1.0857,.7403-2.6888,1.125-4.8438,1.125-.913,0-1.865-.0707-2.8438-.2188-.9706-.1398-1.9719-.3684-3-.6562v-3.3438c.8801,.4277 1.7975,.7549 2.7188,.9688 .9294,.2138 1.8584,.3125 2.8125,.3125 .8636,0 1.5016-.1052 1.9375-.3438 .4359-.2385 .6562-.6249 .6562-1.0938 0-.3948-.1332-.6546-.4375-.8438-.2961-.1974-.8847-.3618-1.7812-.4688l-.7812-.0938c-1.9658-.2468-3.3666-.7088-4.1562-1.375-.7896-.6662-1.1875-1.6741-1.1875-3.0312 0-1.464 .4966-2.5426 1.5-3.25 1.0035-.7074 2.5523-1.0625 4.625-1.0625zm74.9688,0c.8143,0 1.666,.0641 2.5625,.1875 .8965,.1234 1.8534,.2993 2.9062,.5625v3.375c-.9459-.3948-1.8387-.7088-2.7188-.9062-.8801-.1974-1.7186-.2812-2.5-.2812-.839,0-1.4638,.0987-1.875,.3125-.403,.2056-.5938,.5328-.5938,.9688 0,.3537 .1332,.6233 .4375,.8125 .3125,.1892 .8584,.3158 1.6562,.4062l.7812,.125c2.2619,.2879 3.7811,.7795 4.5625,1.4375 .7814,.658 1.1875,1.656 1.1875,3.0625 0,1.4723-.5393,2.5722-1.625,3.3125-1.0857,.7403-2.72,1.125-4.875,1.125-.913,0-1.865-.0707-2.8438-.2188-.9706-.1398-1.9406-.3684-2.9688-.6562v-3.3438c.8801,.4277 1.7975,.7549 2.7188,.9688 .9294,.2138 1.8584,.3125 2.8125,.3125 .8636,0 1.5016-.1052 1.9375-.3438 .4359-.2385 .6562-.6249 .6562-1.0938 0-.3948-.1332-.6546-.4375-.8438-.2961-.1974-.916-.3618-1.8125-.4688l-.75-.0938c-1.9658-.2468-3.3666-.7088-4.1562-1.375-.7896-.6662-1.1875-1.6741-1.1875-3.0312 0-1.464 .4965-2.5426 1.5-3.25 1.0035-.7074 2.5523-1.0625 4.625-1.0625zm87.1562,0c2.1714,0 3.8879,.6297 5.1875,1.9375 1.3078,1.3078 1.9687,3.0621 1.9688,5.25v1.2812h-10.3438c.1069,1.0364 .5147,1.7943 1.1562,2.3125 .6415,.5182 1.536,.7813 2.6875,.7812 .9294,0 1.8732-.1348 2.8438-.4062 .9788-.2797 1.9406-.7219 2.9688-1.2812v3.4062c-1.0446,.3948-2.0492,.7088-3.0938,.9062-1.0446,.2056-2.0804,.3125-3.125,.3125-2.5004,0-4.4537-.6083-5.8438-1.875-1.3818-1.2749-2.0625-3.1114-2.0625-5.4062 0-2.2537 .6741-4.0211 2.0312-5.3125 1.3654-1.2913 3.2397-1.9062 5.625-1.9062zm35.5938,0c.8143,0 1.666,.0641 2.5625,.1875 .8965,.1234 1.8534,.2993 2.9062,.5625v3.375c-.9459-.3948-1.8387-.7088-2.7188-.9062-.8801-.1974-1.7186-.2812-2.5-.2812-.839,0-1.495,.0987-1.9062,.3125-.403,.2056-.5625,.5328-.5625,.9688 0,.3537 .1332,.6233 .4375,.8125 .3125,.1892 .8584,.3158 1.6562,.4062l.7812,.125c2.2619,.2879 3.7811,.7795 4.5625,1.4375 .7814,.658 1.1875,1.656 1.1875,3.0625 0,1.4723-.5706,2.5722-1.6562,3.3125-1.0857,.7403-2.6888,1.125-4.8438,1.125-.913,0-1.865-.0707-2.8438-.2188-.9706-.1398-1.9719-.3684-3-.6562v-3.3438c.8801,.4277 1.7975,.7549 2.7188,.9688 .9294,.2138 1.8584,.3125 2.8125,.3125 .8636,0 1.5016-.1052 1.9375-.3438 .4359-.2385 .6562-.6249 .6562-1.0938 0-.3948-.1332-.6546-.4375-.8438-.2961-.1974-.8847-.3618-1.7812-.4688l-.7812-.0938c-1.9658-.2468-3.3354-.7088-4.125-1.375-.7896-.6662-1.2188-1.6741-1.2188-3.0312 0-1.464 .5278-2.5426 1.5312-3.25 1.0034-.7074 2.5523-1.0625 4.625-1.0625zm52.875,0c2.1714,0 3.9192,.6297 5.2188,1.9375 1.3078,1.3078 1.9375,3.0621 1.9375,5.25v1.2812h-10.3125c.1069,1.0364 .4522,1.7943 1.0938,2.3125 .6415,.5182 1.536,.7813 2.6875,.7812 .9294,0 1.9044-.1348 2.875-.4062 .9788-.2797 1.9719-.7219 3-1.2812v3.4062c-1.0446,.3948-2.0804,.7088-3.125,.9062-1.0446,.2056-2.0804,.3125-3.125,.3125-2.5004,0-4.4537-.6083-5.8438-1.875-1.3818-1.2749-2.0938-3.1114-2.0938-5.4062 0-2.2537 .7054-4.0211 2.0625-5.3125 1.3654-1.2913 3.2397-1.9062 5.625-1.9062zm-165.875,.3125h4.4062v13.5938c0,1.8506-.4242,3.2794-1.3125,4.25-.8883,.9788-2.1889,1.4375-3.875,1.4375h-2.1875v-2.9062h.7812c.839,0 1.4062-.1841 1.7188-.5625 .3125-.3784 .4688-1.1084 .4688-2.2188v-13.5938zm139.5625,0h4.4375v13.5938c0,1.8506-.4867,3.2794-1.375,4.25-.8883,.9788-2.1576,1.4375-3.8438,1.4375h-2.1875v-2.9062h.75c.839,0 1.4062-.1841 1.7188-.5625 .3126-.3784 .5-1.1084 .5-2.2188v-13.5938zm-62.1875,2.625c-.8554,0-1.5591,.2335-2.0938,.7188-.5346,.4771-.8684,1.1577-1,2.0625h5.75c0-.839-.2565-1.49-.75-2-.4853-.5182-1.1166-.7812-1.9062-.7812zm88.4688,0c-.8554,0-1.5591,.2335-2.0938,.7188-.5346,.4771-.8372,1.1577-.9688,2.0625h5.7188c0-.839-.2565-1.49-.75-2-.4853-.5182-1.1166-.7812-1.9062-.7812zm-322.2188,.25c-.9377,0-1.6545,.3716-2.1562,1.0625-.4935,.6909-.7188,1.6527-.7188,2.9688 0,1.316 .2252,2.3404 .7188,3.0312 .5017,.6909 1.2186,1.0312 2.1562,1.0312 .9459,0 1.6627-.3404 2.1562-1.0312 .5017-.6909 .75-1.7152 .75-3.0312 0-1.316-.2483-2.2778-.75-2.9688-.4935-.6909-1.2104-1.0625-2.1562-1.0625zm54.75,0c-.9377,0-1.6858,.3716-2.1875,1.0625-.4935,.6909-.7188,1.6527-.7188,2.9688 0,1.316 .2252,2.3404 .7188,3.0312 .5017,.6909 1.2498,1.0312 2.1875,1.0312 .9459,0 1.6627-.3404 2.1562-1.0312 .5017-.6909 .75-1.7152 .75-3.0312 0-1.316-.2483-2.2778-.75-2.9688-.4935-.6909-1.2104-1.0625-2.1562-1.0625zm44.1562,0c-.9377,0-1.6858,.3716-2.1875,1.0625-.4935,.6909-.7188,1.6527-.7188,2.9688 0,1.316 .2252,2.3404 .7188,3.0312 .5017,.6909 1.2498,1.0312 2.1875,1.0312 .9459,0 1.6627-.3404 2.1562-1.0312 .5017-.6909 .75-1.7152 .75-3.0312 0-1.316-.2483-2.2778-.75-2.9688-.4935-.6909-1.2104-1.0625-2.1562-1.0625zm72.625,0c-.9377,0-1.6545,.3716-2.1562,1.0625-.4935,.6909-.75,1.6527-.75,2.9688 0,1.316 .2565,2.3404 .75,3.0312 .5017,.6909 1.2186,1.0312 2.1562,1.0312 .9459,0 1.694-.3404 2.1875-1.0312 .5017-.6909 .7187-1.7152 .7188-3.0312 0-1.316-.217-2.2778-.7188-2.9688-.4935-.6909-1.2416-1.0625-2.1875-1.0625zm187.4688,0c-.9377,0-1.6233,.3716-2.125,1.0625-.4935,.6909-.75,1.6527-.75,2.9688 0,1.316 .2565,2.3404 .75,3.0312 .5017,.6909 1.1873,1.0312 2.125,1.0312 .9459,0 1.694-.3404 2.1875-1.0312 .5017-.6909 .75-1.7152 .75-3.0312 0-1.316-.2483-2.2778-.75-2.9688-.4935-.6909-1.2416-1.0625-2.1875-1.0625zm29.1562,0c-.9377,0-1.6545,.3716-2.1562,1.0625-.4935,.6909-.75,1.6527-.75,2.9688 0,1.316 .2565,2.3404 .75,3.0312 .5017,.6909 1.2186,1.0312 2.1562,1.0312 .9459,0 1.6627-.3404 2.1562-1.0312 .5017-.6909 .75-1.7152 .75-3.0312 0-1.316-.2483-2.2778-.75-2.9688-.4935-.6909-1.2104-1.0625-2.1562-1.0625zm-400.2812,23.3125h4.4062v19.25h-4.4062v-2.0312c-.6087,.8143-1.268,1.4341-2,1.8125-.732,.3784-1.6002,.5312-2.5625,.5312-1.7026,0-3.0936-.6511-4.1875-2-1.0939-1.3571-1.6563-3.0885-1.6562-5.2188 0-2.1303 .5623-3.8698 1.6562-5.2188 1.0939-1.3571 2.4849-2.0312 4.1875-2.0312 .9541,0 1.7992,.1759 2.5312,.5625 .7402,.3784 1.4226,.9752 2.0312,1.7812v-7.4375zm8.6875,0h4.4062v3.625h-4.4062v-3.625zm23.75,0h4.4375v3.625h-4.4375v-3.625zm14.4062,0h3.375v2.9062h-2.4375c-.6251,0-1.0658,.1135-1.3125,.3438-.2468,.2221-.375,.6282-.375,1.1875v1h3.7812v3.125h-3.7812v10.6875h-4.4062v-10.6875h-2.1875v-3.125h2.1875v-1c0-1.5052 .3798-2.5969 1.2188-3.3125 .839-.7238 2.1773-1.125 3.9375-1.125zm29.0938,0h4.4375v10.5l5.0938-5.0625h5.125l-6.75,6.3125 7.2812,7.5h-5.3438l-5.4062-5.7812v5.7812h-4.4375v-19.25zm16.8438,0h4.4375v3.625h-4.4375v-3.625zm8.6875,0h4.4375v10.5l5.0938-5.0625h5.125l-6.7812,6.3125 7.3125,7.5h-5.375l-5.375-5.7812v5.7812h-4.4375v-19.25zm26.25,0h4.4375v19.25h-4.4375v-2.0312c-.6087,.8143-1.2992,1.4341-2.0312,1.8125-.732,.3784-1.5689,.5312-2.5312,.5312-1.7026,0-3.0936-.6511-4.1875-2-1.094-1.3571-1.6562-3.0885-1.6562-5.2188 0-2.1303 .5623-3.8698 1.6562-5.2188 1.0939-1.3571 2.4849-2.0312 4.1875-2.0312 .9541,0 1.768,.1759 2.5,.5625 .7403,.3784 1.4538,.9752 2.0625,1.7812v-7.4375zm29.4688,0h3.375v2.9062h-2.4375c-.6251,0-1.0658,.1135-1.3125,.3438-.2467,.2221-.375,.6282-.375,1.1875v1h3.7812v3.125h-3.7812v10.6875h-4.4062v-10.6875h-2.1875v-3.125h2.1875v-1c0-1.5052 .411-2.5969 1.25-3.3125 .839-.7238 2.1461-1.125 3.9062-1.125zm14.0625,0h4.4062v10.5l5.0938-5.0625h5.1562l-6.75,6.3125 7.25,7.5h-5.3438l-5.4062-5.7812v5.7812h-4.4062v-19.25zm16.8438,0h4.4062v3.625h-4.4062v-3.625zm18.0625,0h4.4688v19.25h-4.4688v-2.0312c-.6087,.8143-1.268,1.4341-2,1.8125-.7321,.3784-1.5689,.5312-2.5312,.5312-1.7026,0-3.1248-.6511-4.2188-2-1.094-1.3571-1.625-3.0885-1.625-5.2188 0-2.1303 .531-3.8698 1.625-5.2188 1.0939-1.3571 2.5161-2.0312 4.2188-2.0312 .9541,0 1.7992,.1759 2.5312,.5625 .7403,.3784 1.3913,.9752 2,1.7812v-7.4375zm23.7812,0h4.4062v10.5l5.0938-5.0625h5.125l-6.75,6.3125 7.2812,7.5h-5.3438l-5.4062-5.7812v5.7812h-4.4062v-19.25zm22.5312,0h3.375v2.9062h-2.4375c-.6251,0-1.0345,.1135-1.2812,.3438-.2468,.2221-.375,.6282-.375,1.1875v1h3.75v3.125h-3.75v10.6875h-4.4375v-10.6875h-2.1875v-3.125h2.1875v-1c0-1.5052 .4423-2.5969 1.2812-3.3125 .839-.7238 2.1148-1.125 3.875-1.125zm23.5,0h4.4062v19.25h-4.4062v-2.0312c-.6087,.8143-1.268,1.4341-2,1.8125-.732,.3784-1.6002,.5312-2.5625,.5312-1.7026,0-3.0936-.6511-4.1875-2-1.0939-1.3571-1.6562-3.0885-1.6562-5.2188 0-2.1303 .5623-3.8698 1.6562-5.2188 1.0939-1.3571 2.4849-2.0312 4.1875-2.0312 .9541,0 1.7992,.1759 2.5312,.5625 .7403,.3784 1.4226,.9752 2.0312,1.7812v-7.4375zm14.4062,0h3.375v2.9062h-2.4375c-.6251,0-1.0658,.1135-1.3125,.3438-.2468,.2221-.375,.6282-.375,1.1875v1h3.8125v3.125h-3.8125v10.6875h-4.4062v-10.6875h-2.2188v-3.125h2.2188v-1c0-1.5052 .411-2.5969 1.25-3.3125 .839-.7238 2.1461-1.125 3.9062-1.125zm29.75,0h4.4375v19.25h-4.4375v-2.0312c-.6087,.8143-1.268,1.4341-2,1.8125-.7321,.3784-1.5689,.5312-2.5312,.5312-1.7026,0-3.1248-.6511-4.2188-2-1.094-1.3571-1.625-3.0885-1.625-5.2188 0-2.1303 .531-3.8698 1.625-5.2188 1.0939-1.3571 2.5161-2.0312 4.2188-2.0312 .9541,0 1.7992,.1759 2.5312,.5625 .7402,.3784 1.3913,.9752 2,1.7812v-7.4375zm41.9688,0h4.4062v19.25h-4.4062v-2.0312c-.6087,.8143-1.2992,1.4341-2.0312,1.8125-.732,.3784-1.6002,.5312-2.5625,.5312-1.7026,0-3.0623-.6511-4.1562-2-1.0939-1.3571-1.6875-3.0885-1.6875-5.2188 0-2.1303 .5936-3.8698 1.6875-5.2188 1.0939-1.3571 2.4536-2.0312 4.1562-2.0312 .9541,0 1.7992,.1759 2.5312,.5625 .7403,.3784 1.4538,.9752 2.0625,1.7812v-7.4375zm14.375,0h3.4062v2.9062h-2.4375c-.6251,0-1.0657,.1135-1.3125,.3438-.2468,.2221-.375,.6282-.375,1.1875v1h3.7812v3.125h-3.7812v10.6875h-4.4375v-10.6875h-2.1875v-3.125h2.1875v-1c0-1.5052 .4423-2.5969 1.2812-3.3125 .839-.7238 2.1148-1.125 3.875-1.125zm5.3438,0h4.4062v3.625h-4.4062v-3.625zm8.6562,0h4.4375v10.5l5.0625-5.0625h5.125l-6.7188,6.3125 7.25,7.5h-5.3438l-5.375-5.7812v5.7812h-4.4375v-19.25zm26.25,0h4.4062v19.25h-4.4062v-2.0312c-.6087,.8143-1.268,1.4341-2,1.8125-.732,.3784-1.6002,.5312-2.5625,.5312-1.7026,0-3.0936-.6511-4.1875-2-1.0939-1.3571-1.6562-3.0885-1.6562-5.2188 0-2.1303 .5623-3.8698 1.6562-5.2188 1.0939-1.3571 2.4849-2.0312 4.1875-2.0312 .9541,0 1.7992,.1759 2.5312,.5625 .7403,.3784 1.4226,.9752 2.0312,1.7812v-7.4375zm-394.0312,5.0938c.8143,0 1.6659,.0641 2.5625,.1875 .8965,.1234 1.8847,.2993 2.9375,.5625v3.3438c-.9459-.3948-1.8699-.7088-2.75-.9062-.8801-.1974-1.6874-.25-2.4688-.25-.839,0-1.495,.0675-1.9062,.2812-.403,.2056-.5938,.5328-.5938,.9688 0,.3537 .1332,.6546 .4375,.8438 .3126,.1892 .8897,.3158 1.6875,.4062l.75,.125c2.2619,.2879 3.8123,.7483 4.5938,1.4062 .7814,.658 1.1562,1.6873 1.1562,3.0938 0,1.4723-.5393,2.5722-1.625,3.3125-1.0857,.7403-2.6888,1.0938-4.8438,1.0938-.913,0-1.865-.0707-2.8438-.2188-.9706-.1398-1.9719-.3371-3-.625v-3.3438c.8801,.4277 1.7663,.7549 2.6875,.9688 .9294,.2138 1.8896,.2812 2.8438,.2812 .8636,0 1.5016-.074 1.9375-.3125 .4359-.2385 .6562-.6249 .6562-1.0938 0-.3948-.1644-.6858-.4688-.875-.2961-.1974-.8847-.3618-1.7812-.4688l-.7812-.0938c-1.9658-.2468-3.3354-.6775-4.125-1.3438-.7896-.6662-1.1875-1.6741-1.1875-3.0312 0-1.4641 .4965-2.5739 1.5-3.2812 1.0035-.7074 2.5523-1.0312 4.625-1.0312zm34.75,0c.8143,0 1.6659,.0641 2.5625,.1875 .8965,.1234 1.8534,.2993 2.9062,.5625v3.3438c-.9459-.3948-1.8387-.7088-2.7188-.9062-.8801-.1974-1.7186-.25-2.5-.25-.839,0-1.4637,.0675-1.875,.2812-.403,.2056-.5938,.5328-.5938,.9688 0,.3537 .1644,.6546 .4688,.8438 .3126,.1892 .8272,.3158 1.625,.4062l.8125,.125c2.2619,.2879 3.7498,.7483 4.5312,1.4062 .7814,.658 1.1875,1.6873 1.1875,3.0938 0,1.4723-.5393,2.5722-1.625,3.3125-1.0857,.7403-2.72,1.0938-4.875,1.0938-.913,0-1.865-.0707-2.8438-.2188-.9706-.1398-1.9719-.3371-3-.625v-3.3438c.8801,.4277 1.7975,.7549 2.7188,.9688 .9294,.2138 1.8584,.2812 2.8125,.2812 .8636,0 1.5328-.074 1.9688-.3125 .4359-.2385 .6562-.6249 .6562-1.0938 0-.3948-.1644-.6858-.4688-.875-.2961-.1974-.8847-.3618-1.7812-.4688l-.7812-.0938c-1.9658-.2468-3.3354-.6775-4.125-1.3438-.7896-.6662-1.1875-1.6741-1.1875-3.0312 0-1.4641 .4965-2.5739 1.5-3.2812 1.0035-.7074 2.5523-1.0312 4.625-1.0312zm84.3125,0c.8143,0 1.666,.0641 2.5625,.1875 .8965,.1234 1.8534,.2993 2.9062,.5625v3.3438c-.9459-.3948-1.8387-.7088-2.7188-.9062-.8801-.1974-1.7499-.25-2.5312-.25-.839,0-1.4638,.0675-1.875,.2812-.403,.2056-.5938,.5328-.5938,.9688 0,.3537 .1332,.6546 .4375,.8438 .3125,.1892 .8897,.3158 1.6875,.4062l.75,.125c2.2619,.2879 3.8124,.7483 4.5938,1.4062 .7814,.658 1.1562,1.6873 1.1562,3.0938 0,1.4723-.5393,2.5722-1.625,3.3125-1.0857,.7403-2.6888,1.0938-4.8438,1.0938-.913,0-1.865-.0707-2.8438-.2188-.9706-.1398-1.9719-.3371-3-.625v-3.3438c.8801,.4277 1.7976,.7549 2.7188,.9688 .9294,.2138 1.8584,.2812 2.8125,.2812 .8636,0 1.5016-.074 1.9375-.3125 .4359-.2385 .6562-.6249 .6562-1.0938 0-.3948-.1332-.6858-.4375-.875-.2961-.1974-.8847-.3618-1.7812-.4688l-.7812-.0938c-1.9658-.2468-3.3666-.6775-4.1562-1.3438-.7896-.6662-1.1875-1.6741-1.1875-3.0312 0-1.4641 .4965-2.5739 1.5-3.2812 1.0035-.7074 2.5835-1.0312 4.6562-1.0312zm78.4375,0c.8143,0 1.666,.0641 2.5625,.1875 .8965,.1234 1.8847,.2993 2.9375,.5625v3.3438c-.9459-.3948-1.8699-.7088-2.75-.9062-.8801-.1974-1.7186-.25-2.5-.25-.839,0-1.4325,.0675-1.8438,.2812-.4031,.2056-.625,.5328-.625,.9688 0,.3537 .1644,.6546 .4688,.8438 .3126,.1892 .8584,.3158 1.6562,.4062l.7812,.125c2.2619,.2879 3.7811,.7483 4.5625,1.4062 .7814,.658 1.1875,1.6873 1.1875,3.0938 0,1.4723-.5706,2.5722-1.6562,3.3125-1.0857,.7403-2.6888,1.0938-4.8438,1.0938-.913,0-1.865-.0707-2.8438-.2188-.9706-.1398-1.9719-.3371-3-.625v-3.3438c.8801,.4277 1.7663,.7549 2.6875,.9688 .9294,.2138 1.8896,.2812 2.8438,.2812 .8636,0 1.5328-.074 1.9688-.3125 .4359-.2385 .625-.6249 .625-1.0938 0-.3948-.1644-.6858-.4688-.875-.2961-.1974-.8847-.3618-1.7812-.4688l-.7812-.0938c-1.9658-.2468-3.3354-.6775-4.125-1.3438-.7896-.6662-1.1875-1.6741-1.1875-3.0312 0-1.4641 .5278-2.5739 1.5312-3.2812 1.0035-.7074 2.521-1.0312 4.5938-1.0312zm80.7812,0c.8143,0 1.6659,.0641 2.5625,.1875 .8965,.1234 1.8847,.2993 2.9375,.5625v3.3438c-.9459-.3948-1.8699-.7088-2.75-.9062-.8801-.1974-1.6874-.25-2.4688-.25-.839,0-1.495,.0675-1.9062,.2812-.403,.2056-.5625,.5328-.5625,.9688 0,.3537 .1019,.6546 .4062,.8438 .3125,.1892 .8897,.3158 1.6875,.4062l.7812,.125c2.2619,.2879 3.7811,.7483 4.5625,1.4062 .7814,.658 1.1562,1.6873 1.1562,3.0938 0,1.4723-.5393,2.5722-1.625,3.3125-1.0857,.7403-2.6888,1.0938-4.8438,1.0938-.913,0-1.865-.0707-2.8438-.2188-.9706-.1398-1.9719-.3371-3-.625v-3.3438c.8801,.4277 1.7975,.7549 2.7188,.9688 .9294,.2138 1.8584,.2812 2.8125,.2812 .8636,0 1.5016-.074 1.9375-.3125 .4359-.2385 .6562-.6249 .6562-1.0938 0-.3948-.1644-.6858-.4688-.875-.2961-.1974-.8535-.3618-1.75-.4688l-.8125-.0938c-1.9658-.2468-3.3041-.6775-4.0938-1.3438-.7896-.6662-1.2188-1.6741-1.2188-3.0312 0-1.4641 .4965-2.5739 1.5-3.2812 1.0034-.7074 2.5523-1.0312 4.625-1.0312zm41.9688,0c.8143,0 1.666,.0641 2.5625,.1875 .8965,.1234 1.8847,.2993 2.9375,.5625v3.3438c-.9459-.3948-1.8699-.7088-2.75-.9062-.8801-.1974-1.7186-.25-2.5-.25-.839,0-1.4638,.0675-1.875,.2812-.403,.2056-.625,.5328-.625,.9688 0,.3537 .1644,.6546 .4688,.8438 .3125,.1892 .8897,.3158 1.6875,.4062l.75,.125c2.2619,.2879 3.8123,.7483 4.5938,1.4062 .7814,.658 1.1562,1.6873 1.1562,3.0938 0,1.4723-.5393,2.5722-1.625,3.3125-1.0857,.7403-2.6888,1.0938-4.8438,1.0938-.913,0-1.865-.0707-2.8438-.2188-.9706-.1398-1.9719-.3371-3-.625v-3.3438c.8801,.4277 1.7663,.7549 2.6875,.9688 .9294,.2138 1.8896,.2812 2.8438,.2812 .8636,0 1.5016-.074 1.9375-.3125 .4359-.2385 .6562-.6249 .6562-1.0938 0-.3948-.1644-.6858-.4688-.875-.2961-.1974-.8847-.3618-1.7812-.4688l-.7812-.0938c-1.9658-.2468-3.3666-.6775-4.1562-1.3438-.7896-.6662-1.1562-1.6741-1.1562-3.0312 0-1.4641 .4965-2.5739 1.5-3.2812 1.0035-.7074 2.5523-1.0312 4.625-1.0312zm-334.25,.3438h4.4062v13.5625c0,1.8506-.4242,3.2482-1.3125,4.2188-.8883,.9788-2.1889,1.4688-3.875,1.4688h-2.1562v-2.9062h.75c.839,0 1.4062-.1841 1.7188-.5625 .3126-.3784 .4687-1.1084 .4688-2.2188v-13.5625zm23.75,0h4.4375v13.5625c0,1.8506-.4554,3.2482-1.3438,4.2188-.8883,.9788-2.1889,1.4688-3.875,1.4688h-2.1875v-2.9062h.7812c.839,0 1.4062-.1841 1.7188-.5625 .3126-.3784 .4687-1.1084 .4688-2.2188v-13.5625zm60.3438,0h4.4375v13.5625c0,1.8506-.4554,3.2482-1.3438,4.2188-.8883,.9788-2.1576,1.4688-3.8438,1.4688h-2.2188v-2.9062h.7812c.839,0 1.4062-.1841 1.7188-.5625 .3125-.3784 .4688-1.1084 .4688-2.2188v-13.5625zm95.3125,0h4.4062v13.5625c0,1.8506-.4242,3.2482-1.3125,4.2188-.8883,.9788-2.1889,1.4688-3.875,1.4688h-2.1875v-2.9062h.7812c.839,0 1.4062-.1841 1.7188-.5625 .3125-.3784 .4688-1.1084 .4688-2.2188v-13.5625zm193.7188,0h4.4062v13.5625c0,1.8506-.4867,3.2482-1.375,4.2188-.8883,.9788-2.1576,1.4688-3.8438,1.4688h-2.1562v-2.9062h.75c.839,0 1.4062-.1841 1.7188-.5625 .3126-.3784 .5-1.1084 .5-2.2188v-13.5625zm-384.75,2.8438c-.9377,0-1.6233,.3404-2.125,1.0312-.4935,.6909-.75,1.7152-.75,3.0312 0,1.316 .2565,2.3091 .75,3 .5017,.6909 1.1873,1.0625 2.125,1.0625 .9459,0 1.6627-.3716 2.1562-1.0625 .5017-.6909 .7812-1.684 .7812-3 0-1.316-.2795-2.3403-.7812-3.0312-.4935-.6909-1.2104-1.0312-2.1562-1.0312zm127.75,0c-.9377,0-1.6858,.3404-2.1875,1.0312-.4935,.6909-.7188,1.7152-.7188,3.0312 0,1.316 .2252,2.3091 .7188,3 .5017,.6909 1.2498,1.0625 2.1875,1.0625 .9459,0 1.6627-.3716 2.1562-1.0625 .5017-.6909 .75-1.684 .75-3 0-1.316-.2483-2.3403-.75-3.0312-.4935-.6909-1.2104-1.0312-2.1562-1.0312zm78.4375,0c-.9377,0-1.6545,.3404-2.1562,1.0312-.4935,.6909-.75,1.7152-.75,3.0312 0,1.316 .2565,2.3091 .75,3 .5017,.6909 1.2186,1.0625 2.1562,1.0625 .9459,0 1.6627-.3716 2.1562-1.0625 .5017-.6909 .75-1.684 .75-3 0-1.316-.2483-2.3403-.75-3.0312-.4935-.6909-1.2104-1.0312-2.1562-1.0312zm69.7812,0c-.9377,0-1.6233,.3404-2.125,1.0312-.4935,.6909-.75,1.7152-.75,3.0312 0,1.316 .2565,2.3091 .75,3 .5017,.6909 1.1873,1.0625 2.125,1.0625 .9459,0 1.6627-.3716 2.1562-1.0625 .5017-.6909 .7812-1.684 .7812-3 0-1.316-.2795-2.3403-.7812-3.0312-.4935-.6909-1.2104-1.0312-2.1562-1.0312zm44.1875,0c-.9377,0-1.6545,.3404-2.1562,1.0312-.4935,.6909-.75,1.7152-.75,3.0312 0,1.316 .2565,2.3091 .75,3 .5017,.6909 1.2186,1.0625 2.1562,1.0625 .9459,0 1.6627-.3716 2.1562-1.0625 .5017-.6909 .75-1.684 .75-3 0-1.316-.2483-2.3403-.75-3.0312-.4935-.6909-1.2104-1.0312-2.1562-1.0312zm41.9375,0c-.9377,0-1.6545,.3404-2.1562,1.0312-.4935,.6909-.7188,1.7152-.7188,3.0312 0,1.316 .2252,2.3091 .7188,3 .5017,.6909 1.2186,1.0625 2.1562,1.0625 .9459,0 1.6627-.3716 2.1562-1.0625 .5017-.6909 .7812-1.684 .7812-3 0-1.316-.2795-2.3403-.7812-3.0312-.4935-.6909-1.2104-1.0312-2.1562-1.0312zm54.625,0c-.9377,0-1.6545,.3404-2.1562,1.0312-.4935,.6909-.7188,1.7152-.7188,3.0312 0,1.316 .2252,2.3091 .7188,3 .5017,.6909 1.2186,1.0625 2.1562,1.0625 .9459,0 1.6627-.3716 2.1562-1.0625 .5017-.6909 .7812-1.684 .7812-3 0-1.316-.2795-2.3403-.7812-3.0312-.4935-.6909-1.2104-1.0312-2.1562-1.0312zm-423.2188,23.3438h4.4375v3.5938h-4.4375v-3.5938zm33.1562,0h4.4688v19.1875h-4.4688v-2c-.6087,.8143-1.268,1.4029-2,1.7812-.732,.3784-1.6002,.5625-2.5625,.5625-1.7026,0-3.0936-.6511-4.1875-2-1.0939-1.3571-1.625-3.0884-1.625-5.2188 0-2.1303 .5311-3.9011 1.625-5.25 1.0939-1.3571 2.4849-2.0312 4.1875-2.0312 .9541,0 1.7992,.2072 2.5312,.5938 .7403,.3784 1.4226,.9439 2.0312,1.75v-7.375zm14.4375,0h3.375v2.875h-2.4375c-.6251,0-1.0657,.1447-1.3125,.375-.2468,.2221-.375,.5969-.375,1.1562v.9688h3.7812v3.1562h-3.7812v10.6562h-4.4062v-10.6562h-2.1875v-3.1562h2.1875v-.9688c0-1.5052 .411-2.5969 1.25-3.3125 .8389-.7238 2.1461-1.0937 3.9062-1.0938zm5.2812,0h4.4375v10.4375l5.0625-5.0625h5.125l-6.75,6.3438 7.3125,7.4688h-5.375l-5.375-5.7812v5.7812h-4.4375v-19.1875zm16.8125,0h4.4062v10.4375l5.125-5.0625h5.125l-6.75,6.3438 7.2812,7.4688h-5.3438l-5.4375-5.7812v5.7812h-4.4062v-19.1875zm35.0312,0h4.4375v19.1875h-4.4375v-2c-.6087,.8143-1.268,1.4029-2,1.7812-.732,.3784-1.6002,.5625-2.5625,.5625-1.7026,0-3.0623-.6511-4.1562-2-1.0939-1.3571-1.6875-3.0884-1.6875-5.2188 0-2.1303 .5936-3.9011 1.6875-5.25 1.0939-1.3571 2.4537-2.0312 4.1562-2.0312 .9541,0 1.7992,.2072 2.5312,.5938 .7403,.3784 1.4226,.9439 2.0312,1.75v-7.375zm29.4688,0h3.375v2.875h-2.4375c-.6251,0-1.0345,.1447-1.2812,.375-.2468,.2221-.375,.5969-.375,1.1562v.9688h3.7812v3.1562h-3.7812v10.6562h-4.4062v-10.6562h-2.2188v-3.1562h2.2188v-.9688c0-1.5052 .3798-2.5969 1.2188-3.3125 .839-.7238 2.1461-1.0937 3.9062-1.0938zm38.5312,0h4.4375v19.1875h-4.4375v-2c-.6087,.8143-1.2992,1.4029-2.0312,1.7812-.732,.3784-1.5689,.5625-2.5312,.5625-1.7026,0-3.0936-.6511-4.1875-2-1.0939-1.3571-1.6562-3.0884-1.6562-5.2188 0-2.1303 .5623-3.9011 1.6562-5.25 1.0939-1.3571 2.4849-2.0312 4.1875-2.0312 .9541,0 1.7992,.2072 2.5312,.5938 .7402,.3784 1.4226,.9439 2.0312,1.75v-7.375zm14.4062,0h3.4062v2.875h-2.4375c-.6251,0-1.0658,.1447-1.3125,.375-.2468,.2221-.375,.5969-.375,1.1562v.9688h3.75v3.1562h-3.75v10.6562h-4.4375v-10.6562h-2.1875v-3.1562h2.1875v-.9688c0-1.5052 .4423-2.5969 1.2812-3.3125 .839-.7238 2.1148-1.0937 3.875-1.0938zm5.3125,0h4.4062v3.5938h-4.4062v-3.5938zm8.6875,0h4.4375v10.4375l5.0625-5.0625h5.125l-6.7188,6.3438 7.25,7.4688h-5.3438l-5.375-5.7812v5.7812h-4.4375v-19.1875zm51.4688,0h4.4062v19.1875h-4.4062v-2c-.6087,.8143-1.2992,1.4029-2.0312,1.7812-.732,.3784-1.6002,.5625-2.5625,.5625-1.7026,0-3.0936-.6511-4.1875-2-1.0939-1.3571-1.625-3.0884-1.625-5.2188 0-2.1303 .5311-3.9011 1.625-5.25 1.0939-1.3571 2.4849-2.0312 4.1875-2.0312 .9541,0 1.8305,.2072 2.5625,.5938 .7403,.3784 1.4226,.9439 2.0312,1.75v-7.375zm29.4375,0h3.4062v2.875h-2.4375c-.6251,0-1.097,.1447-1.3438,.375-.2468,.2221-.375,.5969-.375,1.1562v.9688h3.8125v3.1562h-3.8125v10.6562h-4.375v-10.6562h-2.2188v-3.1562h2.2188v-.9688c0-1.5052 .411-2.5969 1.25-3.3125 .839-.7238 2.1148-1.0937 3.875-1.0938zm5.3125,0h4.4375v3.5938h-4.4375v-3.5938zm8.6875,0h4.4062v10.4375l5.0938-5.0625h5.125l-6.75,6.3438 7.3125,7.4688h-5.4062l-5.375-5.7812v5.7812h-4.4062v-19.1875zm16.8125,0h4.4062v10.4375l5.0938-5.0625h5.1562l-6.75,6.3438 7.25,7.4688h-5.3438l-5.4062-5.7812v5.7812h-4.4062v-19.1875zm41.2812,0h4.4375v19.1875h-4.4375v-2c-.6087,.8143-1.268,1.4029-2,1.7812-.7321,.3784-1.5689,.5625-2.5312,.5625-1.7026,0-3.1248-.6511-4.2188-2-1.094-1.3571-1.625-3.0884-1.625-5.2188 0-2.1303 .531-3.9011 1.625-5.25 1.0939-1.3571 2.5161-2.0312 4.2188-2.0312 .9541,0 1.7992,.2072 2.5312,.5938 .7403,.3784 1.3913,.9439 2,1.75v-7.375zm26.9062,0h4.4688v19.1875h-4.4688v-2c-.6087,.8143-1.268,1.4029-2,1.7812-.7321,.3784-1.5689,.5625-2.5312,.5625-1.7026,0-3.1248-.6511-4.2188-2-1.0939-1.3571-1.625-3.0884-1.625-5.2188 0-2.1303 .5311-3.9011 1.625-5.25 1.0939-1.3571 2.5161-2.0312 4.2188-2.0312 .9541,0 1.7679,.2072 2.5,.5938 .7402,.3784 1.4226,.9439 2.0312,1.75v-7.375zm14.4375,0h3.375v2.875h-2.4375c-.6251,0-1.0658,.1447-1.3125,.375-.2468,.2221-.375,.5969-.375,1.1562v.9688h3.7812v3.1562h-3.7812v10.6562h-4.4062v-10.6562h-2.1875v-3.1562h2.1875v-.9688c0-1.5052 .3798-2.5969 1.2188-3.3125 .839-.7238 2.1773-1.0937 3.9375-1.0938zm29.7188,0h4.4688v19.1875h-4.4688v-2c-.6087,.8143-1.268,1.4029-2,1.7812-.732,.3784-1.5689,.5625-2.5312,.5625-1.7026,0-3.1248-.6511-4.2188-2-1.0939-1.3571-1.625-3.0884-1.625-5.2188 0-2.1303 .5311-3.9011 1.625-5.25 1.0939-1.3571 2.5161-2.0312 4.2188-2.0312 .9541,0 1.7992,.2072 2.5312,.5938 .7403,.3784 1.3913,.9439 2,1.75v-7.375zm-411.1875,5.0312c.8143,0 1.666,.0641 2.5625,.1875 .8965,.1234 1.8847,.3306 2.9375,.5938v3.3438c-.9459-.3948-1.8699-.6776-2.75-.875-.8801-.1974-1.6874-.3125-2.4688-.3125-.839,0-1.4638,.0987-1.875,.3125-.403,.2056-.625,.5328-.625,.9688 0,.3537 .1644,.6233 .4688,.8125 .3125,.1892 .8584,.3158 1.6562,.4062l.7812,.125c2.2619,.2879 3.7811,.7795 4.5625,1.4375 .7814,.658 1.1875,1.6873 1.1875,3.0938 0,1.4723-.5393,2.5722-1.625,3.3125-1.0857,.7403-2.72,1.0938-4.875,1.0938-.913,0-1.865-.0708-2.8438-.2188-.9706-.1398-1.9719-.3371-3-.625v-3.375c.8801,.4277 1.7663,.7549 2.6875,.9688 .9294,.2139 1.8896,.3125 2.8438,.3125 .8636,0 1.5328-.1052 1.9688-.3438 .4359-.2385 .625-.5937 .625-1.0625 0-.3948-.1332-.6858-.4375-.875-.2961-.1974-.916-.3618-1.8125-.4688l-.75-.0938c-1.9658-.2467-3.3666-.6775-4.1562-1.3438-.7896-.6662-1.1875-1.6741-1.1875-3.0312 0-1.4641 .5278-2.5739 1.5312-3.2812 1.0035-.7074 2.521-1.0625 4.5938-1.0625zm104.7188,0c.8143,0 1.666,.0641 2.5625,.1875 .8965,.1234 1.8847,.3306 2.9375,.5938v3.3438c-.9459-.3948-1.8699-.6776-2.75-.875-.8801-.1974-1.6874-.3125-2.4688-.3125-.839,0-1.4638,.0987-1.875,.3125-.403,.2056-.625,.5328-.625,.9688 0,.3537 .1644,.6233 .4688,.8125 .3125,.1892 .8584,.3158 1.6562,.4062l.7812,.125c2.2619,.2879 3.7811,.7795 4.5625,1.4375 .7814,.658 1.1875,1.6873 1.1875,3.0938 0,1.4723-.5393,2.5722-1.625,3.3125-1.0857,.7403-2.72,1.0938-4.875,1.0938-.913,0-1.865-.0708-2.8438-.2188-.9706-.1398-1.9719-.3371-3-.625v-3.375c.8801,.4277 1.7663,.7549 2.6875,.9688 .9294,.2139 1.8896,.3125 2.8438,.3125 .8636,0 1.5328-.1052 1.9688-.3438 .4359-.2385 .625-.5937 .625-1.0625 0-.3948-.1332-.6858-.4375-.875-.2961-.1974-.916-.3618-1.8125-.4688l-.75-.0938c-1.9658-.2467-3.3666-.6775-4.1562-1.3438-.7896-.6662-1.1562-1.6741-1.1562-3.0312 0-1.4641 .4965-2.5739 1.5-3.2812 1.0035-.7074 2.521-1.0625 4.5938-1.0625zm34.875,0c.8143,0 1.666,.0641 2.5625,.1875 .8965,.1234 1.8534,.3306 2.9062,.5938v3.3438c-.9459-.3948-1.8387-.6776-2.7188-.875-.8801-.1974-1.7186-.3125-2.5-.3125-.839,0-1.495,.0987-1.9062,.3125-.403,.2056-.5938,.5328-.5938,.9688 0,.3537 .1644,.6233 .4688,.8125 .3125,.1892 .8897,.3158 1.6875,.4062l.75,.125c2.2619,.2879 3.7811,.7795 4.5625,1.4375 .7814,.658 1.1562,1.6873 1.1562,3.0938 0,1.4723-.508,2.5722-1.5938,3.3125-1.0857,.7403-2.72,1.0938-4.875,1.0938-.913,0-1.8337-.0708-2.8125-.2188-.9706-.1398-1.9719-.3371-3-.625v-3.375c.8801,.4277 1.7663,.7549 2.6875,.9688 .9294,.2139 1.8584,.3125 2.8125,.3125 .8636,0 1.5016-.1052 1.9375-.3438 .4359-.2385 .6875-.5937 .6875-1.0625 0-.3948-.1644-.6858-.4688-.875-.2961-.1974-.8847-.3618-1.7812-.4688l-.7812-.0938c-1.9658-.2467-3.3666-.6775-4.1562-1.3438-.7896-.6662-1.1562-1.6741-1.1562-3.0312 0-1.4641 .4653-2.5739 1.4688-3.2812 1.0034-.7074 2.5835-1.0625 4.6562-1.0625zm70.2812,0c2.1714,0 3.9192,.6297 5.2188,1.9375 1.3078,1.3078 1.9687,3.0934 1.9688,5.2812v1.25h-10.3438c.1069,1.0364 .4834,1.7943 1.125,2.3125 .6415,.5182 1.536,.7812 2.6875,.7812 .9294,0 1.9044-.1348 2.875-.4062 .9788-.2796 1.9719-.6594 3-1.2188v3.375c-1.0446,.3948-2.0804,.7088-3.125,.9062-1.0446,.2056-2.1117,.2812-3.1562,.2812-2.5005,0-4.4537-.6083-5.8438-1.875-1.3818-1.2749-2.0625-3.0489-2.0625-5.3438 0-2.2537 .6741-4.0524 2.0312-5.3438 1.3654-1.2913 3.2397-1.9375 5.625-1.9375zm42.7188,0c.8143,0 1.666,.0641 2.5625,.1875 .8965,.1234 1.8847,.3306 2.9375,.5938v3.3438c-.9459-.3948-1.8699-.6776-2.75-.875-.8801-.1974-1.6874-.3125-2.4688-.3125-.839,0-1.495,.0987-1.9062,.3125-.4031,.2056-.5938,.5328-.5938,.9688 0,.3537 .1332,.6233 .4375,.8125 .3125,.1892 .8897,.3158 1.6875,.4062l.75,.125c2.2619,.2879 3.8123,.7795 4.5938,1.4375 .7814,.658 1.1562,1.6873 1.1562,3.0938 0,1.4723-.5393,2.5722-1.625,3.3125-1.0857,.7403-2.6888,1.0938-4.8438,1.0938-.913,0-1.865-.0708-2.8438-.2188-.9706-.1398-1.9719-.3371-3-.625v-3.375c.8801,.4277 1.7663,.7549 2.6875,.9688 .9294,.2139 1.8896,.3125 2.8438,.3125 .8636,0 1.5016-.1052 1.9375-.3438 .4359-.2385 .6562-.5937 .6562-1.0625 0-.3948-.1644-.6858-.4688-.875-.2961-.1974-.8847-.3618-1.7812-.4688l-.7812-.0938c-1.9658-.2467-3.3666-.6775-4.1562-1.3438-.7896-.6662-1.1563-1.6741-1.1562-3.0312 0-1.4641 .4965-2.5739 1.5-3.2812 1.0035-.7074 2.5523-1.0625 4.625-1.0625zm68.4062,0c.8143,0 1.6659,.0641 2.5625,.1875 .8965,.1234 1.8534,.3306 2.9062,.5938v3.3438c-.9459-.3948-1.8387-.6776-2.7188-.875-.8801-.1974-1.7186-.3125-2.5-.3125-.839,0-1.495,.0987-1.9062,.3125-.403,.2056-.5625,.5328-.5625,.9688 0,.3537 .1644,.6233 .4688,.8125 .3125,.1892 .8584,.3158 1.6562,.4062l.7812,.125c2.2619,.2879 3.7498,.7795 4.5312,1.4375 .7814,.658 1.1875,1.6873 1.1875,3.0938 0,1.4723-.5393,2.5722-1.625,3.3125-1.0857,.7403-2.72,1.0938-4.875,1.0938-.913,0-1.8337-.0708-2.8125-.2188-.9706-.1398-2.0031-.3371-3.0312-.625v-3.375c.8801,.4277 1.7975,.7549 2.7188,.9688 .9294,.2139 1.8584,.3125 2.8125,.3125 .8636,0 1.5016-.1052 1.9375-.3438 .4359-.2385 .6875-.5937 .6875-1.0625 0-.3948-.1644-.6858-.4688-.875-.2961-.1974-.8847-.3618-1.7812-.4688l-.7812-.0938c-1.9658-.2467-3.3354-.6775-4.125-1.3438-.7896-.6662-1.1875-1.6741-1.1875-3.0312 0-1.4641 .4965-2.5739 1.5-3.2812 1.0035-.7074 2.5523-1.0625 4.625-1.0625zm71.0625,0c.8143,0 1.666,.0641 2.5625,.1875 .8965,.1234 1.8534,.3306 2.9062,.5938v3.3438c-.9459-.3948-1.8387-.6776-2.7188-.875-.8801-.1974-1.7186-.3125-2.5-.3125-.839,0-1.4637,.0987-1.875,.3125-.403,.2056-.5938,.5328-.5938,.9688 0,.3537 .1332,.6233 .4375,.8125 .3125,.1892 .8584,.3158 1.6562,.4062l.8125,.125c2.2619,.2879 3.7498,.7795 4.5312,1.4375 .7814,.658 1.1875,1.6873 1.1875,3.0938 0,1.4723-.5706,2.5722-1.6562,3.3125-1.0857,.7403-2.6888,1.0938-4.8438,1.0938-.913,0-1.865-.0708-2.8438-.2188-.9706-.1398-1.9719-.3371-3-.625v-3.375c.8801,.4277 1.7975,.7549 2.7188,.9688 .9294,.2139 1.8584,.3125 2.8125,.3125 .8636,0 1.5328-.1052 1.9688-.3438 .4359-.2385 .625-.5937 .625-1.0625 0-.3948-.1019-.6858-.4062-.875-.2961-.1974-.916-.3618-1.8125-.4688l-.7812-.0938c-1.9658-.2467-3.3354-.6775-4.125-1.3438-.7896-.6662-1.1875-1.6741-1.1875-3.0312 0-1.4641 .4965-2.5739 1.5-3.2812 1.0035-.7074 2.5523-1.0625 4.625-1.0625zm-406.0625,.3438h4.4375v13.5625c0,1.8506-.4554,3.2794-1.3438,4.25-.8883,.9788-2.1576,1.4375-3.8438,1.4375h-2.1875v-2.875h.75c.839,0 1.4062-.2154 1.7188-.5938 .3126-.3784 .4687-1.1084 .4688-2.2188v-13.5625zm192.4375,0h4.4062v13.5625c0,1.8506-.4554,3.2794-1.3438,4.25-.8883,.9788-2.1576,1.4375-3.8438,1.4375h-2.1562v-2.875h.7188c.839,0 1.4375-.2154 1.75-.5938 .3125-.3784 .4688-1.1084 .4688-2.2188v-13.5625zm94.9062,0h4.4375v13.5625c0,1.8506-.4554,3.2794-1.3438,4.25-.8883,.9788-2.1889,1.4375-3.875,1.4375h-2.1875v-2.875h.7812c.839,0 1.4062-.2154 1.7188-.5938 .3126-.3784 .4688-1.1084 .4688-2.2188v-13.5625zm-63.5,2.5938c-.8554,0-1.5279,.2647-2.0625,.75-.5346,.4771-.8684,1.1577-1,2.0625h5.7188c0-.839-.2565-1.5213-.75-2.0312-.4853-.5182-1.1166-.7812-1.9062-.7812zm-193.5938,.2812c-.9377,0-1.6545,.3404-2.1562,1.0312-.4935,.6909-.75,1.7153-.75,3.0312 0,1.316 .2565,2.2779 .75,2.9688 .5017,.6909 1.2186,1.0625 2.1562,1.0625 .9459,0 1.6627-.3716 2.1562-1.0625 .5017-.6909 .75-1.6527 .75-2.9688 0-1.316-.2483-2.3403-.75-3.0312-.4935-.6909-1.2104-1.0312-2.1562-1.0312zm71.5312,0c-.9377,0-1.6233,.3404-2.125,1.0312-.4935,.6909-.75,1.7153-.75,3.0312 0,1.316 .2565,2.2779 .75,2.9688 .5017,.6909 1.1873,1.0625 2.125,1.0625 .9459,0 1.694-.3716 2.1875-1.0625 .5017-.6909 .75-1.6527 .75-2.9688 0-1.316-.2483-2.3403-.75-3.0312-.4935-.6909-1.2416-1.0312-2.1875-1.0312zm68.0312,0c-.9377,0-1.6545,.3404-2.1562,1.0312-.4935,.6909-.75,1.7153-.75,3.0312 0,1.316 .2565,2.2779 .75,2.9688 .5017,.6909 1.2186,1.0625 2.1562,1.0625 .9459,0 1.6627-.3716 2.1562-1.0625 .5017-.6909 .75-1.6527 .75-2.9688 0-1.316-.2483-2.3403-.75-3.0312-.4935-.6909-1.2104-1.0312-2.1562-1.0312zm79.8438,0c-.9377,0-1.6545,.3404-2.1562,1.0312-.4935,.6909-.7188,1.7153-.7188,3.0312 0,1.316 .2252,2.2779 .7188,2.9688 .5017,.6909 1.2186,1.0625 2.1562,1.0625 .9459,0 1.6627-.3716 2.1562-1.0625 .5017-.6909 .7812-1.6527 .7812-2.9688 0-1.316-.2795-2.3403-.7812-3.0312-.4935-.6909-1.2104-1.0312-2.1562-1.0312zm101.5625,0c-.9377,0-1.6545,.3404-2.1562,1.0312-.4935,.6909-.75,1.7153-.75,3.0312 0,1.316 .2565,2.2779 .75,2.9688 .5017,.6909 1.2186,1.0625 2.1562,1.0625 .9459,0 1.6627-.3716 2.1562-1.0625 .5017-.6909 .75-1.6527 .75-2.9688 0-1.316-.2483-2.3403-.75-3.0312-.4935-.6909-1.2104-1.0312-2.1562-1.0312zm26.9062,0c-.9377,0-1.6545,.3404-2.1562,1.0312-.4935,.6909-.75,1.7153-.75,3.0312 0,1.316 .2565,2.2779 .75,2.9688 .5017,.6909 1.2186,1.0625 2.1562,1.0625 .9459,0 1.6315-.3716 2.125-1.0625 .5017-.6909 .7812-1.6527 .7812-2.9688 0-1.316-.2795-2.3403-.7812-3.0312-.4935-.6909-1.1791-1.0312-2.125-1.0312zm44.1562,0c-.9377,0-1.6545,.3404-2.1562,1.0312-.4935,.6909-.75,1.7153-.75,3.0312 0,1.316 .2565,2.2779 .75,2.9688 .5017,.6909 1.2186,1.0625 2.1562,1.0625 .9459,0 1.6627-.3716 2.1562-1.0625 .5017-.6909 .75-1.6527 .75-2.9688 0-1.316-.2483-2.3403-.75-3.0312-.4935-.6909-1.2104-1.0312-2.1562-1.0312z"/>
</g>
</svg>
