<svg xmlns="http://www.w3.org/2000/svg" viewBox="0 0 580 580">
<path fill="#111" stroke="#eee" stroke-width="3.408" d="m66.275,1.768c-41.335,0-64.571,21.371-64.571,65.036v450.123c0,40.844 20.894,62.229 62.192,62.229h452.024c41.307,0 62.229-20.316 62.229-62.229v-450.123c0-42.601-20.922-65.036-63.522-65.036-.003,0-448.494-.143-448.352,0z"/>
<g transform="translate(.35355)">
<path fill="#fff" line-height="normal" color="#000" d="m118.1848,230.2958a8.2609,8.2609 0 0,0 -5.3174,1.8585l-87.6086,71.295a8.2609,8.2609 0 0,0 3.1492,14.4035l145.4809,36.8091a8.2609,8.2609 0 0,0 8.002-2.3231l41.2489-43.159-15.9523-7.2276-33.918,35.4668-124.8307-31.5432 71.7596-58.3369 54.1553,11.8223-1.0841-17.1397-53.4325-11.719a8.2609,8.2609 0 0,0 -1.652-.2065z"/>
<path fill="none" stroke="#fff" stroke-linejoin="round" stroke-linecap="round" stroke-width="16.52" d="m186.9921,476.8833-10.5134-130.2492-147.1874-36.7968 23.3631,129.6651 134.3377,37.3809z"/>
<path fill="#fff" line-height="normal" color="#000" d="m208.1682,302.3651-37.5834,38.5127a8.2609,8.2609 0 0,0 -2.3231,6.4532l11.0995,130.2514a8.2609,8.2609 0 0,0 14.7649,4.3365l65.9775-85.8534a8.2609,8.2609 0 0,0 1.7553-5.1626l-.8776-64.6352-16.6234-7.5373 .9293,69.5397-51.2642,66.6486-8.9828-105.213 39.1322-40.0615-16.0039-7.2792z"/>
</g>
<path fill="none" stroke="#fff" stroke-linejoin="round" stroke-linecap="round" stroke-width="16.52" d="m389.0827,498.9863 10.5134-134.3377 150.1078-36.7968-22.1949,130.2491-138.4262,40.8854z"/>
<g fill="#fff" color="#000">
<path d="m461.495,244.8432c-.6074,.002-1.2146,.0715-1.8069,.2065l-45.7528,10.3689-1.1874,17.243 46.5788-10.5754 73.2567,61.641-130.716,32.3176-47.2326-45.8091-5.9542,4.1442 44.204,56.3782c1.9903,2.1999 5.2251,3.1888 8.1052,2.478l151.263-37.3769c2.9259-.7317 5.3494-3.1907 6.0384-6.1269 .689-2.9362-.3877-6.2166-2.6827-8.1734l-88.796-74.8055c-1.4777-1.2293-3.3953-1.9181-5.3174-1.9101z"/>
<path d="m361.3007,312.0551-13.7324,9.4475 43.5094,46.6226-8.5182,108.0007-52.8646-69.6945 2.6329-75.2638-16.9332,11.6674-2.3231,65.868c-.0805,1.8914 .5139,3.8046 1.652,5.3174l67.7844,89.3639c2.0079,2.6471 5.7134,3.8692 8.9022,2.9359 3.1887-.9333 5.6506-3.9604 5.9144-7.2725l10.5316-133.1424c.1759-2.2608-.6295-4.5811-2.1683-6.2467l-44.387-47.6035z"/>
</g>
<g fill="none" stroke="#fff" stroke-linejoin="round" stroke-linecap="round" stroke-width="16.52">
<path d="m174.7265,142.0302 135.5058,44.3898-2.3363,160.6212-123.8243-56.6554-9.3452-148.3555z"/>
<path d="m416.5343,131.5168-106.302,54.9032-1.7522,161.2052 97.5409-67.1689 10.5134-148.9396z"/>
<path d="m285.7011,94.1359-109.6604,46.5802 134.1917,45.1199 105.1338-55.3413-129.6651-36.3588z"/>
</g>
<g fill="#fff" color="#000">
<g>
<path opacity=".9" line-height="normal" d="m174.875,133.7812c-2.2763-.0446-4.5506,.8866-6.125,2.5312-1.5744,1.6446-2.4251,3.9778-2.2812,6.25l9.3438,148.3438c.1851,2.9683 2.1073,5.7643 4.8125,7l123.8438,56.6562c2.487,1.134 5.5349,.9318 7.8438-.5312 2.3088-1.4631 3.8073-4.1419 3.8438-6.875l2.3438-160.625c.0501-3.4926-2.3683-6.881-5.6875-7.9688l-135.5-44.375c-.7861-.2564-1.6108-.3938-2.4375-.4062zm37.375,55.8438c2.5673-.0582 5.7592,.4033 9.5938,1.375 5.1127,1.2957 10.6895,3.274 16.6875,5.9688 9.6283,4.3259 17.3575,8.4263 23.25,12.2812 5.8924,3.8552 10.8781,8.597 14.9375,14.25 2.8507,3.9319 5.1797,8.7111 6.9688,14.375 1.7889,5.664 2.7772,10.777 2.9688,15.2812l1.7812,42.2188c.1913,4.5043 .6103,8.1917 1.2188,10.9688 .6082,2.777 1.8353,6.4984 3.6875,11.2188l-30.1562-13.5312c-1.3148-3.0061-2.1707-5.2308-2.5938-6.6875-.4232-1.4568-.8894-3.6656-1.375-6.5938-4.0126,2.7333-8.0528,4.1356-12.125,4.25-5.57,.0895-12.1013-1.5259-19.625-4.9062-9.9966-4.4913-17.718-10.5428-23.125-18.1562-5.407-7.6135-8.2646-15.315-8.5938-23.0625-.3088-7.267 1.3072-12.4001 4.8438-15.4062 3.5365-3.0061 10.2665-3.389 20.2188-1.1562 11.9311,2.6506 19.6569,4.2224 23.1875,4.7188 3.5305,.4964 7.2654,.7552 11.1875,.75-.1915-4.5043-1.1362-8.028-2.8438-10.5625-1.7077-2.5345-4.6149-4.7186-8.7188-6.5625-5.2614-2.3638-9.1697-3.1774-11.7188-2.4375-1.9882,.5796-3.5384,2.6421-4.625,6.2188l-30.8438-17.5c.8972-5.6058 2.3408-9.655 4.375-12.1875 2.0342-2.5323 5.0683-4.1675 9.0625-4.9062 .7168-.1345 1.5192-.1994 2.375-.2188zm22.25,64.5312c-2.0234,.0503-3.454,.3666-4.2812,.9375-1.7047,1.1782-2.4822,3.0401-2.375,5.5625 .1224,2.8828 1.097,5.6264 2.9375,8.25 1.8404,2.6237 4.4551,4.7135 7.875,6.25 3.5777,1.6074 6.8812,2.099 9.875,1.5 2.9936-.5991 5.0509-2.0389 6.2188-4.3125 1.1678-2.2736 1.6626-5.6856 1.4688-10.25l-.25-5.8438c-4.3431-.1839-8.8647-.699-13.5938-1.4688-3.22-.4746-5.8516-.6753-7.875-.625z"/>
</g>
<g stroke="#fff" stroke-linejoin="round" stroke-linecap="round" stroke-width="16.52">
<path opacity=".6" d="m416.5343,131.5168-106.302,54.9032-1.7522,161.2052 97.5409-67.1689 10.5134-148.9396z"/>
<path opacity=".75" d="m285.7011,94.1359-109.6604,46.5802 134.1917,45.1199 105.1338-55.3413-129.6651-36.3588z"/>
</g>
<g>
<path opacity=".75" d="m118.5384,230.2958c-1.9159-.0224-3.8326,.6475-5.3174,1.8585l-87.6086,71.295c-2.3542,1.9173-3.5022,5.2039-2.8537,8.17 .6485,2.9661 3.0634,5.4737 6.0029,6.2336l145.4809,36.8091c2.8235,.7091 5.9972-.2123 8.002-2.3231l41.2489-43.159-15.9523-7.2276-23.7779-15.7548-10.1402-43.976-53.4325-11.719c-.5418-.1242-1.0963-.1935-1.652-.2065z"/>
<path opacity=".9" d="m29.1875,301.5938c-2.3266,.1333-4.5891,1.2944-6.0312,3.125-1.4421,1.8306-2.0401,4.3006-1.625,6.5938l23.3438,129.6562c.5438,3.0383 2.9338,5.6685 5.9062,6.5l134.3438,37.375c2.5532,.7176 5.4531,.1239 7.5-1.5625 2.0469-1.6864 3.1846-4.4192 2.9688-7.0625l-10.5312-130.25c-.2767-3.4129-2.8981-6.5085-6.2188-7.3438l-147.1875-36.8125c-.8057-.1963-1.6411-.2703-2.4688-.2188zm21.4688,29.625l33.5312,7.75 6.4375,34.2812c2.778-2.1164 6.1173-3.4056 10.0625-3.875 3.9452-.4694 8.4813-.1151 13.5938,1.0625 10.5511,2.4306 19.8541,7.5673 27.9375,15.4375 8.0832,7.8703 13.237,17.6895 15.4375,29.4375 1.4669,7.832 1.1623,14.3876-.875,19.625-2.0375,5.2373-5.5714,8.6796-10.5938,10.3438-5.0226,1.664-10.9204,1.7223-17.7188,.1562-5.8195-1.3406-11.3343-3.6269-16.5625-6.8125-3.9475-2.4598-8.4626-6.3978-13.5938-11.8438l1.9688,10.5938-31.0938-7.1562-18.5312-99zm52.6562,56.9062c-2.307,.0849-4.1957,.7748-5.6562,2.0938-2.3368,2.1105-2.9914,5.9986-1.9375,11.625 1.155,6.1666 3.3993,10.9303 6.7188,14.3438 3.3194,3.4135 7.1096,5.6352 11.4062,6.625 3.9702,.9146 7.0366,.2905 9.2188-1.8125 2.182-2.103 2.7055-6.3446 1.5-12.7812-1.0623-5.6714-3.1461-10.1429-6.2812-13.4062-3.1353-3.2633-6.6223-5.323-10.375-6.1875-1.6928-.3899-3.2095-.551-4.5938-.5z"/>
<path opacity=".6" d="m208.5218,302.3651-37.5834,38.5127c-1.6473,1.6865-2.5175,4.1037-2.3231,6.4532l11.0995,130.2514c.2862,3.2871 2.736,6.2797 5.9018,7.2095 3.1659,.9298 6.8447-.2627 8.8631-2.8729l65.9775-85.8534c1.1417-1.4587 1.7712-3.3103 1.7553-5.1626l-.8776-64.6352-52.813-23.9026z"/>
<path opacity=".9" d="m549.1875,319.5938c-.4853,.0407-.9669,.1245-1.4375,.25l-150.125,36.7812c-3.3412,.8274-5.9818,3.9433-6.25,7.375l-10.5312,134.3438c-.2085,2.6608 .9556,5.3848 3.0312,7.0625 2.0757,1.6777 5.0046,2.2618 7.5625,1.5l138.4062-40.875c2.9464-.8662 5.2941-3.5042 5.8125-6.5312l22.1875-130.25c.4247-2.4488-.3411-5.0869-2-6.9375-1.6589-1.8506-4.1758-2.8742-6.6562-2.7188zm-55.3438,43.1875c4.1613-.0518 7.6243,.5668 10.375,1.875 6.2871,2.9903 10.044,9.0023 11.2188,18.0625l-30.9688,13.4062c-.2941-3.4878-1.5203-5.8095-3.6875-6.9688-2.1674-1.1591-5.3545-1.1165-9.5625,.1562-5.3127,1.607-9.954,4.9191-13.9375,9.9375-3.9836,5.0185-6.6826,11.6221-8.0938,19.7812-1.2577,7.2712-.6085,12.2747 2,15.0625 2.6084,2.7879 6.4502,3.4337 11.5,1.9062 4.208-1.2727 7.9583-3.4822 11.2188-6.625 3.2603-3.1427 6.0137-7.29 8.25-12.4375l29.875-5.5625c-2.845,7.2252-6.6231,13.864-11.3125,19.9375-4.6896,6.0736-10.247,11.3807-16.6875,15.9062-6.4407,4.5255-14.2324,8.1533-23.4375,10.9375-8.8896,2.6888-16.1348,4.0523-21.75,4.0938-5.6152,.0415-10.2287-1.2193-13.8125-3.8438-3.5839-2.6243-6.1486-6.2089-7.6562-10.75-1.5076-4.5411-1.5076-11.1919 0-19.9062 1.5744-9.1027 4.3517-17.0902 8.3438-24.0312 2.9246-5.0926 6.562-9.9708 10.9062-14.625 4.3443-4.6541 8.6635-8.461 12.9062-11.375 6.7299-4.6129 14.9662-8.4157 24.75-11.375 7.6928-2.3268 14.2123-3.4959 19.5625-3.5625z"/>
<path opacity=".75" d="m461.495,244.8432c-.6074,.002-1.2146,.0715-1.8069,.2065l-43.985,10.0154-6.8442,17.9501-48.9207,36.1599-9.4898,14.3972 42.4362,47.1858c1.9903,2.1999 5.2251,3.1888 8.1052,2.478l151.263-37.3769c2.9259-.7317 5.3494-3.1907 6.0384-6.1269 .689-2.9362-.3877-6.2166-2.6827-8.1734l-88.796-74.8055c-1.4777-1.2293-3.3953-1.9181-5.3174-1.9101z"/>
<path opacity=".6" d="m361.3007,312.0551-45.9061,30.7798-2.3231,65.868c-.0805,1.8914 .5139,3.8046 1.652,5.3174l67.7844,89.3639c2.0079,2.6471 5.7134,3.8692 8.9022,2.9359 3.1887-.9333 5.6506-3.9604 5.9144-7.2725l10.5316-133.1424c.1759-2.2608-.6295-4.5811-2.1683-6.2467l-44.387-47.6035z"/>
</g>
</g>
</svg>
