<svg xmlns="http://www.w3.org/2000/svg" viewBox="0 0 580 580">
<path fill="#111" stroke="#eee" stroke-width="3.408" d="m66.275,1.768c-41.335,0-64.571,21.371-64.571,65.036v450.123c0,40.844 20.894,62.229 62.192,62.229h452.024c41.307,0 62.229-20.316 62.229-62.229v-450.123c0-42.601-20.922-65.036-63.522-65.036-.003,0-448.494-.143-448.352,0z"/>
<g fill="none" stroke="#fff" stroke-linejoin="round" stroke-linecap="round" stroke-width="30.447">
<path d="m68.5641,150.5105 249.741,81.8117-4.3059,296.0292-228.2116-104.4175-17.2235-273.4233z"/>
<path d="m514.2226,131.134-195.9175,101.1881-3.2294,297.1057 179.7705-123.794 19.3764-274.4998z"/>
<path d="m273.0934,62.2399-202.1072,85.8485 247.3189,83.1573 193.7646-101.9955-238.9763-67.0102z"/>
</g>
<g fill="#fff" color="#000">
<path opacity=".9" d="m68.8379,135.3074c-4.1952-.0822-8.3869,1.6341-11.2885,4.6652-2.9016,3.0311-4.4695,7.3313-4.2044,11.5189l17.2208,273.4016c.3411,5.4706 3.8839,10.6237 8.8696,12.9012l228.2474,104.419c4.5836,2.0901 10.201,1.7174 14.4562-.9791 4.2552-2.6965 7.017-7.6336 7.0841-12.6708l4.3196-296.0363c.0923-6.4369-4.3648-12.6819-10.4822-14.6866l-249.7302-81.7843c-1.4487-.4725-2.9687-.7258-4.4924-.7487zm68.8832,102.9216c4.7315-.1072 10.6143,.7433 17.6816,2.5342 9.4229,2.3879 19.701,6.0341 30.7555,11.0006 17.7451,7.9728 31.9903,15.5298 42.8504,22.6347 10.8598,7.1051 20.0487,15.8446 27.5302,26.2631 5.2538,7.2465 9.5463,16.0548 12.8436,26.4935 3.2969,10.4388 5.1185,19.8623 5.4715,28.1638l3.2829,77.8103c.3526,8.3015 1.1248,15.0975 2.2462,20.2157 1.1209,5.1181 3.3826,11.9768 6.7962,20.6765l-55.5788-24.9385c-2.4233-5.5404-4.0006-9.6406-4.7804-12.3252-.7801-2.685-1.6391-6.7558-2.5342-12.1525-7.3954,5.0376-14.8415,7.622-22.3467,7.8329-10.2657,.1649-22.303-2.8123-36.1694-9.0424-18.4241-8.2777-32.6548-19.4306-42.62-33.4625-9.9654-14.0319-15.2318-28.2261-15.8385-42.5048-.5691-13.3932 2.4093-22.8537 8.9272-28.3941 6.5179-5.5403 18.9214-6.2461 37.2637-2.131 21.9894,4.8852 36.2283,7.7821 42.7352,8.6968 6.5068,.9149 13.3903,1.3919 20.6189,1.3823-.3529-8.3015-2.0941-14.7957-5.2411-19.467-3.1473-4.6711-8.5054-8.6966-16.0689-12.0949-9.6969-4.3566-16.9001-5.856-21.598-4.4924-3.6643,1.0682-6.5214,4.8695-8.524,11.4613l-56.8459-32.253c1.6535-10.3315 4.3142-17.7945 8.0632-22.4619 3.749-4.667 9.3411-7.6808 16.7024-9.0423 1.3211-.2478 2.8-.3674 4.3772-.4032zm41.0074,118.9329c-3.7292,.0927-6.3658,.6757-7.8905,1.7278-3.1418,2.1714-4.5748,5.603-4.3772,10.2518 .2257,5.313 2.0219,10.3696 5.4139,15.205 3.3918,4.8355 8.2108,8.6871 14.5138,11.5189 6.5938,2.9625 12.6823,3.8685 18.1999,2.7645 5.5173-1.1042 9.3089-3.7578 11.4613-7.9481 2.1522-4.1903 3.0643-10.4787 2.707-18.891l-.4608-10.7702c-8.0044-.339-16.3378-1.2882-25.0537-2.707-5.9345-.8748-10.7846-1.2446-14.5138-1.1519z"/>
<path opacity=".6" d="m513.3125,115.9375c-2.1064,.124-4.1856,.692-6.0625,1.6562l-195.9375,101.1875c-4.8811,2.5297-8.1673,7.8776-8.2188,13.375l-3.25,297.0938c-.0694,5.5507 3.1632,11.015 8.0625,13.625 4.8993,2.61 11.2446,2.248 15.8125-.9062l179.75-123.7812c3.7545-2.5808 6.2399-6.9242 6.5625-11.4688l19.375-274.5c.3072-4.307-1.3083-8.7104-4.3438-11.7812-3.0355-3.0708-7.4398-4.7573-11.75-4.5zm-51.75,153.5938c.6884-.0014 1.3525,.0145 2,.0625 10.3598,.7678 17.2151,6.612 20.4688,17.625l-46.6875,32.1875c-1.0036-4.3165-3.284-6.6961-6.875-7.125-3.5913-.4286-8.605,1.234-15.0312,4.9062-8.1134,4.6366-14.914,11.0853-20.4062,19.4375-5.4924,8.3525-8.7311,18.1011-9.6875,29.2188-.8524,9.9078 .9932,16.0158 5.5312,18.3125 4.5379,2.2969 10.6945,1.2507 18.4062-3.1562 6.4262-3.6723 11.9489-8.3347 16.5938-13.9375 4.6446-5.6026 8.3405-12.238 11.0625-19.9062l46.1562-21.6562c-3.358,10.6205-8.2478,20.9869-14.6875,31.0312-6.44,10.0445-14.3452,19.5213-23.7812,28.4375-9.4363,8.9162-21.1924,17.3729-35.25,25.4062-13.5758,7.7581-24.7617,12.9993-33.5938,15.7812-8.8322,2.782-16.2958,3.395-22.3438,1.7812-6.048-1.6136-10.6105-4.9579-13.6875-10.0312-3.0771-5.0733-4.1153-13.5633-3.0938-25.4375 1.067-12.4034 4.1986-23.9979 9.4062-34.8125 3.814-7.9325 8.7897-15.938 14.9062-24 6.1165-8.0618 12.3048-14.9937 18.5312-20.7812 9.878-9.1685 22.2774-18.0239 37.2188-26.5625 19.5802-11.1893 34.5171-16.76 44.8438-16.7812z"/>
<path opacity=".75" d="m272.6875,47.0312c-1.8962,.0467-3.783,.4517-5.5312,1.1875l-202.125,85.8438c-5.658,2.3868-9.517,8.4887-9.2812,14.625 .2358,6.1363 4.5506,11.8981 10.375,13.8438l247.3438,83.1562c3.8906,1.3034 8.308,.9449 11.9375-.9688l193.75-102c5.348-2.8175 8.6658-9.0511 8.0312-15.0625-.6345-6.0114-5.1816-11.4237-11-13.0625l-238.9688-67c-1.4708-.4134-3.004-.6038-4.5312-.5625zm42.4688,64.2188c1.1508,.0057 2.3211,.0344 3.5,.0625 18.8625,.4502 38.7879,4.3134 59.7812,11.625 13.9955,4.8745 24.5824,9.959 31.75,15.25 7.1674,5.2911 10.3053,10.2493 9.4062,14.875-.8994,4.6257-5.1035,8.6592-12.625,12.0625-6.4386,2.9133-14.1947,4.928-23.25,6.0625-6.9271,.8158-16.7521,.9037-29.4688,.2812l18.9688,6.5938-34.4062,15.5625-176.875-61.5938 37.0938-16.7812 61.3125,21.3438c-1.4771-3.4537-1.1832-6.6809 .9062-9.6875 2.0895-3.0066 5.9688-5.7843 11.625-8.3438 10.944-4.9518 25.0195-7.3982 42.2812-7.3125zm-1.9375,22.7812c-6.3268-.0472-11.3358,.7625-14.9688,2.4062-4.9943,2.2599-6.6,4.9415-4.8125,8.0938 1.7877,3.1523 7.727,6.4983 17.7812,10 11.0195,3.8379 20.5482,5.8981 28.5938,6.2188 8.0456,.3207 14.4338-.5678 19.1875-2.7188 4.3926-1.9875 5.6377-4.5198 3.75-7.5625-1.8877-3.0425-8.5604-6.5565-20.0625-10.5625-10.1347-3.5297-19.0235-5.4489-26.6875-5.7812-.958-.0415-1.8774-.087-2.7812-.0938z"/>
</g>
</svg>
