<svg xmlns="http://www.w3.org/2000/svg" viewBox="0 0 580 580">
<path fill="#111" stroke="#eee" stroke-width="3.408" d="m66.275,1.768c-41.335,0-64.571,21.371-64.571,65.036v450.123c0,40.844 20.894,62.229 62.192,62.229h452.024c41.307,0 62.229-20.316 62.229-62.229v-450.123c0-42.601-20.922-65.036-63.522-65.036-.003,0-448.494-.143-448.352,0z"/>
<g fill-rule="evenodd">
<g fill="none" stroke="#fff">
<g stroke-width="26">
<path d="m278.9129,461.9627a78.3806,78.3806 0 1,1 -156.7612,0 78.3806,78.3806 0 1,1 156.7612,0z" transform="matrix(-.81757 0 0 .81757 366.34413 94.03648)"/>
<path d="m278.9129,461.9627a78.3806,78.3806 0 1,1 -156.7612,0 78.3806,78.3806 0 1,1 156.7612,0z" transform="matrix(-.81757 0 0 .81757 640.98082 92.78811)"/>
</g>
<g>
<path stroke-linejoin="round" stroke-width="17.067" d="m426.265,361.4538l-164.782,.8322-58.2562,108.1902h111.5191l116.5125-79.062"/>
</g>
</g>
<g fill="#fff">
<g>
<path stroke-linecap="round" stroke-width="25" d="m419.933,296.6156c8.9507,0 15.7162-.1997 22.6508,10.3943 1.9961,3.5316 2.9087,7.8436 2.1717,12.1358-.8842,4.8807-3.7737,9.6759-7.1802,12.5146-4.5107,3.7589-8.7914,3.4689-8.0996,6.848 .8877,4.3357 3.5967,10.3608 6.5243,20.1443 2.9717,9.9309 6.5004,22.0853 9.9642,34.057 3.4638,11.9717 6.8639,23.7671 9.5554,32.9584 1.3458,4.5956 2.5211,8.5418 3.4236,11.4971 .8793,2.8794 1.6557,5.116 1.584,4.9565 2.8041,4.9336 3.1858,8.1484 7.8892,12.3476 5.2735,4.6153 9.5672,8.0249 11.0573,9.0664 3.7849,2.7495 5.5444,8.5519 3.5458,11.4189-2.5188,3.9073-7.7208,4.5066-11.5229,3.3377-3.6101-1.146-9.3248-3.1145-15.9515-8.603l-.0511-.0766-.0767-.0511c-9.2206-7.9089-12.6318-17.5079-12.9789-18.0632l-.4855-.7409-.3321-.8176c-.799-1.9668-1.2776-3.701-2.2228-6.7961-.9452-3.0951-2.1435-7.0938-3.5002-11.7271-2.7135-9.2665-6.0964-21.0799-9.5554-33.035-3.459-11.9551-6.9791-24.0477-9.9131-33.8526-2.934-9.8049-4.7876-17.8576-5.4728-19.5707-1.6678-4.1694-2.5198-8.6705-1.3797-13.1834 1.1401-4.5128 4.547-8.155 7.6052-9.0017 6.9807-1.953 5.1285-6.9741 1.5571-6.9814l-29.928-.0609-.0738-19.1148c.0002-.0004 19.4262-.0004 31.1957-.0004z"/>
</g>
<g stroke="#fff">
<g>
<path stroke-width="20.439" d="m312.6107,467.0888l-56.4938-138.2921"/>
<path stroke-linecap="round" stroke-width="7.46" d="m332.0315,431.7786l-34.1338,79.4476"/>
<path stroke-width="31.305" d="m278.9129,461.9627a78.3806,78.3806 0 1,1 -156.7612,0 78.3806,78.3806 0 1,1 156.7612,0z" transform="matrix(-.23052 0 0 .2036 360.34823 376.62649)"/>
</g>
<g stroke-linecap="round" stroke-width="10.424">
<path d="m347.2273,431.8148l-30.152,.2764"/>
<path d="m313.2684,510.0849l-30.1521,.2764"/>
</g>
</g>
<g>
<path d="m228.4582,316.4382h70.9115c2.6481,0 6.0661,4.6844 2.6481,7.7973-3.6967,3.5182-36.927,10.7397-36.927,10.7397 0,0-9.1214,2.501-13.9763,1.9126-4.8549-.5885-21.6265-2.0597-22.6564-20.4496z"/>
</g>
</g>
</g>
<path fill="#fff" d="m49.7556,424.5975v-369.8754h139.5233c24.5572,.0004 43.3117,1.1778 56.2634,3.5322 18.1655,3.028 33.3878,8.7889 45.6667,17.2827 12.2784,8.4945 22.1603,20.3948 29.6455,35.7008 7.4847,15.3067 11.2271,32.1268 11.2275,50.4605-.0003,31.4539-10.0083,58.0718-30.024,79.8537-20.0163,21.7823-56.1796,32.6733-108.4901,32.6732h-94.8657v150.3723h-48.9467zm48.9467-194.0206h95.6226c31.6217,.0002 54.0766-5.8869 67.3647-17.6612 13.2877-11.7739 19.9316-28.3417 19.9319-49.7036-.0003-15.4743-3.911-28.7201-11.7321-39.7376-7.8216-11.0169-18.124-18.2916-30.907-21.8242-8.2421-2.1863-23.4643-3.2796-45.6667-3.2799h-94.6134v132.2065z"/>
</svg>
