<svg xmlns="http://www.w3.org/2000/svg" viewBox="0 0 580 580">
<path fill="#111" stroke="#eee" stroke-width="3.408" d="m66.275,1.768c-41.335,0-64.571,21.371-64.571,65.036v450.123c0,40.844 20.894,62.229 62.192,62.229h452.024c41.307,0 62.229-20.316 62.229-62.229v-450.123c0-42.601-20.922-65.036-63.522-65.036-.003,0-448.494-.143-448.352,0z"/>
<g fill="#fff">
<path d="m277.5901,329.1656c-17.1546,0-26.2547,9.3653-30.4559,20.3277l-22.301,57.5832c-8.8405,1.1336-24.5121,11.5107-24.5121,31.1691v73.2272h21.7066v23.4185c0,28.8116 40.7742,28.4722 40.7742,0v-23.4185h73.3461 .0238 73.346v23.4185c0,28.4722 40.774,28.8116 40.7743,0v-23.4185h21.7066v-73.2272c0-19.6584-15.6715-30.0355-24.5121-31.1691l-22.3247-57.5832c-4.2011-10.9624-13.3012-20.3277-30.4559-20.3277h-31.5257-53.6842-31.9061zm-.2615,20.9696h58.772 .0476 .0238 58.7957c7.3516,.0685 10.5002,4.666 12.6008,11.0316l16.8089,45.3153h-88.2054-.0238-.0476-88.1817l16.809-45.3153c2.1006-6.3656 5.2484-10.9632 12.6008-11.0316zm-34.2599,78.3864c10.4025,0 18.8299,8.6792 18.8299,19.4005 0,10.722-8.4274,19.4242-18.8299,19.4242-10.4017,0-18.8299-8.7022-18.8299-19.4242 0-10.7212 8.4282-19.4005 18.8299-19.4005zm186.1825,0c10.4025,0 18.8299,8.6792 18.8299,19.4005 0,10.722-8.4274,19.4242-18.8299,19.4242-10.4017,0-18.8537-8.7022-18.8537-19.4242 0-10.7212 8.452-19.4005 18.8537-19.4005z"/>
<path d="m47.8789,429.0412v-369.8754h139.5232c24.5572,.0004 43.3117,1.1778 56.2635,3.5322 18.1655,3.028 33.3878,8.7889 45.6667,17.2827 12.2784,8.4945 22.1603,20.3948 29.6455,35.7008 7.4847,15.3067 11.2271,32.1268 11.2275,50.4605-.0003,31.4539-10.0083,58.0718-30.024,79.8537-20.0163,21.7823-56.1796,32.6733-108.4901,32.6732h-94.8657v150.3723h-48.9467zm48.9467-194.0206h95.6226c31.6217,.0002 54.0766-5.8869 67.3647-17.6612 13.2877-11.7739 19.9316-28.3417 19.9319-49.7036-.0003-15.4743-3.911-28.7201-11.7321-39.7376-7.8216-11.0169-18.124-18.2916-30.907-21.8242-8.2421-2.1863-23.4643-3.2796-45.6667-3.2799h-94.6134v132.2065z"/>
</g>
</svg>
