<svg xmlns="http://www.w3.org/2000/svg" viewBox="0 0 580 580">
<path fill="#111" stroke="#eee" stroke-width="3.408" d="m66.275,1.768c-41.335,0-64.571,21.371-64.571,65.036v450.123c0,40.844 20.894,62.229 62.192,62.229h452.024c41.307,0 62.229-20.316 62.229-62.229v-450.123c0-42.601-20.922-65.036-63.522-65.036-.003,0-448.494-.143-448.352,0z"/>
<g fill="#fff" color="#000">
<path opacity=".25" d="m145.3438,74.2188c-2.9697,.0003-5.9314,1.2126-8.0312,3.3125-2.0999,2.0999-3.3122,5.0616-3.3125,8.0312v79.5312h78.2188v-18.6562h12.6562v-72.2188h-79.5312zm173.7188,25.0312v47.2812c18.857,.366 32.0575,1.6765 37.9375,3.2188 .0238,.006 .0702,.025 .0937,.0312 9.9454,2.7658 17.8624,7.6058 24.5312,15.0938h31.5938v-72.5312c-12.8223-6.613-27.4627-11.2108-43.7187-13.9375-.0574-.0104-.13-.0209-.1875-.0312-12.8278-2.3166-29.3794-3.5984-50.0387-4.0089l-.2113,24.8839zm94.4688,65.9375 0,94.1562 54.4688,0c5.9589-16.2032 8.9686-33.7655 8.9688-52.4375-.0002-14.5619-1.9459-28.5146-5.875-41.7188h-57.5625zm-38.4375,93.8438c-11.1096,8.0114-29.6621,13.4069-56.0312,14.4688v72.25c38.7005-.964 70.2861-7.3367 94.1562-20.1562v-66.5625h-38.125zm-241.0938,.2188v94.1562h78.2188v-7.5h12.6562v-72.1875h-12.6562v-14.4688h-78.2188zm0,188.3125 0,57.5938c.0003,2.9697 1.2126,5.9314 3.3125,8.0312 2.0999,2.0999 5.0616,3.3122 8.0312,3.3125h55.5312c2.9697-.0003 5.9314-1.2126 8.0312-3.3125 2.0999-2.0999 3.3122-5.0616 3.3125-8.0312v-57.5938h-78.2188z"/>
<path opacity=".25" d="m144.625,74.625a11.3451,11.3451 0 0,0 -11.3438,11.3438v419.5625a11.3451,11.3451 0 0,0 11.3438,11.3438h55.5a11.3451,11.3451 0 0,0 11.3438-11.3438v-159.2188h96.2812c60.9152,.0002 105.3999-12.4151 131.4375-40.75 24.5463-26.7124 37.0309-60.1627 37.0312-98.25-.0004-22.3413-4.5994-43.2494-13.875-62.2188-9.2028-18.8181-21.7118-34.0075-37.375-44.8438-15.5174-10.734-34.4053-17.7787-56.2188-21.4375-.0574-.0104-.13-.0209-.1875-.0312-15.9176-2.8746-37.5691-4.1558-65.6875-4.1562h-158.25zm11.3438,22.6875 146.9062,0c27.495,.0004 48.3613,1.3672 61.8125,3.8125a11.3451,11.3451 0 0,0 .1562,.0312c19.3189,3.2202 34.9233,9.2448 47.2188,17.75 12.1939,8.436 22.0953,20.2482 29.875,36.1563 7.7055,15.7582 11.5934,32.996 11.5938,52.25-.0003,33.2749-10.1975,60.2001-31.0625,82.9062-19.375,21.0844-56.9526,33.4064-114.7188,33.4062h-107.625a11.3451,11.3451 0 0,0 -11.3438,11.3438v159.2188h-32.8125v-396.875zm44.1562,26.8125a11.3451,11.3451 0 0,0 -11.3438,11.3438v149.9688a11.3451,11.3451 0 0,0 11.3438,11.3438h108.4688c37.2794,.0002 65.5518-6.5562 83.9688-22.875 17.6221-15.6146 26.4059-38.2902 26.4062-64.875-.0003-19.465-5.0517-37.114-15.375-51.6562-10.2302-14.4094-24.4657-24.4695-41.3125-29.125a11.3451,11.3451 0 0,0 -.0937-.0312c-11.7896-3.1273-29.1602-4.0934-54.7188-4.0938h-107.3438zm11.3438,22.6875 96,0c24.7033,.0003 41.8111,1.4906 48.7812,3.3125 .0312,.008 .0942,.0231 .125,.0312 12.0917,3.3689 21.2298,9.7954 28.7188,20.3438 7.4212,10.4541 11.1872,22.8885 11.1875,38.5312-.0003,21.8807-6.2565,36.7772-18.7812,47.875-11.7311,10.3946-34.4428,17.1877-68.9062,17.1875h-97.125v-127.2812z"/>
</g>
</svg>
