<svg xmlns="http://www.w3.org/2000/svg" viewBox="0 0 580 580">
<path fill="#111" stroke="#eee" stroke-width="3.408" d="m66.275,1.768c-41.335,0-64.571,21.371-64.571,65.036v450.123c0,40.844 20.894,62.229 62.192,62.229h452.024c41.307,0 62.229-20.316 62.229-62.229v-450.123c0-42.601-20.922-65.036-63.522-65.036-.003,0-448.494-.143-448.352,0z"/>
<g fill="#fff">
<path opacity=".25" stroke="#fff" stroke-linejoin="round" stroke-linecap="round" stroke-width="22.688" d="m145.3584,505.1504v-419.5841h158.2742c27.8575,.0004 49.1325,1.3361 63.8249,4.0069 20.6068,3.4349 37.8748,9.9701 51.804,19.6054 13.9286,9.6361 25.1385,23.1357 33.6297,40.4987 8.4906,17.3638 12.736,36.4444 12.7364,57.242-.0004,35.6811-11.3534,65.8763-34.059,90.5855-22.7063,24.7097-63.7297,37.0644-123.0704,37.0642h-107.615v170.5813h-55.5248zm55.5248-220.0956h108.4737c35.8714,.0002 61.3441-6.678 76.4181-20.0347 15.0734-13.3562 22.6103-32.1507 22.6106-56.3834-.0003-17.5539-4.4365-32.5799-13.3088-45.0781-8.8728-12.4975-20.5597-20.7499-35.0607-24.7572-9.3498-2.4801-26.6178-3.7204-51.804-3.7207h-107.3288v149.9741z"/>
<path opacity=".25" line-height="normal" color="#000" d="m145.3438,70.2188a11.3451,11.3451 0 0,0 -11.3438,11.3438v419.5938a11.3451,11.3451 0 0,0 11.3438,11.3438h55.5312a11.3451,11.3451 0 0,0 11.3438-11.3438v-159.25h96.2812c60.9152,.0002 105.3686-12.3838 131.4062-40.7188 24.5463-26.7124 37.0621-60.1939 37.0625-98.2812-.0004-22.3413-4.5994-43.2494-13.875-62.2188-9.2028-18.8181-21.7118-34.0075-37.375-44.8438-15.5174-10.734-34.4053-17.7787-56.2188-21.4375-.0574-.0104-.13-.0209-.1875-.0312-15.9176-2.8746-37.5691-4.1558-65.6875-4.1562h-158.2812zm11.3438,22.6875 146.9375,0c27.495,.0004 48.3613,1.3672 61.8125,3.8125a11.3451,11.3451 0 0,0 .1562,.0312c19.3189,3.2202 34.9233,9.2448 47.2188,17.75 12.1939,8.436 22.0953,20.2482 29.875,36.1563 7.7055,15.7582 11.5934,32.996 11.5938,52.25-.0003,33.2749-10.1975,60.2314-31.0625,82.9375-19.375,21.0844-56.9526,33.3752-114.7188,33.375h-107.625a11.3451,11.3451 0 0,0 -11.3438,11.3438v159.25h-32.8438v-396.9062zm44.1875,26.8438a11.3451,11.3451 0 0,0 -11.3438,11.3438v149.9688a11.3451,11.3451 0 0,0 11.3438,11.3438h108.4688c37.2794,.0002 65.5518-6.5874 83.9688-22.9062 17.6221-15.6146 26.4059-38.2902 26.4062-64.875-.0003-19.465-5.0829-37.0827-15.4062-51.625-10.2302-14.4094-24.4345-24.4695-41.2812-29.125a11.3451,11.3451 0 0,0 -.0937-.0312c-11.7896-3.1273-29.1602-4.0934-54.7188-4.0938h-107.3438zm11.3438,22.6875 96,0c24.7294,.0003 41.8252,1.488 48.7812,3.3125 .0238,.006 .0702,.025 .0937,.0312 12.1062,3.3667 21.2237,9.7869 28.7188,20.3438 7.4212,10.4541 11.2185,22.8572 11.2188,38.5-.0003,21.8807-6.2565,36.8084-18.7812,47.9062-11.7311,10.3946-34.4428,17.1877-68.9062,17.1875h-97.125v-127.2812z"/>
</g>
</svg>
