<svg xmlns="http://www.w3.org/2000/svg" viewBox="0 0 580 580">
<path fill="#111" stroke="#eee" stroke-width="3.408" d="m66.275,1.768c-41.335,0-64.571,21.371-64.571,65.036v450.123c0,40.844 20.894,62.229 62.192,62.229h452.024c41.307,0 62.229-20.316 62.229-62.229v-450.123c0-42.601-20.922-65.036-63.522-65.036-.003,0-448.494-.143-448.352,0z"/>
<g fill="#fff" color="#000">
<path opacity=".75" d="m145.3438,74.2188c-2.9697,.0003-5.9314,1.2126-8.0312,3.3125-2.0999,2.0999-3.3122,5.0616-3.3125,8.0312v22.4688h35.3438v-33.8125h-24zm66.9375,0v32.2812h41.9375v-32.2812h-41.9375zm85.375,0v31.4375h41.9375v-30.5c-10.5783-.6217-22.5059-.9373-35.9688-.9375h-5.9688zm87.4688,7.5v22.375h41.9375v-3.2812c-.4475-.3205-.891-.6555-1.3438-.9688-11.6863-8.0838-25.2742-14.0965-40.5938-18.125zm42.1875,21.2812v41.9375h35.9062c-.0406-.0835-.0842-.1666-.125-.25-8.3471-17.0683-19.4201-31.1303-33.0938-41.6875h-2.6875zm-172.3438,1.875v41.5625h41.9375v-41.5625h-41.9375zm86.5938,.1562v41.9375h41.9375v-41.9375h-41.9375zm-171.4688,2.4688v41.9375h41.9375v-41.9375h-41.9375zm215.0312,38.5312v23.1562c.2287,.3105 .4618,.6196 .6875,.9375 3.8191,5.38 6.6865,11.2867 8.5625,17.875h32.6875v-41.9688h-41.9375zm-251.125,3.9375v41.9375h35.3438v-41.9375h-35.3438zm334.7812,8.2188v28.7188h-41.4688v41.9375h41.9375v-40.7812h6.5625c-1.2736-10.3428-3.6057-20.3207-7.0312-29.875zm-298.6875,33.1875v41.9375h41.9375v-41.9375h-41.9375zm224.4375,38.5625c-1.9674,7.4184-5.1148,13.7705-9.4062,19.2812v22.6562h41.9375v-41.9375h-32.5312zm74.25,.0625v27.2188c3.0378-8.6987 5.211-17.7914 6.5625-27.2188h-6.5625zm-334.7812,3.8438v41.9375h35.3438v-41.9375h-35.3438zm293.3125,36.9375v41.9375h4.8125c2.7507-2.3705 5.3501-4.8856 7.7812-7.5312 9.6242-10.4734 17.3852-21.982 23.2812-34.4062h-35.875zm-87.7188,.8125c-5.4878,.8465-11.4161,1.4749-17.875,1.8125h17.875v-1.8125zm1.9688,1.2188v41.9375h41.9375v-41.9375h-41.9375zm-129.2812,.9062v.5625h41.9375v-.5625h-41.9375zm42.6875,0v40.8438h41.9375v-40.8438h-41.9375zm-84.875,1.5312v41.9375h41.9375v-41.9375h-41.9375zm215.0312,38.5625v23c16.359-4.7085 30.3738-11.3375 41.9375-20.0312v-2.9688h-41.9375zm-87.4688,1.5312v30.5625h10.8438c10.894,0 21.264-.4062 31.0938-1.2188v-29.3438h-41.9375zm-85.375,.875v29.6875h41.9375v-29.6875h-41.9375zm-78.2812,1.5v41.9688h35.3438v-41.9688h-35.3438zm36.0938,41.4375v41.9375h41.9375v-41.9375h-41.9375zm-36.0938,42.4688v41.9375h35.3438v-41.9375h-35.3438zm36.0938,41.4062v41.9375h41.9375v-41.9375h-41.9375zm-36.0938,42.4688v19.6562c.0003,2.9697 1.2126,5.9314 3.3125,8.0312 2.0999,2.0999 5.0616,3.3122 8.0312,3.3125h24v-31h-35.3438z"/>
<path opacity=".5" d="m145.3295,72.8451a11.3451,11.3451 0 0,0 -11.3438,11.3438v419.5937a11.3451,11.3451 0 0,0 11.3438,11.3438h55.5312a11.3451,11.3451 0 0,0 11.3438-11.3438v-159.25h96.2812c60.9152,.0002 105.3686-12.3838 131.4062-40.7187 24.5463-26.7124 37.0621-60.1939 37.0625-98.2813-.0004-22.3412-4.5994-43.2494-13.875-62.2187-9.2028-18.8181-21.7118-34.0076-37.375-44.8438-15.5174-10.734-34.4053-17.7787-56.2188-21.4375-.0574-.01-.13-.021-.1875-.031-15.9176-2.8746-37.5691-4.1559-65.6875-4.1563h-158.2812zm11.3438,22.6875 146.9375,0c27.495,.0004 48.3613,1.3673 61.8125,3.8125a11.3451,11.3451 0 0,0 .1562,.031c19.3189,3.2203 34.9233,9.2448 47.2188,17.75 12.1939,8.4361 22.0953,20.2483 29.875,36.1563 7.7055,15.7582 11.5934,32.996 11.5938,52.25-.0003,33.2749-10.1975,60.2313-31.0625,82.9375-19.375,21.0844-56.9526,33.3751-114.7187,33.375h-107.625a11.3451,11.3451 0 0,0 -11.3438,11.3437v159.25h-32.8438v-396.9062zm44.1875,26.8438a11.3451,11.3451 0 0,0 -11.3438,11.3437v149.9688a11.3451,11.3451 0 0,0 11.3438,11.3437h108.4688c37.2794,.0003 65.5518-6.5874 83.9687-22.9062 17.6221-15.6146 26.4059-38.2902 26.4062-64.875-.0003-19.465-5.0829-37.0827-15.4062-51.625-10.2302-14.4095-24.4345-24.4695-41.2812-29.125a11.3451,11.3451 0 0,0 -.0937-.031c-11.7896-3.1273-29.1602-4.0934-54.7187-4.0938h-107.3438zm11.3438,22.6875 96,0c24.7294,.0003 41.8252,1.488 48.7812,3.3125 .0238,.01 .0702,.025 .0937,.031 12.1062,3.3666 21.2237,9.7869 28.7188,20.3437 7.4212,10.4541 11.2185,22.8572 11.2188,38.5-.0003,21.8807-6.2565,36.8084-18.7812,47.9063-11.7311,10.3946-34.4428,17.1877-68.9062,17.1875h-97.125v-127.2813z"/>
</g>
</svg>
