<svg xmlns="http://www.w3.org/2000/svg" viewBox="0 0 580 580">
<path fill="#111" stroke="#eee" stroke-width="3.408" d="m66.275,1.768c-41.335,0-64.571,21.371-64.571,65.036v450.123c0,40.844 20.894,62.229 62.192,62.229h452.024c41.307,0 62.229-20.316 62.229-62.229v-450.123c0-42.601-20.922-65.036-63.522-65.036-.003,0-448.494-.143-448.352,0z"/>
<path fill="#fff" stroke="#fff" stroke-linejoin="round" stroke-linecap="round" stroke-width="22.688" d="m145.3584,505.1504v-419.5841h158.2742c27.8575,.0004 49.1325,1.3361 63.8249,4.0069 20.6068,3.4349 37.8748,9.9701 51.804,19.6054 13.9286,9.6361 25.1385,23.1357 33.6297,40.4987 8.4906,17.3638 12.736,36.4444 12.7364,57.242-.0004,35.6811-11.3534,65.8763-34.059,90.5855-22.7063,24.7097-63.7297,37.0644-123.0704,37.0642h-107.615v170.5813h-55.5248zm55.5248-220.0956h108.4737c35.8714,.0002 61.3441-6.678 76.4181-20.0347 15.0734-13.3562 22.6103-32.1507 22.6106-56.3834-.0003-17.5539-4.4365-32.5799-13.3088-45.0781-8.8728-12.4975-20.5597-20.7499-35.0607-24.7572-9.3498-2.4801-26.6178-3.7204-51.804-3.7207h-107.3288v149.9741z"/>
</svg>
