<svg xmlns="http://www.w3.org/2000/svg" viewBox="0 0 580 580">
<path fill="#111" stroke="#eee" stroke-width="3.408" d="m66.275,1.768c-41.335,0-64.571,21.371-64.571,65.036v450.123c0,40.844 20.895,62.229 62.192,62.229h452.024c41.307,0 62.229-20.315 62.229-62.229v-450.123c0-42.601-20.922-65.036-63.521-65.036-.004,0-448.495-.143-448.353,0z"/>
<g fill="#fff" transform="matrix(1.04324 .61949 -.61949 1.04324 -297.2856 -932.85729)">
<path fill-rule="evenodd" d="m922.9682,588.9609c24.0243,2.8053 52.3789,8.1762 65.0633,31.4084 9.2623,13.695 17.3251,28.384 28.8764,40.3662 20.4742,10.3603 40.8732,22.8018 55.5624,40.7036 18.4349,27.5651 12.8528,67.0487-8.5754,91.2553-23.9937,21.9674-58.5285,32.9418-90.5094,24.8145-20.4411-4.0866-40.8229-16.1127-62.0907-9.3945-19.6734,5.5213-39.1976,14.2204-60.1489,11.8866-19.9165-.675-37.7866-10.4153-54.5406-20.2091-19.5341-12.5388-31.7396-35.2114-30.4167-58.5079 .067-34.9727 26.3604-63.9664 55.9706-79.3157 12.6369-6.1417 25.9043-12.813 31.9116-26.452 8.5894-15.734 16.1235-35.4972 35.208-40.8631 10.7703-3.919 22.2699-5.4898 33.6895-5.6922z"/>
<path fill-rule="evenodd" d="m706.8316,545.9715c5.1298-18.0146 19.6713-34.6786 38.9773-37.1168 13.8028-1.7803 28.0859,1.7246 40.2375,8.2421 22.1607,14.7585 35.0595,39.7412 42.353,64.6795 3.676,11.9252 6.1767,24.6753 3.1477,37.0398-2.7993,14.6021-13.3906,26.9744-27.0205,32.6668-17.7036,10.6428-41.1795,9.2035-58.0597-2.43-10.0404-6.6499-18.9378-15.3294-24.338-26.2092-12.789-23.0631-21.4151-50.467-15.2973-76.872z"/>
<path fill-rule="evenodd" d="m421.7359,81.4625c0,0 29.4643,.1786 45.7143,37.8571 0,0 11.2131,24.4372 7.3214,61.9643 0,0-.6087,37.7797-23.0845,53.1845 0,0-30.5571,27.7792-65.6599-9.5964 0,0-24.4962-26.264-29.2944-63.3871 0,0-5.3033-38.3858 18.4353-61.3668 0,0 20.1393-18.8342 46.5679-18.6556z" transform="translate(452.857 333.791)"/>
<path fill-rule="evenodd" d="m576.5245,89.717c0,0 36.25,10.7143 32.3214,52.1429 0,0 2.0583,33.2769-17.6396,63.5815 0,0-19.9505,37.3756-46.467,41.4163 0,0-29.2944,9.0914-50.5076-35.8604 0,0-15.1523-51.0127 8.3338-85.3579 0,0 27.4211-50.9464 73.9591-35.9223z" transform="translate(452.857 333.791)"/>
<path fill-rule="evenodd" d="m1117.8,529.4287c17.0128,5.1996 29.0252,21.6554 30.538,39.1483 1.6415,15.7187-2.0788,31.5192-7.3703,46.2319-8.6097,21.5116-24.1266,40.317-43.7581,52.6355-14.8357,8.0975-33.3338,4.6611-46.9133-4.4171-5.555-2.6612-8.9406-7.703-11.333-13.196-9.0423-17.9919-10.3113-39.8923-2.093-58.4191 6.9469-17.4464 15.4953-35.2525 30.1471-47.5401 11.1088-10.0964 25.6272-18.3426 41.1562-16.7252 3.2906,.3341 6.5337,1.1109 9.6264,2.2818z"/>
</g>
</svg>
