<svg xmlns="http://www.w3.org/2000/svg" viewBox="0 0 580 580">
<path fill="#111" stroke="#eee" stroke-width="3.408" d="m66.275,1.768c-41.335,0-64.571,21.371-64.571,65.036v450.123c0,40.844 20.895,62.229 62.192,62.229h452.024c41.307,0 62.229-20.315 62.229-62.229v-450.123c0-42.601-20.922-65.036-63.521-65.036-.004,0-448.495-.143-448.353,0z"/>
<g fill="#fff">
<path stroke="#fff" stroke-linejoin="round" stroke-linecap="round" stroke-width="5.1" d="m230.3059,99.4988l-25.5739,37.3281h172.624l-23.3116-37.3281h-123.7385zm35.7379,4.4591h51.8691v29.246h-51.8691v-29.246zm171.706,11.3279l-9.0492,21.2952h68.2135l-8.2623-21.2952h-50.9019zm-332.2151,7.3279l-4.4263,13.8198h45.8855l-3.1967-13.8198h-38.2625z"/>
<path d="m78.25,148.8438c-24.6515,0-44.5,19.8485-44.5,44.5v237.8125c0,24.6515 19.8485,44.5 44.5,44.5h426.5625c24.6515,0 44.5-19.8485 44.5-44.5v-237.8125c0-24.6515-19.8485-44.5-44.5-44.5h-426.5625zm260.25,42.9688c65.2514,0 118.1562,52.8736 118.1562,118.125 0,65.2514-52.9048,118.1562-118.1562,118.1562-65.2514,0-118.1562-52.9048-118.1562-118.1562 0-65.2514 52.9048-118.125 118.1562-118.125z"/>
<path d="m452.6455,309.9471a118.1482,118.1482 0 1,1 -236.2963,0 118.1482,118.1482 0 1,1 236.2963,0z" transform="matrix(.5974 0 0 .5974 138.66776 124.78389)"/>
</g>
</svg>
