<svg xmlns="http://www.w3.org/2000/svg" viewBox="0 0 580 580">
<path fill="#111" stroke="#eee" stroke-width="3.408" d="m66.275,1.768c-41.335,0-64.571,21.371-64.571,65.036v450.123c0,40.844 20.895,62.229 62.192,62.229h452.024c41.307,0 62.229-20.315 62.229-62.229v-450.123c0-42.601-20.922-65.036-63.521-65.036-.004,0-448.495-.143-448.353,0z"/>
<path fill="#fff" line-height="125%" d="m-24.3823-58.668l3.2397-7.9602h3.3203l3.2397,7.9602h-9.7998zm10.5603-7.9602h5.3992v-2.9602h-21.4001v2.9602h5.3601l-3.2397,7.9602h-7.9199v2.959h6.72l-3.7195,9.281h3.6401l3.7598-9.281h12.1594l3.7598,9.281h3.6804l-3.7598-9.281h6.7603v-2.959h-7.9602l-3.2397-7.9602z" transform="matrix(14.68584 0 0 14.68584 569.76584 1146.0639)"/>
</svg>
