<svg xmlns="http://www.w3.org/2000/svg" viewBox="0 0 580 580">
<path fill="#111" stroke="#eee" stroke-width="3.408" d="m66.275,1.768c-41.335,0-64.571,21.371-64.571,65.036v450.123c0,40.844 20.895,62.229 62.192,62.229h452.024c41.307,0 62.229-20.315 62.229-62.229v-450.123c0-42.601-20.922-65.036-63.521-65.036-.004,0-448.495-.143-448.353,0z"/>
<g fill="#fff" fill-opacity=".477">
<path d="m551.0533,209.3164a220.8923,210.9788 0 1,1 -150.8523-133.056l-57.2645,203.766z" transform="matrix(1.21908 0 0 1.24727 -130.95215 -68.62914)"/>
<path d="m556.5876,221.1484a192.5661,173.3862 0 1,1 -130.3207-109.0573l-51.1082,167.1681z" transform="matrix(1.28279 -.00009 .00009 1.41587 -195.87921 -111.50756)"/>
</g>
<g fill-opacity=".39">
<path d="m217.7323,284.8271a20,20 0 0,1 -40,0 20,20 0 1,1 40,0z"/>
<path d="m260.2511,84.9372a20,20 0 0,1 -40,0 20,20 0 1,1 40,0z"/>
<path d="m168.0335,152.887a20,20 0 0,1 -40,0 20,20 0 1,1 40,0z"/>
<path d="m250.5439,189.2887a20,20 0 0,1 -40,0 20,20 0 1,1 40,0z"/>
<path d="m117.0711,262.092a20,20 0 0,1 -40,0 20,20 0 1,1 40,0z"/>
<path d="m153.4728,366.4435a20,20 0 0,1 -40,0 20,20 0 1,1 40,0z"/>
<path d="m284.5188,344.6025a20,20 0 0,1 -40,0 20,20 0 1,1 40,0z"/>
<path d="m384.0167,344.6025a20,20 0 0,1 -40,0 20,20 0 1,1 40,0z"/>
<path d="m493.2218,303.3473a20,20 0 0,1 -40,0 20,20 0 1,1 40,0z"/>
<path d="m449.5398,417.4059a20,20 0 0,1 -40,0 20,20 0 1,1 40,0z"/>
<path d="m342.7615,456.2343a20,20 0 0,1 -40,0 20,20 0 1,1 40,0z"/>
<path d="m214.1423,451.3807a20,20 0 0,1 -40,0 20,20 0 1,1 40,0z"/>
<path d="m316.0846,223.254a39.8942,37.5926 0 1,1 -79.7884,0h39.8942z" transform="matrix(.63489 -.22349 .21684 .61601 175.75323 165.23619)"/>
<path d="m316.0846,223.254a39.8942,37.5926 0 1,1 -79.7884,0h39.8942z" transform="matrix(-.18648 .64673 -.6275 -.18093 518.83158 -5.19287)"/>
</g>
</svg>
