<svg xmlns="http://www.w3.org/2000/svg" viewBox="0 0 580 580">
<path fill="#111" stroke="#eee" stroke-width="3.408" d="m66.275,1.768c-41.335,0-64.571,21.371-64.571,65.036v450.123c0,40.844 20.895,62.229 62.192,62.229h452.024c41.307,0 62.229-20.315 62.229-62.229v-450.123c0-42.601-20.922-65.036-63.521-65.036-.004,0-448.495-.143-448.353,0z"/>
<g stroke="#fff" stroke-linejoin="round" stroke-linecap="round">
<g fill="#fff" fill-rule="evenodd">
<path stroke-width="18.031" d="m27.2427-248.9779l12.3059,20.1871 113.3151,44.7051-.9857-56.9823-111.5901-22.4652-13.0452,14.5553z"/>
<g opacity=".5" transform="matrix(.54602 0 0 .54602 -7.0728 35.99267)">
<path stroke-width="18.697" d="m264.7333,44.019 45.5721,0 0,499.0933-45.0962,0-.4759-499.0933z"/>
<g stroke-width="18.8">
<path d="m488.3321,219.3783-30.1999,22.3796-177.6652-34.1768 1.085-49.6378 175.7665,22.7845 31.0136,38.6504z"/>
<path d="m75.406,253.8283 33.9056,19.2584 177.6652-56.9614 2.17-51.8077-179.0215,47.7391-34.7193,41.7717z"/>
</g>
<g stroke-width="18.031">
<path d="m437.1676,78.5844-20.9857,36.1218-146.9494,39.6853-10.9491-50.4725 157.1592-40.8051 21.725,15.4703z"/>
<path d="m136.2335,85.4607 20.9857,36.1219 146.9494,39.6853 10.9491-50.4725-157.1592-40.8051-21.725,15.4703z"/>
</g>
</g>
</g>
<g>
<path fill="none" stroke-width="21.244" d="m401.8605,336.5153-65.0423,.5103-147.3998,102.7002 157.1969,96.2368 64.2259,7.518 17.111-17.2131 34.6983-4.5584 37.0795-30.7182-41.0256-57.4223 29.9336-42.279-25.9875-39.398-60.7901-15.3761z"/>
</g>
<g fill="#fff" fill-rule="evenodd">
<g>
<path opacity=".2" stroke-width="21.244" d="m401.8605,336.5153-65.0423,.5103-147.3998,102.7002 157.1969,96.2368 64.2259,7.518 17.111-17.2131 34.6983-4.5584 37.0795-30.7182-41.0256-57.4223 27.7636-40.1091-23.8175-41.568-60.7901-15.3761z"/>
</g>
<g transform="matrix(.61356 0 0 .61356 175.07612 98.65298)">
<path stroke-width="18.697" d="m216.9942,46.189 45.5721,0 0,499.0932-45.0962,0-.4759-499.0932z"/>
<path stroke-width="18.8" d="m461.6584,109.6618-33.9056,27.9382-199.3648-8.1373 1.085-49.6378 197.4661-3.2549 34.7193,33.0919z"/>
</g>
</g>
</g>
</svg>
