<svg xmlns="http://www.w3.org/2000/svg" viewBox="0 0 580 580">
<path fill="#111" stroke="#eee" stroke-width="3.408" d="m66.275,1.768c-41.335,0-64.571,21.371-64.571,65.036v450.123c0,40.844 20.895,62.229 62.192,62.229h452.024c41.307,0 62.229-20.315 62.229-62.229v-450.123c0-42.601-20.922-65.036-63.521-65.036-.004,0-448.495-.143-448.353,0z"/>
<g fill="#fff" stroke="#fff" fill-rule="evenodd" stroke-linejoin="round" stroke-linecap="round">
<g>
<path stroke-width="18.697" d="m264.7333,44.019h45.5721v499.0933h-45.0962l-.4759-499.0933z"/>
</g>
<g stroke-width="18.8">
<path d="m492.0378,213.8197l-33.9056,27.9382-177.6653-34.1768 1.085-49.6378 175.7665,22.7845 34.7193,33.0919z"/>
<path d="m75.406,253.8283l33.9056,19.2584 177.6652-56.9614 2.17-51.8077-179.0215,47.7391-34.7193,41.7717z"/>
</g>
<g stroke-width="18.031">
<path d="m437.1676,78.5844l-20.9857,36.1218-146.9494,39.6853-10.9491-50.4725 157.1592-40.8051 21.725,15.4703z"/>
<path d="m27.2427-248.9779l12.3059,20.1871 113.3151,44.7051-.9857-56.9823-111.5901-22.4652-13.0452,14.5553z"/>
<path d="m136.2335,85.4607l20.9857,36.1219 146.9494,39.6853 10.9491-50.4725-157.1592-40.8051-21.725,15.4703z"/>
</g>
</g>
</svg>
