<svg xmlns="http://www.w3.org/2000/svg" viewBox="0 0 580 580">
<path fill="#111" stroke="#eee" stroke-width="3.408" d="m66.275,1.768c-41.335,0-64.571,21.371-64.571,65.036v450.123c0,40.844 20.895,62.229 62.192,62.229h452.024c41.307,0 62.229-20.315 62.229-62.229v-450.123c0-42.601-20.922-65.036-63.521-65.036-.004,0-448.495-.143-448.353,0z"/>
<g stroke="#fff" fill-rule="evenodd" stroke-linejoin="round" stroke-linecap="round">
<g>
<path fill="#fff" stroke-width="18.697" d="m216.9942,46.189h45.5721v499.0932h-45.0962l-.4759-499.0932z"/>
</g>
<g stroke-width="18.8">
<path fill="none" d="m461.6584,109.6618l-33.9056,27.9382-199.3648-8.1373 1.085-49.6378 197.4661-3.2549 34.7193,33.0919z"/>
<path opacity=".1" fill="#fff" d="m461.6584,109.6618l-33.9056,27.9382-199.3648-8.1373 1.085-49.6378 197.4661-3.2549 34.7193,33.0919z"/>
</g>
</g>
</svg>
