<svg xmlns="http://www.w3.org/2000/svg" viewBox="0 0 580 580">
<path fill="#111" stroke="#eee" stroke-width="3.408" d="m66.275,1.768c-41.335,0-64.571,21.371-64.571,65.036v450.123c0,40.844 20.895,62.229 62.192,62.229h452.024c41.307,0 62.229-20.315 62.229-62.229v-450.123c0-42.601-20.922-65.036-63.521-65.036-.004,0-448.495-.143-448.353,0z"/>
<g fill="#fff" fill-rule="evenodd" stroke="#fff" stroke-linejoin="round" stroke-linecap="round">
<g>
<path stroke-width="18.697" d="m264.7333,44.019h45.5721v499.0933h-45.0962l-.4759-499.0933z"/>
</g>
<g stroke-width="18.8">
<path d="m509.3975,107.4918l-33.9056,27.9382-199.3648-8.1373 1.085-49.6378 197.4661-3.2549 34.7193,33.0919z"/>
<path d="m61.3013,150.7553l33.9056,27.9382 199.3648-8.1373-1.085-49.6378-197.4661-3.2549-34.7193,33.0919z"/>
</g>
</g>
</svg>
