<svg xmlns="http://www.w3.org/2000/svg" viewBox="0 0 580 580">
<path fill="#111" stroke="#eee" stroke-width="3.408" d="m66.275,1.768c-41.335,0-64.571,21.371-64.571,65.036v450.123c0,40.844 20.895,62.229 62.192,62.229h452.024c41.307,0 62.229-20.315 62.229-62.229v-450.123c0-42.601-20.922-65.036-63.521-65.036-.004,0-448.495-.143-448.353,0z"/>
<path fill="#fff" line-height="125%" d="m-4.342-52.5889l-4.1602-.0391 2.9199-2.9199c.2929-.2938 .4394-.6405 .4395-1.04 0-.4004-.1467-.7405-.4401-1.0205-.2934-.2799-.6399-.4199-1.0394-.4199-.4004,0-.7471,.1335-1.04,.4004l-2.9199,2.959v-4.1589c0-.4004-.14-.7473-.4199-1.0406-.28-.2934-.6336-.44-1.0608-.4401-.3996,0-.7394,.1467-1.0193,.4401-.28,.2934-.4199,.6403-.4199,1.0406v4.1589l-2.9602-2.959c-.2669-.2669-.6002-.4004-.9998-.4004-.4273,0-.7809,.14-1.0608,.4199-.28,.28-.4199,.6201-.4199,1.0205 0,.3996 .1469,.7463 .4407,1.04l2.9199,2.959h-4.1602c-.4004,0-.7471,.14-1.04,.4199-.293,.28-.4395,.6201-.4395,1.0205 0,.4004 .1465,.7471 .4395,1.04 .293,.293 .6396,.4395 1.04,.4395h4.1602l-2.9199,2.9199c-.2938,.2938-.4407,.6405-.4407,1.04 0,.4004 .14,.7473 .4199,1.0406 .2799,.2934 .6335,.4401 1.0608,.4401 .3996,0 .7328-.1469 .9998-.4407l2.9602-2.9199v4.1199c0,.4272 .1399,.7808 .4199,1.0608 .2799,.2799 .6197,.4199 1.0193,.4199 .4272,0 .7808-.14 1.0608-.4199 .2799-.28 .4199-.6335 .4199-1.0608v-4.1199l2.9199,2.9199c.2929,.2938 .6396,.4407 1.04,.4407 .4264,0 .7796-.1467 1.0596-.4401 .2799-.2934 .4199-.6403 .4199-1.0406 0-.3996-.1465-.7463-.4395-1.04l-2.9199-2.9199h4.1602c.3995,0 .7393-.1465 1.0193-.4395 .2799-.293 .4199-.6396 .4199-1.04 0-.4004-.14-.7406-.4199-1.0205-.28-.2799-.6197-.4199-1.0193-.4199zm-15.8411-8.1201l.0403-9.6399c0-.3996-.1467-.746-.4401-1.0394-.2934-.2934-.6399-.44-1.0394-.4401-.4004,0-.7473,.1467-1.0406,.4401-.2934,.2934-.4401,.6399-.4401,1.0394v6.0803l-8.5999-8.5999c-.293-.2929-.6397-.4394-1.04-.4395-.3996,0-.7393,.1465-1.0193,.4395-.28,.293-.4199,.6397-.4199,1.04 0,.3996 .1331,.7463 .3992,1.04l8.5999,8.5999h-6.0791c-.4004,0-.7473,.14-1.0406,.4199-.2934,.28-.4401,.6332-.4401,1.0596 0,.4004 .1467,.7406 .4401,1.0205 .2934,.28 .6403,.4199 1.0406,.4199h9.6399c.3996,0 .7393-.14 1.0193-.4199 .2799-.2799 .4199-.6201 .4199-1.0205z" transform="matrix(14.68584 0 0 14.68584 569.76584 1146.0639)"/>
</svg>
