<svg xmlns="http://www.w3.org/2000/svg" viewBox="0 0 580 580" xmlns:xlink="http://www.w3.org/1999/xlink">
<path fill="#111" stroke="#eee" stroke-width="3.408" d="m66.275,1.768c-41.335,0-64.571,21.371-64.571,65.036v450.123c0,40.844 20.896,62.229 62.192,62.229h452.024c41.307,0 62.229-20.314 62.229-62.229v-450.123c0-42.601-20.922-65.036-63.521-65.036-.004,0-448.495-.143-448.353,0z"/>
<g fill="#fff">
<g>
<path d="m154.3311,234.5254c1.5877,12.4008 11.8783,21.5909 22.6344,20.2138l10.3337-1.3231c10.7561-1.3771 18.3994-12.8634 16.8117-25.2642l-5.42-42.3332c-1.5877-12.4008-11.8783-21.591-22.6344-20.2137l-10.3336,1.323c-10.7561,1.3771-18.3994,12.8634-16.8117,25.2642l5.4201,42.3332zm20.0807-3.0628c-5.523-4.9323-9.3984-35.2009-5.2961-41.3655 4.1021-6.1647 3.9713-6.148 9.4943-1.2156 5.523,4.9323 9.3984,35.2009 5.2961,41.3656-4.1022,6.1647-3.9713,6.1479-9.4943,1.2156z"/>
<path d="m273.778,116.0716c10.6702,7.6367 24.8577,6.8458 31.2056-1.7397l6.0987-8.2483c6.348-8.5855 2.7446-22.1094-7.9255-29.7462l-36.4253-26.0699c-10.6702-7.6367-24.8577-6.8459-31.2056,1.7397l-6.0987,8.2483c-6.348,8.5855-2.7447,22.1094 7.9255,29.7462l36.4253,26.0699zm11.4714-16.3758c-7.6144,.4245-33.6588-18.2156-35.5927-25.4741-1.9339-7.2583-2.0111-7.1539 5.6033-7.5784 7.6145-.4245 33.6588,18.2157 35.5927,25.474 1.9339,7.2583 2.0111,7.1539-5.6034,7.5784z"/>
<path d="m234.8197,84.6784c12.4561-1.071 22.0659-10.9708 21.137-21.7748l-.5074,9.8693c-.9289-10.804-12.0876-18.9182-24.5437-17.8472l-42.5219,3.656c-12.456,1.071-22.066,10.9707-21.137,21.7748l.5074-9.8693c.9289,10.804 12.0876,18.9181 24.5436,17.8472l42.5219-3.6559zm-2.2255-20.1907c-5.1576,5.3132-35.561,7.9273-41.55,3.5723-5.9888-4.3548-5.5925,16.0256-.4349,10.7124 5.1576-5.3132 35.5611-7.9273 41.5499-3.5724 5.9889,4.3548 5.5925-16.0256 .4349-10.7123z"/>
<path d="m194.6847,94.102c7.8574-10.5087 7.3623-24.7096-1.089-31.2351l-8.1194-6.2692c-8.4513-6.5255-22.0474-3.2048-29.9049,7.3039l-26.8233,35.8741c-7.8574,10.5087-7.3624,24.7097 1.0891,31.2351l8.1194,6.2692c8.4513,6.5256 22.0474,3.2048 29.9049-7.3039l26.8233-35.8741zm-16.1332-11.8102c.2657,7.6216-18.9131,33.2719-26.2102,35.0541-7.297,1.7822-7.1942,1.8616-7.4599-5.76-.2657-7.6216 18.9131-33.2719 26.2102-35.0541 7.297-1.7822 7.1942-1.8616 7.46,5.7601z"/>
<path d="m153.7473,177.1353c4.1396,11.7968 16.1209,18.6382 26.353,15.0477l-9.6847,1.9666c10.2322-3.5905 15.3115-16.4185 11.172-28.2153l-14.1313-40.2713c-4.1395-11.7968-16.1208-18.6383-26.353-15.0477l9.6847-1.9667c-10.2322,3.5905-15.3114,16.4184-11.1719,28.2153l14.1312,40.2714zm19.0002-7.1841c-6.4303-3.6718-16.5343-32.4661-13.8082-39.3509 2.726-6.8847-16.9135-1.4249-10.4831,2.2468 6.4303,3.6718 16.5343,32.4661 13.8083,39.3509-2.726,6.8848 16.9135,1.4249 10.4831-2.2468z"/>
</g>
<g transform="matrix(1.05979 -.50884 .50884 1.05979 -163.3567 110.33529)">
<path d="m137.9296,221.6621c-7.5854,.6046-11.3212,13.8145-12.9932,20.9153-.7985,11.7411 9.7603,31.8476 15.4112,30.635 40.722,0 66.0218,27.7177 66.0218,68.4398 0,40.722-27.1132,70.2532-67.8353,70.2532-16.188,0-24.46-14.3928-40.5878-11.8186-15.6733,2.5017-23.6625,9.7628-28.2513,18.0673-4.8574,8.7905-9.9265,22.8639 6.1281,35.0865 16.4877,12.5524 31.2611,13.7434 53.0394,13.7434 67.6226,.0001 127.1454-57.7092 127.1453-125.3319 0-67.6226-50.4555-119.9899-118.0781-119.99z"/>
<path opacity=".8" d="m133.0937,224.6475c-64.4039,0-117.1032,52.6008-117.1031,117.0046 0,47.375 23.678,91.9237 64.4017,110.2902l26.6018-46.2725c-30.1096-5.8038-45.8957-25.4571-45.8957-61.6539-.0001-43.9409 30.5092-77.9588 74.4502-77.9588 12.2346,0 16.7153,4.9207 29.0615,9.4106l11.3262-42.6456c-13.2782-5.2588-27.7417-8.1746-42.8426-8.1746z"/>
<path fill-rule="evenodd" d="m156.7571,289.1486l15.2385,10.6869c30.4213,23.1906 49.3758,21.863 67.6324-3.7246 18.2567-25.5877-19.4377-82.5565-19.4377-82.5565 0,0-.5599-.3995-.5599-.3995 0,0-66.1326-17.1111-84.3892,8.4766-18.2567,25.5877-13.3458,43.943 18.4799,65.1653l15.0629,10.9329"/>
</g>
</g>
<g transform="matrix(1.04129 0 0 1.04129 -1.53608 -18.65045)">
<path fill="#fff" d="m187.1204,514.0683a35.1636,35.1636 0 1,1 -70.3271,0 35.1636,35.1636 0 1,1 70.3271,0z"/>
</g>
<g fill="#fff" transform="matrix(-1.12152 .35249 .35249 1.12152 454.80212 -222.8075)">
<path d="m137.9296,221.6621c-7.5854,.6046-11.3212,13.8145-12.9932,20.9153-.7985,11.7411 9.7603,31.8476 15.4112,30.635 40.722,0 66.0218,27.7177 66.0218,68.4398 0,40.722-27.1132,70.2532-67.8353,70.2532-16.188,0-24.46-14.3928-40.5878-11.8186-15.6733,2.5017-23.6625,9.7628-28.2513,18.0673-4.8574,8.7905-9.9265,22.8639 6.1281,35.0865 16.4877,12.5524 31.2611,13.7434 53.0394,13.7434 67.6226,.0001 127.1454-57.7092 127.1453-125.3319 0-67.6226-50.4555-119.9899-118.0781-119.99z"/>
<path opacity=".8" d="m133.0937,224.6475c-64.4039,0-117.1032,52.6008-117.1031,117.0046 0,47.375 23.678,91.9237 64.4017,110.2902l26.6018-46.2725c-30.1096-5.8038-45.8957-25.4571-45.8957-61.6539-.0001-43.9409 30.5092-77.9588 74.4502-77.9588 12.2346,0 16.7153,4.9207 29.0615,9.4106l11.3262-42.6456c-13.2782-5.2588-27.7417-8.1746-42.8426-8.1746z"/>
<path fill-rule="evenodd" d="m156.7571,289.1486l15.2385,10.6869c30.4213,23.1906 49.3758,21.863 67.6324-3.7246 18.2567-25.5877-19.4377-82.5565-19.4377-82.5565 0,0-.5599-.3995-.5599-.3995 0,0-66.1326-17.1111-84.3892,8.4766-18.2567,25.5877-13.3458,43.943 18.4799,65.1653l15.0629,10.9329"/>
</g>
<g transform="matrix(-.76037 .71141 .71141 .76037 248.51272 -206.4392)">
<path fill="#fff" d="m187.1204,514.0683a35.1636,35.1636 0 1,1 -70.3271,0 35.1636,35.1636 0 1,1 70.3271,0z"/>
</g>
</svg>
