<svg xmlns="http://www.w3.org/2000/svg" viewBox="0 0 580 580" xmlns:xlink="http://www.w3.org/1999/xlink">
<path fill="#111" stroke="#eee" stroke-width="3.408" d="m66.275,1.768c-41.335,0-64.571,21.371-64.571,65.036v450.123c0,40.844 20.896,62.229 62.192,62.229h452.024c41.307,0 62.229-20.314 62.229-62.229v-450.123c0-42.601-20.922-65.036-63.521-65.036-.004,0-448.495-.143-448.353,0z"/>
<g fill="#fff">
<g>
<path d="m178.5508,226.4504c1.1314,8.8371 8.4648,15.3862 16.1298,14.4048l7.364-.9429c7.665-.9814 13.1118-9.1667 11.9804-18.0038l-3.8624-30.1676c-1.1314-8.8371-8.4648-15.3863-16.1298-14.4048l-7.364,.9428c-7.665,.9813-13.1119,9.1667-11.9804,18.0038l3.8625,30.1676zm14.31-2.1826c-3.9358-3.5149-6.6975-25.085-3.7741-29.4781 2.9233-4.3931 2.8301-4.3812 6.7659-.8663 3.9358,3.5149 6.6975,25.085 3.7741,29.4781-2.9233,4.3931-2.8301,4.3812-6.7659,.8663z"/>
<path d="m259.9352,142.0375c7.6038,5.4421 17.7142,4.8785 22.2379-1.2397l4.3461-5.8779c4.5237-6.1182 1.9559-15.7557-5.6479-21.1978l-25.9575-18.578c-7.6038-5.4421-17.7142-4.8785-22.2379,1.2398l-4.346,5.8779c-4.5238,6.1182-1.9559,15.7557 5.6479,21.1978l25.9575,18.578zm8.1748-11.6698c-5.4262,.3025-23.9861-12.9809-25.3642-18.1534-1.3782-5.1724-1.4332-5.098 3.9931-5.4005 5.4262-.3025 23.9861,12.9809 25.3642,18.1534 1.3781,5.1724 1.4332,5.098-3.9931,5.4005z"/>
<path d="m235.9089,119.6659c8.8765-.7632 15.7247-7.8181 15.0627-15.5172l-.3616,7.0331c-.662-7.6992-8.6139-13.4815-17.4904-12.7184l-30.3021,2.6053c-8.8765,.7632-15.7248,7.818-15.0627,15.5172l.3615-7.0331c.662,7.6992 8.6139,13.4815 17.4904,12.7183l30.3021-2.6053zm-1.586-14.3884c-3.6754,3.7863-25.3416,5.6492-29.6095,2.5457-4.2678-3.1033-3.9854,11.4202-.3099,7.6339 3.6754-3.7863 25.3417-5.6492 29.6095-2.5457 4.2678,3.1034 3.9854-11.4202 .3099-7.6339z"/>
<path d="m207.3077,126.3813c5.5993-7.4887 5.2465-17.6087-.7761-22.2589l-5.7861-4.4676c-6.0226-4.6502-15.7115-2.2838-21.3109,5.2049l-19.1149,25.5647c-5.5994,7.4888-5.2466,17.6087 .7761,22.2589l5.7861,4.4676c6.0226,4.6503 15.7115,2.2838 21.3109-5.2049l19.1149-25.5647zm-11.4969-8.4162c.1893,5.4313-13.4779,23.7103-18.678,24.9804-5.2,1.2701-5.1268,1.3266-5.3161-4.1047-.1894-5.4314 13.4779-23.7104 18.678-24.9804 5.2-1.27 5.1268-1.3266 5.3161,4.1048z"/>
<path d="m178.1348,185.5529c2.95,8.4067 11.4881,13.282 18.7798,10.7234l-6.9015,1.4015c7.2917-2.5587 10.9113-11.7002 7.9614-20.1069l-10.0703-28.6983c-2.9499-8.4067-11.488-13.2821-18.7798-10.7234l6.9015-1.4015c-7.2917,2.5587-10.9113,11.7001-7.9614,20.1069l10.0703,28.6983zm13.54-5.1196c-4.5824-2.6166-11.7828-23.1361-9.8401-28.0424 1.9426-4.9062-12.0529-1.0154-7.4705,1.6011 4.5824,2.6166 11.7828,23.1361 9.8401,28.0423-1.9426,4.9063 12.0529,1.0155 7.4705-1.6011z"/>
</g>
<g transform="matrix(.75523 -.36261 .36261 .75523 -47.84107 137.9496)">
<path d="m137.9296,221.6621c-7.5854,.6046-11.3212,13.8144-12.9932,20.9153-.7986,11.7411 9.7604,31.8476 15.4112,30.635 40.722,0 66.0218,27.7177 66.0218,68.4398 0,40.722-27.1132,70.2532-67.8353,70.2532-16.188,0-24.46-14.3928-40.5878-11.8186-15.6733,2.5017-23.6625,9.7628-28.2513,18.0673-4.8574,8.7905-9.9265,22.8639 6.1281,35.0865 16.4877,12.5524 31.2611,13.7434 53.0394,13.7434 67.6226,.0001 127.1454-57.7092 127.1453-125.3319 0-67.6226-50.4555-119.9899-118.0781-119.99z"/>
<path opacity=".8" d="m133.0937,224.6475c-64.4039,0-117.1032,52.6008-117.1031,117.0046 0,47.375 23.678,91.9237 64.4017,110.2902l26.6018-46.2725c-30.1096-5.8038-45.8957-25.4571-45.8957-61.6539-.0001-43.9409 30.5092-77.9588 74.4502-77.9588 12.2346,0 16.7153,4.9207 29.0615,9.4106l11.3262-42.6456c-13.2782-5.2588-27.7417-8.1746-42.8426-8.1746z"/>
<path fill-rule="evenodd" d="m156.7571,289.1486 15.2385,10.6869c30.4213,23.1906 49.3758,21.863 67.6324-3.7246 18.2567-25.5877-19.4377-82.5565-19.4377-82.5565 0,0-.5599-.3995-.5599-.3995 0,0-66.1326-17.1111-84.3892,8.4766-18.2567,25.5877-13.3458,43.943 18.4799,65.1653l15.0629,10.9329"/>
</g>
</g>
<g transform="matrix(.74205 0 0 .74205 67.47614 46.0313)">
<path fill="#fff" d="m187.1204,514.0683c0,19.4203-15.7433,35.1636-35.1636,35.1636-19.4203,0-35.1636-15.7433-35.1636-35.1636 0-19.4203 15.7433-35.1636 35.1636-35.1636 19.4203,0 35.1636,15.7433 35.1636,35.1636z"/>
</g>
<g fill="#fff" transform="matrix(-.79922 .25119 .25119 .79922 388.9373 -103.19214)">
<path d="m137.9296,221.6621c-7.5854,.6046-11.3212,13.8144-12.9932,20.9153-.7986,11.7411 9.7604,31.8476 15.4112,30.635 40.722,0 66.0218,27.7177 66.0218,68.4398 0,40.722-27.1132,70.2532-67.8353,70.2532-16.188,0-24.46-14.3928-40.5878-11.8186-15.6733,2.5017-23.6625,9.7628-28.2513,18.0673-4.8574,8.7905-9.9265,22.8639 6.1281,35.0865 16.4877,12.5524 31.2611,13.7434 53.0394,13.7434 67.6226,.0001 127.1454-57.7092 127.1453-125.3319 0-67.6226-50.4555-119.9899-118.0781-119.99z"/>
<path opacity=".8" d="m133.0937,224.6475c-64.4039,0-117.1032,52.6008-117.1031,117.0046 0,47.375 23.678,91.9237 64.4017,110.2902l26.6018-46.2725c-30.1096-5.8038-45.8957-25.4571-45.8957-61.6539-.0001-43.9409 30.5092-77.9588 74.4502-77.9588 12.2346,0 16.7153,4.9207 29.0615,9.4106l11.3262-42.6456c-13.2782-5.2588-27.7417-8.1746-42.8426-8.1746z"/>
<path fill-rule="evenodd" d="m156.7571,289.1486 15.2385,10.6869c30.4213,23.1906 49.3758,21.863 67.6324-3.7246 18.2567-25.5877-19.4377-82.5565-19.4377-82.5565 0,0-.5599-.3995-.5599-.3995 0,0-66.1326-17.1111-84.3892,8.4766-18.2567,25.5877-13.3458,43.943 18.4799,65.1653l15.0629,10.9329"/>
</g>
<g transform="matrix(-.54186 .50697 .50697 .54186 241.93057 -91.5277)">
<path fill="#fff" d="m187.1204,514.0683c0,19.4203-15.7433,35.1636-35.1636,35.1636-19.4203,0-35.1636-15.7433-35.1636-35.1636 0-19.4203 15.7433-35.1636 35.1636-35.1636 19.4203,0 35.1636,15.7433 35.1636,35.1636z"/>
</g>
<g stroke="#fff" stroke-linejoin="round" stroke-linecap="round">
<path fill="none" stroke-width="16" d="m287.6875,25.0625c-15.2759,11.9461-31.6728,23.3288-50.577,28.6498-35.9084,11.3955-76.4103,6.7018-109.3605-11.2748-7.9856-.5456-12.1619,7.8789-18.5169,11.2647-15.0896,12.5338-30.9267,24.4012-45.1081,37.8916-2.5874,5.7229 3.8166,10.186 4.7648,15.5784 13.5632,29.8138 28.3726,62.1325 22.3914,95.7341-6.1057,42.8158-32.4427,79.6574-40.0806,122.146-8.4928,54.8802 16.1528,114.427 63.6575,144.1871 55.0913,38.3032 122.8918,51.3254 180.0169,85.7606 7.6778,3.6281 13.5667-4.8136 20.0041-7.3884 54.4043-32.9885 118.5895-48.5603 168.9959-88.6428 28.8857-21.5948 48.3284-54.8072 53.7804-90.4878 5.7457-33.5102-.6561-68.5475-16.9055-98.2645-15.512-33.1851-33.4428-68.0472-30.0008-105.8024 2.689-27.3666 15.2309-52.4616 24.8447-77.8515 .1099-6.7953-8.1788-8.2625-11.7761-12.652-17.004-12.8941-33.6828-27.0474-52.1502-37.7473-11.4803,2.506-20.7445,11.5075-32.4799,13.618-43.525,14.4009-94.3274,5.1987-129.5625-24.5-.5991-.2831-1.2898-.3484-1.9375-.2188z"/>
<path opacity=".1" fill="#fff" fill-rule="evenodd" stroke-width="9.548" d="m299.3681,552.7936c87.5785-60.4862 234.8657-71.3042 236.1719-209.5329 .6234-61.9816-36.2608-81.5668-49.0466-158.1847-5.8466-35.0351 25.9386-99.8349 25.9386-99.8349l-61.067-46.0359c-36.592,23.168-105.332,37.0858-163.0918-10.4842-55.783,49.8071-125.0361,38.4506-162.5408,16.658l-59.1527,48.2673c0,0 34.391,63.5715 29.9707,98.7972-9.6667,77.0347-45.7283,97.9738-42.5899,159.8856 6.9151,138.0762 154.5303,143.4204 244.4976,200.6111"/>
</g>
</svg>
