<svg xmlns="http://www.w3.org/2000/svg" viewBox="0 0 580 580">
<path fill="#111" stroke="#eee" stroke-width="3.408" d="m66.275,1.768c-41.335,0-64.571,21.371-64.571,65.036v450.123c0,40.844 20.895,62.229 62.192,62.229h452.024c41.307,0 62.229-20.315 62.229-62.229v-450.123c0-42.601-20.922-65.036-63.521-65.036-.004,0-448.495-.143-448.353,0z"/>
<g fill="#fff" transform="matrix(1.0889 0 0 1.0889 -42.54325 -50.24652)">
<path d="m337.192,529.286c22.483-9.732 32.974-8.416 51.478,1.265 18.505,9.682 37.008,9.682 58.833-1.451 21.822-11.134 39.584-4.787 49.439,1.186 8.25,5 16.5,7 28.844,7v-44.53c-18.594,.03-26.57-6.292-26.57-6.292-19.214-11.86-36.827-9.514-61.024,3.072-13.802,7.176-35.689,5.288-51.184-2.79-21.351-11.132-33.439-8.41-55.816,1.54-17.337,7.708-32.984,7.704-50.25,0-22.363-9.978-33.896-12.672-55.247-1.54-15.494,8.078-37.701,9.966-51.503,2.79-24.198-12.586-41.49-14.932-60.706-3.072 0,0-8.294,6.292-26.5692,6.292v44.53c11.525,0 20.5252-2.25 28.2752-7 9.835-6.028 28.184-12.32 50.009-1.186 21.825,11.133 40.329,11.133 58.833,1.451 18.504-9.681 28.759-11.425 51.242-1.693 21.825,11.133 43.412,10.109 61.916,.428z"/>
<path d="m256.4375,37.0312v48h-55.7812v35.8125h-39.8125v68l-20.6562,8.4062c-12.3993,5.2703-17.5731,16.3471-12.4062,28.4688l34.0938,78.5312v109.3438c-22.0879-.0254-40.8985-26.8583-81.0938-4.4375 0,0-11.5007,6.4169-28.9375,6.8438v46.875c13.6254-1.0116 20.1459-3.1986 30.4688-8.9688 10.9609-6.1283 31.0159-12.0915 54.7812,.0312 23.7664,12.1228 43.9134,12.1354 64.0625,1.5938 20.1491-10.5417 37.706-11.0814 56.5625-1.5938 23.7664,12.1228 42.4191,12.2592 66.375,.2812 19.328-9.8001 36.6958-9.2292 56.8438,1.3125 20.1491,10.5417 40.2972,10.529 64.0625-1.5938 23.7653-12.1228 43.702-5.9821 54.75-.0312 9.7032,5.2257 16.5261,7.9572 30.5,8.9688v-47.3125c-17.785-.4268-28.9375-6.8438-28.9375-6.8438-41.1202-22.4314-59.0214,4.875-81.125,4.875v-109.3438l34.125-78.5312c5.1657-12.1217-.0069-23.1985-12.4062-28.4688l-20.6562-8.4062v-68h-39.8125v-35.8125h-55.7812v-48h-34.625-34.5938zm-26.3438,76.4375h60.9375 60.9688v35.2812h39.7812v27.4375l-100.75-41.5625-100.7188,41.5625v-27.4375h39.7812v-35.2812z" transform="matrix(.91836 0 0 .91836 39.06983 46.14417)"/>
</g>
</svg>
