<svg xmlns="http://www.w3.org/2000/svg" viewBox="0 0 580 580">
<path fill="#111" stroke="#eee" stroke-width="3.408" d="m66.275,1.768c-41.335,0-64.571,21.371-64.571,65.036v450.123c0,40.844 20.895,62.229 62.192,62.229h452.024c41.307,0 62.229-20.315 62.229-62.229v-450.123c0-42.601-20.922-65.036-63.521-65.036-.004,0-448.495-.143-448.353,0z"/>
<path fill="#fff" line-height="125%" d="m131.796,192.0463l96.4506,96.9198-96.4506,96.4506v-193.3704zm300.0591-18.1725l-118.8036,118.3486c-5.9061,5.9059-13.3618,8.8588-22.3672,8.8587-9.3187,.0001-17.0872-3.1092-23.3057-9.328l-117.8793-117.8793h282.3558zm18.6417,211.5429l-96.4506-96.4506 96.4506-96.9198v193.3704zm-301.4668,18.1725l96.9198-96.4506 4.1947,4.1947c11.1858,10.8733 24.699,16.3098 40.5397,16.3097 15.8402,.0001 29.197-5.4365 40.0704-16.3097l4.1947-4.1947 96.9056,96.4506h-282.8251zm-43.3267,26.0927h371.8247v-282.37h-371.8247v282.37z"/>
<g stroke="#fff" stroke-width="25.138">
<path fill="none" d="m505.7143,305.7143a288.5714,288.5714 0 1,1 -577.1429,0 288.5714,288.5714 0 1,1 577.1429,0z" transform="matrix(.94694 0 0 .94694 85.69328 2.97208)"/>
<path opacity=".1" fill="#fff" d="m505.7143,305.7143a288.5714,288.5714 0 1,1 -577.1429,0 288.5714,288.5714 0 1,1 577.1429,0z" transform="matrix(.94694 0 0 .94694 85.69328 2.97208)"/>
</g>
</svg>
