<svg xmlns="http://www.w3.org/2000/svg" viewBox="0 0 580 580">
<path fill="#111" stroke="#eee" stroke-width="3.408" d="m66.275,1.768c-41.335,0-64.571,21.371-64.571,65.036v450.123c0,40.844 20.895,62.229 62.192,62.229h452.024c41.307,0 62.229-20.315 62.229-62.229v-450.123c0-42.601-20.922-65.036-63.521-65.036-.004,0-448.495-.143-448.353,0z"/>
<path fill="#fff" line-height="125%" d="m126.1997,188.669l99.8279,100.3136-99.8279,99.8279v-200.1415zm310.5659-18.8088l-122.9636,122.4927c-6.1129,6.1128-13.8297,9.169-23.1504,9.1689-9.645,.0001-17.6856-3.2181-24.1217-9.6546l-122.007-122.007h292.2427zm19.2945,218.9503l-99.8279-99.8279 99.8279-100.3136v200.1415zm-312.0229,18.8088l100.3136-99.8279 4.3416,4.3416c11.5774,11.254 25.5638,16.8809 41.9592,16.8808 16.3949,.0001 30.2194-5.6268 41.4736-16.8808l4.3416-4.3416 100.2989,99.8279h-292.7284zm-44.8438,27.0064h384.8444v-292.2575h-384.8444v292.2575z"/>
</svg>
