<svg xmlns="http://www.w3.org/2000/svg" viewBox="0 0 580 580">
<path fill="#111" stroke="#eee" stroke-width="3.408" d="m66.275,1.768c-41.335,0-64.571,21.371-64.571,65.036v450.123c0,40.844 20.894,62.229 62.192,62.229h452.024c41.307,0 62.229-20.316 62.229-62.229v-450.123c0-42.601-20.922-65.036-63.522-65.036-.003,0-448.494-.143-448.352,0z"/>
<g fill="#fff">
<path d="m468.232,77.93h-.251c.287-.248 .445-.498 .445-.75 0-5.937-81.067-10.75-181.07-10.75-100.002,0-181.07,4.813-181.07,10.75 0,.252 .158,.502 .446,.75h-.446l56.512,430.928h.255c-.5,.27-.765,.544-.765,.821 0,4.102 55.996,7.425 125.07,7.425 69.075,0 125.07-3.323 125.07-7.425 0-.277-.266-.552-.765-.821l56.569-430.928zm-92.8529,399.4226c-2.895,2.679-174.6007,1.4236-177.4957-1.2554l-53.6822-340.2529c95.0774,65.9054 157.6082-8.951 282.1598-2.5108l-50.9819,344.0191z"/>
<path opacity=".1" fill-rule="evenodd" d="m129.3074,119.2641l310.0866,2.5108-50.2165,371.6017-212.1645,2.5108-47.7056-376.6234z"/>
</g>
</svg>
