<svg xmlns="http://www.w3.org/2000/svg" viewBox="0 0 580 580">
<path fill="#111" stroke="#eee" stroke-width="3.408" d="m66.275,1.768c-41.335,0-64.571,21.371-64.571,65.036v450.123c0,40.844 20.894,62.229 62.192,62.229h452.024c41.307,0 62.229-20.316 62.229-62.229v-450.123c0-42.601-20.922-65.036-63.522-65.036-.003,0-448.494-.143-448.352,0z"/>
<g fill="none" stroke="#fff" stroke-linejoin="round" stroke-linecap="round" stroke-width="8.7">
<path d="m162.0938,118.9062c-7.5439,1.8603-17.8662-1.8012-23.3438,5.1562-1.8527,8.2797 6.8782,17.2108 15.25,14.5938 8.642,.2692 18.8857,3.456 26.2812-2.5625-1.0784-7.9806-9.4911-12.2238-15.3125-16.625-.9167-.3661-1.8757-.6779-2.875-.5625z"/>
<path d="m213.0938,306.9062c-7.5439,1.8603-17.8662-1.8012-23.3438,5.1562-1.8527,8.2797 6.8782,17.2108 15.25,14.5938 8.642,.2692 18.8857,3.456 26.2812-2.5625-1.0784-7.9806-9.4911-12.2238-15.3125-16.625-.9167-.3661-1.8757-.6779-2.875-.5625z"/>
<path d="m317.8125,219.0312c-6.9451,1.6692-15.6633-1.7558-21.2188,3.9688-1.0867,7.6608 7.1753,14.0543 14.375,11.6875 7.5539,.2194 16.5942,3.1224 23.0625-1.625-2.3551-6.8105-9.4791-10.9266-15.3438-14.1562-.2993,.01-.5788-.2699-.875,.125z"/>
<path d="m179.9062,216.4062c-2.7774-.3049-3.4997,1.7747-.9688,2.8438 5.2075,2.2159 11.1259-.3416 16.5625,1.4062 4.3259,1.0906 2.0075-1.1031-.25-2.4375-4.4551-3.2052-10.1756-.9873-15.3438-1.8125z"/>
<path d="m353.8125,325.9062c-8.9326,1.5151-21.5442-1.6353-26.8125,7.9688-3.1858,11.1059 8.8595,22.8896 19.9375,19.8438 9.509,.7346 22.4643,3.6587 28.8677-5.4925 .74-10.8398-10.5611-17.0273-18.4927-21.9138-1.1306-.328-2.3222-.5074-3.5-.4062z"/>
<path d="m278.9062,291.4062c-2.7774-.305-3.4997,1.7747-.9688,2.8438 5.2075,2.2159 11.1259-.3416 16.5625,1.4062 4.3259,1.0906 2.0075-1.1031-.25-2.4375-4.4551-3.2052-10.1756-.9873-15.3438-1.8125z"/>
<path d="m110.8438,257.3438c-5.1865,1.2232-12.1298-1.782-16.25,2.0625 1.1427,5.7249 8.0867,6.5415 12.8125,5.375 4.6024,.0651 11.3469,2.2409 14.8438,.1562-2.8528-3.3559-6.9663-6.9835-11.4062-7.5938z"/>
<path d="m125.8438,403.3438c-5.1865,1.2232-12.1298-1.782-16.25,2.0625 1.1427,5.7249 8.0867,6.5415 12.8125,5.375 4.6024,.0651 11.3468,2.2409 14.8438,.1562-2.8528-3.3559-6.9663-6.9835-11.4062-7.5938z"/>
<path d="m81.0938,509.9062c-7.5439,1.8603-17.8662-1.8012-23.3438,5.1562-1.8527,8.2796 6.8782,17.2108 15.25,14.5938 8.642,.2692 18.8857,3.456 26.2812-2.5625-1.0784-7.9806-9.4911-12.2238-15.3125-16.625-.9167-.3661-1.8757-.6779-2.875-.5625z"/>
<path d="m184.9062,492.4062c-2.7774-.305-3.4997,1.7747-.9688,2.8438 5.2075,2.2159 11.1259-.3416 16.5625,1.4062 4.3259,1.0906 2.0075-1.1031-.25-2.4375-4.4551-3.2052-10.1756-.9873-15.3438-1.8125z"/>
<path d="m86.8125,336.0312c-6.9451,1.6692-15.6633-1.7558-21.2188,3.9688-1.0867,7.6608 7.1753,14.0543 14.375,11.6875 7.5539,.2194 16.5942,3.1224 23.0625-1.625-2.3551-6.8105-9.4791-10.9266-15.3438-14.1562-.2993,.01-.5787-.2699-.875,.125z"/>
<path d="m467.0938,281.9062c-7.5439,1.8603-17.8662-1.8012-23.3438,5.1562-1.8527,8.2797 6.8782,17.2108 15.25,14.5938 8.642,.2692 18.8857,3.456 26.2812-2.5625-1.0784-7.9806-9.491-12.2238-15.3125-16.625-.9167-.3661-1.8757-.6779-2.875-.5625z"/>
<path d="m46.8125,151.9062c-8.9326,1.5151-21.5442-1.6353-26.8125,7.9688-3.1858,11.1059 8.8595,22.8896 19.9375,19.8438 9.509,.7346 22.4643,3.6587 28.8677-5.4925 .7399-10.8398-10.5611-17.0273-18.4927-21.9138-1.1306-.328-2.3222-.5074-3.5-.4062z"/>
<path d="m520.8125,504.9062c-8.9326,1.5151-21.5442-1.6353-26.8125,7.9688-3.1858,11.1059 8.8595,22.8896 19.9375,19.8438 9.509,.7346 22.4643,3.6588 28.8677-5.4925 .74-10.8398-10.5611-17.0273-18.4927-21.9138-1.1306-.328-2.3222-.5074-3.5-.4062z"/>
<path d="m496.9062,459.4062c-2.7774-.305-3.4997,1.7747-.9688,2.8438 5.2075,2.2159 11.1259-.3416 16.5625,1.4062 4.3259,1.0906 2.0075-1.1031-.25-2.4375-4.4551-3.2052-10.1756-.9873-15.3438-1.8125z"/>
<path d="m397.8438,514.3438c-5.1865,1.2232-12.1298-1.782-16.25,2.0625 1.1427,5.7249 8.0867,6.5415 12.8125,5.375 4.6024,.0651 11.3469,2.2409 14.8438,.1562-2.8528-3.3559-6.9663-6.9835-11.4062-7.5938z"/>
<path d="m407.8125,418.0312c-6.9451,1.6692-15.6633-1.7558-21.2188,3.9688-1.0867,7.6608 7.1753,14.0543 14.375,11.6875 7.5539,.2194 16.5942,3.1224 23.0625-1.625-2.3551-6.8105-9.4791-10.9266-15.3438-14.1562-.2993,.01-.5788-.2699-.875,.125z"/>
<path d="m284.0938,450.9062c-7.5439,1.8603-17.8662-1.8012-23.3438,5.1562-1.8527,8.2797 6.8782,17.2108 15.25,14.5938 8.642,.2692 18.8857,3.456 26.2812-2.5625-1.0784-7.9806-9.491-12.2238-15.3125-16.625-.9167-.3661-1.8757-.6779-2.875-.5625z"/>
<path d="m499.0938,133.9062c-7.5439,1.8603-17.8662-1.8012-23.3438,5.1562-1.8527,8.2797 6.8782,17.2108 15.25,14.5938 8.642,.2692 18.8857,3.456 26.2812-2.5625-1.0784-7.9806-9.491-12.2238-15.3125-16.625-.9167-.3661-1.8757-.6779-2.875-.5625z"/>
<path d="m456.9062,89.4062c-2.7774-.305-3.4997,1.7747-.9688,2.8438 5.2075,2.2159 11.1259-.3416 16.5625,1.4062 4.3259,1.0906 2.0075-1.1031-.25-2.4375-4.4551-3.2052-10.1756-.9873-15.3438-1.8125z"/>
<path d="m387.8438,174.3438c-5.1865,1.2232-12.1298-1.782-16.25,2.0625 1.1427,5.7249 8.0867,6.5415 12.8125,5.375 4.6024,.0651 11.3469,2.2409 14.8438,.1562-2.8528-3.3559-6.9663-6.9835-11.4062-7.5938z"/>
<path d="m241.8125,21.9062c-8.9326,1.5151-21.5442-1.6353-26.8125,7.9688-3.1858,11.1059 8.8595,22.8896 19.9375,19.8438 9.509,.7346 22.4643,3.6587 28.8677-5.4925 .74-10.8398-10.5611-17.0273-18.4927-21.9138-1.1306-.328-2.3222-.5074-3.5-.4062z"/>
<path d="m270.9062,73.4062c-2.7774-.305-3.4997,1.7747-.9688,2.8438 5.2075,2.2159 11.1259-.3416 16.5625,1.4062 4.3259,1.0906 2.0075-1.1031-.25-2.4375-4.4551-3.2052-10.1756-.9873-15.3438-1.8125z"/>
<path d="m163.8438,50.3438c-5.1865,1.2232-12.1298-1.782-16.25,2.0625 1.1427,5.7249 8.0867,6.5415 12.8125,5.375 4.6024,.0651 11.3468,2.2409 14.8438,.1562-2.8528-3.3559-6.9663-6.9835-11.4062-7.5938z"/>
<path d="m553.8438,171.3438c-5.1865,1.2232-12.1298-1.782-16.25,2.0625 1.1427,5.7249 8.0867,6.5415 12.8125,5.375 4.6024,.0651 11.3469,2.2409 14.8438,.1562-2.8528-3.3559-6.9662-6.9835-11.4062-7.5938z"/>
</g>
</svg>
