<svg xmlns="http://www.w3.org/2000/svg" viewBox="0 0 580 580">
<path fill="#111" stroke="#eee" stroke-width="3.408" d="m66.275,1.768c-41.335,0-64.571,21.371-64.571,65.036v450.123c0,40.844 20.895,62.229 62.192,62.229h452.024c41.307,0 62.229-20.315 62.229-62.229v-450.123c0-42.601-20.922-65.036-63.521-65.036-.004,0-448.495-.143-448.353,0z"/>
<path fill="#fff" line-height="125%" d="m215.2977,353.28l-62.227-108.4224h-125.1483l50.8721,29.4491-31.4505,54.201c-2.6822,4.9151-4.0233,10.048-4.0232,15.3985-.0001,5.3508 1.341,10.4836 4.0232,15.3985l49.5038,86.3254c2.2327-6.2492 4.4656-11.6067 6.6985-16.0724l61.5735-105.7267 50.1778,29.4491zm-93.0035,86.9993c-3.5809,5.8-5.3712,12.0424-5.3711,18.7273-.0001,10.2657 3.6827,18.9656 11.0485,26.0998 7.3655,7.1342 16.1743,10.7013 26.4266,10.7013h123.1469v-99.702h-129.8251c-.8988,1.7836-4.248,7.5836-10.0478,17.3999l-15.378,26.7737zm166.6262-246.9474h124.4744l62.9009-108.402-50.8517,29.4491-31.4709-54.2214c-5.8004-10.2516-14.7181-15.3776-26.7533-15.3781h-99.0486c4.0161,4.4525 7.3654,8.9114 10.0478,13.3767l60.8791,105.7267-10.0274,6.0246-40.1504,23.4245zm-60.8995-143.2017c-14.2823,.0004-24.9904,6.2429-32.1244,18.7273l-62.227,107.0745c23.6353,13.833 52.4104,30.3411 86.3254,49.5243 20.0681-34.3501 41.7022-71.8252 64.9023-112.4252l-24.7519-44.1736c-7.1345-12.4844-17.8426-18.7269-32.1244-18.7273zm159.9481,344.6276v-12.0492-46.1546l-62.2474,108.402 62.2474,107.7485v-58.2242h62.227c12.0487,0 21.1911-5.1328 27.4273-15.3985l49.5243-86.3254c-6.6855,1.7837-12.2608,2.6754-16.7259,2.6753l-122.4526-.6739zm92.35-183.3521c-2.2334,1.3345-31.0153,17.8426-86.3458,49.5243 27.6651,47.7341 49.5306,85.4338 65.5967,113.0991h50.1778c14.7308,.0001 25.6635-6.2491 32.7984-18.7477 6.6843-12.0491 6.4597-24.3161-.6739-36.8011l-61.5531-107.0745z"/>
</svg>
