<svg xmlns="http://www.w3.org/2000/svg" viewBox="0 0 580 580">
<path fill="#111" stroke="#eee" stroke-width="3.408" d="m66.275,1.768c-41.335,0-64.571,21.371-64.571,65.036v450.123c0,40.844 20.894,62.229 62.192,62.229h452.024c41.307,0 62.229-20.316 62.229-62.229v-450.123c0-42.601-20.922-65.036-63.522-65.036-.003,0-448.494-.143-448.352,0z"/>
<g fill="#fff">
<g stroke="#fff" stroke-linejoin="round" stroke-linecap="round" stroke-width="10" transform="matrix(1.15757 0 0 1.15757 83.723 38.80318)">
<path d="m100.25,5.75c-39.9147-.2526-73.4235,41.3292-64.926,80.3296 5.5758,32.6282 37.2035,59.5134 70.8322,56.2017 22.4828-1.3884 43.509-14.7832 54.8125-34.0938 10.2543-8.0448 25.5716,2.6096 35.6562-6.0625 6.8951-7.1348 12.6599-16.6293 22.375-19.8438 7.7921,2.2013 11.2873,10.6465 17.7188,14.5625 6.4579-4.1374 10.1911-13.9795 19.0312-13.9375 6.2537,3.7642 10.2189,10.4069 16.125,14.3438 6.709-4.2926 10.6856-14.5506 19.8125-14.5625 6.3804,3.5977 9.9062,11.1091 16.5625,13.9688 9.2604-8.3522 18.7373-16.9997 26.4688-26.9375-.0281-5.6228-7.6363-8.7384-10.6564-13.337-6.2814-5.5436-11.586-15.7808-21.4686-13.663-13.3651,1.0669-27.0332-.3215-40.5312,.2188-32.6966-.0142-65.6498,.7838-98.1875-.8125-8.9178-7.6671-13.6673-19.6243-24.625-25.0625-11.3823-7.5935-25.2194-11.739-39-11.3125zm-27.1562,44.7812c19.5272-.4862 31.1845,27.246 17,40.7188-11.4794,12.6332-36.0494,8.5717-40.875-8.375-5.3491-15.1554 7.1097-34.0217 23.875-32.3438z"/>
</g>
<g>
<path d="m215.5697,239.1933c-23.7747,0-36.3866,12.9794-42.209,28.1723l-30.9072,79.8051c-12.2522,1.5711-33.9715,15.9528-33.9715,43.1975v101.4862h30.0834v32.4558c0,39.9302 56.5093,39.4599 56.5094,0v-32.4558h101.651 .033 101.6509v32.4558c0,39.4599 56.5091,39.9302 56.5094,0v-32.4558h30.0834v-101.4862c0-27.2447-21.7192-41.6265-33.9716-43.1975l-30.94-79.8051c-5.8224-15.1929-18.4342-28.1723-42.2091-28.1723h-43.6917-74.4014-44.2189zm-.3625,29.062h81.4526 .0659 .033 81.4855c10.1887,.0949 14.5523,6.4666 17.4635,15.2888l23.2957,62.8028h-122.2447-.033-.0659-122.2118l23.2957-62.8028c2.9112-8.8222 7.2738-15.1939 17.4635-15.2888zm-47.481,108.6364c14.4168,0 26.0965,12.0286 26.0965,26.8872 0,14.8597-11.6796,26.9202-26.0965,26.9202-14.4158,0-26.0965-12.0605-26.0965-26.9202 0-14.8586 11.6807-26.8872 26.0965-26.8872zm258.032,0c14.4169,0 26.0966,12.0286 26.0965,26.8872 0,14.8597-11.6796,26.9202-26.0965,26.9202-14.4158,0-26.1295-12.0605-26.1295-26.9202 0-14.8586 11.7137-26.8872 26.1295-26.8872z"/>
</g>
</g>
</svg>
