<svg xmlns="http://www.w3.org/2000/svg" viewBox="0 0 580 580">
<path fill="#111" stroke="#eee" stroke-width="3.408" d="m66.275,1.768c-41.335,0-64.571,21.371-64.571,65.036v450.123c0,40.844 20.894,62.229 62.192,62.229h452.024c41.307,0 62.229-20.316 62.229-62.229v-450.123c0-42.601-20.922-65.036-63.522-65.036-.003,0-448.494-.143-448.352,0z"/>
<g fill-rule="evenodd">
<g fill="none" stroke="#fff">
<g stroke-width="26">
<path d="m278.9129,461.9627a78.3806,78.3806 0 1,1 -156.7612,0 78.3806,78.3806 0 1,1 156.7612,0z" transform="matrix(-1.04344 0 0 1.04344 323.37568 -17.91917)"/>
<path d="m278.9129,461.9627a78.3806,78.3806 0 1,1 -156.7612,0 78.3806,78.3806 0 1,1 156.7612,0z" transform="matrix(-1.04344 0 0 1.04344 673.88637 -19.51244)"/>
</g>
<g>
<path stroke-linejoin="round" stroke-width="21.782" d="m399.8509,323.3777l-210.3064,1.0622-74.3507,138.0799h142.3285l148.7014-100.9045"/>
</g>
</g>
<g fill="#fff">
<g>
<path stroke-linecap="round" stroke-width="25" d="m391.7696,240.6265c11.4235,0 20.0581-.2549 28.9085,13.2659 2.5476,4.5072 3.7123,10.0105 2.7717,15.4886-1.1284,6.2291-4.8163,12.3491-9.1638,15.972-5.7568,4.7974-11.2203,4.4273-10.3373,8.7399 1.1329,5.5336 4.5904,13.2232 8.3268,25.7095 3.7927,12.6745 8.2963,28.1868 12.717,43.466 4.4207,15.2791 8.7602,30.3332 12.1952,42.0638 1.7176,5.8653 3.2176,10.9016 4.3695,14.6734 1.1223,3.6748 2.1131,6.5294 2.0216,6.3259 3.5788,6.2967 4.066,10.3995 10.0687,15.7588 6.7304,5.8904 12.2103,10.2419 14.1121,11.5712 4.8305,3.5091 7.0762,10.9145 4.5253,14.5736-3.2147,4.9867-9.8539,5.7517-14.7063,4.2598-4.6074-1.4626-11.901-3.9749-20.3584-10.9798l-.0652-.0978-.0978-.0652c-11.768-10.0939-16.1216-22.3447-16.5646-23.0535l-.6196-.9456-.4239-1.0434c-1.0197-2.5101-1.6305-4.7234-2.8368-8.6736-1.2064-3.9502-2.7357-9.0536-4.4673-14.9669-3.4632-11.8266-7.7806-26.9036-12.1952-42.1616-4.4146-15.258-8.9072-30.6914-12.6518-43.2051-3.7446-12.5137-6.1103-22.7912-6.9848-24.9775-2.1285-5.3212-3.2159-11.066-1.7608-16.8255 1.4551-5.7596 5.8032-10.408 9.7063-11.4886 8.9092-2.4925 6.5453-8.9009 1.9872-8.9102l-38.1963-.0778-.0942-24.3957c.0002-.0005 24.7931-.0005 39.8141-.0005z"/>
</g>
<g stroke="#fff">
<g>
<path stroke-width="26.086" d="m254.7972,458.1965l-72.1014-176.4981"/>
<path stroke-linecap="round" stroke-width="9.521" d="m279.5834,413.1311l-43.5639,101.3966"/>
<path stroke-width="31.305" d="m278.9129,461.9627a78.3806,78.3806 0 1,1 -156.7612,0 78.3806,78.3806 0 1,1 156.7612,0z" transform="matrix(-.2942 0 0 .25985 315.7233 342.74209)"/>
</g>
<g stroke-linecap="round" stroke-width="13.304">
<path d="m298.9774,413.1773l-38.4822,.3527"/>
<path d="m255.6367,513.0712l-38.4822,.3528"/>
</g>
</g>
<g>
<path d="m147.3959,265.9256h90.5023c3.3798,0 7.742,5.9786 3.3798,9.9515-4.718,4.4902-47.1288,13.7068-47.1288,13.7068 0,0-11.6414,3.192-17.8376,2.4409-6.1962-.7511-27.6013-2.6287-28.9156-26.0992z"/>
</g>
</g>
</g>
<g fill="#fff" stroke="#fff" stroke-linejoin="round" stroke-linecap="round" stroke-width="10" transform="matrix(1.15757 0 0 1.15757 79.723 48.80318)">
<path d="m100.25,5.75c-39.9147-.2526-73.4235,41.3292-64.926,80.3296 5.5758,32.6282 37.2035,59.5134 70.8322,56.2017 22.4828-1.3884 43.509-14.7832 54.8125-34.0938 10.2543-8.0448 25.5716,2.6096 35.6562-6.0625 6.8951-7.1348 12.6599-16.6293 22.375-19.8438 7.7921,2.2013 11.2873,10.6465 17.7188,14.5625 6.4579-4.1374 10.1911-13.9795 19.0312-13.9375 6.2537,3.7642 10.2189,10.4069 16.125,14.3438 6.709-4.2926 10.6856-14.5506 19.8125-14.5625 6.3804,3.5977 9.9062,11.1091 16.5625,13.9688 9.2604-8.3522 18.7373-16.9997 26.4688-26.9375-.0281-5.6228-7.6363-8.7384-10.6564-13.337-6.2814-5.5436-11.586-15.7808-21.4686-13.663-13.3651,1.0669-27.0332-.3215-40.5312,.2188-32.6966-.0142-65.6498,.7838-98.1875-.8125-8.9178-7.6671-13.6673-19.6243-24.625-25.0625-11.3823-7.5935-25.2194-11.739-39-11.3125zm-27.1562,44.7812c19.5272-.4862 31.1845,27.246 17,40.7188-11.4794,12.6332-36.0494,8.5717-40.875-8.375-5.3491-15.1554 7.1097-34.0217 23.875-32.3438z"/>
</g>
</svg>
