<svg xmlns="http://www.w3.org/2000/svg" viewBox="0 0 580 580">
<path fill="#111" stroke="#eee" stroke-width="3.408" d="m66.275,1.768c-41.335,0-64.571,21.371-64.571,65.036v450.123c0,40.844 20.895,62.229 62.192,62.229h452.024c41.307,0 62.229-20.315 62.229-62.229v-450.123c0-42.601-20.922-65.036-63.521-65.036-.004,0-448.495-.143-448.353,0z"/>
<path fill="#fff" d="m383.5979,119.6825a95.1323,95.1323 0 1,1 -190.2645,0 95.1323,95.1323 0 1,1 190.2645,0z" transform="matrix(-.80165 0 0 .80165 523.6097 195.80594)"/>
<g stroke="#fff">
<g>
<path fill="none" stroke-width="13.099" d="m383.5979,119.6825a95.1323,95.1323 0 1,1 -190.2645,0 95.1323,95.1323 0 1,1 190.2645,0z" transform="matrix(-1.9971 0 0 1.9971 868.45444 52.73205)"/>
</g>
<g fill="#fff" stroke-linejoin="round" stroke-linecap="round" stroke-width="12.356">
<path d="m325.9902,401.2991v156.4393l-78.6773-78.6773 78.6773-77.762z"/>
<path d="m402.434,260.8954h156.4393l-78.6773,78.6773-77.762-78.6773z"/>
<path d="m268.72,183.1136v-156.4393l78.6773,78.6773-78.6773,77.762z"/>
<path d="m184.2485,327.5312h-156.4393l78.6773-78.6773 77.7621,78.6773z"/>
</g>
</g>
</svg>
