<svg xmlns="http://www.w3.org/2000/svg" viewBox="0 0 580 580">
<path fill="#111" stroke="#eee" stroke-width="3.408" d="m66.275,1.768c-41.335,0-64.571,21.371-64.571,65.036v450.123c0,40.844 20.895,62.229 62.192,62.229h452.024c41.307,0 62.229-20.315 62.229-62.229v-450.123c0-42.601-20.922-65.036-63.521-65.036-.004,0-448.495-.143-448.353,0z"/>
<g fill="#fff" stroke="#fff" fill-rule="evenodd">
<path stroke-width="18.023" d="m35.8449,459.6217l504.9043,.0072m-487.1956-36.1251l449.2336,.0267m-431.1717-35.9783l373.1129-.0607"/>
<path stroke-width="36.045" d="m71.7563,162.2689l253.1129,19.9393m-216.4473-14.6687l.0313,222.8165m72.0594-222.8165l.0312,222.8165m52.0594-222.8165l20.0312,222.8165m-7.9406-142.8165l100.0313,142.8165"/>
</g>
</svg>
