<svg xmlns="http://www.w3.org/2000/svg" viewBox="0 0 580 580">
<path fill="#111" stroke="#eee" stroke-width="3.408" d="m66.275,1.768c-41.335,0-64.571,21.371-64.571,65.036v450.123c0,40.844 20.895,62.229 62.192,62.229h452.024c41.307,0 62.229-20.315 62.229-62.229v-450.123c0-42.601-20.922-65.036-63.521-65.036-.004,0-448.495-.143-448.353,0z"/>
<path fill="#fff" line-height="125%" d="m-7.063-45.3086c-.4794,0-1.1392,.1467-1.9794,.4401-.8403,.2934-1.5005,.4401-1.9806,.4401-.4794,0-1.1459-.1467-1.9995-.4401-.8537-.2934-1.5072-.4401-1.9604-.4401-.4794,0-1.1459,.1467-1.9995,.4401-.8537,.2934-1.5202,.4401-1.9995,.4401-.4541,0-1.1078-.1467-1.9611-.4401-.8533-.2934-1.5196-.4401-1.9989-.4401-.4802,0-1.1404,.1467-1.9806,.4401-.8403,.2934-1.5005,.4401-1.9806,.4401-.4793,0-1.1391-.1467-1.9794-.4401-.8403-.2934-1.5005-.4401-1.9806-.4401-.4793,0-1.1458,.1467-1.9995,.4401-.8537,.2934-1.5072,.4401-1.9604,.4401v2.9199c.4533,0 1.1068-.1467 1.9604-.4401 .8537-.2934 1.5202-.4401 1.9995-.4401 .4801,0 1.1403,.1467 1.9806,.4401 .8402,.2934 1.5,.4401 1.9794,.4401 .4801,0 1.1403-.1467 1.9806-.4401 .8402-.2934 1.5004-.4401 1.9806-.4401 .4793,0 1.1456,.1467 1.9989,.4401 .8533,.2934 1.5069,.4401 1.9611,.4401 .4793,0 1.1458-.1467 1.9995-.4401 .8537-.2934 1.5202-.4401 1.9995-.4401 .4533,0 1.1067,.1467 1.9604,.4401 .8537,.2934 1.5202,.4401 1.9995,.4401 .4801,0 1.1403-.1467 1.9806-.4401 .8402-.2934 1.5-.4401 1.9794-.4401 .4801,0 1.1403,.1467 1.9806,.4401 .8402,.2934 1.5,.4401 1.9794,.4401v-2.9199c-.4794,0-1.1392-.1467-1.9794-.4401-.8403-.2934-1.5005-.4401-1.9806-.4401zm-8.7598-30.52l-18.0798,22.0801h18.0798v-22.0801zm1.6797,5.0806v16.9995h10.8411c.0529-.4801 .0793-.9469 .0793-1.4001 0-3.3862-1.2-6.5995-3.5999-9.6399-2.0533-2.64-4.4934-4.6264-7.3206-5.9595zm-15.4797,18.5999v4.3604c.4272,.1327 .8675,.2791 1.3208,.4395 .4533,.1603 .9196,.2405 1.3989,.2405 .4801,0 1.1468-.1467 2.0001-.4401 .8533-.2934 1.5069-.4401 1.9611-.4401 .4793,0 1.1456,.1467 1.9989,.4401 .8533,.2934 1.5069,.4401 1.9611,.4401 .4793,0 1.1458-.1467 1.9995-.4401 .8537-.2934 1.5202-.4401 1.9995-.4401 .4533,0 1.1067,.1467 1.9604,.4401 .8537,.2934 1.5202,.4401 1.9995,.4401 0,0 .1334-.0134 .4004-.0403 0,0 .0067,0 .0201,0 .0134,0 .0466,0 .0995,0 .0537-.0269 .1139-.0403 .1807-.0403 .0667,0 .2067-.0269 .4199-.0806 .6396-.293 1.4127-.7593 2.3193-1.3989l2.8003-3.4802h-24.8401z" transform="matrix(14.68584 0 0 14.68584 569.76584 1146.0639)"/>
</svg>
