<svg xmlns="http://www.w3.org/2000/svg" viewBox="0 0 580 580">
<path fill="#111" stroke="#eee" stroke-width="3.408" d="m66.275,1.768c-41.335,0-64.571,21.371-64.571,65.036v450.123c0,40.844 20.895,62.229 62.192,62.229h452.024c41.307,0 62.229-20.315 62.229-62.229v-450.123c0-42.601-20.922-65.036-63.521-65.036-.004,0-448.495-.143-448.353,0z"/>
<path opacity=".75" fill="none" stroke="#fff" fill-rule="evenodd" stroke-linecap="round" stroke-width="30.787" d="m109.5342,508.6965l44.8375-108.5539 67.2681-38.795 1.6353-147.1276 18.5105-40.2375 47.257-111.8853m182.6685,446.5993l-33.8998-82.0733-108.1031-175.2842 4.1418-90.9379-41.6473-98.304"/>
<path fill="#fff" d="m73.2495,149.8191v274.0028h437.7503v-274.0028h-437.7503zm69.9759,25.8802c12.2612,.0001 22.0989,.7111 29.5361,2.0845 7.437,1.3736 13.6422,4.2397 18.6004,8.5947 3.4839,3.0152 6.2317,7.2683 8.2419,12.7958 2.0099,5.5277 3.0144,10.8174 3.0146,15.8424v47.1103c-.0001,5.0251 .3254,8.9862 .9621,11.8337 .6364,2.8476 2.0249,6.4815 4.169,10.9037h-38.3873c-1.5411-2.7471-2.5456-4.8451-3.0145-6.2856-.4691-1.4406-.9421-3.7167-1.4111-6.7988-5.3602,5.1591-10.7097,8.853-16.0027,11.064-7.2362,2.948-15.6256,4.4256-25.2067,4.4256-12.7303,0-22.3913-2.9551-28.9909-8.8512-6.5996-5.8961-9.9095-13.1642-9.9095-21.8073 0-8.1071 2.3944-14.7853 7.1515-20.0114 4.7571-5.226 13.5319-9.0952 26.3292-11.6413 15.3432-3.082 25.2686-5.2385 29.8247-6.4781 4.556-1.2395 9.4033-2.8645 14.4955-4.8746-.0001-5.025-1.0338-8.5408-3.1107-10.5509-2.0771-2.01-5.7418-3.0145-10.9678-3.0146-6.7002,.0001-11.7227,1.063-15.0727,3.207-2.6131,1.6751-4.7418,4.8375-6.3498,9.4605l-39.0929-4.137c1.474-6.834 3.6013-12.2113 6.3819-16.131 2.7805-3.9195 6.8-7.317 12.0261-10.1981 3.752-2.0769 8.8914-3.6713 15.4576-4.8104 6.5661-1.1389 13.6881-1.7317 21.3263-1.7318zm280.9619,0c17.4202,.0001 30.6847,3.1333 39.8305,9.3643 9.1456,6.2312 15.5887,15.3302 19.2738,27.3233l-38.5156,5.1311c-1.2061-4.556-3.3918-7.9827-6.5743-10.2944-3.1826-2.3115-7.4678-3.4634-12.8279-3.4635-6.7672,.0001-12.2321,2.4223-16.4196,7.2798-4.1876,4.8577-6.2857,12.2148-6.2856,22.0639-.0001,8.7772 2.0674,15.4233 6.2215,19.9794 4.154,4.5561 9.4743,6.8629 15.9065,6.8629 5.36,0 9.8497-1.3899 13.5013-4.137 3.6515-2.747 6.4007-6.9724 8.2098-12.6675l38.8684,4.4256c-2.1442,8.1072-5.6599,15.1402-10.5509,21.0697-4.8912,5.9296-11.1241,10.5389-18.7287,13.822-7.6047,3.283-17.2658,4.9067-28.9909,4.9067-11.3233,0-20.7478-1.0643-28.2854-3.1749-7.5377-2.1105-14.0392-5.5066-19.4663-10.2302-5.4271-4.7236-9.6817-10.279-12.7637-16.6441-3.0821-6.3651-4.618-14.8158-4.618-25.335 0-10.9881 1.8601-20.1163 5.6122-27.4195 2.747-5.36 6.4993-10.1767 11.2564-14.4313 4.7571-4.2545 9.6628-7.4155 14.6879-9.4926 7.9731-3.283 18.1963-4.9386 30.6586-4.9387zm-261.5598,58.495c-5.6282,2.0101-11.5092,3.7826-17.6062,5.3236-8.3082,2.2111-13.5673,4.3982-15.7783,6.5422-2.2781,2.2111-3.3994,4.7223-3.3994,7.5364 0,3.2161 1.1227,5.8456 3.3673,7.8891 2.2445,2.0436 5.5223,3.0787 9.8774,3.0787 4.556,0 8.812-1.1242 12.7316-3.3352 3.9195-2.211 6.6965-4.899 8.3381-8.0815 1.6415-3.1825 2.4693-7.3188 2.4694-12.4109v-6.5422zm77.8009,20.9415h41.3057v51.0548c4.087-4.288 8.7256-7.5088 13.9182-9.653 5.1925-2.1439 10.9232-3.2068 17.2214-3.207 12.9981,.0001 23.7528,4.6679 32.262,14.0144 8.509,9.3467 12.7636,22.7601 12.7637,40.2474-.0001,11.6582-1.9507,21.9413-5.8367,30.8189-3.8862,8.8777-9.2635,15.4945-16.131,19.8832-6.8677,4.3886-14.4906,6.6063-22.8656,6.6063-7.1692,0-13.7277-1.568-19.6907-4.6501-4.4891-2.412-9.3628-6.9323-14.6558-13.5654v15.7782h-38.2911v-147.3278zm59.874,68.7573c-5.5611,.0001-10.08,2.0369-13.5975,6.1574-3.5176,4.1206-5.2915,10.3856-5.2915,18.7607 0,9.1792 1.7447,15.8268 5.1953,19.9473 3.4505,4.1206 7.7912,6.1895 13.0844,6.1894 4.891,0 8.9981-2.0396 12.3147-6.0932 3.3165-4.0535 5.0028-10.8792 5.0029-20.4604-.0001-8.4421-1.6251-14.6152-4.8746-18.5683-3.2496-3.953-7.2107-5.9328-11.8337-5.9329z"/>
<path fill="none" stroke="#fff" stroke-linejoin="round" stroke-linecap="round" stroke-width="20.525" d="m73.2633,149.821h437.7487v273.986h-437.7487z"/>
</svg>
