<svg xmlns="http://www.w3.org/2000/svg" viewBox="0 0 580 580">
<path fill="#111" stroke="#eee" stroke-width="3.408" d="m66.275,1.768c-41.335,0-64.571,21.371-64.571,65.036v450.123c0,40.844 20.895,62.229 62.192,62.229h452.024c41.307,0 62.229-20.315 62.229-62.229v-450.123c0-42.601-20.922-65.036-63.521-65.036-.004,0-448.495-.143-448.353,0z"/>
<g fill="#fff">
<path opacity=".75" line-height="normal" color="#000" d="m288.875,46.5a15.395,15.395 0 0,0 -14,9.5938l-39.5938,93.7188h33.4375l21.9375-51.9375 22,51.9375h33.4375l-39.7188-93.7188a15.395,15.395 0 0,0 -15.8125-9.5 15.395,15.395 0 0,0 -1.6875-.0938zm-160.9062,377.3125l-32.6562,79a15.395,15.395 0 1,0 28.4375,11.75l37.5-90.75h-33.2812zm290.0312,0l6.0938,9.875 33.375,80.875a15.3991,15.3991 0 1,0 28.4688-11.75l-32.6562-79h-35.2812z"/>
<path d="m73.1671,152.237-.4138,263.991 436.5296,1.4798 1.1289-266.4051-437.2446,.9343zm24.1924,59.3978 40.284,0c6.705,12.1955 13.4314,24.3792 20.1223,36.5825 7.6972-12.1991 15.4111-24.3877 23.1151-36.5825h40.5203c-13.8083,21.3039-27.6195,42.606-41.426,63.911 14.9385,23.8019 29.8106,47.6455 44.7732,71.4323h-39.969c-8.7627-14.3301-17.7497-28.5211-26.4622-42.883-8.528,14.3124-17.0817,28.6095-25.6747,42.883h-38.8664c14.0109-23.4084 28.0831-46.7809 42.0561-70.2116-9.6424-16.4186-19.3724-32.8028-29.0612-49.1835l-9.4114-15.9482zm271.9074,0 37.1338,0c8.9051,26.3422 17.761,52.7011 26.6985,79.0323 8.371-26.3452 16.7683-52.6821 25.1234-79.0323h37.5669l-38.827,107.8967c-7.8833,16.1038-9.0995,34.4358-15.8695,50.9162-8.5095,22.514-35.9479,33.9087-58.595,26.226-1.9019-7.7008-1.7085-17.2506-2.8352-25.6353-3.0116-8.1827 3.0635-5.2199 8.1907-4.371 11.3033,2.7343 27.8262-1.422 29.5338-14.7669-12.5939-44.5036-30.2826-87.6773-45.1276-131.6024l-2.9928-8.6632zm-90.4914,5.0404 33.2353,0 0,45.2457 45.2851,0 0,32.8021-45.2851,0 0,45.8758-33.2353,0 0-45.8758-45.2851,0 0-32.8021 23.8633,0c6.509-1.4717 19.0355,3.0741 21.4218-2.5202v-42.7255z"/>
</g>
<path fill="none" stroke="#fff" stroke-linejoin="round" stroke-linecap="round" stroke-width="20.525" d="m73.2633,149.821h437.7487v273.986h-437.7487z"/>
</svg>
