<svg xmlns="http://www.w3.org/2000/svg" viewBox="0 0 580 580">
<path fill="#111" stroke="#eee" stroke-width="3.408" d="m66.275,1.768c-41.335,0-64.571,21.371-64.571,65.036v450.123c0,40.844 20.895,62.229 62.192,62.229h452.024c41.307,0 62.229-20.315 62.229-62.229v-450.123c0-42.601-20.922-65.036-63.521-65.036-.004,0-448.495-.143-448.353,0z"/>
<g stroke="#fff" stroke-linecap="round">
<g fill="none" fill-rule="evenodd" stroke-width="19.201">
<path d="m134.6928,73.993l-78.8528,78.8528"/>
<path d="m241.4263,44.0082l-78.8528,78.8528"/>
<path d="m114.6261,184.102l-61.8815,61.8815"/>
<path d="m275.8608,105.0409l-78.8528,78.8528"/>
<path d="m456.7565,87.9444l-78.8528,78.8528"/>
<path d="m546.2052,80.6207l-58.3457,56.2243"/>
<path d="m548.3266,157.7957l-60.4672,59.0529"/>
<path d="m446.7483,185.5025l-27.2317,25.1103"/>
<path d="m353.9649,119.4676l-39.253,37.8388"/>
<path d="m370.556,33.1566l-46.3244,47.7387"/>
</g>
<g fill="#fff" stroke-linejoin="round">
<g transform="matrix(.87248 0 0 .87248 43.27383 78.88897)">
<path fill-rule="evenodd" stroke-width="21.459" d="m48.2889,272.4019l240.0108-128.0058 240.0108,128.0058-16.0703,16.3645-80.2404-32.3652-143.7859-17.3048-144.1143,17.0548-79.8205,32.2553-15.9902-16.0045z"/>
</g>
<g stroke-width="22.631" transform="matrix(.87248 0 0 .87248 43.27383 78.88897)">
<path d="m414.996,255.092h30.829v258.641h-30.829z"/>
<path d="m128.996,255.092h30.829v258.641h-30.829z"/>
</g>
</g>
</g>
</svg>
