<svg xmlns="http://www.w3.org/2000/svg" viewBox="0 0 580 580">
<path fill="#111" stroke="#eee" stroke-width="3.408" d="m66.275,1.768c-41.335,0-64.571,21.371-64.571,65.036v450.123c0,40.844 20.895,62.229 62.192,62.229h452.024c41.307,0 62.229-20.315 62.229-62.229v-450.123c0-42.601-20.922-65.036-63.521-65.036-.004,0-448.495-.143-448.353,0z"/>
<g stroke="#fff" stroke-linecap="round">
<g fill="none" fill-rule="evenodd" stroke-width=".3" transform="matrix(59.6522 0 0 59.6522 -72.30499 -50.56204)">
<path d="m3.25,2.25l-1,1"/>
<path d="m3.6,3.4l-1.232,1.232"/>
<path d="m5.132,3.118l-1.232,1.232"/>
<path d="m3.1,4.9l-.9669,.9669"/>
<path d="m6.382,2.868l-1.232,1.232"/>
<path d="m8.132,2.118l-1.232,1.232"/>
<path d="m8.632,3.618l-1.232,1.232"/>
<path d="m10.0296,3.5036l-.9116,.8785"/>
<path d="m10.0296,2.0036l-.9116,.8785"/>
<path d="m10.0627,4.7094l-.9448,.9227"/>
<path d="m8.5435,4.9897l-.4255,.3923"/>
<path d="m7.2633,4.0088l-.6133,.5912"/>
<path d="m4.8418,2.1361l-.7238,.7459"/>
</g>
<g fill="#fff" stroke-linejoin="round">
<g stroke-width=".335" transform="matrix(59.6522 0 0 59.6522 -72.30499 -50.56204)">
<path fill-rule="evenodd" d="m2.25,6.5l3.75-2 3.75,2-.2511,.2557-1.2537-.5057-2.2466-.2704-2.2517,.2665-1.2471,.504-.2498-.2501z"/>
<path d="m3.75,6h.5v3.5h-.5z"/>
<path d="m7.75,6h.5v3.5h-.5z"/>
</g>
<g>
<path fill-rule="evenodd" stroke-width="10" d="m346.1651,531.706c-16.3152-52.9775-104.2234-52.8935-120.4546,0 0,0 120.4546,0 120.4546,0z"/>
</g>
</g>
</g>
</svg>
