<svg xmlns="http://www.w3.org/2000/svg" viewBox="0 0 580 580">
<path fill="#111" stroke="#eee" stroke-width="3.408" d="m66.275,1.768c-41.335,0-64.571,21.371-64.571,65.036v450.123c0,40.844 20.895,62.229 62.192,62.229h452.024c41.307,0 62.229-20.315 62.229-62.229v-450.123c0-42.601-20.922-65.036-63.521-65.036-.004,0-448.495-.143-448.353,0z"/>
<g fill="#fff">
<path d="m121.5289,132.2315 100.5665,27.3778 55.8434-38.7399 19.4002,4.6536-55.2995,38.8607 304.7818,83.5838-22.3011,81.8312-305.9301-83.4025c-118.5162-35.2345-96.9403-114.2856-96.9403-114.2856"/>
<path d="m385.8786,341.5235c-.3626-6.8293-1.6318-13.3565-3.8679-19.521l137.9163,38.4377-4.4119,16.9223-129.6365-35.8389z"/>
<path d="m260.654,306.8933c3.7471-5.4393 8.1589-10.3347 13.1752-14.5048l-230.0821-63.5189v18.2518l216.907,59.7718z"/>
<path d="m317.5248,367.3904c12.3895,0 22.422-9.972 22.422-22.3616 0-12.3895-10.0325-22.422-22.422-22.422-12.3895,0-22.422,10.0325-22.422,22.422 0,12.3895 10.0325,22.3616 22.422,22.3616zm224.5824,137.4328c-10.939,0-21.3341-2.4779-30.5809-6.648-9.6094-4.4119-20.3671-7.0106-31.6083-7.0106-11.2412,0-21.9989,2.5988-31.4875,7.0106-9.3677,4.1701-19.7628,6.648-30.7018,6.648-10.939,0-21.3341-2.4779-30.7018-6.648-9.549-4.4119-20.3067-7.0106-31.4875-7.0106-11.3016,0-21.9989,2.5988-31.6083,7.0106-9.2468,4.1701-19.7628,6.648-30.6414,6.648-10.8786,0-21.3341-2.4779-30.6413-6.648-9.6094-4.4119-20.4276-7.0106-31.6084-7.0106-11.1808,0-21.9989,2.5988-31.4875,7.0106-9.3072,4.1701-19.8232,6.648-30.7018,6.648-10.8786,0-21.3341-2.4779-30.7018-6.648-9.4885-4.4119-20.3067-7.0106-31.4875-7.0106-11.1808,0-21.9989,2.5988-31.5479,7.0106-9.3072,4.1701-19.8232,6.648-30.6414,6.648l-.7252-182.6394 251.5976,69.3208c-17.3453-8.4007-29.3722-25.9877-29.3722-46.4758 0-28.5865 23.1472-51.6733 51.6733-51.6733 28.5261,0 51.6733,23.1472 51.6733,51.6733 0,28.5261-23.2077,51.6733-51.6733,51.6733-1.6922,0-3.4449-.3626-5.0767-.5439l229.2965,63.2167 .2417,45.4483z"/>
</g>
</svg>
