<svg xmlns="http://www.w3.org/2000/svg" viewBox="0 0 580 580">
<path fill="#111" stroke="#eee" stroke-width="3.408" d="m66.275,1.768c-41.335,0-64.571,21.371-64.571,65.036v450.123c0,40.844 20.895,62.229 62.192,62.229h452.024c41.307,0 62.229-20.315 62.229-62.229v-450.123c0-42.601-20.922-65.036-63.521-65.036-.004,0-448.495-.143-448.353,0z"/>
<g transform="translate(0 14)">
<circle fill="#fff" cx="296.429" cy="270.425" r="47.499" transform="matrix(.70927 0 0 .70927 -66.3743 249.1383)"/>
<circle fill="#fff" cx="296.429" cy="270.425" r="47.499" transform="matrix(.70927 0 0 .70927 6.00465 249.1383)"/>
<circle fill="#fff" cx="296.429" cy="270.425" r="47.499" transform="matrix(.70927 0 0 .70927 78.38359 249.1383)"/>
<circle fill="#fff" cx="296.429" cy="270.425" r="47.499" transform="matrix(.70927 0 0 .70927 150.7625 249.1383)"/>
<circle fill="#fff" cx="296.429" cy="270.425" r="47.499" transform="matrix(.70927 0 0 .70927 223.1415 249.1383)"/>
<circle fill="#fff" cx="296.429" cy="270.425" r="47.499" transform="matrix(.70927 0 0 .70927 -31.24863 185.2971)"/>
<circle fill="#fff" cx="296.429" cy="270.425" r="47.499" transform="matrix(.70927 0 0 .70927 41.13032 185.2971)"/>
<circle fill="#fff" cx="296.429" cy="270.425" r="47.499" transform="matrix(.70927 0 0 .70927 113.5093 185.2971)"/>
<circle fill="#fff" cx="296.429" cy="270.425" r="47.499" transform="matrix(.70927 0 0 .70927 185.8882 185.2971)"/>
<circle fill="#fff" cx="296.429" cy="270.425" r="47.499" transform="matrix(.70927 0 0 .70927 5.37371 122.387)"/>
<circle fill="#fff" cx="296.429" cy="270.425" r="47.499" transform="matrix(.70927 0 0 .70927 77.75266 122.387)"/>
<circle fill="#fff" cx="296.429" cy="270.425" r="47.499" transform="matrix(.70927 0 0 .70927 150.1316 122.387)"/>
<circle fill="#fff" cx="296.429" cy="270.425" r="47.499" transform="matrix(.70927 0 0 .70927 41.09758 60.08006)"/>
<circle fill="#fff" cx="296.429" cy="270.425" r="47.499" transform="matrix(.70927 0 0 .70927 113.4765 60.08006)"/>
<circle fill="#fff" cx="296.429" cy="270.425" r="47.499" transform="matrix(.70927 0 0 .70927 77.75269 -1.15799)"/>
</g>
<g transform="translate(0 14)">
<path fill="none" stroke="#fff" stroke-linejoin="round" stroke-width="15.76" d="m405.3693,294.4334l55.0889,95.8949c6.3122,10.471 11.4946,19.1349 18.0861,30.5517 13.183,22.8337 5.3506,52.0646-17.483,65.2476-11.4168,6.5915-24.0164,6.9066-36.2428,6.8661l-105.9692-1.3962-143.9725,.2498c-12.2249,.1964-20.5865-.7142-33.7696-.7142-26.366,0-49.8659-23.4999-49.8659-49.8659 0-13.183 7.6944-23.2916 13.995-33.7696l68.8185-111.4071 56.9085-104.6823c6.0753-10.6102 9.092-18.522 15.6835-29.9389 13.183-22.8337 42.414-30.6661 65.2476-17.4831 11.4168,6.5915 18.1839,18.3881 24.2478,29.0048l69.2271,121.4422z"/>
</g>
<circle fill="#fff" cx="296.429" cy="270.425" r="47.499" transform="matrix(.70927 0 0 .70927 75.7527 -101.534)"/>
</svg>
