<svg xmlns="http://www.w3.org/2000/svg" viewBox="0 0 580 580">
<path fill="#111" stroke="#eee" stroke-width="3.408" d="m66.275,1.768c-41.335,0-64.571,21.371-64.571,65.036v450.123c0,40.844 20.895,62.229 62.192,62.229h452.024c41.307,0 62.229-20.315 62.229-62.229v-450.123c0-42.601-20.922-65.036-63.521-65.036-.004,0-448.495-.143-448.353,0z"/>
<g fill="#fff" fill-rule="evenodd">
<g>
<path d="m291.6875,37.2188c-148.4972,0-269.0312,114.7759-269.0312,256.1875 0,141.4065 120.529,256.1562 269.0312,256.1562 148.5023,0 269.0313-114.7498 269.0312-256.1562 0-141.4116-120.5341-256.1875-269.0312-256.1875zm-20.1875,21.2812l56.125,46.4062-14.8438,59.2188-62.3438,28.9688-78.875-20.9062-11.7188-48.2188 30.25-45.6562 81.4062-19.8125zm139.75,24.75l72.25,59.25-20.3438,74.0938-66.0312,9.875-61.7812-61.7812 9.875-56.125 66.0312-25.3125zm-260.0312,11c-2.5673,10.0859-5.1473,20.1954-7.5312,30.2812l-36.3125,9.3438c2.9341-5.318 6.6301-10.2592 11.0312-14.8438 3.851-4.9513 7.8777-9.7428 13.5625-13.5938 5.6848-4.4011 11.3647-7.8867 19.25-11.1875zm11.5625,97.2188l72.7812,20.3438 18.5312,78.8438-75.9062,58.6875-66.0312-1.8438-16.6875-87.6562 67.3125-68.375zm309.5312,44.7188l37.0312,62.375-51.1562,84.5312-64.1875-6.0625-23.4688-53.7188 39.4375-75.9375 62.3438-11.1875zm-435.5312,21.2812l38.3438,12.2812 20.3438,85.0938-24.75,44.5625c-5.8682,2.3788-11.3818-3.856-17.25-16.6875-6.4183-13.9369-15.0347-42.0009-17.9688-62.9062-2.7507-21.0938-2.5697-41.6218 1.2812-62.3438zm507.25,34.2812c.1834,21.2721-1.4845,39.2465-4.9688,57.4062-4.2178,17.9662-10.4577,34.2966-16.6875,47.5-6.2298,12.4647-11.9296,21.2881-18.5312,27.1562l-29.6875-34.5 51.875-87.6562 18-9.9062zm-275.2812,14.125l82.7188,21.6562 26.4062,62.1562-45.6562,59.9688-103.0625-21.625-33.9375-67.875 73.5312-54.2812zm-48.0312,137.5312l109.3125,19.2812 31.3438,48.0312-7.875,21.0938c-15.2206,2.2107-30.6479,3.852-46.9688,4.2188-16.871,.3668-34.8354-.015-51.1562-1.8438-17.4211-2.5673-33.5672-7.1604-47.6875-11.75-14.1203-4.9461-24.933-10.4337-34.4688-17.2188l-1.2812-24.75 48.7812-37.0625z"/>
</g>
<g stroke="#000" stroke-width=".183" stroke-miterlimit="10">
<path opacity=".202" d="m151.2175,94.2652c-7.8853,3.3008-13.5701,6.7851-19.2549,11.1862-5.6848,3.851-9.7191,8.6189-13.5701,13.5701-4.4011,4.5845-8.0687,9.5358-11.0028,14.8538l36.3093-9.3524c2.3839-10.0859 4.9513-20.1718 7.5186-30.2577z"/>
<path opacity=".202" d="m190.0942,78.3111l81.4208-19.8051 56.1143,46.3952-14.8538,59.2318-62.3492,28.9741-78.8535-20.9053-11.7363-48.229 30.2577-45.6617z"/>
<path opacity=".202" d="m345.2338,108.5689l-9.8974,56.1143 61.794,61.7991 66.0169-9.9025 20.3552-74.0856-72.2518-59.2318-66.0168,25.3065z"/>
<path opacity=".202" d="m409.9669,247.3876l62.3493-11.1862 37.0428,62.3493-51.1631,84.5383-64.183-6.0515-23.4676-53.7355 39.4216-75.9143z"/>
<path opacity=".202" d="m503.8576,423.7994l-29.7076-34.4755 51.8966-87.6608 17.9712-9.8974c.1834,21.2721-1.467,39.2383-4.9512,57.398-4.2178,17.9662-10.4578,34.2921-16.6876,47.4955-6.2298,12.4648-11.9197,21.2721-18.5214,27.1403z"/>
<path opacity=".202" d="m195.2288,360.1664l73.5354-54.2805 82.7045,21.6389 26.4067,62.171-45.6616,59.9602-103.0597-21.6389-33.9253-67.8507z"/>
<path opacity=".202" d="m353.4859,531.8052c-15.2206,2.2107-30.6245,3.851-46.9453,4.2177-16.871,.3668-34.8422,0-51.1631-1.8287-17.4211-2.5673-33.5586-7.1518-47.6788-11.7414-14.1203-4.9462-24.9397-10.4476-34.4755-17.2326l-1.2837-24.7614 48.7791-37.0377 109.2997,19.26 31.3529,48.0456-7.8853,21.0785z"/>
<path opacity=".202" d="m95.47,259.8575l67.3005-68.4008 72.8019,20.3552 18.5214,78.8535-75.9194,58.6867-66.0169-1.8389-16.6876-87.6557z"/>
<path opacity=".202" d="m70.7137,399.4149c-5.8682,2.3788-11.3696-3.8612-17.2377-16.6927-6.4183-13.9369-15.0372-41.9941-17.9712-62.8994-2.7507-21.0938-2.5673-41.6273 1.2837-62.3492l38.3265,12.2865 20.3552,85.0935-24.7563,44.5614z"/>
</g>
</g>
</svg>
