<svg xmlns="http://www.w3.org/2000/svg" viewBox="0 0 580 580">
<path fill="#111" stroke="#eee" stroke-width="3.408" d="m66.275,1.768c-41.335,0-64.571,21.371-64.571,65.036v450.123c0,40.844 20.895,62.229 62.192,62.229h452.024c41.307,0 62.229-20.315 62.229-62.229v-450.123c0-42.601-20.922-65.036-63.521-65.036-.004,0-448.495-.143-448.353,0z"/>
<g fill="#fff">
<g>
<path color="#000" d="m515.173,377.0312c-20.7997,36.3333-112.2297,63.6858-221.8996,63.6858-109.6294,0-201.0554-27.3162-221.8996-63.6294-1.6536,4.0502-2.5936,8.3976-2.5936,13.0869 0,15.6311 10.3729,27.6944 23.0927,36.4402 12.7198,8.7458 29.2529,15.5844 49.178,21.3791 39.8502,11.5892 93.2416,18.4457 152.2225,18.4457 58.9808,0 112.3223-6.8566 152.1726-18.4457 19.9251-5.7946 36.5081-12.6332 49.2279-21.3791 12.7199-8.7458 23.1426-20.8092 23.1426-36.4402 0-4.714-.9735-9.0752-2.6434-13.1433z"/>
</g>
<g stroke="#fff">
<g stroke-linejoin="round" stroke-linecap="round" stroke-width="27.495">
<path d="m53.0113,235.6007 27.8877,163.0789"/>
<path d="m534.8154,235.6007-29.8877,163.0789"/>
</g>
<g>
<path stroke-width="1.833" d="m380.1628,401.6856 0,69.5316c0,7.7333-9.9732,13.959-22.3615,13.959h-119.3497c-12.3882,0-22.3614-6.2257-22.3614-13.959v-69.5316c15.1006-75.6184 164.6979-65.0794 164.0726,0z"/>
</g>
</g>
<g>
<path color="#000" d="m293.2609,151.2153c-67.7375,0-129.0208,7.6453-174.7875,20.568-22.8833,6.4613-41.8732,14.0831-56.4815,23.8353-14.6083,9.7521-26.5507,23.1707-26.5507,40.6003 0,17.4295 11.9424,30.8482 26.5507,40.6003 14.6083,9.7521 33.5982,17.4275 56.4815,23.8888 45.7667,12.9227 107.0499,20.568 174.7875,20.568 67.7375,0 129.0208-7.6453 174.7874-20.568 22.8833-6.4613 41.9277-14.1367 56.536-23.8888 14.6083-9.7521 26.5507-23.1708 26.5507-40.6003 0-17.4295-11.9424-30.8482-26.5507-40.6003-14.6083-9.7521-33.6527-17.3739-56.536-23.8353-45.7667-12.9227-107.0499-20.568-174.7874-20.568zm0,34.2799c65.0278,0 123.9537,7.5848 165.1921,19.2289 20.6192,5.822 36.7838,12.7931 46.5046,19.2825 9.7208,6.4893 11.2854,10.898 11.2854,12.2122 0,1.3142-1.5646,5.7765-11.2854,12.2658-9.7208,6.4893-25.8854,13.4604-46.5046,19.2825-41.2384,11.6441-100.1644,19.2289-165.1921,19.2289-65.0278,0-123.8992-7.5848-165.1376-19.2289-20.6192-5.822-36.8383-12.7931-46.5591-19.2825-9.7208-6.4893-11.2309-10.9515-11.2309-12.2658 0-1.3142 1.5101-5.7229 11.2309-12.2122 9.7208-6.4893 25.9399-13.4604 46.5591-19.2825 41.2384-11.6441 100.1098-19.2289 165.1376-19.2289z"/>
<path opacity=".5" stroke="#fff" stroke-linejoin="round" stroke-linecap="round" stroke-width="10" d="m454.9303,189.8703-16.169-2.2584-32.1562,69.8765 .5947,.9944zm-98.6283-18.2747-12.914-1.1734-4.927,78.5563 1.7192,.9944zm-217.841,18.2747 16.169-2.2584 32.1562,69.8765-.5947,.9944zm98.6283-18.2747 12.914-1.1734 4.927,78.5563-1.7192,.9944zm59.317-217.5751c-58.1527,.7374-116.7651,6.184-172.6875,22.3438 65.9861,16.2206 134.6112,19.4385 202.4029,17.5033 49.437-1.9601 99.2008-6.8476 146.8471-20.222-57.4138-15.1329-117.2701-19.8381-176.5625-19.625z"/>
</g>
</g>
</svg>
