<svg xmlns="http://www.w3.org/2000/svg" viewBox="0 0 580 580">
<path fill="#111" stroke="#eee" stroke-width="3.408" d="m66.275,1.768c-41.335,0-64.571,21.371-64.571,65.036v450.123c0,40.844 20.894,62.229 62.192,62.229h452.024c41.307,0 62.229-20.316 62.229-62.229v-450.123c0-42.601-20.922-65.036-63.522-65.036-.003,0-448.494-.143-448.352,0z"/>
<g fill="#fff" stroke="#fff" stroke-linejoin="round" stroke-linecap="round">
<g>
<path stroke-width="10" d="m105.3438,184.0938c10.2189,107.4926 2.6194,210.6943-24,336.5625h32 160.125 32c-26.6194-125.8682-34.2189-229.0699-24-336.5625-33.382,14.5868-62.5065,12.5375-88.0625,14.4062-25.556-1.8688-54.6805,.1805-88.0625-14.4062z"/>
<path stroke-width="8.369" d="m278.1844,400.1844 232.6312,0 0,120.6312-232.6312,0z"/>
</g>
<g stroke-width="5" transform="translate(0 14)">
<path opacity=".2" d="m248,137c0,4.9706-20.371,9-45.5,9-25.129,0-45.5-4.0294-45.5-9 0-4.9706 20.371-9 45.5-9 25.129,0 45.5,4.0294 45.5,9z"/>
<path opacity=".2" d="m248,137c0,4.9706-20.371,9-45.5,9-25.129,0-45.5-4.0294-45.5-9 0-4.9706 20.371-9 45.5-9 25.129,0 45.5,4.0294 45.5,9z" transform="translate(20 -20)"/>
<path opacity=".2" d="m248,137c0,4.9706-20.371,9-45.5,9-25.129,0-45.5-4.0294-45.5-9 0-4.9706 20.371-9 45.5-9 25.129,0 45.5,4.0294 45.5,9z" transform="translate(40 -40)"/>
<path opacity=".2" d="m248,137c0,4.9706-20.371,9-45.5,9-25.129,0-45.5-4.0294-45.5-9 0-4.9706 20.371-9 45.5-9 25.129,0 45.5,4.0294 45.5,9z" transform="translate(60 -40)"/>
<path opacity=".2" d="m248,137c0,4.9706-20.371,9-45.5,9-25.129,0-45.5-4.0294-45.5-9 0-4.9706 20.371-9 45.5-9 25.129,0 45.5,4.0294 45.5,9z" transform="translate(40 -30)"/>
<path opacity=".2" d="m248,137c0,4.9706-20.371,9-45.5,9-25.129,0-45.5-4.0294-45.5-9 0-4.9706 20.371-9 45.5-9 25.129,0 45.5,4.0294 45.5,9z" transform="translate(80 -50)"/>
<path opacity=".2" d="m248,137c0,4.9706-20.371,9-45.5,9-25.129,0-45.5-4.0294-45.5-9 0-4.9706 20.371-9 45.5-9 25.129,0 45.5,4.0294 45.5,9z" transform="translate(40 -58)"/>
<path opacity=".2" d="m248,137c0,4.9706-20.371,9-45.5,9-25.129,0-45.5-4.0294-45.5-9 0-4.9706 20.371-9 45.5-9 25.129,0 45.5,4.0294 45.5,9z" transform="translate(20 -68)"/>
<path opacity=".2" d="m248,137c0,4.9706-20.371,9-45.5,9-25.129,0-45.5-4.0294-45.5-9 0-4.9706 20.371-9 45.5-9 25.129,0 45.5,4.0294 45.5,9z" transform="translate(60 -68)"/>
<path opacity=".2" d="m248,137c0,4.9706-20.371,9-45.5,9-25.129,0-45.5-4.0294-45.5-9 0-4.9706 20.371-9 45.5-9 25.129,0 45.5,4.0294 45.5,9z" transform="translate(120 -68)"/>
<path opacity=".2" d="m248,137c0,4.9706-20.371,9-45.5,9-25.129,0-45.5-4.0294-45.5-9 0-4.9706 20.371-9 45.5-9 25.129,0 45.5,4.0294 45.5,9z" transform="translate(100 -56)"/>
<path opacity=".2" d="m248,137c0,4.9706-20.371,9-45.5,9-25.129,0-45.5-4.0294-45.5-9 0-4.9706 20.371-9 45.5-9 25.129,0 45.5,4.0294 45.5,9z" transform="translate(100 -36)"/>
<path opacity=".2" d="m248,137c0,4.9706-20.371,9-45.5,9-25.129,0-45.5-4.0294-45.5-9 0-4.9706 20.371-9 45.5-9 25.129,0 45.5,4.0294 45.5,9z" transform="translate(110 -48)"/>
<path opacity=".2" d="m248,137c0,4.9706-20.371,9-45.5,9-25.129,0-45.5-4.0294-45.5-9 0-4.9706 20.371-9 45.5-9 25.129,0 45.5,4.0294 45.5,9z" transform="translate(130 -64)"/>
<path opacity=".2" d="m248,137c0,4.9706-20.371,9-45.5,9-25.129,0-45.5-4.0294-45.5-9 0-4.9706 20.371-9 45.5-9 25.129,0 45.5,4.0294 45.5,9z" transform="translate(26 -12)"/>
<path opacity=".2" d="m248,137c0,4.9706-20.371,9-45.5,9-25.129,0-45.5-4.0294-45.5-9 0-4.9706 20.371-9 45.5-9 25.129,0 45.5,4.0294 45.5,9z" transform="translate(10 -6)"/>
<path opacity=".2" d="m248,137c0,4.9706-20.371,9-45.5,9-25.129,0-45.5-4.0294-45.5-9 0-4.9706 20.371-9 45.5-9 25.129,0 45.5,4.0294 45.5,9z" transform="translate(30 -26)"/>
<path opacity=".2" d="m248,137c0,4.9706-20.371,9-45.5,9-25.129,0-45.5-4.0294-45.5-9 0-4.9706 20.371-9 45.5-9 25.129,0 45.5,4.0294 45.5,9z" transform="translate(50 -46)"/>
<path opacity=".2" d="m248,137c0,4.9706-20.371,9-45.5,9-25.129,0-45.5-4.0294-45.5-9 0-4.9706 20.371-9 45.5-9 25.129,0 45.5,4.0294 45.5,9z" transform="translate(70 -46)"/>
<path opacity=".2" d="m248,137c0,4.9706-20.371,9-45.5,9-25.129,0-45.5-4.0294-45.5-9 0-4.9706 20.371-9 45.5-9 25.129,0 45.5,4.0294 45.5,9z" transform="translate(50 -36)"/>
<path opacity=".2" d="m248,137c0,4.9706-20.371,9-45.5,9-25.129,0-45.5-4.0294-45.5-9 0-4.9706 20.371-9 45.5-9 25.129,0 45.5,4.0294 45.5,9z" transform="translate(90 -56)"/>
<path opacity=".2" d="m248,137c0,4.9706-20.371,9-45.5,9-25.129,0-45.5-4.0294-45.5-9 0-4.9706 20.371-9 45.5-9 25.129,0 45.5,4.0294 45.5,9z" transform="translate(50 -64)"/>
<path opacity=".2" d="m248,137c0,4.9706-20.371,9-45.5,9-25.129,0-45.5-4.0294-45.5-9 0-4.9706 20.371-9 45.5-9 25.129,0 45.5,4.0294 45.5,9z" transform="translate(30 -74)"/>
<path opacity=".2" d="m248,137c0,4.9706-20.371,9-45.5,9-25.129,0-45.5-4.0294-45.5-9 0-4.9706 20.371-9 45.5-9 25.129,0 45.5,4.0294 45.5,9z" transform="translate(70 -74)"/>
<path opacity=".2" d="m248,137c0,4.9706-20.371,9-45.5,9-25.129,0-45.5-4.0294-45.5-9 0-4.9706 20.371-9 45.5-9 25.129,0 45.5,4.0294 45.5,9z" transform="translate(130 -74)"/>
<path opacity=".2" d="m248,137c0,4.9706-20.371,9-45.5,9-25.129,0-45.5-4.0294-45.5-9 0-4.9706 20.371-9 45.5-9 25.129,0 45.5,4.0294 45.5,9z" transform="translate(110 -62)"/>
<path opacity=".2" d="m248,137c0,4.9706-20.371,9-45.5,9-25.129,0-45.5-4.0294-45.5-9 0-4.9706 20.371-9 45.5-9 25.129,0 45.5,4.0294 45.5,9z" transform="translate(110 -42)"/>
<path opacity=".2" d="m248,137c0,4.9706-20.371,9-45.5,9-25.129,0-45.5-4.0294-45.5-9 0-4.9706 20.371-9 45.5-9 25.129,0 45.5,4.0294 45.5,9z" transform="translate(120 -54)"/>
<path opacity=".2" d="m248,137c0,4.9706-20.371,9-45.5,9-25.129,0-45.5-4.0294-45.5-9 0-4.9706 20.371-9 45.5-9 25.129,0 45.5,4.0294 45.5,9z" transform="translate(140 -70)"/>
<path opacity=".2" d="m248,137c0,4.9706-20.371,9-45.5,9-25.129,0-45.5-4.0294-45.5-9 0-4.9706 20.371-9 45.5-9 25.129,0 45.5,4.0294 45.5,9z" transform="translate(36 -18)"/>
<path opacity=".2" d="m248,137c0,4.9706-20.371,9-45.5,9-25.129,0-45.5-4.0294-45.5-9 0-4.9706 20.371-9 45.5-9 25.129,0 45.5,4.0294 45.5,9z" transform="translate(32 -6)"/>
<path opacity=".2" d="m248,137c0,4.9706-20.371,9-45.5,9-25.129,0-45.5-4.0294-45.5-9 0-4.9706 20.371-9 45.5-9 25.129,0 45.5,4.0294 45.5,9z" transform="translate(52 -26)"/>
<path opacity=".2" d="m248,137c0,4.9706-20.371,9-45.5,9-25.129,0-45.5-4.0294-45.5-9 0-4.9706 20.371-9 45.5-9 25.129,0 45.5,4.0294 45.5,9z" transform="translate(72 -46)"/>
<path opacity=".2" d="m248,137c0,4.9706-20.371,9-45.5,9-25.129,0-45.5-4.0294-45.5-9 0-4.9706 20.371-9 45.5-9 25.129,0 45.5,4.0294 45.5,9z" transform="translate(92 -46)"/>
<path opacity=".2" d="m248,137c0,4.9706-20.371,9-45.5,9-25.129,0-45.5-4.0294-45.5-9 0-4.9706 20.371-9 45.5-9 25.129,0 45.5,4.0294 45.5,9z" transform="translate(72 -36)"/>
<path opacity=".2" d="m248,137c0,4.9706-20.371,9-45.5,9-25.129,0-45.5-4.0294-45.5-9 0-4.9706 20.371-9 45.5-9 25.129,0 45.5,4.0294 45.5,9z" transform="translate(112 -56)"/>
<path opacity=".2" d="m248,137c0,4.9706-20.371,9-45.5,9-25.129,0-45.5-4.0294-45.5-9 0-4.9706 20.371-9 45.5-9 25.129,0 45.5,4.0294 45.5,9z" transform="translate(72 -64)"/>
<path opacity=".2" d="m248,137c0,4.9706-20.371,9-45.5,9-25.129,0-45.5-4.0294-45.5-9 0-4.9706 20.371-9 45.5-9 25.129,0 45.5,4.0294 45.5,9z" transform="translate(52 -74)"/>
<path opacity=".2" d="m248,137c0,4.9706-20.371,9-45.5,9-25.129,0-45.5-4.0294-45.5-9 0-4.9706 20.371-9 45.5-9 25.129,0 45.5,4.0294 45.5,9z" transform="translate(92 -74)"/>
<path opacity=".2" d="m248,137c0,4.9706-20.371,9-45.5,9-25.129,0-45.5-4.0294-45.5-9 0-4.9706 20.371-9 45.5-9 25.129,0 45.5,4.0294 45.5,9z" transform="translate(152 -74)"/>
<path opacity=".2" d="m248,137c0,4.9706-20.371,9-45.5,9-25.129,0-45.5-4.0294-45.5-9 0-4.9706 20.371-9 45.5-9 25.129,0 45.5,4.0294 45.5,9z" transform="translate(132 -62)"/>
<path opacity=".2" d="m248,137c0,4.9706-20.371,9-45.5,9-25.129,0-45.5-4.0294-45.5-9 0-4.9706 20.371-9 45.5-9 25.129,0 45.5,4.0294 45.5,9z" transform="translate(132 -42)"/>
<path opacity=".2" d="m248,137c0,4.9706-20.371,9-45.5,9-25.129,0-45.5-4.0294-45.5-9 0-4.9706 20.371-9 45.5-9 25.129,0 45.5,4.0294 45.5,9z" transform="translate(142 -54)"/>
<path opacity=".2" d="m248,137c0,4.9706-20.371,9-45.5,9-25.129,0-45.5-4.0294-45.5-9 0-4.9706 20.371-9 45.5-9 25.129,0 45.5,4.0294 45.5,9z" transform="translate(162 -70)"/>
<path opacity=".2" d="m248,137c0,4.9706-20.371,9-45.5,9-25.129,0-45.5-4.0294-45.5-9 0-4.9706 20.371-9 45.5-9 25.129,0 45.5,4.0294 45.5,9z" transform="translate(58 -18)"/>
<path opacity=".2" d="m248,137c0,4.9706-20.371,9-45.5,9-25.129,0-45.5-4.0294-45.5-9 0-4.9706 20.371-9 45.5-9 25.129,0 45.5,4.0294 45.5,9z" transform="translate(52 -16)"/>
<path opacity=".2" d="m248,137c0,4.9706-20.371,9-45.5,9-25.129,0-45.5-4.0294-45.5-9 0-4.9706 20.371-9 45.5-9 25.129,0 45.5,4.0294 45.5,9z" transform="translate(72 -36)"/>
<path opacity=".2" d="m248,137c0,4.9706-20.371,9-45.5,9-25.129,0-45.5-4.0294-45.5-9 0-4.9706 20.371-9 45.5-9 25.129,0 45.5,4.0294 45.5,9z" transform="translate(92 -56)"/>
<path opacity=".2" d="m248,137c0,4.9706-20.371,9-45.5,9-25.129,0-45.5-4.0294-45.5-9 0-4.9706 20.371-9 45.5-9 25.129,0 45.5,4.0294 45.5,9z" transform="translate(112 -56)"/>
<path opacity=".2" d="m248,137c0,4.9706-20.371,9-45.5,9-25.129,0-45.5-4.0294-45.5-9 0-4.9706 20.371-9 45.5-9 25.129,0 45.5,4.0294 45.5,9z" transform="translate(92 -46)"/>
<path opacity=".2" d="m248,137c0,4.9706-20.371,9-45.5,9-25.129,0-45.5-4.0294-45.5-9 0-4.9706 20.371-9 45.5-9 25.129,0 45.5,4.0294 45.5,9z" transform="translate(132 -66)"/>
<path opacity=".2" d="m248,137c0,4.9706-20.371,9-45.5,9-25.129,0-45.5-4.0294-45.5-9 0-4.9706 20.371-9 45.5-9 25.129,0 45.5,4.0294 45.5,9z" transform="translate(92 -74)"/>
<path opacity=".2" d="m248,137c0,4.9706-20.371,9-45.5,9-25.129,0-45.5-4.0294-45.5-9 0-4.9706 20.371-9 45.5-9 25.129,0 45.5,4.0294 45.5,9z" transform="translate(72 -84)"/>
<path opacity=".2" d="m248,137c0,4.9706-20.371,9-45.5,9-25.129,0-45.5-4.0294-45.5-9 0-4.9706 20.371-9 45.5-9 25.129,0 45.5,4.0294 45.5,9z" transform="translate(112 -84)"/>
<path opacity=".2" d="m248,137c0,4.9706-20.371,9-45.5,9-25.129,0-45.5-4.0294-45.5-9 0-4.9706 20.371-9 45.5-9 25.129,0 45.5,4.0294 45.5,9z" transform="translate(172 -84)"/>
<path opacity=".2" d="m248,137c0,4.9706-20.371,9-45.5,9-25.129,0-45.5-4.0294-45.5-9 0-4.9706 20.371-9 45.5-9 25.129,0 45.5,4.0294 45.5,9z" transform="translate(152 -72)"/>
<path opacity=".2" d="m248,137c0,4.9706-20.371,9-45.5,9-25.129,0-45.5-4.0294-45.5-9 0-4.9706 20.371-9 45.5-9 25.129,0 45.5,4.0294 45.5,9z" transform="translate(152 -52)"/>
<path opacity=".2" d="m248,137c0,4.9706-20.371,9-45.5,9-25.129,0-45.5-4.0294-45.5-9 0-4.9706 20.371-9 45.5-9 25.129,0 45.5,4.0294 45.5,9z" transform="translate(162 -64)"/>
<path opacity=".2" d="m248,137c0,4.9706-20.371,9-45.5,9-25.129,0-45.5-4.0294-45.5-9 0-4.9706 20.371-9 45.5-9 25.129,0 45.5,4.0294 45.5,9z" transform="translate(182 -80)"/>
<path opacity=".2" d="m248,137c0,4.9706-20.371,9-45.5,9-25.129,0-45.5-4.0294-45.5-9 0-4.9706 20.371-9 45.5-9 25.129,0 45.5,4.0294 45.5,9z" transform="translate(78 -28)"/>
</g>
</g>
</svg>
