<svg xmlns="http://www.w3.org/2000/svg" viewBox="0 0 580 580">
<path fill="#111" stroke="#eee" stroke-width="3.408" d="m66.275,1.768c-41.335,0-64.571,21.371-64.571,65.036v450.123c0,40.844 20.894,62.229 62.192,62.229h452.024c41.307,0 62.229-20.316 62.229-62.229v-450.123c0-42.601-20.922-65.036-63.522-65.036-.003,0-448.494-.143-448.352,0z"/>
<g stroke="#fff">
<g fill="#fff" stroke-linejoin="round" stroke-linecap="round" transform="matrix(.94229 0 0 .94229 13.29396 48.33544)">
<path stroke-width="10" d="m119.3438,184.0938c10.2189,107.4926 2.6194,210.6943-24,336.5625h32 140.125 32c-26.6194-125.8682-34.2189-229.0699-24-336.5625-33.382,14.5868-52.5065,12.5375-78.0625,14.4062-25.556-1.8688-44.6805,.1805-78.0625-14.4062z"/>
<path stroke-width="8.369" d="m272.1844,400.1844 232.6312,0 0,120.6312-232.6312,0z"/>
</g>
<g stroke-linecap="square" stroke-width="6.674">
<g transform="translate(0 8)">
<path fill="none" d="m183.2597,24.3043c-10.8077,76.3591-45.093,77.0551-48.8522,116.5269-3.7761,39.6488 36.5672,64.1091 43.2126,65.7708 0,0-18.952-21.916-17.1701-40.6263 1.2339-12.9563 6.5663-17.6464 16.6313-31.8257 7.234-10.191 15.4031-24.1753 21.4087-44.8291 21.3723,18.7115 30.5373,29.599 34.8072,52.1928 4.2699,22.5939-13.3625,63.2202-13.3625,63.2202 63.7756-48.0719 47.4374-121.4569-36.6751-180.4296z"/>
</g>
<g fill="#fff" fill-rule="evenodd" transform="translate(0 8)">
<path opacity=".1" d="m183.2597,24.3043c-10.8077,76.3591-45.093,77.0551-48.8522,116.5269-3.7761,39.6488 36.5672,64.1091 43.2126,65.7708 0,0-18.952-21.916-17.1701-40.6263 1.2339-12.9563 6.5663-17.6464 16.6313-31.8257 7.234-10.191 15.4031-24.1753 21.4087-44.8291 21.3723,18.7115 30.5373,29.599 34.8072,52.1928 4.2699,22.5939-13.3625,63.2202-13.3625,63.2202 63.7756-48.0719 47.4374-121.4569-36.6751-180.4296z"/>
<path opacity=".2" d="m177.6201,206.6019c0,0-18.952-21.916-17.1701-40.6263 1.2339-12.9563 6.5663-17.6464 16.6313-31.8257 7.234-10.191 15.4031-24.1753 21.4087-44.8291 21.3723,18.7115 30.5373,29.599 34.8072,52.1928 4.2699,22.5939-13.3625,63.2202-13.3625,63.2202-15.25,10.8343-25.5103,6.6323-42.3146,1.8681z"/>
</g>
</g>
</g>
</svg>
