<svg xmlns="http://www.w3.org/2000/svg" viewBox="0 0 580 580" xmlns:xlink="http://www.w3.org/1999/xlink">
<path fill="#111" stroke="#eee" stroke-width="3.408" d="m66.275,1.768c-41.335,0-64.571,21.371-64.571,65.036v450.123c0,40.844 20.894,62.229 62.192,62.229h452.024c41.307,0 62.229-20.316 62.229-62.229v-450.123c0-42.601-20.922-65.036-63.522-65.036-.003,0-448.494-.143-448.352,0z"/>
<g fill="#fff" stroke="#fff" stroke-linecap="round">
<g>
<path opacity=".8" stroke-linejoin="round" stroke-width="7.886" d="m204.8438,178.2188-13.7812,365.9375c84.452,1.2052 150.1698,.9375 235.9062,.9375v-113.6562h-183.625l-5.9375-253.2188z"/>
</g>
<g fill-rule="evenodd" stroke-width="1.999">
<path d="m166.8596,549.9865c-21.907,5.87-110.5282-282.2169-126.5653-298.2539-16.037-16.037-304.1239-104.6583-298.2539-126.5653 5.87-21.907 299.6711,45.3882 321.5781,39.5182 21.907-5.87 242.6986-211.0499 258.7357-195.0128 16.037,16.037-189.1428,236.8287-195.0128,258.7357-5.87,21.907 61.4252,315.7081 39.5182,321.5781z" transform="matrix(.27803 .41038 -.41038 .27803 284.11027 99.01502)"/>
<path d="m399.4388,293.7788a33.2866,33.2866 0 1,1 -66.5731,0 33.2866,33.2866 0 1,1 66.5731,0z" transform="matrix(.4957 0 0 .4957 35.82018 45.69187)"/>
</g>
</g>
</svg>
