<svg xmlns="http://www.w3.org/2000/svg" viewBox="0 0 580 580" xmlns:xlink="http://www.w3.org/1999/xlink">
<defs/>
<path fill="#111" stroke="#eee" stroke-width="3.408" d="m66.275,1.768c-41.335,0-64.571,21.371-64.571,65.036v450.123c0,40.844 20.895,62.229 62.192,62.229h452.024c41.307,0 62.229-20.315 62.229-62.229v-450.123c0-42.601-20.922-65.036-63.521-65.036-.004,0-448.495-.143-448.353,0z"/>
<g fill="#fff">
<path opacity=".6" d="m32.7257,437.771h178.9523v35.048h-178.9523z"/>
<path opacity=".6" d="m32.7257,384.72h178.9523v35.047h-178.9523z"/>
<path opacity=".6" d="m203.3125,331.5312h-170.5938v35.0625h178.9688v-25.1875c-1.9644-2.0052-3.868-4.0832-5.6562-6.25-.9616-1.1652-1.8107-2.4157-2.7188-3.625z"/>
<path opacity=".6" d="m183.875,278.2812h-151.1562v35.0625h159.7812c-.3785-.8294-.8315-1.6272-1.1875-2.4688-1.244-2.9413-2.3547-5.952-3.3125-9.0312-.9578-3.0793-1.7513-6.2055-2.4062-9.4062-.655-3.2008-1.1643-6.4754-1.5-9.7812-.1464-1.4418-.1353-2.9155-.2188-4.375z"/>
<path d="m342.75,349.7812c-1.9111,1.5087-3.8217,3.009-5.8438,4.375-2.6158,1.7672-5.307,3.4236-8.0938,4.9375-2.7868,1.5139-5.6837,2.881-8.625,4.125-2.9413,1.244-5.952,2.3548-9.0312,3.3125-3.0793,.9577-6.2055,1.7513-9.4062,2.4062-3.2008,.655-6.4754,1.1643-9.7812,1.5-3.3058,.3357-6.6368,.5-10.0312,.5-3.3944,0-6.7567-.1643-10.0625-.5-3.3058-.3357-6.5805-.845-9.7812-1.5-3.2008-.655-6.327-1.4485-9.4062-2.4062-3.0793-.9577-6.09-2.0685-9.0312-3.3125-2.8335-1.1984-5.5909-2.5196-8.2812-3.9688v113.5h136.2812l-28.9062-122.9688z"/>
<path d="m264.1562,86.8438l-28.7812,.125v99.0312c2.6905-1.4492 5.4476-2.8015 8.2812-4 2.9412-1.244 5.952-2.3547 9.0312-3.3125 3.0793-.9578 6.2055-1.7513 9.4062-2.4062 3.2008-.655 6.4754-1.1643 9.7812-1.5 3.3058-.3357 6.6681-.5 10.0625-.5 3.3944,0 6.7254,.1643 10.0312,.5 3.3058,.3357 6.5805,.845 9.7812,1.5 .0849,.0174 .1651,.0449 .25,.0625l-17.9062-76.2188c-3.2677-7.7527-11.0315-13.2812-19.9375-13.2812z"/>
<path opacity=".6" d="m195.7812,225.25h-163.0625v34.9062h151.75c.3135-2.4739 .6312-4.9619 1.125-7.375 .655-3.2008 1.4485-6.327 2.4062-9.4062 .9578-3.0793 2.0685-6.09 3.3125-9.0312 1.244-2.9412 2.6424-5.807 4.1562-8.5938 .094-.1731 .2175-.3275 .3125-.5z"/>
<path opacity=".6" d="m32.7188,172.0625v35.0625h175.9688c.9927-1.1093 1.9585-2.2494 3-3.3125v-31.75h-178.9688z"/>
<path opacity=".6" d="m32.7257,118.885h178.9523v35.047h-178.9523z"/>
<path opacity=".6" d="m388.3241,442.2561c2.627,.5126 5.2539,.7689 7.8808,.7689 6.9838,0 13.6473-1.6018 19.5419-4.2287 6.1509-2.8832 12.8784-4.485 20.1185-4.485 7.112,0 13.9036,1.6018 20.0545,4.485 5.8946,2.627 12.6222,4.2287 19.5419,4.2287 6.9198,0 13.5192-1.6018 19.5419-4.2287 6.0227-2.8832 12.8784-4.485 20.0545-4.485 7.1761,0 14.0317,1.6018 20.1186,4.485 5.8946,2.627 12.494,4.2287 19.5419,4.2287v29.1527c-6.9838,0-13.6473-1.4737-19.5419-4.1006-6.1509-2.8832-13.0066-4.485-20.1186-4.485-7.112,0-14.0317,1.6018-20.0545,4.485-6.0227,2.6269-12.6221,4.1006-19.5419,4.1006-6.9197,0-13.6473-1.4737-19.5419-4.1006-6.1509-2.8832-12.8784-4.485-20.0545-4.485-7.2401,0-14.0317,1.6018-20.1185,4.485-5.8946,2.6269-12.494,4.1006-19.5419,4.1006-.3844,0-.7689,0-1.1533,0l-6.7275-29.9215z"/>
<path opacity=".6" d="m376.6631,385.04c6.0227,2.627 12.6221,4.2287 19.5419,4.2287 6.9838,0 13.6473-1.6018 19.5419-4.2287 6.1509-2.8832 12.8784-4.485 20.1185-4.485 7.112,0 13.9036,1.6018 20.0545,4.485 5.8946,2.627 12.6222,4.2287 19.5419,4.2287 6.9198,0 13.5192-1.6018 19.5419-4.2287 6.0227-2.8832 12.8784-4.485 20.0545-4.485 7.1761,0 14.0317,1.6018 20.1186,4.485 5.8946,2.627 12.494,4.2287 19.5419,4.2287v29.1527c-6.9838,0-13.6473-1.4737-19.5419-4.1006-6.1509-2.8832-13.0066-4.485-20.1186-4.485-7.112,0-14.0317,1.6018-20.0545,4.485-6.0227,2.627-12.6221,4.1006-19.5419,4.1006-6.9197,0-13.6473-1.4737-19.5419-4.1006-6.1509-2.8832-12.8784-4.485-20.0545-4.485-7.2401,0-14.0317,1.6018-20.1185,4.485-5.8946,2.627-12.494,4.1006-19.5419,4.1006-4.2287,0-8.3934-.5126-12.3659-1.6018l-7.176-31.7796z"/>
</g>
<g stroke="#fff" stroke-linejoin="round" stroke-linecap="round">
<g transform="matrix(.79535 0 0 .79535 57.69693 55.79091)">
<path fill="none" stroke-width="10.79" d="m380.2626,272.6111c0,54.3106-44.0275,98.3381-98.3381,98.3381-54.3106,0-98.3381-44.0274-98.3381-98.3381 0-54.3106 44.0274-98.3381 98.3381-98.3381 54.3106,0 98.3381,44.0274 98.3381,98.3381z"/>
</g>
<g fill="#fff">
<g transform="matrix(.79535 0 0 .79535 57.69693 55.79091)">
<path stroke-width="1.276" d="m293.5521,272.6111c0,6.4217-5.2058,11.6276-11.6276,11.6276-6.4217,0-11.6276-5.2058-11.6276-11.6276 0-6.4217 5.2058-11.6276 11.6276-11.6276 6.4217,0 11.6276,5.2058 11.6276,11.6276z"/>
</g>
<g stroke-width="10" transform="matrix(.79535 0 0 .79535 57.69693 55.79091)">
<path opacity=".6" d="m277.3413,271.3955-68.664-65.787 27.6191-19.9471 23.0159-9.2063 22.8241,90.7209z"/>
<path opacity=".6" d="m285.4722,272.455 68.664,65.787-27.6191,19.9471-23.0159,9.2063-22.8241-90.7209z"/>
</g>
</g>
</g>
</svg>
