<svg xmlns="http://www.w3.org/2000/svg" viewBox="0 0 580 580">
<path fill="#111" stroke="#eee" stroke-width="3.408" d="m66.275,1.768c-41.335,0-64.571,21.371-64.571,65.036v450.123c0,40.844 20.895,62.229 62.192,62.229h452.024c41.307,0 62.229-20.315 62.229-62.229v-450.123c0-42.601-20.922-65.036-63.521-65.036-.004,0-448.495-.143-448.353,0z"/>
<g fill="#fff">
<path d="M -608.13057,-607.10059 A 6.6454945,6.916739 0 1 1 -608.13057,-607.1019" transform="matrix(7.25345 0 0 7.25345 4576.5023 4838.6403)"/>
<path d="M -608.13057,-607.10059 A 6.6454945,6.916739 0 1 1 -608.13057,-607.1019" transform="matrix(7.25345 0 0 7.25345 4716.7511 4837.5003)"/>
<path d="M -608.13057,-607.10059 A 6.6454945,6.916739 0 1 1 -608.13057,-607.1019" transform="matrix(7.25345 0 0 7.25345 4851.2985 4836.3601)"/>
<path d="M -608.13057,-607.10059 A 6.6454945,6.916739 0 1 1 -608.13057,-607.1019" transform="matrix(5.11038 0 0 5.11038 3645.5365 3556.9651)"/>
<path stroke="#fff" fill-rule="evenodd" stroke-linejoin="round" stroke-linecap="round" stroke-width="10" d="m53.4026,351.8179c0,13.6828 0,27.3656 0,41.0484 137.2079,0 274.4159,0 411.6238,0 0,11.7824 0,23.5648 0,35.3472 26.9855,0 53.971,0 80.9565,0 0-59.2921 0-118.5841 0-177.8762-12.5425,0-25.0851,0-37.6276,0 0,37.2476 0,74.4952 0,111.7428-19.384,0-38.7679,0-58.1519,0 0-60.8124 0-121.6248 0-182.4372 18.2437,0 36.4875,0 54.7312,0 0-11.0223 0-22.0445 0-33.0668-33.4468,0-66.8937,0-100.3405,0 0,32.3066 0,64.6131 0,96.9197-27.7456,0-55.4913,0-83.2369,0-2.3314-20.8375-13.5135-44.0356-36.3732-47.3902-23.621-5.9848-52.564,6.7914-57.9684,32.146 .4444,16.0285-9.4239,18.1927-22.2907,16.3845-15.4737,0-30.9473,0-46.421,0 0-30.7863 0-61.5725 0-92.3588-17.1035,0-34.207,0-51.3105,0 0,30.0261 0,60.0522 0,90.0783-9.1218,0-18.2437,0-27.3655,0-17.3551,13.2604-24.4195,30.7744-25.0899,55.5922 1.6662,20.8845 11.8066,44.2862 25.068,53.87-8.7345,0-17.469,0-26.2035,0z"/>
</g>
</svg>
