<svg xmlns="http://www.w3.org/2000/svg" viewBox="0 0 580 580">
<path fill="#111" stroke="#eee" stroke-width="3.408" d="m66.275,1.768c-41.335,0-64.571,21.371-64.571,65.036v450.123c0,40.844 20.894,62.229 62.192,62.229h452.024c41.307,0 62.229-20.316 62.229-62.229v-450.123c0-42.601-20.922-65.036-63.522-65.036-.003,0-448.494-.143-448.352,0z"/>
<g fill="#fff">
<g transform="matrix(1.31651 0 0 1.31651 -93.60917 -108.58088)">
<path line-height="normal" color="#000" d="m156.2188,420.6875 0,74.0312 37,0 205.0625,0 37,0 0-74.0312-37,0-205.0625,0-37,0z"/>
<path opacity=".2" stroke="#fff" stroke-linejoin="round" stroke-linecap="round" stroke-width="1.7" d="m157.5,420.5 44.5-39.25 187.75,0l44.25,39.75-276.5-.5z"/>
</g>
<g transform="matrix(.90188 0 0 .90188 29.01976 -50.90802)">
<path line-height="normal" color="#000" d="m156.2188,420.6875 0,74.0312 37,0 205.0625,0 37,0 0-74.0312-37,0-205.0625,0-37,0z"/>
<path opacity=".2" stroke="#fff" stroke-linejoin="round" stroke-linecap="round" stroke-width="1.7" d="m157.5,420.5 44.5-39.25 187.75,0l44.25,39.75-276.5-.5z"/>
</g>
<g transform="matrix(.61088 0 0 .61088 115.08174 -10.95604)">
<path line-height="normal" color="#000" d="m156.2188,420.6875 0,74.0312 37,0 205.0625,0 37,0 0-74.0312-37,0-205.0625,0-37,0z"/>
<path opacity=".2" stroke="#fff" stroke-linejoin="round" stroke-linecap="round" stroke-width="1.7" d="m157.5,420.5 44.5-39.25 187.75,0l44.25,39.75-276.5-.5z"/>
</g>
<g transform="matrix(.41848 0 0 .41848 171.98332 15.80499)">
<path line-height="normal" color="#000" d="m156.2188,420.6875 0,74.0312 37,0 205.0625,0 37,0 0-74.0312-37,0-205.0625,0-37,0z"/>
<path opacity=".2" stroke="#fff" stroke-linejoin="round" stroke-linecap="round" stroke-width="1.7" d="m157.5,420.5 44.5-39.25 187.75,0l44.25,39.75-276.5-.5z"/>
</g>
<g transform="matrix(.28027 0 0 .28027 212.85964 36.78464)">
<path line-height="normal" color="#000" d="m156.2188,420.6875 0,74.0312 37,0 205.0625,0 37,0 0-74.0312-37,0-205.0625,0-37,0z"/>
<path opacity=".2" stroke="#fff" stroke-linejoin="round" stroke-linecap="round" stroke-width="1.7" d="m157.5,420.5 44.5-39.25 187.75,0l44.25,39.75-276.5-.5z"/>
</g>
</g>
</svg>
