<svg xmlns="http://www.w3.org/2000/svg" viewBox="0 0 580 580">
<path fill="#111" stroke="#eee" stroke-width="3.408" d="m66.275,1.768c-41.335,0-64.571,21.371-64.571,65.036v450.123c0,40.844 20.894,62.229 62.192,62.229h452.024c41.307,0 62.229-20.316 62.229-62.229v-450.123c0-42.601-20.922-65.036-63.522-65.036-.003,0-448.494-.143-448.352,0z"/>
<path opacity=".75" fill="#fff" line-height="normal" color="#000" d="m97.6875,138.375c-5.2307,.0817-10.3875,2.3088-14.0312,6.0625-3.6438,3.7537-5.7299,8.9879-5.6562,14.2188v20 8.8438h-9.3125c-6.6039-.0934-13.2032,2.5505-17.9062,7.1875-4.703,4.637-7.4375,11.2079-7.4375,17.8125 0,6.6046 2.7345,13.1755 7.4375,17.8125 4.703,4.637 11.3023,7.2809 17.9062,7.1875h9.3125v75.5625h-9.3125c-6.6039-.0934-13.2032,2.5505-17.9062,7.1875-4.703,4.637-7.4375,11.2079-7.4375,17.8125 0,6.6046 2.7345,13.1755 7.4375,17.8125 4.703,4.637 11.3023,7.2809 17.9062,7.1875h9.3125v46.2812 20 20h40v-20-20-46.2812h94.3125v-28.0625-1-1h175.375v30.0625h86.3125v46.2812 20 20h40v-20-20-46.2812h6.4375c6.6039,.0934 13.2032-2.5505 17.9062-7.1875 4.703-4.637 7.4375-11.2079 7.4375-17.8125 0-6.6046-2.7345-13.1755-7.4375-17.8125-4.703-4.637-11.3023-7.2809-17.9062-7.1875h-6.4375v-75.5625h6.4375c6.6039,.0934 13.2032-2.5505 17.9062-7.1875 4.703-4.637 7.4375-11.2079 7.4375-17.8125 0-6.6046-2.7345-13.1755-7.4375-17.8125-4.703-4.637-11.3023-7.2809-17.9062-7.1875h-6.4375v-8.8438-20c.0751-5.335-2.0993-10.6676-5.875-14.4375-3.7757-3.7699-9.1026-5.9271-14.4375-5.8438-5.2307,.0817-10.3875,2.3088-14.0312,6.0625-3.6438,3.7537-5.7299,8.9879-5.6562,14.2188v20 8.8438h-356v-8.8438-20c.0751-5.335-2.0993-10.6676-5.875-14.4375-3.7757-3.7699-9.1026-5.9271-14.4375-5.8438zm20.3125,99.125h356v75.5625h-356v-75.5625z"/>
<g fill="none" stroke="#fff" stroke-width="50">
<path stroke-linecap="square" d="m232,468h140"/>
<path d="m240.3158,386h119.3684"/>
</g>
</svg>
