<svg xmlns="http://www.w3.org/2000/svg" viewBox="0 0 580 580">
<path fill="#111" stroke="#eee" stroke-width="3.408" d="m66.275,1.768c-41.335,0-64.571,21.371-64.571,65.036v450.123c0,40.844 20.894,62.229 62.192,62.229h452.024c41.307,0 62.229-20.316 62.229-62.229v-450.123c0-42.601-20.922-65.036-63.522-65.036-.003,0-448.494-.143-448.352,0z"/>
<g stroke="#fff" stroke-linecap="round">
<g stroke-linejoin="round" stroke-width="20">
<path fill="none" d="m50.9117,87.8537h473.7613v422.8503h-473.7613z"/>
<path opacity=".25" fill="#fff" d="m49.4975,86.1968h473.7615v422.8502h-473.7615z"/>
</g>
<g fill="none" stroke-width="25.833">
<g transform="matrix(.46882 0 0 .46882 32.10466 33.76126)">
<path d="m439.3668,494.8338c-.247,.005-40.227,.008-40.4753,.008-19.5539,0-35.4055-15.8516-35.4055-35.4055 0-19.5539 15.8516-35.4055 35.4055-35.4055 .2482,0 .4959,.003 .7429,.008m0-.5754c-.247,.005-.4947,.008-.7429,.008-19.5539,0-35.4055-15.8516-35.4055-35.4055 0-19.5539 15.8516-35.4055 35.4055-35.4055 .2482,0 .4959,.003 .7429,.008m0-1.3111c-.247,.005-.4947,.008-.7429,.008-19.5539,0-35.4055-15.8516-35.4055-35.4055 0-19.5539 15.8516-35.4055 35.4055-35.4055 .2482,0 .4959,.003 .7429,.008m0-.5754c-.247,.005-.4947,.008-.7429,.008-19.5539,0-35.4055-15.8516-35.4055-35.4055 0-19.5539 15.8516-35.4055 35.4055-35.4055 .2482,0 40.2282,.003 40.4753,.008"/>
<path d="m136.3293,494.8338c.247,.005 40.227,.008 40.4753,.008 19.5539,0 35.4055-15.8516 35.4055-35.4055 0-19.5539-15.8516-35.4055-35.4055-35.4055-.2483,0-.4959,.003-.743,.008m0-.5754c.247,.005 .4947,.008 .743,.008 19.5539,0 35.4055-15.8516 35.4055-35.4055 0-19.5539-15.8516-35.4055-35.4055-35.4055-.2483,0-.4959,.003-.743,.008m0-1.3111c.247,.005 .4947,.008 .743,.008 19.5539,0 35.4055-15.8516 35.4055-35.4055 0-19.5539-15.8516-35.4055-35.4055-35.4055-.2483,0-.4959,.003-.743,.008m0-.5754c.247,.005 .4947,.008 .743,.008 19.5539,0 35.4055-15.8516 35.4055-35.4055 0-19.5539-15.8516-35.4055-35.4055-35.4055-.2483,0-40.2282,.003-40.4753,.008"/>
<path d="m316.3333,212.5391 0,280.9499"/>
<path d="m262.2597,212.5391 0,280.9499"/>
</g>
<g transform="matrix(.46882 0 0 .46882 32.10466 233.76126)">
<path d="m439.3668,494.8338c-.247,.005-40.227,.008-40.4753,.008-19.5539,0-35.4055-15.8516-35.4055-35.4055 0-19.5539 15.8516-35.4055 35.4055-35.4055 .2482,0 .4959,.003 .7429,.008m0-.5754c-.247,.005-.4947,.008-.7429,.008-19.5539,0-35.4055-15.8516-35.4055-35.4055 0-19.5539 15.8516-35.4055 35.4055-35.4055 .2482,0 .4959,.003 .7429,.008m0-1.3111c-.247,.005-.4947,.008-.7429,.008-19.5539,0-35.4055-15.8516-35.4055-35.4055 0-19.5539 15.8516-35.4055 35.4055-35.4055 .2482,0 .4959,.003 .7429,.008m0-.5754c-.247,.005-.4947,.008-.7429,.008-19.5539,0-35.4055-15.8516-35.4055-35.4055 0-19.5539 15.8516-35.4055 35.4055-35.4055 .2482,0 40.2282,.003 40.4753,.008"/>
<path d="m136.3293,494.8338c.247,.005 40.227,.008 40.4753,.008 19.5539,0 35.4055-15.8516 35.4055-35.4055 0-19.5539-15.8516-35.4055-35.4055-35.4055-.2483,0-.4959,.003-.743,.008m0-.5754c.247,.005 .4947,.008 .743,.008 19.5539,0 35.4055-15.8516 35.4055-35.4055 0-19.5539-15.8516-35.4055-35.4055-35.4055-.2483,0-.4959,.003-.743,.008m0-1.3111c.247,.005 .4947,.008 .743,.008 19.5539,0 35.4055-15.8516 35.4055-35.4055 0-19.5539-15.8516-35.4055-35.4055-35.4055-.2483,0-.4959,.003-.743,.008m0-.5754c.247,.005 .4947,.008 .743,.008 19.5539,0 35.4055-15.8516 35.4055-35.4055 0-19.5539-15.8516-35.4055-35.4055-35.4055-.2483,0-40.2282,.003-40.4753,.008"/>
<path d="m316.3333,212.5391 0,280.9499"/>
<path d="m262.2597,212.5391 0,280.9499"/>
</g>
<g transform="matrix(.46882 0 0 .46882 270.10466 233.76126)">
<path d="m439.3668,494.8338c-.247,.005-40.227,.008-40.4753,.008-19.5539,0-35.4055-15.8516-35.4055-35.4055 0-19.5539 15.8516-35.4055 35.4055-35.4055 .2482,0 .4959,.003 .7429,.008m0-.5754c-.247,.005-.4947,.008-.7429,.008-19.5539,0-35.4055-15.8516-35.4055-35.4055 0-19.5539 15.8516-35.4055 35.4055-35.4055 .2482,0 .4959,.003 .7429,.008m0-1.3111c-.247,.005-.4947,.008-.7429,.008-19.5539,0-35.4055-15.8516-35.4055-35.4055 0-19.5539 15.8516-35.4055 35.4055-35.4055 .2482,0 .4959,.003 .7429,.008m0-.5754c-.247,.005-.4947,.008-.7429,.008-19.5539,0-35.4055-15.8516-35.4055-35.4055 0-19.5539 15.8516-35.4055 35.4055-35.4055 .2482,0 40.2282,.003 40.4753,.008"/>
<path d="m136.3293,494.8338c.247,.005 40.227,.008 40.4753,.008 19.5539,0 35.4055-15.8516 35.4055-35.4055 0-19.5539-15.8516-35.4055-35.4055-35.4055-.2483,0-.4959,.003-.743,.008m0-.5754c.247,.005 .4947,.008 .743,.008 19.5539,0 35.4055-15.8516 35.4055-35.4055 0-19.5539-15.8516-35.4055-35.4055-35.4055-.2483,0-.4959,.003-.743,.008m0-1.3111c.247,.005 .4947,.008 .743,.008 19.5539,0 35.4055-15.8516 35.4055-35.4055 0-19.5539-15.8516-35.4055-35.4055-35.4055-.2483,0-.4959,.003-.743,.008m0-.5754c.247,.005 .4947,.008 .743,.008 19.5539,0 35.4055-15.8516 35.4055-35.4055 0-19.5539-15.8516-35.4055-35.4055-35.4055-.2483,0-40.2282,.003-40.4753,.008"/>
<path d="m316.3333,212.5391 0,280.9499"/>
<path d="m262.2597,212.5391 0,280.9499"/>
</g>
<g transform="matrix(.46882 0 0 .46882 270.10466 37.76126)">
<path d="m439.3668,494.8338c-.247,.005-40.227,.008-40.4753,.008-19.5539,0-35.4055-15.8516-35.4055-35.4055 0-19.5539 15.8516-35.4055 35.4055-35.4055 .2482,0 .4959,.003 .7429,.008m0-.5754c-.247,.005-.4947,.008-.7429,.008-19.5539,0-35.4055-15.8516-35.4055-35.4055 0-19.5539 15.8516-35.4055 35.4055-35.4055 .2482,0 .4959,.003 .7429,.008m0-1.3111c-.247,.005-.4947,.008-.7429,.008-19.5539,0-35.4055-15.8516-35.4055-35.4055 0-19.5539 15.8516-35.4055 35.4055-35.4055 .2482,0 .4959,.003 .7429,.008m0-.5754c-.247,.005-.4947,.008-.7429,.008-19.5539,0-35.4055-15.8516-35.4055-35.4055 0-19.5539 15.8516-35.4055 35.4055-35.4055 .2482,0 40.2282,.003 40.4753,.008"/>
<path d="m136.3293,494.8338c.247,.005 40.227,.008 40.4753,.008 19.5539,0 35.4055-15.8516 35.4055-35.4055 0-19.5539-15.8516-35.4055-35.4055-35.4055-.2483,0-.4959,.003-.743,.008m0-.5754c.247,.005 .4947,.008 .743,.008 19.5539,0 35.4055-15.8516 35.4055-35.4055 0-19.5539-15.8516-35.4055-35.4055-35.4055-.2483,0-.4959,.003-.743,.008m0-1.3111c.247,.005 .4947,.008 .743,.008 19.5539,0 35.4055-15.8516 35.4055-35.4055 0-19.5539-15.8516-35.4055-35.4055-35.4055-.2483,0-.4959,.003-.743,.008m0-.5754c.247,.005 .4947,.008 .743,.008 19.5539,0 35.4055-15.8516 35.4055-35.4055 0-19.5539-15.8516-35.4055-35.4055-35.4055-.2483,0-40.2282,.003-40.4753,.008"/>
<path d="m316.3333,212.5391 0,280.9499"/>
<path d="m262.2597,212.5391 0,280.9499"/>
</g>
</g>
</g>
</svg>
