<svg xmlns="http://www.w3.org/2000/svg" viewBox="0 0 580 580">
<path fill="#111" stroke="#eee" stroke-width="3.408" d="m66.275,1.768c-41.335,0-64.571,21.371-64.571,65.036v450.123c0,40.844 20.894,62.229 62.192,62.229h452.024c41.307,0 62.229-20.316 62.229-62.229v-450.123c0-42.601-20.922-65.036-63.522-65.036-.003,0-448.494-.143-448.352,0z"/>
<g transform="matrix(.97546 0 0 .97546 7.155 7.25734)">
<path fill="#fff" d="m238.3402,192.7781-28.7805,0c-35.1491,0-63.1636,28.7781-63.1636,63.928v130.147c0,28.1196 18.0575,51.7386 43.2976,60.1072v20.1211h22.4129v-16.046h156.6356v16.046h22.4129v-19.3566c26.364-7.7736 45.5894-31.9021 45.5894-60.8716v-130.147c0-35.1499-28.0137-63.928-63.1635-63.928h-32.8548-102.386zm76.9168,0-51.1934,0 51.1934,0zm-119.9601,31.0724 187.708,0c13.3695,0 24.9598,10.5715 24.9598,23.941v88.6326c0,13.3695-11.5903,23.941-24.9598,23.941h-187.708c-13.3695,0-24.7047-10.5716-24.7047-23.941v-88.6326c0-13.3695 11.3352-23.941 24.7047-23.941zm6.8771,154.5981c11.0296,0 19.8659,9.0906 19.8659,20.1202 0,11.0295-8.8363,19.8659-19.8659,19.8659-11.0296,0-19.8659-8.8364-19.8659-19.8659 0-11.0296 8.8363-20.1202 19.8659-20.1202zm173.9539,0c11.0295,0 20.121,9.0906 20.121,20.1202 0,11.0295-9.0915,19.8659-20.121,19.8659-11.0296,0-19.866-8.8364-19.866-19.8659 0-11.0296 8.8364-20.1202 19.866-20.1202z"/>
<path opacity=".5" fill="none" stroke="#fff" stroke-linejoin="round" stroke-linecap="round" stroke-width="5" d="m56.6452,29.2903c0,13.6824-11.0918,24.7742-24.7742,24.7742-13.6824,0-24.7742-11.0918-24.7742-24.7742 0-13.6824 11.0918-24.7742 24.7742-24.7742 13.6824,0 24.7742,11.0918 24.7742,24.7742z" transform="matrix(8.51677 0 0 8.51677 20.13217 77.69042)"/>
<path opacity=".5" fill="#fff" fill-rule="evenodd" d="m47.0669,32.0448h489.0081v40.7507h-489.0081z"/>
</g>
</svg>
