<svg xmlns="http://www.w3.org/2000/svg" viewBox="0 0 580 580">
<path fill="#111" stroke="#eee" stroke-width="3.408" d="m66.275,1.768c-41.335,0-64.571,21.371-64.571,65.036v450.123c0,40.844 20.895,62.229 62.192,62.229h452.024c41.307,0 62.229-20.315 62.229-62.229v-450.123c0-42.601-20.922-65.036-63.521-65.036-.004,0-448.495-.143-448.353,0z"/>
<g fill="none" stroke="#fff" stroke-linecap="round">
<g fill-rule="evenodd">
<g stroke-linejoin="round" stroke-width="28.173">
<path d="m538.7559,90.9243l-49.4094,27.9964-63.323,269.6494v57.1292h-288.8767"/>
<path d="m479.0693,164.5769h-422.8728l49.6677,193.8258 319.5308,44.5419 53.6742-238.3677z"/>
</g>
<g stroke-width="18.782">
<path d="m128.0687,165.7354v177.4717"/>
<path d="m86.4247,243.0011h358.7674"/>
</g>
</g>
<g stroke-linejoin="round" stroke-width="20">
<path d="M -184.12699,498.68445 A 29.153439,29.153439 0 1 1 -184.12699,498.67892" transform="matrix(1.08626 0 0 1.13586 373.78132 -86.8033)"/>
<path d="M -184.12699,498.68445 A 29.153439,29.153439 0 1 1 -184.12699,498.67892" transform="matrix(1.08626 0 0 1.13586 618.76176 -84.8033)"/>
</g>
<g fill-rule="evenodd" stroke-width="18.782">
<path d="m215.1525,165.7354v197.5156"/>
<path d="m306.2363,165.7354v206.424"/>
<path d="m395.3201,165.7354v219.7865"/>
<path d="m104.2415,322.0849h323.1339"/>
</g>
</g>
</svg>
