<svg xmlns="http://www.w3.org/2000/svg" viewBox="0 0 580 580">
<path fill="#111" stroke="#eee" stroke-width="3.408" d="m66.275,1.768c-41.335,0-64.571,21.371-64.571,65.036v450.123c0,40.844 20.896,62.229 62.192,62.229h452.024c41.307,0 62.229-20.314 62.229-62.229v-450.123c0-42.601-20.922-65.036-63.521-65.036-.004,0-448.495-.143-448.353,0z"/>
<g fill-rule="evenodd">
<g>
<path fill="#fff" d="m293.4148,110.4879c25.9886,0 47.0774,22.024 47.0774,49.1633 0,27.1393-21.0905,49.1633-47.0774,49.1633-25.987,0-47.0791-22.024-47.0791-49.1633 0-27.1393 21.0905-49.1633 47.0791-49.1633"/>
</g>
<g fill="none" stroke="#fff" stroke-linecap="round">
<g>
<path stroke-width="45.087" d="m222.5084,105.5942h145.9733"/>
</g>
<g stroke-width="35.825">
<path d="m143.144,440.2856l119.9508-252.8312"/>
<path d="m442.9935,434.289l-119.9508-252.8312"/>
</g>
<g>
<path stroke-width="35.927" d="m292.6052,513.8068l.9271-312.6072"/>
</g>
</g>
</g>
</svg>
