<svg xmlns="http://www.w3.org/2000/svg" viewBox="0 0 580 580">
<path fill="#111" stroke="#eee" stroke-width="3.408" d="m66.275,1.768c-41.335,0-64.571,21.371-64.571,65.036v450.123c0,40.844 20.894,62.229 62.192,62.229h452.024c41.307,0 62.229-20.316 62.229-62.229v-450.123c0-42.601-20.922-65.036-63.522-65.036-.003,0-448.494-.143-448.352,0z"/>
<g transform="translate(-12.51126 -134.23929)">
<path fill="#fff" d="m269.5938,90.625c-7.5,0-12.125,4.3125-12.125,12.8125v21.25h-45.5312c-24.5,0-37.5,13.25-43.5,28.75l-31.875,81.4062c-12.626,1.603-34.9688,16.2665-34.9688,44.0625v103.5625h31v33.0938c0,40.736 58.2187,40.257 58.2188,0v-33.0938h104.75 .0625 104.7188v33.0938c0,40.257 58.25,40.736 58.25,0v-33.0938h30.9688v-103.5625c0-27.796-22.374-42.4595-35-44.0625l-31.875-81.4062c-6-15.5-19-28.75-43.5-28.75h-45v-21.25c0-8.5-4.625-12.8125-12.125-12.8125h-26.4375-.0625-25.9688zm-58.0312,63.7188h83.9375 .0625 .0625 83.9375c10.5,.097 15,6.5938 18,15.5938l24,62.9688h-125.9375-.0625-.0625-125.9375l24-62.9688c3-9 7.5-15.4967 18-15.5938zm-48.9375,109.9375c14.855,0 26.9062,12.2785 26.9062,27.4375 0,15.159-12.0513,27.4688-26.9062,27.4688-14.857,0-26.9062-12.3098-26.9062-27.4688 0-15.159 12.0493-27.4375 26.9062-27.4375zm265.875,0c14.855,0 26.9062,12.2785 26.9062,27.4375 0,15.159-12.0512,27.4688-26.9062,27.4688-14.856,0-26.875-12.3098-26.875-27.4688 0-15.159 12.019-27.4375 26.875-27.4375z" transform="translate(10.51126 70.23929)"/>
</g>
<path fill="#fff" line-height="125%" d="m104.9687,426.8975h96.8203v25.4531h-32.4844v77.625h-31.8516v-77.625h-32.4844v-25.4531zm174.7266,86.0625h-36.2812l-4.9922,17.0156h-32.5547l38.7422-103.0781h34.7344l38.7422,103.0781h-33.3281l-5.0625-17.0156zm-6.6797-22.2891l-11.3906-37.0547-11.3203,37.0547h22.7109zm48.0938-63.7734h35.0859l18.2812,31.7109 17.7188-31.7109h34.7344l-32.0625,49.9219 35.0859,53.1562h-35.7891l-20.3203-33.1172-20.3906,33.1172h-35.5781l35.5781-53.7188-32.3438-49.3594zm120.3047,0h31.9219v103.0781h-31.9219v-103.0781z"/>
</svg>
