<svg xmlns="http://www.w3.org/2000/svg" viewBox="0 0 580 580">
<path fill="#111" stroke="#eee" stroke-width="3.408" d="m66.275,1.768c-41.335,0-64.571,21.371-64.571,65.036v450.123c0,40.844 20.895,62.229 62.192,62.229h452.024c41.307,0 62.229-20.315 62.229-62.229v-450.123c0-42.601-20.922-65.036-63.521-65.036-.004,0-448.495-.143-448.353,0z"/>
<g fill="#fff" transform="matrix(.95372 .66494 -.66494 .95372 190.65781 -211.89377)">
<path d="m309.337,64.0439c-22.379,2.504-103.754,39.6981-106.129,231.4791-2.5,202.025 83.75,244.525 106.37,244.067v-133.436c-18.62,0-22.366-20.275-26.62-62.106-2.814-27.679-3.634-61.942 0-96 2.552-23.897 7-47.223 26.5-47.223l-.121-136.7811z"/>
<path d="m357.583,539.825c8.625,0 14.811-7.027 14.811-14.902l.062-.062c0,0-.062-104-.062-104.063 0-8.25-6.686-14.754-14.811-14.754h-37.799v133.781c0,0 37.707,.058 37.738,.027l.061-.027z"/>
<path d="m357.583,200.825c8.625,0 14.811-7.027 14.811-14.902l.062-.062c0,0-.062-107.0001-.062-107.0631 0-8.25-6.686-14.754-14.811-14.754h-37.799v136.7811c0,0 37.707,.058 37.738,.027l.061-.027z"/>
</g>
</svg>
