<svg viewBox="0 0 580 580">
<path fill="#111" stroke="#eee" stroke-width="3.408" d="m66.275,1.768c-41.335,0-64.571,21.371-64.571,65.036v450.123c0,40.844 20.896,62.229 62.192,62.229h452.024c41.307,0 62.229-20.314 62.229-62.229v-450.123c0-42.601-20.922-65.036-63.521-65.036-.004,0-448.495-.143-448.353,0z"/>
<g fill="#fff">
<circle cx="171.591" cy="397.93" r="50.546"/>
<path d="m285.113,104.116c-53.502-53.501-127.868-64.464-173.241-20.506-49.437,47.896-32.996,119.739 20.506,173.241 41.901,41.901 91.901,63.271 137.089,45.097 18.605,6.366 50.105,19.328 80.532,41.943-1.016,4.799 .331,9.996 4.058,13.723l90.51,90.51c5.857,5.858 15.355,5.858 21.213,.001l10.606-10.606c5.857-5.858 5.857-15.355 0-21.214l-90.51-90.509c-3.727-3.727-8.923-5.072-13.722-4.058-22.709-30.555-35.684-62.186-42.022-80.761 17.662-44.908-3.277-95.118-45.019-136.861zm58.886,211.623c-19.857-10.854-38.697-19.558-55.349-26.429 5.108-4.233 10.157-8.811 15.132-13.786 4.976-4.975 9.55-10.033 13.776-15.159 6.876,16.658 15.582,35.506 26.441,55.374z"/>
</g>
</svg>
