<svg xmlns="http://www.w3.org/2000/svg" viewBox="0 0 580 580" xmlns:xlink="http://www.w3.org/1999/xlink">
<defs/>
<path fill="#111" stroke="#eee" stroke-width="3.408" d="m66.275,1.768c-41.335,0-64.571,21.371-64.571,65.036v450.123c0,40.844 20.895,62.229 62.192,62.229h452.024c41.307,0 62.229-20.315 62.229-62.229v-450.123c0-42.601-20.922-65.036-63.521-65.036-.004,0-448.495-.143-448.353,0z"/>
<g fill="#fff">
<path d="m77.0508,358.937h361.1052v63.906h-361.1052z"/>
<path d="m455.202,359.176h18.234v63.669h-18.234z"/>
<path d="m489.293,359.176h18.234v63.669h-18.234z"/>
<path d="m363.0845,275.1951c-27.4987,0-49.8896-22.2721-49.8896-49.7708 0-5.2265 .8315-10.2155 2.3163-14.9669-34.0912-.5939-61.4711-28.4489-61.4711-62.659 0-34.4476 27.6175-62.3026 61.9463-62.7777v18.1147c-24.3509,.3564-43.9504,20.1934-43.9504,44.6631 0,24.5884 20.0746,44.6631 44.6631,44.6631 3.1478,0 6.058-.3563 8.9088-.9503 .8315-.2376 1.7224-.3563 2.5539-.3563 5.8204,0 10.5718,4.7514 10.5718,10.5718 0,2.1975-.7127,4.1575-1.8412,5.9392-3.3854,5.1077-5.4641,11.1658-5.4641,17.7583 0,17.402 14.1354,31.6561 31.6561,31.6561h65.4504c24.826,0 44.7819,20.0746 44.7819,44.7819l.1188,35.7542h-18.2335v-35.6948c0-14.7293-11.9379-26.6672-26.6672-26.6672h-65.4504z"/>
<path d="m377.5763,205.9436c6.7113-8.6713 10.6906-19.4807 10.6906-31.2998 0-28.5083-23.1036-51.612-51.612-51.612h-4.0387v-18.2335h4.0387c38.4863,0 69.8454,31.2998 69.8454,69.8454 0,10.3343-2.3163,20.1934-6.355,28.9835l12.7694-.1188c52.3247,0 94.6714,42.4656 94.6714,94.6714v39.4365h-18.2335v-39.4365c0-42.228-34.21-76.438-76.438-76.438h-26.7266c-5.5829,0-10.2155-4.6326-10.2155-10.3343 0-2.0787 .7127-3.8011 1.6036-5.4641z"/>
</g>
</svg>
