<svg xmlns="http://www.w3.org/2000/svg" viewBox="0 0 580 580">
<path fill="#111" stroke="#eee" stroke-width="3.408" d="m66.275,1.768c-41.335,0-64.571,21.371-64.571,65.036v450.123c0,40.844 20.894,62.229 62.192,62.229h452.024c41.307,0 62.229-20.316 62.229-62.229v-450.123c0-42.601-20.922-65.036-63.522-65.036-.003,0-448.494-.143-448.352,0z"/>
<g stroke="#fff" stroke-linejoin="round" stroke-linecap="round" stroke-width="3.434" transform="matrix(1.06988 0 0 1.06988 -193.52064 199.78795)">
<path fill="#fff" line-height="125%" d="m424.4766,167.1793c.2103,.1053 .9992,.3157 2.3668,.6311 21.5639,4.2078 41.5553,11.8867 52.3901,23.0367 10.8345,11.1503 16.2518,25.7717 16.2519,43.8644-.0002,18.5136-5.9434,34.5551-17.8298,48.1247-11.8867,13.5696-32.1411,20.9329-53.179,22.09l-8.8483,13.7896h-4.2427v-13.4741c-21.4589-2.4194-37.9212-9.3882-49.3869-20.9066-11.4658-11.5183-17.935-27.6388-19.4076-48.3613l28.4014-5.0491c2.209,15.5683 6.6796,27.5599 13.4118,35.9752 6.7321,8.4153 15.7259,13.2014 26.9814,14.3585v-90.4112c-21.3537-4.6283-37.3427-12.3598-47.9669-23.1945-10.6243-10.8345-15.9364-24.7722-15.9364-41.8132 0-16.9355 5.2595-31.478 15.7786-43.6278 10.519-12.1493 26.5605-19.1707 48.1247-21.0644v-13.5696h13.091v13.5696c17.8823,1.7885 35.7699,7.4688 46.0787,17.0409 10.3085,9.5725 16.7777,22.9843 19.4076,40.2354l-29.5059,4.2602c-1.6832-10.7292-5.2071-19.2234-10.5716-25.4824-5.3648-6.2586-16.3625-10.2822-25.4088-12.0706v82.0486zm-13.091-3.4713 0-78.8929c-11.4658,1.9988-20.2492,6.6009-26.3502,13.8063-6.1011,7.2057-9.1516,15.5421-9.1516,25.009 0,10.8348 3.1557,19.3815 9.4671,25.6402 6.3114,6.259 14.9896,11.0714 26.0346,14.4374zm13.091,117.5504c11.0449-1.683 23.936-6.4955 31.089-14.4374 7.1528-7.9418 10.7293-17.9612 10.7294-30.0582-.0001-10.6242-2.7088-19.1709-8.126-25.6402-5.4174-6.4691-19.1763-11.9653-33.6925-16.4886v86.6244z" transform="scale(1.08671 .92021)"/>
</g>
<g transform="matrix(1.01631 0 0 1.01631 .46946 123.26955)">
<path fill="none" stroke="#fff" stroke-linejoin="round" stroke-linecap="round" stroke-width="33.378" d="m289.0938,123.7524 0,261.9569"/>
</g>
<g transform="translate(0 20)">
<path fill="none" stroke="#fff" stroke-linecap="round" stroke-width="54.685" d="m121.7891,156.8286 369.5279-82.3799"/>
<path opacity=".75" fill="#fff" line-height="normal" color="#000" d="m455.3128,182.6632c-3.7229-.002-7.4235,1.5302-10.056,4.1627-2.6325,2.6325-4.1644,6.3331-4.1627,10.056v170.5312c-.002,3.7229 1.5302,7.4235 4.1627,10.056 2.6325,2.6325 6.3331,4.1644 10.056,4.1627h51.8438c3.7229,.002 7.4235-1.5302 10.056-4.1627 2.6325-2.6325 4.1644-6.3331 4.1627-10.056v-170.5312c.002-3.7229-1.5302-7.4235-4.1627-10.056-2.6325-2.6325-6.3331-4.1644-10.056-4.1627h-51.8438z"/>
<path opacity=".75" fill="#fff" line-height="normal" color="#000" d="m78.8128,39.6632c-4.6387,.0002-9.2512,1.9074-12.5312,5.1875-3.2801,3.2801-5.1873,7.8925-5.1875,12.5312v306.5312c.0002,4.6387 1.9074,9.2512 5.1875,12.5312 3.2801,3.2801 7.8925,5.1873 12.5312,5.1875h44.8438c4.6387-.0002 9.2512-1.9074 12.5312-5.1875 3.2801-3.2801 5.1873-7.8925 5.1875-12.5312v-154.4688c-22.4154,6.8824-49.3011,.7861-63.7812-18.25-21.9607-26.2689-10.7553-72.6893 21.625-84.9375 14.0496-3.2538 28.1041-6.4779 42.1562-9.7187v-39.1562c-.0002-4.6387-1.9074-9.2512-5.1875-12.5312-3.2801-3.2801-7.8925-5.1873-12.5312-5.1875h-44.8438z"/>
</g>
</svg>
