<svg xmlns="http://www.w3.org/2000/svg" viewBox="0 0 580 580">
<path fill="#111" stroke="#eee" stroke-width="3.408" d="m66.275,1.768c-41.335,0-64.571,21.371-64.571,65.036v450.123c0,40.844 20.894,62.229 62.192,62.229h452.024c41.307,0 62.229-20.316 62.229-62.229v-450.123c0-42.601-20.922-65.036-63.522-65.036-.003,0-448.494-.143-448.352,0z"/>
<path fill="none" stroke="#fff" stroke-linejoin="round" stroke-linecap="round" stroke-width="25" d="m465.793,62.5741v197.2494h-356.0011v-197.2494"/>
<g fill-rule="evenodd">
<g fill="none" stroke="#fff" stroke-linecap="round">
<g>
<path stroke-width="15" d="m412.5914,386.9046l-252.6445,131.7265"/>
</g>
<g stroke-linejoin="round" fill-opacity=".75" stroke-width="30">
<path d="m408.7625,266.4405l20.0211,275.2081"/>
<path d="m170.7837,266.4405l-20.0212,275.2081"/>
</g>
<g stroke-width="15">
<path d="m161.9469,386.9046l252.6445,131.7265"/>
<path d="m407.5097,275.9863l-241.7533,112.35"/>
<path d="m167.7565,275.9863l241.7533,112.35"/>
</g>
</g>
<g>
<path fill="#fff" d="m257.5312,71.1875c-23.3967,1.4326-43.6538,20.1585-67.7812,15.375-18.4063-3.4989-35.774-17.6957-55.1562-11.3438-7.424,1.783-14.5317,4.592-21.6875,7.2188 .2368,9.8775-.4686,21.1004 .3438,30.1562 16.5693-6.6978 36.0931-12.0049 53.0938-3.6562 14.2132,5.7251 29.8914,13.1073 45.25,6.9375 19.4692-6.251 40.2291-18.8943 61.3438-11.6562 16.8174,5.0517 34.4819,15.3646 52.3678,8.8503 19.5496-5.5656 40.5344-14.2639 60.9447-7.1003 18.8509,5.2245 38.7582,15.8739 58.375,8.4062 3.4075-1.967 10.7032-1.4648 11-5.8125 0-9.4167 0-18.8333 0-28.25-15.2552,6.3302-32.8465,8.0454-48.4688,1.8125-18.0263-5.888-37.5669-14.0633-56.399-7.0065-18.065,5.2433-37.8305,13.6092-56.5385,6.1003-12.0471-3.717-23.7247-10.3789-36.6875-10.0312z"/>
</g>
</g>
<path opacity=".25" fill="#fff" d="m134.639,99.1674h306.307a20.0878,20.0878 0 0,1 20.088,20.0876v112.56a20.0878,20.0878 0 0,1 -20.088,20.087h-306.307a20.0878,20.0878 0 0,1 -20.088-20.087v-112.56a20.0878,20.0878 0 0,1 20.088-20.0876"/>
</svg>
