<svg xmlns="http://www.w3.org/2000/svg" viewBox="0 0 580 580">
<path fill="#111" stroke="#eee" stroke-width="3.408" d="m66.275,1.768c-41.335,0-64.571,21.371-64.571,65.036v450.123c0,40.844 20.894,62.229 62.192,62.229h452.024c41.307,0 62.229-20.316 62.229-62.229v-450.123c0-42.601-20.922-65.036-63.522-65.036-.003,0-448.494-.143-448.352,0z"/>
<g fill="none" stroke="#fff">
<g stroke-linecap="round">
<g stroke-width="12.53">
<path d="m317.8484,264.6409-68.5039,63.4129"/>
<path d="m267.3769,264.6409 68.5039,63.4129"/>
</g>
<g stroke-width="15.422">
<path d="m242.8685,327.8733 147.2311,119.2619"/>
<path d="m342.013,327.8733-147.2311,119.2619"/>
</g>
</g>
<g stroke-width="17.205">
<path opacity=".5" d="m227.1144,94.807c-94.1884,80.6102-191.5164-1.4142-191.5164-1.4142"/>
<path opacity=".5" d="m227.1144,166.807c-94.1884,80.6102-191.5164-1.4142-191.5164-1.4142"/>
</g>
<g stroke-linejoin="round" stroke-linecap="round" stroke-width="25">
<path d="m279.328,216.339-102.5513,271.5362"/>
<path d="m304.7767,216.339 102.5513,271.5362"/>
<path d="m302.7767,214.339 .6274-145.6568"/>
<path d="m280.7767,214.339 .6274-145.6568"/>
<path d="m220.262,95.1968 145.6568,.6274"/>
<path d="m220.262,163.1968 145.6568,.6274"/>
</g>
<g stroke-width="17.205">
<path opacity=".5" d="m355.598,94.807c94.1884,80.6102 191.5164-1.4142 191.5164-1.4142"/>
<path opacity=".5" d="m355.598,166.807c94.1884,80.6102 191.5164-1.4142 191.5164-1.4142"/>
</g>
</g>
</svg>
