<svg xmlns="http://www.w3.org/2000/svg" viewBox="0 0 580 580">
<path fill="#111" stroke="#eee" stroke-width="3.408" d="m66.275,1.768c-41.335,0-64.571,21.371-64.571,65.036v450.123c0,40.844 20.894,62.229 62.192,62.229h452.024c41.307,0 62.229-20.316 62.229-62.229v-450.123c0-42.601-20.922-65.036-63.522-65.036-.003,0-448.494-.143-448.352,0z"/>
<g fill-rule="evenodd">
<g fill="#fff">
<path d="m198.875,66.7812c-15.2705,.5935-32.0067,12.4161-46.9375,13.125-.2716,.0043-.5418,.0031-.8125,0v31.2812c.2708,.003 .5408,.0356 .8125,.0312 14.9308-.5884 31.667-12.7109 46.9375-13.125 14.8744-.5897 28.1678,10.3891 43.1562,10.625 15.2141,.1205 30.6491-9.9198 46.9375-9.625 16.0615,.2346 32.4113,11.1814 48.8125,11.125 16.1179-.3551 31.3902-12.0071 48.1875-12.125 12.4078-.0415 25.7418,6.125 38.5,9.5v-31.375c-12.7582-3.3502-26.0922-9.4375-38.5-9.4375-16.7973,.1192-32.0697,11.7699-48.1875,12.125-16.4012,.0577-32.7511-10.8579-48.8125-11.0938-16.2884-.4128-31.7234,9.683-46.9375,9.5625-14.9872-.2936-28.2819-11.0655-43.1562-10.5938z"/>
<path d="m200.2812,125.1562c-.4618-.0065-.9414,.0165-1.4062,.0312-15.2705,.5897-32.0067,12.3823-46.9375,13.0938-.2716,.0042-.5418,.0031-.8125,0v31.3125c.2707,.0031 .5409,.0042 .8125,0 14.9308-.7115 31.667-12.5353 46.9375-13.125 14.8744-.473 28.1678,10.2989 43.1562,10.5938 15.2141,.1179 30.6491-9.9766 46.9375-9.5625 16.0615,.2372 32.4113,11.154 48.8125,11.0938 16.1179-.3526 31.3902-12.0096 48.1875-12.125 12.4078,0 25.7418,6.0878 38.5,9.4375v-31.2812c-12.7588-3.3496-26.0916-9.4375-38.5-9.4375-16.7973,.1192-32.0697,11.7412-48.1875,12.0938-16.4012,.0602-32.7511-10.8566-48.8125-11.0938-16.2884-.4141-31.7234,9.6804-46.9375,9.5625-14.5189-.2856-27.4332-10.393-41.75-10.5938z"/>
</g>
<g>
<path fill="none" stroke="#fff" stroke-linecap="round" stroke-width="15" d="m246.4058,285.1798l104.6973,96.9164"/>
</g>
</g>
<g fill="none" stroke="#fff">
<g>
<path stroke-linejoin="round" stroke-linecap="square" stroke-width="20" d="m451.1341,70.6962v181.0053h-326.6833v-181.0053"/>
</g>
<g fill-rule="evenodd" stroke-linecap="round">
<g>
<path stroke-width="15" d="m323.1031,285.1798l-104.6973,96.9164"/>
</g>
<g stroke-width="15.526">
<path d="m231.5168,371.7466l171.2794,129.5574"/>
<path d="m340.7962,371.7466l-171.2794,129.5574"/>
</g>
<g stroke-linejoin="round" fill-opacity=".75" stroke-width="19.809">
<path d="m322.4955,253.3695c0,24.3331 36.1317,192.8236 103.4597,278.0366"/>
<path d="m247.9553,253.3695c0,24.3331-36.1317,192.8236-103.4598,278.0366"/>
</g>
</g>
</g>
</svg>
