<svg xmlns="http://www.w3.org/2000/svg" viewBox="0 0 580 580">
<path fill="#111" stroke="#eee" stroke-width="3.408" d="m66.275,1.768c-41.335,0-64.571,21.371-64.571,65.036v450.123c0,40.844 20.894,62.229 62.192,62.229h452.024c41.307,0 62.229-20.316 62.229-62.229v-450.123c0-42.601-20.922-65.036-63.522-65.036-.003,0-448.494-.143-448.352,0z"/>
<g fill="none" fill-rule="evenodd" stroke="#fff">
<g stroke-linecap="round">
<g stroke-linejoin="round" fill-opacity=".75" stroke-width="19.809">
<path d="m292.5422,132.6026c0,.3065 0-39.3869 0-39.0804 0,24.3331-16.3327,276.2622-120.4303,415.2152"/>
<path d="m292.2498,132.1428c0,.3065 0-39.3869 0-39.0804 0,24.3331 16.3327,276.2622 120.4303,415.2153"/>
</g>
<g stroke-width="12.53">
<path d="m317.8484,284.6409l-68.5039,63.4129"/>
<path d="m267.3769,284.6409l68.5039,63.4129"/>
</g>
<g stroke-width="15.422">
<path d="m262.8685,347.8733l107.2311,99.2619"/>
<path d="m322.013,347.8733l-107.2311,99.2619"/>
</g>
</g>
<g stroke-width="10">
<path opacity=".5" d="m294.3991,90.807c-127.2792,80.6102-258.8011-1.4142-258.8011-1.4142"/>
<path opacity=".5" d="m550.3991,92.807c-127.2792,80.6102-258.8011-1.4142-258.8011-1.4142"/>
<path opacity=".5" d="m294.3991,130.807c-127.2792,80.6102-258.8011-1.4142-258.8011-1.4142"/>
<path opacity=".5" d="m550.3991,132.807c-127.2792,80.6102-258.8011-1.4142-258.8011-1.4142"/>
<path opacity=".5" d="m294.3991,170.807c-127.2792,80.6102-258.8011-1.4142-258.8011-1.4142"/>
<path opacity=".5" d="m550.3991,172.807c-127.2792,80.6102-258.8011-1.4142-258.8011-1.4142"/>
</g>
</g>
</svg>
