<svg xmlns="http://www.w3.org/2000/svg" viewBox="0 0 580 580" xmlns:xlink="http://www.w3.org/1999/xlink">
<defs/>
<path fill="#111" stroke="#eee" stroke-width="3.408" d="m66.275,1.768c-41.335,0-64.571,21.371-64.571,65.036v450.123c0,40.844 20.895,62.229 62.192,62.229h452.024c41.307,0 62.229-20.315 62.229-62.229v-450.123c0-42.601-20.922-65.036-63.521-65.036-.004,0-448.495-.143-448.353,0z"/>
<path fill="#fff" d="m194.146,510.9517-6.5454,29.6432-42.4193-.1259 72.6289-327.9631-41.9158-.3776v-119.328l122.5377-54.9437 122.5377,54.9437v119.328l-41.9158,.3776 72.5031,327.9631-42.2935,.1259-6.5454-29.5173-104.349-127.1951-104.2232,127.0692zm17.0558-77.2233 64.1954-78.1674-37.0068-44.8739-27.1886,123.0412zm137.4537-167.5375-11.8321-53.8109h-76.7198l-11.8321,53.7479 50.1605,61.4891 50.2235-61.4262zm9.8181,44.4962-37.0068,44.8739 64.1954,78.1674-27.1886-123.0412zm-136.5726-201.2086v60.2304h153.062v-60.2304h-153.062z"/>
</svg>
