<svg xmlns="http://www.w3.org/2000/svg" viewBox="0 0 580 580">
<path fill="#111" stroke="#eee" stroke-width="3.408" d="m66.275,1.768c-41.335,0-64.571,21.371-64.571,65.036v450.123c0,40.844 20.894,62.229 62.192,62.229h452.024c41.307,0 62.229-20.316 62.229-62.229v-450.123c0-42.601-20.922-65.036-63.522-65.036-.003,0-448.494-.143-448.352,0z"/>
<g display="block" stroke="#fff" stroke-linecap="round">
<g>
<path fill="#fff" stroke-width="1.25" d="M 358.45099,388.88488 A 11.516535,11.516535 0 1 1 358.45208,388.75969" transform="matrix(2.12302 0 0 1.76211 -435.4189 -539.85832)"/>
</g>
<g fill="none">
<g fill-rule="evenodd" fill-opacity=".75" stroke-width="19.809">
<path d="m300.5422,162.6026c0,.3065 0,.6131 0,.9196 0,24.3331-16.3327,236.2622-120.4303,375.2152"/>
<path d="m300.2498,162.1428c0,.3065 0,.6131 0,.9196 0,24.333 16.3327,236.2622 120.4303,375.2153"/>
</g>
<g stroke-width="12.499">
<path d="M 659.80826,385.01245 A 377.16653,377.16653 0 0 1 621.99133,977.71708" transform="matrix(.41941 0 0 .37606 150.18538 -103.88221)"/>
<path d="M 559.42058,478.0061 A 240.40767,240.40767 0 0 1 534.50785,872.37959" transform="matrix(.41941 0 0 .37606 149.65944 -103.51218)"/>
<path d="M 485.29511,571.71763 A 120.92362,120.92362 0 0 1 472.76415,770.08514" transform="matrix(.42017 0 0 .34874 149.38752 -87.84677)"/>
<path d="M 659.80826,385.01245 A 377.16653,377.16653 0 0 1 621.99133,977.71708" transform="matrix(-.41941 0 0 .37606 455.72073 -103.66646)"/>
<path d="M 559.42058,478.0061 A 240.40767,240.40767 0 0 1 534.50785,872.37959" transform="matrix(-.41941 0 0 .37606 456.24791 -103.29644)"/>
<path d="M 485.29511,571.71763 A 120.92362,120.92362 0 0 1 472.76415,770.08514" transform="matrix(-.42017 0 0 .34874 456.52906 -87.64671)"/>
</g>
<g fill-rule="evenodd">
<g stroke-width="12.53">
<path d="m325.8484,314.6409l-68.5039,63.4129"/>
<path d="m275.3769,314.6409l68.5039,63.4129"/>
</g>
<g stroke-width="15.422">
<path d="m270.8685,377.8733l107.2311,99.2619"/>
<path d="m330.013,377.8733l-107.2311,99.2619"/>
</g>
</g>
</g>
</g>
</svg>
