<svg xmlns="http://www.w3.org/2000/svg" viewBox="0 0 580 580">
<path fill="#111" stroke="#eee" stroke-width="3.408" d="m66.275,1.768c-41.335,0-64.571,21.371-64.571,65.036v450.123c0,40.844 20.895,62.229 62.192,62.229h452.024c41.307,0 62.229-20.315 62.229-62.229v-450.123c0-42.601-20.922-65.036-63.521-65.036-.004,0-448.495-.143-448.353,0z"/>
<g stroke="#fff" fill-rule="evenodd">
<path opacity=".2" fill="#fff" stroke-width="1.241" d="m286.9441,44.0016l-252.0594,191.9074h50.4116v307.861h151.236 104.2808 147.779v-307.861h50.4119l-252.0598-191.9074z"/>
<path fill="none" stroke-linejoin="round" stroke-width="20" d="m286.9441,34.0016l-252.0594,191.9074h50.4116v317.861h151.236 104.2808 147.779v-317.861h50.4119l-252.0598-191.9074z"/>
</g>
<g fill="#fff" transform="matrix(.72874 .31791 -.31791 .72874 192.27754 -16.74503)">
<path d="m266.3125,331.0625c-4.3776,5.9206-29.8985,10.4688-60.7188,10.4688-30.3947,0-55.6102-4.418-60.5-10.2188v74.25c-.1173,.3117-.1875,.6197-.1875,.9375 0,6.7794 27.1614,12.2812 60.6875,12.2812 33.3135,0 60.3458-5.4362 60.6875-12.1562h.0312v-.125-75.4375z"/>
<path stroke="#000" stroke-linecap="round" stroke-width=".5" d="m266.9841,279.2593c0,6.7794-27.4788,12.2751-61.3757,12.2751-33.8968,0-61.3757-5.4958-61.3757-12.2751 0-6.7794 27.4788-12.2751 61.3757-12.2751 33.8968,0 61.3757,5.4958 61.3757,12.2751z" transform="translate(0 32)"/>
<path d="m266.3125,417.0625c-4.3776,5.9206-29.8985,10.4688-60.7188,10.4688-30.3947,0-55.6102-4.418-60.5-10.2188v8.25c-.1173,.3117-.1875,.6197-.1875,.9375 0,6.7794 27.1614,12.2812 60.6875,12.2812 33.3135,0 60.3458-5.4362 60.6875-12.1562h.0312v-.125-9.4375z"/>
<path d="m266.3125,311.0625c-4.3776,5.9206-29.8985,10.4688-60.7188,10.4688-30.3947,0-55.6102-4.418-60.5-10.2188v8.25c-.1173,.3117-.1875,.6197-.1875,.9375 0,6.7794 27.1614,12.2812 60.6875,12.2812 33.3135,0 60.3458-5.4362 60.6875-12.1562h.0312v-.125-9.4375z"/>
</g>
<g transform="translate(14.71429 4.90476)">
<path fill="#fff" d="m437.3016,367.1032c0,8.6861-8.4154,15.7275-18.7963,15.7275-10.3809,0-18.7963-7.0414-18.7963-15.7275 0-8.6861 8.4154-15.7275 18.7963-15.7275 10.3809,0 18.7963,7.0414 18.7963,15.7275z" transform="matrix(.72142 -.57837 .51147 .81577 -63.84038 365.49477)"/>
<path fill="none" stroke="#fff" stroke-linejoin="round" stroke-linecap="round" stroke-width="35.8" d="m422.7249,421.1905-192.5661-97.4339"/>
</g>
<g fill="#fff" transform="matrix(1.73673 0 0 1.73673 -173.92643 -301.91227)">
<path stroke="#000" stroke-linecap="round" stroke-width=".5" d="m266.9841,279.2593c0,6.7794-27.4788,12.2751-61.3757,12.2751-33.8968,0-61.3757-5.4958-61.3757-12.2751 0-6.7794 27.4788-12.2751 61.3757-12.2751 33.8968,0 61.3757,5.4958 61.3757,12.2751z" transform="matrix(.79506 -.0038 .0038 .79506 51.76169 201.63857)"/>
<path d="m264.5556,422.4983c-3.458,4.7239-23.7313,8.4368-48.2352,8.5539-24.1656,.1154-44.2301-3.3014-48.1399-7.8947l.0313,6.5592c-.0921,.2483-.1467,.4934-.1455,.7461 .0258,5.39 21.6416,9.6612 48.2968,9.5338 26.4862-.1265 47.9578-4.5513 48.204-9.8954l.0248-.0001-.0005-.0994-.0358-7.5034z"/>
</g>
</svg>
