<svg xmlns="http://www.w3.org/2000/svg" viewBox="0 0 580 580">
<path fill="#111" stroke="#eee" stroke-width="3.408" d="m66.275,1.768c-41.335,0-64.571,21.371-64.571,65.036v450.123c0,40.844 20.895,62.229 62.192,62.229h452.024c41.307,0 62.229-20.315 62.229-62.229v-450.123c0-42.601-20.922-65.036-63.521-65.036-.004,0-448.495-.143-448.353,0z"/>
<g fill="#fff">
<path opacity=".6" d="m383.5979,119.6825a95.1323,95.1323 0 1,1 -190.2645,0 95.1323,95.1323 0 1,1 190.2645,0z" transform="matrix(.91935 0 0 .91935 29.26336 9.65182)"/>
<path opacity=".2" d="m383.5979,119.6825a95.1323,95.1323 0 1,1 -190.2645,0 95.1323,95.1323 0 1,1 190.2645,0z" transform="matrix(.91935 0 0 .91935 29.26336 181.65182)"/>
<path opacity=".3" d="m383.5979,119.6825a95.1323,95.1323 0 1,1 -190.2645,0 95.1323,95.1323 0 1,1 190.2645,0z" transform="matrix(.91935 0 0 .91935 29.26336 351.65182)"/>
<path line-height="normal" color="#000" d="m296.0919,17.83c-1.1544-.0124-2.3157,.0005-3.4701,.0297-49.7309-.086-95.369,42.4616-97.8743,92.2984-1.5871,25.6145 .1686,51.293-.5042,76.9351 .2125,95.8555-.6368,191.7279 .5042,287.5724 4.1478,45.8032 43.3925,85.5547 89.3325,89.6291 43.4174,4.8693 88.303-21.282 103.9247-62.2836 8.2602-19.9307 8.13-41.8694 7.4147-63.0844-.2736-110.329 .6241-220.675-.5339-330.993-4.1159-45.5013-42.811-85.0766-88.4428-89.4512-3.441-.3925-6.8878-.6155-10.3509-.6525zm-.0297,24.9728c42.6265,0 77.202,34.5755 77.202,77.202 0,42.6265-34.5755,77.1724-77.202,77.1724-42.6265,0-77.1724-34.5459-77.1724-77.1724 0-42.6265 34.5459-77.202 77.1724-77.202zm0,170.8351c42.6265,0 77.202,34.5755 77.202,77.202 0,42.6265-34.5755,77.1724-77.202,77.1724-42.6265,0-77.1724-34.5459-77.1724-77.1724 0-42.6265 34.5459-77.202 77.1724-77.202zm0,170.8351c42.6265,0 77.202,34.5755 77.202,77.202 0,42.6265-34.5755,77.1724-77.202,77.1724-42.6265,0-77.1724-34.5459-77.1724-77.1724 0-42.6265 34.5459-77.202 77.1724-77.202z"/>
</g>
<path fill="none" stroke="#fff" line-height="normal" color="#000" stroke-width="8" d="m296.0919,17.83c-1.1544-.0124-2.3157,.0005-3.4701,.0297-49.7309-.086-95.369,42.4616-97.8743,92.2984-1.5871,25.6145 .1686,51.293-.5042,76.9351 .2125,95.8555-.6368,191.7279 .5042,287.5724 4.1478,45.8032 43.3925,85.5547 89.3325,89.6291 43.4174,4.8693 88.303-21.282 103.9247-62.2836 8.2602-19.9307 8.13-41.8694 7.4147-63.0844-.2736-110.329 .6241-220.675-.5339-330.993-4.1159-45.5013-42.811-85.0766-88.4428-89.4512-3.441-.3925-6.8878-.6155-10.3509-.6525zm-.0297,24.9728c42.6265,0 77.202,34.5755 77.202,77.202 0,42.6265-34.5755,77.1724-77.202,77.1724-42.6265,0-77.1724-34.5459-77.1724-77.1724 0-42.6265 34.5459-77.202 77.1724-77.202zm0,170.8351c42.6265,0 77.202,34.5755 77.202,77.202 0,42.6265-34.5755,77.1724-77.202,77.1724-42.6265,0-77.1724-34.5459-77.1724-77.1724 0-42.6265 34.5459-77.202 77.1724-77.202zm0,170.8351c42.6265,0 77.202,34.5755 77.202,77.202 0,42.6265-34.5755,77.1724-77.202,77.1724-42.6265,0-77.1724-34.5459-77.1724-77.1724 0-42.6265 34.5459-77.202 77.1724-77.202z"/>
</svg>
