<svg xmlns="http://www.w3.org/2000/svg" viewBox="0 0 580 580">
<path fill="#111" stroke="#eee" stroke-width="3.408" d="m66.275,1.768c-41.335,0-64.571,21.371-64.571,65.036v450.123c0,40.844 20.895,62.229 62.192,62.229h452.024c41.307,0 62.229-20.315 62.229-62.229v-450.123c0-42.601-20.922-65.036-63.521-65.036-.004,0-448.495-.143-448.353,0z"/>
<g fill="#fff" transform="matrix(2.31481 0 0 2.31481 -1721.49582 -61.97703)">
<path stroke="#fff" fill-rule="evenodd" stroke-width="9.068" d="m80.5,104.9062c-10.0526,0-15.0105,8.2259-19.125,16.6562-16.7803,40.3352-33.6956,69.8315-39.8438,124.6875-1.2691,38.6359-3.1891,76.9475-2.6875,116.4688 .0002,23.3715 27.2515,59.25 50.0938,59.25h435.5625v-43.6875c-.8727-.2128-1.7275-.4451-2.5938-.6875v-39.4375l2.5938,.5v-12.2188c-90.1349-28.7121-166.1594-87.0705-208.0938-190.2812-7.2585-18.6056-21.5452-29.971-40.4375-31.25h-175.4688zm-1.4062,25.9375h169.5625c11.0361,0 20.7549,41.6185 28.7188,62.9062 2.5347,6.9181 .5442,18-4.8125,18h-220.5938c-5.0752,.0001-7.1614-9.0663-5.0312-17.4688 10.7236-21.1402 22.9668-63.4375 32.1562-63.4375zm236.2188,91.4688c12.4076,12.0284 25.7462,28.5494 37.25,36.0938v73.2812l-33.5625-15.375c-3.1906-30.9344-3.4971-62.4655-3.6875-94zm56.4375,53.1875c13.8755,11.7837 19.5693,14.1071 31.5625,22.875l.5,56.4062-32.0625-13.4375c-.7437-30.9344 .1904-34.3092 0-65.8438zm-300.8438,21.4688c.3434-.0174 .6835,0 1.0312,0 11.1276,.0001 20.1562,8.9976 20.1562,20.125 .0002,11.1275-9.0289,20.1562-20.1562,20.1562-11.1272,.0001-20.1562-9.0288-20.1562-20.1562 .0001-10.7796 8.4786-19.5868 19.125-20.125zm166.375,0c.3434-.0174 .6835,0 1.0312,0 11.1276,.0001 20.1562,8.9976 20.1562,20.125 .0002,11.1275-9.0289,20.1562-20.1562,20.1562-11.1271,.0001-20.1562-9.0288-20.1562-20.1562 .0002-10.7796 8.4786-19.5868 19.125-20.125zm182.5938,11.4375l31.3438,12.7812v46.375c-11.4942-1.2553-22.1533-3.9024-31.3438-8.8438v-50.3125zm44.3125,19.0312l24.9062,6.4062v42.0312c-8.4925-.3802-16.8718-1.3402-24.9062-4.4688v-43.9688z" transform="matrix(.47639 0 0 .47639 745.66673 13.2617)"/>
<path fill-rule="evenodd" d="m216.125,432.2812v20.7812h-92.375v-20.7188h-63.0312v20.9688h-41.8438l-.0625,29.5h294.4688c41.4366-18.6633 113.8298-42.1939 191.2188-45.449v-5.0822h-288.375z" transform="matrix(.47639 0 0 .47639 745.66673 13.2617)"/>
</g>
</svg>
