<svg xmlns="http://www.w3.org/2000/svg" viewBox="0 0 580 580">
<path fill="#111" stroke="#eee" stroke-width="3.408" d="m66.275,1.768c-41.335,0-64.571,21.371-64.571,65.036v450.123c0,40.844 20.894,62.229 62.192,62.229h452.024c41.307,0 62.229-20.316 62.229-62.229v-450.123c0-42.601-20.922-65.036-63.522-65.036-.003,0-448.494-.143-448.352,0z"/>
<g transform="matrix(1.23171 0 0 1.23171 -81.36013 -113.23274)">
<path fill="#fff" d="m295.5625,77.1875l-82.5312,.0625c-38.4387,0-66.7188,30.868-66.7188,64.5v238.2188c0,32.5826 25.4911,59.307 51.125,63.4375l-76.875,115.3125h44.375l54.9688-80.5938h75.2812 .0625 .0625 75.2812l54.9688,80.5938h44.375l-76.875-115.3125c25.6339-4.1305 51.1562-30.8548 51.1562-63.4375v-238.2188c0-33.632-28.3114-64.5-66.75-64.5l-81.9062-.0625zm-32.6875,13.8125h32.3125 .0625 .0625 32.3125c5.8482,0 10.9375,4.9018 10.9375,10.75v18.9375c0,5.8482-4.8108,10.875-10.9375,10.875h-32.3125-.0625-.0625-32.3125c-6.1266,0-10.9375-5.0268-10.9375-10.875v-18.9375c0-5.8482 5.0893-10.75 10.9375-10.75zm-47.625,53.4062h79.9375 .125 79.9375c21.7218,0 33.25,15.552 33.25,33.375v42.875c.1693,20.6078-14.87,33.25-33.25,33.25h-79.9375-.0625-.0625-79.9375c-18.38,0-33.4193-12.6422-33.25-33.25v-42.875c0-17.823 11.5282-33.375 33.25-33.375zm-3.625,205.75c16.1577,0 29.2812,13.0923 29.2812,29.25 0,16.1565-13.1236,29.25-29.2812,29.25-16.1577,0-29.25-13.0935-29.25-29.25 0-16.1577 13.0923-29.25 29.25-29.25zm166.5625,0c16.1576,0 29.25,13.0923 29.25,29.25 0,16.1565-13.0923,29.25-29.25,29.25-16.1577,0-29.25-13.0935-29.25-29.25 0-16.1577 13.0924-29.25 29.25-29.25z" transform="matrix(.89772 0 0 .89772 40.71058 46.77713)"/>
</g>
</svg>
