<svg xmlns="http://www.w3.org/2000/svg" viewBox="0 0 580 580">
<path fill="#111" stroke="#eee" stroke-width="3.408" d="m66.275,1.768c-41.335,0-64.571,21.371-64.571,65.036v450.123c0,40.844 20.895,62.229 62.192,62.229h452.024c41.307,0 62.229-20.315 62.229-62.229v-450.123c0-42.601-20.922-65.036-63.521-65.036-.004,0-448.495-.143-448.353,0z"/>
<g fill="#fff" transform="translate(68.79978 58.55231)">
<path fill="none" stroke="#fff" fill-rule="evenodd" stroke-width="10.203" d="m139.9129,59.4014l124.3645-81.9177 121.658,81.8517-121.5736,81.8886-124.4489-81.8226z"/>
<path fill-rule="evenodd" d="m91.6184,433.1908c.4328,67.5696 97.215,67.5709 97.215,.6076"/>
<path fill-rule="evenodd" d="m292.1243,433.171c.4328,67.5696 97.215,67.5709 97.215,.6076"/>
<path fill-rule="evenodd" d="m199.3143,464.0262h81.4175c-4.1439-7.1774-6.0343-14.7861-5.7721-30.3797h-68.5062c-.485,15.8109-2.9638,23.1477-7.1392,30.3797z"/>
<path fill-rule="evenodd" d="m62.9718,146.4767l.2733,30.7897h376.9922v-30.7897h-377.2655z"/>
<path fill-rule="evenodd" d="m411.6338,175.8545c7.5829,5.3535 14.575,9.878 14.575,14.4839l-.0911,102.3896c-1.775,10.0583-8.9163,11.7402-14.4839,17.3079h28.6035v-134.1814h-28.6035z"/>
<path fill-rule="evenodd" d="m201.9466,176.1718c7.5829,5.3534 14.5799,9.882 14.5799,14.4879l-.0886,188.1665c-1.775,10.0583-8.9237,11.7229-14.4914,17.2905l34.5935-.2646 .4315-205.5834c0-4.0684 7.2037-8.8315 14.6384-14.0811l-49.6635-.0159z"/>
<path fill-rule="evenodd" d="m155.7227,175.9989c-7.5829,5.3535-14.5799,9.882-14.5799,14.4879l.0886,188.1665c1.775,10.0583 8.9238,11.7229 14.4914,17.2905l-34.5936-.0054 .2125-219.8216 34.381-.1179z"/>
<path fill-rule="evenodd" d="m62.9214,175.6267l-65.952,131.2664v79.6161c0,14.3792 16.9794,29.3271 29.9244,29.2867h413.3436v-106.3521h-204.6474v86.3115h-113.503v-86.1748h-57.1159c-12.9493,0-34.8033-15.5607-26.9638-44.8182l43.8617-89.1354h-18.9475z"/>
<path fill-rule="evenodd" d="m237.676,292.8263c1.775,10.0583 9.1363,11.2978 14.7039,16.8654-11.4327-.0212-30.0277-.1476-30.0689-1.2045l-.6023-15.4685 15.9672-.1924z"/>
<path fill-rule="evenodd" d="m369.4936,147.1242l-10.4118-10.9197h-192.7448l-8.8881,10.6657 212.0447,.2539z"/>
</g>
</svg>
