<svg xmlns="http://www.w3.org/2000/svg" viewBox="0 0 580 580">
<path fill="#111" stroke="#eee" stroke-width="3.408" d="m66.275,1.768c-41.335,0-64.571,21.371-64.571,65.036v450.123c0,40.844 20.894,62.229 62.192,62.229h452.024c41.307,0 62.229-20.316 62.229-62.229v-450.123c0-42.601-20.922-65.036-63.522-65.036-.003,0-448.494-.143-448.352,0z"/>
<g fill="none" stroke="#fff" stroke-linecap="round" stroke-width="20" transform="translate(2 -6)">
<path d="m436.5384,435.4368c-.247,.005-40.227,.008-40.4753,.008-19.5539,0-35.4055-15.8516-35.4055-35.4055 0-19.5539 15.8516-35.4055 35.4055-35.4055 .2482,0 .4959,.003 .7429,.008m0-.5754c-.247,.005-.4947,.008-.7429,.008-19.5539,0-35.4055-15.8516-35.4055-35.4055 0-19.5539 15.8516-35.4055 35.4055-35.4055 .2482,0 .4959,.003 .7429,.008m0-1.3111c-.247,.005-.4947,.008-.7429,.008-19.5539,0-35.4055-15.8516-35.4055-35.4055 0-19.5539 15.8516-35.4055 35.4055-35.4055 .2482,0 .4959,.003 .7429,.008m0-.5754c-.247,.005-.4947,.008-.7429,.008-19.5539,0-35.4055-15.8516-35.4055-35.4055 0-19.5539 15.8516-35.4055 35.4055-35.4055 .2482,0 40.2282,.003 40.4753,.008"/>
<path d="m133.5009,435.4368c.247,.005 40.227,.008 40.4753,.008 19.5539,0 35.4055-15.8516 35.4055-35.4055 0-19.5539-15.8516-35.4055-35.4055-35.4055-.2483,0-.4959,.003-.743,.008m0-.5754c.247,.005 .4947,.008 .743,.008 19.5539,0 35.4055-15.8516 35.4055-35.4055 0-19.5539-15.8516-35.4055-35.4055-35.4055-.2483,0-.4959,.003-.743,.008m0-1.3111c.247,.005 .4947,.008 .743,.008 19.5539,0 35.4055-15.8516 35.4055-35.4055 0-19.5539-15.8516-35.4055-35.4055-35.4055-.2483,0-.4959,.003-.743,.008m0-.5754c.247,.005 .4947,.008 .743,.008 19.5539,0 35.4055-15.8516 35.4055-35.4055 0-19.5539-15.8516-35.4055-35.4055-35.4055-.2483,0-40.2282,.003-40.4753,.008"/>
<path d="m313.5048,153.1422 0,280.9499"/>
<path d="m259.4313,153.1422 0,280.9499"/>
</g>
</svg>
