<svg xmlns="http://www.w3.org/2000/svg" viewBox="0 0 580 580">
<path fill="#111" stroke="#eee" stroke-width="3.408" d="m66.275,1.768c-41.335,0-64.571,21.371-64.571,65.036v450.123c0,40.844 20.895,62.229 62.192,62.229h452.024c41.307,0 62.229-20.315 62.229-62.229v-450.123c0-42.601-20.922-65.036-63.521-65.036-.004,0-448.495-.143-448.353,0z"/>
<g stroke="#fff" stroke-linecap="round">
<path opacity=".2" fill="#fff" stroke-linejoin="round" stroke-width="12.779" d="m292.9364,126.6051c-138.9225,0-251.5354,38.0229-251.5354,84.9369 0,37.9578 73.7477,70.081 175.4779,80.9702h-25.4738l-83.4084,195.9661h373.482l-75.184-195.9661h-37.2645c101.7302-10.8892 175.4415-43.0125 175.4415-80.9702 0-46.914-112.6129-84.9369-251.5353-84.9369z"/>
<path fill="none" stroke-width="23.29" d="m99.1186,502.6317 85.9163-213.5272"/>
</g>
<path fill="#fff" line-height="normal" color="#000" d="m287.75,307.5312 12.8438,0-2-33.5938-8.8438,0-2,33.5938zm-4,95.4688 20.8438,0-2-53.75-16.8438,0-2,53.75zm-4,101.4688 28.8438,0-2-55.75-24.8438,0-2,55.75z"/>
<g fill="none" stroke="#fff" stroke-linecap="round">
<path stroke-linejoin="round" stroke-width="18.632" d="m186.8294,288.5769c-85.8925-13.5151-145.4266-42.9292-145.4266-77.039 0-46.9139 112.6189-84.9452 251.5414-84.9452 138.9225,0 251.5414,38.0313 251.5414,84.9452 0,33.4575-57.279,62.3973-140.5283,76.2463"/>
<path stroke-width="23.29" d="m494.1379,502.6317-85.9163-213.5272"/>
</g>
</svg>
