<svg xmlns="http://www.w3.org/2000/svg" viewBox="0 0 580 580">
<path fill="#111" stroke="#eee" stroke-width="3.408" d="m66.275,1.768c-41.335,0-64.571,21.371-64.571,65.036v450.123c0,40.844 20.895,62.229 62.192,62.229h452.024c41.307,0 62.229-20.315 62.229-62.229v-450.123c0-42.601-20.922-65.036-63.521-65.036-.004,0-448.495-.143-448.353,0z"/>
<g fill="#fff" fill-rule="evenodd">
<g stroke="#fff" stroke-linejoin="round" stroke-linecap="round" stroke-width="10">
<path d="m272.8868,135.4909l-248.332,124.7162 309.486,4.1502 225.4596-117.5525-286.6136-11.3139z"/>
<path d="m127.2667,365.3754l26.8331-79.2819 186.9935,5.3324 124.5035-67.7787 49.8095,57.8362c0,0-62.8837,6.9314-90.2853,23.9543-27.4016,17.0229-62.9448,58.0061-62.9448,58.0061 0,0-77.3838-26.8058-113.1666-27.4077-68.3187-1.1491-117.5008,28.4224-121.7428,29.3393z"/>
</g>
<g>
<path d="m134.25,280.0938l-30.0312,.4375c-4.1904,6.9846-7.2088,15.7545-10.4375,26.1875-4.6526,15.0338-8.5899,33.048-10.9062,51-8.7287,67.6477-8.75,98.9375-8.75,98.9375h20c0,0-.0372-29.4853 8.5938-96.375 2.1652-16.7803 5.9053-33.9203 10.1562-47.6562 4.2509-13.736 10.1775-24.5217 11.6875-26 3.5373-3.4632 6.616-5.2016 8.625-6.0938 .4479-.1989 .7807-.3236 1.0625-.4375z"/>
</g>
</g>
<g stroke="#fff" stroke-linejoin="round">
<g>
<path fill="#fff" stroke-width="15.475" d="m106.4637,433.2487c0,13.1068-14.6374,47.7442-27.7442,47.7442-13.1068,0-19.7442-34.6374-19.7442-47.7442 0-13.1068 10.6374-23.7442 23.7442-23.7442 13.1068,0 23.7442,10.6374 23.7442,23.7442z"/>
</g>
<g fill="none" fill-rule="evenodd" stroke-linecap="round" stroke-width="10">
<path d="m81.9497,438.1516l-12.7354,54.6386 12.7354-54.6386z"/>
<path d="m106.4128,437.8728l-17.7939,58.593 17.7939-58.593z"/>
<path d="m56.0795,432.5024l-4.286,53.2226 4.286-53.2226z"/>
<path d="m65.6827,436.6109l-4.286,53.2226 4.286-53.2226z"/>
<path d="m91.9497,440.1516l-12.7354,54.6386 12.7354-54.6386z"/>
</g>
</g>
</svg>
