<svg xmlns="http://www.w3.org/2000/svg" viewBox="0 0 580 580">
<path fill="#111" stroke="#eee" stroke-width="3.408" d="m66.275,1.768c-41.335,0-64.571,21.371-64.571,65.036v450.123c0,40.844 20.894,62.229 62.192,62.229h452.024c41.307,0 62.229-20.316 62.229-62.229v-450.123c0-42.601-20.922-65.036-63.522-65.036-.003,0-448.494-.143-448.352,0z"/>
<g fill="#fff">
<g>
<path opacity=".75" line-height="normal" color="#000" d="m347.1562,40.3125c-10.6943,.2593-17.3732,11.1777-15.5,21.25 0,12.6146 0,45.2292 0,57.8438 12.5318-.0607 25.0629-.1875 37.5938-.3438 .1846-14.6962-.4786-29.5006 .3438-44.0938 1.243-5.6633 9.1928-5.9684 12.0238-1.2126 34.2677,27.344 68.267,55.1304 102.4415,82.4735 4.9968,2.5586 11.192,9.008 6.6597,14.7704-35.696,28.9416-71.4973,57.8111-107.1759,86.7384-3.4913,4.2555-10.4969,8.4613-15.1991,3.3866-1.9752-15.8257-.636-31.7974-.9062-47.6875-11.9271,0-23.8542,0-35.7812,0 .1256,109.8721-.2508,199.7672 .1875,309.625 1.2624,9.8677 11.7419,15.4562 21.125,13.7812 57.7965-.1914 115.6363,.3803 173.4062-.2812 9.5459-1.6654 14.7128-11.8665 13.125-21.0312-.0625-153.551 .1251-307.1105-.0937-460.6562-.7557-10.262-11.4963-16.3208-21.2188-14.5938-57.0102,.0209-114.0222-.0418-171.0312,.0312z"/>
</g>
<g stroke="#fff" stroke-linejoin="round" stroke-linecap="round" stroke-width="10">
<path d="m389.2188,136.7812c-1.9275,4.4223-11.8154,.9391-16.968,2.1533-29.6565,.3031-59.313,.6062-88.9695,.9092 0,17.8646 0,35.7292 0,53.5938 34.6979,0 69.3958,0 104.0938,0 0,11.8229 0,23.6458 0,35.4688 25.7604-20.8646 51.5208-41.7292 77.2812-62.5938-25.1458-20.2604-50.2917-40.5208-75.4375-60.7812 0,10.4167 0,20.8333 0,31.25z"/>
<path d="m181.8125,392.625c-29.2345,23.5792-58.4806,47.1441-87.7188,70.7188 30.937,25.0527 61.8597,50.1231 92.8125,75.1562 0-14.0104 0-28.0208 0-42.0312 34.6979,0 69.3958,0 104.0938,0 0-21.8333 0-43.6667 0-65.5-35.312-.406-70.6248-.7498-105.9375-1.0938 0-13.2917 0-26.5833 0-39.875-1.0833,.875-2.1667,1.75-3.25,2.625z"/>
</g>
<g>
<path d="m143.9192,52.0072c-62.7724,1.5921-113.2256,53.0429-113.2256,116.1968 0,64.1563 52.0862,116.2425 116.2425,116.2425 64.1563,0 116.2425-52.0862 116.2425-116.2425 0-64.1563-52.0862-116.1968-116.2425-116.1968-1.0025,0-2.0205-.0253-3.0169,0zm1.2342,30.1691c11.7933,.0001 21.1297,1.3372 28.0207,3.9768 6.8908,2.6399 12.6961,7.0282 17.4615,13.1647 4.7652,6.1368 8.045,13.5534 9.8278,22.2611l-39.2655,6.171c-1.9885-7.3364-4.2855-12.1818-6.8566-14.5817-2.5713-2.3997-5.4854-3.611-8.7765-3.6111-3.9769,.0001-7.2224,1.28-9.6907,3.8854-2.4685,2.6056-3.7027,6.3082-3.7026,11.1077-.0001,2.537 .2514,4.994 .7314,7.3594 .4799,2.3656 2.1255,7.9538 4.9368,16.7301h31.1747v24.5924h-27.5636c-.3429,5.8282-1.4171,11.0621-3.1997,15.7245-1.44,3.5655-3.8169,7.2681-7.1766,11.1077 3.8396-.8913 7.1308-1.3256 9.8735-1.3256 3.4968,0 8.045,.6857 13.6675,2.057 7.6793,1.7827 13.8274,2.6513 18.4214,2.6512 3.771,.0001 7.0051-.3085 9.7821-.9599 2.7768-.6513 6.4451-2.0112 10.9706-4.0683l13.9875,30.6262c-6.7882,3.4283-12.7306,5.8281-17.8729,7.1309-5.1426,1.3027-10.6964,1.9198-16.593,1.9198-6.4453,0-13.7819-1.1199-22.0783-3.3826-10.9021-3.0169-17.6901-4.7768-20.2956-5.2567-2.6056-.48-5.3939-.6857-8.4108-.6857-8.8451,0-18.6043,3.0855-29.3006,9.325l-13.3018-29.2092c14.3989-10.3535 21.6212-20.6841 21.6212-31.0376 0-.5485-.0914-2.0798-.2286-4.6168h-21.3926v-24.5924h15.3588c-2.6055-9.0506-4.0911-14.2845-4.4339-15.7245-.4114-2.194-.64-4.9138-.64-8.1365 0-8.5706 2.2969-16.2615 6.8566-23.084 4.5596-6.8222 10.5706-11.7704 18.01-14.856 7.4394-3.0853 17.4615-4.6624 30.0777-4.6625z"/>
</g>
</g>
</svg>
