<svg xmlns="http://www.w3.org/2000/svg" viewBox="0 0 580 580">
<path fill="#111" stroke="#eee" stroke-width="3.408" d="m66.275,1.768c-41.335,0-64.571,21.371-64.571,65.036v450.123c0,40.844 20.895,62.229 62.192,62.229h452.024c41.307,0 62.229-20.315 62.229-62.229v-450.123c0-42.601-20.922-65.036-63.521-65.036-.004,0-448.495-.143-448.353,0z"/>
<g transform="matrix(.93619 -.29851 .29851 .93619 -34.08412 65.02755)">
<path fill="none" stroke="#fff" stroke-linejoin="round" stroke-linecap="round" stroke-width="5" d="m-358.043-243.77a17.9021,17.9021 0 1,1 -35.8043,0 17.9021,17.9021 0 1,1 35.8043,0z" transform="matrix(8.51159 0 0 8.51159 3450.3213 2339.7823)"/>
<path fill="#fff" stroke="#fff" fill-rule="evenodd" stroke-width="5.326" d="m234.5402,54.5515l17.3342,218.1216 11.5561-200.7874-28.8903-17.3342z"/>
</g>
<g fill="#fff" stroke="#fff" stroke-linejoin="round" stroke-linecap="round" stroke-width="1.878" transform="matrix(4.98567 -1.58971 1.58971 4.98567 2540.54555 858.27854)">
<path stroke-width="6.357" d="m-358.043-243.77a17.9021,17.9021 0 1,1 -35.8043,0 17.9021,17.9021 0 1,1 35.8043,0z" transform="matrix(.29537 0 0 .29537 -264.631 -172.14025)"/>
<path fill-rule="evenodd" d="m-378.6576-283.643l3.2549,40.958 2.1699-37.703-5.4249-3.2549z"/>
<path fill-rule="evenodd" d="m-343.2239-266.513l-33.6132,23.6284 33.5688-17.3021 .0444-6.3263z"/>
<path fill-rule="evenodd" d="m-339.8935-227.4299l-37.5018-16.7857 32.044,19.9852 5.4578-3.1994z"/>
<path fill-rule="evenodd" d="m-372.7736-204.4737l-3.7297-40.9175-1.7326,37.7256 5.4623,3.1918z"/>
<path fill-rule="evenodd" d="m-409.0282-222.1059l33.9938-23.0775-33.8463,16.7527-.1475,6.3247z"/>
<path fill-rule="evenodd" d="m-411.4875-261.716l36.9868,17.8921-31.4363-20.928-5.5504,3.0359z"/>
</g>
<g transform="matrix(.99561 -.09362 .09362 .99561 -106.42581 36.27866)">
<path fill="#fff" fill-rule="evenodd" d="m594.3548,424.1649c-4.0727,1.2435-9.3325,1.005-16.2319-.4705-7.0122-1.596-13.404-9.0364-25.0543-8.6249-11.9336,.4141-28.7886,11.1042-45.0744,11.1042-16.5165-.3512-35.0663-11.5772-51.92-11.5772-16.7973,.1192-32.0678,11.7528-48.1856,12.1079-16.4012,.0577-32.7459-10.8658-48.8074-11.1016-16.2884-.4128-31.7281,9.6876-46.9422,9.5671-14.9872-.2936-28.2784-11.0452-43.1528-10.5734-15.2705,.5935-32.0114,12.4041-46.9422,13.113-15.0436,.2371-28.6745-10.9837-41.9644-11.1042-13.4027-.2359-28.4476,8.2096-37.4968,10.1004-9.0492,1.7152-14.7616,1.8922-16.9101,.532v31.3037c2.1485,1.3576 7.8609,1.182 16.9101-.532 9.0492-1.8909 24.0928-10.3363 37.4968-10.1004 13.2912,.1192 26.9208,11.3401 41.9644,11.1016 14.9308-.5884 31.6717-12.6976 46.9422-13.1117 14.8744-.5897 28.1643,10.3953 43.1528,10.6312 15.2141,.1205 30.6538-9.9197 46.9422-9.6248 16.0614,.2346 32.4062,11.1593 48.8074,11.1029 16.1178-.3551 31.3884-11.9913 48.1856-12.1092 16.8537-.0564 35.4034,11.3413 51.92,11.6388 16.2858,0 33.1421-10.694 45.0744-11.1055 11.6503-.5333 18.0421,7.0276 25.0543,8.5634 6.8994,1.4768 12.1592,1.7127 16.2319,.4717v-31.3025z"/>
<path fill="#fff" fill-rule="evenodd" d="m594.3548,476.5553c-4.0727,1.1204-9.3325,.9448-16.2319-.532-7.0122-1.5345-13.404-9.0979-25.0543-8.5659-11.9336,.4128-28.7886,11.1029-45.0744,11.1029-16.5165-.3525-35.0663-11.5747-51.92-11.5747-16.7973,.1192-32.0678,11.7541-48.1856,12.1067-16.4012,.0603-32.7459-10.8657-48.8074-11.1029-16.2884-.4141-31.7281,9.6864-46.9422,9.5684-14.9872-.2948-28.2784-11.0452-43.1528-10.5722-15.2705,.5897-32.0114,12.4015-46.9422,13.113-15.0436,.2346-28.6745-10.9875-41.9644-11.1055-13.4027-.2346-28.4476,8.2096-37.4968,10.1004-9.0492,1.8332-14.7616,1.7716-16.9101,.473v31.3025c2.1485,1.2986 7.8609,1.3601 16.9101-.473 9.0492-1.8921 24.0928-10.335 37.4968-10.1004 13.2912,.1179 26.9208,11.3401 41.9644,11.1055 14.9308-.7115 31.6717-12.5233 46.9422-13.113 14.8744-.473 28.1643,10.2773 43.1528,10.5722 15.2141,.1179 30.6538-9.9825 46.9422-9.5684 16.0614,.2372 32.4062,11.1632 48.8074,11.1029 16.1178-.3525 31.3884-11.9913 48.1856-12.1067 16.8537,0 35.4034,11.2221 51.92,11.5747 16.2858,0 33.1421-10.6901 45.0744-11.1029 11.6503-.4141 18.0421,7.0263 25.0543,8.6236 6.8994,1.4768 12.1592,1.714 16.2319,.4743v-31.3025z"/>
</g>
</svg>
