<svg xmlns="http://www.w3.org/2000/svg" viewBox="0 0 580 580">
<path fill="#111" stroke="#eee" stroke-width="3.408" d="m66.275,1.768c-41.335,0-64.571,21.371-64.571,65.036v450.123c0,40.844 20.895,62.229 62.192,62.229h452.024c41.307,0 62.229-20.315 62.229-62.229v-450.123c0-42.601-20.922-65.036-63.521-65.036-.004,0-448.495-.143-448.353,0z"/>
<g fill="#fff">
<g fill-rule="evenodd">
<path d="m105,138.5625c-22.5444,.4856-43.5756,15.118-65.3125,15-.2098-.005-.4153-.0237-.625-.0312v43.625c22.2404-.135 43.7565-15.4736 66.9375-15 23.4484,.6402 48.8153,16.9134 71.7812,18.0312 22.6584,.6186 46.5392-13.6289 63.1562-13.75 16.2247-.1336 24.8359,10.4801 34.5312,12.9688 9.543,2.3168 16.8491,2.82 22.5625,1.25l.125-30.7188c3.8437,2.0225 22.0824,3.9946-9.7812-15.2188-13.9689-9.8758-30.0521-12.1102-46.2812-11.8125-16.6188,.1209-40.4354,14.3686-63.0938,13.75-22.966-1.1179-48.3641-17.4536-71.8125-18.0938-.7305-.0148-1.4603-.0157-2.1875,0z"/>
<path d="m272.8134,203.2634c5.4828,17.6684 1.7334,42.6201 8.4271,62.4619 7.2779,19.4899 11.4483,27.6047 18.7089,47.5966 .3876,1.0903 8.1791,19.818 8.4749,20.9241 29.0411-.2218 57.0508,23.6139 40.493-25.1136-7.2606-19.9919-18.9056-37.1829-26.1835-56.6728-6.6936-19.8418 2.3942-42.6596-3.0881-60.3263-9.2574-32.801-33.0973-33.9139-41.3947-35.8364-32.8161-7.6036-56.3131-17.8826-39.0318,16.1808 3.8898,7.6673 17.6506,13.1477 33.5941,30.7858z"/>
</g>
<g>
<path opacity=".75" stroke="#fff" stroke-linejoin="round" stroke-linecap="round" stroke-width="11.041" d="m140.5316,233.875c-20.6718-.0322-74.8673,.7038-101.4691,1.4375v241.3125h237.4314c-15.6719-245.584-7.6964-269.5513-135.9623-242.75z"/>
</g>
<g fill-rule="evenodd">
<path d="m371,320.0312c-21.1651,.4715-41.7018,12.2935-61.5625,11.5938-.8101-.038-1.5729-.0763-2.375-.1562v43.7188c.4034,.0285 .8133,.0451 1.2188,.0625 21.1627,.7456 43.0055-12.6227 65.6562-11.5938 22.3373,.9365 44.7102,16.768 67.5312,17.3125 22.4382,.1182 44.0631-15.474 67.4375-15 10.9238,.2617 22.2691,3.9871 33.5938,8v-44.0312c-10.917-3.8179-21.8466-7.2751-32.375-7.5625-23.3745-.4722-45.0619,15.1807-67.5,15.0625-22.8211-.5427-45.1628-16.3742-67.5-17.3125-.7077-.0373-1.3876-.0842-2.0938-.0938-.6841-.0092-1.3485-.0152-2.0312,0z"/>
<path d="m378.6562,408.4375c-21.8913-.2955-43.0924,12.3473-63.5938,11.625-.8101-.038-1.6042-.1075-2.4062-.1875v43.7188c.4034,.0285 .8133,.0763 1.2188,.0938 21.1627,.7456 43.0368-12.654 65.6875-11.625 22.3373,.9365 44.679,16.768 67.5,17.3125 22.4382,.1182 44.0943-15.474 67.4688-15 9.1153,.2183 18.5235,2.8655 27.9688,6.0625v-44c-9.0369-2.9913-18.0265-5.4181-26.75-5.6562-23.3745-.4722-45.0619,15.1807-67.5,15.0625-22.8211-.5427-45.1628-16.3742-67.5-17.3125-.7077-.0373-1.3876-.0842-2.0938-.0938z"/>
</g>
</g>
</svg>
