<svg xmlns="http://www.w3.org/2000/svg" viewBox="0 0 580 580">
<path fill="#111" stroke="#eee" stroke-width="3.408" d="m66.275,1.768c-41.335,0-64.571,21.371-64.571,65.036v450.123c0,40.844 20.894,62.229 62.192,62.229h452.024c41.307,0 62.229-20.316 62.229-62.229v-450.123c0-42.601-20.922-65.036-63.522-65.036-.003,0-448.494-.143-448.352,0z"/>
<g fill="#fff" fill-rule="evenodd">
<g>
<path opacity=".5" d="m184.7816,542.0161l55.5507-326.7235 52.3049-31.3186 51.1645,32.1539c0,0 46.8441,331.2008 41.398,328.5445-5.4461-2.6563-199.3288,1.3282-200.418-2.6563z"/>
</g>
<g stroke="#fff" stroke-linejoin="round" stroke-linecap="round" stroke-width="24.6">
<path d="m78.3582,96.8282l60.7129-56.815 147.1239,200.5879-18.7417,18.1314-189.0951-161.9043z"/>
<path d="m506.195,96.8282l-60.7129-56.815-147.1239,200.5879 18.7417,18.1314 189.0951-161.9043z"/>
<path d="m506.195,421.9176l-60.7129,56.815-147.1239-200.5879 18.7417-18.1314 189.0951,161.9043z"/>
<path d="m78.3582,421.9176l60.7129,56.815 147.1239-200.5879-18.7417-18.1314-189.0951,161.9043z"/>
</g>
</g>
</svg>
