<svg xmlns="http://www.w3.org/2000/svg" viewBox="0 0 580 580">
<path fill="#111" stroke="#eee" stroke-width="3.408" d="m66.275,1.768c-41.335,0-64.571,21.371-64.571,65.036v450.123c0,40.844 20.895,62.229 62.192,62.229h452.024c41.307,0 62.229-20.315 62.229-62.229v-450.123c0-42.601-20.922-65.036-63.521-65.036-.004,0-448.495-.143-448.353,0z"/>
<g fill-rule="evenodd" stroke="#fff">
<g fill="#fff">
<path stroke-linejoin="round" stroke-linecap="round" stroke-width="4.258" d="m139.8909,116.7585l-88.8933,191.7594h19.5619l-31.1393,56.5564h23.1548l-36.9945,61.214 92.3532-13.8397v98.2085h21.9572v-393.8985zm.2661,0v393.8985h21.9572v-98.2085l92.4863,13.8397-36.9945-61.214h23.0218l-31.1393-56.5564h19.6949l-89.0264-191.7594z"/>
<path opacity=".351" stroke-width="1.07" d="m372.1814,65.6717l-187.0467,191.9762h37.4091v247.9641h112.2283v-146.3405h77.3838l.0003,146.3405h109.6629v-247.9641h37.4093l-187.0469-191.9762z"/>
</g>
<g>
<path fill="none" stroke-linejoin="round" stroke-linecap="round" stroke-width="10" d="m372.1814,65.6717l-187.0467,191.9762h37.4091v247.9641h112.2283v-146.3405h77.3838l.0003,146.3405h109.6629v-247.9641h37.4093l-187.0469-191.9762z"/>
</g>
</g>
</svg>
