<?xml version="1.0" encoding="iso-8859-1"?>
<!-- Generator: Adobe Illustrator 18.0.0, SVG Export Plug-In . SVG Version: 6.00 Build 0)  -->
<!DOCTYPE svg PUBLIC "-//W3C//DTD SVG 1.1//EN" "http://www.w3.org/Graphics/SVG/1.1/DTD/svg11.dtd">
<svg version="1.1" id="Capa_1" xmlns="http://www.w3.org/2000/svg" xmlns:xlink="http://www.w3.org/1999/xlink" x="0px" y="0px"
	 viewBox="0 0 31.99 31.987" style="enable-background:new 0 0 31.99 31.987;" xml:space="preserve">
<g id="_x35__17_">
	<g>
		<path style="fill-rule:evenodd;clip-rule:evenodd;" d="M31.201,0.803c-1.247-1.25-3.437-0.957-4.69,0.299l-6.376,6.362
			L8.306,3.043C7.174,2.75,6.033,2.372,4.627,3.78c-0.716,0.718-2.207,2.212,0,4.423l8.111,6.641L7.461,20.11l-4.924-1.23
			c-0.731-0.189-1.222-0.041-1.597,0.372c-0.189,0.236-1.56,1.253-0.605,2.21l5.726,4.454l4.453,5.726
			c0.692,0.693,1.335,0.261,2.214-0.574c0.557-0.558,0.437-0.845,0.269-1.659l-1.113-4.889l5.241-5.259l6.63,8.111
			c2.207,2.211,3.698,0.717,4.414,0c1.406-1.409,1.028-2.552,0.736-3.686l-4.383-11.847l6.351-6.373
			C32.127,4.209,32.448,2.052,31.201,0.803z"/>
	</g>
</g>
<g>
</g>
<g>
</g>
<g>
</g>
<g>
</g>
<g>
</g>
<g>
</g>
<g>
</g>
<g>
</g>
<g>
</g>
<g>
</g>
<g>
</g>
<g>
</g>
<g>
</g>
<g>
</g>
<g>
</g>
</svg>
