<?xml version="1.0" encoding="iso-8859-1"?>
<!-- Generator: Adobe Illustrator 18.0.0, SVG Export Plug-In . SVG Version: 6.00 Build 0)  -->
<!DOCTYPE svg PUBLIC "-//W3C//DTD SVG 1.1//EN" "http://www.w3.org/Graphics/SVG/1.1/DTD/svg11.dtd">
<svg version="1.1" id="Capa_1" xmlns="http://www.w3.org/2000/svg" xmlns:xlink="http://www.w3.org/1999/xlink" x="0px" y="0px"
	 viewBox="0 0 32 32" style="enable-background:new 0 0 32 32;" xml:space="preserve">
<g id="_x36__16_">
	<g>
		<path style="fill-rule:evenodd;clip-rule:evenodd;" d="M30,16c0-7.732-6.268-14-14-14C8.268,2,2,8.268,2,16
			c0,5.302,2.949,9.915,7.295,12.291L6,32h3l2.685-2.685C13.045,29.756,14.493,30,16,30c1.507,0,2.955-0.245,4.315-0.685L23,32h3
			l-3.295-3.709C27.051,25.915,30,21.303,30,16z M23,17h-7c-0.552,0-1-0.448-1-1V8c0-0.552,0.448-1,1-1c0.552,0,1,0.448,1,1v7h6
			c0.552,0,1,0.448,1,1C24,16.552,23.552,17,23,17z M2,5c0-1.657,1.343-3,3-3l2,0V0H5C2.239,0,0,2.239,0,5v2h2V5z M27,0h-2l0,2l2,0
			c1.657,0,3,1.343,3,3v2h2V5C32,2.239,29.761,0,27,0z"/>
	</g>
</g>
<g>
</g>
<g>
</g>
<g>
</g>
<g>
</g>
<g>
</g>
<g>
</g>
<g>
</g>
<g>
</g>
<g>
</g>
<g>
</g>
<g>
</g>
<g>
</g>
<g>
</g>
<g>
</g>
<g>
</g>
</svg>
