<?xml version="1.0" encoding="iso-8859-1"?>
<!-- Generator: Adobe Illustrator 18.0.0, SVG Export Plug-In . SVG Version: 6.00 Build 0)  -->
<!DOCTYPE svg PUBLIC "-//W3C//DTD SVG 1.1//EN" "http://www.w3.org/Graphics/SVG/1.1/DTD/svg11.dtd">
<svg version="1.1" id="Capa_1" xmlns="http://www.w3.org/2000/svg" xmlns:xlink="http://www.w3.org/1999/xlink" x="0px" y="0px"
	 viewBox="0 0 32.004 32.018" style="enable-background:new 0 0 32.004 32.018;" xml:space="preserve">
<g id="_x33__1_">
	<g>
		<path style="fill-rule:evenodd;clip-rule:evenodd;" d="M31.004,20.018h-10c-0.552,0-1,0.448-1,1c0,0.552,0.523,0.938,0.95,1.364
			l2.779,2.779c-2.087,1.77-4.779,2.848-7.731,2.848c-5.944,0-10.866-4.327-11.82-10H0.14c0.986,7.89,7.704,14,15.862,14
			c4.057,0,7.755-1.516,10.572-4.007l2.865,2.865c0.539,0.539,1.013,1.151,1.565,1.151c0.552,0,1-0.448,1-1v-10
			C32.004,20.897,32.004,20.018,31.004,20.018z M1,12h10c0.552,0,1-0.448,1-1c0-0.552-0.523-0.938-0.95-1.364L8.271,6.857
			c2.087-1.77,4.779-2.848,7.731-2.848c5.944,0,10.866,4.327,11.82,10h4.042c-0.986-7.89-7.704-14-15.862-14
			c-4.057,0-7.755,1.516-10.572,4.007L2.565,1.151C2.026,0.612,1.552,0,1,0C0.448,0,0,0.448,0,1v10C0,11.121,0,12,1,12z"/>
	</g>
</g>
<g>
</g>
<g>
</g>
<g>
</g>
<g>
</g>
<g>
</g>
<g>
</g>
<g>
</g>
<g>
</g>
<g>
</g>
<g>
</g>
<g>
</g>
<g>
</g>
<g>
</g>
<g>
</g>
<g>
</g>
</svg>
