<?xml version="1.0" encoding="iso-8859-1"?>
<!-- Generator: Adobe Illustrator 18.0.0, SVG Export Plug-In . SVG Version: 6.00 Build 0)  -->
<!DOCTYPE svg PUBLIC "-//W3C//DTD SVG 1.1//EN" "http://www.w3.org/Graphics/SVG/1.1/DTD/svg11.dtd">
<svg version="1.1" id="Capa_1" xmlns="http://www.w3.org/2000/svg" xmlns:xlink="http://www.w3.org/1999/xlink" x="0px" y="0px"
	 viewBox="0 0 32 32" style="enable-background:new 0 0 32 32;" xml:space="preserve">
<g id="_x38__13_">
	<g>
		<path style="fill-rule:evenodd;clip-rule:evenodd;" d="M29.938,14.521C29.966,14.183,30,13.845,30,13.5C30,6.044,23.732,0,16,0
			C8.268,0,2,6.044,2,13.5c0,0.346,0.034,0.683,0.062,1.021C0.838,15.205,0,16.498,0,18v6c0,2.209,1.791,4,4,4c0,0,4.004,0.005,4,0
			c2.125-0.094,4-1.851,4-4v-6c0-2.209-1.791-4-4-4c0,0-3.743,0-4,0C4,7.01,9.373,2,16,2c6.627,0,12.043,4.967,12,12
			c-0.001,0.17-4,0-4,0c-2.209,0-4,1.791-4,4v6c0,2.149,1.875,3.906,4,4c-0.004,0.006,2,0,2,0v3c0,0.552,0.448,1,1,1
			c0.552,0,1-0.448,1-1v-3h0c2.209,0,4-1.791,4-4v-6C32,16.498,31.162,15.205,29.938,14.521z"/>
	</g>
</g>
<g>
</g>
<g>
</g>
<g>
</g>
<g>
</g>
<g>
</g>
<g>
</g>
<g>
</g>
<g>
</g>
<g>
</g>
<g>
</g>
<g>
</g>
<g>
</g>
<g>
</g>
<g>
</g>
<g>
</g>
</svg>
