<?xml version="1.0" encoding="iso-8859-1"?>
<!-- Generator: Adobe Illustrator 18.0.0, SVG Export Plug-In . SVG Version: 6.00 Build 0)  -->
<!DOCTYPE svg PUBLIC "-//W3C//DTD SVG 1.1//EN" "http://www.w3.org/Graphics/SVG/1.1/DTD/svg11.dtd">
<svg version="1.1" id="Capa_1" xmlns="http://www.w3.org/2000/svg" xmlns:xlink="http://www.w3.org/1999/xlink" x="0px" y="0px"
	 viewBox="0 0 32 30" style="enable-background:new 0 0 32 30;" xml:space="preserve">
<g id="_x39__10_">
	<g>
		<path style="fill-rule:evenodd;clip-rule:evenodd;" d="M0,4v22c0,2.209,1.791,4,4,4h2V0H4C1.791,0,0,1.791,0,4z M28,0H8v30h20
			c2.209,0,4-1.791,4-4V4C32,1.791,30.209,0,28,0z M27,16H14.727l3.991,3.299c0.393,0.392,0.393,1.028,0,1.42s-1.031,0.392-1.424,0
			l-5.98-4.942c-0.21-0.209-0.299-0.486-0.285-0.76c-0.014-0.274,0.075-0.551,0.285-0.76l5.98-4.942
			c0.393-0.392,1.031-0.392,1.424,0c0.393,0.392,0.393,1.028,0,1.42L14.764,14H27c0.552,0,1,0.448,1,1C28,15.552,27.552,16,27,16z"
			/>
	</g>
</g>
<g>
</g>
<g>
</g>
<g>
</g>
<g>
</g>
<g>
</g>
<g>
</g>
<g>
</g>
<g>
</g>
<g>
</g>
<g>
</g>
<g>
</g>
<g>
</g>
<g>
</g>
<g>
</g>
<g>
</g>
</svg>
