<?xml version="1.0" encoding="iso-8859-1"?>
<!-- Generator: Adobe Illustrator 18.0.0, SVG Export Plug-In . SVG Version: 6.00 Build 0)  -->
<!DOCTYPE svg PUBLIC "-//W3C//DTD SVG 1.1//EN" "http://www.w3.org/Graphics/SVG/1.1/DTD/svg11.dtd">
<svg version="1.1" id="Capa_1" xmlns="http://www.w3.org/2000/svg" xmlns:xlink="http://www.w3.org/1999/xlink" x="0px" y="0px"
	 viewBox="0 0 20 32" style="enable-background:new 0 0 20 32;" xml:space="preserve">
<g id="_x31__13_">
	<g>
		<path style="fill-rule:evenodd;clip-rule:evenodd;" d="M16,4h-5V0H7C6.448,0,6,0.448,6,1c0,0.552,0.448,1,1,1h2v2H4
			C1.791,4,0,5.791,0,8v20c0,2.209,1.791,4,4,4h12c2.209,0,4-1.791,4-4V8C20,5.791,18.209,4,16,4z M11,13c0,0.552-0.448,1-1,1
			c-0.552,0-1-0.448-1-1V9c0-0.552,0.448-1,1-1c0.552,0,1,0.448,1,1V13z"/>
	</g>
</g>
<g>
</g>
<g>
</g>
<g>
</g>
<g>
</g>
<g>
</g>
<g>
</g>
<g>
</g>
<g>
</g>
<g>
</g>
<g>
</g>
<g>
</g>
<g>
</g>
<g>
</g>
<g>
</g>
<g>
</g>
</svg>
