<?xml version="1.0" encoding="iso-8859-1"?>
<!-- Generator: Adobe Illustrator 18.0.0, SVG Export Plug-In . SVG Version: 6.00 Build 0)  -->
<!DOCTYPE svg PUBLIC "-//W3C//DTD SVG 1.1//EN" "http://www.w3.org/Graphics/SVG/1.1/DTD/svg11.dtd">
<svg version="1.1" id="Capa_1" xmlns="http://www.w3.org/2000/svg" xmlns:xlink="http://www.w3.org/1999/xlink" x="0px" y="0px"
	 viewBox="0 0 30 30" style="enable-background:new 0 0 30 30;" xml:space="preserve">
<g id="_x38__8_">
	<g>
		<path style="fill-rule:evenodd;clip-rule:evenodd;" d="M1,0C0.448,0,0,0.448,0,1v28c0,0.552,0.448,1,1,1s1-0.448,1-1V1
			C2,0.448,1.552,0,1,0z M4,2v11c0,1.104,0.895,2,2,2l8-0.727V0.727L6,0C4.895,0,4,0.896,4,2z M28,2l-4-0.364v11.727L28,13
			c1.105,0,2-0.895,2-2V4C30,2.895,29.105,2,28,2z M16,14.091l6-0.545V1.455l-6-0.546V14.091z"/>
	</g>
</g>
<g>
</g>
<g>
</g>
<g>
</g>
<g>
</g>
<g>
</g>
<g>
</g>
<g>
</g>
<g>
</g>
<g>
</g>
<g>
</g>
<g>
</g>
<g>
</g>
<g>
</g>
<g>
</g>
<g>
</g>
</svg>
