<?xml version="1.0" encoding="iso-8859-1"?>
<!-- Generator: Adobe Illustrator 18.0.0, SVG Export Plug-In . SVG Version: 6.00 Build 0)  -->
<!DOCTYPE svg PUBLIC "-//W3C//DTD SVG 1.1//EN" "http://www.w3.org/Graphics/SVG/1.1/DTD/svg11.dtd">
<svg version="1.1" id="Capa_1" xmlns="http://www.w3.org/2000/svg" xmlns:xlink="http://www.w3.org/1999/xlink" x="0px" y="0px"
	 viewBox="0 0 30 20" style="enable-background:new 0 0 30 20;" xml:space="preserve">
<g id="_x33__7_">
	<g>
		<path style="fill-rule:evenodd;clip-rule:evenodd;" d="M27,8.414L28.414,7c0.391-0.391,0.391-1.024,0-1.414
			c-0.391-0.391-1.024-0.391-1.414,0L25.586,7c-0.391,0.391-0.391,1.024,0,1.414S26.61,8.805,27,8.414z M15,4c0.552,0,1-0.448,1-1V1
			c0-0.552-0.448-1-1-1c-0.552,0-1,0.448-1,1v2C14,3.552,14.448,4,15,4z M27,16c-0.769-5.641-5.904-10-12-10
			C8.904,6,3.769,10.359,3,16H27z M29,18H1c-0.552,0-1,0.448-1,1c0,0.552,0.448,1,1,1h28c0.552,0,1-0.448,1-1
			C30,18.448,29.552,18,29,18z M3,8.414c0.391,0.391,1.024,0.391,1.414,0s0.391-1.024,0-1.414L3,5.586
			c-0.391-0.391-1.024-0.391-1.414,0C1.195,5.976,1.195,6.609,1.586,7L3,8.414z"/>
	</g>
</g>
<g>
</g>
<g>
</g>
<g>
</g>
<g>
</g>
<g>
</g>
<g>
</g>
<g>
</g>
<g>
</g>
<g>
</g>
<g>
</g>
<g>
</g>
<g>
</g>
<g>
</g>
<g>
</g>
<g>
</g>
</svg>
