<?xml version="1.0" encoding="iso-8859-1"?>
<!-- Generator: Adobe Illustrator 18.0.0, SVG Export Plug-In . SVG Version: 6.00 Build 0)  -->
<!DOCTYPE svg PUBLIC "-//W3C//DTD SVG 1.1//EN" "http://www.w3.org/Graphics/SVG/1.1/DTD/svg11.dtd">
<svg version="1.1" id="Capa_1" xmlns="http://www.w3.org/2000/svg" xmlns:xlink="http://www.w3.org/1999/xlink" x="0px" y="0px"
	 viewBox="0 0 18 32" style="enable-background:new 0 0 18 32;" xml:space="preserve">
<g id="_x38__14_">
	<g>
		<path style="fill-rule:evenodd;clip-rule:evenodd;" d="M14,0H4C1.791,0,0,1.791,0,4v1h18V4C18,1.791,16.209,0,14,0z M0,28
			c0,2.209,1.791,4,4,4h10c2.209,0,4-1.791,4-4v-6H0V28z M9,24c1.105,0,2,0.895,2,2c0,1.105-0.895,2-2,2c-1.105,0-2-0.895-2-2
			C7,24.895,7.895,24,9,24z M0,20h18V7H0V20z"/>
	</g>
</g>
<g>
</g>
<g>
</g>
<g>
</g>
<g>
</g>
<g>
</g>
<g>
</g>
<g>
</g>
<g>
</g>
<g>
</g>
<g>
</g>
<g>
</g>
<g>
</g>
<g>
</g>
<g>
</g>
<g>
</g>
</svg>
