<?xml version="1.0" encoding="iso-8859-1"?>
<!-- Generator: Adobe Illustrator 18.0.0, SVG Export Plug-In . SVG Version: 6.00 Build 0)  -->
<!DOCTYPE svg PUBLIC "-//W3C//DTD SVG 1.1//EN" "http://www.w3.org/Graphics/SVG/1.1/DTD/svg11.dtd">
<svg version="1.1" id="Capa_1" xmlns="http://www.w3.org/2000/svg" xmlns:xlink="http://www.w3.org/1999/xlink" x="0px" y="0px"
	 viewBox="0 0 32 32" style="enable-background:new 0 0 32 32;" xml:space="preserve">
<g id="_x33__15_">
	<g>
		<path style="fill-rule:evenodd;clip-rule:evenodd;" d="M24,0l-8,6L8,3L0,8v24l8-5l8,3l8-6l8,6V6L24,0z M10,21c0,0.552-0.448,1-1,1
			c-0.552,0-1-0.448-1-1V11c0-0.552,0.448-1,1-1c0.552,0,1,0.448,1,1V21z M18,20c0,0.552-0.448,1-1,1c-0.552,0-1-0.448-1-1v-6
			c0-0.552,0.448-1,1-1c0.552,0,1,0.448,1,1V20z M26,17c0,0.552-0.448,1-1,1c-0.552,0-1-0.448-1-1V9c0-0.552,0.448-1,1-1
			c0.552,0,1,0.448,1,1V17z"/>
	</g>
</g>
<g>
</g>
<g>
</g>
<g>
</g>
<g>
</g>
<g>
</g>
<g>
</g>
<g>
</g>
<g>
</g>
<g>
</g>
<g>
</g>
<g>
</g>
<g>
</g>
<g>
</g>
<g>
</g>
<g>
</g>
</svg>
