<?xml version="1.0" encoding="iso-8859-1"?>
<!-- Generator: Adobe Illustrator 18.0.0, SVG Export Plug-In . SVG Version: 6.00 Build 0)  -->
<!DOCTYPE svg PUBLIC "-//W3C//DTD SVG 1.1//EN" "http://www.w3.org/Graphics/SVG/1.1/DTD/svg11.dtd">
<svg version="1.1" id="Capa_1" xmlns="http://www.w3.org/2000/svg" xmlns:xlink="http://www.w3.org/1999/xlink" x="0px" y="0px"
	 viewBox="0 0 21.883 32.012" style="enable-background:new 0 0 21.883 32.012;" xml:space="preserve">
<g id="_x35__8_">
	<g>
		<path style="fill-rule:evenodd;clip-rule:evenodd;" d="M11,11.023c-1.107,0-2.004,0.896-2.004,2.001
			c0,1.105,0.897,2.001,2.004,2.001c1.107,0,2.004-0.896,2.004-2.001C13.005,11.919,12.107,11.023,11,11.023z M21.279,9.916
			l-9.091-9.362c-0.717-0.739-1.88-0.739-2.597,0L0.5,9.916c-0.515,0.53-0.501,0.905-0.486,1.616H0v16.384
			c0,2.262,1.781,4.096,3.977,4.096h13.921c2.197,0,3.977-1.834,3.977-4.096v-15.36C21.876,11.369,21.996,10.654,21.279,9.916z
			 M11,17.026c-2.214,0-4.009-1.792-4.009-4.002c0-2.21,1.795-4.002,4.009-4.002c2.214,0,4.009,1.792,4.009,4.002
			C15.009,15.234,13.214,17.026,11,17.026z"/>
	</g>
</g>
<g>
</g>
<g>
</g>
<g>
</g>
<g>
</g>
<g>
</g>
<g>
</g>
<g>
</g>
<g>
</g>
<g>
</g>
<g>
</g>
<g>
</g>
<g>
</g>
<g>
</g>
<g>
</g>
<g>
</g>
</svg>
