<?xml version="1.0" encoding="iso-8859-1"?>
<!-- Generator: Adobe Illustrator 18.0.0, SVG Export Plug-In . SVG Version: 6.00 Build 0)  -->
<!DOCTYPE svg PUBLIC "-//W3C//DTD SVG 1.1//EN" "http://www.w3.org/Graphics/SVG/1.1/DTD/svg11.dtd">
<svg version="1.1" id="Capa_1" xmlns="http://www.w3.org/2000/svg" xmlns:xlink="http://www.w3.org/1999/xlink" x="0px" y="0px"
	 viewBox="0 0 24 24" style="enable-background:new 0 0 24 24;" xml:space="preserve">
<g id="_x35__5_">
	<g>
		<path style="fill-rule:evenodd;clip-rule:evenodd;" d="M22.978,0H16c-0.567,0.001-0.999,0.459-1,1c-0.001,0.541,0.433,1.001,1,1
			l4.394-0.032l-2.156,2.056c0.731,0.088,1.342,0.562,1.611,1.22l2.12-2.023L22,8c-0.001,0.541,0.433,1.001,1,1
			c0.567-0.001,0.999-0.459,1-1V0.975C24.001,0.434,23.545-0.001,22.978,0z M5.307,17.736c-0.399-0.381-0.399-0.998,0-1.378
			L18.239,4.024C18.16,4.014,18.082,4,18,4H2C0.895,4,0,4.895,0,6v16c0,1.104,0.895,2,2,2h16c1.105,0,2-0.895,2-2V6
			c0-0.268-0.055-0.522-0.15-0.756L6.753,17.736C6.354,18.117,5.706,18.117,5.307,17.736z"/>
	</g>
</g>
<g>
</g>
<g>
</g>
<g>
</g>
<g>
</g>
<g>
</g>
<g>
</g>
<g>
</g>
<g>
</g>
<g>
</g>
<g>
</g>
<g>
</g>
<g>
</g>
<g>
</g>
<g>
</g>
<g>
</g>
</svg>
