<?xml version="1.0" encoding="iso-8859-1"?>
<!-- Generator: Adobe Illustrator 18.0.0, SVG Export Plug-In . SVG Version: 6.00 Build 0)  -->
<!DOCTYPE svg PUBLIC "-//W3C//DTD SVG 1.1//EN" "http://www.w3.org/Graphics/SVG/1.1/DTD/svg11.dtd">
<svg version="1.1" id="Capa_1" xmlns="http://www.w3.org/2000/svg" xmlns:xlink="http://www.w3.org/1999/xlink" x="0px" y="0px"
	 viewBox="0 0 32 32" style="enable-background:new 0 0 32 32;" xml:space="preserve">
<g id="_x37__21_">
	<g>
		<path style="fill-rule:evenodd;clip-rule:evenodd;" d="M4,0C1.791,0,0,1.791,0,4v21c0,2.209,1.885,3.312,4,4l11,3
			c0,0,0.011-29,0-29C9.988,1.656,4,0,4,0z M28,0c0,0-5.789,1.594-11.049,3H17v29c5.618-1.499,11-3,11-3c2.053-0.531,4-1.791,4-4V4
			C32,1.791,30.209,0,28,0z"/>
	</g>
</g>
<g>
</g>
<g>
</g>
<g>
</g>
<g>
</g>
<g>
</g>
<g>
</g>
<g>
</g>
<g>
</g>
<g>
</g>
<g>
</g>
<g>
</g>
<g>
</g>
<g>
</g>
<g>
</g>
<g>
</g>
</svg>
