<?xml version="1.0" encoding="iso-8859-1"?>
<!-- Generator: Adobe Illustrator 18.0.0, SVG Export Plug-In . SVG Version: 6.00 Build 0)  -->
<!DOCTYPE svg PUBLIC "-//W3C//DTD SVG 1.1//EN" "http://www.w3.org/Graphics/SVG/1.1/DTD/svg11.dtd">
<svg version="1.1" id="Capa_1" xmlns="http://www.w3.org/2000/svg" xmlns:xlink="http://www.w3.org/1999/xlink" x="0px" y="0px"
	 viewBox="0 0 28 32" style="enable-background:new 0 0 28 32;" xml:space="preserve">
<g id="_x37__8_">
	<g>
		<path style="fill-rule:evenodd;clip-rule:evenodd;" d="M24,0H4C1.791,0,0,1.791,0,4v28h1.867L6,29l4,3l4-3l4,3l4-3l4.133,3H28V4
			C28,1.791,26.209,0,24,0z M21,20H7c-0.552,0-1-0.448-1-1s0.448-1,1-1h14c0.552,0,1,0.448,1,1S21.552,20,21,20z M21,13.977H7
			c-0.552,0-1-0.448-1-1c0-0.552,0.448-1,1-1h14c0.552,0,1,0.448,1,1C22,13.529,21.552,13.977,21,13.977z M21,8H7
			C6.448,8,6,7.552,6,7c0-0.552,0.448-1,1-1h14c0.552,0,1,0.448,1,1C22,7.552,21.552,8,21,8z"/>
	</g>
</g>
<g>
</g>
<g>
</g>
<g>
</g>
<g>
</g>
<g>
</g>
<g>
</g>
<g>
</g>
<g>
</g>
<g>
</g>
<g>
</g>
<g>
</g>
<g>
</g>
<g>
</g>
<g>
</g>
<g>
</g>
</svg>
