<?xml version="1.0" encoding="iso-8859-1"?>
<!-- Generator: Adobe Illustrator 18.0.0, SVG Export Plug-In . SVG Version: 6.00 Build 0)  -->
<!DOCTYPE svg PUBLIC "-//W3C//DTD SVG 1.1//EN" "http://www.w3.org/Graphics/SVG/1.1/DTD/svg11.dtd">
<svg version="1.1" id="Capa_1" xmlns="http://www.w3.org/2000/svg" xmlns:xlink="http://www.w3.org/1999/xlink" x="0px" y="0px"
	 viewBox="0 0 612 792" style="enable-background:new 0 0 612 792;" xml:space="preserve">
<g id="_x36__14_">
	<g>
		<path d="M497.25,223.875h-382.5C51.37,223.875,0,275.245,0,338.625v114.75c0,63.38,51.37,114.75,114.75,114.75h382.5
			c63.38,0,114.75-51.37,114.75-114.75v-114.75C612,275.245,560.63,223.875,497.25,223.875z M248.625,415.125H191.25V472.5
			c0,10.557-8.568,19.125-19.125,19.125S153,483.057,153,472.5v-57.375H95.625c-10.557,0-19.125-8.568-19.125-19.125
			s8.568-19.125,19.125-19.125H153V319.5c0-10.557,8.568-19.125,19.125-19.125s19.125,8.568,19.125,19.125v57.375h57.375
			c10.557,0,19.125,8.568,19.125,19.125S259.182,415.125,248.625,415.125z M372.938,415.125c-15.835,0-28.688-12.852-28.688-28.688
			c0-15.855,12.852-28.688,28.688-28.688s28.688,12.833,28.688,28.688C401.625,402.273,388.773,415.125,372.938,415.125z
			 M430.312,491.625c-15.835,0-28.688-12.852-28.688-28.688s12.852-28.688,28.688-28.688S459,447.083,459,462.938
			C459,478.773,446.148,491.625,430.312,491.625z M449.438,357.75c-15.835,0-28.688-12.852-28.688-28.688
			s12.852-28.688,28.688-28.688s28.688,12.852,28.688,28.688S465.273,357.75,449.438,357.75z M506.812,434.25
			c-15.835,0-28.688-12.852-28.688-28.688s12.852-28.688,28.688-28.688c15.836,0,28.688,12.852,28.688,28.688
			S522.648,434.25,506.812,434.25z"/>
	</g>
</g>
</svg>
