<?xml version="1.0" encoding="iso-8859-1"?>
<!-- Generator: Adobe Illustrator 18.0.0, SVG Export Plug-In . SVG Version: 6.00 Build 0)  -->
<!DOCTYPE svg PUBLIC "-//W3C//DTD SVG 1.1//EN" "http://www.w3.org/Graphics/SVG/1.1/DTD/svg11.dtd">
<svg version="1.1" id="Capa_1" xmlns="http://www.w3.org/2000/svg" xmlns:xlink="http://www.w3.org/1999/xlink" x="0px" y="0px"
	 viewBox="0 0 30 32" style="enable-background:new 0 0 30 32;" xml:space="preserve">
<g id="_x35__16_">
	<g>
		<path style="fill-rule:evenodd;clip-rule:evenodd;" d="M6,18h2v-2H6V18z M6,26h2v-2H6V26z M26,2h-4V1c0-0.552-0.448-1-1-1
			c-0.552,0-1,0.448-1,1v1H10V1c0-0.552-0.448-1-1-1C8.448,0,8,0.448,8,1v1H4C1.791,2,0,3.791,0,6v22c0,2.209,1.791,4,4,4h22
			c2.209,0,4-1.791,4-4V6C30,3.791,28.209,2,26,2z M10,26c0,1.105-0.895,2-2,2H6c-1.105,0-2-0.895-2-2v-2c0-1.105,0.895-2,2-2h2
			c1.105,0,2,0.895,2,2V26z M10,18c0,1.104-0.895,2-2,2H6c-1.105,0-2-0.896-2-2v-2c0-1.105,0.895-2,2-2h2c1.105,0,2,0.895,2,2V18z
			 M18,26c0,1.105-0.895,2-2,2h-2c-1.104,0-2-0.895-2-2v-2c0-1.105,0.896-2,2-2h2c1.105,0,2,0.895,2,2V26z M18,18
			c0,1.104-0.895,2-2,2h-2c-1.104,0-2-0.896-2-2v-2c0-1.105,0.896-2,2-2h2c1.105,0,2,0.895,2,2V18z M26,26c0,1.105-0.895,2-2,2h-2
			c-1.104,0-2-0.895-2-2v-2c0-1.105,0.896-2,2-2h2c1.105,0,2,0.895,2,2V26z M26,18c0,1.104-0.895,2-2,2h-2c-1.104,0-2-0.896-2-2v-2
			c0-1.105,0.896-2,2-2h2c1.105,0,2,0.895,2,2V18z M28,8H2V6c0-1.105,0.895-2,2-2h4v1c0,0.552,0.448,1,1,1c0.552,0,1-0.448,1-1V4h10
			v1c0,0.552,0.448,1,1,1c0.552,0,1-0.448,1-1V4h4c1.105,0,2,0.895,2,2V8z M22,18h2v-2h-2V18z M22,26h2v-2h-2V26z M14,26h2v-2h-2V26
			z M14,18h2v-2h-2V18z"/>
	</g>
</g>
<g>
</g>
<g>
</g>
<g>
</g>
<g>
</g>
<g>
</g>
<g>
</g>
<g>
</g>
<g>
</g>
<g>
</g>
<g>
</g>
<g>
</g>
<g>
</g>
<g>
</g>
<g>
</g>
<g>
</g>
</svg>
