<?xml version="1.0" encoding="iso-8859-1"?>
<!-- Generator: Adobe Illustrator 18.0.0, SVG Export Plug-In . SVG Version: 6.00 Build 0)  -->
<!DOCTYPE svg PUBLIC "-//W3C//DTD SVG 1.1//EN" "http://www.w3.org/Graphics/SVG/1.1/DTD/svg11.dtd">
<svg version="1.1" id="Capa_1" xmlns="http://www.w3.org/2000/svg" xmlns:xlink="http://www.w3.org/1999/xlink" x="0px" y="0px"
	 viewBox="0 0 32 32" style="enable-background:new 0 0 32 32;" xml:space="preserve">
<g id="_x32__18_">
	<g>
		<path style="fill-rule:evenodd;clip-rule:evenodd;" d="M16,0C7.164,0,0,6.268,0,14c0,4.419,2.345,8.353,6,10.919V32l7.009-4.253
			C13.979,27.907,14.977,28,16,28c8.837,0,16-6.268,16-14C32,6.268,24.837,0,16,0z M21,19H11c-0.552,0-1-0.448-1-1s0.448-1,1-1h10
			c0.552,0,1,0.448,1,1S21.552,19,21,19z M23,13H9c-0.552,0-1-0.448-1-1c0-0.552,0.448-1,1-1h14c0.552,0,1,0.448,1,1
			C24,12.552,23.552,13,23,13z"/>
	</g>
</g>
<g>
</g>
<g>
</g>
<g>
</g>
<g>
</g>
<g>
</g>
<g>
</g>
<g>
</g>
<g>
</g>
<g>
</g>
<g>
</g>
<g>
</g>
<g>
</g>
<g>
</g>
<g>
</g>
<g>
</g>
</svg>
