<?xml version="1.0" encoding="iso-8859-1"?>
<!-- Generator: Adobe Illustrator 18.0.0, SVG Export Plug-In . SVG Version: 6.00 Build 0)  -->
<!DOCTYPE svg PUBLIC "-//W3C//DTD SVG 1.1//EN" "http://www.w3.org/Graphics/SVG/1.1/DTD/svg11.dtd">
<svg version="1.1" id="Capa_1" xmlns="http://www.w3.org/2000/svg" xmlns:xlink="http://www.w3.org/1999/xlink" x="0px" y="0px"
	 viewBox="0 0 31 32" style="enable-background:new 0 0 31 32;" xml:space="preserve">
<g id="_x34__17_">
	<g>
		<path style="fill-rule:evenodd;clip-rule:evenodd;" d="M26.949,9.138L27,10c0.008,0.817,0,0.743,0,1.5C27,19.474,20.716,25,12,25
			c-1.147,0-3,0-3,0c2.38,2.328,5.149,3.75,9,3.75c0.819,0,1.618-0.074,2.395-0.201L26,32v-5.672c3.039-2.082,5-5.314,5-8.954
			C31,14.13,29.44,11.211,26.949,9.138z M9.636,22.737C10.414,22.863,12.181,23,13,23c7.18,0,12-5.343,12-11.625
			C25,5.093,18.977,0,13,0C5.81,0,0,5.093,0,11.375c0,3.639,1.387,6.729,4,8.954V26L9.636,22.737z M18.5,10
			c0.828,0,1.5,0.672,1.5,1.5c0,0.829-0.672,1.5-1.5,1.5c-0.828,0-1.5-0.671-1.5-1.5C17,10.672,17.672,10,18.5,10z M12.5,10
			c0.828,0,1.5,0.672,1.5,1.5c0,0.829-0.672,1.5-1.5,1.5c-0.828,0-1.5-0.671-1.5-1.5C11,10.672,11.672,10,12.5,10z M6.5,10
			C7.328,10,8,10.672,8,11.5C8,12.329,7.328,13,6.5,13C5.672,13,5,12.329,5,11.5C5,10.672,5.672,10,6.5,10z"/>
	</g>
</g>
<g>
</g>
<g>
</g>
<g>
</g>
<g>
</g>
<g>
</g>
<g>
</g>
<g>
</g>
<g>
</g>
<g>
</g>
<g>
</g>
<g>
</g>
<g>
</g>
<g>
</g>
<g>
</g>
<g>
</g>
</svg>
