<?xml version="1.0" encoding="iso-8859-1"?>
<!-- Generator: Adobe Illustrator 18.0.0, SVG Export Plug-In . SVG Version: 6.00 Build 0)  -->
<!DOCTYPE svg PUBLIC "-//W3C//DTD SVG 1.1//EN" "http://www.w3.org/Graphics/SVG/1.1/DTD/svg11.dtd">
<svg version="1.1" id="Capa_1" xmlns="http://www.w3.org/2000/svg" xmlns:xlink="http://www.w3.org/1999/xlink" x="0px" y="0px"
	 viewBox="0 0 28 32" style="enable-background:new 0 0 28 32;" xml:space="preserve">
<g id="_x38__21_">
	<g>
		<path style="fill-rule:evenodd;clip-rule:evenodd;" d="M24,4h-3V2h-2.694C17.44,0.809,15.846,0,14,0c-1.846,0-3.44,0.809-4.306,2
			H7v2H4C1.791,4,0,5.791,0,8v20c0,2.209,1.791,4,4,4h20c2.209,0,4-1.791,4-4V8C28,5.791,26.209,4,24,4z M9,4h2.222
			c0-1.104,1.244-2,2.778-2c1.534,0,2.778,0.895,2.778,2H19v4H9V4z M21,26H7c-0.552,0-1-0.448-1-1c0-0.552,0.448-1,1-1h14
			c0.552,0,1,0.448,1,1C22,25.552,21.552,26,21,26z M21,21H7c-0.552,0-1-0.448-1-1s0.448-1,1-1h14c0.552,0,1,0.448,1,1
			S21.552,21,21,21z M21,16H7c-0.552,0-1-0.448-1-1c0-0.552,0.448-1,1-1h14c0.552,0,1,0.448,1,1C22,15.552,21.552,16,21,16z"/>
	</g>
</g>
<g>
</g>
<g>
</g>
<g>
</g>
<g>
</g>
<g>
</g>
<g>
</g>
<g>
</g>
<g>
</g>
<g>
</g>
<g>
</g>
<g>
</g>
<g>
</g>
<g>
</g>
<g>
</g>
<g>
</g>
</svg>
