<?xml version="1.0" encoding="iso-8859-1"?>
<!-- Generator: Adobe Illustrator 18.0.0, SVG Export Plug-In . SVG Version: 6.00 Build 0)  -->
<!DOCTYPE svg PUBLIC "-//W3C//DTD SVG 1.1//EN" "http://www.w3.org/Graphics/SVG/1.1/DTD/svg11.dtd">
<svg version="1.1" id="Capa_1" xmlns="http://www.w3.org/2000/svg" xmlns:xlink="http://www.w3.org/1999/xlink" x="0px" y="0px"
	 viewBox="0 0 32 32" style="enable-background:new 0 0 32 32;" xml:space="preserve">
<g id="_x37__16_">
	<g>
		<path style="fill-rule:evenodd;clip-rule:evenodd;" d="M16,0C7.163,0,0,7.164,0,16c0,8.837,7.163,16,16,16s16-7.164,16-16
			C32,7.164,24.837,0,16,0z M8.278,6.909l1.414,1.414L8.278,9.737L6.864,8.323L8.278,6.909z M8.117,24.219l-1.384-1.387l1.384-1.387
			l1.384,1.387L8.117,24.219z M17,28h-2v-2h2V28z M17,16.024c0,0.552-0.448,1-1,1H7c-0.552,0-1-0.448-1-1c0-0.552,0.448-1,1-1h8V5
			c0-0.552,0.448-1,1-1c0.552,0,1,0.448,1,1V16.024z M23.198,24.193l-1.414-1.414l1.414-1.414l1.414,1.414L23.198,24.193z
			 M23.46,9.66l-1.384-1.387l1.384-1.387l1.384,1.387L23.46,9.66z M26,17v-2h2v2H26z"/>
	</g>
</g>
<g>
</g>
<g>
</g>
<g>
</g>
<g>
</g>
<g>
</g>
<g>
</g>
<g>
</g>
<g>
</g>
<g>
</g>
<g>
</g>
<g>
</g>
<g>
</g>
<g>
</g>
<g>
</g>
<g>
</g>
</svg>
