<?xml version="1.0" encoding="iso-8859-1"?>
<!-- Generator: Adobe Illustrator 18.0.0, SVG Export Plug-In . SVG Version: 6.00 Build 0)  -->
<!DOCTYPE svg PUBLIC "-//W3C//DTD SVG 1.1//EN" "http://www.w3.org/Graphics/SVG/1.1/DTD/svg11.dtd">
<svg version="1.1" id="Capa_1" xmlns="http://www.w3.org/2000/svg" xmlns:xlink="http://www.w3.org/1999/xlink" x="0px" y="0px"
	 viewBox="0 0 32.004 22.002" style="enable-background:new 0 0 32.004 22.002;" xml:space="preserve">
<g id="_x39__1_">
	<g>
		<path style="fill-rule:evenodd;clip-rule:evenodd;" d="M28,0.002H10.054c-0.28-0.017-0.565,0.07-0.78,0.283l-8.986,9.94
			c-0.211,0.209-0.301,0.488-0.287,0.762c-0.014,0.274,0.076,0.552,0.287,0.762l8.986,9.94c0.196,0.194,0.451,0.29,0.707,0.293
			v0.021H28c2.211,0,4.004-1.791,4.004-4v-14C32.004,1.793,30.211,0.002,28,0.002z M22.651,13.245c0.391,0.391,0.391,1.024,0,1.414
			c-0.391,0.391-1.025,0.391-1.416,0l-2.239-2.237l-2.268,2.266c-0.394,0.393-1.033,0.393-1.427,0c-0.394-0.394-0.394-1.032,0-1.425
			l2.268-2.266L15.33,8.76c-0.391-0.391-0.391-1.024,0-1.414c0.391-0.391,1.025-0.391,1.416,0l2.239,2.237l2.3-2.297
			c0.394-0.394,1.033-0.394,1.427,0c0.394,0.394,0.394,1.032,0,1.425l-2.3,2.297L22.651,13.245z"/>
	</g>
</g>
<g>
</g>
<g>
</g>
<g>
</g>
<g>
</g>
<g>
</g>
<g>
</g>
<g>
</g>
<g>
</g>
<g>
</g>
<g>
</g>
<g>
</g>
<g>
</g>
<g>
</g>
<g>
</g>
<g>
</g>
</svg>
