<?xml version="1.0" encoding="iso-8859-1"?>
<!-- Generator: Adobe Illustrator 18.0.0, SVG Export Plug-In . SVG Version: 6.00 Build 0)  -->
<!DOCTYPE svg PUBLIC "-//W3C//DTD SVG 1.1//EN" "http://www.w3.org/Graphics/SVG/1.1/DTD/svg11.dtd">
<svg version="1.1" id="Capa_1" xmlns="http://www.w3.org/2000/svg" xmlns:xlink="http://www.w3.org/1999/xlink" x="0px" y="0px"
	 viewBox="0 0 32 32" style="enable-background:new 0 0 32 32;" xml:space="preserve">
<g id="_x31_0_8_">
	<g>
		<path style="fill-rule:evenodd;clip-rule:evenodd;" d="M13,30c-0.552,0-1,0.448-1,1c0,0.552,0.448,1,1,1c0.552,0,1-0.448,1-1
			C14,30.448,13.552,30,13,30z M11,26c-0.552,0-1,0.448-1,1c0,0.552,0.448,1,1,1c0.552,0,1-0.448,1-1C12,26.448,11.552,26,11,26z
			 M17,26c-0.552,0-1,0.448-1,1c0,0.552,0.448,1,1,1c0.552,0,1-0.448,1-1C18,26.448,17.552,26,17,26z M19,30c-0.552,0-1,0.448-1,1
			c0,0.552,0.448,1,1,1c0.552,0,1-0.448,1-1C20,30.448,19.552,30,19,30z M23.067,5.029C21.599,2.052,18.543,0,15,0
			c-4.749,0-8.63,3.681-8.967,8.345C2.542,9.34,0,12.39,0,16c0,4.259,3.54,7.755,8,8c0,0,13.831,0,14,0c5.785,0,10-4.253,10-9.5
			C32,9.445,28.048,5.324,23.067,5.029z M23,26c-0.552,0-1,0.448-1,1c0,0.552,0.448,1,1,1c0.552,0,1-0.448,1-1
			C24,26.448,23.552,26,23,26z"/>
	</g>
</g>
<g>
</g>
<g>
</g>
<g>
</g>
<g>
</g>
<g>
</g>
<g>
</g>
<g>
</g>
<g>
</g>
<g>
</g>
<g>
</g>
<g>
</g>
<g>
</g>
<g>
</g>
<g>
</g>
<g>
</g>
</svg>
