<?xml version="1.0" encoding="iso-8859-1"?>
<!-- Generator: Adobe Illustrator 18.0.0, SVG Export Plug-In . SVG Version: 6.00 Build 0)  -->
<!DOCTYPE svg PUBLIC "-//W3C//DTD SVG 1.1//EN" "http://www.w3.org/Graphics/SVG/1.1/DTD/svg11.dtd">
<svg version="1.1" id="Capa_1" xmlns="http://www.w3.org/2000/svg" xmlns:xlink="http://www.w3.org/1999/xlink" x="0px" y="0px"
	 viewBox="0 0 29.988 29.988" style="enable-background:new 0 0 29.988 29.988;" xml:space="preserve">
<g id="_x38__16_">
	<g>
		<path style="fill-rule:evenodd;clip-rule:evenodd;" d="M14.994,0C6.713,0,0,6.713,0,14.994c0,8.281,6.713,14.994,14.994,14.994
			c8.281,0,14.994-6.713,14.994-14.994C29.988,6.713,23.275,0,14.994,0z M9.392,24.315l1.315-9.278l1.732,1l-0.926,4.604
			l3.524-3.104l1.732,1L9.392,24.315z M12.988,15.488c0-0.828,0.672-1.5,1.5-1.5s1.5,0.672,1.5,1.5c0,0.828-0.672,1.5-1.5,1.5
			S12.988,16.316,12.988,15.488z M18.269,15.939l-1.732-1l0.926-4.604l-3.524,3.104l-1.732-1l7.377-5.778L18.269,15.939z"/>
	</g>
</g>
<g>
</g>
<g>
</g>
<g>
</g>
<g>
</g>
<g>
</g>
<g>
</g>
<g>
</g>
<g>
</g>
<g>
</g>
<g>
</g>
<g>
</g>
<g>
</g>
<g>
</g>
<g>
</g>
<g>
</g>
</svg>
