<?xml version="1.0" encoding="iso-8859-1"?>
<!-- Generator: Adobe Illustrator 18.0.0, SVG Export Plug-In . SVG Version: 6.00 Build 0)  -->
<!DOCTYPE svg PUBLIC "-//W3C//DTD SVG 1.1//EN" "http://www.w3.org/Graphics/SVG/1.1/DTD/svg11.dtd">
<svg version="1.1" id="Capa_1" xmlns="http://www.w3.org/2000/svg" xmlns:xlink="http://www.w3.org/1999/xlink" x="0px" y="0px"
	 viewBox="0 0 29.999 30" style="enable-background:new 0 0 29.999 30;" xml:space="preserve">
<g id="_x31__16_">
	<g>
		<path style="fill-rule:evenodd;clip-rule:evenodd;" d="M15,12c-1.643,0-2.975,1.343-2.975,3c0,1.657,1.332,3,2.975,3
			c1.643,0,2.975-1.343,2.975-3C17.975,13.343,16.643,12,15,12z M29.007,18.536l-2.322-1.352c0.13-0.71,0.216-1.435,0.216-2.184
			c0-0.748-0.085-1.474-0.216-2.184l2.322-1.352c0.949-0.552,1.274-1.775,0.726-2.732L27.75,5.268
			c-0.548-0.957-1.761-1.284-2.71-0.732l-2.346,1.366c-1.096-0.941-2.342-1.71-3.727-2.204V2c0-1.105-0.888-2-1.983-2h-3.967
			c-1.095,0-1.983,0.896-1.983,2v1.697C9.648,4.192,8.402,4.961,7.305,5.902L4.959,4.536C4.01,3.984,2.797,4.311,2.25,5.268
			L0.266,8.732c-0.548,0.956-0.223,2.18,0.726,2.732l2.322,1.352c-0.13,0.71-0.216,1.436-0.216,2.184
			c0,0.748,0.085,1.474,0.216,2.184l-2.322,1.352c-0.949,0.552-1.274,1.776-0.726,2.732l1.984,3.464
			c0.548,0.956,1.761,1.284,2.709,0.732l2.346-1.366c1.096,0.941,2.342,1.71,3.727,2.204V28c0,1.104,0.888,2,1.983,2h3.967
			c1.095,0,1.983-0.896,1.983-2v-1.697c1.385-0.494,2.631-1.263,3.727-2.204l2.346,1.366c0.949,0.552,2.162,0.224,2.71-0.732
			l1.983-3.464C30.281,20.311,29.956,19.088,29.007,18.536z M15,20c-2.739,0-4.959-2.239-4.959-5c0-2.762,2.22-5,4.959-5
			c2.739,0,4.959,2.239,4.959,5C19.958,17.761,17.738,20,15,20z"/>
	</g>
</g>
<g>
</g>
<g>
</g>
<g>
</g>
<g>
</g>
<g>
</g>
<g>
</g>
<g>
</g>
<g>
</g>
<g>
</g>
<g>
</g>
<g>
</g>
<g>
</g>
<g>
</g>
<g>
</g>
<g>
</g>
</svg>
