<?xml version="1.0" encoding="iso-8859-1"?>
<!-- Generator: Adobe Illustrator 18.0.0, SVG Export Plug-In . SVG Version: 6.00 Build 0)  -->
<!DOCTYPE svg PUBLIC "-//W3C//DTD SVG 1.1//EN" "http://www.w3.org/Graphics/SVG/1.1/DTD/svg11.dtd">
<svg version="1.1" id="Capa_1" xmlns="http://www.w3.org/2000/svg" xmlns:xlink="http://www.w3.org/1999/xlink" x="0px" y="0px"
	 viewBox="0 0 32 32" style="enable-background:new 0 0 32 32;" xml:space="preserve">
<g id="_x33__5_">
	<g>
		<path style="fill-rule:evenodd;clip-rule:evenodd;" d="M6,21L6,8H4c-2.209,0-4,1.791-4,4v16c0,2.209,1.791,4,4,4h16
			c2.209,0,4-1.791,4-4v-2H11C8.791,26,6,23.209,6,21z M28,0H12C9.791,0,8,1.791,8,4v16c0,2.209,1.791,4,4,4h16c2.209,0,4-1.791,4-4
			V4C32,1.791,30.209,0,28,0z"/>
	</g>
</g>
<g>
</g>
<g>
</g>
<g>
</g>
<g>
</g>
<g>
</g>
<g>
</g>
<g>
</g>
<g>
</g>
<g>
</g>
<g>
</g>
<g>
</g>
<g>
</g>
<g>
</g>
<g>
</g>
<g>
</g>
</svg>
