<?xml version="1.0" encoding="iso-8859-1"?>
<!-- Generator: Adobe Illustrator 18.0.0, SVG Export Plug-In . SVG Version: 6.00 Build 0)  -->
<!DOCTYPE svg PUBLIC "-//W3C//DTD SVG 1.1//EN" "http://www.w3.org/Graphics/SVG/1.1/DTD/svg11.dtd">
<svg version="1.1" id="Capa_1" xmlns="http://www.w3.org/2000/svg" xmlns:xlink="http://www.w3.org/1999/xlink" x="0px" y="0px"
	 viewBox="0 0 32.009 32.002" style="enable-background:new 0 0 32.009 32.002;" xml:space="preserve">
<g id="_x32__1_">
	<g>
		<path style="fill-rule:evenodd;clip-rule:evenodd;" d="M30.858,2.565C31.397,2.026,32.009,1.552,32.009,1c0-0.552-0.448-1-1-1h-10
			c-0.121,0-1,0-1,1v10c0,0.552,0.448,1,1,1c0.552,0,0.938-0.523,1.364-0.95l2.779-2.779C26.922,10.358,28,13.05,28,16.002
			c0,6.627-5.373,12-12,12c-6.627,0-12-5.373-12-12c0-5.944,4.327-10.866,10-11.82V0.14C6.11,1.127,0,7.844,0,16.002
			c0,8.837,7.163,16,16,16s16-7.163,16-16c0-4.057-1.516-7.755-4.007-10.572L30.858,2.565z"/>
	</g>
</g>
<g>
</g>
<g>
</g>
<g>
</g>
<g>
</g>
<g>
</g>
<g>
</g>
<g>
</g>
<g>
</g>
<g>
</g>
<g>
</g>
<g>
</g>
<g>
</g>
<g>
</g>
<g>
</g>
<g>
</g>
</svg>
