<?xml version="1.0" encoding="iso-8859-1"?>
<!-- Generator: Adobe Illustrator 18.0.0, SVG Export Plug-In . SVG Version: 6.00 Build 0)  -->
<!DOCTYPE svg PUBLIC "-//W3C//DTD SVG 1.1//EN" "http://www.w3.org/Graphics/SVG/1.1/DTD/svg11.dtd">
<svg version="1.1" id="Capa_1" xmlns="http://www.w3.org/2000/svg" xmlns:xlink="http://www.w3.org/1999/xlink" x="0px" y="0px"
	 viewBox="0 0 32 32" style="enable-background:new 0 0 32 32;" xml:space="preserve">
<g id="_x35__6_">
	<g>
		<path style="fill-rule:evenodd;clip-rule:evenodd;" d="M30,24h-2V9l-4,4v11H10L29.213,3.201l-1.414-1.414L8,23V8h10l3.862-4H8V2
			c0-1.105-0.895-2-2-2C4.895,0,4,0.895,4,2v2H2C0.895,4,0,4.895,0,6c0,1.105,0.895,2,2,2h2l0,18v2h20v2c0,1.104,0.895,2,2,2
			c1.105,0,2-0.895,2-2v-2h2c1.105,0,2-0.895,2-2C32,24.896,31.105,24,30,24z"/>
	</g>
</g>
<g>
</g>
<g>
</g>
<g>
</g>
<g>
</g>
<g>
</g>
<g>
</g>
<g>
</g>
<g>
</g>
<g>
</g>
<g>
</g>
<g>
</g>
<g>
</g>
<g>
</g>
<g>
</g>
<g>
</g>
</svg>
