<?xml version="1.0" encoding="iso-8859-1"?>
<!-- Generator: Adobe Illustrator 18.0.0, SVG Export Plug-In . SVG Version: 6.00 Build 0)  -->
<!DOCTYPE svg PUBLIC "-//W3C//DTD SVG 1.1//EN" "http://www.w3.org/Graphics/SVG/1.1/DTD/svg11.dtd">
<svg version="1.1" id="Capa_1" xmlns="http://www.w3.org/2000/svg" xmlns:xlink="http://www.w3.org/1999/xlink" x="0px" y="0px"
	 viewBox="0 0 32 32" style="enable-background:new 0 0 32 32;" xml:space="preserve">
<g id="_x31_0_2_">
	<g>
		<path style="fill-rule:evenodd;clip-rule:evenodd;" d="M16,0C7.163,0,0,7.163,0,16s7.163,16,16,16c8.836,0,16-7.164,16-16
			S24.837,0,16,0z M21.657,20.243c0.391,0.391,0.391,1.024,0,1.414c-0.391,0.391-1.024,0.391-1.414,0l-4.237-4.237l-4.266,4.266
			c-0.394,0.393-1.032,0.393-1.425,0c-0.394-0.394-0.394-1.032,0-1.425l4.266-4.266l-4.237-4.237c-0.391-0.391-0.391-1.024,0-1.414
			c0.391-0.391,1.024-0.391,1.414,0l4.237,4.237l4.297-4.297c0.394-0.394,1.032-0.394,1.425,0c0.394,0.394,0.394,1.032,0,1.425
			l-4.297,4.297L21.657,20.243z"/>
	</g>
</g>
<g>
</g>
<g>
</g>
<g>
</g>
<g>
</g>
<g>
</g>
<g>
</g>
<g>
</g>
<g>
</g>
<g>
</g>
<g>
</g>
<g>
</g>
<g>
</g>
<g>
</g>
<g>
</g>
<g>
</g>
</svg>
