<?xml version="1.0" encoding="iso-8859-1"?>
<!-- Generator: Adobe Illustrator 18.0.0, SVG Export Plug-In . SVG Version: 6.00 Build 0)  -->
<!DOCTYPE svg PUBLIC "-//W3C//DTD SVG 1.1//EN" "http://www.w3.org/Graphics/SVG/1.1/DTD/svg11.dtd">
<svg version="1.1" id="Capa_1" xmlns="http://www.w3.org/2000/svg" xmlns:xlink="http://www.w3.org/1999/xlink" x="0px" y="0px"
	 viewBox="0 0 23.992 24.022" style="enable-background:new 0 0 23.992 24.022;" xml:space="preserve">
<g id="_x34__5_">
	<g>
		<path style="fill-rule:evenodd;clip-rule:evenodd;" d="M13,17.023c0.565-0.001,1.001,0.432,1,1c-0.001,0.568-0.435,0.999-1,1H6
			c-0.565,0.001-1.001-0.432-1-1v-7c0.001-0.568,0.435-0.999,1-1c0.565-0.001,1.001,0.432,1,1l-0.004,4.649L18.502,4.081
			c-0.161-0.042-0.327-0.071-0.501-0.071H2c-1.105,0-2,0.896-2,2.001v16.017c0,1.102,0.888,1.995,1.984,1.995h16.016
			c1.105,0,2-0.896,2-2.001V6.011c0-0.175-0.03-0.342-0.072-0.504L8.406,17.02L13,17.023z M23.694,0.3
			c-0.397-0.399-1.041-0.399-1.439,0l-3.753,3.781c0.699,0.182,1.245,0.728,1.427,1.427l3.765-3.761
			C24.091,1.346,24.091,0.699,23.694,0.3z"/>
	</g>
</g>
<g>
</g>
<g>
</g>
<g>
</g>
<g>
</g>
<g>
</g>
<g>
</g>
<g>
</g>
<g>
</g>
<g>
</g>
<g>
</g>
<g>
</g>
<g>
</g>
<g>
</g>
<g>
</g>
<g>
</g>
</svg>
