<?xml version="1.0" encoding="iso-8859-1"?>
<!-- Generator: Adobe Illustrator 18.0.0, SVG Export Plug-In . SVG Version: 6.00 Build 0)  -->
<!DOCTYPE svg PUBLIC "-//W3C//DTD SVG 1.1//EN" "http://www.w3.org/Graphics/SVG/1.1/DTD/svg11.dtd">
<svg version="1.1" id="Capa_1" xmlns="http://www.w3.org/2000/svg" xmlns:xlink="http://www.w3.org/1999/xlink" x="0px" y="0px"
	 viewBox="0 0 13.993 32.008" style="enable-background:new 0 0 13.993 32.008;" xml:space="preserve">
<g id="_x33_">
	<g>
		<path style="fill-rule:evenodd;clip-rule:evenodd;" d="M12.012,24.004h-3v-16h3c0.643,0,1.293,0.016,1.686-0.376
			c0.393-0.392,0.393-1.028,0-1.42L7.759,0.286c-0.21-0.209-0.488-0.298-0.762-0.284C6.722-0.013,6.444,0.076,6.234,0.286
			L0.295,6.208c-0.393,0.392-0.393,1.028,0,1.42C0.688,8.02,1.306,8.004,2.012,8.004h3v16h-3c-0.643,0-1.324-0.016-1.717,0.376
			c-0.393,0.392-0.393,1.028,0,1.42l5.939,5.923c0.21,0.209,0.488,0.298,0.762,0.284c0.275,0.014,0.553-0.075,0.762-0.284
			l5.939-5.923c0.393-0.392,0.393-1.028,0-1.42C13.305,23.988,12.749,24.004,12.012,24.004z"/>
	</g>
</g>
<g>
</g>
<g>
</g>
<g>
</g>
<g>
</g>
<g>
</g>
<g>
</g>
<g>
</g>
<g>
</g>
<g>
</g>
<g>
</g>
<g>
</g>
<g>
</g>
<g>
</g>
<g>
</g>
<g>
</g>
</svg>
