<?xml version="1.0" encoding="iso-8859-1"?>
<!-- Generator: Adobe Illustrator 18.0.0, SVG Export Plug-In . SVG Version: 6.00 Build 0)  -->
<!DOCTYPE svg PUBLIC "-//W3C//DTD SVG 1.1//EN" "http://www.w3.org/Graphics/SVG/1.1/DTD/svg11.dtd">
<svg version="1.1" id="Capa_1" xmlns="http://www.w3.org/2000/svg" xmlns:xlink="http://www.w3.org/1999/xlink" x="0px" y="0px"
	 viewBox="0 0 24.018 24.018" style="enable-background:new 0 0 24.018 24.018;" xml:space="preserve">
<g id="_x34__11_">
	<g>
		<path style="fill-rule:evenodd;clip-rule:evenodd;" d="M4.873,12.009l8.563-8.563c0.788-0.788,0.788-2.066,0-2.854
			c-0.788-0.788-2.066-0.788-2.854,0l-9.991,9.991c-0.788,0.788-0.788,2.066,0,2.854l9.991,9.991c0.788,0.788,2.066,0.788,2.854,0
			c0.788-0.788,0.788-2.066,0-2.854L4.873,12.009z M16.93,11.998l6.49-6.514c0.797-0.799,0.797-2.096,0-2.895
			c-0.797-0.799-2.088-0.799-2.885,0l-7.932,7.962c-0.797,0.799-0.669,1.384,0.119,2.172l7.813,8.685
			c0.797,0.799,2.088,0.799,2.885,0c0.797-0.799,0.797-2.096,0-2.895L16.93,11.998z"/>
	</g>
</g>
<g>
</g>
<g>
</g>
<g>
</g>
<g>
</g>
<g>
</g>
<g>
</g>
<g>
</g>
<g>
</g>
<g>
</g>
<g>
</g>
<g>
</g>
<g>
</g>
<g>
</g>
<g>
</g>
<g>
</g>
</svg>
