<?xml version="1.0" encoding="iso-8859-1"?>
<!-- Generator: Adobe Illustrator 18.0.0, SVG Export Plug-In . SVG Version: 6.00 Build 0)  -->
<!DOCTYPE svg PUBLIC "-//W3C//DTD SVG 1.1//EN" "http://www.w3.org/Graphics/SVG/1.1/DTD/svg11.dtd">
<svg version="1.1" id="Capa_1" xmlns="http://www.w3.org/2000/svg" xmlns:xlink="http://www.w3.org/1999/xlink" x="0px" y="0px"
	 viewBox="0 0 612 792" style="enable-background:new 0 0 612 792;" xml:space="preserve">
<g id="_x34_">
	<g>
		<path d="M606.532,381.421l-113.23-113.555c-7.495-7.514-19.656-7.514-27.151,0c-7.495,7.514-7.189,20.42-7.189,32.829v57.361
			H153.038v-57.361c0-12.409,0.306-25.315-7.189-32.829c-7.495-7.514-19.656-7.514-27.151,0L5.468,381.421
			c-3.996,4.015-5.698,9.331-5.43,14.57c-0.268,5.258,1.434,10.573,5.43,14.589l113.249,113.555c7.495,7.514,19.656,7.514,27.151,0
			c7.495-7.514,7.189-24.722,7.189-32.237v-57.361h305.924v57.361c0,12.409-0.306,24.722,7.189,32.237
			c7.495,7.514,19.656,7.514,27.151,0L606.57,410.579c3.996-4.015,5.698-9.331,5.43-14.589
			C612.229,390.751,610.528,385.436,606.532,381.421z"/>
	</g>
</g>
</svg>
