<?xml version="1.0" encoding="iso-8859-1"?>
<!-- Generator: Adobe Illustrator 18.0.0, SVG Export Plug-In . SVG Version: 6.00 Build 0)  -->
<!DOCTYPE svg PUBLIC "-//W3C//DTD SVG 1.1//EN" "http://www.w3.org/Graphics/SVG/1.1/DTD/svg11.dtd">
<svg version="1.1" id="Capa_1" xmlns="http://www.w3.org/2000/svg" xmlns:xlink="http://www.w3.org/1999/xlink" x="0px" y="0px"
	 viewBox="0 0 20 28" style="enable-background:new 0 0 20 28;" xml:space="preserve">
<g id="_x39__5_">
	<g>
		<path style="fill-rule:evenodd;clip-rule:evenodd;" d="M18,8h-7v14.586l5.243-5.243c0.391-0.391,1.024-0.391,1.414,0
			c0.391,0.391,0.391,1.024,0,1.414l-6.9,6.9c-0.208,0.208-0.485,0.297-0.757,0.283c-0.273,0.014-0.549-0.075-0.757-0.283
			l-6.899-6.9c-0.391-0.39-0.391-1.024,0-1.414c0.391-0.391,1.024-0.391,1.414,0L9,22.586V8H2c-1.105,0-2,0.895-2,2v16
			c0,1.105,0.895,2,2,2h16c1.105,0,2-0.895,2-2V10C20,8.895,19.105,8,18,8z M11,1c0-0.552-0.448-1-1-1C9.448,0,9,0.448,9,1v7h2V1z"
			/>
	</g>
</g>
<g>
</g>
<g>
</g>
<g>
</g>
<g>
</g>
<g>
</g>
<g>
</g>
<g>
</g>
<g>
</g>
<g>
</g>
<g>
</g>
<g>
</g>
<g>
</g>
<g>
</g>
<g>
</g>
<g>
</g>
</svg>
