<?xml version="1.0" encoding="iso-8859-1"?>
<!-- Generator: Adobe Illustrator 18.0.0, SVG Export Plug-In . SVG Version: 6.00 Build 0)  -->
<!DOCTYPE svg PUBLIC "-//W3C//DTD SVG 1.1//EN" "http://www.w3.org/Graphics/SVG/1.1/DTD/svg11.dtd">
<svg version="1.1" id="Capa_1" xmlns="http://www.w3.org/2000/svg" xmlns:xlink="http://www.w3.org/1999/xlink" x="0px" y="0px"
	 viewBox="0 0 30 26.004" style="enable-background:new 0 0 30 26.004;" xml:space="preserve">
<g id="_x31__9_">
	<g>
		<path style="fill-rule:evenodd;clip-rule:evenodd;" d="M19,18h-2V9c0-1.105-0.895-2-2-2s-2,0.895-2,2v9h-2
			c-0.392,0-1.295-0.094-1.687,0.3c-0.392,0.394-0.392,1.032,0,1.426l4.942,5.991c0.209,0.21,0.487,0.299,0.76,0.285
			c0.274,0.014,0.551-0.075,0.76-0.285l4.942-5.991c0.392-0.394,0.392-1.032,0-1.426C20.326,17.906,19.705,18,19,18z M29,0H1
			C0.52,0,0,0.52,0,1v7c0,1.105,0.895,2,2,2c1.105,0,2-0.895,2-2V4h22v4c0,1.105,0.895,2,2,2s2-0.895,2-2V1C30,0.458,29.604,0,29,0z
			"/>
	</g>
</g>
<g>
</g>
<g>
</g>
<g>
</g>
<g>
</g>
<g>
</g>
<g>
</g>
<g>
</g>
<g>
</g>
<g>
</g>
<g>
</g>
<g>
</g>
<g>
</g>
<g>
</g>
<g>
</g>
<g>
</g>
</svg>
