<?xml version="1.0" encoding="iso-8859-1"?>
<!-- Generator: Adobe Illustrator 18.0.0, SVG Export Plug-In . SVG Version: 6.00 Build 0)  -->
<!DOCTYPE svg PUBLIC "-//W3C//DTD SVG 1.1//EN" "http://www.w3.org/Graphics/SVG/1.1/DTD/svg11.dtd">
<svg version="1.1" id="Capa_1" xmlns="http://www.w3.org/2000/svg" xmlns:xlink="http://www.w3.org/1999/xlink" x="0px" y="0px"
	 viewBox="0 0 32 32" style="enable-background:new 0 0 32 32;" xml:space="preserve">
<g id="_x32__8_">
	<g>
		<path style="fill-rule:evenodd;clip-rule:evenodd;" d="M28,0H4C1.791,0,0,1.791,0,4v24c0,2.209,1.791,4,4,4h24
			c2.209,0,4-1.791,4-4V4C32,1.791,30.209,0,28,0z M10.282,16.281c0.392-0.393,1.028-0.393,1.42,0L15,20.273V5c0-0.552,0.448-1,1-1
			c0.552,0,1,0.448,1,1v15.235l3.267-3.954c0.392-0.393,1.028-0.393,1.42,0c0.392,0.393,0.392,1.031,0,1.424l-4.942,5.981
			c-0.209,0.21-0.487,0.299-0.76,0.285c-0.274,0.014-0.551-0.075-0.76-0.285l-4.942-5.981C9.89,17.312,9.89,16.674,10.282,16.281z
			 M25,28H7c-0.552,0-1-0.448-1-1s0.448-1,1-1h18c0.552,0,1,0.448,1,1S25.552,28,25,28z"/>
	</g>
</g>
<g>
</g>
<g>
</g>
<g>
</g>
<g>
</g>
<g>
</g>
<g>
</g>
<g>
</g>
<g>
</g>
<g>
</g>
<g>
</g>
<g>
</g>
<g>
</g>
<g>
</g>
<g>
</g>
<g>
</g>
</svg>
