<?xml version="1.0" encoding="iso-8859-1"?>
<!-- Generator: Adobe Illustrator 18.0.0, SVG Export Plug-In . SVG Version: 6.00 Build 0)  -->
<!DOCTYPE svg PUBLIC "-//W3C//DTD SVG 1.1//EN" "http://www.w3.org/Graphics/SVG/1.1/DTD/svg11.dtd">
<svg version="1.1" id="Capa_1" xmlns="http://www.w3.org/2000/svg" xmlns:xlink="http://www.w3.org/1999/xlink" x="0px" y="0px"
	 viewBox="0 0 32 32" style="enable-background:new 0 0 32 32;" xml:space="preserve">
<g id="_x37__2_">
	<g>
		<path style="fill-rule:evenodd;clip-rule:evenodd;" d="M16,0C7.164,0,0,7.163,0,16s7.164,16,16,16c8.836,0,16-7.164,16-16
			S24.837,0,16,0z M22.536,16.879l-5.657,5.657c-0.24,0.24-0.568,0.314-0.879,0.259c-0.31,0.055-0.639-0.02-0.879-0.259
			l-5.657-5.657c-0.391-0.391-0.391-1.024,0-1.414c0.391-0.391,1.024-0.391,1.414,0L15,19.586V9c0-0.552,0.448-1,1-1
			c0.552,0,1,0.448,1,1v10.586l4.121-4.121c0.391-0.391,1.024-0.391,1.414,0C22.926,15.855,22.926,16.488,22.536,16.879z"/>
	</g>
</g>
<g>
</g>
<g>
</g>
<g>
</g>
<g>
</g>
<g>
</g>
<g>
</g>
<g>
</g>
<g>
</g>
<g>
</g>
<g>
</g>
<g>
</g>
<g>
</g>
<g>
</g>
<g>
</g>
<g>
</g>
</svg>
