<?xml version="1.0" encoding="iso-8859-1"?>
<!-- Generator: Adobe Illustrator 18.0.0, SVG Export Plug-In . SVG Version: 6.00 Build 0)  -->
<!DOCTYPE svg PUBLIC "-//W3C//DTD SVG 1.1//EN" "http://www.w3.org/Graphics/SVG/1.1/DTD/svg11.dtd">
<svg version="1.1" id="Capa_1" xmlns="http://www.w3.org/2000/svg" xmlns:xlink="http://www.w3.org/1999/xlink" x="0px" y="0px"
	 viewBox="0 0 32 32" style="enable-background:new 0 0 32 32;" xml:space="preserve">
<g id="_x39__18_">
	<g>
		<path style="fill-rule:evenodd;clip-rule:evenodd;" d="M31.76,8.85L16,0L0.24,8.85L16,20.656L31.76,8.85z M0,11c0,0.448,0,17,0,17
			c0,0.844,0.264,1.624,0.71,2.269l10.356-10.661L0,11z M16,23l-3.258-2.24L2.323,31.621C2.835,31.858,3.399,32,4,32h24
			c0.601,0,1.165-0.142,1.677-0.379L19.258,20.76L16,23z M20.934,19.608L31.29,30.269C31.736,29.624,32,28.844,32,28
			c0,0,0-16.309,0-16.682L20.934,19.608z"/>
	</g>
</g>
<g>
</g>
<g>
</g>
<g>
</g>
<g>
</g>
<g>
</g>
<g>
</g>
<g>
</g>
<g>
</g>
<g>
</g>
<g>
</g>
<g>
</g>
<g>
</g>
<g>
</g>
<g>
</g>
<g>
</g>
</svg>
