<?xml version="1.0" encoding="iso-8859-1"?>
<!-- Generator: Adobe Illustrator 18.0.0, SVG Export Plug-In . SVG Version: 6.00 Build 0)  -->
<!DOCTYPE svg PUBLIC "-//W3C//DTD SVG 1.1//EN" "http://www.w3.org/Graphics/SVG/1.1/DTD/svg11.dtd">
<svg version="1.1" id="Capa_1" xmlns="http://www.w3.org/2000/svg" xmlns:xlink="http://www.w3.org/1999/xlink" x="0px" y="0px"
	 viewBox="0 0 26 28" style="enable-background:new 0 0 26 28;" xml:space="preserve">
<g id="_x36__12_">
	<g>
		<path style="fill-rule:evenodd;clip-rule:evenodd;" d="M25,16.422V2c0-1.105-0.895-2-2-2s-2,0.895-2,2v14.422
			C21.613,16.154,22.288,16,23,16S24.387,16.154,25,16.422z M5,12.422V2c0-1.105-0.895-2-2-2C1.895,0,1,0.895,1,2v10.422
			C1.613,12.154,2.288,12,3,12S4.387,12.154,5,12.422z M1,21.578V26c0,1.104,0.895,2,2,2c1.105,0,2-0.895,2-2v-4.422
			C4.387,21.846,3.712,22,3,22S1.613,21.846,1,21.578z M15,2.422V2c0-1.105-0.895-2-2-2c-1.105,0-2,0.895-2,2v0.422
			C11.613,2.154,12.288,2,13,2S14.387,2.154,15,2.422z M13,4c-1.657,0-3,1.343-3,3c0,1.657,1.343,3,3,3s3-1.343,3-3
			C16,5.343,14.657,4,13,4z M3,14c-1.657,0-3,1.343-3,3c0,1.657,1.343,3,3,3s3-1.343,3-3C6,15.343,4.657,14,3,14z M21,25.578V26
			c0,1.104,0.895,2,2,2s2-0.895,2-2v-0.422C24.387,25.846,23.712,26,23,26S21.613,25.846,21,25.578z M23,18c-1.657,0-3,1.343-3,3
			c0,1.657,1.343,3,3,3s3-1.343,3-3C26,19.343,24.657,18,23,18z M11,11.578V26c0,1.104,0.895,2,2,2c1.105,0,2-0.895,2-2V11.578
			C14.387,11.846,13.712,12,13,12S11.613,11.846,11,11.578z"/>
	</g>
</g>
<g>
</g>
<g>
</g>
<g>
</g>
<g>
</g>
<g>
</g>
<g>
</g>
<g>
</g>
<g>
</g>
<g>
</g>
<g>
</g>
<g>
</g>
<g>
</g>
<g>
</g>
<g>
</g>
<g>
</g>
</svg>
