<?xml version="1.0" encoding="iso-8859-1"?>
<!-- Generator: Adobe Illustrator 18.0.0, SVG Export Plug-In . SVG Version: 6.00 Build 0)  -->
<!DOCTYPE svg PUBLIC "-//W3C//DTD SVG 1.1//EN" "http://www.w3.org/Graphics/SVG/1.1/DTD/svg11.dtd">
<svg version="1.1" id="Capa_1" xmlns="http://www.w3.org/2000/svg" xmlns:xlink="http://www.w3.org/1999/xlink" x="0px" y="0px"
	 viewBox="0 0 32 32" style="enable-background:new 0 0 32 32;" xml:space="preserve">
<g id="_x32__16_">
	<g>
		<path style="fill-rule:evenodd;clip-rule:evenodd;" d="M11,22.6c-1.325,0-2.4,1.074-2.4,2.4c0,1.325,1.075,2.4,2.4,2.4
			c1.326,0,2.4-1.075,2.4-2.4C13.4,23.675,12.326,22.6,11,22.6z M11,6.6C9.675,6.6,8.6,7.675,8.6,9c0,1.326,1.075,2.4,2.4,2.4
			c1.326,0,2.4-1.074,2.4-2.4C13.4,7.675,12.326,6.6,11,6.6z M20,14.6c-1.326,0-2.4,1.074-2.4,2.4c0,1.325,1.074,2.4,2.4,2.4
			c1.325,0,2.4-1.075,2.4-2.4C22.4,15.675,21.326,14.6,20,14.6z M28,0H4C1.791,0,0,1.791,0,4v24c0,2.209,1.791,4,4,4h24
			c2.209,0,4-1.791,4-4V4C32,1.791,30.209,0,28,0z M26,26H14.859c-0.446,1.722-1.997,3-3.859,3c-1.862,0-3.412-1.278-3.858-3H6
			c-0.552,0-1-0.448-1-1s0.448-1,1-1h1.141c0.446-1.722,1.997-3,3.858-3s3.412,1.278,3.859,3H26c0.552,0,1,0.448,1,1
			S26.552,26,26,26z M26,18h-2.141c-0.446,1.722-1.997,3-3.859,3c-1.862,0-3.412-1.278-3.859-3H6c-0.552,0-1-0.448-1-1
			c0-0.552,0.448-1,1-1h10.141c0.446-1.722,1.997-3,3.859-3c1.862,0,3.412,1.278,3.859,3H26c0.552,0,1,0.448,1,1
			C27,17.552,26.552,18,26,18z M26,10H14.859c-0.446,1.722-1.997,3-3.859,3s-3.412-1.278-3.859-3H6c-0.552,0-1-0.448-1-1
			c0-0.552,0.448-1,1-1h1.141C7.588,6.278,9.138,5,11,5s3.413,1.278,3.859,3H26c0.552,0,1,0.448,1,1C27,9.552,26.552,10,26,10z"/>
	</g>
</g>
<g>
</g>
<g>
</g>
<g>
</g>
<g>
</g>
<g>
</g>
<g>
</g>
<g>
</g>
<g>
</g>
<g>
</g>
<g>
</g>
<g>
</g>
<g>
</g>
<g>
</g>
<g>
</g>
<g>
</g>
</svg>
