<?xml version="1.0" encoding="iso-8859-1"?>
<!-- Generator: Adobe Illustrator 18.0.0, SVG Export Plug-In . SVG Version: 6.00 Build 0)  -->
<!DOCTYPE svg PUBLIC "-//W3C//DTD SVG 1.1//EN" "http://www.w3.org/Graphics/SVG/1.1/DTD/svg11.dtd">
<svg version="1.1" id="Capa_1" xmlns="http://www.w3.org/2000/svg" xmlns:xlink="http://www.w3.org/1999/xlink" x="0px" y="0px"
	 viewBox="0 0 30 32" style="enable-background:new 0 0 30 32;" xml:space="preserve">
<g id="_x37__13_">
	<g>
		<path style="fill-rule:evenodd;clip-rule:evenodd;" d="M6,16h2v-2H6V16z M6,24h2v-2H6V24z M22,16h2v-2h-2V16z M14,24h2v-2h-2V24z
			 M22,24h2v-2h-2V24z M26,0H4C1.791,0,0,1.791,0,4v24c0,2.209,1.791,4,4,4h22c2.209,0,4-1.791,4-4V4C30,1.791,28.209,0,26,0z M7,26
			c-1.657,0-3-1.343-3-3c0-1.657,1.343-3,3-3c1.657,0,3,1.343,3,3C10,24.657,8.657,26,7,26z M7,18c-1.657,0-3-1.343-3-3
			c0-1.657,1.343-3,3-3c1.657,0,3,1.343,3,3C10,16.657,8.657,18,7,18z M15,26c-1.657,0-3-1.343-3-3c0-1.657,1.343-3,3-3
			c1.657,0,3,1.343,3,3C18,24.657,16.657,26,15,26z M15,18c-1.657,0-3-1.343-3-3c0-1.657,1.343-3,3-3c1.657,0,3,1.343,3,3
			C18,16.657,16.657,18,15,18z M23,26c-1.657,0-3-1.343-3-3c0-1.657,1.343-3,3-3c1.657,0,3,1.343,3,3C26,24.657,24.657,26,23,26z
			 M23,18c-1.657,0-3-1.343-3-3c0-1.657,1.343-3,3-3c1.657,0,3,1.343,3,3C26,16.657,24.657,18,23,18z M28,6H2V4c0-1.105,0.895-2,2-2
			h22c1.105,0,2,0.896,2,2V6z M14,16h2v-2h-2V16z"/>
	</g>
</g>
<g>
</g>
<g>
</g>
<g>
</g>
<g>
</g>
<g>
</g>
<g>
</g>
<g>
</g>
<g>
</g>
<g>
</g>
<g>
</g>
<g>
</g>
<g>
</g>
<g>
</g>
<g>
</g>
<g>
</g>
</svg>
