<?xml version="1.0" encoding="iso-8859-1"?>
<!-- Generator: Adobe Illustrator 18.0.0, SVG Export Plug-In . SVG Version: 6.00 Build 0)  -->
<!DOCTYPE svg PUBLIC "-//W3C//DTD SVG 1.1//EN" "http://www.w3.org/Graphics/SVG/1.1/DTD/svg11.dtd">
<svg version="1.1" id="Capa_1" xmlns="http://www.w3.org/2000/svg" xmlns:xlink="http://www.w3.org/1999/xlink" x="0px" y="0px"
	 viewBox="0 0 31.977 31.996" style="enable-background:new 0 0 31.977 31.996;" xml:space="preserve">
<g id="_x35_">
	<g>
		<path style="fill-rule:evenodd;clip-rule:evenodd;" d="M10.989,17.998l-6.254,6.378l-2.181-2.181
			c-0.472-0.472-0.951-0.974-1.522-0.975S-0.001,21.681,0,22.252l0.012,8.623c0,0.305,0.138,0.571,0.348,0.761
			c0.19,0.21,0.457,0.347,0.761,0.348l8.624,0.012c0.571,0.001,1.033-0.461,1.032-1.032c-0.001-0.571-0.667-1.213-0.953-1.499
			l-2.181-2.181l6.346-6.286L10.989,17.998z M31.965,1.147c0-0.312-0.14-0.585-0.354-0.779c-0.193-0.215-0.464-0.355-0.774-0.356
			L22.068,0c-0.58-0.001-1.05,0.472-1.05,1.056c0.001,0.584,0.678,1.242,0.969,1.534l2.218,2.232l-6.216,6.175l3,3l6.173-6.199
			l2.218,2.232c0.48,0.483,0.967,0.997,1.547,0.998c0.581,0.001,1.05-0.472,1.05-1.056L31.965,1.147z"/>
	</g>
</g>
<g>
</g>
<g>
</g>
<g>
</g>
<g>
</g>
<g>
</g>
<g>
</g>
<g>
</g>
<g>
</g>
<g>
</g>
<g>
</g>
<g>
</g>
<g>
</g>
<g>
</g>
<g>
</g>
<g>
</g>
</svg>
