<?xml version="1.0" encoding="iso-8859-1"?>
<!-- Generator: Adobe Illustrator 18.0.0, SVG Export Plug-In . SVG Version: 6.00 Build 0)  -->
<!DOCTYPE svg PUBLIC "-//W3C//DTD SVG 1.1//EN" "http://www.w3.org/Graphics/SVG/1.1/DTD/svg11.dtd">
<svg version="1.1" id="Capa_1" xmlns="http://www.w3.org/2000/svg" xmlns:xlink="http://www.w3.org/1999/xlink" x="0px" y="0px"
	 viewBox="0 0 32 32" style="enable-background:new 0 0 32 32;" xml:space="preserve">
<g id="_x32__4_">
	<g>
		<path style="fill-rule:evenodd;clip-rule:evenodd;" d="M28,0H4C1.791,0,0,1.791,0,4v24c0,2.209,1.791,4,4,4h24
			c2.209,0,4-1.791,4-4V4C32,1.791,30.209,0,28,0z M12,24c0.552,0,1,0.448,1,1c0,0.552-0.448,1-1,1l-4.972,0
			c-0.28,0-0.531-0.116-0.712-0.301C6.122,25.535,6,25.296,6,25v-5c0-0.552,0.448-1,1-1c0.552,0,1,0.448,1,1l-0.022,2.566
			l4.778-4.778l1.414,1.414L9.372,24L12,24z M12.756,14.213L7.978,9.434L8,12c0,0.552-0.448,1-1,1c-0.552,0-1-0.448-1-1V7
			c0-0.296,0.122-0.535,0.316-0.7C6.497,6.116,6.749,6,7.028,6L12,6c0.552,0,1,0.448,1,1c0,0.552-0.448,1-1,1L9.372,8l4.799,4.799
			L12.756,14.213z M26,25c0,0.296-0.122,0.535-0.316,0.7C25.503,25.885,25.251,26,24.972,26L20,26c-0.552,0-1-0.448-1-1
			c0-0.552,0.448-1,1-1l2.628,0l-4.799-4.799l1.414-1.414l4.778,4.778L24,20c0-0.552,0.448-1,1-1c0.552,0,1,0.448,1,1V25z M26,12
			c0,0.552-0.448,1-1,1c-0.552,0-1-0.448-1-1l0.022-2.566l-4.778,4.778l-1.414-1.414L22.628,8L20,8c-0.552,0-1-0.448-1-1
			c0-0.552,0.448-1,1-1l4.972,0c0.279,0,0.531,0.116,0.712,0.301C25.878,6.465,26,6.704,26,7V12z"/>
	</g>
</g>
<g>
</g>
<g>
</g>
<g>
</g>
<g>
</g>
<g>
</g>
<g>
</g>
<g>
</g>
<g>
</g>
<g>
</g>
<g>
</g>
<g>
</g>
<g>
</g>
<g>
</g>
<g>
</g>
<g>
</g>
</svg>
