<?xml version="1.0" encoding="iso-8859-1"?>
<!-- Generator: Adobe Illustrator 18.0.0, SVG Export Plug-In . SVG Version: 6.00 Build 0)  -->
<!DOCTYPE svg PUBLIC "-//W3C//DTD SVG 1.1//EN" "http://www.w3.org/Graphics/SVG/1.1/DTD/svg11.dtd">
<svg version="1.1" id="Capa_1" xmlns="http://www.w3.org/2000/svg" xmlns:xlink="http://www.w3.org/1999/xlink" x="0px" y="0px"
	 viewBox="0 0 24.018 24.018" style="enable-background:new 0 0 24.018 24.018;" xml:space="preserve">
<g id="_x35__11_">
	<g>
		<path style="fill-rule:evenodd;clip-rule:evenodd;" d="M23.427,10.582l-9.991-9.991c-0.788-0.788-2.066-0.788-2.854,0
			s-0.788,2.066,0,2.854l8.563,8.563l-8.563,8.563c-0.788,0.788-0.788,2.066,0,2.854s2.066,0.788,2.854,0l9.991-9.991
			C24.215,12.648,24.215,11.37,23.427,10.582z M11.414,9.977l-7.932-8.36c-0.797-0.839-2.088-0.839-2.885,0
			c-0.797,0.839-0.797,2.2,0,3.04l6.49,6.84l-6.49,6.84c-0.797,0.839-0.797,2.201,0,3.04c0.797,0.839,2.088,0.839,2.885,0
			l7.932-8.36C12.211,12.178,12.211,10.817,11.414,9.977z"/>
	</g>
</g>
<g>
</g>
<g>
</g>
<g>
</g>
<g>
</g>
<g>
</g>
<g>
</g>
<g>
</g>
<g>
</g>
<g>
</g>
<g>
</g>
<g>
</g>
<g>
</g>
<g>
</g>
<g>
</g>
<g>
</g>
</svg>
