<?xml version="1.0" encoding="iso-8859-1"?>
<!-- Generator: Adobe Illustrator 18.0.0, SVG Export Plug-In . SVG Version: 6.00 Build 0)  -->
<!DOCTYPE svg PUBLIC "-//W3C//DTD SVG 1.1//EN" "http://www.w3.org/Graphics/SVG/1.1/DTD/svg11.dtd">
<svg version="1.1" id="Capa_1" xmlns="http://www.w3.org/2000/svg" xmlns:xlink="http://www.w3.org/1999/xlink" x="0px" y="0px"
	 viewBox="0 0 28 32" style="enable-background:new 0 0 28 32;" xml:space="preserve">
<g id="_x33__21_">
	<g>
		<path style="fill-rule:evenodd;clip-rule:evenodd;" d="M21,0.031C20.876,0.031,9,0,9,0C6.884,0,5,1.941,5,4L3.844,4.027
			C1.729,4.027,0,5.941,0,8v20c0,2.059,1.884,4,4,4h15c2.116,0,4-1.941,4-4h1c2.116,0,4-1.941,4-4V8.024L21,0.031z M19,30H4
			c-1.05,0-2-0.981-2-2V8c0-1.488,1.224-2,3-2v18c0,2.059,1.884,4,4,4c0,0,10.842-0.011,12.009-0.011C21.009,29.203,20.213,30,19,30
			z M21,21.011h-9c-0.552,0-1-0.447-1-0.999c0-0.552,0.448-0.999,1-0.999h9c0.552,0,1,0.447,1,0.999
			C22,20.564,21.552,21.011,21,21.011z M21,16.016h-9c-0.552,0-1-0.447-1-0.999c0-0.552,0.448-0.999,1-0.999h9
			c0.552,0,1,0.447,1,0.999C22,15.568,21.552,16.016,21,16.016z M23,8c-1.065,0-2-0.961-2-2c0,0,0-2.026,0-3.969V2.029L26,8H23z"/>
	</g>
</g>
<g>
</g>
<g>
</g>
<g>
</g>
<g>
</g>
<g>
</g>
<g>
</g>
<g>
</g>
<g>
</g>
<g>
</g>
<g>
</g>
<g>
</g>
<g>
</g>
<g>
</g>
<g>
</g>
<g>
</g>
</svg>
