<?xml version="1.0" encoding="iso-8859-1"?>
<!-- Generator: Adobe Illustrator 18.0.0, SVG Export Plug-In . SVG Version: 6.00 Build 0)  -->
<!DOCTYPE svg PUBLIC "-//W3C//DTD SVG 1.1//EN" "http://www.w3.org/Graphics/SVG/1.1/DTD/svg11.dtd">
<svg version="1.1" id="Capa_1" xmlns="http://www.w3.org/2000/svg" xmlns:xlink="http://www.w3.org/1999/xlink" x="0px" y="0px"
	 viewBox="0 0 26 32" style="enable-background:new 0 0 26 32;" xml:space="preserve">
<g id="_x31__21_">
	<g>
		<path style="fill-rule:evenodd;clip-rule:evenodd;" d="M18,0.029C17.871,0.029,4,0,4,0C1.791,0,0,1.791,0,4v24
			c0,2.209,1.791,4,4,4h18c2.209,0,4-1.791,4-4V8L18,0.029z M19,24H7c-0.552,0-1-0.448-1-1c0-0.552,0.448-1,1-1h12
			c0.552,0,1,0.448,1,1C20,23.552,19.552,24,19,24z M19,18H7c-0.552,0-1-0.448-1-1c0-0.552,0.448-1,1-1h12c0.552,0,1,0.448,1,1
			C20,17.552,19.552,18,19,18z M20,8c-1.105,0-2-0.896-2-2c0,0,0-1.619,0-4l6,6H20z"/>
	</g>
</g>
<g>
</g>
<g>
</g>
<g>
</g>
<g>
</g>
<g>
</g>
<g>
</g>
<g>
</g>
<g>
</g>
<g>
</g>
<g>
</g>
<g>
</g>
<g>
</g>
<g>
</g>
<g>
</g>
<g>
</g>
</svg>
