<?xml version="1.0" encoding="iso-8859-1"?>
<!-- Generator: Adobe Illustrator 18.0.0, SVG Export Plug-In . SVG Version: 6.00 Build 0)  -->
<!DOCTYPE svg PUBLIC "-//W3C//DTD SVG 1.1//EN" "http://www.w3.org/Graphics/SVG/1.1/DTD/svg11.dtd">
<svg version="1.1" id="Capa_1" xmlns="http://www.w3.org/2000/svg" xmlns:xlink="http://www.w3.org/1999/xlink" x="0px" y="0px"
	 viewBox="0 0 25 32" style="enable-background:new 0 0 25 32;" xml:space="preserve">
<g id="_x33__9_">
	<g>
		<path style="fill-rule:evenodd;clip-rule:evenodd;" d="M6,21H4V3h2V2c0,0-0.036-2-2-2H2C0.896,0,0,0.895,0,2v28
			c0,1.105,0.896,2,2,2h2c1.105,0,2-0.895,2-2L6,21L6,21L6,21z M23,7h-6l0,17h6c1.105,0,2-0.895,2-2V9C25,7.895,24.105,7,23,7z
			 M6,7.68L6,21h9V3H6V7.68z"/>
	</g>
</g>
<g>
</g>
<g>
</g>
<g>
</g>
<g>
</g>
<g>
</g>
<g>
</g>
<g>
</g>
<g>
</g>
<g>
</g>
<g>
</g>
<g>
</g>
<g>
</g>
<g>
</g>
<g>
</g>
<g>
</g>
</svg>
