<?xml version="1.0" encoding="iso-8859-1"?>
<!-- Generator: Adobe Illustrator 18.0.0, SVG Export Plug-In . SVG Version: 6.00 Build 0)  -->
<!DOCTYPE svg PUBLIC "-//W3C//DTD SVG 1.1//EN" "http://www.w3.org/Graphics/SVG/1.1/DTD/svg11.dtd">
<svg version="1.1" id="Capa_1" xmlns="http://www.w3.org/2000/svg" xmlns:xlink="http://www.w3.org/1999/xlink" x="0px" y="0px"
	 viewBox="0 0 32 30" style="enable-background:new 0 0 32 30;" xml:space="preserve">
<g id="_x39__7_">
	<g>
		<path style="fill-rule:evenodd;clip-rule:evenodd;" d="M17,28H7c-0.552,0-1,0.448-1,1c0,0.552,0.448,1,1,1h10c0.552,0,1-0.448,1-1
			C18,28.448,17.552,28,17,28z M31,20H16.434C16.172,18.871,16,17.708,16,16.5c0-6.878,4.484-12.701,10.684-14.727
			C24.535,0.646,22.095,0,19.5,0C10.94,0,4,6.939,4,15.5c0,1.566,0.237,3.075,0.669,4.5H1c-0.552,0-1,0.448-1,1c0,0.552,0.448,1,1,1
			h30c0.552,0,1-0.448,1-1C32,20.448,31.552,20,31,20z M19,24H5c-0.552,0-1,0.448-1,1c0,0.552,0.448,1,1,1h14c0.552,0,1-0.448,1-1
			C20,24.447,19.552,24,19,24z"/>
	</g>
</g>
<g>
</g>
<g>
</g>
<g>
</g>
<g>
</g>
<g>
</g>
<g>
</g>
<g>
</g>
<g>
</g>
<g>
</g>
<g>
</g>
<g>
</g>
<g>
</g>
<g>
</g>
<g>
</g>
<g>
</g>
</svg>
