<?xml version="1.0" encoding="iso-8859-1"?>
<!-- Generator: Adobe Illustrator 18.0.0, SVG Export Plug-In . SVG Version: 6.00 Build 0)  -->
<!DOCTYPE svg PUBLIC "-//W3C//DTD SVG 1.1//EN" "http://www.w3.org/Graphics/SVG/1.1/DTD/svg11.dtd">
<svg version="1.1" id="Capa_1" xmlns="http://www.w3.org/2000/svg" xmlns:xlink="http://www.w3.org/1999/xlink" x="0px" y="0px"
	 viewBox="0 0 32 32" style="enable-background:new 0 0 32 32;" xml:space="preserve">
<g id="_x36__7_">
	<g>
		<path style="fill-rule:evenodd;clip-rule:evenodd;" d="M21,30H11c-0.552,0-1,0.448-1,1s0.448,1,1,1h4.996c0.001,0,0.003,0,0.004,0
			c0.001,0,0.003,0,0.004,0H21c0.552,0,1-0.448,1-1S21.552,30,21,30z M31.476,20C31.806,18.719,32,17.384,32,16
			c0-8.836-7.163-16-16-16S0,7.164,0,16c0,1.384,0.194,2.719,0.524,4H31.476z M28,26H4c-0.552,0-1,0.448-1,1c0,0.552,0.448,1,1,1h24
			c0.552,0,1-0.448,1-1C29,26.448,28.552,26,28,26z M31,22H1c-0.552,0-1,0.448-1,1c0,0.552,0.448,1,1,1h30c0.552,0,1-0.448,1-1
			C32,22.448,31.552,22,31,22z"/>
	</g>
</g>
<g>
</g>
<g>
</g>
<g>
</g>
<g>
</g>
<g>
</g>
<g>
</g>
<g>
</g>
<g>
</g>
<g>
</g>
<g>
</g>
<g>
</g>
<g>
</g>
<g>
</g>
<g>
</g>
<g>
</g>
</svg>
