<?xml version="1.0" encoding="iso-8859-1"?>
<!-- Generator: Adobe Illustrator 18.0.0, SVG Export Plug-In . SVG Version: 6.00 Build 0)  -->
<!DOCTYPE svg PUBLIC "-//W3C//DTD SVG 1.1//EN" "http://www.w3.org/Graphics/SVG/1.1/DTD/svg11.dtd">
<svg version="1.1" id="Capa_1" xmlns="http://www.w3.org/2000/svg" xmlns:xlink="http://www.w3.org/1999/xlink" x="0px" y="0px"
	 viewBox="0 0 10 32" style="enable-background:new 0 0 10 32;" xml:space="preserve">
<g id="_x31__14_">
	<g>
		<path style="fill-rule:evenodd;clip-rule:evenodd;" d="M9,0C8.448,0,8,0.448,8,1v6.765c0,1.407-0.838,2.592-2,3.037V1
			c0-0.552-0.448-1-1-1C4.448,0,4,0.448,4,1v9.802c-1.163-0.446-2-1.63-2-3.037V1c0-0.552-0.448-1-1-1S0,0.448,0,1v7
			c0,2.048,1.237,3.797,3,4.57V30c0,1.035,0.79,1.877,1.798,1.98C4.863,31.993,4.931,32,5,32c0.069,0,0.137-0.007,0.202-0.02
			C6.21,31.877,7,31.035,7,30V12.57c1.763-0.773,3-2.522,3-4.57V1C10,0.448,9.552,0,9,0z"/>
	</g>
</g>
<g>
</g>
<g>
</g>
<g>
</g>
<g>
</g>
<g>
</g>
<g>
</g>
<g>
</g>
<g>
</g>
<g>
</g>
<g>
</g>
<g>
</g>
<g>
</g>
<g>
</g>
<g>
</g>
<g>
</g>
</svg>
