<?xml version="1.0" encoding="iso-8859-1"?>
<!-- Generator: Adobe Illustrator 18.0.0, SVG Export Plug-In . SVG Version: 6.00 Build 0)  -->
<!DOCTYPE svg PUBLIC "-//W3C//DTD SVG 1.1//EN" "http://www.w3.org/Graphics/SVG/1.1/DTD/svg11.dtd">
<svg version="1.1" id="Capa_1" xmlns="http://www.w3.org/2000/svg" xmlns:xlink="http://www.w3.org/1999/xlink" x="0px" y="0px"
	 viewBox="0 0 28 28" style="enable-background:new 0 0 28 28;" xml:space="preserve">
<g id="_x31__5_">
	<g>
		<path style="fill-rule:evenodd;clip-rule:evenodd;" d="M8,16H4c-2.209,0-4,1.791-4,4v4c0,2.209,1.791,4,4,4h4c2.209,0,4-1.791,4-4
			v-4C12,17.791,10.209,16,8,16z M8,0H4C1.791,0,0,1.791,0,4v4c0,2.209,1.791,4,4,4h4c2.209,0,4-1.791,4-4V4C12,1.791,10.209,0,8,0z
			 M24,16h-4c-2.209,0-4,1.791-4,4v4c0,2.209,1.791,4,4,4h4c2.209,0,4-1.791,4-4v-4C28,17.791,26.209,16,24,16z M24,0h-4
			c-2.209,0-4,1.791-4,4v4c0,2.209,1.791,4,4,4h4c2.209,0,4-1.791,4-4V4C28,1.791,26.209,0,24,0z"/>
	</g>
</g>
<g>
</g>
<g>
</g>
<g>
</g>
<g>
</g>
<g>
</g>
<g>
</g>
<g>
</g>
<g>
</g>
<g>
</g>
<g>
</g>
<g>
</g>
<g>
</g>
<g>
</g>
<g>
</g>
<g>
</g>
</svg>
