<?xml version="1.0" encoding="iso-8859-1"?>
<!-- Generator: Adobe Illustrator 18.0.0, SVG Export Plug-In . SVG Version: 6.00 Build 0)  -->
<!DOCTYPE svg PUBLIC "-//W3C//DTD SVG 1.1//EN" "http://www.w3.org/Graphics/SVG/1.1/DTD/svg11.dtd">
<svg version="1.1" id="Capa_1" xmlns="http://www.w3.org/2000/svg" xmlns:xlink="http://www.w3.org/1999/xlink" x="0px" y="0px"
	 viewBox="0 0 32 22" style="enable-background:new 0 0 32 22;" xml:space="preserve">
<g id="_x35__14_">
	<g>
		<path style="fill-rule:evenodd;clip-rule:evenodd;" d="M28,0H4C1.791,0,0,1.791,0,4v14c0,2.209,1.791,4,4,4h24
			c2.209,0,4-1.791,4-4V4C32,1.791,30.209,0,28,0z M5,16c-0.552,0-1-0.448-1-1c0-0.552,0.448-1,1-1c0.552,0,1,0.448,1,1
			C6,15.552,5.552,16,5,16z M5,12c-0.552,0-1-0.448-1-1c0-0.552,0.448-1,1-1c0.552,0,1,0.448,1,1C6,11.552,5.552,12,5,12z M24,17
			c0,0.552-0.448,1-1,1H9c-0.552,0-1-0.448-1-1V5c0-0.552,0.448-1,1-1h14c0.552,0,1,0.448,1,1V17z M27,16c-0.552,0-1-0.448-1-1
			c0-0.552,0.448-1,1-1c0.552,0,1,0.448,1,1C28,15.552,27.552,16,27,16z M27,12c-0.552,0-1-0.448-1-1c0-0.552,0.448-1,1-1
			c0.552,0,1,0.448,1,1C28,11.552,27.552,12,27,12z M21,6H11c-0.552,0-1,0.448-1,1v8c0,0.552,0.448,1,1,1h10c0.552,0,1-0.448,1-1V7
			C22,6.448,21.552,6,21,6z"/>
	</g>
</g>
<g>
</g>
<g>
</g>
<g>
</g>
<g>
</g>
<g>
</g>
<g>
</g>
<g>
</g>
<g>
</g>
<g>
</g>
<g>
</g>
<g>
</g>
<g>
</g>
<g>
</g>
<g>
</g>
<g>
</g>
</svg>
