<?xml version="1.0" encoding="iso-8859-1"?>
<!-- Generator: Adobe Illustrator 18.0.0, SVG Export Plug-In . SVG Version: 6.00 Build 0)  -->
<!DOCTYPE svg PUBLIC "-//W3C//DTD SVG 1.1//EN" "http://www.w3.org/Graphics/SVG/1.1/DTD/svg11.dtd">
<svg version="1.1" id="Capa_1" xmlns="http://www.w3.org/2000/svg" xmlns:xlink="http://www.w3.org/1999/xlink" x="0px" y="0px"
	 viewBox="0 0 26 32" style="enable-background:new 0 0 26 32;" xml:space="preserve">
<g id="_x37__14_">
	<g>
		<path style="fill-rule:evenodd;clip-rule:evenodd;" d="M22,0H4C1.791,0,0,1.791,0,4v24c0,2.209,1.791,4,4,4h18
			c2.209,0,4-1.791,4-4V4C26,1.791,24.209,0,22,0z M9,26H8v1c0,0.552-0.448,1-1,1c-0.552,0-1-0.448-1-1v-1H5c-0.552,0-1-0.448-1-1
			s0.448-1,1-1h1v-1c0-0.552,0.448-1,1-1c0.552,0,1,0.448,1,1v1h1c0.552,0,1,0.448,1,1S9.552,26,9,26z M15,28c-0.552,0-1-0.448-1-1
			c0-0.552,0.448-1,1-1c0.552,0,1,0.448,1,1C16,27.552,15.552,28,15,28z M16,24c-0.552,0-1-0.448-1-1c0-0.552,0.448-1,1-1
			c0.552,0,1,0.448,1,1C17,23.552,16.552,24,16,24z M20,28c-0.552,0-1-0.448-1-1c0-0.552,0.448-1,1-1c0.552,0,1,0.448,1,1
			C21,27.552,20.552,28,20,28z M21,24c-0.552,0-1-0.448-1-1c0-0.552,0.448-1,1-1s1,0.448,1,1C22,23.552,21.552,24,21,24z M22,18
			c0,1.104-0.895,2-2,2H6c-1.105,0-2-0.896-2-2V6c0-1.105,0.895-2,2-2h14c1.105,0,2,0.895,2,2V18z M19,6H7C6.448,6,6,6.448,6,7v10
			c0,0.552,0.448,1,1,1h12c0.552,0,1-0.448,1-1V7C20,6.448,19.552,6,19,6z"/>
	</g>
</g>
<g>
</g>
<g>
</g>
<g>
</g>
<g>
</g>
<g>
</g>
<g>
</g>
<g>
</g>
<g>
</g>
<g>
</g>
<g>
</g>
<g>
</g>
<g>
</g>
<g>
</g>
<g>
</g>
<g>
</g>
</svg>
