<?xml version="1.0" encoding="iso-8859-1"?>
<!-- Generator: Adobe Illustrator 18.0.0, SVG Export Plug-In . SVG Version: 6.00 Build 0)  -->
<!DOCTYPE svg PUBLIC "-//W3C//DTD SVG 1.1//EN" "http://www.w3.org/Graphics/SVG/1.1/DTD/svg11.dtd">
<svg version="1.1" id="Capa_1" xmlns="http://www.w3.org/2000/svg" xmlns:xlink="http://www.w3.org/1999/xlink" x="0px" y="0px"
	 viewBox="0 0 32 32" style="enable-background:new 0 0 32 32;" xml:space="preserve">
<g id="_x31__8_">
	<g>
		<path style="fill-rule:evenodd;clip-rule:evenodd;" d="M17,20h11v2H17v8h-2v-8H4v-2h11v-8H2v16c0,2.209,1.791,4,4,4h20
			c2.209,0,4-1.791,4-4V12H17V20z M30,6h-7.555C22.789,5.41,23,4.732,23,4c0-2.209-1.791-4-4-4c-1.202,0-2.267,0.541-3,1.38
			C15.267,0.541,14.202,0,13,0c-2.209,0-4,1.791-4,4c0,0.732,0.211,1.41,0.555,2H2C0.895,6,0,6.896,0,8v2h32V8
			C32,6.896,31.105,6,30,6z M13,6c-1.105,0-2-0.895-2-2c0-1.105,0.895-2,2-2s2,0.895,2,2C15,5.105,14.105,6,13,6z M19,6
			c-1.105,0-2-0.895-2-2c0-1.105,0.895-2,2-2s2,0.895,2,2C21,5.105,20.105,6,19,6z"/>
	</g>
</g>
<g>
</g>
<g>
</g>
<g>
</g>
<g>
</g>
<g>
</g>
<g>
</g>
<g>
</g>
<g>
</g>
<g>
</g>
<g>
</g>
<g>
</g>
<g>
</g>
<g>
</g>
<g>
</g>
<g>
</g>
</svg>
