<?xml version="1.0" encoding="iso-8859-1"?>
<!-- Generator: Adobe Illustrator 18.0.0, SVG Export Plug-In . SVG Version: 6.00 Build 0)  -->
<!DOCTYPE svg PUBLIC "-//W3C//DTD SVG 1.1//EN" "http://www.w3.org/Graphics/SVG/1.1/DTD/svg11.dtd">
<svg version="1.1" id="Capa_1" xmlns="http://www.w3.org/2000/svg" xmlns:xlink="http://www.w3.org/1999/xlink" x="0px" y="0px"
	 viewBox="0 0 31.99 32" style="enable-background:new 0 0 31.99 32;" xml:space="preserve">
<g id="_x33__10_">
	<g>
		<path style="fill-rule:evenodd;clip-rule:evenodd;" d="M12.665,22.142c1.09-0.092,2.2-0.142,3.33-0.142
			c1.13,0,2.24,0.05,3.33,0.142c0.344-1.805,0.571-3.565,0.645-5.142h-7.949C12.094,18.577,12.321,20.337,12.665,22.142z
			 M19.325,9.858C18.235,9.95,17.125,10,15.995,10s-2.24-0.05-3.33-0.142c-0.344,1.805-0.571,3.565-0.645,5.142h7.949
			C19.896,13.423,19.669,11.662,19.325,9.858z M15.995,8.025c0.87,0,1.858-0.07,2.905-0.189c-0.667-2.893-1.557-5.718-2.446-7.813
			C16.3,0.019,16.15,0,15.995,0c-0.155,0-0.305,0.019-0.459,0.023c-0.887,2.09-1.775,4.905-2.442,7.791
			C14.11,7.94,15.097,8.025,15.995,8.025z M21.289,9.613c0.357,1.923,0.603,3.776,0.682,5.387H31.99
			c-0.172-2.743-1.039-5.293-2.424-7.488L28.178,8C26.057,8.747,23.731,9.279,21.289,9.613z M28.389,5.872
			C26.024,3,22.682,0.959,18.864,0.27c0.715,2.073,1.436,4.672,2.011,7.296C23.438,7.158,26.156,6.528,28.389,5.872z M13.126,0.27
			C9.41,0.941,6.14,2.89,3.788,5.642c2.153,0.714,4.778,1.418,7.338,1.875C11.7,4.91,12.416,2.33,13.126,0.27z M18.864,31.73
			c3.716-0.671,6.986-2.62,9.338-5.372c-2.153-0.714-4.778-1.417-7.338-1.875C20.29,27.09,19.574,29.67,18.864,31.73z
			 M21.289,22.386c2.442,0.335,4.768,0.867,6.889,1.614l1.389,0.488c1.384-2.195,2.252-4.745,2.424-7.488H21.971
			C21.892,18.61,21.646,20.464,21.289,22.386z M15.995,23.975c-0.898,0-1.885,0.085-2.901,0.211
			c0.666,2.885,1.555,5.701,2.442,7.791C15.69,31.981,15.84,32,15.995,32c0.155,0,0.305-0.019,0.459-0.023
			c0.887-2.09,1.776-4.905,2.442-7.791C17.88,24.06,16.893,23.975,15.995,23.975z M10.701,22.386
			c-0.357-1.923-0.603-3.776-0.682-5.386H0c0.172,2.742,1.039,5.293,2.424,7.488L3.812,24C5.933,23.253,8.259,22.721,10.701,22.386z
			 M3.788,26.358c2.352,2.752,5.621,4.701,9.338,5.372c-0.71-2.06-1.426-4.64-2-7.247C8.566,24.941,5.941,25.644,3.788,26.358z
			 M10.701,9.613C8.259,9.279,5.933,8.747,3.812,8L2.424,7.512C1.039,9.707,0.172,12.257,0,15h10.019
			C10.098,13.39,10.344,11.536,10.701,9.613z"/>
	</g>
</g>
<g>
</g>
<g>
</g>
<g>
</g>
<g>
</g>
<g>
</g>
<g>
</g>
<g>
</g>
<g>
</g>
<g>
</g>
<g>
</g>
<g>
</g>
<g>
</g>
<g>
</g>
<g>
</g>
<g>
</g>
</svg>
