<?xml version="1.0" encoding="iso-8859-1"?>
<!-- Generator: Adobe Illustrator 18.0.0, SVG Export Plug-In . SVG Version: 6.00 Build 0)  -->
<!DOCTYPE svg PUBLIC "-//W3C//DTD SVG 1.1//EN" "http://www.w3.org/Graphics/SVG/1.1/DTD/svg11.dtd">
<svg version="1.1" id="Capa_1" xmlns="http://www.w3.org/2000/svg" xmlns:xlink="http://www.w3.org/1999/xlink" x="0px" y="0px"
	 viewBox="0 0 32 32" style="enable-background:new 0 0 32 32;" xml:space="preserve">
<g id="_x36__21_">
	<g>
		<path style="fill-rule:evenodd;clip-rule:evenodd;" d="M8,10c1.105,0,2-0.895,2-2S9.105,6,8,6S6,6.896,6,8S6.895,10,8,10z M28,0H4
			C1.791,0,0,1.791,0,4v24c0,2.209,1.791,4,4,4h24c2.209,0,4-1.791,4-4V4C32,1.791,30.209,0,28,0z M8,4c2.209,0,4,1.791,4,4
			c0,2.209-1.791,4-4,4c-2.209,0-4-1.791-4-4C4,5.791,5.791,4,8,4z M4,30c-1.105,0-2-0.896-2-2v-0.94l7.945-7.115L20.001,30H4z
			 M30,28c0,1.104-0.895,2-2,2h-5.168l-7.368-7.465L24,13.999l6,6V28z"/>
	</g>
</g>
<g>
</g>
<g>
</g>
<g>
</g>
<g>
</g>
<g>
</g>
<g>
</g>
<g>
</g>
<g>
</g>
<g>
</g>
<g>
</g>
<g>
</g>
<g>
</g>
<g>
</g>
<g>
</g>
<g>
</g>
</svg>
