<?xml version="1.0" encoding="iso-8859-1"?>
<!-- Generator: Adobe Illustrator 18.0.0, SVG Export Plug-In . SVG Version: 6.00 Build 0)  -->
<!DOCTYPE svg PUBLIC "-//W3C//DTD SVG 1.1//EN" "http://www.w3.org/Graphics/SVG/1.1/DTD/svg11.dtd">
<svg version="1.1" id="Capa_1" xmlns="http://www.w3.org/2000/svg" xmlns:xlink="http://www.w3.org/1999/xlink" x="0px" y="0px"
	 viewBox="0 0 27.004 28.018" style="enable-background:new 0 0 27.004 28.018;" xml:space="preserve">
<g id="_x31_">
	<g>
		<path style="fill-rule:evenodd;clip-rule:evenodd;" d="M11.986,7.02V1.122c0.034-0.295-0.047-0.6-0.275-0.827
			c-0.396-0.393-1.038-0.393-1.434,0L0.289,11.247c-0.211,0.21-0.301,0.488-0.287,0.763c-0.014,0.275,0.076,0.553,0.287,0.763
			l9.934,10.892c0.371,0.317,1.051,0.497,1.489,0.06c0.227-0.227,0.326-0.418,0.292-0.713c0,0,0-5.409,0-6
			c6.6,0,12.569,4.752,13.754,11.006c0.798-1.834,1.246-3.854,1.246-5.982C27.004,13.743,20.28,7.02,11.986,7.02z"/>
	</g>
</g>
<g>
</g>
<g>
</g>
<g>
</g>
<g>
</g>
<g>
</g>
<g>
</g>
<g>
</g>
<g>
</g>
<g>
</g>
<g>
</g>
<g>
</g>
<g>
</g>
<g>
</g>
<g>
</g>
<g>
</g>
</svg>
