<?xml version="1.0" encoding="iso-8859-1"?>
<!-- Generator: Adobe Illustrator 18.0.0, SVG Export Plug-In . SVG Version: 6.00 Build 0)  -->
<!DOCTYPE svg PUBLIC "-//W3C//DTD SVG 1.1//EN" "http://www.w3.org/Graphics/SVG/1.1/DTD/svg11.dtd">
<svg version="1.1" id="Capa_1" xmlns="http://www.w3.org/2000/svg" xmlns:xlink="http://www.w3.org/1999/xlink" x="0px" y="0px"
	 viewBox="0 0 28 20" style="enable-background:new 0 0 28 20;" xml:space="preserve">
<g id="_x37__5_">
	<g>
		<path style="fill-rule:evenodd;clip-rule:evenodd;" d="M10.657,16.243c0.391,0.391,0.391,1.024,0,1.414
			c-0.391,0.391-1.024,0.391-1.414,0l-6.899-6.9C2.135,10.549,2.046,10.273,2.06,10C2.046,9.727,2.135,9.451,2.343,9.243
			l6.899-6.899c0.391-0.391,1.024-0.391,1.414,0c0.391,0.391,0.391,1.024,0,1.414L5.414,9H20V2c0-1.105-0.895-2-2-2H2
			C0.895,0,0,0.895,0,2v16c0,1.104,0.895,2,2,2h16c1.105,0,2-0.895,2-2v-7H5.414L10.657,16.243z M27,9h-7v2h7c0.552,0,1-0.448,1-1
			C28,9.448,27.552,9,27,9z"/>
	</g>
</g>
<g>
</g>
<g>
</g>
<g>
</g>
<g>
</g>
<g>
</g>
<g>
</g>
<g>
</g>
<g>
</g>
<g>
</g>
<g>
</g>
<g>
</g>
<g>
</g>
<g>
</g>
<g>
</g>
<g>
</g>
</svg>
