<?xml version="1.0" encoding="iso-8859-1"?>
<!-- Generator: Adobe Illustrator 18.0.0, SVG Export Plug-In . SVG Version: 6.00 Build 0)  -->
<!DOCTYPE svg PUBLIC "-//W3C//DTD SVG 1.1//EN" "http://www.w3.org/Graphics/SVG/1.1/DTD/svg11.dtd">
<svg version="1.1" id="Capa_1" xmlns="http://www.w3.org/2000/svg" xmlns:xlink="http://www.w3.org/1999/xlink" x="0px" y="0px"
	 viewBox="0 0 31.18 31.18" style="enable-background:new 0 0 31.18 31.18;" xml:space="preserve">
<g id="_x32__9_">
	<g>
		<path style="fill-rule:evenodd;clip-rule:evenodd;" d="M18.799,12.379c-0.395-0.395-1.035-0.395-1.43,0l-5.005,5.005
			c-0.395,0.395-0.395,1.035,0,1.43c0.395,0.395,1.035,0.395,1.43,0l5.005-5.005C19.194,13.414,19.194,12.774,18.799,12.379z
			 M7.097,28.097c-0.79,0.79-2.21-0.21-3-1c-0.79-0.79-1.79-2.21-1-3l9.227-9.549c-1.347-0.356-3.171-0.507-4.227,0.549l-7,7
			c-1.58,1.58-1.396,4.775,0.184,6.355l1.43,1.43c1.58,1.58,4.807,1.795,6.386,0.215l7-7c1.056-1.056,0.874-2.912,0.518-4.259
			L7.097,28.097z M29.882,2.711l-1.43-1.43c-1.58-1.58-4.775-1.763-6.355-0.184l-7,7c-1.056,1.056-0.905,2.881-0.549,4.227
			l9.549-9.227c0.79-0.79,2.21,0.21,3,1s1.79,2.21,1,3l-9.259,9.518c1.347,0.356,3.203,0.538,4.259-0.518l7-7
			C31.677,7.517,31.461,4.29,29.882,2.711z"/>
	</g>
</g>
<g>
</g>
<g>
</g>
<g>
</g>
<g>
</g>
<g>
</g>
<g>
</g>
<g>
</g>
<g>
</g>
<g>
</g>
<g>
</g>
<g>
</g>
<g>
</g>
<g>
</g>
<g>
</g>
<g>
</g>
</svg>
