<?xml version="1.0" encoding="iso-8859-1"?>
<!-- Generator: Adobe Illustrator 18.0.0, SVG Export Plug-In . SVG Version: 6.00 Build 0)  -->
<!DOCTYPE svg PUBLIC "-//W3C//DTD SVG 1.1//EN" "http://www.w3.org/Graphics/SVG/1.1/DTD/svg11.dtd">
<svg version="1.1" id="Capa_1" xmlns="http://www.w3.org/2000/svg" xmlns:xlink="http://www.w3.org/1999/xlink" x="0px" y="0px"
	 viewBox="0 0 31 22" style="enable-background:new 0 0 31 22;" xml:space="preserve">
<g id="_x33__11_">
	<g>
		<path style="fill-rule:evenodd;clip-rule:evenodd;" d="M3,0C1.343,0,0,1.343,0,3c0,1.657,1.343,3,3,3c1.657,0,3-1.343,3-3
			C6,1.343,4.657,0,3,0z M3,8c-1.657,0-3,1.343-3,3c0,1.657,1.343,3,3,3c1.657,0,3-1.343,3-3C6,9.343,4.657,8,3,8z M3,16
			c-1.657,0-3,1.343-3,3s1.343,3,3,3c1.657,0,3-1.343,3-3S4.657,16,3,16z M10,5h19c1.105,0,2-0.895,2-2c0-1.105-0.895-2-2-2H10
			C8.895,1,8,1.895,8,3C8,4.105,8.895,5,10,5z M29,9H10c-1.105,0-2,0.895-2,2c0,1.105,0.895,2,2,2h19c1.105,0,2-0.895,2-2
			C31,9.895,30.105,9,29,9z M29,17H10c-1.105,0-2,0.895-2,2c0,1.105,0.895,2,2,2h19c1.105,0,2-0.895,2-2C31,17.895,30.105,17,29,17z
			"/>
	</g>
</g>
<g>
</g>
<g>
</g>
<g>
</g>
<g>
</g>
<g>
</g>
<g>
</g>
<g>
</g>
<g>
</g>
<g>
</g>
<g>
</g>
<g>
</g>
<g>
</g>
<g>
</g>
<g>
</g>
<g>
</g>
</svg>
