<?xml version="1.0" encoding="iso-8859-1"?>
<!-- Generator: Adobe Illustrator 18.0.0, SVG Export Plug-In . SVG Version: 6.00 Build 0)  -->
<!DOCTYPE svg PUBLIC "-//W3C//DTD SVG 1.1//EN" "http://www.w3.org/Graphics/SVG/1.1/DTD/svg11.dtd">
<svg version="1.1" id="Capa_1" xmlns="http://www.w3.org/2000/svg" xmlns:xlink="http://www.w3.org/1999/xlink" x="0px" y="0px"
	 viewBox="0 0 29 22" style="enable-background:new 0 0 29 22;" xml:space="preserve">
<g id="_x31_0_19_">
	<g>
		<path style="fill-rule:evenodd;clip-rule:evenodd;" d="M3,0C1.343,0,0,1.343,0,3c0,1.657,1.343,3,3,3s3-1.343,3-3
			C6,1.343,4.657,0,3,0z M3,8c-1.657,0-3,1.343-3,3c0,1.657,1.343,3,3,3s3-1.343,3-3C6,9.343,4.657,8,3,8z M3,16
			c-1.657,0-3,1.343-3,3s1.343,3,3,3s3-1.343,3-3S4.657,16,3,16z M11,5h16c1.105,0,2-0.895,2-2c0-1.105-0.895-2-2-2H11
			C9.895,1,9,1.895,9,3C9,4.105,9.895,5,11,5z M27,9H11c-1.105,0-2,0.895-2,2c0,1.105,0.895,2,2,2h16c1.105,0,2-0.895,2-2
			C29,9.895,28.105,9,27,9z M27,17H11c-1.105,0-2,0.895-2,2c0,1.105,0.895,2,2,2h16c1.105,0,2-0.895,2-2C29,17.895,28.105,17,27,17z
			"/>
	</g>
</g>
<g>
</g>
<g>
</g>
<g>
</g>
<g>
</g>
<g>
</g>
<g>
</g>
<g>
</g>
<g>
</g>
<g>
</g>
<g>
</g>
<g>
</g>
<g>
</g>
<g>
</g>
<g>
</g>
<g>
</g>
</svg>
