<?xml version="1.0" encoding="iso-8859-1"?>
<!-- Generator: Adobe Illustrator 18.0.0, SVG Export Plug-In . SVG Version: 6.00 Build 0)  -->
<!DOCTYPE svg PUBLIC "-//W3C//DTD SVG 1.1//EN" "http://www.w3.org/Graphics/SVG/1.1/DTD/svg11.dtd">
<svg version="1.1" id="Capa_1" xmlns="http://www.w3.org/2000/svg" xmlns:xlink="http://www.w3.org/1999/xlink" x="0px" y="0px"
	 viewBox="0 0 20 32" style="enable-background:new 0 0 20 32;" xml:space="preserve">
<g id="_x39__17_">
	<g>
		<path style="fill-rule:evenodd;clip-rule:evenodd;" d="M18,16.018V8c0-4.418-3.582-8-8-8S2,3.582,2,8v8.018
			C0.75,17.688,0,19.754,0,22c0,5.523,4.477,10,10,10c5.523,0,10-4.477,10-10C20,19.754,19.25,17.688,18,16.018z M11,25
			c0,0.552-0.448,1-1,1c-0.552,0-1-0.448-1-1v-4c0-0.552,0.448-1,1-1c0.552,0,1,0.448,1,1V25z M16,14.014
			C14.327,12.755,12.254,12,10,12c-2.254,0-4.327,0.755-6,2.014V8c0-3.314,2.686-6,6-6c3.314,0,6,2.686,6,6V14.014z"/>
	</g>
</g>
<g>
</g>
<g>
</g>
<g>
</g>
<g>
</g>
<g>
</g>
<g>
</g>
<g>
</g>
<g>
</g>
<g>
</g>
<g>
</g>
<g>
</g>
<g>
</g>
<g>
</g>
<g>
</g>
<g>
</g>
</svg>
