<?xml version="1.0" encoding="iso-8859-1"?>
<!-- Generator: Adobe Illustrator 18.0.0, SVG Export Plug-In . SVG Version: 6.00 Build 0)  -->
<!DOCTYPE svg PUBLIC "-//W3C//DTD SVG 1.1//EN" "http://www.w3.org/Graphics/SVG/1.1/DTD/svg11.dtd">
<svg version="1.1" id="Capa_1" xmlns="http://www.w3.org/2000/svg" xmlns:xlink="http://www.w3.org/1999/xlink" x="0px" y="0px"
	 viewBox="0 0 28 20" style="enable-background:new 0 0 28 20;" xml:space="preserve">
<g id="_x36__5_">
	<g>
		<path style="fill-rule:evenodd;clip-rule:evenodd;" d="M26,0H10C8.895,0,8,0.895,8,2v7h14.586l-5.243-5.243
			c-0.391-0.391-0.391-1.024,0-1.414c0.391-0.391,1.024-0.391,1.414,0l6.899,6.899C25.865,9.451,25.954,9.727,25.94,10
			c0.014,0.273-0.075,0.549-0.283,0.757l-6.899,6.9c-0.39,0.391-1.024,0.391-1.414,0c-0.391-0.391-0.391-1.024,0-1.414L22.586,11H8
			v7c0,1.104,0.895,2,2,2h16c1.105,0,2-0.895,2-2V2C28,0.895,27.105,0,26,0z M1,9c-0.552,0-1,0.448-1,1c0,0.552,0.448,1,1,1h7V9H1z"
			/>
	</g>
</g>
<g>
</g>
<g>
</g>
<g>
</g>
<g>
</g>
<g>
</g>
<g>
</g>
<g>
</g>
<g>
</g>
<g>
</g>
<g>
</g>
<g>
</g>
<g>
</g>
<g>
</g>
<g>
</g>
<g>
</g>
</svg>
