<?xml version="1.0" encoding="iso-8859-1"?>
<!-- Generator: Adobe Illustrator 18.0.0, SVG Export Plug-In . SVG Version: 6.00 Build 0)  -->
<!DOCTYPE svg PUBLIC "-//W3C//DTD SVG 1.1//EN" "http://www.w3.org/Graphics/SVG/1.1/DTD/svg11.dtd">
<svg version="1.1" id="Capa_1" xmlns="http://www.w3.org/2000/svg" xmlns:xlink="http://www.w3.org/1999/xlink" x="0px" y="0px"
	 viewBox="0 0 32 30" style="enable-background:new 0 0 32 30;" xml:space="preserve">
<g id="_x33__17_">
	<g>
		<path style="fill-rule:evenodd;clip-rule:evenodd;" d="M0,13c0,3.733,2.561,6.148,6.019,6.809C6.013,19.873,6,19.935,6,20v8
			c0,1.105,0.895,2,2,2h3c1.105,0,2-0.896,2-2v-8h3V6H8C3.582,6,0,8.582,0,13z M18,20h3V6h-3V20z M30,0l-7,4.667v16.667L30,26
			c1.105,0,2-0.895,2-2V2C32,0.896,31.105,0,30,0z"/>
	</g>
</g>
<g>
</g>
<g>
</g>
<g>
</g>
<g>
</g>
<g>
</g>
<g>
</g>
<g>
</g>
<g>
</g>
<g>
</g>
<g>
</g>
<g>
</g>
<g>
</g>
<g>
</g>
<g>
</g>
<g>
</g>
</svg>
