<?xml version="1.0" encoding="iso-8859-1"?>
<!-- Generator: Adobe Illustrator 18.0.0, SVG Export Plug-In . SVG Version: 6.00 Build 0)  -->
<!DOCTYPE svg PUBLIC "-//W3C//DTD SVG 1.1//EN" "http://www.w3.org/Graphics/SVG/1.1/DTD/svg11.dtd">
<svg version="1.1" id="Capa_1" xmlns="http://www.w3.org/2000/svg" xmlns:xlink="http://www.w3.org/1999/xlink" x="0px" y="0px"
	 viewBox="0 0 32 28" style="enable-background:new 0 0 32 28;" xml:space="preserve">
<g id="_x35__3_">
	<g>
		<path style="fill-rule:evenodd;clip-rule:evenodd;" d="M4,8h24c2.209,0,4-1.791,4-4c0-2.209-1.791-4-4-4H4C1.791,0,0,1.791,0,4
			C0,6.209,1.791,8,4,8z M28,10H4c-2.209,0-4,1.791-4,4c0,2.209,1.791,4,4,4h24c2.209,0,4-1.791,4-4C32,11.791,30.209,10,28,10z
			 M28,20H4c-2.209,0-4,1.791-4,4c0,2.209,1.791,4,4,4h24c2.209,0,4-1.791,4-4C32,21.791,30.209,20,28,20z"/>
	</g>
</g>
<g>
</g>
<g>
</g>
<g>
</g>
<g>
</g>
<g>
</g>
<g>
</g>
<g>
</g>
<g>
</g>
<g>
</g>
<g>
</g>
<g>
</g>
<g>
</g>
<g>
</g>
<g>
</g>
<g>
</g>
</svg>
