<?xml version="1.0" encoding="iso-8859-1"?>
<!-- Generator: Adobe Illustrator 18.0.0, SVG Export Plug-In . SVG Version: 6.00 Build 0)  -->
<!DOCTYPE svg PUBLIC "-//W3C//DTD SVG 1.1//EN" "http://www.w3.org/Graphics/SVG/1.1/DTD/svg11.dtd">
<svg version="1.1" id="Capa_1" xmlns="http://www.w3.org/2000/svg" xmlns:xlink="http://www.w3.org/1999/xlink" x="0px" y="0px"
	 viewBox="0 0 32 32" style="enable-background:new 0 0 32 32;" xml:space="preserve">
<g id="_x35__21_">
	<g>
		<path style="fill-rule:evenodd;clip-rule:evenodd;" d="M28,0H4C1.805,0,0,1.969,0,4.165v23.859C0,30.22,1.779,32,3.974,32h23.843
			C30.012,32,32,30.196,32,28V4C32,1.804,30.195,0,28,0z M24,22H8c-0.552,0-1-0.448-1-1c0-0.552,0.448-1,1-1h16c0.552,0,1,0.448,1,1
			C25,21.552,24.552,22,24,22z M24,16H8c-0.552,0-1-0.448-1-1c0-0.552,0.448-1,1-1h16c0.552,0,1,0.448,1,1
			C25,15.552,24.552,16,24,16z M24,10H8c-0.552,0-1-0.448-1-1s0.448-1,1-1h16c0.552,0,1,0.448,1,1S24.552,10,24,10z"/>
	</g>
</g>
<g>
</g>
<g>
</g>
<g>
</g>
<g>
</g>
<g>
</g>
<g>
</g>
<g>
</g>
<g>
</g>
<g>
</g>
<g>
</g>
<g>
</g>
<g>
</g>
<g>
</g>
<g>
</g>
<g>
</g>
</svg>
