<?xml version="1.0" encoding="iso-8859-1"?>
<!-- Generator: Adobe Illustrator 18.0.0, SVG Export Plug-In . SVG Version: 6.00 Build 0)  -->
<!DOCTYPE svg PUBLIC "-//W3C//DTD SVG 1.1//EN" "http://www.w3.org/Graphics/SVG/1.1/DTD/svg11.dtd">
<svg version="1.1" id="Capa_1" xmlns="http://www.w3.org/2000/svg" xmlns:xlink="http://www.w3.org/1999/xlink" x="0px" y="0px"
	 viewBox="0 0 31 32" style="enable-background:new 0 0 31 32;" xml:space="preserve">
<g id="_x31_0_14_">
	<g>
		<path style="fill-rule:evenodd;clip-rule:evenodd;" d="M22,30h-2v-2h-8v2h-2c-0.552,0-1,0.448-1,1c0,0.552,0.448,1,1,1h12
			c0.552,0,1-0.448,1-1C23,30.448,22.552,30,22,30z M0,22c0,2.209,1.791,4,4,4h23c2.209,0,4-1.791,4-4v-2H0V22z M27,0H4
			C1.791,0,0,1.791,0,4v14h31V4C31,1.791,29.209,0,27,0z"/>
	</g>
</g>
<g>
</g>
<g>
</g>
<g>
</g>
<g>
</g>
<g>
</g>
<g>
</g>
<g>
</g>
<g>
</g>
<g>
</g>
<g>
</g>
<g>
</g>
<g>
</g>
<g>
</g>
<g>
</g>
<g>
</g>
</svg>
