<?xml version="1.0" encoding="iso-8859-1"?>
<!-- Generator: Adobe Illustrator 18.0.0, SVG Export Plug-In . SVG Version: 6.00 Build 0)  -->
<!DOCTYPE svg PUBLIC "-//W3C//DTD SVG 1.1//EN" "http://www.w3.org/Graphics/SVG/1.1/DTD/svg11.dtd">
<svg version="1.1" id="Capa_1" xmlns="http://www.w3.org/2000/svg" xmlns:xlink="http://www.w3.org/1999/xlink" x="0px" y="0px"
	 viewBox="0 0 29.984 24" style="enable-background:new 0 0 29.984 24;" xml:space="preserve">
<g id="_x35__12_">
	<g>
		<path style="fill-rule:evenodd;clip-rule:evenodd;" d="M0,8v8c0,1.105,0.895,2,2,2h3V6H2C0.895,6,0,6.895,0,8z M14,0L7,4.667
			v14.667L14,24c1.105,0,2-0.896,2-2V2C16,0.896,15.105,0,14,0z M25.444,12l4.173-4.173c0.451-0.451,0.492-1.139,0.094-1.538
			c-0.399-0.399-1.087-0.357-1.538,0.094L24,10.556l-4.173-4.173c-0.451-0.451-1.139-0.493-1.538-0.094
			c-0.399,0.399-0.357,1.087,0.094,1.538L22.556,12l-4.173,4.173c-0.451,0.451-0.493,1.139-0.094,1.538
			c0.399,0.399,1.087,0.357,1.538-0.094L24,13.444l4.173,4.173c0.451,0.45,1.139,0.492,1.538,0.094
			c0.399-0.399,0.357-1.088-0.094-1.538L25.444,12z"/>
	</g>
</g>
<g>
</g>
<g>
</g>
<g>
</g>
<g>
</g>
<g>
</g>
<g>
</g>
<g>
</g>
<g>
</g>
<g>
</g>
<g>
</g>
<g>
</g>
<g>
</g>
<g>
</g>
<g>
</g>
<g>
</g>
</svg>
