<?xml version="1.0" encoding="iso-8859-1"?>
<!-- Generator: Adobe Illustrator 18.0.0, SVG Export Plug-In . SVG Version: 6.00 Build 0)  -->
<!DOCTYPE svg PUBLIC "-//W3C//DTD SVG 1.1//EN" "http://www.w3.org/Graphics/SVG/1.1/DTD/svg11.dtd">
<svg version="1.1" id="Capa_1" xmlns="http://www.w3.org/2000/svg" xmlns:xlink="http://www.w3.org/1999/xlink" x="0px" y="0px"
	 viewBox="0 0 22 32" style="enable-background:new 0 0 22 32;" xml:space="preserve">
<g id="_x34__20_">
	<g>
		<path style="fill-rule:evenodd;clip-rule:evenodd;" d="M18,2V0h-2v2h-4V0h-2v2H6V0H4v2C1.791,2,0,3.791,0,6v22
			c0,2.209,1.791,4,4,4h14c2.209,0,4-1.791,4-4V6C22,3.791,20.209,2,18,2z M17,24H5c-0.552,0-1-0.448-1-1c0-0.552,0.448-1,1-1h12
			c0.552,0,1,0.448,1,1C18,23.552,17.552,24,17,24z M17,18H5c-0.552,0-1-0.448-1-1c0-0.552,0.448-1,1-1h12c0.552,0,1,0.448,1,1
			C18,17.552,17.552,18,17,18z M17,12H5c-0.552,0-1-0.448-1-1c0-0.552,0.448-1,1-1h12c0.552,0,1,0.448,1,1
			C18,11.552,17.552,12,17,12z"/>
	</g>
</g>
<g>
</g>
<g>
</g>
<g>
</g>
<g>
</g>
<g>
</g>
<g>
</g>
<g>
</g>
<g>
</g>
<g>
</g>
<g>
</g>
<g>
</g>
<g>
</g>
<g>
</g>
<g>
</g>
<g>
</g>
</svg>
