<?xml version="1.0" encoding="iso-8859-1"?>
<!-- Generator: Adobe Illustrator 18.0.0, SVG Export Plug-In . SVG Version: 6.00 Build 0)  -->
<!DOCTYPE svg PUBLIC "-//W3C//DTD SVG 1.1//EN" "http://www.w3.org/Graphics/SVG/1.1/DTD/svg11.dtd">
<svg version="1.1" id="Capa_1" xmlns="http://www.w3.org/2000/svg" xmlns:xlink="http://www.w3.org/1999/xlink" x="0px" y="0px"
	 viewBox="0 0 32 32" style="enable-background:new 0 0 32 32;" xml:space="preserve">
<g id="_x33__18_">
	<g>
		<path style="fill-rule:evenodd;clip-rule:evenodd;" d="M16,0C7.164,0,0,6.268,0,14c0,4.419,2.345,8.353,6,10.919V32l7.009-4.253
			C13.979,27.907,14.977,28,16,28c8.837,0,16-6.268,16-14C32,6.268,24.837,0,16,0z M8,16c-1.105,0-2-0.895-2-2c0-1.105,0.895-2,2-2
			c1.104,0,2,0.895,2,2C10,15.105,9.105,16,8,16z M16,16c-1.105,0-2-0.895-2-2c0-1.105,0.895-2,2-2c1.104,0,2,0.895,2,2
			C18,15.105,17.105,16,16,16z M24,16c-1.105,0-2-0.895-2-2c0-1.105,0.895-2,2-2s2,0.895,2,2C26,15.105,25.105,16,24,16z"/>
	</g>
</g>
<g>
</g>
<g>
</g>
<g>
</g>
<g>
</g>
<g>
</g>
<g>
</g>
<g>
</g>
<g>
</g>
<g>
</g>
<g>
</g>
<g>
</g>
<g>
</g>
<g>
</g>
<g>
</g>
<g>
</g>
</svg>
