<?xml version="1.0" encoding="iso-8859-1"?>
<!-- Generator: Adobe Illustrator 18.0.0, SVG Export Plug-In . SVG Version: 6.00 Build 0)  -->
<!DOCTYPE svg PUBLIC "-//W3C//DTD SVG 1.1//EN" "http://www.w3.org/Graphics/SVG/1.1/DTD/svg11.dtd">
<svg version="1.1" id="Capa_1" xmlns="http://www.w3.org/2000/svg" xmlns:xlink="http://www.w3.org/1999/xlink" x="0px" y="0px"
	 viewBox="0 0 31.999 28.028" style="enable-background:new 0 0 31.999 28.028;" xml:space="preserve">
<g id="_x31__20_">
	<g>
		<path style="fill-rule:evenodd;clip-rule:evenodd;" d="M12.913,14.712l-3.149,3.105c-2.104-0.047-5.016,0.698-6.273,4.815
			C2.53,24.811,0,24.701,0,24.701c5.253,5.828,11.444,2.525,12.858,1.093c1.242-1.259,1.421-2.798,1.288-4.029l2.93-2.889
			L12.913,14.712z M11.461,24.415c-0.984,0.913-5.382,2.948-7.97,0.975c0,0,0.901-0.703,1.583-2.114
			c1.629-4.327,5.689-3.687,5.689-3.687l1.396,1.379C12.173,20.981,13.202,22.801,11.461,24.415z M31.132,0.857
			c-1.157-1.142-3.033-1.142-4.189,0L14.336,13.307l4.163,4.163L31.132,4.993C32.289,3.851,32.289,1.999,31.132,0.857z"/>
	</g>
</g>
<g>
</g>
<g>
</g>
<g>
</g>
<g>
</g>
<g>
</g>
<g>
</g>
<g>
</g>
<g>
</g>
<g>
</g>
<g>
</g>
<g>
</g>
<g>
</g>
<g>
</g>
<g>
</g>
<g>
</g>
</svg>
