<?xml version="1.0" encoding="iso-8859-1"?>
<!-- Generator: Adobe Illustrator 18.0.0, SVG Export Plug-In . SVG Version: 6.00 Build 0)  -->
<!DOCTYPE svg PUBLIC "-//W3C//DTD SVG 1.1//EN" "http://www.w3.org/Graphics/SVG/1.1/DTD/svg11.dtd">
<svg version="1.1" id="Capa_1" xmlns="http://www.w3.org/2000/svg" xmlns:xlink="http://www.w3.org/1999/xlink" x="0px" y="0px"
	 viewBox="0 0 612 792" style="enable-background:new 0 0 612 792;" xml:space="preserve">
<g>
	<path d="M532.075,205.902h-56.729l-18.91-37.82c-11.138-22.011-16.924-37.819-37.819-37.819H191.699
		c-20.895,0-27.797,18.04-37.82,37.819l-18.91,37.82H78.241c-41.772,0-75.639,33.867-75.639,75.639v302.556
		c0,41.772,33.867,75.639,75.639,75.639h453.835c41.772,0,75.639-33.867,75.639-75.639V281.541
		C607.714,239.77,573.847,205.902,532.075,205.902z M305.158,584.098c-83.543,0-151.278-67.735-151.278-151.278
		c0-83.543,67.735-151.278,151.278-151.278c83.543,0,151.278,67.735,151.278,151.278
		C456.436,516.363,388.701,584.098,305.158,584.098z"/>
	<path d="M305.158,319.361c-62.667,0-113.459,50.792-113.459,113.459c0,62.667,50.792,113.459,113.459,113.459
		s113.459-50.792,113.459-113.459C418.617,370.152,367.825,319.361,305.158,319.361z"/>
</g>
</svg>
