<?xml version="1.0" encoding="iso-8859-1"?>
<!-- Generator: Adobe Illustrator 18.0.0, SVG Export Plug-In . SVG Version: 6.00 Build 0)  -->
<!DOCTYPE svg PUBLIC "-//W3C//DTD SVG 1.1//EN" "http://www.w3.org/Graphics/SVG/1.1/DTD/svg11.dtd">
<svg version="1.1" id="Capa_1" xmlns="http://www.w3.org/2000/svg" xmlns:xlink="http://www.w3.org/1999/xlink" x="0px" y="0px"
	 viewBox="0 0 32 30" style="enable-background:new 0 0 32 30;" xml:space="preserve">
<g id="_x33__19_">
	<g>
		<path style="fill-rule:evenodd;clip-rule:evenodd;" d="M28,4h-6V2c0-1.105-0.895-2-2-2h-8c-1.105,0-2,0.896-2,2v2H4
			C1.791,4,0,5.791,0,8v5h32V8C32,5.791,30.209,4,28,4z M20,4h-8V3c0-0.552,0.448-1,1-1h6c0.552,0,1,0.448,1,1V4z M20,16
			c0,2.209-1.791,4-4,4c-2.209,0-4-1.791-4-4c0-0.348,0.054-0.681,0.141-1H0v11c0,2.209,1.791,4,4,4h24c2.209,0,4-1.791,4-4V15
			H19.859C19.946,15.32,20,15.652,20,16z M18,16c0-0.366-0.106-0.705-0.277-1h-3.445C14.106,15.295,14,15.634,14,16
			c0,1.105,0.895,2,2,2C17.105,18,18,17.105,18,16z"/>
	</g>
</g>
<g>
</g>
<g>
</g>
<g>
</g>
<g>
</g>
<g>
</g>
<g>
</g>
<g>
</g>
<g>
</g>
<g>
</g>
<g>
</g>
<g>
</g>
<g>
</g>
<g>
</g>
<g>
</g>
<g>
</g>
</svg>
