<?xml version="1.0" encoding="iso-8859-1"?>
<!-- Generator: Adobe Illustrator 18.0.0, SVG Export Plug-In . SVG Version: 6.00 Build 0)  -->
<!DOCTYPE svg PUBLIC "-//W3C//DTD SVG 1.1//EN" "http://www.w3.org/Graphics/SVG/1.1/DTD/svg11.dtd">
<svg version="1.1" id="Capa_1" xmlns="http://www.w3.org/2000/svg" xmlns:xlink="http://www.w3.org/1999/xlink" x="0px" y="0px"
	 viewBox="0 0 32 28" style="enable-background:new 0 0 32 28;" xml:space="preserve">
<g id="_x31__19_">
	<g>
		<path style="fill-rule:evenodd;clip-rule:evenodd;" d="M28,15H4c-2.209,0-4,1.791-4,4v2c0,2.209,1.791,4,4,4l2,0
			c0.446,1.722,2.138,3,4,3h12c1.862,0,3.554-1.278,4-3l2,0c2.209,0,4-1.791,4-4v-2C32,16.791,30.209,15,28,15z M30,21
			c0,1.105-0.895,2-2,2l-2,0c-0.446-1.722-2.138-3-4-3H10c-1.862,0-3.554,1.278-4,3l-2,0c-1.105,0-2-0.896-2-2v-2
			c0-1.105,0.895-2,2-2h24c1.105,0,2,0.895,2,2V21z M26,4c0-2.209-1.791-4-4-4H10C7.791,0,6,1.791,6,4v9h20V4z"/>
	</g>
</g>
<g>
</g>
<g>
</g>
<g>
</g>
<g>
</g>
<g>
</g>
<g>
</g>
<g>
</g>
<g>
</g>
<g>
</g>
<g>
</g>
<g>
</g>
<g>
</g>
<g>
</g>
<g>
</g>
<g>
</g>
</svg>
