<?xml version="1.0" encoding="iso-8859-1"?>
<!-- Generator: Adobe Illustrator 18.0.0, SVG Export Plug-In . SVG Version: 6.00 Build 0)  -->
<!DOCTYPE svg PUBLIC "-//W3C//DTD SVG 1.1//EN" "http://www.w3.org/Graphics/SVG/1.1/DTD/svg11.dtd">
<svg version="1.1" id="Capa_1" xmlns="http://www.w3.org/2000/svg" xmlns:xlink="http://www.w3.org/1999/xlink" x="0px" y="0px"
	 viewBox="0 0 32.018 32" style="enable-background:new 0 0 32.018 32;" xml:space="preserve">
<g id="_x35__15_">
	<g>
		<path style="fill-rule:evenodd;clip-rule:evenodd;" d="M27.03,17.435c0.803-1.61,1.267-3.414,1.267-5.329
			C28.297,5.42,22.795,0,16.009,0C9.222,0,3.721,5.42,3.721,12.106c0,1.915,0.464,3.719,1.267,5.329L0,25.946
			c0,0,3.163,0.634,6.372,1.295C8.512,29.623,10.642,32,10.642,32l4.586-7.826c0.26,0.016,0.517,0.039,0.781,0.039
			c0.264,0,0.522-0.023,0.781-0.039L21.376,32c0,0,2.13-2.376,4.269-4.758c3.209-0.661,6.373-1.295,6.373-1.295L27.03,17.435z
			 M10.404,28.37c0,0-1.536-1.456-2.98-2.86c-2.048-0.583-4.115-1.176-4.115-1.176l2.899-4.947c1.672,2.181,4.071,3.782,6.847,4.458
			L10.404,28.37z M16.009,19c-3.866,0-7-3.134-7-7s3.134-7,7-7c3.866,0,7,3.134,7,7S19.875,19,16.009,19z M24.593,25.51
			c-1.444,1.403-2.98,2.86-2.98,2.86l-2.651-4.524c2.776-0.676,5.175-2.277,6.847-4.458l2.899,4.947
			C28.708,24.334,26.641,24.927,24.593,25.51z M16.009,7c-2.761,0-5,2.239-5,5c0,2.761,2.239,5,5,5c2.761,0,5-2.239,5-5
			C21.009,9.239,18.77,7,16.009,7z"/>
	</g>
</g>
<g>
</g>
<g>
</g>
<g>
</g>
<g>
</g>
<g>
</g>
<g>
</g>
<g>
</g>
<g>
</g>
<g>
</g>
<g>
</g>
<g>
</g>
<g>
</g>
<g>
</g>
<g>
</g>
<g>
</g>
</svg>
