<?xml version="1.0" encoding="iso-8859-1"?>
<!-- Generator: Adobe Illustrator 18.0.0, SVG Export Plug-In . SVG Version: 6.00 Build 0)  -->
<!DOCTYPE svg PUBLIC "-//W3C//DTD SVG 1.1//EN" "http://www.w3.org/Graphics/SVG/1.1/DTD/svg11.dtd">
<svg version="1.1" id="Capa_1" xmlns="http://www.w3.org/2000/svg" xmlns:xlink="http://www.w3.org/1999/xlink" x="0px" y="0px"
	 viewBox="0 0 27.004 28.018" style="enable-background:new 0 0 27.004 28.018;" xml:space="preserve">
<g id="_x32_">
	<g>
		<path style="fill-rule:evenodd;clip-rule:evenodd;" d="M26.715,11.247L16.726,0.295c-0.396-0.393-1.038-0.393-1.434,0
			c-0.228,0.226-0.309,0.532-0.275,0.827V7.02C6.724,7.02,0,13.743,0,22.037c0,2.127,0.448,4.148,1.246,5.982
			C2.431,21.763,8.4,17.012,15,17.012c0,0.591,0,6,0,6c-0.034,0.295,0.065,0.486,0.292,0.713c0.438,0.438,1.118,0.257,1.489-0.06
			l9.934-10.892c0.211-0.21,0.301-0.488,0.287-0.763C27.016,11.735,26.926,11.457,26.715,11.247z"/>
	</g>
</g>
<g>
</g>
<g>
</g>
<g>
</g>
<g>
</g>
<g>
</g>
<g>
</g>
<g>
</g>
<g>
</g>
<g>
</g>
<g>
</g>
<g>
</g>
<g>
</g>
<g>
</g>
<g>
</g>
<g>
</g>
</svg>
