<?xml version="1.0" encoding="iso-8859-1"?>
<!-- Generator: Adobe Illustrator 18.0.0, SVG Export Plug-In . SVG Version: 6.00 Build 0)  -->
<!DOCTYPE svg PUBLIC "-//W3C//DTD SVG 1.1//EN" "http://www.w3.org/Graphics/SVG/1.1/DTD/svg11.dtd">
<svg version="1.1" id="Capa_1" xmlns="http://www.w3.org/2000/svg" xmlns:xlink="http://www.w3.org/1999/xlink" x="0px" y="0px"
	 viewBox="0 0 32 32" style="enable-background:new 0 0 32 32;" xml:space="preserve">
<g id="_x39__6_">
	<g>
		<path style="fill-rule:evenodd;clip-rule:evenodd;" d="M28,0h-8v4h6c1.105,0,2,0.896,2,2v6h4V4C32,1.791,30.209,0,28,0z M0,4v8h4
			V6c0-1.105,0.895-2,2-2h6V0H4C1.791,0,0,1.791,0,4z M4,26v-6H0v8c0,2.209,1.791,4,4,4h8v-4H6C4.895,28,4,27.105,4,26z M28,26
			c0,1.105-0.895,2-2,2h-6v4h8c2.209,0,4-1.791,4-4v-8h-4V26z"/>
	</g>
</g>
<g>
</g>
<g>
</g>
<g>
</g>
<g>
</g>
<g>
</g>
<g>
</g>
<g>
</g>
<g>
</g>
<g>
</g>
<g>
</g>
<g>
</g>
<g>
</g>
<g>
</g>
<g>
</g>
<g>
</g>
</svg>
