<?xml version="1.0" encoding="iso-8859-1"?>
<!-- Generator: Adobe Illustrator 18.0.0, SVG Export Plug-In . SVG Version: 6.00 Build 0)  -->
<!DOCTYPE svg PUBLIC "-//W3C//DTD SVG 1.1//EN" "http://www.w3.org/Graphics/SVG/1.1/DTD/svg11.dtd">
<svg version="1.1" id="Capa_1" xmlns="http://www.w3.org/2000/svg" xmlns:xlink="http://www.w3.org/1999/xlink" x="0px" y="0px"
	 viewBox="0 0 32 26" style="enable-background:new 0 0 32 26;" xml:space="preserve">
<g id="_x37__9_">
	<g>
		<path style="fill-rule:evenodd;clip-rule:evenodd;" d="M10,14H2.429l0.286,4H10V14z M22,24h-2v-4h-8v4h-2v-4H2.857L3,22
			c0,2.209,1.791,4,4,4h17c2.209,0,4-1.791,4-4l0.286-2H22V24z M22,18h6.571l0.571-4H22V18z M20,14h-8v4h8V14z M31,6h-6.527L26.5,2
			H29c0.552,0,1-0.448,1-1c0-0.552-0.448-1-1-1h-4l-3.084,6H10.168L7,0H3C2.448,0,2,0.448,2,1c0,0.552,0.448,1,1,1h2.5l2.146,4H1
			C0.448,6,0,6.448,0,7c0,0.552,0.448,1,1,1h1l0.286,4H10V8h2v4h8V8h2v4h7.429L30,8h1c0.552,0,1-0.448,1-1C32,6.448,31.552,6,31,6z"
			/>
	</g>
</g>
<g>
</g>
<g>
</g>
<g>
</g>
<g>
</g>
<g>
</g>
<g>
</g>
<g>
</g>
<g>
</g>
<g>
</g>
<g>
</g>
<g>
</g>
<g>
</g>
<g>
</g>
<g>
</g>
<g>
</g>
</svg>
