<?xml version="1.0" encoding="iso-8859-1"?>
<!-- Generator: Adobe Illustrator 18.0.0, SVG Export Plug-In . SVG Version: 6.00 Build 0)  -->
<!DOCTYPE svg PUBLIC "-//W3C//DTD SVG 1.1//EN" "http://www.w3.org/Graphics/SVG/1.1/DTD/svg11.dtd">
<svg version="1.1" id="Capa_1" xmlns="http://www.w3.org/2000/svg" xmlns:xlink="http://www.w3.org/1999/xlink" x="0px" y="0px"
	 viewBox="0 0 26.994 22.945" style="enable-background:new 0 0 26.994 22.945;" xml:space="preserve">
<g id="_x36__11_">
	<g>
		<path style="fill-rule:evenodd;clip-rule:evenodd;" d="M2,5.997h2l3.29,4.113l2.611-3.237L6,1.997H2c-1.105,0-2,0.895-2,2
			C0,5.102,0.895,5.997,2,5.997z M21,5.997v1.688c0.298,0.295,1.23,0.418,1.528,0.123l4.242-3.207c0.298-0.295,0.298-0.774,0-1.069
			l-4.242-3.207C22.23,0.029,21.298-0.141,21,0.154v1.844h-5l-12,15H2c-1.105,0-2,0.895-2,2c0,1.105,0.895,2,2,2h4l12-15H21z
			 M22.528,15.163c-0.298-0.295-1.23-0.217-1.528,0.078v1.756h-3l-3.29-4.113l-2.611,3.237L16,20.997h5v1.781
			c0.298,0.295,1.23,0.164,1.528-0.131l4.242-3.207c0.298-0.295,0.298-0.774,0-1.069L22.528,15.163z"/>
	</g>
</g>
<g>
</g>
<g>
</g>
<g>
</g>
<g>
</g>
<g>
</g>
<g>
</g>
<g>
</g>
<g>
</g>
<g>
</g>
<g>
</g>
<g>
</g>
<g>
</g>
<g>
</g>
<g>
</g>
<g>
</g>
</svg>
