<?xml version="1.0" encoding="iso-8859-1"?>
<!-- Generator: Adobe Illustrator 18.0.0, SVG Export Plug-In . SVG Version: 6.00 Build 0)  -->
<!DOCTYPE svg PUBLIC "-//W3C//DTD SVG 1.1//EN" "http://www.w3.org/Graphics/SVG/1.1/DTD/svg11.dtd">
<svg version="1.1" id="Capa_1" xmlns="http://www.w3.org/2000/svg" xmlns:xlink="http://www.w3.org/1999/xlink" x="0px" y="0px"
	 viewBox="0 0 29.012 28.004" style="enable-background:new 0 0 29.012 28.004;" xml:space="preserve">
<g id="_x39__19_">
	<g>
		<path style="fill-rule:evenodd;clip-rule:evenodd;" d="M15.012,4.004h12c1.105,0,2-0.895,2-2c0-1.104-0.895-2-2-2h-12
			c-1.105,0-2,0.896-2,2C13.012,3.108,13.908,4.004,15.012,4.004z M27.012,24.004h-12c-1.105,0-2,0.895-2,2s0.895,2,2,2h12
			c1.105,0,2-0.896,2-2S28.117,24.004,27.012,24.004z M15.012,10.004c0,0,0.295,0.091,0.687-0.303c0.392-0.394,0.392-1.032,0-1.425
			L8.757,0.287c-0.209-0.21-0.487-0.299-0.76-0.285c-0.274-0.014-0.551,0.075-0.76,0.285L0.294,8.275
			c-0.392,0.394-0.392,1.032,0,1.425c0.392,0.394,0.718,0.303,0.718,0.303h6l0,18h2l0-18H15.012z M27.012,18.004h-12
			c-1.105,0-2,0.895-2,2c0,1.104,0.895,2,2,2h12c1.105,0,2-0.895,2-2C29.012,18.899,28.117,18.004,27.012,18.004z M27.012,12.004
			h-12c-1.105,0-2,0.895-2,2c0,1.105,0.895,2,2,2h12c1.105,0,2-0.895,2-2C29.012,12.899,28.117,12.004,27.012,12.004z M27.012,6.004
			h-6c-1.105,0-2,0.895-2,2c0,1.105,0.895,2,2,2h6c1.105,0,2-0.895,2-2C29.012,6.899,28.117,6.004,27.012,6.004z"/>
	</g>
</g>
<g>
</g>
<g>
</g>
<g>
</g>
<g>
</g>
<g>
</g>
<g>
</g>
<g>
</g>
<g>
</g>
<g>
</g>
<g>
</g>
<g>
</g>
<g>
</g>
<g>
</g>
<g>
</g>
<g>
</g>
</svg>
