<?xml version="1.0" encoding="iso-8859-1"?>
<!-- Generator: Adobe Illustrator 18.0.0, SVG Export Plug-In . SVG Version: 6.00 Build 0)  -->
<!DOCTYPE svg PUBLIC "-//W3C//DTD SVG 1.1//EN" "http://www.w3.org/Graphics/SVG/1.1/DTD/svg11.dtd">
<svg version="1.1" id="Capa_1" xmlns="http://www.w3.org/2000/svg" xmlns:xlink="http://www.w3.org/1999/xlink" x="0px" y="0px"
	 viewBox="0 0 29.012 28.004" style="enable-background:new 0 0 29.012 28.004;" xml:space="preserve">
<g id="_x38__19_">
	<g>
		<path style="fill-rule:evenodd;clip-rule:evenodd;" d="M27.012,6h-12c-1.105,0-2,0.895-2,2c0,1.105,0.895,2,2,2h12
			c1.104,0,2-0.895,2-2C29.012,6.895,28.117,6,27.012,6z M15.012,4h12c1.104,0,2-0.895,2-2c0-1.104-0.896-2-2-2h-12
			c-1.105,0-2,0.896-2,2C13.012,3.105,13.908,4,15.012,4z M27.012,24h-12c-1.105,0-2,0.895-2,2s0.895,2,2,2h12c1.104,0,2-0.896,2-2
			S28.117,24,27.012,24z M15.699,18.303C15.307,17.909,15.012,18,15.012,18h-6l0-18h-2l0,18h-6c0,0-0.326-0.091-0.718,0.303
			c-0.392,0.394-0.392,1.032,0,1.425l6.942,7.989c0.209,0.21,0.487,0.299,0.76,0.285c0.274,0.014,0.551-0.075,0.76-0.285
			l6.942-7.989C16.091,19.335,16.091,18.697,15.699,18.303z M27.012,12h-12c-1.105,0-2,0.895-2,2c0,1.105,0.895,2,2,2h12
			c1.104,0,2-0.895,2-2C29.012,12.895,28.117,12,27.012,12z M27.012,18h-6c-1.105,0-2,0.895-2,2c0,1.104,0.895,2,2,2h6
			c1.104,0,2-0.895,2-2C29.012,18.895,28.117,18,27.012,18z"/>
	</g>
</g>
<g>
</g>
<g>
</g>
<g>
</g>
<g>
</g>
<g>
</g>
<g>
</g>
<g>
</g>
<g>
</g>
<g>
</g>
<g>
</g>
<g>
</g>
<g>
</g>
<g>
</g>
<g>
</g>
<g>
</g>
</svg>
