<?xml version="1.0" encoding="iso-8859-1"?>
<!-- Generator: Adobe Illustrator 18.0.0, SVG Export Plug-In . SVG Version: 6.00 Build 0)  -->
<!DOCTYPE svg PUBLIC "-//W3C//DTD SVG 1.1//EN" "http://www.w3.org/Graphics/SVG/1.1/DTD/svg11.dtd">
<svg version="1.1" id="Capa_1" xmlns="http://www.w3.org/2000/svg" xmlns:xlink="http://www.w3.org/1999/xlink" x="0px" y="0px"
	 viewBox="0 0 24 32" style="enable-background:new 0 0 24 32;" xml:space="preserve">
<g id="_x31__12_">
	<g>
		<path style="fill-rule:evenodd;clip-rule:evenodd;" d="M12,12.008c1.661,0,3.008-1.346,3.008-3.008
			c0-1.661-1.346-3.008-3.008-3.008c-1.661,0-3.008,1.347-3.008,3.008C8.992,10.661,10.339,12.008,12,12.008z M12,18
			c-2.761,0-5,2.239-5,5c0,2.762,2.239,5,5,5s5-2.239,5-5C17,20.239,14.761,18,12,18z M20,0H4C1.791,0,0,1.791,0,4v24
			c0,2.209,1.791,4,4,4h16c2.209,0,4-1.791,4-4V4C24,1.791,22.209,0,20,0z M12,4c2.761,0,5,2.239,5,5c0,2.762-2.239,5-5,5
			s-5-2.239-5-5C7,6.239,9.239,4,12,4z M12,30c-3.866,0-7-3.134-7-7c0-3.866,3.134-7,7-7c3.866,0,7,3.134,7,7
			C19,26.866,15.866,30,12,30z"/>
	</g>
</g>
<g>
</g>
<g>
</g>
<g>
</g>
<g>
</g>
<g>
</g>
<g>
</g>
<g>
</g>
<g>
</g>
<g>
</g>
<g>
</g>
<g>
</g>
<g>
</g>
<g>
</g>
<g>
</g>
<g>
</g>
</svg>
