<?xml version="1.0" encoding="iso-8859-1"?>
<!-- Generator: Adobe Illustrator 18.0.0, SVG Export Plug-In . SVG Version: 6.00 Build 0)  -->
<!DOCTYPE svg PUBLIC "-//W3C//DTD SVG 1.1//EN" "http://www.w3.org/Graphics/SVG/1.1/DTD/svg11.dtd">
<svg version="1.1" id="Capa_1" xmlns="http://www.w3.org/2000/svg" xmlns:xlink="http://www.w3.org/1999/xlink" x="0px" y="0px"
	 viewBox="0 0 31 27.972" style="enable-background:new 0 0 31 27.972;" xml:space="preserve">
<g id="_x34__12_">
	<g>
		<path style="fill-rule:evenodd;clip-rule:evenodd;" d="M0,9.986v8c0,1.105,0.895,2,2,2h3v-12H2C0.895,7.986,0,8.881,0,9.986z
			 M25,13.986c0-3.523-2.612-6.41-6-6.899v2c2.282,0.463,4,2.48,4,4.899c0,2.419-1.718,4.436-4,4.899v2
			C22.388,20.396,25,17.509,25,13.986z M14,1.986L7,6.652v14.667l7,4.667c1.105,0,2-0.896,2-2v-20C16,2.881,15.105,1.986,14,1.986z
			 M19,0v2.054c5.872,1.131,10,5.92,10,11.931c0,5.978-4,10.609-10,11.931v2.054c6.776-0.991,12-6.843,12-13.986
			C31,6.843,25.776,0.991,19,0z"/>
	</g>
</g>
<g>
</g>
<g>
</g>
<g>
</g>
<g>
</g>
<g>
</g>
<g>
</g>
<g>
</g>
<g>
</g>
<g>
</g>
<g>
</g>
<g>
</g>
<g>
</g>
<g>
</g>
<g>
</g>
<g>
</g>
</svg>
