<?xml version="1.0" encoding="iso-8859-1"?>
<!-- Generator: Adobe Illustrator 18.0.0, SVG Export Plug-In . SVG Version: 6.00 Build 0)  -->
<!DOCTYPE svg PUBLIC "-//W3C//DTD SVG 1.1//EN" "http://www.w3.org/Graphics/SVG/1.1/DTD/svg11.dtd">
<svg version="1.1" id="Capa_1" xmlns="http://www.w3.org/2000/svg" xmlns:xlink="http://www.w3.org/1999/xlink" x="0px" y="0px"
	 viewBox="0 0 25 24" style="enable-background:new 0 0 25 24;" xml:space="preserve">
<g id="_x33__12_">
	<g>
		<path style="fill-rule:evenodd;clip-rule:evenodd;" d="M14,0L7,4.667v14.667L14,24c1.105,0,2-0.896,2-2V2C16,0.896,15.105,0,14,0z
			 M0,8v8c0,1.105,0.895,2,2,2h3V6H2C0.895,6,0,6.895,0,8z M19,5.101v2c2.282,0.463,4,2.48,4,4.899c0,2.419-1.718,4.436-4,4.899v2
			c3.388-0.489,6-3.376,6-6.899C25,8.476,22.388,5.59,19,5.101z"/>
	</g>
</g>
<g>
</g>
<g>
</g>
<g>
</g>
<g>
</g>
<g>
</g>
<g>
</g>
<g>
</g>
<g>
</g>
<g>
</g>
<g>
</g>
<g>
</g>
<g>
</g>
<g>
</g>
<g>
</g>
<g>
</g>
</svg>
