<?xml version="1.0" encoding="iso-8859-1"?>
<!-- Generator: Adobe Illustrator 18.0.0, SVG Export Plug-In . SVG Version: 6.00 Build 0)  -->
<!DOCTYPE svg PUBLIC "-//W3C//DTD SVG 1.1//EN" "http://www.w3.org/Graphics/SVG/1.1/DTD/svg11.dtd">
<svg version="1.1" id="Capa_1" xmlns="http://www.w3.org/2000/svg" xmlns:xlink="http://www.w3.org/1999/xlink" x="0px" y="0px"
	 viewBox="0 0 28 28" style="enable-background:new 0 0 28 28;" xml:space="preserve">
<g id="_x34__6_">
	<g>
		<path style="fill-rule:evenodd;clip-rule:evenodd;" d="M2,4c1.105,0,2-0.896,2-2S3.105,0,2,0S0,0.895,0,2S0.895,4,2,4z M26,4
			c1.105,0,2-0.896,2-2s-0.895-2-2-2s-2,0.895-2,2S24.895,4,26,4z M26,22c0.347,0,0.679,0.058,1,0.141V5.858
			C26.679,5.942,26.347,6,26,6c-2.209,0-4-1.791-4-4c0-0.347,0.058-0.679,0.141-1H5.859C5.942,1.321,6,1.653,6,2
			c0,2.209-1.791,4-4,4C1.653,6,1.321,5.942,1,5.858v16.283C1.321,22.058,1.653,22,2,22c2.209,0,4,1.791,4,4
			c0,0.347-0.058,0.679-0.141,1h16.283C22.058,26.679,22,26.347,22,26C22,23.791,23.791,22,26,22z M2,24c-1.105,0-2,0.895-2,2
			c0,1.105,0.895,2,2,2s2-0.895,2-2C4,24.895,3.105,24,2,24z M26,24c-1.105,0-2,0.895-2,2c0,1.105,0.895,2,2,2s2-0.895,2-2
			C28,24.895,27.105,24,26,24z"/>
	</g>
</g>
<g>
</g>
<g>
</g>
<g>
</g>
<g>
</g>
<g>
</g>
<g>
</g>
<g>
</g>
<g>
</g>
<g>
</g>
<g>
</g>
<g>
</g>
<g>
</g>
<g>
</g>
<g>
</g>
<g>
</g>
</svg>
