<?xml version="1.0" encoding="iso-8859-1"?>
<!-- Generator: Adobe Illustrator 18.0.0, SVG Export Plug-In . SVG Version: 6.00 Build 0)  -->
<!DOCTYPE svg PUBLIC "-//W3C//DTD SVG 1.1//EN" "http://www.w3.org/Graphics/SVG/1.1/DTD/svg11.dtd">
<svg version="1.1" id="Capa_1" xmlns="http://www.w3.org/2000/svg" xmlns:xlink="http://www.w3.org/1999/xlink" x="0px" y="0px"
	 viewBox="0 0 32.008 32" style="enable-background:new 0 0 32.008 32;" xml:space="preserve">
<g id="_x36__9_">
	<g>
		<path style="fill-rule:evenodd;clip-rule:evenodd;" d="M26.162,0H5.82L0.008,10v0h31.967L26.162,0z M0.008,12
			c-0.018,0.435,0,1.43,0,2c0,1.066,0.382,2.229,1.001,3l0.03,11c0,2.209,1.847,4,4.125,4h21.655c2.278,0,4.189-1.791,4.189-4V17
			c0.7-0.824,1-1.67,1-3v-2H0.008z M29.008,24H3.011l-0.003-6c0.563,0,1.438,0,1.964,0c1.074,0,2.777-0.958,3.497-2.424
			C9.278,17.001,10.789,18,12.23,18c1.524,0,3.201-0.907,3.761-2.216C16.551,17.062,18.194,18,19.686,18
			c1.48,0,3.013-1.088,3.789-2.575c0.907,1.5,2.198,2.574,3.533,2.574c0.293,0,1.744,0.047,2,0V24z"/>
	</g>
</g>
<g>
</g>
<g>
</g>
<g>
</g>
<g>
</g>
<g>
</g>
<g>
</g>
<g>
</g>
<g>
</g>
<g>
</g>
<g>
</g>
<g>
</g>
<g>
</g>
<g>
</g>
<g>
</g>
<g>
</g>
</svg>
