<?xml version="1.0" encoding="iso-8859-1"?>
<!-- Generator: Adobe Illustrator 18.0.0, SVG Export Plug-In . SVG Version: 6.00 Build 0)  -->
<!DOCTYPE svg PUBLIC "-//W3C//DTD SVG 1.1//EN" "http://www.w3.org/Graphics/SVG/1.1/DTD/svg11.dtd">
<svg version="1.1" id="Capa_1" xmlns="http://www.w3.org/2000/svg" xmlns:xlink="http://www.w3.org/1999/xlink" x="0px" y="0px"
	 viewBox="0 0 32 24" style="enable-background:new 0 0 32 24;" xml:space="preserve">
<g id="_x31__7_">
	<g>
		<path style="fill-rule:evenodd;clip-rule:evenodd;" d="M23.067,5.029C21.599,2.052,18.543,0,15,0c-4.749,0-8.63,3.681-8.967,8.345
			C2.542,9.34,0,12.39,0,16c0,4.259,3.54,7.731,8,7.976C8,23.976,21.831,24,22,24c5.247,0,10-4.253,10-9.5
			C32,9.445,28.048,5.324,23.067,5.029z M16.816,18.38c-0.217,0.524-0.782,0.757-1.261,0.519c-0.479-0.238-0.691-0.855-0.474-1.38
			l2.543-4.51l-4.266,0.03c-0.424,0-0.781-0.266-0.927-0.638c-0.108-0.242-0.125-0.523-0.015-0.787l2.289-5.546
			c0.211-0.511,0.795-0.754,1.306-0.543c0.51,0.211,0.753,0.795,0.543,1.306L15,11l4,0c0.552,0,1,0.448,1,1
			C20,12.594,16.816,18.38,16.816,18.38z"/>
	</g>
</g>
<g>
</g>
<g>
</g>
<g>
</g>
<g>
</g>
<g>
</g>
<g>
</g>
<g>
</g>
<g>
</g>
<g>
</g>
<g>
</g>
<g>
</g>
<g>
</g>
<g>
</g>
<g>
</g>
<g>
</g>
</svg>
