<?xml version="1.0" encoding="iso-8859-1"?>
<!-- Generator: Adobe Illustrator 18.0.0, SVG Export Plug-In . SVG Version: 6.00 Build 0)  -->
<!DOCTYPE svg PUBLIC "-//W3C//DTD SVG 1.1//EN" "http://www.w3.org/Graphics/SVG/1.1/DTD/svg11.dtd">
<svg version="1.1" id="Capa_1" xmlns="http://www.w3.org/2000/svg" xmlns:xlink="http://www.w3.org/1999/xlink" x="0px" y="0px"
	 viewBox="0 0 32 20" style="enable-background:new 0 0 32 20;" xml:space="preserve">
<g id="_x34__15_">
	<g>
		<path style="fill-rule:evenodd;clip-rule:evenodd;" d="M22,6c-2.209,0-4,1.791-4,4c0,2.209,1.791,4,4,4c2.209,0,4-1.791,4-4
			C26,7.791,24.209,6,22,6z M22,0H10C4.477,0,0,4.477,0,10c0,5.523,4.477,10,10,10h12c5.523,0,10-4.477,10-10
			C32,4.477,27.523,0,22,0z M22,16c-3.314,0-6-2.686-6-6c0-3.314,2.686-6,6-6s6,2.686,6,6C28,13.314,25.314,16,22,16z"/>
	</g>
</g>
<g>
</g>
<g>
</g>
<g>
</g>
<g>
</g>
<g>
</g>
<g>
</g>
<g>
</g>
<g>
</g>
<g>
</g>
<g>
</g>
<g>
</g>
<g>
</g>
<g>
</g>
<g>
</g>
<g>
</g>
</svg>
