<?xml version="1.0" encoding="iso-8859-1"?>
<!-- Generator: Adobe Illustrator 18.0.0, SVG Export Plug-In . SVG Version: 6.00 Build 0)  -->
<!DOCTYPE svg PUBLIC "-//W3C//DTD SVG 1.1//EN" "http://www.w3.org/Graphics/SVG/1.1/DTD/svg11.dtd">
<svg version="1.1" id="Capa_1" xmlns="http://www.w3.org/2000/svg" xmlns:xlink="http://www.w3.org/1999/xlink" x="0px" y="0px"
	 viewBox="0 0 32.012 31.985" style="enable-background:new 0 0 32.012 31.985;" xml:space="preserve">
<g id="_x36__8_">
	<g>
		<path style="fill-rule:evenodd;clip-rule:evenodd;" d="M1.216,14.683c-1.621,1.615-1.621,4.235,0,5.851l10.271,10.24
			c1.621,1.616,4.248,1.616,5.869,0L19.134,29L3.019,12.885L1.216,14.683z M30.096,0H16.682c-1.058,0-1.252,0.463-2.261,1.518
			l-9.986,9.955l16.115,16.115l10.01-9.98c0.85-0.848,1.451-1.269,1.451-2.325V1.911C32.012,0.855,31.154,0,30.096,0z
			 M24.816,12.842c-1.56,1.561-4.089,1.561-5.648,0c-1.56-1.561-1.56-4.092,0-5.652c1.56-1.561,4.089-1.561,5.648,0
			C26.376,8.751,26.376,11.281,24.816,12.842z M20.579,8.603c-0.78,0.781-0.78,2.046,0,2.826c0.78,0.78,2.044,0.78,2.824,0
			c0.78-0.78,0.78-2.046,0-2.826C22.624,7.822,21.359,7.822,20.579,8.603z"/>
	</g>
</g>
<g>
</g>
<g>
</g>
<g>
</g>
<g>
</g>
<g>
</g>
<g>
</g>
<g>
</g>
<g>
</g>
<g>
</g>
<g>
</g>
<g>
</g>
<g>
</g>
<g>
</g>
<g>
</g>
<g>
</g>
</svg>
