<?xml version="1.0" encoding="iso-8859-1"?>
<!-- Generator: Adobe Illustrator 18.0.0, SVG Export Plug-In . SVG Version: 6.00 Build 0)  -->
<!DOCTYPE svg PUBLIC "-//W3C//DTD SVG 1.1//EN" "http://www.w3.org/Graphics/SVG/1.1/DTD/svg11.dtd">
<svg version="1.1" id="Capa_1" xmlns="http://www.w3.org/2000/svg" xmlns:xlink="http://www.w3.org/1999/xlink" x="0px" y="0px"
	 viewBox="0 0 30 30" style="enable-background:new 0 0 30 30;" xml:space="preserve">
<g id="_x38__6_">
	<g>
		<path style="fill-rule:evenodd;clip-rule:evenodd;" d="M23,15c0-0.641,0.36-1,1-1h6C29.435,6.604,23.397,0.565,16,0v6
			c0,0.64-0.36,1-1,1c-0.64,0-1-0.36-1-1V0C6.603,0.565,0.565,6.604,0,14h6c0.64,0,1,0.359,1,1c0,0.64-0.36,1-1,1H0
			c0.565,7.396,6.603,13.435,14,14v-6c0-0.64,0.36-1,1-1c0.64,0,1,0.36,1,1v6c7.397-0.565,13.435-6.604,14-14h-6
			C23.36,16,23,15.64,23,15z"/>
	</g>
</g>
<g>
</g>
<g>
</g>
<g>
</g>
<g>
</g>
<g>
</g>
<g>
</g>
<g>
</g>
<g>
</g>
<g>
</g>
<g>
</g>
<g>
</g>
<g>
</g>
<g>
</g>
<g>
</g>
<g>
</g>
</svg>
