<?xml version="1.0" encoding="iso-8859-1"?>
<!-- Generator: Adobe Illustrator 18.0.0, SVG Export Plug-In . SVG Version: 6.00 Build 0)  -->
<!DOCTYPE svg PUBLIC "-//W3C//DTD SVG 1.1//EN" "http://www.w3.org/Graphics/SVG/1.1/DTD/svg11.dtd">
<svg version="1.1" id="Capa_1" xmlns="http://www.w3.org/2000/svg" xmlns:xlink="http://www.w3.org/1999/xlink" x="0px" y="0px"
	 viewBox="0 0 24 32" style="enable-background:new 0 0 24 32;" xml:space="preserve">
<g id="_x31_0_9_">
	<g>
		<path style="fill-rule:evenodd;clip-rule:evenodd;" d="M12,2c2.209,0,4,0.619,4,2v0h2c0-2.209-2.686-4-6-4C8.686,0,6,1.791,6,4h2
			v0C8,2.619,9.791,2,12,2z M0,28c0,2.209,1.791,4,4,4h16c2.209,0,4-1.791,4-4v-2H0V28z M20,4h-2v8h-2V4H8v8H6V4H4
			C1.791,4,0,5.791,0,8v16h24V8C24,5.791,22.209,4,20,4z"/>
	</g>
</g>
<g>
</g>
<g>
</g>
<g>
</g>
<g>
</g>
<g>
</g>
<g>
</g>
<g>
</g>
<g>
</g>
<g>
</g>
<g>
</g>
<g>
</g>
<g>
</g>
<g>
</g>
<g>
</g>
<g>
</g>
</svg>
