<?xml version="1.0" encoding="iso-8859-1"?>
<!-- Generator: Adobe Illustrator 18.0.0, SVG Export Plug-In . SVG Version: 6.00 Build 0)  -->
<!DOCTYPE svg PUBLIC "-//W3C//DTD SVG 1.1//EN" "http://www.w3.org/Graphics/SVG/1.1/DTD/svg11.dtd">
<svg version="1.1" id="Capa_1" xmlns="http://www.w3.org/2000/svg" xmlns:xlink="http://www.w3.org/1999/xlink" x="0px" y="0px"
	 viewBox="0 0 32 31.989" style="enable-background:new 0 0 32 31.989;" xml:space="preserve">
<g id="_x36__13_">
	<g>
		<path style="fill-rule:evenodd;clip-rule:evenodd;" d="M17,13.989H7c-0.552,0-1,0.448-1,1v10c0,0.552,0.448,1,1,1h10
			c0.552,0,1-0.448,1-1v-10C18,14.437,17.552,13.989,17,13.989z M28,7.989h-9.254l8.772-6.035c0.464-0.319,0.596-0.977,0.296-1.469
			c-0.3-0.492-0.919-0.633-1.383-0.314c0,0-9.61,6.635-10.422,7.125L5.569,0.171C5.106-0.148,4.487-0.007,4.187,0.485
			c-0.3,0.492-0.168,1.15,0.296,1.469l8.772,6.035H4c-2.209,0-4,1.791-4,4v16c0,2.209,1.791,4,4,4h24c2.209,0,4-1.791,4-4v-16
			C32,9.78,30.209,7.989,28,7.989z M20,25.989c0,1.104-0.895,2-2,2H6c-1.105,0-2-0.895-2-2v-12c0-1.104,0.895-2,2-2h12
			c1.105,0,2,0.896,2,2V25.989z M27,27.989h-4c-0.552,0-1-0.448-1-1c0-0.552,0.448-1,1-1h4c0.552,0,1,0.448,1,1
			C28,27.541,27.552,27.989,27,27.989z M27,24.989h-4c-0.552,0-1-0.448-1-1c0-0.552,0.448-1,1-1h4c0.552,0,1,0.448,1,1
			C28,24.541,27.552,24.989,27,24.989z M25,17.989c-1.657,0-3-1.343-3-3c0-1.657,1.343-3,3-3c1.657,0,3,1.343,3,3
			C28,16.646,26.657,17.989,25,17.989z M24,15.989h2v-2h-2V15.989z"/>
	</g>
</g>
<g>
</g>
<g>
</g>
<g>
</g>
<g>
</g>
<g>
</g>
<g>
</g>
<g>
</g>
<g>
</g>
<g>
</g>
<g>
</g>
<g>
</g>
<g>
</g>
<g>
</g>
<g>
</g>
<g>
</g>
</svg>
