<?xml version="1.0" encoding="iso-8859-1"?>
<!-- Generator: Adobe Illustrator 18.0.0, SVG Export Plug-In . SVG Version: 6.00 Build 0)  -->
<!DOCTYPE svg PUBLIC "-//W3C//DTD SVG 1.1//EN" "http://www.w3.org/Graphics/SVG/1.1/DTD/svg11.dtd">
<svg version="1.1" id="Capa_1" xmlns="http://www.w3.org/2000/svg" xmlns:xlink="http://www.w3.org/1999/xlink" x="0px" y="0px"
	 viewBox="0 0 32 32" style="enable-background:new 0 0 32 32;" xml:space="preserve">
<g id="_x31_0_5_">
	<g>
		<path style="fill-rule:evenodd;clip-rule:evenodd;" d="M28,0H4C1.791,0,0,1.791,0,4v24c0,2.209,1.791,4,4,4h24
			c2.209,0,4-1.791,4-4V4C32,1.791,30.209,0,28,0z M14,28l-8.972,0c-0.28,0-0.531-0.116-0.712-0.301C4.122,27.535,4,27.296,4,27v-9
			c0-0.552,0.448-1,1-1s1,0.448,1,1l-0.032,6.575l6.788-6.788l1.414,1.414L7.371,26L14,26c0.552,0,1,0.448,1,1
			C15,27.552,14.552,28,14,28z M28,14c0,0.552-0.448,1-1,1c-0.552,0-1-0.448-1-1l0.032-6.575l-6.788,6.788l-1.414-1.414L24.629,6
			L18,6c-0.552,0-1-0.448-1-1c0-0.552,0.448-1,1-1l8.972,0c0.28,0,0.531,0.116,0.712,0.301C27.878,4.465,28,4.704,28,5V14z"/>
	</g>
</g>
<g>
</g>
<g>
</g>
<g>
</g>
<g>
</g>
<g>
</g>
<g>
</g>
<g>
</g>
<g>
</g>
<g>
</g>
<g>
</g>
<g>
</g>
<g>
</g>
<g>
</g>
<g>
</g>
<g>
</g>
</svg>
