<?xml version="1.0" encoding="iso-8859-1"?>
<!-- Generator: Adobe Illustrator 18.0.0, SVG Export Plug-In . SVG Version: 6.00 Build 0)  -->
<!DOCTYPE svg PUBLIC "-//W3C//DTD SVG 1.1//EN" "http://www.w3.org/Graphics/SVG/1.1/DTD/svg11.dtd">
<svg version="1.1" id="Capa_1" xmlns="http://www.w3.org/2000/svg" xmlns:xlink="http://www.w3.org/1999/xlink" x="0px" y="0px"
	 viewBox="0 0 26 32" style="enable-background:new 0 0 26 32;" xml:space="preserve">
<g id="_x36__15_">
	<g>
		<path style="fill-rule:evenodd;clip-rule:evenodd;" d="M13,0C8.12,4.949,0,11.82,0,19c0,7.18,5.82,13,13,13c7.18,0,13-5.82,13-13
			C26,11.82,18.077,5.077,13,0z M13,27c-3.866,0-7-3.092-7-6.906C6,16.28,10.372,12.629,13,10c2.734,2.697,7,6.28,7,10.094
			C20,23.908,16.866,27,13,27z M12.966,12.505c-1.872,2.011-4.954,4.298-4.954,7.214C8.012,22.635,10.245,25,13,25
			c2.755,0,4.988-2.364,4.988-5.281C17.988,16.802,14.914,14.567,12.966,12.505z"/>
	</g>
</g>
<g>
</g>
<g>
</g>
<g>
</g>
<g>
</g>
<g>
</g>
<g>
</g>
<g>
</g>
<g>
</g>
<g>
</g>
<g>
</g>
<g>
</g>
<g>
</g>
<g>
</g>
<g>
</g>
<g>
</g>
</svg>
