<?xml version="1.0" encoding="iso-8859-1"?>
<!-- Generator: Adobe Illustrator 18.0.0, SVG Export Plug-In . SVG Version: 6.00 Build 0)  -->
<!DOCTYPE svg PUBLIC "-//W3C//DTD SVG 1.1//EN" "http://www.w3.org/Graphics/SVG/1.1/DTD/svg11.dtd">
<svg version="1.1" id="Capa_1" xmlns="http://www.w3.org/2000/svg" xmlns:xlink="http://www.w3.org/1999/xlink" x="0px" y="0px"
	 viewBox="0 0 32 32" style="enable-background:new 0 0 32 32;" xml:space="preserve">
<g id="_x36_">
	<g>
		<path style="fill-rule:evenodd;clip-rule:evenodd;" d="M13.629,18.362c-0.189-0.21-0.456-0.347-0.761-0.348l-8.623-0.012
			c-0.571-0.001-1.033,0.461-1.032,1.032c0.001,0.571,0.667,1.213,0.953,1.499l2.181,2.181L0,29l3,3l6.254-6.378l2.181,2.181
			c0.472,0.472,0.951,0.974,1.522,0.975c0.571,0.001,1.033-0.461,1.032-1.032l-0.012-8.623
			C13.976,18.818,13.839,18.551,13.629,18.362z M25.784,9.175L32,3l-3-3l-6.173,6.199l-2.218-2.232
			c-0.48-0.483-0.967-0.997-1.547-0.998c-0.581-0.001-1.05,0.472-1.05,1.056l0.012,8.826c0,0.312,0.14,0.585,0.354,0.779
			c0.193,0.215,0.464,0.355,0.774,0.356l8.77,0.012c0.58,0.001,1.05-0.472,1.05-1.056c-0.001-0.584-0.678-1.242-0.969-1.534
			L25.784,9.175z"/>
	</g>
</g>
<g>
</g>
<g>
</g>
<g>
</g>
<g>
</g>
<g>
</g>
<g>
</g>
<g>
</g>
<g>
</g>
<g>
</g>
<g>
</g>
<g>
</g>
<g>
</g>
<g>
</g>
<g>
</g>
<g>
</g>
</svg>
