<?xml version="1.0" encoding="iso-8859-1"?>
<!-- Generator: Adobe Illustrator 18.0.0, SVG Export Plug-In . SVG Version: 6.00 Build 0)  -->
<!DOCTYPE svg PUBLIC "-//W3C//DTD SVG 1.1//EN" "http://www.w3.org/Graphics/SVG/1.1/DTD/svg11.dtd">
<svg version="1.1" id="Capa_1" xmlns="http://www.w3.org/2000/svg" xmlns:xlink="http://www.w3.org/1999/xlink" x="0px" y="0px"
	 viewBox="0 0 32.019 28" style="enable-background:new 0 0 32.019 28;" xml:space="preserve">
<g id="_x37__11_">
	<g>
		<path style="fill-rule:evenodd;clip-rule:evenodd;" d="M31.691,12h-1.829c-0.973-6.782-6.79-12-13.841-12
			C10.572,0,5.862,3.12,3.548,7.664l3.756,1.444C9.017,6.062,12.276,4,16.021,4c4.838,0,8.873,3.436,9.799,8H23.41
			c-0.309,0.3-0.605,0.486-0.162,1.006l3.731,3.794c0.309,0.3,0.81,0.3,1.119,0l3.756-3.794C32.162,12.706,32,12.301,31.691,12z
			 M16.021,24c-4.477,0-8.266-2.943-9.541-7h2.188c0.309-0.3,0.471-0.706,0.162-1.006L5.075,12.2c-0.309-0.3-0.81-0.3-1.119,0
			l-3.731,3.794C-0.218,16.514,0.078,16.7,0.387,17h1.834c1.085,5.932,6.841,11,13.801,11c5.093,0,9.537-2.729,11.987-6.795
			l-3.785-1.494C22.416,22.302,19.419,24,16.021,24z"/>
	</g>
</g>
<g>
</g>
<g>
</g>
<g>
</g>
<g>
</g>
<g>
</g>
<g>
</g>
<g>
</g>
<g>
</g>
<g>
</g>
<g>
</g>
<g>
</g>
<g>
</g>
<g>
</g>
<g>
</g>
<g>
</g>
</svg>
