<?xml version="1.0" encoding="iso-8859-1"?>
<!-- Generator: Adobe Illustrator 18.0.0, SVG Export Plug-In . SVG Version: 6.00 Build 0)  -->
<!DOCTYPE svg PUBLIC "-//W3C//DTD SVG 1.1//EN" "http://www.w3.org/Graphics/SVG/1.1/DTD/svg11.dtd">
<svg version="1.1" id="Capa_1" xmlns="http://www.w3.org/2000/svg" xmlns:xlink="http://www.w3.org/1999/xlink" x="0px" y="0px"
	 viewBox="0 0 32 32" style="enable-background:new 0 0 32 32;" xml:space="preserve">
<g id="_x31__4_">
	<g>
		<path style="fill-rule:evenodd;clip-rule:evenodd;" d="M28,0H4C1.791,0,0,1.791,0,4v24c0,2.209,1.791,4,4,4h24
			c2.209,0,4-1.791,4-4V4C32,1.791,30.209,0,28,0z M15,27c0,0.552-0.448,1-1,1c-0.552,0-1-0.448-1-1l0.031-6.575l-6.788,6.788
			L4.83,25.799L11.628,19L5,19c-0.552,0-1-0.448-1-1c0-0.552,0.448-1,1-1l8.972,0c0.28,0,0.531,0.116,0.712,0.301
			C14.878,17.465,15,17.704,15,18V27z M27,15l-8.972,0c-0.28,0-0.531-0.116-0.712-0.301C17.122,14.535,17,14.296,17,14V5
			c0-0.552,0.448-1,1-1c0.552,0,1,0.448,1,1l-0.032,6.575l6.788-6.788l1.414,1.414L20.371,13L27,13c0.552,0,1,0.448,1,1
			C28,14.552,27.552,15,27,15z"/>
	</g>
</g>
<g>
</g>
<g>
</g>
<g>
</g>
<g>
</g>
<g>
</g>
<g>
</g>
<g>
</g>
<g>
</g>
<g>
</g>
<g>
</g>
<g>
</g>
<g>
</g>
<g>
</g>
<g>
</g>
<g>
</g>
</svg>
