<?xml version="1.0" encoding="iso-8859-1"?>
<!-- Generator: Adobe Illustrator 18.0.0, SVG Export Plug-In . SVG Version: 6.00 Build 0)  -->
<!DOCTYPE svg PUBLIC "-//W3C//DTD SVG 1.1//EN" "http://www.w3.org/Graphics/SVG/1.1/DTD/svg11.dtd">
<svg version="1.1" id="Capa_1" xmlns="http://www.w3.org/2000/svg" xmlns:xlink="http://www.w3.org/1999/xlink" x="0px" y="0px"
	 viewBox="0 0 30.007 26.01" style="enable-background:new 0 0 30.007 26.01;" xml:space="preserve">
<g id="_x34__9_">
	<g>
		<path style="fill-rule:evenodd;clip-rule:evenodd;" d="M8.004,17.009v-8c0-0.384,0.094-0.928-0.3-1.313
			c-0.394-0.384-1.032-0.384-1.426,0L0.287,12.54c-0.21,0.205-0.299,0.477-0.285,0.745c-0.014,0.268,0.075,0.54,0.285,0.745
			l5.991,4.843c0.394,0.384,1.032,0.384,1.426,0C8.098,18.489,8.004,17.737,8.004,17.009z M29.72,12.54L23.73,7.696
			c-0.394-0.384-1.032-0.384-1.426,0c-0.394,0.384-0.3,0.741-0.3,1.313v8c0,0.54-0.094,1.48,0.3,1.864
			c0.394,0.384,1.032,0.384,1.426,0l5.991-4.843c0.21-0.205,0.299-0.477,0.285-0.745C30.02,13.017,29.93,12.745,29.72,12.54z
			 M21.963,0.132c-0.478-0.271-1.09-0.11-1.366,0.359l-12.5,24.087c-0.276,0.469-0.162,1.186,0.366,1.339
			c0.646,0.187,1.09,0.11,1.366-0.359l12.5-24.087C22.606,1.001,22.442,0.402,21.963,0.132z"/>
	</g>
</g>
<g>
</g>
<g>
</g>
<g>
</g>
<g>
</g>
<g>
</g>
<g>
</g>
<g>
</g>
<g>
</g>
<g>
</g>
<g>
</g>
<g>
</g>
<g>
</g>
<g>
</g>
<g>
</g>
<g>
</g>
</svg>
