<?xml version="1.0" encoding="iso-8859-1"?>
<!-- Generator: Adobe Illustrator 18.0.0, SVG Export Plug-In . SVG Version: 6.00 Build 0)  -->
<!DOCTYPE svg PUBLIC "-//W3C//DTD SVG 1.1//EN" "http://www.w3.org/Graphics/SVG/1.1/DTD/svg11.dtd">
<svg version="1.1" id="Capa_1" xmlns="http://www.w3.org/2000/svg" xmlns:xlink="http://www.w3.org/1999/xlink" x="0px" y="0px"
	 viewBox="0 0 20 28" style="enable-background:new 0 0 20 28;" xml:space="preserve">
<g id="_x38__5_">
	<g>
		<path style="fill-rule:evenodd;clip-rule:evenodd;" d="M18,0H2C0.895,0,0,0.895,0,2v16c0,1.105,0.895,2,2,2h7V5.414l-5.243,5.243
			c-0.391,0.391-1.024,0.391-1.414,0c-0.391-0.391-0.391-1.024,0-1.414l6.9-6.899C9.451,2.135,9.727,2.046,10,2.06
			c0.273-0.014,0.549,0.075,0.757,0.283l6.899,6.899c0.391,0.39,0.391,1.024,0,1.414c-0.391,0.391-1.024,0.391-1.414,0L11,5.414V20
			h7c1.105,0,2-0.895,2-2V2C20,0.895,19.105,0,18,0z M9,27c0,0.552,0.448,1,1,1c0.552,0,1-0.448,1-1v-7H9V27z"/>
	</g>
</g>
<g>
</g>
<g>
</g>
<g>
</g>
<g>
</g>
<g>
</g>
<g>
</g>
<g>
</g>
<g>
</g>
<g>
</g>
<g>
</g>
<g>
</g>
<g>
</g>
<g>
</g>
<g>
</g>
<g>
</g>
</svg>
