<?xml version="1.0" encoding="iso-8859-1"?>
<!-- Generator: Adobe Illustrator 18.0.0, SVG Export Plug-In . SVG Version: 6.00 Build 0)  -->
<!DOCTYPE svg PUBLIC "-//W3C//DTD SVG 1.1//EN" "http://www.w3.org/Graphics/SVG/1.1/DTD/svg11.dtd">
<svg version="1.1" id="Capa_1" xmlns="http://www.w3.org/2000/svg" xmlns:xlink="http://www.w3.org/1999/xlink" x="0px" y="0px"
	 viewBox="0 0 32 32" style="enable-background:new 0 0 32 32;" xml:space="preserve">
<g id="_x39__4_">
	<g>
		<path style="fill-rule:evenodd;clip-rule:evenodd;" d="M28,0H4C1.791,0,0,1.791,0,4v24c0,2.209,1.791,4,4,4h24
			c2.209,0,4-1.791,4-4V4C32,1.791,30.209,0,28,0z M22.536,15.536c-0.391,0.391-1.024,0.391-1.414,0L17,11.414V22
			c0,0.552-0.448,1-1,1c-0.552,0-1-0.448-1-1V11.414l-4.121,4.121c-0.391,0.391-1.024,0.391-1.414,0
			c-0.391-0.391-0.391-1.024,0-1.414l5.657-5.657c0.24-0.24,0.568-0.314,0.879-0.26c0.31-0.055,0.639,0.02,0.879,0.26l5.657,5.657
			C22.926,14.512,22.926,15.145,22.536,15.536z"/>
	</g>
</g>
<g>
</g>
<g>
</g>
<g>
</g>
<g>
</g>
<g>
</g>
<g>
</g>
<g>
</g>
<g>
</g>
<g>
</g>
<g>
</g>
<g>
</g>
<g>
</g>
<g>
</g>
<g>
</g>
<g>
</g>
</svg>
