<?xml version="1.0" encoding="iso-8859-1"?>
<!-- Generator: Adobe Illustrator 18.0.0, SVG Export Plug-In . SVG Version: 6.00 Build 0)  -->
<!DOCTYPE svg PUBLIC "-//W3C//DTD SVG 1.1//EN" "http://www.w3.org/Graphics/SVG/1.1/DTD/svg11.dtd">
<svg version="1.1" id="Capa_1" xmlns="http://www.w3.org/2000/svg" xmlns:xlink="http://www.w3.org/1999/xlink" x="0px" y="0px"
	 viewBox="0 0 32 32" style="enable-background:new 0 0 32 32;" xml:space="preserve">
<g id="_x35__4_">
	<g>
		<path style="fill-rule:evenodd;clip-rule:evenodd;" d="M28,0H4C1.791,0,0,1.791,0,4v24c0,2.209,1.791,4,4,4h24
			c2.209,0,4-1.791,4-4V4C32,1.791,30.209,0,28,0z M25.718,21.685c-0.393,0.395-1.03,0.395-1.423,0l-8.279-8.309l-8.279,8.309
			c-0.393,0.395-1.03,0.395-1.422,0c-0.393-0.395-0.393-1.034,0-1.429l8.94-8.972c0.209-0.21,0.487-0.3,0.762-0.286
			c0.274-0.014,0.552,0.076,0.762,0.286l8.94,8.972C26.11,20.651,26.11,21.29,25.718,21.685z"/>
	</g>
</g>
<g>
</g>
<g>
</g>
<g>
</g>
<g>
</g>
<g>
</g>
<g>
</g>
<g>
</g>
<g>
</g>
<g>
</g>
<g>
</g>
<g>
</g>
<g>
</g>
<g>
</g>
<g>
</g>
<g>
</g>
</svg>
