<?xml version="1.0" encoding="iso-8859-1"?>
<!-- Generator: Adobe Illustrator 18.0.0, SVG Export Plug-In . SVG Version: 6.00 Build 0)  -->
<!DOCTYPE svg PUBLIC "-//W3C//DTD SVG 1.1//EN" "http://www.w3.org/Graphics/SVG/1.1/DTD/svg11.dtd">
<svg version="1.1" id="Capa_1" xmlns="http://www.w3.org/2000/svg" xmlns:xlink="http://www.w3.org/1999/xlink" x="0px" y="0px"
	 viewBox="0 0 32 32" style="enable-background:new 0 0 32 32;" xml:space="preserve">
<g id="_x33__8_">
	<g>
		<path style="fill-rule:evenodd;clip-rule:evenodd;" d="M28,0H4C1.791,0,0,1.791,0,4v24c0,2.209,1.791,4,4,4h24
			c2.209,0,4-1.791,4-4V4C32,1.791,30.209,0,28,0z M21.718,15.719c-0.392,0.393-1.028,0.393-1.42,0L17,11.727V27
			c0,0.552-0.448,1-1,1c-0.552,0-1-0.448-1-1V11.765l-3.267,3.954c-0.392,0.393-1.028,0.393-1.42,0
			c-0.392-0.393-0.392-1.031,0-1.424l4.942-5.981c0.209-0.21,0.487-0.299,0.76-0.285c0.274-0.014,0.551,0.075,0.76,0.285
			l4.942,5.981C22.11,14.689,22.11,15.326,21.718,15.719z M25,6H7C6.448,6,6,5.553,6,5c0-0.552,0.448-1,1-1h18c0.552,0,1,0.448,1,1
			C26,5.553,25.552,6,25,6z"/>
	</g>
</g>
<g>
</g>
<g>
</g>
<g>
</g>
<g>
</g>
<g>
</g>
<g>
</g>
<g>
</g>
<g>
</g>
<g>
</g>
<g>
</g>
<g>
</g>
<g>
</g>
<g>
</g>
<g>
</g>
<g>
</g>
</svg>
