<?xml version="1.0" encoding="iso-8859-1"?>
<!-- Generator: Adobe Illustrator 18.0.0, SVG Export Plug-In . SVG Version: 6.00 Build 0)  -->
<!DOCTYPE svg PUBLIC "-//W3C//DTD SVG 1.1//EN" "http://www.w3.org/Graphics/SVG/1.1/DTD/svg11.dtd">
<svg version="1.1" id="Capa_1" xmlns="http://www.w3.org/2000/svg" xmlns:xlink="http://www.w3.org/1999/xlink" x="0px" y="0px"
	 viewBox="0 0 30 26.004" style="enable-background:new 0 0 30 26.004;" xml:space="preserve">
<g id="_x31_0_10_">
	<g>
		<path style="fill-rule:evenodd;clip-rule:evenodd;" d="M28,16.004c-1.105,0-2,0.895-2,2v4H4v-4c0-1.105-0.895-2-2-2s-2,0.895-2,2
			v7c0,0.48,0.52,1,1,1h28c0.604,0,1-0.458,1-1v-7C30,16.899,29.105,16.004,28,16.004z M11,8.004h2v9c0,1.105,0.895,2,2,2
			c1.104,0,2-0.895,2-2v-9h2c0.705,0,1.326,0.094,1.718-0.3c0.392-0.394,0.392-1.032,0-1.426l-4.942-5.991
			c-0.209-0.21-0.487-0.299-0.76-0.285c-0.274-0.014-0.551,0.075-0.76,0.285L9.313,6.278c-0.392,0.394-0.392,1.032,0,1.426
			C9.705,8.098,10.608,8.004,11,8.004z"/>
	</g>
</g>
<g>
</g>
<g>
</g>
<g>
</g>
<g>
</g>
<g>
</g>
<g>
</g>
<g>
</g>
<g>
</g>
<g>
</g>
<g>
</g>
<g>
</g>
<g>
</g>
<g>
</g>
<g>
</g>
<g>
</g>
</svg>
