<?xml version="1.0" encoding="iso-8859-1"?>
<!-- Generator: Adobe Illustrator 18.0.0, SVG Export Plug-In . SVG Version: 6.00 Build 0)  -->
<!DOCTYPE svg PUBLIC "-//W3C//DTD SVG 1.1//EN" "http://www.w3.org/Graphics/SVG/1.1/DTD/svg11.dtd">
<svg version="1.1" id="Capa_1" xmlns="http://www.w3.org/2000/svg" xmlns:xlink="http://www.w3.org/1999/xlink" x="0px" y="0px"
	 viewBox="0 0 32 24" style="enable-background:new 0 0 32 24;" xml:space="preserve">
<g id="_x38__1_">
	<g>
		<path style="fill-rule:evenodd;clip-rule:evenodd;" d="M23.067,5.029C21.599,2.052,18.543,0,15,0c-4.749,0-8.63,3.681-8.967,8.345
			C2.542,9.34,0,12.39,0,16c0,4.259,3.54,7.731,8,7.976L25,24c3.436-1.492,7-5.649,7-9.5C32,9.445,28.048,5.324,23.067,5.029z
			 M22.718,13.612c-0.393,0.391-1.03,0.391-1.423,0L17,9.336v9.649c0,0.553-0.448,1.001-1,1.001c-0.552,0-1-0.448-1-1.001V9.367
			l-4.264,4.245c-0.393,0.391-1.03,0.391-1.423,0c-0.393-0.391-0.393-1.026,0-1.417l5.94-5.913c0.21-0.209,0.487-0.298,0.762-0.284
			c0.274-0.014,0.552,0.075,0.762,0.284l5.94,5.913C23.11,12.586,23.11,13.22,22.718,13.612z"/>
	</g>
</g>
<g>
</g>
<g>
</g>
<g>
</g>
<g>
</g>
<g>
</g>
<g>
</g>
<g>
</g>
<g>
</g>
<g>
</g>
<g>
</g>
<g>
</g>
<g>
</g>
<g>
</g>
<g>
</g>
<g>
</g>
</svg>
