<?xml version="1.0" encoding="iso-8859-1"?>
<!-- Generator: Adobe Illustrator 18.0.0, SVG Export Plug-In . SVG Version: 6.00 Build 0)  -->
<!DOCTYPE svg PUBLIC "-//W3C//DTD SVG 1.1//EN" "http://www.w3.org/Graphics/SVG/1.1/DTD/svg11.dtd">
<svg version="1.1" id="Capa_1" xmlns="http://www.w3.org/2000/svg" xmlns:xlink="http://www.w3.org/1999/xlink" x="0px" y="0px"
	 viewBox="0 0 22 32" style="enable-background:new 0 0 22 32;" xml:space="preserve">
<g id="_x39__13_">
	<g>
		<path style="fill-rule:evenodd;clip-rule:evenodd;" d="M20.79,7.164C19.848,3.074,15.823,0,11,0C6.176,0,2.152,3.074,1.21,7.164
			C0.498,7.47,0,8.176,0,9v2c0,1.105,0.895,2,2,2c0,0,2.219,5,9,5s9-5,9-5c1.105,0,2-0.895,2-2V9C22,8.176,21.501,7.47,20.79,7.164z
			 M19,11H3c-0.552,0-1-0.448-1-1c0-0.552,0.448-1,1-1h16c0.552,0,1,0.448,1,1C20,10.552,19.552,11,19,11z M5.417,18.923L7,30
			c0,1.105,0.895,2,2,2h4c1.105,0,2-0.895,2-2l1.582-11.077C11.11,21.192,6.084,19.192,5.417,18.923z"/>
	</g>
</g>
<g>
</g>
<g>
</g>
<g>
</g>
<g>
</g>
<g>
</g>
<g>
</g>
<g>
</g>
<g>
</g>
<g>
</g>
<g>
</g>
<g>
</g>
<g>
</g>
<g>
</g>
<g>
</g>
<g>
</g>
</svg>
