<?xml version="1.0" encoding="iso-8859-1"?>
<!-- Generator: Adobe Illustrator 18.0.0, SVG Export Plug-In . SVG Version: 6.00 Build 0)  -->
<!DOCTYPE svg PUBLIC "-//W3C//DTD SVG 1.1//EN" "http://www.w3.org/Graphics/SVG/1.1/DTD/svg11.dtd">
<svg version="1.1" id="Capa_1" xmlns="http://www.w3.org/2000/svg" xmlns:xlink="http://www.w3.org/1999/xlink" x="0px" y="0px"
	 viewBox="0 0 22 32" style="enable-background:new 0 0 22 32;" xml:space="preserve">
<g id="_x31__17_">
	<g>
		<path style="fill-rule:evenodd;clip-rule:evenodd;" d="M11,24c3.866,0,7-3.134,7-7V7c0-3.866-3.134-7-7-7C7.134,0,4,3.134,4,7v10
			C4,20.866,7.134,24,11,24z M22,19h-2c-0.91,4.007-4.718,7-9,7s-8.09-2.993-9-7H0c0.883,4.799,5.063,8.51,10,8.955V30H9
			c-0.552,0-1,0.448-1,1c0,0.552,0.448,1,1,1h4c0.552,0,1-0.448,1-1c0-0.552-0.448-1-1-1h-1v-2.045
			C16.937,27.51,21.117,23.799,22,19z"/>
	</g>
</g>
<g>
</g>
<g>
</g>
<g>
</g>
<g>
</g>
<g>
</g>
<g>
</g>
<g>
</g>
<g>
</g>
<g>
</g>
<g>
</g>
<g>
</g>
<g>
</g>
<g>
</g>
<g>
</g>
<g>
</g>
</svg>
