<?xml version="1.0" encoding="iso-8859-1"?>
<!-- Generator: Adobe Illustrator 18.0.0, SVG Export Plug-In . SVG Version: 6.00 Build 0)  -->
<!DOCTYPE svg PUBLIC "-//W3C//DTD SVG 1.1//EN" "http://www.w3.org/Graphics/SVG/1.1/DTD/svg11.dtd">
<svg version="1.1" id="Capa_1" xmlns="http://www.w3.org/2000/svg" xmlns:xlink="http://www.w3.org/1999/xlink" x="0px" y="0px"
	 viewBox="0 0 30 32.144" style="enable-background:new 0 0 30 32.144;" xml:space="preserve">
<g id="_x34__8_">
	<g>
		<path style="fill-rule:evenodd;clip-rule:evenodd;" d="M24,22.144h6v-2h-6V22.144z M28,1.144c0-0.552-0.236-0.86-0.75-1.062
			C26.854-0.074,26.469,0.019,26,0.144l-26,8h28V1.144z M28,10.144H0v20c0,1.104,0.895,2,2,2h26c1.105,0,2-0.896,2-2v-6h-7
			c-0.552,0-1-0.448-1-1v-4c0-0.552,0.448-1,1-1h7v-6C30,11.04,29.105,10.144,28,10.144z"/>
	</g>
</g>
<g>
</g>
<g>
</g>
<g>
</g>
<g>
</g>
<g>
</g>
<g>
</g>
<g>
</g>
<g>
</g>
<g>
</g>
<g>
</g>
<g>
</g>
<g>
</g>
<g>
</g>
<g>
</g>
<g>
</g>
</svg>
