<?xml version="1.0" encoding="iso-8859-1"?>
<!-- Generator: Adobe Illustrator 18.0.0, SVG Export Plug-In . SVG Version: 6.00 Build 0)  -->
<!DOCTYPE svg PUBLIC "-//W3C//DTD SVG 1.1//EN" "http://www.w3.org/Graphics/SVG/1.1/DTD/svg11.dtd">
<svg version="1.1" id="Capa_1" xmlns="http://www.w3.org/2000/svg" xmlns:xlink="http://www.w3.org/1999/xlink" x="0px" y="0px"
	 viewBox="0 0 30 32" style="enable-background:new 0 0 30 32;" xml:space="preserve">
<g id="_x31_0_20_">
	<g>
		<path style="fill-rule:evenodd;clip-rule:evenodd;" d="M24,22h-2v2h2V22z M26,0H4C1.791,0,0,1.791,0,4v2h30V4
			C30,1.791,28.209,0,26,0z M0,28c0,2.209,1.791,4,4,4h22c2.209,0,4-1.791,4-4V8H0V28z M23,12c1.657,0,3,1.343,3,3s-1.343,3-3,3
			c-1.657,0-3-1.343-3-3S21.343,12,23,12z M23,20c1.657,0,3,1.343,3,3c0,1.657-1.343,3-3,3c-1.657,0-3-1.343-3-3
			C20,21.343,21.343,20,23,20z M15,12c1.657,0,3,1.343,3,3s-1.343,3-3,3c-1.657,0-3-1.343-3-3S13.343,12,15,12z M15,20
			c1.657,0,3,1.343,3,3c0,1.657-1.343,3-3,3c-1.657,0-3-1.343-3-3C12,21.343,13.343,20,15,20z M7,12c1.657,0,3,1.343,3,3
			s-1.343,3-3,3c-1.657,0-3-1.343-3-3S5.343,12,7,12z M7,20c1.657,0,3,1.343,3,3c0,1.657-1.343,3-3,3c-1.657,0-3-1.343-3-3
			C4,21.343,5.343,20,7,20z M24,14h-2v2h2V14z M8,14H6v2h2V14z M8,22H6v2h2V22z M16,22h-2v2h2V22z M16,14h-2v2h2V14z"/>
	</g>
</g>
<g>
</g>
<g>
</g>
<g>
</g>
<g>
</g>
<g>
</g>
<g>
</g>
<g>
</g>
<g>
</g>
<g>
</g>
<g>
</g>
<g>
</g>
<g>
</g>
<g>
</g>
<g>
</g>
<g>
</g>
</svg>
