<?xml version="1.0" encoding="iso-8859-1"?>
<!-- Generator: Adobe Illustrator 18.0.0, SVG Export Plug-In . SVG Version: 6.00 Build 0)  -->
<!DOCTYPE svg PUBLIC "-//W3C//DTD SVG 1.1//EN" "http://www.w3.org/Graphics/SVG/1.1/DTD/svg11.dtd">
<svg version="1.1" id="Capa_1" xmlns="http://www.w3.org/2000/svg" xmlns:xlink="http://www.w3.org/1999/xlink" x="0px" y="0px"
	 viewBox="0 0 32 32" style="enable-background:new 0 0 32 32;" xml:space="preserve">
<g id="_x34__10_">
	<g>
		<path style="fill-rule:evenodd;clip-rule:evenodd;" d="M28,0H4C1.791,0,0,1.791,0,4v4h32V4C32,1.791,30.209,0,28,0z M5,6
			C4.448,6,4,5.552,4,5c0-0.552,0.448-1,1-1c0.552,0,1,0.448,1,1C6,5.552,5.552,6,5,6z M9,6C8.448,6,8,5.552,8,5
			c0-0.552,0.448-1,1-1c0.552,0,1,0.448,1,1C10,5.552,9.552,6,9,6z M13,6c-0.552,0-1-0.448-1-1c0-0.552,0.448-1,1-1
			c0.552,0,1,0.448,1,1C14,5.552,13.552,6,13,6z M0,28c0,2.209,1.791,4,4,4h24c2.209,0,4-1.791,4-4V10H0V28z"/>
	</g>
</g>
<g>
</g>
<g>
</g>
<g>
</g>
<g>
</g>
<g>
</g>
<g>
</g>
<g>
</g>
<g>
</g>
<g>
</g>
<g>
</g>
<g>
</g>
<g>
</g>
<g>
</g>
<g>
</g>
<g>
</g>
</svg>
