<?xml version="1.0" encoding="iso-8859-1"?>
<!-- Generator: Adobe Illustrator 18.0.0, SVG Export Plug-In . SVG Version: 6.00 Build 0)  -->
<!DOCTYPE svg PUBLIC "-//W3C//DTD SVG 1.1//EN" "http://www.w3.org/Graphics/SVG/1.1/DTD/svg11.dtd">
<svg version="1.1" id="Capa_1" xmlns="http://www.w3.org/2000/svg" xmlns:xlink="http://www.w3.org/1999/xlink" x="0px" y="0px"
	 viewBox="0 0 30.018 29.974" style="enable-background:new 0 0 30.018 29.974;" xml:space="preserve">
<g id="_x31_0_17_">
	<g>
		<path style="fill-rule:evenodd;clip-rule:evenodd;" d="M29.163,5.374c-0.506,0.567-1.346,1.291-2.55,2.391
			c-1.276,1.273-3.08,1.273-4.356,0c-1.276-1.273-1.276-3.074,0-4.347c1.175-1.172,2.438-2.563,2.418-2.568
			c-3.415-1.572-7.589-0.965-10.404,1.844c-2.564,2.559-3.296,6.244-2.217,9.457L1.203,22.978c-1.604,1.601-1.604,4.195,0,5.796
			c1.604,1.601,4.204,1.601,5.808,0l10.851-10.828c3.219,1.077,6.913,0.347,9.477-2.212C30.15,12.928,30.733,8.779,29.163,5.374z"/>
	</g>
</g>
<g>
</g>
<g>
</g>
<g>
</g>
<g>
</g>
<g>
</g>
<g>
</g>
<g>
</g>
<g>
</g>
<g>
</g>
<g>
</g>
<g>
</g>
<g>
</g>
<g>
</g>
<g>
</g>
<g>
</g>
</svg>
