<?xml version="1.0" encoding="iso-8859-1"?>
<!-- Generator: Adobe Illustrator 18.0.0, SVG Export Plug-In . SVG Version: 6.00 Build 0)  -->
<!DOCTYPE svg PUBLIC "-//W3C//DTD SVG 1.1//EN" "http://www.w3.org/Graphics/SVG/1.1/DTD/svg11.dtd">
<svg version="1.1" id="Capa_1" xmlns="http://www.w3.org/2000/svg" xmlns:xlink="http://www.w3.org/1999/xlink" x="0px" y="0px"
	 viewBox="0 0 31.978 32.009" style="enable-background:new 0 0 31.978 32.009;" xml:space="preserve">
<g id="_x39__21_">
	<g>
		<path style="fill-rule:evenodd;clip-rule:evenodd;" d="M27.181,8.315L28,7.496V6.809c0-1.546-1.254-2.8-2.8-2.8h-0.741
			l-0.74,0.741L27.181,8.315z M14.912,22.883l-8.7,4.303c-0.979,0.455-1.763-0.424-1.403-1.403l4.3-8.706
			c0.073-0.375,0.218-0.739,0.509-1.03l12.03-12.038H2.8c-1.546,0-2.8,1.254-2.8,2.8v22.4c0,1.546,1.254,2.8,2.8,2.8h22.4
			c1.546,0,2.8-1.254,2.8-2.8V10.307L15.942,22.374C15.651,22.665,15.287,22.81,14.912,22.883z M11.024,17.453
			c0.373,0.373,2.195,2.197,3.512,3.515l11.24-11.247l-3.537-3.49L11.024,17.453z M6.713,24.58
			c-0.227,0.458,0.212,0.929,0.701,0.702l5.372-3.254l-2.822-2.823L6.713,24.58z M31.396,4.097l-3.512-3.515
			c-0.776-0.776-2.034-0.776-2.81,0l-3.424,3.427h2.81l1.317-1.318c0.388-0.388,1.017-0.388,1.405,0L29.289,4.8
			c0.388,0.388,0.388,1.018,0,1.406L28,7.496v2.812l3.396-3.398C32.172,6.133,32.172,4.874,31.396,4.097z"/>
	</g>
</g>
<g>
</g>
<g>
</g>
<g>
</g>
<g>
</g>
<g>
</g>
<g>
</g>
<g>
</g>
<g>
</g>
<g>
</g>
<g>
</g>
<g>
</g>
<g>
</g>
<g>
</g>
<g>
</g>
<g>
</g>
</svg>
