<svg width="96" xmlns="http://www.w3.org/2000/svg" height="96" viewBox="0 0 96 96" xmlns:xlink="http://www.w3.org/1999/xlink">
<path d="m33.203,62.447c.234,1.086 .522,2.136 .894,3.162h-31.194v-55.944h3.162v52.782h27.138zm12.444-26.178l4.302-10.212 4.608,1.938-1.74-13.854-11.124,8.43 4.566,1.92-5.022,11.922-6.876-7.95-7.182,13.656-7.206-6.978-8.226,18.684 3.66,1.608 5.91-13.416 6.912,6.69 6.942-13.188 4.446,5.142c1.77-1.77 3.798-3.264 6.03-4.392zm46.782,50.742l-14.316-15.762c-.564-.618-1.416-.636-2.136-.306-1.902,2.766-4.356,5.058-7.176,6.786-.132,.582-.09,1.188 .336,1.656l14.31,15.75c.69,.762 1.872,.822 2.64,.126l6.216-5.628c.762-.678 .81-1.86 .126-2.622zm-15.372-29.532c0,2.25-.378,4.518-1.146,6.762-3.726,10.764-15.474,16.464-26.238,12.738-8.544-2.952-13.896-10.938-13.896-19.494 0-2.238 .36-4.506 1.134-6.75 3.726-10.764 15.474-16.47 26.25-12.744 8.538,2.946 13.896,10.938 13.896,19.488zm-5.604,0c0-6.396-4.068-12.114-10.128-14.208-3.792-1.308-7.872-1.062-11.496,.69-3.6,1.752-6.324,4.812-7.626,8.61-.558,1.602-.834,3.258-.834,4.914 0,6.402 4.068,12.126 10.128,14.208 3.792,1.32 7.872,1.074 11.496-.684 3.612-1.746 6.324-4.806 7.632-8.604 .552-1.596 .828-3.252 .828-4.926z"/>
</svg>
