<svg width="96" xmlns="http://www.w3.org/2000/svg" height="96" viewBox="0 0 96 96" xmlns:xlink="http://www.w3.org/1999/xlink">
<path d="m41.103,40.212v10.608h4.254v1.806h-4.254v10.596h4.254v1.806h-4.254v10.584h4.254v1.806h-4.254v10.596h4.254v1.818h-6.06v-51.384h6.06v1.806h-4.254v-.042zm22.47,1.206v47.19c0,4.092-3.336,7.404-7.41,7.404h-16.308c-4.098,0-7.41-3.33-7.41-7.404v-47.19c0-3.012 1.128-5.742 2.916-7.896-.876-.408-1.512-1.302-1.512-2.346v-4.608c0-1.428 1.17-2.604 2.604-2.604h1.746l3.456-5.976 3.204-5.556c-.51-.678-.876-1.476-.876-2.388 0-2.214 1.794-4.032 4.02-4.032s4.008,1.818 4.008,4.032c0,.912-.354,1.71-.87,2.388l3.204,5.556 3.456,5.976h1.752c1.416,0 2.592,1.17 2.592,2.604v4.608c0,1.044-.624,1.932-1.506,2.346 1.812,2.154 2.934,4.884 2.934,7.896zm-2.832-0c0-3.126-1.536-5.892-3.876-7.638h-17.724c-2.34,1.746-3.876,4.512-3.876,7.638v47.19c0,2.532 2.058,4.584 4.59,4.584h16.308c2.532,0 4.584-2.052 4.584-4.584v-47.19h-.006z"/>
</svg>
