<svg width="96" xmlns="http://www.w3.org/2000/svg" height="96" viewBox="0 0 96 96" xmlns:xlink="http://www.w3.org/1999/xlink">
<path d="m52.122,29.202v61.428h12.366v5.37h-32.964v-5.37h12.366v-61.428h-26.79v-5.37h26.79v-12.888h8.238v12.888h26.79v5.37h-26.796zm-20.928,32.928c0,4.512-6.312,8.178-14.1,8.178-7.782,0-14.094-3.666-14.094-8.178l14.094-32.928 14.1,32.928zm-2.34-0l-11.76-27.468-11.754,27.468h23.514zm64.146-0c0,4.512-6.312,8.178-14.094,8.178-7.788,0-14.1-3.666-14.1-8.178l14.1-32.928 14.094,32.928zm-2.334-0l-11.754-27.468-11.76,27.468h23.514z"/>
</svg>
