<svg width="96" xmlns="http://www.w3.org/2000/svg" height="96" viewBox="0 0 96 96" xmlns:xlink="http://www.w3.org/1999/xlink">
<path d="m87.291,18.982c-.198-.366-.342-.666-.504-1.008 .138-.702 .246-1.608 .096-2.616-.294-1.548-.132-3.072 .384-3.888 .972-1.548 3.15-2.226 5.754-2.58-.612,1.35-2.676,2.628-2.796,4.44-.072,1.362 .126,3.072-.39,3.888-.558,.9-1.422,1.452-2.544,1.764zm1.41,21.378c-.204-.174-.402-.306-.606-.456-.42-.33-.858-.624-1.284-.846-.222-.12-.444-.21-.66-.294-.414-.162-.828-.306-1.224-.396-.192-.048-.384-.096-.57-.126-.438-.072-.858-.108-1.242-.12-.108,0-.216-.012-.312-.012-.552,0-1.038,.06-1.392,.108-.234,.036-.426,.06-.546,.084-.048,.012-.162,.036-.186,.036-.018,0-.024-.012-.018-.012 .45-.726 9.678-8.424 5.442-15.174-4.872-7.782-5.118-11.682-2.346-15.948-.114,.162-8.64,4.314-8.016,9.42 .174,1.416 .138,2.634 .012,3.738-.024,.222-.042,.456-.084,.678-.168,.996-.432,1.854-.786,2.556-.066,.12-.132,.198-.204,.306-.348,.6-.744,1.08-1.182,1.416-.078,.06-.132,.138-.21,.186-.48,.33-.978,.48-1.464,.504-.054,.012-.096,.06-.138,.06-.066,0-.108-.06-.156-.072-.498-.036-.972-.162-1.374-.504-3.762-3.246 .156-8.334 1.704-9.27-.564-.432-1.242-.75-1.962-.984-.228-.084-.462-.108-.702-.15-.504-.12-1.008-.21-1.53-.234-.234,0-.468,.012-.702,.024-1.008,.048-2.022,.198-2.886,.588-7.224,3.174-2.484,13.584-7.848,15.714-.366,.138-.696,.21-.996,.21-.072,0-.12-.048-.18-.06-.168-.012-.324-.072-.474-.138-.186-.072-.378-.15-.546-.282-.126-.108-.246-.222-.354-.366-.15-.162-.276-.354-.39-.564-.096-.162-.18-.33-.258-.504-.102-.246-.18-.468-.264-.726-.06-.186-.12-.372-.162-.576-.072-.258-.12-.516-.156-.774-.042-.198-.078-.372-.102-.564-.036-.258-.06-.48-.09-.714-.012-.162-.036-.318-.042-.468-.018-.21-.024-.354-.024-.516-.006-.12-.018-.246-.018-.33 0-.198 0-.33 .006-.33-1.074,1.146-1.932,2.298-2.694,3.432-.216,.33-.408,.654-.612,.984-.516,.87-.948,1.722-1.296,2.592-.066,.126-.126,.27-.168,.408-.066,.15-.15,.318-.204,.468-.384,1.104-.66,2.19-.804,3.246-.03,.198-.018,.384-.036,.576-.078,.888-.09,1.758-.012,2.616 .03,.306 .066,.624 .114,.924 .126,.798 .306,1.572 .552,2.334 .066,.21 .114,.42 .18,.624 .354,.936 .786,1.818 1.296,2.67 .126,.21 .288,.408 .426,.63 .432,.63 .9,1.254 1.416,1.842 .198,.222 .39,.444 .612,.666 .624,.642 1.296,1.254 2.01,1.818 .102,.072 .18,.15 .27,.222 .816,.612 1.692,1.134 2.598,1.62 .264,.138 .54,.27 .81,.396 .696,.33 1.416,.624 2.148,.876 .282,.108 .564,.21 .852,.282 .984,.294 1.992,.54 3.012,.666 .132,.024 .27,.012 .402,.036 .846,.096 1.698,.108 2.55,.084 .708-.012 1.416-.12 2.124-.222 .498-.072 1.002-.12 1.494-.246 .084-.012 .156-.06 .246-.084 .63-.15 1.266-.396 1.884-.642 .462-.174 .924-.306 1.374-.54 .756-.366 1.464-.876 2.178-1.38 .372-.258 .75-.444 1.11-.738 1.038-.87 2.028-1.866 2.94-3.06 .492-.63 1.02-1.17 1.572-1.662 .186-.162 .372-.294 .558-.444 .384-.306 .774-.588 1.17-.846 .216-.126 .432-.258 .648-.372 .384-.21 .768-.408 1.152-.576 .204-.096 .408-.174 .618-.258 .42-.162 .828-.294 1.224-.408 .15-.048 .3-.096 .444-.138 .54-.138 1.056-.246 1.518-.318 .042-.012 .072-.012 .12-.012 .426-.072 .81-.108 1.14-.126 .114-.012 .18-.012 .288-.012 .132-.012 .3-.024 .414-.024 .066,0 .048,.012 .108,.012 .306,.012 .522,.024 .54,.048-.552-.864-1.158-1.518-1.764-2.082zm-44.082,4.332c-2.124-4.872-1.896-10.134 .402-15.174l-2.55-2.556-39.45,39.456h9.876v29.592h24.66v-19.734h9.852v19.734h24.66v-29.592h9.87l-10.032-10.032c-2.148,.774-4.398,1.29-6.792,1.29-8.754,.006-17.184-5.34-20.496-12.984z"/>
</svg>
