<svg width="96" xmlns="http://www.w3.org/2000/svg" height="96" viewBox="0 0 96 96" xmlns:xlink="http://www.w3.org/1999/xlink">
<path d="m48.447,39.1c-3.114-2.976-20.988-13.314-45.444-2.778 0,.156 0,3.078 0,7.53v50.262h37.056c1.278,1.104 4.302,1.872 7.842,1.872 3.534,0 6.564-.774 7.842-1.872h37.272v-50.262c0-4.452 0-7.374 0-7.53-23.466-10.332-42.204,.594-44.568,2.778zm-3.318,51.414c0-1.98-17.394-13.554-37.482-.924v-49.008c3.978-2.28 9.33-3.678 15.234-3.678 12.294,0 22.248,4.032 22.248,11.514v42.096zm43.518-.924c-20.094-12.624-37.47-1.056-37.47,.924v-42.102c0-7.482 9.954-11.514 22.236-11.514 5.898,0 11.256,1.398 15.234,3.678v49.014z"/>
</svg>
