<svg width="96" xmlns="http://www.w3.org/2000/svg" height="96" viewBox="0 0 96 96" xmlns:xlink="http://www.w3.org/1999/xlink">
<path d="m40.553,45.604v7.56l-2.124-2.19-3.954,7.662-3.828-9.576-14.82,12.384 4.98-17.628-7.02,1.278 4.338-4.476-15.126-8.838 16.716,1.17c-1.77-3.642-4.932-9.702-4.932-9.702l10.434,2.31-3.708-18.9 11.712,15.084 4.308-11.166 2.856,11.964 10.236-10.596-3.894,16.806 14.436,1.536-9.708,6.21c-6.192,1.596-10.902,4.44-10.902,9.108zm52.446,38.028c0,2.238-.432,3.372-1.284,3.372h-5.322v1.02c0,1.56-.06,2.838-.174,3.834s-.252,1.818-.402,2.436c-.684,1.134-1.962,1.722-3.816,1.722-1.77,0-3.012-.588-3.702-1.722-.462-.936-.702-2.79-.702-5.544v-1.746h-23.532v1.746c0,2.754-.24,4.608-.702,5.544-.684,1.134-1.932,1.722-3.708,1.722-1.842,0-3.12-.588-3.81-1.722-.156-.624-.294-1.44-.408-2.436-.108-.996-.174-2.274-.174-3.834v-1.02h-5.322c-.852,0-1.272-1.134-1.272-3.372 0-2.31 .42-3.444 1.272-3.444h.81v-2.1c0-3.786 .228-7.254 .696-10.428 .624-3.372 2.262-5.79 4.926-7.254v-14.802c0-1.206 5.562-4.92 19.278-4.92 13.71,0 19.428,3.714 19.428,4.92v14.682c.324,.186 .63,.366 .924,.564v-14.376h1.254v-4.872h1.674v4.872h1.242v21.048c.018,.06 .036,.084 .048,.138 .462,3.174 .69,6.642 .69,10.428v2.1h.804c.858-.006 1.284,1.134 1.284,3.444zm-38.946-11.052c0-1.908-1.56-3.468-3.474-3.468-1.902,0-3.462,1.56-3.462,3.468s1.56,3.468 3.462,3.468c1.914,0 3.474-1.56 3.474-3.468zm24.936-11.988c1.206,0 2.178-.96 2.178-2.166v-4.266c0-1.206-.462-2.67-2.178-3.54 0,0-5.34-1.818-13.152-1.818-7.83,0-13.134,1.818-13.134,1.818-1.308,.612-2.178,1.674-2.178,2.874v4.932c0,1.206 .984,2.166 2.178,2.166h26.286zm-3.444,15.36c0-.33-.276-.612-.612-.612h-18.204c-.342,0-.618,.282-.618,.612 0,.342 .276,.612 .618,.612h18.204c.336,0 .612-.27 .612-.612zm0-3.48c0-.342-.276-.612-.612-.612h-18.204c-.342,0-.618,.27-.618,.612s.276,.624 .618,.624h18.204c.336,0 .612-.282 .612-.624zm0-3.48c0-.33-.276-.612-.612-.612h-18.204c-.342,0-.618,.282-.618,.612 0,.342 .276,.612 .618,.612h18.204c.336,0 .612-.27 .612-.612zm8.952,3.588c0-1.908-1.554-3.468-3.456-3.468-1.914,0-3.462,1.56-3.462,3.468s1.542,3.468 3.462,3.468c1.908,0 3.456-1.56 3.456-3.468z"/>
</svg>
