<svg width="96" xmlns="http://www.w3.org/2000/svg" height="96" viewBox="0 0 96 96" xmlns:xlink="http://www.w3.org/1999/xlink">
<path d="m56.118,95.974c0,0 3.912-.624 4.986-5.748 1.134-5.496-.036-9.126-.708-12.21-.666-3.096-.444-4.656 .582-9.648 1.638-8.022 1.506-21.882 .624-28.548-.888-6.66-4.08-10.848-5.622-13.998-2.532-5.178-2.568-11.61-2.568-11.61h1.41v-2.466l-.51-.378v-4.986c0,0-2.298-.51-6.258-.378-3.96-.126-6.258,.378-6.258,.378v4.986l-.522,.378v2.466h1.404c0,0-.024,6.426-2.556,11.61-1.536,3.15-4.734,7.338-5.622,13.998-.876,6.66-1.014,20.526 .624,28.548 1.014,4.992 1.248,6.558 .57,9.648-.654,3.084-1.854,6.714-.696,12.21 1.08,5.124 4.986,5.748 4.986,5.748h16.134z"/>
</svg>
