<svg width="96" xmlns="http://www.w3.org/2000/svg" height="96" viewBox="0 0 96 96" xmlns:xlink="http://www.w3.org/1999/xlink">
<path d="m29.115,38.092h37.626c.006,.252 .084,.456 .084,.702v5.064h-37.794v-5.064c0-.234 .084-.462 .084-.702zm-.084,17.538h37.8v-5.766h-37.8v5.766zm26.838-35.622v-6.78h1.476c1.35,0 2.424-1.218 2.424-2.712v-1.83c0-1.494-1.092-2.712-2.424-2.712h-18.846c-1.35,0-2.43,1.218-2.43,2.712v1.836c0,1.494 1.086,2.712 2.43,2.712h1.608v6.78c-3.366,1.68-6.06,4.23-8.064,7.644-.834,1.416-1.392,2.91-1.872,4.428h35.742c-1.452-5.37-4.77-9.42-10.044-12.078zm-26.838,68.772c0,0-.618,7.194 6.018,7.194h24.222c8.334,0 7.554-8.184 7.554-8.184v-26.142h-37.794v27.132z"/>
</svg>
