<svg width="96" xmlns="http://www.w3.org/2000/svg" height="96" viewBox="0 0 96 96" xmlns:xlink="http://www.w3.org/1999/xlink">
<path d="m78.369,45.64l14.682-8.148-3.24-1.752-26.802-14.61-14.766,8.058-15.168-8.256-30.024,16.338 3.192,1.8 11.7,6.504-.132,.072h-.012v.012l-14.49,7.89 14.49,7.788v19.578l30.246,15.072 30.252-15.072v-19.518l14.61-7.848-14.538-7.908zm-15.36-19.896l21.624,11.772-10.47,5.826-21.876-11.748 10.722-5.85zm-51.57,11.562l21.63-11.772 10.722,5.838-21.888,11.76-10.464-5.826zm.366,16.218l10.716-5.862 21.852,11.826-10.686,5.778-21.882-11.742zm10.05,24.864v-14.874l11.868,6.372 12.312-6.834v27.372l-24.18-12.036zm52.398,0l-24.168,12.03v-27.402l12.372,6.876 11.802-6.33v14.826zm10.128-24.876l-21.876,11.754-10.506-5.778 21.648-11.826 10.734,5.85z"/>
</svg>
