<svg width="96" xmlns="http://www.w3.org/2000/svg" height="96" viewBox="0 0 96 96" xmlns:xlink="http://www.w3.org/1999/xlink">
<path d="m93,57.738v38.262h-18.324c.066-.738 .114-1.488 .114-2.25 0-14.952-12.12-27.072-27.066-27.072s-27.066,12.12-27.066,27.072c0,.762 .054,1.512 .12,2.25h-17.778v-38.262h90zm-63.276,0c-3.018,0-5.442-2.448-5.442-5.436 0-3.012 2.424-5.436 5.442-5.436 3,0 5.442,2.424 5.442,5.436 0,2.988-2.442,5.436-5.442,5.436zm0-8.364c-1.626,0-2.934,1.29-2.934,2.916 0,1.62 1.326,2.928 2.934,2.928s2.928-1.326 2.928-2.928c.006-1.626-1.326-2.916-2.928-2.916zm36.648,8.364c-2.988,0-5.442-2.448-5.442-5.436 0-3.012 2.454-5.436 5.442-5.436 3.012,0 5.442,2.424 5.442,5.436 0,2.988-2.43,5.436-5.442,5.436zm0-8.364c-1.614,0-2.928,1.29-2.928,2.916 0,1.62 1.332,2.928 2.928,2.928 1.626,0 2.934-1.326 2.934-2.928 0-1.626-1.302-2.916-2.934-2.916zm10.578-1.152c0-5.298-3.312-5.94-3.312-5.94-4.842-.654-13.188-1.008-13.188-1.008-.762-1.338-4.302-9.096-6.36-9.096-.69,0-15.474,0-18.084,0-2.628,0-6.912,7.56-7.866,9.282 0,0-3.306,.552-4.854,.912-.858,.186-3.234,.246-3.234,6.888h-2.076v3.03h5.016c0-3.69 3.012-6.702 6.708-6.702 3.702,0 6.702,3.012 6.702,6.702h23.256c0-3.69 2.994-6.702 6.678-6.702 3.714,0 6.714,3.012 6.714,6.702h4.914v-4.08l-1.014,.012zm-32.1-7.464h-10.44c1.416-4.392 4.026-7.56 5.124-7.56 1.398,0 5.322,0 5.322,0v7.56zm1.95,0v-7.56c0,0 5.382,0 6.762,0s4.452,6.384 5.316,8.028l-12.078-.468z"/>
</svg>
