<svg width="96" xmlns="http://www.w3.org/2000/svg" height="96" viewBox="0 0 96 96" xmlns:xlink="http://www.w3.org/1999/xlink">
<path d="m20.94,42.376h53.274l-11.364,53.604h-31.422l-10.296-52.482-.192-1.122zm27.072-36.396c-15.228-0-27.576,12.348-27.576,27.576 0,1.602 1.29,2.874 2.874,2.874 1.614,0 2.874-1.278 2.874-2.874 .012-12.042 9.75-21.81 21.822-21.828 12.03,.018 21.804,9.786 21.828,21.828 0,1.602 1.266,2.874 2.868,2.874 1.584,0 2.874-1.278 2.874-2.874 .006-15.234-12.342-27.576-27.564-27.576z"/>
</svg>
