<svg width="96" xmlns="http://www.w3.org/2000/svg" height="96" viewBox="0 0 96 96" xmlns:xlink="http://www.w3.org/1999/xlink">
<path d="m37.809,5.45c9.258,0 16.794,7.536 16.794,16.794v9.612c0,9.258-7.536,16.794-16.794,16.794h-9.612c-9.258,0-16.794-7.536-16.794-16.794v-9.612c0-9.258 7.536-16.794 16.794-16.794h9.612m10.182,.6c-2.964-1.872-6.438-3-10.176-3h-9.612c-10.554,0-19.194,8.64-19.194,19.194v9.612c0,10.14 8.01,18.438 18,19.074v45.126h24v-18h12v18h24v-90h-39.018zm-14.982,56.994v-12h4.806c2.544,0 4.968-.528 7.194-1.434v13.434h-12zm30,0h-12v-17.346c.222-.21 .438-.432 .654-.654h11.346v18zm0-30h-6.126c.03-.402 .126-.786 .126-1.194v-9.612c0-2.544-.528-4.968-1.434-7.194h7.434v18zm18,30h-12v-18h12v18zm0-30h-12v-18h12v18zm-51.804,7.344l-12.72-12.714 4.242-4.242 8.478,8.472 16.086-16.092 4.242,4.242-20.328,20.334z"/>
</svg>
