<svg width="96" xmlns="http://www.w3.org/2000/svg" height="96" viewBox="0 0 96 96" xmlns:xlink="http://www.w3.org/1999/xlink">
<path d="m22.437,24.72c-10.734,0-19.44,4.17-19.44,9.318v61.962h3.276v-1.596h32.322v1.596h3.288v-61.962c-.006-5.148-8.706-9.318-19.446-9.318zm14.394,38.892h-2.304v-7.536h2.304v7.536zm-31.38-29.574c-0-2.862 6.468-6.858 16.986-6.858 10.524,0 16.986,3.996 16.986,6.858h-33.972zm68.112-9.318c-10.74,0-19.446,4.17-19.446,9.318v61.962h3.282v-1.596h32.316v1.596h3.288v-61.962c-.006-5.148-8.706-9.318-19.44-9.318zm14.388,38.892h-2.31v-7.536h2.31v7.536zm-31.38-29.574c0-2.862 6.468-6.858 16.992-6.858s16.98,3.996 16.98,6.858h-33.972z"/>
</svg>
