<svg width="96" xmlns="http://www.w3.org/2000/svg" height="96" viewBox="0 0 96 96" xmlns:xlink="http://www.w3.org/1999/xlink">
<path d="m3,6v90h90v-90h-90zm83.85,83.85h-77.694v-60.93h77.694v60.93zm-48.762-11.274h-7.602v-28.638c-2.772,2.604-6.048,4.512-9.822,5.754v-6.888c1.98-.654 4.14-1.872 6.468-3.69 2.322-1.806 3.912-3.924 4.788-6.342h6.162v39.804zm11.532-9.18l7.356-.798c.18,1.488 .654,2.604 1.404,3.318 .756,.726 1.758,1.092 3.006,1.092 1.566,0 2.904-.726 4.008-2.166s1.806-4.428 2.112-8.988c-1.914,2.226-4.314,3.33-7.176,3.33-3.12,0-5.808-1.194-8.07-3.612-2.268-2.4-3.39-5.532-3.39-9.396 0-4.02 1.188-7.254 3.588-9.714 2.388-2.46 5.418-3.69 9.12-3.69 4.032,0 7.332,1.548 9.9,4.662 2.586,3.108 3.876,8.226 3.876,15.342 0,7.254-1.344,12.492-4.026,15.69-2.688,3.21-6.192,4.818-10.506,4.818-3.096,0-5.604-.822-7.518-2.472-1.92-1.662-3.15-4.122-3.684-7.416zm17.202-16.59c0-2.46-.564-4.362-1.686-5.706-1.134-1.362-2.43-2.04-3.912-2.04-1.404,0-2.574,.564-3.504,1.662-.918,1.116-1.392,2.928-1.392,5.448 0,2.568 .51,4.44 1.524,5.646 1.008,1.194 2.262,1.794 3.786,1.794 1.458,0 2.682-.576 3.684-1.722 1.002-1.158 1.5-2.844 1.5-5.082z"/>
</svg>
