<svg width="96" xmlns="http://www.w3.org/2000/svg" height="96" viewBox="0 0 96 96" xmlns:xlink="http://www.w3.org/1999/xlink">
<path d="m65.614,17.239v20.088c0,5.538-4.524,10.062-10.056,10.062h-22.956l-12.948,12.948v-12.948h-6.54c-5.532,0-10.056-4.524-10.056-10.062v-20.088c0-5.538 4.524-10.062 10.056-10.062h42.444c5.532,0 10.056,4.524 10.056,10.062zm17.376,37.26h-28.662c-5.532,0-10.056,4.53-10.056,10.062v11.232c0,5.538 4.524,10.068 10.056,10.068h15.588l10.104,10.104v-10.104h2.976c5.532,0 10.068-4.53 10.068-10.068v-11.232c-.006-5.532-4.542-10.062-10.074-10.062z"/>
</svg>
