<svg width="96" xmlns="http://www.w3.org/2000/svg" height="96" viewBox="0 0 96 96" xmlns:xlink="http://www.w3.org/1999/xlink">
<path d="m78.936,48.528h-51.564c-.306-.834-1.698-1.476-3.456-1.476s-3.15,.642-3.456,1.476h-3.396c-3.624,0-6.552,2.928-6.552,6.54v34.38c0,3.63 2.928,6.552 6.552,6.552h61.872c3.624,0 6.552-2.916 6.552-6.552v-34.38c0-3.606-2.928-6.54-6.552-6.54zm-30.924,42.81c-10.842-.012-19.626-8.79-19.626-19.626 0-10.83 8.79-19.608 19.626-19.608 10.83,0 19.608,8.778 19.608,19.608-.006,10.836-8.778,19.626-19.608,19.626zm16.122-19.626c0,8.916-7.23,16.134-16.128,16.134-8.916,0-16.146-7.218-16.146-16.134 0-8.904 7.23-16.128 16.146-16.128 8.898,0 16.128,7.218 16.128,16.128zm2.52-65.712h-37.314c-.912,0-1.662,.738-1.662,1.65v19.056c0,.912 .75,1.65 1.662,1.65h4.326c0,.036-.048,.06-.048,.096l1.722,17.142c0,.822 .69,1.488 1.5,1.488h22.314c.834,0 1.488-.666 1.488-1.488l1.734-17.142c0-.036-.048-.06-.048-.096h4.326c.912,0 1.662-.738 1.662-1.65v-19.056c.006-.912-.744-1.65-1.662-1.65zm-.828,19.224c0,.774-.624,1.404-1.392,1.404h-32.862c-.786,0-1.392-.63-1.392-1.404v-16.092c0-.762 .612-1.392 1.392-1.392h32.862c.774,0 1.392,.63 1.392,1.392v16.092z"/>
</svg>
