<svg width="96" xmlns="http://www.w3.org/2000/svg" height="96" viewBox="0 0 96 96" xmlns:xlink="http://www.w3.org/1999/xlink">
<path d="m23.199,61.62v30.588l-1.482,1.89-18.768,1.902v-37.242l18.768,1.146 1.482,1.716zm48.324-9.12l10.26,1.602h10.002c0,0 1.05-2.208 1.158-7.374s-1.158-7.626-1.158-7.626h-10.2l-9.492,3.888h-9.594v-13.71h-12.3v-.858c-.852-3.48-5.604-3.588-6.198-3.588h-.006l-35.982,.696c-.192,0-4.626,.06-4.872,5.58v1.722c.24,5.478 4.662,5.55 4.866,5.55l36.03,.702c.546,0 5.316-.102 6.18-3.786v-.666h3.702v8.358h-.84l-7.968,20.34h-1.896v30.774h32.298l3.228-4.17h8.904c0,0 2.658-3.798 2.85-13.014 .18-9.216-2.85-13.59-2.85-13.59h-26.766v-10.83h10.644zm-30.114,11.964v24.51h-3.852l-4.014,3.234h-8.538v-30.588h8.538l4.014,2.844h3.852zm-16.068,2.67c0,.432 .354,.786 .786,.786h7.224l3.594,1.8c.114,.06 .234,.084 .354,.084 .288,0 .57-.156 .702-.432 .192-.384 .042-.864-.354-1.056l-3.756-1.878c-.108-.06-.228-.084-.354-.084h-7.41c-.432-.006-.786,.348-.786,.78zm0,4.59c0,.432 .354,.786 .786,.786h7.296l3.648,1.086c.078,.024 .144,.03 .222,.03 .342,0 .654-.216 .756-.564 .126-.414-.12-.858-.534-.978l-3.756-1.116c-.072-.024-.144-.03-.222-.03h-7.41c-.432,0-.786,.354-.786,.786zm12.642,12.192c-.216-.372-.702-.51-1.08-.294l-3.576,2.04h-7.2c-.432,0-.786,.354-.786,.786s.354,.786 .786,.786h7.41c.132,0 .27-.036 .39-.102l3.756-2.136c.384-.216 .516-.696 .3-1.08zm.084-3.798c-.09-.42-.516-.744-.93-.606l-3.594,.786h-7.41c-.432,0-.786,.354-.786,.786s.354,.786 .786,.786l7.578-.018 3.756-.804c.42-.084 .69-.498 .6-.93zm.018-3.462c0-.432-.354-.786-.786-.786h-11.166c-.432,0-.786,.354-.786,.786s.354,.786 .786,.786h11.166c.432,0 .786-.354 .786-.786z"/>
</svg>
