<svg width="96" xmlns="http://www.w3.org/2000/svg" height="96" viewBox="0 0 96 96" xmlns:xlink="http://www.w3.org/1999/xlink">
<path d="m81.057,77.052l-19.926,.06c-7.884-7.386-11.418-16.05-11.418-16.05h-.132c0,0-3.654,8.994-11.76,16.05h-22.698l32.376-45.954-2.436-3.126 2.4-1.872 1.968,2.508h.006l1.956-2.508 2.418,1.872-2.436,3.126 29.682,45.894zm-78.054,18.948h12.156v-10.2h-12.156v10.2zm19.452,0h12.162v-10.2h-12.162v10.2zm19.464,0h12.162v-10.2h-12.162v10.2zm19.458,0h12.168v-10.2h-12.168v10.2zm19.458,0h12.162v-10.2h-12.162v10.2z"/>
</svg>
