<svg width="96" xmlns="http://www.w3.org/2000/svg" height="96" viewBox="0 0 96 96" xmlns:xlink="http://www.w3.org/1999/xlink">
<path d="m20.58,96c-4.5,0-8.154-3.666-8.154-8.142 0-4.524 3.654-8.178 8.154-8.178 4.512,0 8.178,3.654 8.178,8.178 .012,4.476-3.666,8.142-8.178,8.142zm0-12.564c-2.4,0-4.38,1.98-4.38,4.404 0,2.4 1.98,4.38 4.38,4.38 2.424,0 4.398-1.98 4.398-4.38 .006-2.418-1.962-4.404-4.398-4.404zm54.996,12.564c-4.5,0-8.16-3.666-8.16-8.142 0-4.524 3.66-8.178 8.16-8.178 4.512,0 8.16,3.654 8.16,8.178 .006,4.476-3.648,8.142-8.16,8.142zm0-12.564c-2.418,0-4.392,1.98-4.392,4.404 0,2.4 1.974,4.38 4.392,4.38 2.424,0 4.398-1.98 4.398-4.38 .006-2.418-1.962-4.404-4.398-4.404zm15.858-1.71c0-7.932-4.944-8.874-4.944-8.874-7.272-1.032-19.8-1.56-19.8-1.56-1.146-1.992-6.456-13.626-9.546-13.626-1.05,0-23.202,0-27.126,0-3.936,0-10.374,11.346-11.79,13.896 0,0-4.932,.858-7.26,1.38-1.29,.294-4.872,.366-4.872,10.362h-3.096v4.536h7.524c0-5.568 4.512-10.068 10.044-10.068 5.568,0 10.062,4.5 10.062,10.068h34.878c0-5.568 4.488-10.068 10.056-10.068 5.556,0 10.056,4.5 10.056,10.068h7.38v-6.126l-1.566,.012zm-48.144-11.202h-15.66c2.118-6.6 6.042-11.31 7.692-11.31 2.088,0 7.968,0 7.968,0v11.31zm2.91,0v-11.31c0,0 8.082,0 10.152,0 2.1,0 6.678,9.576 7.968,12.024l-18.12-.714z"/>
</svg>
