<svg width="96" xmlns="http://www.w3.org/2000/svg" height="96" viewBox="0 0 96 96" xmlns:xlink="http://www.w3.org/1999/xlink">
<path d="m58.492,46.658h-8.796v-9.42c.714-.516 1.218-1.326 1.218-2.274 0-1.566-1.284-2.844-2.85-2.844-1.578,0-2.844,1.278-2.844,2.844 0,.96 .498,1.758 1.218,2.286v9.402h-8.796c-1.452,0-2.628,1.17-2.628,2.628v44.1c0,1.44 1.176,2.628 2.628,2.628h20.838c1.452,0 2.628-1.182 2.628-2.628v-44.1c.018-1.452-1.158-2.622-2.616-2.622zm-1.176,23.646c0,1.44-1.176,2.628-2.628,2.628h-13.23c-1.458,0-2.628-1.182-2.628-2.628v-15.564c0-1.452 1.164-2.628 2.628-2.628h13.23c1.44,0 2.628,1.17 2.628,2.628v15.564zm19.77-35.286c0,.876-.708,1.62-1.602,1.62s-1.608-.732-1.608-1.62c-.036-14.262-11.568-25.782-25.812-25.806-14.244,.024-25.776,11.544-25.806,25.806 0,.876-.714,1.62-1.608,1.62-.882,0-1.608-.732-1.608-1.62 0-16.02 12.99-29.016 29.01-29.016s29.034,12.996 29.034,29.016zm-8.328,0c0,.876-.714,1.62-1.602,1.62s-1.614-.732-1.614-1.62c-.03-9.666-7.818-17.448-17.478-17.472-9.648,.024-17.466,7.806-17.478,17.472 0,.876-.702,1.62-1.608,1.62-.882,0-1.608-.732-1.608-1.62 0-11.424 9.264-20.67 20.682-20.706 11.454,.036 20.706,9.282 20.706,20.706zm-7.254,0c0,.876-.714,1.62-1.608,1.62-.882,0-1.608-.732-1.608-1.62-.018-5.634-4.578-10.206-10.224-10.23-5.628,.024-10.2,4.596-10.224,10.23 0,.876-.708,1.62-1.602,1.62-.882,0-1.608-.732-1.608-1.62 0-7.428 6.018-13.428 13.422-13.428 7.422,0 13.44,6 13.452,13.428z"/>
</svg>
