<svg width="96" xmlns="http://www.w3.org/2000/svg" height="96" viewBox="0 0 96 96" xmlns:xlink="http://www.w3.org/1999/xlink">
<path d="M57.786 51c0 5.412-4.374 9.786-9.762 9.786-5.412 0-9.786-4.374-9.786-9.786 0-5.4 4.374-9.762 9.786-9.762 5.394 0 9.762 4.362 9.762 9.762zM52.218 96v-15.21l4.524-0.012-8.73-15.108-8.736 15.12h4.518v15.21h8.424zM3 55.206h15.234v4.536l15.12-8.73-15.126-8.742 0.006 4.524h-15.228l-0.006 8.412zM93 46.794h-15.216v-4.512l-15.12 8.73 15.12 8.718v-4.512l15.216-0.012v-8.412zM43.8 6.012v15.21l-4.524 0.012 8.736 15.12 8.73-15.12h-4.524v-15.222h-8.418z"/>
</svg>
