<svg width="96" xmlns="http://www.w3.org/2000/svg" height="96" viewBox="0 0 96 96" xmlns:xlink="http://www.w3.org/1999/xlink">
<path d="M18.93 69.936l-7.566-7.56h25.266v25.254l-7.566-7.56-15.924 15.924-10.14-10.134 15.93-15.924zM82.866 96l10.128-10.134-15.924-15.924 7.56-7.56h-25.248l-0.006 25.254 7.56-7.56 15.93 15.924zM93 16.134l-10.134-10.134-15.93 15.936-7.56-7.56v25.242l25.26 0.012-7.572-7.572 15.936-15.924zM11.37 39.63h25.248l0.018-25.266-7.566 7.572-15.93-15.936-10.14 10.146 15.93 15.912-7.56 7.572zM48 40.008c-6.072 0-10.992 4.92-10.992 10.992 0 6.084 4.92 11.004 10.992 11.004s10.998-4.92 10.998-11.004c0-6.072-4.932-10.992-10.998-10.992z"/>
</svg>
