<svg width="96" xmlns="http://www.w3.org/2000/svg" height="96" viewBox="0 0 96 96" xmlns:xlink="http://www.w3.org/1999/xlink">
<path d="m44.236,72.501l16.584-13.77 4.944,5.046-21.666,21.666-12.822-12.828 6.798-6.816 6.162,6.702zm16.644-38.166l-5.19-5.19-9.318,9.318-9.318-9.318-5.202,5.19 9.318,9.318-9.318,9.324 5.202,5.19 9.318-9.318 9.318,9.318 5.19-5.19-9.318-9.324 9.318-9.318zm18.852-19.722v81.36h-63.342v-81.36h12.9v-2.076h10.404c.936-3.762 4.302-6.57 8.358-6.57s7.428,2.808 8.37,6.57h10.404v2.076h12.906zm-35.562-2.076h7.794c-.762-1.404-2.19-2.388-3.888-2.388-1.728-.006-3.156,.978-3.906,2.388zm28.59,8.754h-5.928v4.122h-37.536v-4.122h-5.928v67.998h49.392v-67.998z"/>
</svg>
