<svg width="96" xmlns="http://www.w3.org/2000/svg" height="96" viewBox="0 0 96 96" xmlns:xlink="http://www.w3.org/1999/xlink">
<path d="m79.91,72.98c4.728,0 9.624,3.72 10.914,8.256l1.854,6.558c1.284,4.536-1.536,8.244-6.252,8.226l-76.806-.042c-4.728,0-7.566-3.732-6.354-8.286l1.758-6.426c1.23-4.566 6.108-8.286 10.806-8.286h64.08zm11.094-8.766v-54.9c0-1.992-1.608-3.6-3.6-3.6h-78.834c-1.98,0-3.6,1.608-3.6,3.6v54.9c0,1.974 1.62,3.6 3.6,3.6h78.834c1.992-.006 3.6-1.626 3.6-3.6zm-78.834-51.306h71.64v47.706h-71.64v-47.706z"/>
</svg>
