<svg width="96" xmlns="http://www.w3.org/2000/svg" height="96" viewBox="0 0 96 96" xmlns:xlink="http://www.w3.org/1999/xlink">
<path d="m86.242,95.996l-76.428-.048c-4.686,0-7.53-3.714-6.312-8.238l1.746-6.396c1.218-4.548 6.066-8.238 10.752-8.238h63.768c4.692,0 9.57,3.69 10.854,8.202l1.848,6.528c1.266,4.512-1.542,8.202-6.228,8.19zm-81.186-31.65v-54.624c0-2.052 1.656-3.714 3.714-3.714h78.438c2.058,0 3.714,1.662 3.714,3.714v54.624c0,2.052-1.656,3.714-3.714,3.714h-78.432c-2.058,0-3.72-1.662-3.72-3.714zm7.434-3.72h71.022v-47.196h-71.022v47.196z"/>
</svg>
