<svg width="96" xmlns="http://www.w3.org/2000/svg" height="96" viewBox="0 0 96 96" xmlns:xlink="http://www.w3.org/1999/xlink">
<path d="M85.841 18.083l-11.154-11.202c-1.536-1.56-4.614-1.014-6.822 1.194l-10.164 10.128h-34.926v14.13h-14.148v63.648h49.506v-14.142h14.142v-44.646l12.348-12.306c2.214-2.196 2.766-5.256 1.218-6.804zM46.355 58.703l-15.42 6.246-3.312-3.33 6.3-15.396 12.432 12.48zM25.553 20.987h29.364l-11.394 11.358h-17.97v-11.358zM11.411 93.209v-58.086h29.316l-8.958 8.928-9.576 23.388c-1.104 2.682 0.21 3.996 2.88 2.922l23.442-9.498 6.84-6.81v39.144h-43.944zM69.497 79.061h-11.364v-27.774l11.364-11.322v39.096z"/>
</svg>
