<svg width="96" xmlns="http://www.w3.org/2000/svg" height="96" viewBox="0 0 96 96" xmlns:xlink="http://www.w3.org/1999/xlink">
<path d="m79.809,89.124l-18.342,3.48-29.946-16.29 10.89-13.578 24.492,8.148 12.906,18.24zm28.188-31.818v2.034l-19.314,6.114-19.056,2.718-24.498-8.142-5.766-2.724h3.306c-.792-7.284-1.848-12.798-2.364-20.028h-.036c-.006-.222-.264-5.064-.318-7.122-.384-2.178-1.416-3.024-4.812-5.376-1.872-1.212-3.27-1.632-4.044-1.62-1.254,0-2.358,1.35-2.628,5.424 5.454,.924 5.826,6.96 5.826,6.96 .48,4.278-1.626,10.548-6.48,12.174-8.964,2.988-8.034-14.292-2.976-18.432 .132-4.986 1.5-9.54 6.258-9.732 1.872,.012 3.786,.786 6,2.19 1.056,.642 1.902,1.29 2.652,1.944-.084-1.632-.186-3.312-.186-5.04-.012-3.618 .57-7.566 3.774-10.374 1.662-1.506 3.546-2.292 5.37-2.274 4.77,.228 7.764,4.368 9.486,8.58 2.022-.876 4.542-1.308 7.422-.306 7.362,2.544 11.376,15.408 8.262,19.878-7.272,10.458-25.572-8.976-20.718-15.768 0,0 .702-.918 1.956-1.938-1.422-3.738-4.278-7.08-6.408-6.858-.816,.012-1.77,.312-2.982,1.374-2.034,1.788-2.55,4.356-2.562,7.686 0,2.352 .288,4.974 .288,7.59 0,1.374 .09,2.574 .126,3.912 .336,2.34 .36,4.14 .3,6.606 .51,7.194 3.426,13.098 4.224,20.544l59.898,.006zm-51.54-39.426l13.866,15.102c-2.484-10.71-11.274-16.674-11.274-16.674l-2.592,1.572zm-28.728,12.96l-2.478,1.014c0,0-1.242,8.454 0,12.846l2.478-13.86zm-12.402,50.928l11.016-6.636 11.484-14.208-3.588-3.624h-25.368l-5.04,10.038 11.496,14.43zm12.852-2.286l-19.524,13.284 2.604,3.228h44.904l-.144-.672-27.84-15.84zm-40.182-22.176v15.312l12.522-6.696 3.78-8.616h-16.302zm85.26,14.136l12.126,17.562 22.62,5.298v-20.082l-16.29-5.25-18.456,2.472zm34.74-1.596v-7.11l-12.708,3.444 12.708,3.666zm-107.184,.978l-12.816,6.114v19.062h9.408l13.938-11.436-10.53-13.74zm67.14,25.17h29.304l-14.016-3.39-15.288,3.39z"/>
</svg>
