<svg width="96" xmlns="http://www.w3.org/2000/svg" height="96" viewBox="0 0 96 96" xmlns:xlink="http://www.w3.org/1999/xlink">
<path d="m77.106,91.823l3.576,4.152-66.048,.018 .81-5.106 7.254-4.026-1.128-8.544 9.624-.84 .498-4.446 11.178-.96 .642-7.992 1.92-2.556 4.47,.96 .516,4.254 7.152-.45 .45,8.046 8.046,3.132 .45,6.258c.69,.96 4.2-.576 4.812,.318 .624,.9-.558-.882 0,0-.786,3.708 4.698,4.338 4.698,4.338l1.08,3.444zm-8.736-26.832l-3.372-1.14c-1.146,.882-1.572,1.8-1.242,2.76l1.686,1.944 2.544-.846c.918-.306 1.236-.888 .96-1.704-.09-.294-.27-.636-.576-1.014zm-2.142-8.964c-.744-.36-1.512-.42-2.346-.144-.438,.144-.894,.438-1.404,.876l.132,3.99 3.87-.48c1.014-1.152 1.392-2.094 1.158-2.814-.198-.576-.66-1.056-1.41-1.428zm11.856,5.544l.024,.078c-.144,.048-.846-.114-2.112-.51-.612-.21-1.224-.438-1.842-.678-.876,.294-1.416,1.17-1.626,2.61-.21,1.446-.072,2.898 .408,4.344 .126,.396 .432,.822 .912,1.314l.828,.774 1.422-.078c1.608-.696 2.52-1.08 2.766-1.164 .582-.348 .972-1.08 1.17-2.172 .198-1.098 .126-2.142-.222-3.156-.372-1.158-.948-1.62-1.728-1.362zm-6.234,11.886l-.84,3.03c.624,.546 1.518,.924 2.712,1.098l2.826-.942-1.428-4.284-3.27,1.098zm14.382-5.472l-.846,3.036c.624,.546 1.518,.918 2.718,1.104l2.826-.942-1.434-4.284-3.264,1.086zm2.076,22.776l-.84,3.03c.624,.546 1.518,.918 2.712,1.104l2.832-.942-1.434-4.284-3.27,1.092zm-.798-13.464c-1.638-1.824-3.66-2.334-6.078-1.524l-.36,.12c-1.14,1.008-2.088,2.484-2.874,4.392-.768,1.818-.99,3.252-.642,4.296 .03,.084 .78,.762 2.232,2.07 1.548,1.266 2.406,2.118 2.592,2.538l4.578-1.53c.528-.174 1.044-.42 1.53-.744 .498-.318 .906-.69 1.248-1.092 .336-.396 .582-.804 .738-1.212 .144-.408 .168-.786 .042-1.158-.996-2.97-1.998-5.022-3.006-6.156zm-46.728-19.446c-.768,4.572-3.114,8.802-3.114,8.802s-4.824,.366-9.3-.852c-4.47-1.224-11.352-12.552-11.352-12.552l7.056-4.524-8.49-14.058-6.612-1.446-2.946-4.602-1.284,.822-1.734-2.706 13.662-8.754 1.734,2.7-1.29,.822 2.958,4.608-1.464,6.678 8.466,14.01 7.026-4.512c.012,0 7.446,10.992 6.684,15.564zm-30.372-26.682l5.922,1.302 1.296-5.922-2.43-3.804-7.224,4.626 2.436,3.798z"/>
</svg>
