<svg width="96" xmlns="http://www.w3.org/2000/svg" height="96" viewBox="0 0 96 96" xmlns:xlink="http://www.w3.org/1999/xlink">
<path d="m86.052,58.728v37.272h-26.286v-6.762h-23.862v6.762h-25.956v-37.272h76.104zm-16.398-6.852c-1.038-4.704-3.384-8.628-7.086-11.796-3.582-3.084-7.824-4.86-12.738-5.334h-.354v-12.492c.306-.054 .654-.096 1.122-.264 .648-.234 1.35-.504 2.16-.798 .798-.282 1.566-.516 2.322-.678 .738-.18 1.272-.258 1.626-.258 .678,0 1.554,.114 2.568,.342 1.032,.258 2.13,.54 3.246,.858 1.158,.366 2.202,.636 3.204,.876 .96,.228 1.8,.324 2.466,.324 1.062,0 2.19-.15 3.45-.486v-13.578c-1.044,.444-2.172,.69-3.45,.69-.666,0-1.506-.108-2.466-.36-1.002-.198-2.046-.51-3.204-.858-1.116-.354-2.172-.618-3.144-.84-.984-.24-1.8-.36-2.49-.36-2.31,0-4.776,.564-7.398,1.608v-2.478h-3.216v28.752h-.186c-4.872,.474-9.144,2.25-12.726,5.334-3.624,3.162-5.982,7.092-7.098,11.796 0,0-3.474-.582-3.474,3.3h50.676c-.012-3.45-3.81-3.3-3.81-3.3z"/>
</svg>
