<svg width="96" xmlns="http://www.w3.org/2000/svg" height="96" viewBox="0 0 96 96" xmlns:xlink="http://www.w3.org/1999/xlink">
<path d="m8.577,88.686c0,3.48 9.912,6.3 22.146,6.3s22.158-2.82 22.158-6.3l4.62-58.266h-53.556l4.632,58.266zm36.18-50.28c.048-.942 .75-1.764 1.794-1.632 .936,.042 1.674,.846 1.626,1.782l-2.04,47.832c-.048,.912-.798,1.632-1.71,1.632-.036,0-.048,0-.084,0-.936-.042-1.674-.84-1.626-1.782l2.04-47.832zm-15.738,.078c0-.942 .774-1.71 1.71-1.71 .948,0 1.71,.768 1.71,1.71v47.826c0,.942-.762,1.71-1.71,1.71-.936,0-1.71-.768-1.71-1.71v-47.826zm-14.1-1.74c.876-.102 1.734,.696 1.782,1.638l2.052,47.826c.036,.942-.69,1.746-1.638,1.788-.024,0-.048,0-.072,0-.912,0-1.674-.726-1.71-1.638l-2.052-47.826c-.036-.942 .702-1.746 1.638-1.788zm42-19.122c-.504-2.958-4.77-9.414-19.362-6.996l-2.766,.462c-.27-1.608-1.134-3.012-2.46-3.96-1.338-.948-2.916-1.308-4.548-1.056-3.318,.552-5.568,3.69-5.028,7.014l-2.682,.45c-14.604,2.424-16.548,9.918-16.056,12.876l52.902-8.79zm-30.318-7.086c.42-.582 1.032-.96 1.746-1.08 1.464-.246 2.826,.75 3.06,2.196l-5.262,.876c-.114-.708 .048-1.416 .456-1.992zm52.362,58.29c.306,.378 .492,.732 .588,1.02 .282,.828-.048,1.416-.972,1.722l-2.58,.858-1.71-1.962c-.33-.972 .096-1.896 1.266-2.796l3.408,1.158zm-12.12-6.966l3.408,1.158c.306,.384 .492,.726 .588,1.02 .27,.834-.036,1.41-.972,1.728l-2.568,.858-1.71-1.968c-.336-.972 .096-1.902 1.254-2.796zm6.282,2.676l-.126-4.044c.516-.444 .972-.738 1.416-.882 .846-.282 1.62-.222 2.376,.144 .75,.372 1.218,.864 1.416,1.44 .246,.732-.138,1.68-1.17,2.85l-3.912,.492zm16.464,7.59c-.246,.096-1.17,.48-2.802,1.188l-1.44,.078-.834-.786c-.492-.504-.798-.936-.936-1.332-.48-1.464-.624-2.934-.408-4.392 .21-1.464 .762-2.346 1.65-2.634 .624,.24 1.242,.462 1.866,.678 1.278,.396 1.992,.564 2.13,.516l-.024-.084c.786-.258 1.362,.204 1.758,1.374 .354,1.032 .42,2.094 .222,3.198s-.606,1.854-1.182,2.196zm2.886,9.516l-2.862,.948c-1.206-.18-2.124-.558-2.742-1.116l.858-3.066 3.294-1.116 1.452,4.35zm-21.648-1.584l-2.862,.954c-1.206-.174-2.112-.558-2.742-1.116l.858-3.066 3.306-1.11 1.44,4.338zm9.984,3.906c1.008,1.14 2.028,3.216 3.036,6.228 .126,.372 .108,.762-.048,1.17-.15,.414-.408,.828-.75,1.23-.342,.396-.762,.774-1.254,1.104-.504,.324-1.02,.57-1.56,.75l-4.626,1.554c-.186-.438-1.056-1.296-2.616-2.58-1.476-1.32-2.238-2.01-2.262-2.094-.354-1.062-.138-2.514 .642-4.356 .81-1.932 1.758-3.42 2.904-4.446l.372-.114c2.448-.81 4.5-.3 6.162,1.554zm-18.258-52.71c-.186-.192-2.154-1.812-2.37-1.944-1.392-.876-3.294-.57-4.908-.894-1.584-.318-3.06-1.062-4.584-1.428-1.722-.402-3.87-.534-5.694-.372-2.388,.21-4.404,1.368-6.912,1.308 1.908-.99 3.162-3.318 5.202-4.062 2.052-.75 5.052-2.298 6.948-3.312 3.084-1.626 9,.306 8.814-.246 0,0 5.112,3.456 6.48,4.272l5.388,5.016c.702,.558-.912,8.472-.912,8.472l-3.588,2.514-.888-3.552-2.154-1.47c-.282-.006-.21-3.654-.822-4.302zm3.27,22.068c0,0-2.424,.168-5.262-2.664v-6.012h5.262c0,0 3.204,5.466 0,8.676zm11.664-3.216l-1.392-9.45 5.85,3.876 4.278,3.906c0,0 .924,5.016 .924,7.062h-4.842c-.006-.006-4.818-1.056-4.818-5.394z"/>
</svg>
