<svg width="96" xmlns="http://www.w3.org/2000/svg" height="96" viewBox="0 0 96 96" xmlns:xlink="http://www.w3.org/1999/xlink">
<path d="m52.15,30.271c.798,.786 .798,2.076 0,2.874l-12.582,12.57c-.786,.798-2.082,.798-2.868,.024-.798-.822-.792-2.1-.012-2.898l12.588-12.564c.798-.804 2.076-.804 2.874-.006zm5.976,36.87c.798,.798 2.082,.798 2.874,.012l12.576-12.582c.804-.798 .798-2.088 0-2.88-.786-.786-2.076-.786-2.874,0l-12.576,12.576c-.798,.798-.798,2.088 0,2.874zm30.15-36.444v60.072h-65.304v-.966l-5.79,6.186-9.336-9.348 15.126-14.148v-66.504h41.508l23.796,24.708zm-22.68-2.01h11.208l-11.208-11.634v11.634zm15.816,5.154h-20.97v-20.976h-30.594v53.196l15.354-14.364-4.608-4.608 12.924-12.936 16.158,16.17-12.912,12.924-4.626-4.626-22.29,23.826v1.446h51.564v-50.052z"/>
</svg>
