<svg width="96" xmlns="http://www.w3.org/2000/svg" height="96" viewBox="0 0 96 96" xmlns:xlink="http://www.w3.org/1999/xlink">
<path d="m43.829,74.769v-21.072c-7.794-1.878-13.506-4.722-17.154-8.526-3.636-3.816-5.454-8.43-5.454-13.866 0-5.508 2.058-10.128 6.174-13.866 4.122-3.738 9.594-5.892 16.434-6.456v-4.98h8.652v4.98c6.318,.624 11.358,2.448 15.09,5.454 3.744,3 6.126,7.014 7.164,12.042l-15.096,1.662c-.912-3.96-3.3-6.636-7.158-8.046v19.662c9.546,2.178 16.05,5.004 19.506,8.484 3.462,3.468 5.19,7.92 5.19,13.35 0,6.078-2.178,11.196-6.534,15.348-4.35,4.164-10.41,6.708-18.162,7.644v9.414h-8.652v-9.156c-6.882-.708-12.468-2.874-16.764-6.498-4.29-3.624-7.032-8.73-8.226-15.336l15.564-1.416c.636,2.682 1.83,5.004 3.588,6.948 1.74,1.962 3.69,3.366 5.838,4.23zm0-52.824c-2.346,.672-4.218,1.824-5.604,3.42-1.392,1.614-2.088,3.384-2.088,5.34 0,1.776 .63,3.426 1.908,4.95 1.272,1.536 3.198,2.76 5.784,3.696v-17.406zm8.652,53.532c2.982-.462 5.406-1.632 7.272-3.492 1.872-1.872 2.802-4.05 2.802-6.57 0-2.238-.786-4.188-2.352-5.814-1.572-1.626-4.146-2.874-7.728-3.738v19.614z"/>
</svg>
