<svg width="96" xmlns="http://www.w3.org/2000/svg" height="96" viewBox="0 0 96 96" xmlns:xlink="http://www.w3.org/1999/xlink">
<path d="m34.869,21.942c0,8.82-7.128,15.936-15.924,15.936s-15.942-7.122-15.942-15.936c0-8.79 7.14-15.93 15.942-15.93s15.924,7.14 15.924,15.93zm-15.924,42.192c-8.802,0-15.942,7.128-15.942,15.93s7.14,15.936 15.942,15.936 15.924-7.134 15.924-15.936-7.128-15.93-15.924-15.93zm58.104,0c-8.802,0-15.93,7.128-15.93,15.93s7.128,15.936 15.93,15.936c8.796,0 15.948-7.134 15.948-15.936s-7.152-15.93-15.948-15.93zm0-58.122c-8.802-0-15.93,7.14-15.93,15.93 0,8.82 7.128,15.936 15.93,15.936 8.796,0 15.948-7.122 15.948-15.936 0-8.79-7.152-15.93-15.948-15.93zm-29.058,29.058c-8.808,0-15.936,7.134-15.936,15.942 0,8.802 7.128,15.936 15.936,15.936s15.936-7.134 15.936-15.936c.006-8.808-7.128-15.942-15.936-15.942z"/>
</svg>
