<svg width="96" xmlns="http://www.w3.org/2000/svg" height="96" viewBox="0 0 96 96" xmlns:xlink="http://www.w3.org/1999/xlink">
<path d="m102.15,77.136h-.132v18.864h-108.09v-18.864h-.078c3.726,0 6.192-2.106 8.136-6.822 .03-.138 .078-.246 .138-.366 .192-.282 .48-.468 .798-.468 .342,0 .618,.186 .786,.468h.036c.006,.06 .024,.072 .042,.114 .03,.078 .06,.114 .09,.186 1.938,4.77 4.392,6.882 8.148,6.882h.012c3.732,0 6.204-2.106 8.142-6.822 .03-.138 .078-.246 .138-.366h.012c.174-.282 .462-.468 .798-.468 .33,0 .612,.186 .792,.468h.012c.006,.06 .03,.072 .042,.114 .036,.078 .066,.114 .084,.186 1.914,4.662 4.326,6.768 7.932,6.858 3.606-.09 6.006-2.178 7.908-6.792 .042-.138 .09-.246 .144-.366 .198-.282 .468-.468 .798-.468 .324,0 .6,.186 .798,.468h.006c.018,.06 .036,.072 .048,.114 .036,.078 .072,.114 .096,.186 1.95,4.77 4.392,6.882 8.16,6.882h.03c3.72,0 6.168-2.106 8.118-6.822 .036-.138 .09-.246 .138-.366 .198-.282 .468-.468 .798-.468s.618,.186 .804,.468h.006c.018,.06 .048,.072 .054,.114 .036,.078 .066,.114 .09,.186 1.914,4.698 4.332,6.804 7.986,6.87 3.624-.066 6.036-2.166 7.956-6.804 .03-.138 .084-.246 .144-.366 .186-.282 .462-.468 .786-.468 .342,0 .624,.186 .798,.468h.024c.012,.06 .03,.072 .054,.114 .024,.078 .054,.114 .078,.186 1.938,4.77 4.398,6.882 8.148,6.882h.03c3.738,0 6.192-2.106 8.124-6.822 .036-.138 .084-.246 .15-.366 .186-.282 .468-.468 .798-.468 .342,0 .618,.186 .792,.468h.012c.024,.06 .036,.072 .066,.114 .018,.078 .048,.114 .066,.186 1.956,4.794 4.404,6.906 8.154,6.906zm-20.718-30.114c0,1.428-.252,2.772-.816,4.008-.564,1.242-1.29,2.316-2.232,3.234-.9,.954-2.016,1.692-3.276,2.232-1.284,.558-2.628,.84-4.08,.84h-1.044v2.262c0,1.5-.486,2.724-1.488,3.696-.996,.978-2.22,1.44-3.66,1.44h-23.31c-1.44,0-2.664-.462-3.648-1.44-.996-.972-1.512-2.196-1.512-3.696v-22.992h34.662c1.446,0 2.796,.276 4.08,.828 1.26,.552 2.376,1.278 3.276,2.208 .942,.918 1.668,2.034 2.232,3.288 .564,1.29 .816,2.634 .816,4.092zm-4.098-0c0-1.8-.606-3.282-1.824-4.506-1.212-1.182-2.694-1.776-4.476-1.776h-1.044v12.456h1.044c1.782,0 3.264-.612 4.476-1.812 1.218-1.206 1.824-2.652 1.824-4.362zm-20.202-24.258c-.156-12.084-9.366-22.194-21.168-22.248-11.892,.054-21.168,10.314-21.198,22.542v41.562h7.506v-41.562c.012-8.46 6.396-15.018 13.692-15.018 7.194,0 13.518,6.414 13.662,14.724h-5.838l9.798,9.81 9.804-9.81h-6.258z"/>
</svg>
