<svg width="96" xmlns="http://www.w3.org/2000/svg" height="96" viewBox="0 0 96 96" xmlns:xlink="http://www.w3.org/1999/xlink">
<path d="m61.923,95.515l19.65-21.306v-31.08h-67.044v52.896h46.914l.48-.51zm14.892-20.862l-15.54,16.83v-16.83h15.54zm-59.112-28.332h60.678v25.134h-20.322v21.372h-40.368l.012-46.506zm15.294,9.006c0-3.42-2.754-6.198-6.162-6.198-3.42,0-6.186,2.778-6.186,6.198 0,3.396 2.766,6.162 6.186,6.162 3.408,.018 6.162-2.76 6.162-6.162zm-9.072,0c0-1.62 1.29-2.916 2.892-2.916 1.602,0 2.898,1.314 2.898,2.916 0,1.584-1.302,2.892-2.898,2.892-1.602,.006-2.892-1.308-2.892-2.892zm23.148-39.018c1.128,2.274 6.234,14.178 6.234,15.888 0,9.342-12.468,9.342-12.468,0 0-1.71 5.106-14.202 6.234-15.888zm16.314-10.278c1.128,2.262 6.234,14.178 6.234,15.888 0,9.342-12.468,9.342-12.468,0 0-1.71 5.094-14.19 6.234-15.888zm-32.712-0c1.134,2.262 6.234,14.178 6.234,15.888 0,9.342-12.468,9.342-12.468,0 0-1.71 5.1-14.19 6.234-15.888z"/>
</svg>
