<svg width="96" xmlns="http://www.w3.org/2000/svg" height="96" viewBox="0 0 96 96" xmlns:xlink="http://www.w3.org/1999/xlink">
<path d="m48.016,8.98l-45.006,33.606v53.43h90v-53.43l-44.994-33.606zm-12.462,23.976c1.326-2.406 3.138-4.23 5.448-5.436 2.304-1.212 4.932-1.83 7.902-1.83 2.508,0 4.746,.492 6.702,1.464 1.956,.984 3.444,2.376 4.482,4.17 1.026,1.806 1.548,3.774 1.548,5.898 0,2.544-.786,4.848-2.352,6.9-1.968,2.592-4.482,3.888-7.56,3.888-.828,0-1.446-.138-1.872-.432-.414-.294-.702-.714-.84-1.278-1.17,1.128-2.538,1.704-4.074,1.704-1.656,0-3.03-.576-4.122-1.704-1.092-1.146-1.638-2.67-1.638-4.566 0-2.358 .654-4.488 1.974-6.414 1.602-2.364 3.636-3.54 6.132-3.54 1.776,0 3.09,.672 3.93,2.04l.378-1.662h3.954l-2.262,10.734c-.138,.678-.21,1.116-.21,1.314 0,.258 .054,.432 .168,.564s.252,.186 .408,.186c.486,0 1.104-.282 1.86-.87 1.02-.75 1.842-1.782 2.466-3.048 .63-1.284 .948-2.61 .948-3.972 0-2.448-.882-4.5-2.658-6.162-1.782-1.638-4.266-2.472-7.446-2.472-2.706,0-4.998,.552-6.876,1.662-1.872,1.092-3.288,2.64-4.254,4.644-.948,1.992-1.422,4.086-1.422,6.246 0,2.106 .54,4.026 1.596,5.742 1.074,1.734 2.562,2.988 4.476,3.792 1.92,.786 4.122,1.176 6.594,1.176 2.376,0 4.428-.33 6.15-.996 1.716-.66 3.102-1.644 4.146-2.988h3.18c-.996,2.028-2.526,3.618-4.59,4.77-2.37,1.32-5.256,1.968-8.646,1.968-3.3,0-6.138-.552-8.532-1.656-2.4-1.122-4.176-2.754-5.352-4.92-1.164-2.166-1.746-4.536-1.746-7.092 .024-2.79 .684-5.4 2.01-7.824zm-29.376,10.686l33.204,22.266-33.204,25.698v-47.964zm2.52,49.674l39.312-30.42 39.3,30.42h-78.612zm81.126-1.71l-33.204-25.698 33.204-22.266v47.964zm-40.188-56.202c.528,.6 .792,1.464 .792,2.592 0,1.008-.198,2.106-.582,3.258-.378,1.17-.84,2.07-1.368,2.67-.372,.42-.75,.738-1.128,.936-.498,.282-1.026,.42-1.596,.42-.762,0-1.392-.312-1.914-.9-.51-.6-.762-1.524-.762-2.79 0-.948 .18-2.04 .552-3.27s.918-2.166 1.644-2.844c.732-.66 1.524-.996 2.376-.996 .798,.006 1.458,.312 1.986,.924z"/>
</svg>
