<svg width="96" xmlns="http://www.w3.org/2000/svg" height="96" viewBox="0 0 96 96" xmlns:xlink="http://www.w3.org/1999/xlink">
<path d="m41.79,46.143c.414,.426 .618,.93 .618,1.518 0,.654-.24,1.23-.732,1.722-.486,.486-1.122,.792-1.902,.912v-5.142c.924,.234 1.608,.564 2.016,.99zm-6.312-7.572c0,.462 .174,.9 .504,1.296 .342,.408 .846,.726 1.518,.972v-4.56c-.618,.168-1.11,.474-1.47,.894-.366,.426-.552,.882-.552,1.398zm14.148-32.496c-5.874-.648-7.926,2.958-10.86,3.102-2.958-.144-4.992-3.75-10.872-3.102-6,.666-9.648,5.772-9.648,5.772l7.326,6.81h26.382l7.326-6.81c-.006,0-3.648-5.106-9.654-5.772zm-19.752,55.68h-7.152c-7.32,0-8.904-6.102-8.904-6.102-4.8-21.138 9.78-32.61 9.78-32.61h30.342c0,0 5.754,4.536 8.838,13.146-2.022,2.352-3.888,5.118-5.448,8.274-1.464,2.982-2.496,5.982-3.138,8.856-7.416,.258-18.822,1.572-24.318,8.436zm7.626-17.76v5.52c-.558-.228-1.074-.6-1.53-1.104-.462-.51-.768-1.122-.936-1.818l-4.08,.366c.312,1.728 1.026,3.066 2.148,4.014 1.128,.954 2.592,1.518 4.392,1.698v2.4h2.268v-2.46c2.028-.252 3.618-.918 4.758-2.004 1.14-1.092 1.71-2.43 1.71-4.014 0-1.428-.45-2.598-1.368-3.504-.894-.912-2.604-1.65-5.106-2.226v-5.142c1.014,.366 1.632,1.074 1.872,2.112l3.954-.438c-.27-1.314-.894-2.37-1.872-3.15s-2.304-1.26-3.954-1.428v-1.308h-2.268v1.308c-1.794,.144-3.228,.714-4.308,1.692-1.086,.978-1.62,2.19-1.62,3.624 0,1.428 .474,2.634 1.428,3.636 .972,.99 2.466,1.74 4.512,2.226zm41.418,15.798c-.582,.93-1.206,1.776-1.83,2.622 3.3,1.386 5.364,3.132 5.364,5.064 0,4.452-10.56,8.064-23.58,8.064s-23.58-3.612-23.58-8.064c0-3.816 7.776-7.002 18.186-7.836 .006-.894 .018-1.794 .114-2.748-13.278,.624-23.388,4.014-23.388,14.484 0,11.748 12.72,24.624 28.398,24.624s28.392-12.87 28.392-24.624c.006-5.784-3.09-9.39-8.076-11.586zm-21.162,13.866l3.762-6.03c.306-.6-.738-.462-1.686-.942-.948-.486-1.446-1.404-1.746-.816l-2.652,6.798c-.33,.648 1.62,2.37 2.322,.99zm1.974-16.212c-3.624-4.53-1.542-7.674-1.542-7.674-1.194,.876-5.184,11.832-.288,14.334 2.208,1.116 5.904-1.578 1.83-6.66zm3.714-7.29c-3.624-4.524-1.53-7.674-1.53-7.674-1.2,.876-5.202,11.832-.294,14.34 2.202,1.122 5.898-1.572 1.824-6.666zm3.612-7.068c-3.63-4.512-1.542-7.674-1.542-7.674-1.188,.876-5.19,11.82-.288,14.334 2.196,1.116 5.892-1.572 1.83-6.66zm-3.876,23.706c4.908,2.502 11.43-7.164 11.442-8.646 0,0-1.332,3.528-7.122,3.264-6.504-.318-6.51,4.26-4.32,5.382zm3.72-7.29c4.902,2.508 11.436-7.164 11.448-8.646 0,0-1.338,3.546-7.122,3.264-6.516-.306-6.528,4.266-4.326,5.382zm3.606-7.068c4.908,2.508 11.43-7.164 11.436-8.64 0,0-1.326,3.552-7.11,3.258-6.516-.306-6.522,4.26-4.326,5.382zm.498-6.642c5.208,2.652 5.376-11.244 5.376-11.244-1.2,.714-10.584,8.592-5.376,11.244z"/>
</svg>
