<svg width="96" xmlns="http://www.w3.org/2000/svg" height="96" viewBox="0 0 96 96" xmlns:xlink="http://www.w3.org/1999/xlink">
<path d="m68.883,45.672c0-1.368 5.874-19.56-5.562-25.062-13.176-6.342-16.824-11.394-16.71-19.5-.012,.33-7.968,13.158-2.79,19.5 8.052,9.81 4.65,17.406 0,16.71-7.812-1.17-6.87-11.358-5.568-13.926-4.086-.432-8.808,2.112-11.142,5.568-7.026,10.44 8.202,20.424 2.79,27.852-4.122,5.652-11.16-5.478-11.136-5.568-8.364,43.638 52.362,44.754 55.698,8.358 .996-10.914 10.824-16.854 11.136-16.716-10.464-4.83-16.716,3.132-16.716,2.784zm-19.488,30.636c-14.598,.54-13.104-10.404-11.136-13.926 2.484-4.482 8.778-5.376 5.568-11.136 .042,.084 6.834,1.11 11.136,5.568 6.6,6.816 5.85,19.062-5.568,19.494zm8.352-66.84c-1.704-1.83-2.79-4.026-2.79-5.574 0-2.898 2.37-5.682 5.574-8.352 .324,2.322-1.386,5.802 0,8.352 1.08,1.89 2.79,4.026 2.79,5.574 0,2.07-.774,3.96-2.79,5.568-.306-.774-.84-3.318-2.784-5.568z"/>
</svg>
