<svg width="96" xmlns="http://www.w3.org/2000/svg" height="96" viewBox="0 0 96 96" xmlns:xlink="http://www.w3.org/1999/xlink">
<path d="m86.022,18.543c-29.394-.24-35.754-7.908-48.27-7.908-14.886,0-23.628,4.098-27.378,6.402-2.778,1.494-2.124-1.38-2.124-2.382 0-1.008 1.644-1.986 1.644-1.986 3.444-2.232 12.306-6.702 27.876-6.702 12.54,0 18.894,7.698 48.402,7.908 0,0 2.25-.228 2.25,1.782s-.15,2.886-2.4,2.886zm2.4,74.532c0-2.01-2.25-1.782-2.25-1.782-29.508-.216-35.874-7.908-48.402-7.908-15.564,0-24.42,4.47-27.876,6.702 0,0-1.644,.978-1.644,1.986 0,1.002-.642,3.876 2.124,2.376 3.75-2.298 12.492-6.39 27.378-6.402 12.516,0 18.876,7.68 48.27,7.92 2.25-.012 2.4-.888 2.4-2.892zm0-67.872c0-2.01-2.25-1.782-2.25-1.782-29.508-.216-35.874-7.908-48.402-7.908-15.564,0-24.42,4.47-27.876,6.702 0,0-1.644,.978-1.644,1.986v58.182c0,1.002-.642,3.876 2.124,2.382 3.75-2.316 12.492-6.402 27.378-6.402 12.516,0 18.876,7.668 48.27,7.908 2.25,0 2.388-.876 2.388-2.886l.012-58.182z"/>
</svg>
