<svg width="96" xmlns="http://www.w3.org/2000/svg" height="96" viewBox="0 0 96 96" xmlns:xlink="http://www.w3.org/1999/xlink">
<path d="m108,96h-120v-11.994c1.908-.384 7.824-3.906 12-12 5.478-10.626 12-3 12-3-5.184,.45-3.924,6.138-2.994,9 1.11,3.414 4.098,5.538 5.994,6h3.006c1.914-.384 4.824-3.906 8.988-12 5.49-10.626 12.006-3 12.006-3-5.178,.45-3.93,6.138-3,9 1.116,3.414 4.098,5.538 6,6h3c1.92-.384 4.83-3.906 9-12 5.484-10.626 12-3 12-3-5.172,.45-3.936,6.138-3,9 1.122,3.414 4.098,5.538 6.006,6h2.994c1.908-.384 7.848-3.906 12-12 5.502-10.626 12-3 12-3-5.166,.45-3.936,6.138-3,9 1.116,3.414 4.098,5.538 6,6h9v11.994zm-18-47.994v-33l3,3 3-3-28.5-24.006-28.5,24.006 3,3 3-3v33h-3c-1.902-.462-4.884-2.586-6-6-.93-2.862-2.178-8.55 3-9 0,0-6.516-7.626-12.006,2.994-4.164,8.106-7.074,11.622-8.988,12.006h-3.006c-1.896-.462-4.884-2.586-5.994-6-.93-2.862-2.19-8.55 2.994-9 0,0-6.522-7.626-12,2.994-4.176,8.106-10.092,11.622-12,12.006v18c1.908-.384 7.824-3.9 12-12 5.478-10.626 12-3 12-3-5.184,.45-3.924,6.138-2.994,9 1.11,3.414 4.098,5.538 5.994,6h3.006c1.914-.384 4.824-3.9 8.988-12 5.49-10.626 12.006-3 12.006-3-5.178,.45-3.93,6.138-3,9 1.116,3.414 4.098,5.538 6,6h3c1.92-.384 4.83-3.9 9-12 5.484-10.626 12-3 12-3-5.172,.45-3.936,6.138-3,9 1.122,3.414 4.098,5.538 6.006,6h2.994c1.908-.384 7.848-3.9 12-12 5.502-10.626 12-3 12-3-5.166,.45-3.936,6.138-3,9 1.116,3.414 4.098,5.538 6,6h9v-18h-18zm-94.41-40.836h20.19v5.994l20.07-11.592-20.07-11.592v6h-20.19v11.19z"/>
</svg>
