<svg width="96" xmlns="http://www.w3.org/2000/svg" height="96" viewBox="0 0 96 96" xmlns:xlink="http://www.w3.org/1999/xlink">
<path d="m108.003,45.99v22.188c-2.676-1.14-5.856-3.006-6.66-5.514-1.044-3.162-2.406-9.492 3.336-10.002 0,0-7.242-8.448-13.338,3.342-4.608,8.982-7.878,12.906-9.996,13.332h-3.336c-2.112-.51-5.436-2.88-6.666-6.666-1.044-3.162-2.406-9.492 3.336-10.002 0,0-7.248-8.448-13.338,3.342-4.626,8.982-7.872,12.906-10.002,13.332h-3.33c-2.118-.51-5.436-2.88-6.666-6.666-1.044-3.162-2.406-9.492 3.336-10.002 0,0-7.254-8.448-13.338,3.342-4.626,8.982-7.872,12.906-9.996,13.332h-3.342c-2.1-.51-5.43-2.88-6.66-6.666-1.032-3.162-2.418-9.492 3.336-10.002 0,0-7.26-8.448-13.338,3.342-3.348,6.48-9.402,10.29-13.338,12.09v-31.5c7.542-25.914 26.928-47.808 46.668-47.808 10.11,0 17.43,2.232 20.004,6.678 2.454,4.152 2.55,11.826-3.342,13.326-2.466,.63-8.496-1.092-9.996-3.336-1.044-1.566-3.126-2.61 0-6.666-17.352-4.428-30.198,37.74 9.996,43.338 5.334-20.412 21.054-36.666 36.666-36.666 7.782,0 11.358,3.234 13.338,6.66 1.872,3.198 1.182,8.862-3.336,10.002-1.896,.51-5.736-1.464-6.666-3.324-.93-1.872-.726-5.316 3.336-6.678-14.004-3.612-23.664,31.95 13.332,33.852zm-96.666,23.34c-0,0-7.26-8.454-13.338,3.336-2.49,4.83-6.486,8.154-10.002,10.302v13.032h120v-10.002c-2.118-.51-8.772-2.874-9.996-6.66-1.044-3.174-2.406-9.492 3.336-10.002 0,0-7.236-8.454-13.338,3.336-4.608,8.988-7.878,12.906-9.996,13.332h-3.336c-2.112-.51-5.436-2.874-6.666-6.66-1.044-3.174-2.406-9.492 3.336-10.002 0,0-7.248-8.454-13.338,3.336-4.626,8.988-7.872,12.906-9.996,13.332h-3.336c-2.118-.51-5.436-2.874-6.666-6.66-1.038-3.174-2.406-9.492 3.336-10.002 0,0-7.254-8.454-13.332,3.336-4.632,8.988-7.872,12.906-10.008,13.332h-3.33c-2.106-.51-5.436-2.874-6.666-6.66-1.026-3.198-2.412-9.516 3.336-10.026z"/>
</svg>
