<svg width="96" xmlns="http://www.w3.org/2000/svg" height="96" viewBox="0 0 96 96" xmlns:xlink="http://www.w3.org/1999/xlink">
<path d="m79.881,13.481h-63.738v-7.482h63.738v7.482zm3.846,9.564v66.582c0,3.504-2.874,6.372-6.372,6.372h-58.692c-3.51,0-6.372-2.874-6.372-6.372v-66.582c0-3.504 2.874-6.372 6.372-6.372h58.692c3.51-.006 6.372,2.868 6.372,6.372zm-27.366,19.572c5.286,5.292 10.98-11.544 10.98-11.544-1.746,.396-16.242,6.276-10.98,11.544zm-8.568,2.532c2.22,2.22 7.77,.414 4.83-7.374-2.622-6.918 1.17-9.93 1.17-9.93-1.812,.6-10.968,12.33-6,17.304zm-7.17,7.176c2.226,2.22 7.782,.402 4.836-7.38-2.622-6.912 1.164-9.924 1.164-9.924-1.806,.576-10.992,12.324-6,17.304zm-7.206,12.432c-.96-.966-1.206-2.292-1.812-1.686l-5.898,7.218c-.654,.666 1.044,3.51 2.43,2.124l6.948-5.856c.606-.6-.708-.852-1.668-1.8zm4.65-12.42c-2.622-6.93 1.164-9.93 1.164-9.93-1.818,.606-10.992,12.324-6.012,17.304 2.238,2.238 7.794,.408 4.848-7.374zm17.826,6.726c0,0-3.012,3.786-9.93,1.146-7.782-2.928-9.618,2.628-7.368,4.866 4.968,4.956 16.71-4.218 17.298-6.012zm7.392-7.398c0,0-3,3.786-9.948,1.152-7.77-2.934-9.618,2.616-7.368,4.86 4.98,4.968 16.722-4.206 17.316-6.012zm7.176-7.158c0,0-3.024,3.792-9.936,1.158-7.806-2.94-9.612,2.622-7.38,4.842 4.974,4.98 16.716-4.206 17.316-6z"/>
</svg>
