<svg width="96" xmlns="http://www.w3.org/2000/svg" height="96" viewBox="0 0 96 96" xmlns:xlink="http://www.w3.org/1999/xlink">
<path d="m81.126,15.432l-11.826,11.016h-42.588l-11.826-11.016c0,0 5.88-8.22 15.588-9.306 9.492-1.056 12.786,4.776 17.532,4.992 4.746-.216 8.064-6.048 17.538-4.992 9.708,1.086 15.582,9.306 15.582,9.306zm7.158,70.716c0,0-2.58,9.858-14.376,9.858h-51.786c-11.826,0-14.388-9.858-14.388-9.858-7.722-34.122 15.786-52.626 15.786-52.626h48.984c-.006,.006 23.502,18.51 15.78,52.626zm-31.506-30.552c5.334,5.334 11.07-11.628 11.07-11.628-1.752,.378-16.386,6.318-11.07,11.628zm-8.634,2.544c2.244,2.25 7.836,.414 4.872-7.422-2.634-6.996 1.182-10.02 1.182-10.02-1.824,.6-11.07,12.426-6.054,17.442zm-7.242,7.242c2.25,2.244 7.854,.408 4.872-7.44-2.64-6.984 1.17-10.02 1.17-10.02-1.8,.6-11.07,12.432-6.042,17.46zm-7.26,12.54c-.96-.978-1.218-2.316-1.824-1.692l-5.952,7.272c-.66,.672 1.05,3.552 2.454,2.124l7.008-5.892c.606-.606-.72-.858-1.686-1.812zm4.692-12.528c-2.64-6.99 1.176-10.02 1.176-10.02-1.842,.612-11.088,12.438-6.06,17.448 2.238,2.262 7.854,.42 4.884-7.428zm17.976,6.78c0,0-3.042,3.816-10.02,1.158-7.86-2.964-9.696,2.634-7.428,4.896 5.016,5.022 16.854-4.248 17.448-6.054zm7.446-7.446c0,0-3.024,3.804-10.032,1.146-7.842-2.94-9.684,2.646-7.422,4.896 5.022,5.028 16.848-4.236 17.454-6.042zm7.242-7.23c0,0-3.06,3.828-10.02,1.164-7.872-2.964-9.696,2.628-7.446,4.878 5.016,5.028 16.86-4.224 17.466-6.042z"/>
</svg>
