<svg width="96" xmlns="http://www.w3.org/2000/svg" height="96" viewBox="0 0 96 96" xmlns:xlink="http://www.w3.org/1999/xlink">
<path d="m11.085,33.366v36.306h-5.394c-1.482,0-2.688-1.218-2.688-2.694v-46.782l3.474-4.626c.594-.786 1.878-1.428 2.868-1.428h7.128c.984,0 2.604,0 3.582,0h7.128c.984,0 2.274,.642 2.868,1.428l3.474,4.626h40.626c1.476,0 2.682,1.206 2.682,2.682v10.488h-35.22l-3.474-4.626c-.594-.786-1.878-1.428-2.868-1.428h-7.128c-.984,0-2.598,0-3.582,0h-7.128c-.984,0-2.274,.642-2.868,1.428l-3.48,4.626zm79.224,13.158h-40.62l-3.48-4.62c-.594-.786-1.878-1.428-2.862-1.428h-7.128c-.984,0-2.598,0-3.588,0h-7.128c-.984,0-2.274,.642-2.868,1.428l-3.474,4.62v46.794c0,1.476 1.206,2.682 2.676,2.682h68.46c1.482,0 2.688-1.206 2.688-2.682v-44.1c.012-1.488-1.194-2.694-2.676-2.694z"/>
</svg>
