<svg width="96" xmlns="http://www.w3.org/2000/svg" height="96" viewBox="0 0 96 96" xmlns:xlink="http://www.w3.org/1999/xlink">
<path d="m93.021,58.717h.012c-.258,6.636-2.52,13.848-5.994,20.49 0,0-8.292,16.794-34.326,16.794s-34.476-16.638-34.476-16.638c-3.48-6.678-5.592-13.836-5.856-20.634h.018c-.012-.174-.018-.348-.018-.528 0-3.192 1.968-6.18 5.376-8.76l3.624,2.322c-2.244,1.506-3.546,3.186-3.546,4.974 0,6.288 15.618,11.388 34.872,11.388 19.254,0 34.866-5.106 34.866-11.388 0-4.35-7.488-8.13-18.48-10.05l.054-4.572c14.07,2.754 23.886,8.91 23.886,16.086 .006,.174 0,.336-.012,.516zm-67.236-27.072c-.132,1.068-.312,2.778 1.002,5.106 1.632,2.82 3.72,3.792 4.398,4.272-.12-.726 .084-2.886-1.446-5.538-1.32-2.376-2.76-3.42-3.618-4.242-2.406-3.474-5.13-6.258-7.194-8.454l-4.938-5.124c-.006,0 1.77,2.052 4.728,5.292 2.028,2.274 4.71,5.16 7.068,8.688zm12.348,27.114c1.056,.99 2.382,2.628 5.358,4.266 3.324,1.866 6.132,1.866 7.08,2.07-.534-.87-1.608-3.618-5.28-5.646-3.012-1.656-5.262-1.344-6.642-1.116-4.548-2.64-8.436-5.346-11.586-7.284-4.488-2.766-7.398-4.17-7.386-4.17-.012,.006 2.826,1.554 7.218,4.452 3.012,2.004 6.768,4.746 11.238,7.428zm2.676-14.46c-.36,1.224-.876,3.204 .282,6.126 1.386,3.564 3.696,5.046 4.41,5.718 .006-.876 .612-3.348-.696-6.696-1.158-2.976-2.664-4.458-3.534-5.55-2.25-4.458-4.992-8.16-7.098-11.046l-5.034-6.786 4.758,6.936c2.052,2.988 4.728,6.792 6.912,11.298zm-8.46,7.236c1.002,.888 2.286,2.388 5.088,3.87 3.126,1.644 5.754,1.596 6.624,1.764-.516-.786-1.584-3.3-5.04-5.124-2.826-1.482-4.914-1.146-6.198-.906-4.278-2.382-7.95-4.842-10.896-6.612-4.23-2.514-6.966-3.792-6.954-3.804-.006,.012 2.652,1.422 6.78,4.068 2.826,1.83 6.39,4.326 10.596,6.744zm-6.042-7.122c.942,.816 2.154,2.178 4.764,3.492 2.928,1.482 5.358,1.374 6.168,1.524-.492-.72-1.53-3.006-4.752-4.632-2.64-1.326-4.566-.99-5.748-.756-4.002-2.136-7.434-4.374-10.194-5.976-3.942-2.292-6.498-3.45-6.486-3.462-.006,.024 2.478,1.302 6.342,3.702 2.652,1.65 5.976,3.93 9.906,6.108zm-6.15-10.38c1.764,1.584 3.444,1.668 4.392,1.98-.204-.768-.03-2.676-2.04-4.464-1.722-1.482-3.456-1.602-4.35-1.656-7.086-6.072-13.362-9.966-14.808-10.89l-.318-.216c-.054,.048 6.87,4.614 14.964,11.712 .264,.876 .738,2.322 2.16,3.534zm-.126,3.354c.876,.744 2.004,1.992 4.434,3.15 2.706,1.35 4.938,1.206 5.694,1.326-.468-.642-1.458-2.694-4.434-4.17-2.454-1.17-4.218-.876-5.304-.648-3.708-1.926-6.882-3.972-9.444-5.394-3.642-2.112-6.012-3.126-6.012-3.132 0,.012 2.316,1.146 5.874,3.36 2.466,1.458 5.544,3.546 9.192,5.508zm13.47,.378c-.252,1.146-.594,3 .66,5.622 1.518,3.198 3.744,4.416 4.434,4.992-.06-.804 .324-3.126-1.098-6.126-1.272-2.67-2.742-3.936-3.606-4.896-2.358-3.954-5.088-7.206-7.188-9.744l-5.004-5.946 4.764,6.114c2.064,2.628 4.74,5.97 7.038,9.984zm27.828,6.81c-.798,.792-2.04,2.094-2.436,4.788-.498,3.288 .594,5.364 .84,6.162 .372-.642 1.914-2.286 2.394-5.376 .402-2.748-.09-4.5-.27-5.694 .228-4.326-.258-8.28-.624-11.352-.54-4.458-.93-7.236-.924-7.236l.642,7.242c.282,3.12 .678,7.128 .378,11.466zm-2.55-7.356c-.69,.774-1.758,2.058-1.962,4.584-.252,3.078 .882,4.92 1.164,5.652 .312-.63 1.626-2.25 1.866-5.13 .21-2.574-.354-4.152-.594-5.25-.048-4.008-.714-7.626-1.218-10.434l-1.236-6.642 .99,6.66c.42,2.85 1.008,6.534 .99,10.56zm-2.964-7.212c-.594,.75-1.494,2.004-1.512,4.338-.036,2.85 1.14,4.476 1.446,5.13 .234-.618 1.332-2.184 1.374-4.854 .03-2.382-.582-3.798-.876-4.788-.294-3.678-1.11-6.966-1.746-9.522l-1.506-6.024 1.272,6.066c.558,2.61 1.308,5.952 1.548,9.654zm5.22,33.678c.456-.666 2.232-2.292 2.976-5.592 .642-2.916 .234-4.836 .126-6.126 .534-4.632 .252-8.922 .048-12.24-.312-4.836-.582-7.842-.582-7.842l.282,7.836c.108,3.366 .282,7.704-.33,12.336-.906,.798-2.328,2.112-2.946,4.962-.768,3.48 .222,5.784 .426,6.666zm-14.802-38.418c.366,.828 .738,2.124 2.082,3.78 1.482,1.884 3.132,2.514 3.642,2.862-.12-.63-.102-2.466-1.728-4.53-1.356-1.674-2.73-2.046-3.594-2.232-1.992-2.646-3.564-5.196-4.902-7.098-1.884-2.748-3.24-4.278-3.228-4.29-.012,.006 1.26,1.614 3.048,4.404 1.26,1.914 2.742,4.464 4.68,7.104zm1.272-2.418c.726,1.74 1.902,2.376 2.478,2.904 .12-.624 .918-1.968 .102-3.948-.714-1.644-1.932-2.316-2.55-2.646-2.97-6.792-6.114-11.73-6.834-12.888l-.156-.264c-.054,.018 3.33,5.652 6.66,13.548-.12,.714-.288,1.932 .3,3.294zm2.976,13.8c1.596,2.052 3.372,2.778 3.918,3.144-.102-.69-.036-2.706-1.8-4.974-1.428-1.842-2.94-2.244-3.876-2.46-2.136-2.892-3.828-5.664-5.25-7.758-2.028-2.988-3.456-4.668-3.456-4.68 0,.006 1.344,1.77 3.264,4.812 1.338,2.094 2.922,4.866 4.998,7.764 .396,.918 .786,2.31 2.202,4.152zm1.938-13.686c-.48,.732-1.206,1.938-1.092,4.074 .18,2.616 1.35,4.014 1.662,4.596 .174-.57 1.086-2.1 .918-4.542-.12-2.166-.786-3.42-1.116-4.308-.51-3.342-1.488-6.282-2.202-8.58l-1.752-5.4c-.006,0 .558,2.106 1.548,5.454 .66,2.334 1.572,5.34 2.034,8.706zm-2.286,16.758c.39,.996 .792,2.508 2.292,4.512 1.674,2.25 3.588,3.072 4.164,3.492-.102-.756 .012-2.946-1.836-5.418-1.524-2.022-3.132-2.478-4.152-2.724-2.25-3.162-4.032-6.174-5.532-8.448-2.148-3.246-3.678-5.094-3.672-5.1-.006,.006 1.41,1.92 3.456,5.232 1.404,2.274 3.078,5.286 5.28,8.454zm-21.846,19.824c-.006,.012 2.484,1.422 6.372,4.17 .276,.06 .546,.126 .828,.18-4.35-2.904-7.206-4.344-7.2-4.35zm31.068,5.478c-.582-.918-1.188-1.59-1.8-2.1-.204-.57-.414-1.092-.636-1.548 1.32,1.35 2.556,2.022 3.012,2.388 0-.06 0-.138 0-.228 .162,.528 .312,1.074 .474,1.626 .252-.018 .498-.042 .744-.06-.45-1.56-.954-3.066-1.506-4.506-.192-.762-.51-1.614-1.02-2.514-.486-1.128-.972-2.208-1.452-3.246 .594,.402 1.068,.672 1.314,.87-.078-.822 .12-3.192-1.812-5.898-1.128-1.584-2.352-2.286-3.348-2.664l-3.066-5.958c-.006,0 .996,2.166 2.718,5.832-.258-.084-.498-.156-.708-.21-2.352-3.45-4.206-6.72-5.79-9.18-2.256-3.516-3.87-5.508-3.858-5.514-.006,.012 1.494,2.088 3.624,5.664 1.47,2.466 3.216,5.73 5.49,9.168 .408,1.074 .804,2.712 2.358,4.896 .732,1.026 1.5,1.776 2.202,2.352 .264,.606 .546,1.23 .822,1.872-1.32-1.326-2.64-1.752-3.546-2.016-.258-.39-.504-.792-.75-1.194-1.512-3.252-3.132-6.126-4.506-8.52-3-5.25-4.95-8.466-4.938-8.466l4.596,8.616c.348,.648 .714,1.35 1.092,2.064-.498-.864-.984-1.674-1.428-2.412-2.346-3.792-4.038-5.934-4.032-5.94-.006,.006 1.566,2.238 3.78,6.102 1.302,2.274 2.802,5.184 4.668,8.322 .828,1.836 1.614,3.774 2.298,5.826-.18,.42-.396,.936-.588,1.554-2.064-3.54-3.75-6.822-5.256-9.354-.486-.84-.93-1.572-1.356-2.256-1.896-3.888-4.068-7.242-5.814-9.93-3.048-4.71-5.01-7.614-5.004-7.614l4.704,7.758c2.016,3.348 4.656,7.626 6.69,12.612-.474,1.29-1.17,3.372-.144,6.6 1.236,3.918 3.606,5.682 4.326,6.462 .066-.876 .804-3.252-.072-6.612 .54,1.014 1.116,2.058 1.728,3.126-.252,1.212-.318,2.73 .15,4.662 1.95-.012 3.876-.09 5.754-.21-.042-.078-.066-.15-.114-.222zm-27.432-7.284c-4.74-3.03-7.836-4.566-7.824-4.578-.006,.006 2.988,1.686 7.62,4.872 2.682,1.854 5.958,4.29 9.726,6.792 .462,.06 .942,.096 1.404,.138-4.23-2.67-7.914-5.286-10.926-7.224zm34.122,1.878c.888-4.92 .828-9.552 .828-13.122l-.168-8.442c-.006,0-.09,3.222-.15,8.418-.102,3.618-.15,8.28-1.128,13.2-1.026,.78-2.61,2.088-3.504,5.088-.024,.102-.036,.186-.066,.288 1.368-.126 2.682-.282 3.978-.462 .42-2.202 .234-3.834 .21-4.968z"/>
</svg>
