<svg width="96" xmlns="http://www.w3.org/2000/svg" height="96" viewBox="0 0 96 96" xmlns:xlink="http://www.w3.org/1999/xlink">
<path d="m9.819,61.381h24.822l-5.352,34.38h-14.538l-4.932-34.38zm60.03-13.44c4.74-.012 9.024-1.908 12.126-5.016 3.126-3.12 5.04-7.38 5.028-12.126 0-4.734-1.908-9.024-5.028-12.126-3.108-3.12-7.374-5.028-12.126-5.028-4.734,0-9.012,1.896-12.126,5.028-3.12,3.108-5.028,7.38-5.028,12.126s1.902,9.024 5.028,12.126c3.102,3.102 7.386,5.016 12.126,5.016zm-39.432-12.966h-23.166c-2.352,0-4.242-1.884-4.242-4.23 0-2.358 1.89-4.242 4.242-4.242h23.166c1.242,0 2.346,.564 3.126,1.404h12.372c1.41-11.742 11.298-20.874 23.4-20.862 13.098-.012 23.694,10.596 23.694,23.694 0,13.08-10.608,23.67-23.694,23.67-12.108,0-21.996-9.12-23.4-20.862h-12.372c-.78,.882-1.884,1.428-3.126,1.428zm20.154-4.194c0,5.334 2.16,10.158 5.64,13.638 3.48,3.468 8.298,5.646 13.626,5.646 5.334-.012 10.146-2.178 13.626-5.646 3.492-3.504 5.64-8.322 5.64-13.626 0-5.322-2.16-10.134-5.64-13.626-3.492-3.48-8.316-5.634-13.626-5.634s-10.128,2.154-13.626,5.634c-3.48,3.492-5.64,8.304-5.64,13.614zm-4.86,63.75c1.008,.996 2.262,1.488 3.75,1.488h37.746c1.5,0 2.742-.492 3.762-1.488 1.008-.972 1.512-2.202 1.512-3.69h-48.306c0,1.488 .516,2.718 1.536,3.69zm42.714-26.916c.81,.798 1.446,1.746 1.926,2.862 .474,1.116 .708,2.286 .708,3.54s-.234,2.412-.708,3.504c-.48,1.068-1.122,1.992-1.926,2.802-.804,.81-1.77,1.452-2.862,1.92-1.116,.48-2.286,.726-3.54,.726h-.888v1.956c0,1.314-.432,2.388-1.308,3.222-.864,.834-1.914,1.254-3.168,1.254h-20.226c-1.254,0-2.316-.42-3.174-1.254-.87-.834-1.29-1.908-1.29-3.222v-19.944h30.06c1.26,0 2.424,.234 3.546,.714 1.08,.468 2.052,1.11 2.85,1.92zm-.948,6.384c0-1.536-.516-2.85-1.548-3.888-1.068-1.044-2.364-1.572-3.9-1.572h-.888v10.842h.888c1.548,0 2.844-.528 3.9-1.584 1.032-1.044 1.548-2.31 1.548-3.798z"/>
</svg>
