<svg width="96" xmlns="http://www.w3.org/2000/svg" height="96" viewBox="0 0 96 96" xmlns:xlink="http://www.w3.org/1999/xlink">
<path d="m81.122,15.444l-11.82,10.998h-42.594l-11.82-10.998c0,0 5.886-8.238 15.582-9.318 9.492-1.056 12.786,4.764 17.544,5.004 4.746-.24 8.052-6.06 17.532-5.004 9.702,1.08 15.576,9.318 15.576,9.318zm-31.482,52.806v8.304c1.26-.204 2.292-.69 3.078-1.482 .792-.792 1.188-1.716 1.188-2.772 0-.948-.336-1.77-1.002-2.454-.66-.69-1.752-1.218-3.264-1.596zm-6.918-10.632c0,.756 .27,1.452 .81,2.094 .54,.654 1.356,1.17 2.448,1.572v-7.362c-.996,.276-1.782,.762-2.37,1.44-.594,.69-.888,1.428-.888,2.256zm45.564,28.542c0,0-2.562,9.846-14.376,9.846h-51.78c-11.826,0-14.394-9.846-14.394-9.846-7.734-34.122 15.786-52.626 15.786-52.626h48.978c0-.006 23.514,18.504 15.786,52.626zm-28.206-14.622c0-2.31-.726-4.188-2.196-5.658-1.464-1.464-4.206-2.652-8.25-3.588v-8.316c1.632,.594 2.64,1.734 3.03,3.396l6.384-.696c-.438-2.124-1.452-3.828-3.03-5.094s-3.714-2.034-6.384-2.31v-2.112h-3.66v2.112c-2.892,.24-5.208,1.152-6.948,2.73-1.746,1.584-2.61,3.54-2.61,5.862 0,2.31 .762,4.248 2.31,5.874 1.536,1.602 3.954,2.808 7.248,3.6v8.91c-.906-.366-1.734-.96-2.472-1.782-.738-.828-1.242-1.806-1.506-2.928l-6.582,.588c.498,2.796 1.662,4.956 3.48,6.486 1.818,1.542 4.176,2.454 7.086,2.742v3.876h3.66v-3.978c3.282-.396 5.838-1.476 7.68-3.234 1.842-1.752 2.76-3.924 2.76-6.48z"/>
</svg>
