<svg width="96" xmlns="http://www.w3.org/2000/svg" height="96" viewBox="0 0 96 96" xmlns:xlink="http://www.w3.org/1999/xlink">
<path d="m47.754,6h-39.408c-2.286,0-4.128,1.86-4.128,4.128v84.222h47.658v-84.222c0-2.286-1.848-4.128-4.122-4.128zm-1.818,31.488h-35.784v-23.424h35.784v23.424zm24.87,58.512c-9.786,0-15.714-6.72-16.278-18.456-.234-4.626 .924-9.72 2.148-15.126 .918-4.056 1.878-8.244 2.34-12.546 .444-4.314-.234-5.784-.678-6.276-.822-.918-3.258-.918-5.61-.918h-1.152v-5.724h1.152c3.432,0 7.332,0 9.864,2.826 1.98,2.178 2.646,5.598 2.118,10.692-.486,4.632-1.476,9-2.43,13.218-1.134,4.998-2.214,9.726-2.034,13.56 .414,8.646 3.972,13.038 10.566,13.038 7.242,0 10.914-4.59 10.914-13.614 0-7.464-2.322-13.272-3.864-17.118l-.6-1.56c-1.608-4.176-1.818-7.932-1.98-13.626-.156-5.526-.102-11.436 1.428-17.274 1.548-5.874 4.71-8.736 9.954-13.476l1.266-1.152 3.852,4.236-1.284,1.158c-4.902,4.44-7.14,6.462-8.244,10.692-1.356,5.124-1.392,10.554-1.254,15.636 .156,5.556 .372,8.532 1.608,11.766l.576,1.458c1.608,3.996 4.266,10.674 4.266,19.242-.006,12.12-6.228,19.344-16.644,19.344zm7.368-50.658l-.138-5.724c0,0 4.428-.126 6.942-.144 .054-1.008 .054-2.598 .054-4.254v-.858c0-6.846-1.068-7.752-2.298-8.808-.444-.378-.9-.774-1.332-1.248l4.212-3.876c.27,.294 .558,.528 .834,.762 2.442,2.1 4.314,4.374 4.314,13.158v.852c0,3.21 0,4.98-.288,6.342-.492,2.316-2.082,3.636-4.374,3.636-1.854,.006-7.92,.162-7.926,.162z"/>
</svg>
