<svg width="96" xmlns="http://www.w3.org/2000/svg" height="96" viewBox="0 0 96 96" xmlns:xlink="http://www.w3.org/1999/xlink">
<path d="m86.487,57.018l-7.44,9.156 7.44,9.162c1.002,1.23 .81,3.036-.408,4.032-.528,.42-1.164,.63-1.8,.63-.828,0-1.644-.36-2.214-1.056l-6.69-8.238-6.69,8.238c-.558,.702-1.38,1.056-2.22,1.056-.636,0-1.278-.21-1.806-.63-1.224-.996-1.404-2.802-.414-4.032l7.446-9.162-7.446-9.156c-.99-1.23-.81-3.03 .414-4.038 1.224-.996 3.042-.81 4.026,.42l6.69,8.238 6.69-8.238c.996-1.23 2.79-1.416 4.014-.42 1.218,1.008 1.41,2.808 .408,4.038zm-27.54-4.026c-1.224-1.008-3.036-.81-4.02,.42l-6.69,8.238-6.684-8.238c-.99-1.23-2.79-1.428-4.026-.42-1.224,.996-1.404,2.796-.414,4.014l7.446,9.168-7.446,9.162c-.99,1.23-.81,3.024 .414,4.032 .534,.42 1.176,.63 1.812,.63 .828,0 1.644-.354 2.214-1.056l6.684-8.238 6.69,8.238c.558,.702 1.38,1.056 2.22,1.056 .636,0 1.278-.21 1.8-.63 1.218-1.008 1.422-2.802 .408-4.032l-7.446-9.162 7.446-9.168c1.014-1.218 .81-3.018-.408-4.014zm-27.792-.012c-1.236-1.008-3.036-.798-4.026,.42l-6.69,8.238-6.69-8.238c-.996-1.218-2.79-1.428-4.008-.42-1.242,.996-1.422,2.808-.414,4.038l7.434,9.156-7.434,9.162c-1.002,1.23-.828,3.036 .414,4.032 .522,.42 1.164,.63 1.794,.63 .828,0 1.644-.36 2.214-1.056l6.69-8.238 6.69,8.238c.564,.702 1.38,1.056 2.214,1.056 .636,0 1.278-.21 1.812-.63 1.224-.996 1.404-2.802 .414-4.032l-7.446-9.162 7.446-9.156c.99-1.23 .804-3.042-.414-4.038zm-22.794-7.542h79.29c2.952,0 5.358-2.394 5.358-5.376 0-2.94-2.406-5.352-5.358-5.352h-79.29c-2.958,0-5.352,2.4-5.352,5.352-.006,2.976 2.388,5.376 5.352,5.376zm79.284,39.834h-79.284c-2.958,0-5.352,2.406-5.352,5.37 0,2.94 2.394,5.364 5.352,5.364h79.29c2.952,0 5.358-2.412 5.358-5.364-.006-2.958-2.412-5.37-5.364-5.37z"/>
</svg>
