<svg width="96" xmlns="http://www.w3.org/2000/svg" height="96" viewBox="0 0 96 96" xmlns:xlink="http://www.w3.org/1999/xlink">
<path d="m93,36.87v10.968c-1.02,.27-1.932,.39-2.784,.39-.546,0-1.224-.078-1.992-.258-.816-.192-1.65-.414-2.592-.708-.906-.252-1.8-.48-2.628-.69-.828-.18-1.53-.276-2.082-.276-.276,0-.714,.066-1.314,.21-.606,.132-1.224,.324-1.872,.552-.654,.234-1.224,.45-1.752,.642-.372,.132-.648,.168-.894,.21v48.09h-2.604v-61.23h2.604v2.004c2.118-.846 4.11-1.296 5.976-1.296 .564,0 1.218,.096 2.01,.288 .786,.18 1.638,.39 2.55,.678 .936,.276 1.776,.528 2.592,.69 .768,.198 1.446,.288 1.992,.288 1.038,.006 1.956-.192 2.79-.552zm-90,28.518v30.12h20.976v-5.46h19.284v5.46h21.24v-30.12h-61.5zm29.196-19.374c-3.936,.378-7.386,1.818-10.284,4.308-2.928,2.562-4.836,5.73-5.736,9.534 0,0-2.808-.468-2.808,2.664h40.956c0-2.79-3.078-2.664-3.078-2.664-.84-3.804-2.736-6.972-5.724-9.534-2.892-2.49-6.324-3.924-10.296-4.308h-3.03z"/>
</svg>
