<svg width="96" xmlns="http://www.w3.org/2000/svg" height="96" viewBox="0 0 96 96" xmlns:xlink="http://www.w3.org/1999/xlink">
<path d="m18.018,91.986l-1.224-12.3c0-1.128 1.44-.126 3.258-.126 1.806,0 3.264-1.002 3.264,.126l-1.02,11.994c0,2.622-4.278,1.554-4.278,.306zm-5.232-40.032c-8.958-4.05-8.232-10.422-8.232-10.422-1.128,2.25 1.272,21.876 10.614,21.876 4.176,0 7.686-6.936-2.382-11.454zm-0-13.872c-8.958-4.038-8.232-10.41-8.232-10.41-1.128,2.244 1.272,21.876 10.614,21.876 4.176,0 7.686-6.93-2.382-11.466zm-0-13.452c-8.958-4.02-8.232-10.404-8.232-10.404-1.128,2.25 1.272,21.87 10.614,21.87 4.176-.006 7.686-6.918-2.382-11.466zm12.42,38.778c9.336,0 11.73-19.626 10.614-21.876 0,0 .726,6.372-8.244,10.422-10.056,4.518-6.558,11.454-2.37,11.454zm-12.42,2.748c-8.958-4.05-8.232-10.422-8.232-10.422-1.128,2.25 1.272,21.876 10.614,21.876 4.176,0 7.686-6.93-2.382-11.454zm12.42,11.454c9.336,0 11.73-19.626 10.614-21.876 0,0 .726,6.372-8.244,10.422-10.056,4.524-6.558,11.454-2.37,11.454zm0-28.062c9.336,0 11.73-19.632 10.614-21.876 0,0 .726,6.372-8.244,10.41-10.056,4.536-6.558,11.466-2.37,11.466zm0-13.458c9.336,0 11.73-19.62 10.614-21.87 0,0 .726,6.384-8.244,10.404-10.056,4.554-6.558,11.466-2.37,11.466zm-4.374-10.41c9.906,0-.546-21.12-.546-21.12-1.254,1.986-9.354,21.12 .546,21.12zm26.784,67.956l5.976-10.458c.474-1.008-1.266-.732-2.898-1.482-1.656-.768-2.544-2.286-3.012-1.26l-4.074,11.658c-.528,1.14 2.898,3.906 4.008,1.542zm8.106-40.05c-6.408-7.446-3.072-12.918-3.072-12.918-1.974,1.566-8.052,20.382 .402,24.318 3.792,1.758 9.894-3.042 2.67-11.4zm5.838-12.588c-6.408-7.428-3.072-12.9-3.072-12.9-1.974,1.56-8.064,20.376 .396,24.318 3.804,1.758 9.9-3.036 2.676-11.418zm5.67-12.186c-6.426-7.416-3.072-12.912-3.072-12.912-1.974,1.566-8.058,20.376 .402,24.318 3.798,1.746 9.894-3.036 2.67-11.406zm-5.064,40.41c8.466,3.918 18.906-12.858 18.834-15.378 0,0-2.022,6.09-11.862,5.976-11.034-.114-10.77,7.632-6.972,9.402zm-12.426-2.76c-6.42-7.44-3.084-12.906-3.084-12.906-1.968,1.56-8.052,20.376 .408,24.294 3.81,1.764 9.894-3.03 2.676-11.388zm6.438,15.63c8.46,3.936 18.906-12.858 18.84-15.372 0,0-2.028,6.09-11.862,5.976-11.028-.114-10.764,7.638-6.978,9.396zm11.832-25.446c8.466,3.93 18.906-12.87 18.834-15.372 0,0-2.022,6.084-11.856,5.976-11.04-.12-10.776,7.644-6.978,9.396zm5.664-12.21c8.466,3.942 18.9-12.846 18.828-15.366 0,0-2.034,6.108-11.856,5.976-11.034-.114-10.764,7.638-6.972,9.39zm.42-11.286c8.982,4.17 8.4-19.38 8.4-19.38-1.98,1.284-17.376,15.204-8.4,19.38z"/>
</svg>
