<svg width="96" xmlns="http://www.w3.org/2000/svg" height="96" viewBox="0 0 96 96" xmlns:xlink="http://www.w3.org/1999/xlink">
<path d="m85.977,51.54c-1.662,0-3.192,.918-3.972,2.388l-6.48,12.204-7.98-23.376c-.612-1.764-2.238-2.976-4.104-3.042-1.92-.054-3.582,1.032-4.308,2.748l-5.472,13.002-8.64-51.756c-.396-2.172-2.436-3.828-4.524-3.696-2.214,.048-4.062,1.5-4.362,3.696l-7.626,60.066-6.186-32.238c-.366-1.908-1.914-3.366-3.846-3.612-1.89-.252-3.798,.762-4.632,2.514l-10.122,21.096h-15.726v9h18.558c1.728,0 3.312-.996 4.062-2.556l5.436-11.346 8.778,45.72c.408,2.124 2.262,3.648 4.416,3.648 .036,0 .084,0 .12,0 2.202-.06 4.044-1.704 4.344-3.882l7.512-59.022 6.3,38.862c.354,1.956 1.956,3.45 3.93,3.666 1.998,.192 3.864-.894 4.638-2.73l6.756-16.05 7.524,22.032c.588,1.698 2.124,2.886 3.9,3.03 1.794,.102 3.492-.792 4.338-2.376l10.08-18.996h19.314v-9h-22.026z"/>
</svg>
