<svg width="96" xmlns="http://www.w3.org/2000/svg" height="96" viewBox="0 0 96 96" xmlns:xlink="http://www.w3.org/1999/xlink">
<path d="m71.028,65.193l17.976-18.072 2.838,2.808c1.338,1.344 1.338,3.492 0,4.812l-13.242,13.188c-1.32,1.32-3.492,1.32-4.83,0l-2.742-2.736zm-68.19,21.096c1.26,4.644 5.274,8.394 9.672,9.69l35.04-34.722-9.69-9.696-35.022,34.728zm66.114-27.492c.138,.318 .282,.618 .384,.924 .096,.258 .168,.492 .228,.696 .126,.468 .24,.912 .264,1.356 5.166-5.124 10.344-10.254 15.504-15.372 0,0-9.822-.546-12.84-12.864-.912-.912-1.854-1.83-2.76-2.754-12.696-12.684-26.094-17.196-38.664-16.068-.69,.054-2.076,.258-3.336,.438-2.232,.342-2.436,3.606-.006,3.63 1.134,.012 2.322,.024 2.874,.096 2.304,.312 4.536,.546 6.738,1.368 9.39,3.588 15.462,13.77 7.452,21.72-2.142,2.118-6.414,6.342-6.414,6.342l12.9,12.666c0,0 .924-1.11 1.494-1.602 2.58-2.124 7.872-5.61 13.23-3.492 .84,.324 1.494,.864 2.016,1.458 .252,.312 .504,.642 .714,1.008 .078,.156 .144,.3 .222,.45z"/>
</svg>
