<svg width="96" xmlns="http://www.w3.org/2000/svg" height="96" viewBox="0 0 96 96" xmlns:xlink="http://www.w3.org/1999/xlink">
<path d="m94.262,75.45c0-8.016-4.614-14.886-11.286-18.318v-7.41c0-1.644-1.344-2.988-2.988-2.988h-5.562v-4.71c.81-.234 1.554-.642 2.07-1.296 .642-.81 .912-1.794 .75-2.778l-.546-3.42c-.312-1.968-2.268-3.378-4.458-3-.684,.108-1.278,.426-1.812,.828l-3.654-2.274c0-.018 .012-.036 .018-.054 .264-.996 .162-2.034-.294-2.922-.474-.912-1.266-1.566-2.232-1.818l-3.348-.9c-1.908-.504-4.008,.792-4.566,2.85-.048,.186-.012,.378-.036,.576l-3.48,.552c-.906-1.872-3.144-2.79-4.938-1.968l-3.144,1.452c-1.752,.81-2.472,2.928-1.752,4.836l-2.622,2.712-4.278-2.988c-1.344-.942-3.222-.612-4.158,.738l-4.248,6.078c-7.434-1.008-15.15,1.98-19.746,8.55-6.216,8.892-4.38,20.928 3.858,27.714l2.334-3.342c-6.396-5.49-7.776-14.982-2.85-22.044 5.25-7.506 15.594-9.342 23.112-4.086 7.506,5.244 9.342,15.594 4.092,23.112-5.01,7.164-14.64,9.09-22.044,4.68l-2.334,3.342c9.252,5.688 21.42,3.33 27.72-5.694 4.596-6.57 4.752-14.844 1.248-21.468l4.254-6.084c.942-1.35 .606-3.222-.738-4.164l-4.476-3.126 2.118-2.196c.672,.552 1.488,.894 2.358,.894 .504,0 .996-.108 1.452-.318l3.15-1.452c1.182-.552 1.848-1.71 1.98-2.988l3.456-.546c.048,.102 .048,.21 .102,.312 .486,.834 1.248,1.428 2.142,1.662l3.348,.9c.288,.078 .594,.126 .894,.126 .936,0 1.8-.402 2.484-1.038l3.498,2.172c-.174,.528-.252,1.074-.168,1.626l.546,3.42c.234,1.458 1.374,2.55 2.838,2.892v4.65h-5.142c-1.644,0-2.994,1.344-2.994,2.988v7.41c-6.672,3.426-11.28,10.302-11.28,18.318 0,10.86 8.394,19.662 19.038,20.508v-4.08c-8.388-.828-14.964-7.83-14.964-16.428 0-9.162 7.428-16.596 16.596-16.596 9.162,0 16.596,7.428 16.596,16.596 0,8.748-6.798,15.846-15.384,16.476v4.08c10.848-.642 19.47-9.558 19.47-20.556zm-55.176-32.952c-.576,.828-1.71,1.032-2.532,.45-.816-.57-1.02-1.704-.444-2.532 .396-.57 1.056-.708 1.704-.624l1.668-2.394 1.272,.894-1.674,2.388c.306,.582 .402,1.248 .006,1.818zm11.292-10.764l-3.144,1.452c-.504,.234-1.092,.114-1.59-.222l.696-.72c.402-.414 .39-1.086-.024-1.482s-1.08-.39-1.482,.03l-.06,.066c.096-.528 .348-.99 .828-1.212l3.144-1.452c.192-.09 .402-.132 .624-.132 .492,0 .918,.276 1.278,.654l-.456,.072c-.606,.096-1.014,.66-.918,1.266 .084,.552 .552,.936 1.092,.936 .054,0 .114-.006 .174-.018l.552-.09c-.156,.354-.36,.69-.714,.852zm14.142-3.066c-.516-.33-1.2-.162-1.524,.36-.324,.516-.162,1.194 .354,1.518l.444,.276c-.33,.156-.69,.24-1.032,.144l-3.354-.894c-.222-.066-.354-.276-.528-.42l.81-.126c.606-.096 1.014-.66 .918-1.266-.096-.612-.636-1.056-1.266-.918l-.888,.138c.312-.702 .9-1.224 1.59-1.224 .126,0 .258,.012 .378,.048l3.348,.894c.414,.12 .768,.408 .984,.828 .126,.252 .066,.558 .078,.846l-.312-.204zm6.93,10.206l-.552-3.42c-.006-.06 .054-.12 .048-.174l.27,.162c.186,.12 .384,.174 .588,.174 .372,0 .732-.192 .942-.528 .324-.516 .162-1.194-.354-1.518 .06-.018 .096-.084 .162-.096 .12-.018 .24-.03 .354-.03 .936,0 1.71,.588 1.842,1.386l.552,3.42c.066,.426-.054,.87-.348,1.23-.126,.156-.36,.186-.522,.3v-.768c0-.582-.468-1.05-1.05-1.05s-1.05,.468-1.05,1.05v.948c-.456-.228-.804-.594-.882-1.086zm2.142,16.248c-1.002,0-1.818-.816-1.818-1.812 0-.702 .456-1.194 1.038-1.5v-2.916h1.554v2.916c.582,.306 1.038,.798 1.038,1.5 0,1.002-.81,1.812-1.812,1.812z"/>
</svg>
