<svg width="96" xmlns="http://www.w3.org/2000/svg" height="96" viewBox="0 0 96 96" xmlns:xlink="http://www.w3.org/1999/xlink">
<path d="m56.43,78c-20.154,0-36.504,4.032-36.504,9s16.35,9 36.504,9 36.492-4.032 36.492-9-16.338-9-36.492-9zm.528,13.134c-10.77,0-19.476-2.154-19.476-4.806 0-2.658 8.718-4.806 19.476-4.806s19.464,2.136 19.464,4.806c.012,2.652-8.706,4.806-19.464,4.806zm35.55-45.678c-.57-.528-1.446-.528-2.016,0l-4.974,5.082h-13.38v-6.102h11.376c1.086,0 2.142-.096 3.18-.288 1.038-.204 1.89-.738 2.598-1.632 .6-.69 .888-1.662 .888-2.97 0-.9-.27-2.022-.75-3.402l-4.308-10.254c-1.374-3.15-3.168-5.358-5.406-6.588-2.22-1.26-4.584-1.866-7.056-1.866h-17.202v-8.154h5.04c.3,.504 .648,.822 1.056,.96 .378,.15 .726,.222 1.026,.222h24.21c.786,0 1.374-.222 1.764-.66s.642-.96 .738-1.566c0-.504-.186-.996-.582-1.476-.408-.504-1.05-.762-1.92-.762h-23.316c-1.104,0-1.8,.138-2.142,.372-.348,.258-.624,.576-.834,.978h-13.8c-.186-.204-.408-.456-.66-.756-.234-.3-.708-.438-1.392-.438h-24.504c-.378,0-.852,.168-1.404,.522-.534,.366-.804,.912-.804,1.716 0,.768 .27,1.374 .804,1.764 .57,.408 .996,.6 1.278,.6h24.63c.18,0 .504-.084 .954-.216 .438-.138 .804-.522 1.116-1.128h5.196v8.028h-31.008c-.684-1.686-1.818-3.114-3.348-4.242-1.542-1.128-3.294-1.698-5.274-1.698-2.574,0-4.758,.906-6.606,2.742-1.854,1.83-2.742,4.032-2.742,6.618 0,2.568 .888,4.74 2.742,6.522 1.848,1.806 4.032,2.676 6.606,2.676 2.958,0 5.292-1.086 6.96-3.276l20.19,7.578 2.652,6.66c.39,.804 .912,1.56 1.56,2.322 .642,.738 2.016,1.104 4.11,1.104h8.976v6.102h-14.628c-.792,0-1.428,.624-1.428,1.41s.636,1.416 1.428,1.416h44.118c.432,0 .81-.234 1.044-.57l5.274-5.328c.528-.558 .528-1.458-.03-2.022zm-16.434-23.862c1.278,.372 2.394,1.008 3.33,1.842 .942,.858 1.824,2.154 2.628,3.936 .186,.6 .432,1.248 .738,1.938 .288,.672 .588,1.41 .876,2.22h-7.566v-9.936h-.006zm-65.508,1.632c.726,.492 1.5,.882 2.304,1.164l2.976,1.194c-1.104,.792-2.304,1.176-3.576,1.176-1.686,0-3.126-.564-4.332-1.692-1.17-1.128-1.764-2.538-1.764-4.224 0-1.698 .594-3.108 1.764-4.236 1.194-1.128 2.628-1.698 4.332-1.698 2.076,0 3.696,.84 4.884,2.526h-4.146c-.978,0-1.842,.282-2.52,.888-.69,.582-1.038,1.416-1.038,2.52 .012,1.104 .372,1.878 1.116,2.382zm55.116-2.076h6.678v10.242h-6.678v-10.242zm-10.236,.144h6.546v10.242h-6.546v-10.242zm3.618,23.142h10.71v6.102h-10.71v-6.102z"/>
</svg>
