<svg width="96" xmlns="http://www.w3.org/2000/svg" height="96" viewBox="0 0 96 96" xmlns:xlink="http://www.w3.org/1999/xlink">
<path d="m92.508,88.074c-.57-.534-1.446-.534-2.016,0l-4.974,5.082h-13.38v-6.102h11.376c1.086,0 2.142-.096 3.18-.288 1.038-.204 1.89-.738 2.598-1.626 .6-.702 .888-1.668 .888-2.976 0-.9-.27-2.016-.75-3.402l-4.308-10.254c-1.374-3.144-3.168-5.364-5.406-6.594-2.22-1.254-4.584-1.86-7.056-1.86h-17.202v-8.16h5.04c.3,.504 .648,.828 1.056,.96 .378,.156 .726,.222 1.026,.222h24.21c.786,0 1.374-.222 1.764-.654 .39-.438 .642-.96 .738-1.56 0-.504-.186-.996-.582-1.488-.408-.504-1.05-.75-1.92-.75h-23.316c-1.104,0-1.8,.132-2.142,.372-.348,.258-.624,.57-.834,.978h-13.8c-.186-.204-.408-.456-.66-.756-.234-.3-.708-.438-1.392-.438h-24.504c-.378,0-.852,.162-1.404,.522-.534,.36-.804,.906-.804,1.716 0,.768 .27,1.38 .804,1.764 .57,.402 .996,.606 1.278,.606h24.63c.18,0 .504-.09 .954-.222 .438-.138 .804-.516 1.116-1.128h5.196v8.022h-31.008c-.684-1.68-1.818-3.114-3.348-4.236-1.542-1.134-3.294-1.698-5.274-1.698-2.574,0-4.758,.906-6.606,2.742-1.854,1.83-2.742,4.032-2.742,6.618 0,2.568 .888,4.74 2.742,6.522 1.848,1.8 4.032,2.67 6.606,2.67 2.958,0 5.292-1.086 6.96-3.27l20.19,7.578 2.652,6.66c.39,.798 .912,1.56 1.56,2.322 .642,.738 2.016,1.104 4.11,1.104h8.976v6.096h-14.628c-.792,0-1.428,.63-1.428,1.416s.636,1.416 1.428,1.416h44.118c.432,0 .81-.234 1.044-.576l5.274-5.322c.528-.564 .528-1.458-.03-2.028zm-16.434-23.856c1.278,.372 2.394,1.008 3.33,1.842 .942,.852 1.824,2.154 2.628,3.936 .186,.6 .432,1.248 .738,1.938 .288,.666 .588,1.41 .876,2.214h-7.566v-9.93h-.006zm-65.508,1.632c.726,.486 1.5,.882 2.304,1.164l2.976,1.194c-1.104,.792-2.304,1.176-3.576,1.176-1.686,0-3.126-.57-4.332-1.698-1.17-1.128-1.764-2.532-1.764-4.218 0-1.698 .594-3.108 1.764-4.236 1.194-1.128 2.628-1.698 4.332-1.698 2.076,0 3.696,.84 4.884,2.52h-4.146c-.978,0-1.842,.282-2.52,.894-.69,.582-1.038,1.416-1.038,2.52 .012,1.092 .372,1.878 1.116,2.382zm55.116-2.082h6.678v10.242h-6.678v-10.242zm-10.236,.138h6.546v10.242h-6.546v-10.242zm3.618,23.148h10.71v6.102h-10.71v-6.102z"/>
</svg>
