<svg width="96" xmlns="http://www.w3.org/2000/svg" height="96" viewBox="0 0 96 96" xmlns:xlink="http://www.w3.org/1999/xlink">
<path d="m83.548,82.547c0,0-.048,2.058-1.134,3.252-1.092,1.2-5.004,3.708-5.004,3.708l-12.684-9.882 .42-19.068c1.47-1.29 3.138-2.514 5.328-2.97 3.354-.684 18.348-3.636 25.494-8.496 0,0-7.374-7.422-7.692-9.306-12.006-26.856-25.686-29.508-45.33-26.718-19.5,2.772-42.894,12.012-35.622,58.548 0,0 4.584,7.5 12.414,8.796 2.466,.402 5.52,.57 8.628,.618l32.382,3.81 11.058,11.202c4.686-.072 17.748-2.226 13.494-9.624-.69-1.23-1.242-2.556-1.752-3.87zm-46.722-47.724l6.66,14.226-1.374-14.718 4.086-.378 2.49,26.61-4.092,.378-6.618-14.118 1.368,14.604-4.08,.384-2.49-26.61 4.05-.378zm-16.871,25.194c-.534-.948-.936-1.932-1.2-2.976-.426-1.662-.702-3.144-.828-4.458l-1.482-15.852 4.326-.402 1.518,16.23c.138,1.44 .45,2.556 .96,3.342 .492,.774 1.128,1.128 1.878,1.062 .738-.078 1.29-.534 1.626-1.374 .36-.846 .462-2.01 .324-3.48l-1.518-16.23 4.326-.408 1.488,15.864c.144,1.578 .156,3.072 .024,4.488-.126,1.416-.414,2.682-.876,3.78-.444,1.098-.954,1.878-1.518,2.364-.792,.672-1.77,1.068-2.952,1.17-.678,.066-1.44,.054-2.256-.06-.834-.114-1.542-.402-2.13-.888s-1.17-1.212-1.71-2.172zm27.629,18.522c2.532-1.722 4.842-4.146 6.156-5.172 1.236-.948 3.606-4.056 5.724-6.756-.126,5.808-.324,13.476-.324,13.476l-11.556-1.548z"/>
</svg>
