<svg width="96" xmlns="http://www.w3.org/2000/svg" height="96" viewBox="0 0 96 96" xmlns:xlink="http://www.w3.org/1999/xlink">
<path d="m62.841,51.276l-28.626-14.226-28.626,14.226-2.592-5.214 31.182-15.504v-.036h.06v.036l31.182,15.504-2.58,5.214zm-36.852,41.61v-18.186h16.452v18.186h8.418v-41.616h-8.418v16.374h-16.452v-16.374h-8.418v41.616h8.418zm64.122-57.834c-.57,0-1.278-.096-2.076-.294-.852-.174-1.716-.432-2.694-.726-.942-.294-1.836-.516-2.646-.702-.828-.198-1.506-.306-2.094-.306-1.944,0-4.02,.48-6.222,1.35v-2.076h-2.7v63.702h2.7v-50.04c.258-.036 .546-.072 .936-.21 .546-.21 1.134-.432 1.824-.678 .666-.234 1.314-.42 1.944-.564 .624-.15 1.08-.222 1.368-.222 .57,0 1.302,.096 2.16,.282 .864,.222 1.788,.456 2.73,.726 .978,.306 1.848,.528 2.694,.738 .798,.186 1.506,.258 2.076,.258 .882,0 1.836-.12 2.892-.396v-11.412c-.87,.372-1.818,.57-2.892,.57z"/>
</svg>
