<svg width="96" xmlns="http://www.w3.org/2000/svg" height="96" viewBox="0 0 96 96" xmlns:xlink="http://www.w3.org/1999/xlink">
<path d="m59.306,71.412c-.012,2.892-4.866,5.25-10.872,5.25-6,0-10.848-2.358-10.866-5.25 .018-2.88 4.866-5.238 10.866-5.25 6.012,.012 10.86,2.352 10.872,5.25zm11.634,0c-.03,6.012-10.074,10.866-22.506,10.866-12.414,0-22.476-4.854-22.494-10.866 .018-6 10.08-10.854 22.494-10.866 12.438,.012 22.482,4.866 22.506,10.866zm-6.996,0c0-4.128-6.93-7.488-15.51-7.488-8.562,0-15.51,3.366-15.51,7.488 0,4.146 6.948,7.488 15.51,7.488 8.574,0 15.51-3.342 15.51-7.488zm29.106,1.23c0,12.912-20.142,23.37-45,23.37-24.852,0-45-10.452-45-23.37 0-12.888 20.148-23.346 45-23.346 24.858,0 45,10.452 45,23.346zm-6.6-1.23c0-10.116-17.016-18.342-38.016-18.342-20.988,0-38.004,8.226-38.004,18.342 0,10.134 17.016,18.354 38.004,18.354 21-.006 38.016-8.232 38.016-18.354zm-4.662,0c-.03,8.88-14.928,16.092-33.36,16.116-18.408-.024-33.318-7.218-33.366-16.116 .048-8.88 14.946-16.092 33.366-16.104 18.432,.012 33.33,7.206 33.36,16.104zm-6.192,0c0-7.23-12.162-13.116-27.156-13.116-15,0-27.144,5.874-27.144,13.116s12.144,13.116 27.144,13.116c14.988-.006 27.156-5.874 27.156-13.116zm-14.814-38.274c-8.094,6.912 3.102,13.218 3.102,13.218s-3.876-4.326 2.04-9.33c8.94-7.512-.09-13.626-.09-13.626s2.256,3.504-5.052,9.738zm-11.172,1.782c0,0 10.626-2.346 5.1-12.624-3.648-6.822 1.53-9.408 1.53-9.408s-12.726,1.746-7.746,11.154c4.494,8.472 1.116,10.878 1.116,10.878zm-15.78-1.068c-6.012,8.79 6.45,11.94 6.45,11.94s-4.872-3.162-.474-9.528c6.642-9.612-3.666-13.128-3.666-13.128s3.09,2.772-2.31,10.716z"/>
</svg>
