<svg width="96" xmlns="http://www.w3.org/2000/svg" height="96" viewBox="0 0 96 96" xmlns:xlink="http://www.w3.org/1999/xlink">
<path d="m108,96h-120v-11.994c1.908-.39 7.824-3.906 12-12.006 5.478-10.626 12-3 12-3-5.184,.456-3.93,6.144-3,9 1.116,3.42 4.104,5.544 6,6.006h2.994c1.926-.39 4.836-3.906 9.006-12.006 5.484-10.626 11.994-3 11.994-3-5.172,.456-3.936,6.144-2.994,9 1.11,3.42 4.098,5.544 6,6.006h3c1.92-.39 4.83-3.906 9-12.006 5.484-10.626 12-3 12-3-5.172,.456-3.936,6.144-3,9 1.116,3.42 4.098,5.544 6,6.006h3c1.908-.39 7.854-3.906 12-12.006 5.502-10.626 12-3 12-3-5.166,.456-3.936,6.144-3,9 1.116,3.42 4.098,5.544 6.006,6.006h8.994v11.994zm-18-48v-33l3,3 3-3-28.494-24-28.512,24 3.006,3 3-3v33h-3c-1.902-.456-4.89-2.58-6-6-.942-2.862-2.178-8.544 2.994-9 0,0-6.51-7.626-11.994,3-4.17,8.1-7.08,11.616-9.006,12h-2.994c-1.896-.456-4.884-2.58-6-6-.93-2.862-2.184-8.544 3-9 0,0-6.522-7.626-12,3-4.176,8.1-10.092,11.616-12,12v18c1.908-.384 7.824-3.894 12-12 5.478-10.626 12-3 12-3-5.184,.456-3.93,6.138-3,9 1.116,3.42 4.104,5.55 6,6h2.994c1.926-.384 4.836-3.894 9.006-12 5.484-10.626 11.994-3 11.994-3-5.172,.456-3.936,6.138-2.994,9 1.11,3.42 4.098,5.55 6,6h3c1.92-.384 4.83-3.894 9-12 5.484-10.626 12-3 12-3-5.172,.456-3.936,6.138-3,9 1.116,3.42 4.098,5.55 6,6h3c1.908-.384 7.854-3.894 12-12 5.502-10.626 12-3 12-3-5.166,.456-3.936,6.138-3,9 1.116,3.42 4.098,5.55 6.006,6h8.994v-18h-18z"/>
</svg>
