<svg width="96" xmlns="http://www.w3.org/2000/svg" height="96" viewBox="0 0 96 96" xmlns:xlink="http://www.w3.org/1999/xlink">
<path d="m76.635,49.65c-1.542,2.838-2.658,4.596-3.354,5.286-2.736,3.516-6.162,6.378-10.266,8.622-3.606,1.968-7.41,3.102-11.442,3.354-4.014,.252-7.926-.192-11.694-1.344-3.762-1.176-7.218-2.988-10.344-5.478-3.126-2.496-5.628-5.586-7.512-9.276-1.974-3.786-3.126-7.704-3.48-11.784-.336-4.086 .066-7.992 1.23-11.706 1.158-3.738 3.024-7.17 5.592-10.308 2.568-3.126 5.73-5.73 9.504-7.794 5.316-2.754 11.604-3.732 18.888-2.964l-9.636,2.712c-3.342,1.788-6.126,4.068-8.346,6.816-2.232,2.748-3.834,5.76-4.824,9.006-.984,3.27-1.332,6.642-1.032,10.122 .294,3.462 1.302,6.846 3.018,10.104 1.716,3.27 3.9,6.018 6.552,8.256 2.646,2.226 5.592,3.828 8.808,4.824 3.21,.978 6.528,1.344 9.954,1.092 3.42-.252 6.762-1.242 10.032-2.964l8.352-6.576zm-7.2,46.35h-47.028v-23.046h47.028v23.046zm.522-66.06l3.078,8.64-7.332-5.154-7.314,5.154 2.952-8.64-7.446-5.268h9.126l2.682-8.124 3.084,8.124h9.006l-7.836,5.268z"/>
</svg>
