<svg width="96" xmlns="http://www.w3.org/2000/svg" height="96" viewBox="0 0 96 96" xmlns:xlink="http://www.w3.org/1999/xlink">
<path d="m89.727,22.416c-2.616,.246-13.602-1.794-17.592-2.928s-7.536-8.142-14.658-5.862c-7.128,2.274-12.744-2.94-17.592-2.94-3.36,0-5.124-.846-6.69-1.746-.108-1.08-.51-1.944-1.374-2.448-.564-.33-1.176-.492-1.836-.492-.99,0-1.968,.42-2.892,1.02l-19.458,3.69v-.024h-2.934v85.314h2.934v-80.334l9.846,12.588c.09,.186 .252,.318 .372,.48l.36,.456 .042-.048c.144,.138 .216,.318 .396,.42 .456,.258 .954,.384 1.482,.384h.006c.576,0 1.182-.222 1.812-.552 2.91,1.008 7.206,2.016 9.138,1.818 2.712-.294 6.522,1.08 8.802,2.928s12.378-.576 14.658,0 9.018,4.584 11.73,5.862c2.7,1.29 13.23,.432 14.658,0 1.422-.42 6.75-10.362 7.464-11.718s2.898-6.012 1.326-5.868zm-68.724-8.016c-.894,1.674-2.79,5.556-3.576,9.036l-7.89-10.104 13.848-2.628c-1.29,1.716-2.184,3.324-2.382,3.696zm2.58,1.374c1.38-2.592 3.21-4.842 4.71-6l1.962-.366c.114,1.302-.93,4.944-3.378,9.366-3.258,5.862-5.766,8.112-6.666,8.226l-.234-.306c-.3-1.29 .81-5.652 3.606-10.92z"/>
</svg>
