<svg width="96" xmlns="http://www.w3.org/2000/svg" height="96" viewBox="0 0 96 96" xmlns:xlink="http://www.w3.org/1999/xlink">
<path d="m78.471,58.248c-13.002,15.612-26.502,6.744-30.9,3.114 3.396-3.708 4.95-5.724 10.848-10.584 6.096,2.49 16.998-2.238 16.998-2.238-7.338,1.92-12.942,.834-14.934,.306 .426-.336 7.662-5.574 9.852-8.604 6.06,.186 11.064-5.016 11.064-5.016-.168-.138-3.228,2.208-9.018,2.49 6-8.814 5.724-16.92 5.724-16.92s-2.214,7.398-7.848,15.516c-1.158-5.76 .312-9.678 .144-9.81 0,0-3.924,6.468-2.112,12.414-3.084,3.522-7.944,6.564-9.732,7.926-.144-.372-2.016-6.516-.198-15.594 0,0-4.938,11.412-1.848,17.334-3.786,2.91-4.794,3.624-11.118,10.692-14.316-10.716-2.022-29.88 8.7-34.35 11.028-4.602 15.618-3.672 25.728-20.214 11.064,16.404 9.252,40.812-1.35,53.538zm-61.098-1.662c6.51,2.976 11.028,7.02 14.13,10.884 .036-.114 .084-.204 .12-.336 5.892-21.216-26.508-18.264-26.508-18.264s4.476,6.888 6.972,14.4c2.886,8.706 14.682,15.942 18.918,5.604-3.06-4.116-7.434-8.622-13.632-12.288zm30.198,4.776c-.036-.048-2.238-2.016-2.202-2.064-5.556,6.12-7.722,11.346-8.25,18.006-.84-2.292-2.52-5.958-5.616-9.834-.144,.51-.318,.966-.498,1.404 3.294,4.434 4.566,10.476 5.316,12.456 0,5.532 .606,8.298 1.092,12.912 0,0 2.976,1.758 3.804-1.524-1.674-2.772-3.324-21.888 6.354-31.356z"/>
</svg>
