<svg width="96" xmlns="http://www.w3.org/2000/svg" height="96" viewBox="0 0 96 96" xmlns:xlink="http://www.w3.org/1999/xlink">
<path d="m3,39.432h17.67c-1.182,1.572-1.884,3.492-1.884,5.616h-8.706l-7.08-1.794v-3.822zm90-10.008v15.624h-7.494c0-.222-.036-.444-.048-.654-.078-1.29-.432-2.508-.996-3.588-1.554-3.036-4.692-5.124-8.334-5.124-5.178,0-9.378,4.194-9.378,9.366h-6.612c.528,3.54 .69,7.104-.078,9.87-1.128,4.044-4.686,7.44-8.13,10.734-3.018,2.88-6.138,5.862-7.128,8.892l-3.282-1.068c1.26-3.87 4.698-7.146 8.028-10.326 3.108-2.976 6.318-6.048 7.188-9.162 .666-2.388 .468-5.658-.066-8.94h-19.14c0-2.124-.702-4.044-1.884-5.616h19.836c-.402-1.56-.822-2.988-1.182-4.134-1.968,1.23-4.278,1.98-6.756,1.98h-31.722c-7.05,0-12.816-5.766-12.816-12.822v-4.71c0-7.056 5.766-12.822 12.816-12.822h31.722c7.05,0 12.816,5.766 12.816,12.822v4.71c0,3.222-1.242,6.138-3.216,8.388 .492,1.488 1.23,3.87 1.896,6.588h4.548v-32.508h15.672v3.75l4.986,15 8.754,3.75zm-12.504-3.75l-3.738-11.25h-8.76v11.25h12.498zm-45.462,19.374c0,3.81-3.078,6.876-6.87,6.876-3.804,0-6.888-3.072-6.888-6.876 0-3.786 3.09-6.87 6.888-6.87 3.792,0 6.87,3.084 6.87,6.87zm-3.12,0c0-2.064-1.686-3.738-3.75-3.738-2.082,0-3.768,1.674-3.768,3.738 0,2.076 1.686,3.75 3.768,3.75 2.064,0 3.75-1.674 3.75-3.75zm51.096,0c0,3.81-3.09,6.876-6.876,6.876-3.804,0-6.888-3.072-6.888-6.876 0-3.786 3.09-6.87 6.888-6.87 3.786,0 6.876,3.084 6.876,6.87zm-3.132,0c0-2.064-1.68-3.738-3.75-3.738s-3.756,1.674-3.756,3.738c0,2.076 1.686,3.75 3.756,3.75s3.75-1.674 3.75-3.75zm-44.052,50.142l.042-.12c.24-.642-.084-1.362-.726-1.596-.636-.246-1.362,.084-1.602,.726l-.042,.12c-.246,.642 .084,1.362 .726,1.596 .138,.06 .288,.084 .432,.084 .51,0 .984-.306 1.17-.81zm1.356-3.606l.048-.12c.234-.642-.096-1.362-.738-1.596-.636-.234-1.362,.096-1.596,.738l-.048,.12c-.234,.642 .096,1.362 .738,1.596 .138,.06 .288,.084 .426,.084 .51-.006 .984-.318 1.17-.822zm1.356-3.6l.042-.12c.24-.63-.084-1.362-.726-1.596-.636-.246-1.362,.084-1.602,.726l-.042,.12c-.246,.642 .084,1.362 .726,1.596 .138,.06 .288,.084 .432,.084 .504,0 .978-.306 1.17-.81zm1.35-3.6l.048-.12c.234-.642-.096-1.362-.738-1.608-.636-.234-1.356,.096-1.596,.738l-.048,.12c-.234,.642 .096,1.362 .738,1.596 .138,.06 .288,.084 .426,.084 .51,0 .984-.318 1.17-.81zm1.356-3.594l.042-.12c.24-.642-.084-1.362-.726-1.608-.636-.234-1.362,.084-1.602,.726l-.042,.12c-.246,.642 .084,1.362 .726,1.608 .138,.048 .288,.084 .432,.084 .504,0 .984-.318 1.17-.81zm1.368-3.66c.246-.642-.078-1.362-.72-1.608-.636-.246-1.362,.084-1.602,.714l-.024,.06c-.246,.642 .09,1.338 .732,1.584 .132,.048 .282,.072 .42,.072 .516,0 1.008-.318 1.194-.822zm2.196,17.16v-.126c0-.678-.558-1.242-1.242-1.242s-1.242,.564-1.242,1.242v.126c0,.69 .558,1.242 1.242,1.242s1.242-.552 1.242-1.242zm0-4.068v-.138c0-.678-.558-1.242-1.242-1.242s-1.242,.564-1.242,1.242v.138c0,.678 .558,1.242 1.242,1.242s1.242-.564 1.242-1.242zm0-4.08v-.126c0-.69-.558-1.254-1.242-1.254s-1.242,.564-1.242,1.254v.126c0,.678 .558,1.242 1.242,1.242s1.242-.558 1.242-1.242zm0-4.134c0-.69-.558-1.242-1.242-1.242s-1.242,.552-1.242,1.242v.06c0,.69 .558,1.206 1.242,1.206s1.242-.588 1.242-1.266zm-17.196,8.118c.468-.504 .444-1.29-.054-1.758s-1.29-.444-1.758,.048l-.078,.084c-.474,.504-.408,1.242 .09,1.722 .228,.21 .528,.318 .834,.318 .354,0 .708-.144 .966-.414zm2.436-2.574c.474-.504 .45-1.29-.048-1.758-.504-.48-1.29-.456-1.758,.048l-.084,.084c-.468,.504-.402,1.242 .096,1.71 .228,.222 .528,.33 .828,.33 .354-.006 .714-.144 .966-.414zm2.436-2.592c.468-.492 .444-1.278-.054-1.758-.498-.468-1.284-.444-1.758,.06l-.078,.084c-.468,.492-.408,1.242 .09,1.71 .228,.222 .528,.33 .834,.33 .348-.006 .708-.156 .966-.426zm2.43-2.58c.474-.492 .45-1.29-.048-1.758-.504-.468-1.29-.444-1.758,.06l-.084,.084c-.468,.492-.402,1.242 .096,1.71 .228,.222 .528,.318 .828,.318 .36,0 .714-.144 .966-.414zm2.406-2.55c.468-.504 .438-1.29-.072-1.758-.498-.456-1.29-.432-1.752,.072l-.042,.048c-.468,.504-.414,1.278 .09,1.734 .234,.222 .534,.318 .834,.318 .348-.006 .696-.144 .942-.414z"/>
</svg>
