<svg width="96" xmlns="http://www.w3.org/2000/svg" height="96" viewBox="0 0 96 96" xmlns:xlink="http://www.w3.org/1999/xlink">
<path d="m91.757,44.834l-.018-.234-.072-.234c-1.902-4.572-8.556-5.79-16.674-6.06-8.544,.372-15.942,1.488-16.914,7.08v8.694c.246,1.44 .936,2.592 1.956,3.492v32.13c.984,5.178 7.374,5.94 14.742,6.318 7.338-.366 13.746-1.134 14.7-6.318l.012-31.818c1.254-.96 2.13-2.178 2.412-3.822l-.144-9.228zm-17.106-2.868c.126,0 .234,0 .36,.012 3.72,0 7.128,.504 9.552,1.266 1.536,.444 2.406,1.032 2.976,1.5-.594,.456-1.542,1.02-2.928,1.416-2.436,.774-5.826,1.29-9.564,1.29-3.996,0-7.614-.612-10.086-1.44-1.176-.396-2.088-.876-2.616-1.314 1.602-1.326 6.576-2.73 12.306-2.73zm11.19,47.754c0,0 .036,.024-.36,.342-1.224,1.092-5.652,2.376-10.704,2.31-3.396,.012-6.468-.492-8.52-1.218-1.038-.33-1.812-.762-2.202-1.092-.372-.33-.294-.342-.36-.342v-6.432c4.848,1.908 10.944,1.62 10.944,1.62v-16.854c-5.076,0-8.916-1.452-10.944-2.424v-6.036c3.054,1.02 7.032,1.38 11.304,1.56 4.08-.162 7.866-.516 10.842-1.428v29.994zm1.884-35.016c-1.548,1.38-6.774,2.838-12.72,2.802-3.996,0-7.602-.576-10.086-1.44-1.23-.42-2.148-.924-2.664-1.362-.534-.444-.534-.63-.534-.63v-5.556c3.15,1.734 7.944,2.346 13.32,2.568 5.334-.162 9.996-.774 13.128-2.436l.09,5.436c-.006,.006-.018,.186-.534,.618zm-41.646-36.444h-15.576v-8.754h5.394c.96,0 1.746-.774 1.746-1.734 0-.948-.786-1.734-1.746-1.734h-19.818c-.96,0-1.734,.786-1.734,1.734 0,.96 .774,1.734 1.734,1.734h5.394v8.754h-15.564c-.936,0-1.71,.774-1.71,1.71s.78,1.698 1.71,1.698h12.27v47.124h4.182v4.032c0,0-.27,1.218 1.884,1.854v19.626c0,.96 .774,1.734 1.734,1.734 .954,0 1.734-.774 1.734-1.734v-19.626c2.148-.63 1.878-1.854 1.878-1.854v-4.032h4.17v-47.124h12.282c.936,0 1.698-.762 1.698-1.698 .036-.936-.726-1.71-1.662-1.71zm-15.516,26.34h-9.126v-22.932h9.126v22.932z"/>
</svg>
