<svg width="96" xmlns="http://www.w3.org/2000/svg" height="96" viewBox="0 0 96 96" xmlns:xlink="http://www.w3.org/1999/xlink">
<path d="m65.32,63.492v4.938c0,8.43-6.162,15.414-14.214,16.806v4.962h4.362v5.808h-14.52v-5.808h4.362v-4.962c-8.052-1.386-14.202-8.376-14.202-16.806v-4.938c0-1.608 1.302-2.904 2.904-2.904s2.904,1.302 2.904,2.904v4.938c0,6.228 5.064,11.292 11.292,11.292 6.234,0 11.304-5.064 11.304-11.292v-4.938c0-1.608 1.302-2.904 2.904-2.904s2.904,1.302 2.904,2.904zm-17.118-25.176c-4.806,0-8.706,3.888-8.706,8.718v19.98c0,4.806 3.9,8.712 8.706,8.712 4.818,0 8.718-3.906 8.718-8.712v-19.98c0-4.83-3.9-8.718-8.718-8.718zm10.74-5.31c0-.282-.054-.546-.15-.804-1.782-4.284-5.916-7.068-10.536-7.098h-.174c-4.626-.036-8.784,2.676-10.626,6.936-.444,1.05 .036,2.256 1.068,2.706 1.056,.438 2.274-.036 2.718-1.074 1.17-2.73 3.87-4.47 6.822-4.452h.18c2.946,.024 5.61,1.824 6.756,4.548 .408,1.05 1.626,1.554 2.676,1.11 .786-.318 1.254-1.074 1.266-1.872zm4.674-6.102c.612-.39 .96-1.056 .966-1.74 0-.372-.108-.762-.324-1.098-3.444-5.544-9.396-8.898-15.936-8.934h-.162c-6.54-.06-12.54,3.204-16.068,8.694-.618,.954-.354,2.232 .606,2.844 .954,.624 2.232,.354 2.856-.612 2.778-4.302 7.464-6.84 12.576-6.81h.168c5.118,.042 9.78,2.652 12.474,6.984 .594,.978 1.872,1.266 2.844,.672zm7.992-7.578c-4.92-8.268-13.602-13.254-23.208-13.32h-.18c-9.606-.072-18.36,4.788-23.412,12.99-.6,.966-.3,2.232 .678,2.844 .972,.594 2.244,.282 2.838-.678 4.278-6.966 11.718-11.1 19.884-11.04h.162c8.142,.078 15.528,4.308 19.698,11.328 .588,.972 1.854,1.308 2.838,.714 .642-.39 1.008-1.068 1.008-1.764 0-.366-.09-.72-.306-1.074z"/>
</svg>
