<svg width="96" xmlns="http://www.w3.org/2000/svg" height="96" viewBox="0 0 96 96" xmlns:xlink="http://www.w3.org/1999/xlink">
<path d="m80.194,16.423c0-.492-.438-.87-1.314-1.104l-1.872-.666c-2.118-.81-3.414-1.206-3.906-1.206-.078,0-.438,.084-1.128,.282-.684,.18-1.734,.51-3.168,1.02-.126,.054-.93,.222-2.43,.504-1.488,.282-3.738,.732-6.726,1.362l-29.622-10.56c-.06-.06-.27-.09-.642-.09-1.056,0-1.962,.498-2.718,1.494l18.876,11.574-6.36,1.224-5.508-4.374-1.5,.282v3.456l-6.36-2.43-1.212,.75 5.61,4.944v.27c0,.87 .594,1.308 1.77,1.308l2.826,3.456 1.386-.462 .468-2.52h14.754l3.096,2.334v7.476h2.796l5.706-12.342c1.914-.306 3.948-.702 6.072-1.164 2.124-.48 4.38-.96 6.822-1.446 .432-.186 .888-.426 1.392-.708 .504-.276 .972-.576 1.41-.882 .426-.306 .78-.624 1.062-.936 .282-.312 .42-.594 .42-.846zm-11.316,63.726h-.81v-2.082c0-3.774-.222-7.248-.69-10.41-.012-.048-.018-.096-.036-.144v-21h-1.248v-4.878h-1.668v4.878h-1.26v14.334c-.294-.192-.6-.372-.924-.552v-14.664c0-1.2-5.706-4.908-19.386-4.908-13.698,0-19.248,3.714-19.248,4.908v14.778c-2.652,1.47-4.29,3.882-4.914,7.248-.468,3.156-.69,6.63-.69,10.41v2.082h-.81c-.852,0-1.272,1.152-1.272,3.456 0,2.238 .42,3.36 1.272,3.36h5.316v1.032c0,1.548 .066,2.82 .174,3.81 .114,1.002 .252,1.812 .408,2.43 .678,1.152 1.956,1.734 3.81,1.734 1.764,0 3.006-.576 3.702-1.734 .444-.924 .684-2.778 .684-5.532v-1.74h23.49v1.74c0,2.754 .234,4.608 .696,5.532 .69,1.152 1.926,1.734 3.696,1.734 1.848,0 3.126-.576 3.816-1.734 .144-.618 .294-1.428 .402-2.43 .114-.996 .168-2.262 .168-3.81v-1.032h5.322c.846,0 1.272-1.122 1.272-3.36 0-2.304-.432-3.456-1.272-3.456zm-41.064-4.134c-1.908,0-3.456-1.548-3.456-3.456s1.548-3.45 3.456-3.45c1.896,0 3.45,1.548 3.45,3.45s-1.548,3.456-3.45,3.456zm2.1-15.414c-1.188,0-2.172-.972-2.172-2.172v-4.908c0-1.212 .876-2.274 2.172-2.874 0,0 5.298-1.818 13.116-1.818 7.812,0 13.134,1.818 13.134,1.818 1.71,.852 2.16,2.316 2.16,3.522v4.26c0,1.206-.966,2.172-2.16,2.172h-26.25zm22.206,15.948h-18.18c-.336,0-.618-.276-.618-.618s.282-.612 .618-.612h18.18c.336,0 .612,.27 .612,.612-.006,.336-.282,.618-.612,.618zm0-3.48h-18.18c-.336,0-.618-.27-.618-.612s.282-.618 .618-.618h18.18c.336,0 .612,.276 .612,.618s-.282,.612-.612,.612zm0-3.474h-18.18c-.336,0-.618-.27-.618-.612 0-.336 .282-.618 .618-.618h18.18c.336,0 .612,.282 .612,.618-.006,.342-.282,.612-.612,.612zm6.09,6.42c-1.896,0-3.45-1.548-3.45-3.456s1.554-3.45 3.45-3.45c1.902,0 3.45,1.548 3.45,3.45s-1.542,3.456-3.45,3.456z"/>
</svg>
