<svg width="96" xmlns="http://www.w3.org/2000/svg" height="96" viewBox="0 0 96 96" xmlns:xlink="http://www.w3.org/1999/xlink">
<path d="m71.583,88.543c.006,.114 .096,.198 .096,.312 0,3.96-10.29,7.158-22.986,7.158-12.45,0-22.518-3.078-22.92-6.918h-.072v-12.576h.06c.342,3.87 10.44,6.948 22.932,6.948 12.36,0 22.35-3.024 22.89-6.828v11.904zm-22.89-21.324c-12.696,0-22.992,3.186-22.992,7.146 0,.066 .054,.126 .06,.186 .342,3.87 10.44,6.948 22.932,6.948 12.36,0 22.35-3.024 22.89-6.822 .006-.12 .096-.216 .096-.318 0-3.954-10.29-7.14-22.986-7.14zm-39.246-4.794l17.01,3.438-5.838-19.146 13.122,7.368 3.27-20.382 8.73,17.652 10.842-12.978 2.916,18.648 16.518-9.822-1.458,20.136 8.262-1.962-3.966,18.492 14.166-28.326-13.704,4.632 4.128-25.542-20.688,16.248-.462-28.794-14.712,19.506-13.338-27.408-4.386,33.522-18.264-11.82 9.516,25.548-18.09-5.286 15.594,27.714-9.168-21.438z"/>
</svg>
