<svg width="96" xmlns="http://www.w3.org/2000/svg" height="96" viewBox="0 0 96 96" xmlns:xlink="http://www.w3.org/1999/xlink">
<path d="m49.476,36.024h-3.216v-30.024h3.216v2.478c2.628-1.044 5.094-1.608 7.398-1.608 .69,0 1.506,.12 2.49,.36 .972,.222 2.034,.486 3.144,.84 1.158,.348 2.202,.654 3.204,.858 .96,.252 1.8,.36 2.466,.36 1.278,0 2.406-.246 3.45-.69v13.578c-1.26,.336-2.388,.486-3.45,.486-.666,0-1.506-.096-2.466-.324-1.002-.234-2.046-.51-3.204-.876-1.116-.318-2.214-.6-3.246-.858-1.014-.228-1.884-.342-2.568-.342-.354,0-.882,.078-1.626,.258-.756,.162-1.524,.396-2.322,.678-.816,.294-1.512,.564-2.16,.798-.462,.168-.816,.21-1.122,.264v13.764zm36.588,10.248v49.728h-26.286v-6.762h-23.862v6.762h-25.956v-49.728h14.622v-7.818h46.866v7.818h14.616zm-41.028,7.89h-5.682v15.6c0,2.244-.084,3.84-.258,4.794-.162,.96-.654,1.782-1.476,2.436s-2.04,.99-3.666,.99c-1.584,0-2.838-.348-3.75-1.05-.924-.696-1.5-1.626-1.746-2.784-.138-.714-.21-2.286-.21-4.716v-15.27h-5.694v15.042c0,3.156 .186,5.544 .564,7.152 .258,1.092 .786,2.136 1.596,3.132s1.908,1.794 3.306,2.43c1.38,.612 3.42,.924 6.126,.924 2.226,0 4.044-.288 5.412-.864 1.392-.57 2.496-1.332 3.33-2.304 .834-.954 1.392-2.136 1.698-3.54 .306-1.392 .456-3.786 .456-7.164v-14.808zm28.434,0h-5.298v18.834l-11.532-18.834h-5.544v28.206h5.286v-18.396l11.37,18.396h5.718v-28.206z"/>
</svg>
