<svg width="96" xmlns="http://www.w3.org/2000/svg" height="96" viewBox="0 0 96 96" xmlns:xlink="http://www.w3.org/1999/xlink">
<path d="m48.049,5.997c-24.822,0-45.012,20.19-45.012,45.006s20.19,44.994 45.012,44.994c24.816,0 44.988-20.178 44.988-44.994 0-24.816-20.172-45.006-44.988-45.006zm20.496,17.202l-20.508,20.502-20.496-20.502c5.754-4.26 12.81-6.87 20.508-6.87 7.704,.006 14.742,2.616 20.496,6.87zm-55.164,27.804c0-7.686 2.61-14.736 6.864-20.49l20.496,20.49-20.484,20.496c-4.266-5.754-6.876-12.798-6.876-20.496zm14.16,27.798l20.496-20.49 20.508,20.502c-5.754,4.248-12.81,6.858-20.496,6.858-7.698,0-14.754-2.61-20.508-6.87zm48.306-7.296l-20.502-20.502 20.502-20.502c4.26,5.754 6.87,12.804 6.87,20.502s-2.61,14.748-6.87,20.502z"/>
</svg>
