<svg width="96" xmlns="http://www.w3.org/2000/svg" height="96" viewBox="0 0 96 96" xmlns:xlink="http://www.w3.org/1999/xlink">
<path d="m86.46,10.4c-4.374-4.374-10.104-6.564-15.834-6.564s-11.448,2.19-15.822,6.564l-45.246,45.24c-8.742,8.73-8.742,22.908 .006,31.65 8.73,8.742 22.902,8.742 31.644,0l45.234-45.234c8.76-8.748 8.76-22.926 .018-31.656zm-4.812,26.838l-22.626,22.62-22.02-22.02 22.626-22.62c2.934-2.94 6.846-4.572 10.998-4.572s8.082,1.626 11.016,4.572c6.072,6.054 6.072,15.948 .006,22.02z"/>
</svg>
