<svg width="96" xmlns="http://www.w3.org/2000/svg" height="96" viewBox="0 0 96 96" xmlns:xlink="http://www.w3.org/1999/xlink">
<path d="m93.921,72.667v-9.648l-39.096-24.51v-27.798c0-1.26-.486-2.37-1.416-3.3-.936-.948-2.058-1.416-3.306-1.416h-.234c-1.26,0-2.316,.468-3.186,1.416-.666,.726-1.002,1.596-1.152,2.52-3.528-4.2-8.748-6.936-14.628-6.936h-9.612c-10.554,0-19.194,8.64-19.194,19.194v9.612c0,10.554 8.64,19.194 19.194,19.194h4.164l-19.182,12.024v9.648l39.114-12.72v20.976l-8.718,8.484v6.588l13.434-4.002 13.176,4.002v-6.588l-8.454-8.484v-20.976l39.096,12.72zm-89.418-40.872v-9.612c0-9.258 7.536-16.794 16.794-16.794h9.612c9.258,0 16.794,7.536 16.794,16.794v9.612c0,9.258-7.536,16.794-16.794,16.794h-9.612c-9.258,0-16.794-7.536-16.794-16.794zm38.4-1.8h-33.612v-6h33.612v6z"/>
</svg>
