<svg width="96" xmlns="http://www.w3.org/2000/svg" height="96" viewBox="0 0 96 96" xmlns:xlink="http://www.w3.org/1999/xlink">
<path d="m54.863,42.642c0,6.318-5.328,6.318-8.196,6.318h-3.582v-11.94h4.5c2.514-.006 7.278-.006 7.278,5.622zm29.808,5.55c1.872,5.208 2.898,9.03 3.09,11.418 .072,5.34-1.47,10.086-4.644,14.298-2.472,2.982-6.366,6.312-11.682,10.014-1.464,.936-3.774,1.98-6.942,3.084-1.638,.588-3.012,1.11-4.128,1.542-1.104,.426-2.016,.816-2.706,1.152-.402,.18-1.104,.486-2.04,.888-.936,.45-2.106,.96-3.48,1.554-1.95,1.128-3.42,2.394-4.35,3.858-.762-1.35-2.196-2.652-4.242-3.858-.948-.426-1.86-.816-2.706-1.212-.852-.39-1.764-.804-2.694-1.23-3.252-.834-7.896-2.778-13.896-5.778-5.484-3.702-9.432-7.092-11.832-10.152-3.066-4.2-4.56-8.922-4.494-14.154 .096-1.194 .372-2.79 .828-4.746 .486-1.974 1.194-4.338 2.136-7.062 1.8-4.908 2.604-8.706 2.436-11.466-.348-5.994-2.112-11.736-5.274-17.22l12.87-12.6c3.942,3.012 8.352,4.71 13.23,5.136 4.716,.36 9.246-.54 13.638-2.688 4.272,2.22 8.82,3.12 13.614,2.688 5.232-.336 9.852-2.232 13.902-5.658l12.834,12.606c-3.348,5.406-5.244,11.31-5.778,17.736-.264,2.838 .528,6.774 2.31,11.85zm-20.616-5.61c0-2.124-.366-5.124-2.526-7.758-3.456-4.14-8.442-4.518-14.4-4.518h-12.822v41.388h9.036v-16.134h6.006c2.184,0 6.372,0 9.42-1.956 3.264-2.13 5.286-6.198 5.286-11.022z"/>
</svg>
