<svg width="96" xmlns="http://www.w3.org/2000/svg" height="96" viewBox="0 0 96 96" xmlns:xlink="http://www.w3.org/1999/xlink">
<path d="m17.946,45.82l20.676,21.216v28.848h-.162v.102h-16.956v-12.456l-17.304-22.86c-.69-.858-1.134-1.902-1.134-3.048v-35.124c0-2.748 2.232-4.986 4.992-4.986 2.742,0 4.98,2.238 4.98,4.986v20.286c-1.206,.264-2.364,.768-3.282,1.668-2.634,2.586-2.7,6.834-.126,9.486l9.438,9.702 1.284-1.248-9.45-9.684c-1.884-1.956-1.848-5.076 .09-6.984 .618-.57 1.332-.978 2.1-1.194 .822-.234 1.662-.246 2.484-.078 .906,.222 1.728,.696 2.37,1.368zm60.228,0l-20.688,21.216v28.848h.162v.102h16.968v-12.456l17.298-22.86c.69-.858 1.134-1.902 1.134-3.048v-35.124c0-2.748-2.226-4.986-4.986-4.986-2.742,0-4.98,2.238-4.98,4.986v20.286c1.212,.264 2.358,.768 3.276,1.668 2.64,2.586 2.712,6.834 .126,9.486l-9.444,9.702-1.29-1.248 9.456-9.684c1.884-1.956 1.854-5.076-.096-6.984-.606-.57-1.338-.978-2.1-1.194-.81-.234-1.656-.246-2.478-.078-.888,.222-1.71,.696-2.358,1.368zm-30.12,7.896c5.406,0 9.996-1.95 13.842-5.76 3.834-3.828 5.742-8.418 5.742-13.854 0-5.388-1.908-10.026-5.742-13.848-3.846-3.834-8.424-5.706-13.842-5.706-5.4,0-10.044,1.872-13.83,5.706-3.864,3.822-5.748,8.454-5.748,13.848 0,5.43 1.884,10.014 5.748,13.854 3.792,3.81 8.43,5.76 13.83,5.76z"/>
</svg>
