<svg width="96" xmlns="http://www.w3.org/2000/svg" height="96" viewBox="0 0 96 96" xmlns:xlink="http://www.w3.org/1999/xlink">
<path d="m29.952,13.212c4.614-2.97 10.272-4.452 16.992-4.452 8.832,0 16.158,2.112 22.002,6.33s8.76,10.47 8.76,18.75c0,5.082-1.266,9.36-3.798,12.834-1.482,2.112-4.326,4.806-8.532,8.088l-4.146,3.222c-2.262,1.758-3.762,3.81-4.5,6.15-.468,1.482-.72,3.792-.762,6.912h-15.876c.234-6.606 .858-11.16 1.872-13.68s3.624-5.418 7.83-8.7l4.266-3.342c1.398-1.056 2.532-2.208 3.384-3.456 1.56-2.148 2.34-4.512 2.34-7.092 0-2.97-.87-5.67-2.604-8.118s-4.896-3.66-9.498-3.66c-4.524,0-7.728,1.506-9.618,4.512-1.89,3.006-2.838,6.132-2.838,9.372h-16.932c.468-11.13 4.35-19.026 11.658-23.67zm9.726,65.856h17.52v16.932h-17.52v-16.932z"/>
</svg>
