<svg width="96" xmlns="http://www.w3.org/2000/svg" height="96" viewBox="0 0 96 96" xmlns:xlink="http://www.w3.org/1999/xlink">
<path d="m24.064,34.186l42.366-20.076c1.074,.438 2.298,.492 3.42-.048 2.112-.996 3.012-3.522 2.016-5.634-1.002-2.112-3.534-3.012-5.634-2.004-1.128,.528-1.872,1.5-2.202,2.604l-53.106,25.158h-5.046v61.83h84.372v-61.83h-66.186zm-5.52,48.984h-2.814v-20.31h2.814v20.31zm10.2,0h-2.814v-20.31h2.814v20.31zm10.206,0h-2.814v-20.31h2.814v20.31zm10.2,0h-2.814v-20.31h2.814v20.31zm21.078,0c-5.604,0-10.146-4.548-10.146-10.158 0-5.604 4.554-10.14 10.146-10.14 5.616,0 10.152,4.548 10.152,10.14 .006,5.61-4.548,10.158-10.152,10.158zm10.158-30.084h-64.65v-10.524h64.65v10.524z"/>
</svg>
