<svg width="96" xmlns="http://www.w3.org/2000/svg" height="96" viewBox="0 0 96 96" xmlns:xlink="http://www.w3.org/1999/xlink">
<path d="m40.071,64.434c1.584,.75 3.39,1.182 5.472,1.182 .798,0 1.626-.06 2.484-.162 7.644-.984 11.88-12.27 12.114-22.914 .072-2.844-.33-8.136-3.69-11.628-2.004-2.1-4.71-3.15-8.046-3.15-5.628-1.314-27.468-6.33-31.362-6.246-6.534,.15-12.42,8.82-13.608,14.25-1.17,5.4-.666,16.968 9.006,19.116l27.63,9.552zm-22.206-11.988l.156-6.576c0,0 1.23,1.104 2.148,.234l4.302,8.532c-1.608,1.176-5.754-.552-6.606-2.19zm21.36,8.004c-1.986-2.028-2.994-5.466-2.982-10.206 .006-6.492 3.54-19.344 11.652-19.626l.462-.012c2.574,0 4.614,.78 6.084,2.31 2.73,2.838 2.928,7.626 2.892,9.564-.204,9.318-3.876,19.392-9.66,20.13-3.714,.462-6.582-.252-8.448-2.16zm-15.528-28.656c1.062-1.278 4.05,11.928 2.55,12.432-.234,.084-5.298-1.362-5.298-1.362 .222-.834-.072-2.718-1.152-3.654l3.9-7.416zm-5.214,7.902c1.152,.078 1.536,1.716 1.536,2.892 0,1.17-.306,2.346-1.23,2.19-.918-.162-1.38-2.898-1.38-2.898-.078,1.248-.078-2.268 1.074-2.184zm-2.31-10.722l1.314,9.552c-.852,.624-1.002,1.722-.852,3.126l-4.992-1.572c-.768-2.028 2.46-10.794 4.53-11.106zm76.734,35.676c.828,3.402-5.55,6.228-8.586,8.64-3.03,2.4-9.87,6.072-18.702,10.782-8.844,4.71-19.938,8.262-27.132,6.432-7.194-1.836-12.438-2.142-18.558,1.674-6.114,3.822-11.712,.054-12.378-4.44-.666-4.506 12.18-12.258 18.396-11.73 4.926,.414 14.322-4.572 19.176-5.61 1.89-.408 5.166-.462 10.602-2.502 5.418-2.04 7.506-10.458 10.224-11.754 3.27-1.536 9.606,.876 11.334,1.428 2.622,.852 14.796,3.678 15.624,7.08z"/>
</svg>
