<svg width="96" xmlns="http://www.w3.org/2000/svg" height="96" viewBox="0 0 96 96" xmlns:xlink="http://www.w3.org/1999/xlink">
<path d="M25.124 35.056l-8.040-5.622c6.372-9.114 16.416-14.856 27.354-15.9v-7.5l21.174 12.222-21.174 12.222v-7.122c-7.74 1.008-14.778 5.22-19.314 11.7zM20.33 54.61h7.128l-12.222-21.174-12.222 21.174h7.5c1.044 10.932 6.786 20.976 15.9 27.354l5.616-8.046c-6.486-4.53-10.692-11.58-11.7-19.308zM51.596 78.7v-7.122l-21.174 12.222 21.174 12.222v-7.5c10.92-1.050 20.952-6.786 27.33-15.882l-8.028-5.628c-4.536 6.468-11.592 10.68-19.302 11.688zM85.508 47.452c-1.056-10.926-6.798-20.958-15.9-27.348l-5.628 8.034c6.48 4.542 10.686 11.592 11.694 19.314h-7.116l12.222 21.174 12.222-21.174h-7.494z"/>
</svg>
