<svg width="96" xmlns="http://www.w3.org/2000/svg" height="96" viewBox="0 0 96 96" xmlns:xlink="http://www.w3.org/1999/xlink">
<path d="m52.647,94.321c0,.936-.846,1.71-1.896,1.71h-28.386c-1.056,0-1.908-.774-1.908-1.71v-12.936c0-.948 .858-1.716 1.908-1.716h28.386c1.056,0 1.896,.768 1.896,1.716v12.936zm40.362-12.936c0-.948-.858-1.71-1.914-1.71h-28.38c-1.062,0-1.914,.762-1.914,1.71v12.936c0,.942 .858,1.71 1.914,1.71h28.38c1.062,0 1.914-.768 1.914-1.71v-12.936zm-20.178-24.516c0-.948-.858-1.716-1.914-1.716h-28.386c-1.044,0-1.908,.768-1.908,1.716v12.936c0,.936 .87,1.716 1.908,1.716h28.386c1.062,0 1.914-.78 1.914-1.716v-12.936zm-29.352-14.604c.93,.654 2.214,.42 2.88-.516l6.48-9.312c.654-.93 .426-2.22-.504-2.874l-2.004-1.38-8.796,12.738 1.944,1.344zm-40.47,19.176c1.248,2.658 4.044,4.47 6.798,4.782l17.196-24.528-6.822-4.782-17.172,24.528zm36.606-24.132c.126,.162 .234,.336 .342,.516 .078,.132 .144,.27 .21,.384 .114,.27 .234,.528 .294,.78 2.532-3.624 5.076-7.242 7.614-10.86 0,0-5.922,.714-9.03-6.336-.636-.45-1.308-.894-1.944-1.356-8.928-6.246-17.4-7.524-24.786-5.508-.402,.108-1.206,.372-1.938,.624-1.296,.432-1.068,2.4 .384,2.166 .684-.12 1.38-.234 1.722-.246 1.404-.066 2.754-.162 4.158,.102 5.988,1.146 10.692,6.606 6.768,12.204-1.062,1.5-3.174,4.452-3.15,4.488 .012,.024 8.922,6.186 8.88,6.246-.252,.366 .606-.798 .882-1.146 1.32-1.548 4.104-4.194 7.53-3.504 .534,.114 .984,.36 1.356,.666 .18,.162 .372,.33 .528,.528 .066,.084 .12,.168 .18,.252z"/>
</svg>
