<svg width="96" xmlns="http://www.w3.org/2000/svg" height="96" viewBox="0 0 96 96" xmlns:xlink="http://www.w3.org/1999/xlink">
<path d="m90.574,20.521l-11.22-11.268c-1.548-1.566-4.632-1.02-6.864,1.2l-10.284,10.248-14.148-14.688h-44.064v90h69.33v-52.674l16.032-15.966c2.214-2.22 2.772-5.298 1.218-6.852zm-41.334-2.766l7.794,8.1-4.266,4.254h-3.528v-12.354zm1.62,43.621l-15.516,6.282-3.33-3.348 6.336-15.492 12.51,12.558zm15.162,27.342h-54.732v-75.408h32.478v22.272h3.51l-4.152,4.134h-24.048v3.648h20.388l-3.294,3.276-3.366,8.214h-13.734v3.648h12.246l-4.704,11.49h-7.542v3.648h39.174v-3.648h-21.126l15.894-6.438 5.07-5.052h.156v-.156l7.77-7.74v38.112z"/>
</svg>
