<svg width="96" xmlns="http://www.w3.org/2000/svg" height="96" viewBox="0 0 96 96" xmlns:xlink="http://www.w3.org/1999/xlink">
<path d="m47.756,59.951c-1.824-6.15 8.076-9.876 7.95-3.666 .912,3.312 1.17,5.226-2.196,5.862-2.982,.552-4.842,.882-5.754-2.196zm7.164-20.376c-.984,3.348 3.876,3.828 2.628,7.524 2.538,0 1.8-2.022 2.748-3.684 1.374-2.382 4.548-2.964 4.314-6.264 .24,6.06 3.606-.438 5.874-.678 .126-1.128-.396-2.544-.528-3.306-1.116-2.382-1.014-4.716-4.08-3.042-2.184,1.188-4.992,3.492-2.256,5.574-2.784,.396-7.686,.372-8.7,3.876zm-7.104-8.718c-1.26,.714-1.914,3.474-2.202,4.782-.528,2.418-.372,10.098 3.696,8.85 2.304-.696 1.884-4.206 2.784-6.054 .606-1.218 1.47-1.026 1.794-2.328 .234-.954-.312-2.448-.456-3.414 1.554,3.978 7.53,2.178 6.066-1.836-1.206-1.104-3.576-1.788-5.124-.966-2.268,1.2-.198,2.514-1.932,2.586-1.212,.03-2.154-3.012-4.626-1.62zm6.546,16.98c-1.656-5.514-11.598,2.49-9.69,5.916 1.386,2.514 3.648-1.764 5.052-2.484 1.92-.978 5.052-.096 4.638-3.432zm3.75-20.214c1.524,.624 3.27,.54 2.748-1.716-2.256-1.824-8.58-2.328-8.376,1.836 1.764-.228 3.9-.84 5.628-.12zm4.272,21.552c1.674-1.146 4.464-.972 4.02-3.774-2.784-6.354-7.968,6.276-8.406,8.442 1.986-.852 2.574-3.432 4.386-4.668zm11.826,8.238c.954,1.86 5.112,.672 7.194-.372 2.736-1.35 3.372-3.174 2.73-6.24-1.878-7.764-12.534,1.548-9.924,6.612zm-6.384,3.102c2.316-1.944 1.764-8.25 1.374-10.83-2.406-.372-5.334,.672-7.05,2.412-1.242,1.278-4.758,7.272-3.36,9.036 .948,1.194 8.19,.096 9.036-.618zm13.506-15.246c1.872-.378 1.164-3.324 .858-5.028-.138-4.524-4.974-.894-4.122,2.358 .342,1.266 1.704,2.982 3.264,2.67zm-12.63,.024c.726,1.362 2.586,1.374 3.072,3.774 .558,2.712-.636,5.58-.282,8.34 1.746-1.416 1.452-6.558 2.988-8.94 .888-1.398 1.938-1.614 1.968-3.252 .024-1.146-1.104-2.646-1.668-3.6 1.776-.084 3.57-6.414 1.056-6.3-1.29-1.878-2.748-2.178-3.384-.126-.66,2.148 1.938,4.242 2.61,6.042-3.114-1.764-8.724-.396-6.36,4.062zm-37.596-.714c1.236-.066 1.038,1.104 2.256,.588 1.236-.516 2.1-2.772 2.886-3.804 1.29-5.712-10.374-4.83-9.372,1.926 .408,2.688 1.578,1.452 4.23,1.29zm-5.268-6.654c-.318-2.382-3.87-3.066-4.86-.75-.72,1.692 4.434,6.456 4.86,.75zm-1.236,13.998c-.78,1.626-1.068,3.624-.924,5.4 .252,3.15 .624,2.442 2.862,3.162 1.218,.372 3.252,1.536 4.536,1.338 2.622-.426 1.404-1.188 .918-3.018-.402-1.518-1.374-3.126-1.356-4.728 .024-2.208 1.884-3.714 1.668-5.982-1.728-5.016-6.738,1.788-7.704,3.828zm-9.522-6.276c1.17,.498 1.608,2.508 2.724,2.802 .978,.24 2.082-1.176 3.684-.918 1.38,.228 1.632,2.808 3.084,.612 .87-1.338 .6-2.808 .096-4.254-2.952-2.874-6.666-4.362-10.428-2.436-.786,.402-4.008,1.308-2.52,2.658 1.56,1.416 2.022,.966 3.36,1.536zm35.004-20.022c-1.914-3.468-11.43-3.726-9.6,1.836 1.182,3.576 10.236,2.58 9.6-1.836zm-35.472,21.63c-2.154,1.212-4.386,3.246-3.15,6.042 2.214,4.986 3.048,2.244 4.41-.894 .372,2.094-.084,4.266 2.118,5.316 2.382,1.122 3.372-.078 3.624-2.502 .168-1.614 1.248-5.658-.864-6.174-1.506-.366-3.204,2.22-4.626,2.616 .24-.708 .372-1.584 .75-2.232-.438-1.062-1.356-1.59-2.262-2.172zm24.594-8.742c.456,2.208-2.556,5.37-3.624,7.014 .876-.402 .84-.096 1.524-.774 .09,1.128 .174,2.244 .27,3.372 3.084-.42 3.882,2.874 6.3-1.044 2.262-3.648-.066-5.334-3.774-4.842 .714-2.106 2.658-.144 3.138-2.436 .474-2.244 .462-4.536 .918-6.78-.936-1.116-3.216-2.61-4.626-2.184-1.008,.312-3.426,3.336-3.294,4.218 .264,1.752 2.76,1.506 3.168,3.456zm-5.538,15.408c-2.226,3.084 .828,3.12 1.98,4.422 1.206,1.368 .78,3.258 2.37,3.546 1.164,.204 3.636,1.224 4.794,.372 2.346-1.752-.624-6.624-1.758-8.61-1.494-2.13-5.85-1.836-7.386,.27zm59.382-.12c0-3.252-1.872-6.276-5.046-8.976-1.35,.882-2.79,1.656-4.266,2.28 2.064,1.548 3.21,3.252 3.21,5.052 0,7.026-17.412,12.714-38.898,12.714s-38.904-5.688-38.904-12.714c0-1.98 1.452-3.864 3.948-5.538l-4.044-2.604c-3.792,2.874-6,6.216-6,9.786 0,.192 .012,.39 .024,.588h-.024c.294,7.608 2.64,15.576 6.534,23.022 0,0 9.408,18.582 38.466,18.582 29.052,0 38.31-18.732 38.31-18.732 3.876-7.416 6.396-15.456 6.678-22.872h-.012c.012-.204 .024-.396 .024-.588zm-55.776-24.258c1.512-5.286-11.082-.12-8.874,5.382 1.602,4.014 7.686-3.51 8.874-5.382z"/>
</svg>
