<svg width="96" xmlns="http://www.w3.org/2000/svg" height="96" viewBox="0 0 96 96" xmlns:xlink="http://www.w3.org/1999/xlink">
<path d="m94.558,96.033l-24-90h-30.018c-2.964-1.872-6.438-3-10.176-3h-9.612c-10.554,0-19.194,8.64-19.194,19.194v9.612c0,9.15 6.51,16.854 15.126,18.738l-12.126,45.456h90zm-42-3.288h-6v-12.012h6v12.012zm0-24.018h-6v-12.006h6v12.006zm0-24.018h-6v-2.694c1.722-2.724 2.754-5.898 2.91-9.312h3.09v12.006zm-6-36.018h6v12.006h-3.156c-.252-3.156-1.23-6.102-2.844-8.646v-3.36zm-42.594,23.148v-9.612c0-9.258 7.536-16.794 16.794-16.794h9.612c9.258,0 16.794,7.536 16.794,16.794v9.612c0,9.258-7.536,16.794-16.794,16.794h-9.612c-9.258,0-16.794-7.536-16.794-16.794zm17.796,8.544l-12.72-12.714 4.242-4.242 8.478,8.472 16.086-16.092 4.242,4.242-20.328,20.334z"/>
</svg>
