<svg width="96" xmlns="http://www.w3.org/2000/svg" height="96" viewBox="0 0 96 96" xmlns:xlink="http://www.w3.org/1999/xlink">
<path d="m34.34,66.448l-1.704-.96 7.308-7.626 1.686,.972-7.29,7.614zm16.668-9.306l-17.232,17.946 1.674,.948 17.226-17.934-1.668-.96zm39.81-14.454l.108,.012-25.092,53.148-62.784,.132 22.488-48.126c-5.742-.894-8.676-7.656-8.766-15.096 .096-7.758 3.252-14.862 9.504-15.246l57.186,.012c.018,0 .042-.012 .06-.012 6.264,.384 9.408,7.488 9.528,15.246-.054,3.696-.816,7.194-2.232,9.93zm-7.296-21.15c-1.05-.024-2.382,.81-3.576,2.874-1.134,2.028-1.938,5.028-1.938,8.376s.804,6.372 1.938,8.37c1.182,2.076 2.526,2.886 3.576,2.874 1.038,.024 2.388-.798 3.582-2.874 1.134-1.998 1.944-5.022 1.926-8.37 .018-3.348-.792-6.348-1.926-8.376-1.182-2.064-2.544-2.898-3.582-2.874zm-57.246,22.476h50.772c-1.944-2.874-2.982-6.918-3.048-11.232 .066-4.314 1.104-8.376 3.054-11.238h-50.778c-1.038-.024-2.382,.81-3.57,2.874-1.158,2.028-1.944,5.028-1.944,8.376s.786,6.372 1.944,8.37c1.188,2.052 2.532,2.868 3.57,2.85zm57.576,3.948c-.126,.012-.21,.06-.33,.066h-53.868l-19.44,43.932 53.394-.108 20.244-43.89zm-42.042,28.884l1.692,.972 11.652-12.126-1.686-.96-11.658,12.114z"/>
</svg>
