<svg width="96" xmlns="http://www.w3.org/2000/svg" height="96" viewBox="0 0 96 96" xmlns:xlink="http://www.w3.org/1999/xlink">
<path d="m70.137,96h-44.286v-21.696h44.286v21.696zm6.144-55.464c-1.218,0-2.196-.636-2.928-1.938-.288,6.084-2.49,11.376-6.606,15.87 .6-.138 1.05-.216 1.356-.216 2.034,0 3.042,1.05 3.042,3.132 0,2.106-1.05,3.132-3.15,3.132-2.112,0-3.168-.996-3.168-3.006 0-.3 .078-.744 .21-1.314-4.488,4.08-9.768,6.252-15.84,6.54 1.308,.756 1.956,1.746 1.956,2.934 0,2.088-1.056,3.132-3.156,3.132-2.112,0-3.156-1.05-3.156-3.132 0-1.23 .636-2.196 1.914-2.934-5.724,0-10.992-2.202-15.804-6.588 .144,.606 .228,1.062 .228,1.404 0,1.986-1.056,2.958-3.168,2.958-2.112,0-3.15-1.032-3.15-3.132 0-2.088 1.002-3.132 3.024-3.132 .312,0 .756,.078 1.332,.216-4.098-4.596-6.288-9.876-6.57-15.87-.702,1.302-1.674,1.938-2.928,1.938-2.094,0-3.138-1.044-3.138-3.132 0-2.076 1.05-3.108 3.138-3.108 1.254,0 2.226,.648 2.928,1.92 .282-6 2.472-11.292 6.57-15.876-.576,.138-1.02,.21-1.332,.21-2.022,0-3.024-1.044-3.024-3.144s1.044-3.126 3.15-3.126c2.118,0 3.168,.996 3.168,3.006 0,.318-.084,.774-.228,1.356 4.812-4.404 10.08-6.618 15.804-6.618-1.278-.726-1.914-1.698-1.914-2.91 0-2.082 1.05-3.114 3.156-3.114 2.106,0 3.156,1.032 3.156,3.114 0,1.182-.648,2.154-1.956,2.91 6.072,.276 11.352,2.478 15.84,6.618-.132-.558-.21-1.002-.21-1.314 0-2.034 1.062-3.048 3.168-3.048 2.106,0 3.15,1.026 3.15,3.126s-1.008,3.144-3.042,3.144c-.306,0-.756-.072-1.356-.21 4.116,4.494 6.318,9.786 6.606,15.876 .732-1.272 1.71-1.92 2.928-1.92 2.1,0 3.132,1.032 3.132,3.108 .006,2.094-1.032,3.138-3.132,3.138zm-37.2-6.276c.336,0 .798,.102 1.392,.252l.132-.348c-1.134-.654-1.77-1.644-1.914-2.958-1.89-.192-2.934-1.23-3.12-3.126-1.332-.168-2.31-.816-2.928-1.956-1.71,2.562-2.862,5.352-3.486,8.382 .588-.15 1.074-.252 1.446-.252 .576,0 1.23,.312 1.986,.936 .804-.624 1.548-.936 2.25-.936 .696,0 1.446,.312 2.202,.936 .768-.618 1.434-.93 2.04-.93zm1.392,6.018c-.6,.168-1.062,.258-1.392,.258-.564,0-1.242-.312-2.034-.924-.756,.618-1.506,.924-2.202,.924-.702,0-1.446-.312-2.25-.924-.756,.618-1.434,.924-2.034,.924-.33,0-.816-.054-1.398-.198 .624,2.994 1.776,5.772 3.486,8.304 .624-1.128 1.602-1.794 2.928-1.944 .18-1.89 1.224-2.934 3.12-3.132 .144-1.308 .78-2.28 1.914-2.886l-.138-.402zm1.356-12.192c1.284,.126 2.256,.792 2.874,1.95l.342-.174c-.144-.582-.21-1.056-.21-1.386 0-.57 .3-1.242 .894-2.046-.6-.756-.894-1.482-.894-2.184s.3-1.464 .894-2.25c-.6-.756-.894-1.434-.894-1.986 0-.372 .066-.84 .21-1.404-2.988,.606-5.754,1.746-8.292,3.48 1.104,.6 1.746,1.542 1.938,2.874 1.83,.222 2.886,1.254 3.138,3.126zm2.874,16.698c-.624,1.134-1.596,1.764-2.874,1.908-.252,1.872-1.308,2.922-3.132,3.144-.192,1.332-.84,2.286-1.938,2.916 2.538,1.704 5.304,2.856 8.292,3.438-.144-.57-.21-1.014-.21-1.368 0-.588 .3-1.272 .894-2.028-.6-.786-.894-1.554-.894-2.25 0-.714 .3-1.44 .894-2.202-.6-.804-.894-1.47-.894-2.046 0-.33 .066-.804 .21-1.398l-.348-.114zm7.512-7.404c0-1.158-.408-2.154-1.242-2.964-.822-.798-1.812-1.218-2.982-1.218s-2.154,.42-2.982,1.218c-.822,.81-1.236,1.806-1.236,2.964 0,1.17 .414,2.172 1.236,2.994 .828,.828 1.812,1.224 2.982,1.224s2.16-.396 2.982-1.224c.834-.822 1.242-1.824 1.242-2.994zm-1.062-8.904c0,.336-.078,.81-.252,1.386l.384,.126c.618-1.14 1.584-1.776 2.874-1.944 .228-1.872 1.272-2.904 3.126-3.132 .174-1.26 .828-2.232 1.956-2.874-2.544-1.686-5.328-2.832-8.346-3.432 .174,.57 .252,1.032 .252,1.404 0,.54-.312,1.194-.93,1.986 .624,.786 .93,1.5 .93,2.154 0,.762-.312,1.524-.93,2.28 .624,.798 .936,1.476 .936,2.046zm-.252,16.47c.174,.576 .252,1.05 .252,1.404 0,.54-.312,1.2-.93,2.004 .624,.762 .93,1.488 .93,2.202 0,.738-.312,1.494-.93,2.25 .624,.786 .93,1.458 .93,2.028 0,.354-.078,.798-.252,1.368 3.018-.588 5.802-1.734 8.346-3.438-1.128-.654-1.782-1.602-1.956-2.886-1.854-.216-2.892-1.26-3.126-3.132-1.296-.168-2.262-.816-2.874-1.95l-.39,.15zm6.432-13.734c-.162,1.314-.81,2.286-1.938,2.928l.114,.372c.606-.15 1.068-.252 1.404-.252 .57,0 1.23,.312 1.986,.936 .828-.624 1.566-.936 2.25-.936 .702,0 1.44,.312 2.238,.936 .792-.624 1.47-.936 2.04-.936 .336,0 .792,.102 1.368,.252-.606-3.036-1.74-5.826-3.456-8.382-.618,1.14-1.59,1.776-2.91,1.914-.204,1.878-1.23,2.934-3.096,3.168zm-1.938,9.462c1.128,.654 1.776,1.626 1.938,2.91 1.866,.222 2.892,1.266 3.09,3.15 1.326,.144 2.298,.774 2.91,1.902 1.716-2.532 2.856-5.31 3.456-8.304-.576,.162-1.032,.24-1.368,.24-.57,0-1.248-.312-2.04-.924-.798,.588-1.524,.882-2.202,.882-.696,0-1.458-.3-2.286-.882-.756,.588-1.416,.882-1.986,.882-.342,0-.804-.054-1.404-.198l-.108,.342z"/>
</svg>
