<svg width="96" xmlns="http://www.w3.org/2000/svg" height="96" viewBox="0 0 96 96" xmlns:xlink="http://www.w3.org/1999/xlink">
<path d="m69.02,29.615h-41.94l-5.286,66.384h52.512l-5.286-66.384zm-10.392,49.326c-.96,1.512-2.334,2.628-4.092,3.372-1.758,.732-3.948,1.11-6.582,1.11-3.81,0-6.738-.876-8.79-2.646-2.04-1.764-3.27-4.344-3.66-7.71l5.934-.588c.36,1.998 1.086,3.456 2.166,4.386s2.568,1.398 4.416,1.398c1.962,0 3.438-.414 4.434-1.242 .996-.84 1.488-1.812 1.488-2.916 0-.708-.21-1.326-.624-1.818-.42-.504-1.146-.942-2.202-1.32-.714-.246-2.334-.678-4.872-1.32-3.27-.81-5.568-1.806-6.876-2.988-1.854-1.65-2.778-3.678-2.778-6.072 0-1.542 .432-2.982 1.302-4.326 .876-1.344 2.13-2.358 3.774-3.066 1.638-.684 3.624-1.05 5.94-1.05 3.786,0 6.624,.84 8.556,2.49 1.92,1.668 2.928,3.876 3.024,6.66l-6.108,.264c-.258-1.554-.822-2.664-1.674-3.354-.858-.678-2.136-1.02-3.87-1.02-1.77,0-3.15,.372-4.146,1.104-.636,.462-.972,1.086-.972,1.872 0,.72 .312,1.332 .9,1.836 .774,.636 2.628,1.326 5.616,2.028 2.952,.684 5.142,1.416 6.582,2.16 1.41,.75 2.532,1.77 3.33,3.084 .81,1.296 1.206,2.88 1.206,4.8 .006,1.746-.474,3.366-1.422,4.872zm-10.584-72.936c-11.586,0-20.964,9.384-20.964,20.964h41.94c0-11.574-9.384-20.964-20.976-20.964zm-7.326,12.738c-1.536,0-2.79-1.23-2.79-2.778 0-1.53 1.254-2.784 2.79-2.784 1.542,0 2.784,1.254 2.784,2.784-.006,1.548-1.248,2.778-2.784,2.778zm7.338-6.102c-1.548,0-2.79-1.248-2.79-2.79 0-1.53 1.242-2.784 2.79-2.784s2.778,1.254 2.778,2.784c0,1.542-1.23,2.79-2.778,2.79zm7.23,6.102c-1.548,0-2.778-1.23-2.778-2.778 0-1.53 1.23-2.784 2.778-2.784 1.536,0 2.778,1.254 2.778,2.784 0,1.548-1.242,2.778-2.778,2.778z"/>
</svg>
