<svg width="96" xmlns="http://www.w3.org/2000/svg" height="96" viewBox="0 0 96 96" xmlns:xlink="http://www.w3.org/1999/xlink">
<path d="m89.256,35.922l-41.256-20.508-41.256,20.508-3.744-7.536 44.94-22.344 .018-.054 .042,.024 .042-.024 .018,.054 44.94,22.344-3.744,7.536zm-2.256,8.364c0,.144 0,2.67 0,6.54v43.56h-32.31c-1.11,.936-3.72,1.614-6.798,1.614-3.066,0-5.682-.672-6.78-1.614h-32.118v-43.56c0-3.87 0-6.39 0-6.54 21.192-9.126 36.684-.162 39.384,2.412 2.058-1.89 18.3-11.364 38.622-2.412zm-41.496,10.494c0-6.492-8.628-9.984-19.278-9.984-5.124,0-9.762,1.206-13.206,3.192v42.468c17.412-10.95 32.484-.912 32.484,.804v-36.48zm37.716-6.792c-3.438-1.986-8.082-3.192-13.2-3.192-10.638,0-19.272,3.492-19.272,9.984v36.48c0-1.716 15.072-11.754 32.472-.804v-42.468z"/>
</svg>
