<svg width="96" xmlns="http://www.w3.org/2000/svg" height="96" viewBox="0 0 96 96" xmlns:xlink="http://www.w3.org/1999/xlink">
<path d="m29.234,5.743v16.17h-16.17v61.656l-1.998,1.824c-.834,.75-.894,2.052-.138,2.88l2.136,2.364v4.056h3.666l.348,.378c.75,.84 2.04,.894 2.874,.138l.576-.522h49.146v-16.176h16.17v-72.774h-56.61zm-5.448,85.992l13.392-12.156c.834-.756 .888-2.064 .138-2.886l-6.15-6.798c-.75-.834-2.052-.888-2.88-.138l-12.258,11.13v-55.998h50.676v13.782c0,0 0,0 0,.012-3.924-3.324-8.934-5.394-14.478-5.394-12.462,0-22.56,10.11-22.56,22.56 0,12.462 10.104,22.566 22.56,22.566 5.538,0 10.548-2.076 14.472-5.382v18.714h-42.912zm28.446-19.452c-9.084,0-16.446-7.368-16.446-16.458 0-9.078 7.362-16.446 16.446-16.446 9.09,0 16.452,7.374 16.452,16.446-.006,9.096-7.368,16.458-16.452,16.458zm30.642,3.258h-13.206v-5.55c0,0-.006,0-.006,.012 3.162-3.888 5.136-8.784 5.136-14.178 0-5.382-1.968-10.272-5.124-14.148v-19.77h-37.47v-13.206h50.676v66.84z"/>
</svg>
