<svg width="96" xmlns="http://www.w3.org/2000/svg" height="96" viewBox="0 0 96 96" xmlns:xlink="http://www.w3.org/1999/xlink">
<path d="m25.008,68.544c.924,.384 1.914,.63 3.036,.66 3.996-.108 6.654-2.412 8.766-7.524 .048-.15 .108-.27 .162-.396 .216-.318 .516-.528 .876-.528 .36,0 .666,.21 .882,.528h.006c.024,.06 .036,.072 .048,.126 .036,.084 .09,.126 .114,.198 2.148,5.298 4.872,7.626 9.042,7.626h.03c4.128,0 6.852-2.334 8.994-7.56 .048-.15 .108-.27 .162-.396 .21-.318 .516-.528 .876-.528 .36,0 .672,.21 .882,.528h.006c.018,.06 .048,.072 .06,.126 .036,.084 .072,.126 .096,.198 2.124,5.202 4.806,7.548 8.856,7.62 1.14-.018 2.148-.276 3.09-.672l12.024-30.54c1.188-3.702-.39-8.604-3.552-10.884l-3.606-2.628-5.808-15.246h-13.332v-8.73h-17.448v8.73h-13.344l-5.802,15.258-3.606,2.616c-3.144,2.298-4.734,7.182-3.546,10.884l12.036,30.534zm33.612-53.592h9.234v3.888h-9.234v-3.888zm-15.24,0h9.24v3.888h-9.24v-3.888zm-15.24,0h9.24v3.888h-9.24v-3.888zm-2.334,19.776h44.394c1.644,0 2.562,1.278 2.028,2.838l-4.056,11.802c-.534,1.572-2.328,2.85-3.972,2.85h-32.394c-1.644,0-3.438-1.278-3.972-2.85l-4.056-11.802c-.54-1.56 .378-2.838 2.028-2.838zm82.194,40.38h-.144v20.892h-119.772v-20.892h-.084c4.128,0 6.87-2.334 9.024-7.56 .036-.138 .084-.27 .15-.384 .21-.33 .528-.54 .876-.54 .372,0 .672,.21 .876,.54h.036c.006,.06 .024,.072 .054,.12 .036,.084 .06,.126 .096,.21 2.154,5.286 4.872,7.626 9.036,7.626h.018c4.128,0 6.876-2.334 9.024-7.56 .03-.138 .078-.27 .144-.384h.012c.198-.33 .516-.54 .882-.54s.672,.21 .876,.54h.024c.006,.06 .03,.072 .048,.12 .036,.084 .066,.126 .096,.21 2.124,5.16 4.782,7.5 8.79,7.596 3.984-.096 6.648-2.4 8.766-7.524 .036-.138 .102-.27 .156-.384 .216-.33 .516-.534 .876-.534 .366,0 .666,.204 .888,.534h.012c.012,.06 .036,.072 .048,.12 .036,.084 .084,.126 .108,.21 2.154,5.286 4.872,7.626 9.042,7.626h.03c4.128,0 6.846-2.334 8.994-7.56 .042-.138 .102-.27 .162-.384 .204-.33 .516-.54 .876-.54 .366,0 .678,.21 .888,.54h.006c.018,.06 .048,.072 .06,.12 .042,.084 .078,.126 .102,.21 2.124,5.202 4.794,7.536 8.85,7.608 4.02-.072 6.69-2.388 8.826-7.536 .036-.144 .084-.27 .156-.39 .204-.324 .51-.534 .876-.534 .372,0 .684,.21 .876,.534h.024c.012,.066 .036,.078 .066,.126 .03,.084 .054,.126 .09,.21 2.142,5.286 4.872,7.626 9.036,7.626h.03c4.128,0 6.858-2.334 9.006-7.56 .036-.144 .09-.27 .162-.39 .21-.324 .516-.528 .876-.528 .372,0 .678,.204 .876,.528h.012c.024,.066 .042,.078 .072,.126 .018,.084 .054,.126 .072,.21 2.148,5.196 4.86,7.542 9.018,7.542z"/>
</svg>
