<svg width="96" xmlns="http://www.w3.org/2000/svg" height="96" viewBox="0 0 96 96" xmlns:xlink="http://www.w3.org/1999/xlink">
<path d="m42.285,3.696l-20.874,15.162v-16.896h5.022v-7.446h8.526v-6.468c0-1.662 5.85-3.03 13.038-3.03 7.2,0 13.05,1.368 13.05,3.03v6.468h8.526v7.446h5.016v16.884l-20.868-15.15c-3.144-2.286-8.292-2.286-11.436,0zm-29.292,34.314c-1.182-3.702 .39-8.616 3.558-10.884l4.872-3.546 20.874-15.162c1.176-.864 2.67-1.29 4.212-1.506v50.61c0,.828 .672,1.5 1.5,1.5 .84,0 1.5-.672 1.5-1.5v-50.61c1.554,.216 3.042,.642 4.224,1.506l25.74,18.708c3.15,2.286 4.74,7.182 3.546,10.884l-12.018,30.54c-.924,.384-1.932,.642-3.09,.66-4.05-.072-6.72-2.388-8.85-7.608-.03-.084-.072-.126-.108-.21-.012-.048-.042-.06-.06-.12h-.006c-.21-.33-.528-.528-.888-.528s-.654,.198-.876,.528c-.066,.126-.126,.246-.162,.384-2.136,5.226-4.866,7.566-8.994,7.566h-.03c-4.17,0-6.876-2.352-9.042-7.626-.024-.084-.072-.126-.108-.21-.024-.048-.042-.06-.06-.12h-.006c-.216-.33-.534-.528-.876-.528-.372,0-.66,.198-.876,.528-.066,.126-.126,.246-.15,.384-2.124,5.124-4.776,7.428-8.766,7.524-1.128-.03-2.124-.276-3.054-.648l-12.006-30.516zm41.148-12.012c0,1.308 1.056,2.364 2.364,2.364 1.314,0 2.37-1.056 2.37-2.364 0-1.314-1.056-2.37-2.37-2.37-1.314,.012-2.364,1.068-2.364,2.37zm-16.818,0c0,1.308 1.056,2.364 2.364,2.364 1.302,0 2.358-1.056 2.358-2.364 0-1.314-1.056-2.37-2.358-2.37-1.308,.012-2.364,1.068-2.364,2.37zm70.68,49.11h-.144v20.892h-119.766v-20.892h-.096c4.128,0 6.876-2.334 9.018-7.56 .048-.15 .096-.27 .156-.396 .21-.318 .528-.528 .876-.528 .372,0 .666,.21 .876,.528h.036c.006,.06 .024,.072 .048,.126 .048,.084 .078,.126 .108,.21 2.142,5.286 4.872,7.626 9.036,7.626h.018c4.128,0 6.876-2.334 9.024-7.56 .03-.15 .078-.27 .15-.396h.012c.198-.318 .51-.528 .876-.528 .372,0 .672,.21 .876,.528h.018c.006,.06 .03,.078 .048,.126 .036,.084 .066,.126 .09,.204 2.124,5.16 4.794,7.5 8.802,7.602 3.984-.102 6.642-2.412 8.766-7.524 .042-.15 .102-.27 .15-.396 .216-.318 .516-.528 .876-.528s.654,.21 .876,.528h.006c.018,.066 .036,.078 .054,.126 .042,.084 .09,.126 .114,.21 2.154,5.286 4.872,7.626 9.042,7.626h.03c4.128,0 6.858-2.334 8.994-7.56 .042-.15 .114-.27 .162-.396 .21-.318 .516-.528 .876-.528 .372,0 .678,.21 .888,.528h.006c.018,.06 .048,.078 .06,.126 .036,.084 .084,.126 .108,.204 2.124,5.196 4.8,7.542 8.85,7.614 4.02-.072 6.69-2.4 8.826-7.536 .03-.15 .096-.27 .156-.396 .21-.318 .51-.528 .876-.528 .372,0 .684,.21 .876,.528h.024c.012,.066 .036,.078 .066,.126 .024,.084 .054,.126 .096,.204 2.136,5.292 4.872,7.626 9.036,7.626h.03c4.128,0 6.858-2.334 9.006-7.56 .036-.15 .09-.27 .156-.396 .204-.318 .522-.528 .876-.528 .372,0 .678,.21 .876,.528h.018c.024,.06 .042,.078 .072,.126 .018,.084 .054,.126 .072,.204 2.148,5.25 4.86,7.59 9.018,7.59z"/>
</svg>
