<svg width="96" xmlns="http://www.w3.org/2000/svg" height="96" viewBox="0 0 96 96" xmlns:xlink="http://www.w3.org/1999/xlink">
<path d="m83.259,56.148l-11.016,10.536 3.354,.972c-4.788,7.872-13.44,11.334-23.298,12.012v-39.9h9.126c.768,.768 1.83,1.236 2.988,1.236 2.322,0 4.212-1.878 4.212-4.206s-1.89-4.212-4.212-4.212c-1.158,0-2.22,.48-2.988,1.242h-9.126v-4.812c4.434-1.734 7.62-6.036 7.62-11.088 0-6.57-5.346-11.91-11.916-11.91-6.57,0-11.904,5.358-11.904,11.91 0,5.394 3.624,9.93 8.58,11.382v4.512h-10.11c-.762-.774-1.83-1.242-2.982-1.242-2.334,0-4.212,1.878-4.212,4.206 0,2.334 1.878,4.206 4.212,4.206 1.152,0 2.22-.468 2.982-1.236h10.11v39.876c-10.374-.774-19.452-4.806-24-13.338l3.33-.738-10.314-11.226-4.584,14.532 3.876-.87c5.676,12.432 18.624,22.446 33.222,23.412l2.268,4.596 2.262-4.584c13.896-.93 26.262-10.068 32.382-21.576l3.768,1.104-3.63-14.796zm-41.382-38.226c0-3.372 2.742-6.108 6.114-6.108s6.126,2.736 6.126,6.108c0,3.372-2.742,6.12-6.126,6.12-3.372-.006-6.114-2.748-6.114-6.12z"/>
</svg>
