<svg width="96" xmlns="http://www.w3.org/2000/svg" height="96" viewBox="0 0 96 96" xmlns:xlink="http://www.w3.org/1999/xlink">
<path d="m63.279,73.032l-8.358,22.968-1.74-.642 8.124-22.326h1.974zm-11.262-0l-8.124,22.326 1.74,.642 8.358-22.968h-1.974zm-9.294,0l-8.124,22.326 1.74,.642 8.358-22.968h-1.974zm-9.294,0l-8.124,22.326 1.74,.642 8.358-22.968h-1.974zm37.176,0l-8.124,22.326 1.74,.642 8.358-22.968h-1.974zm-46.47,0l-8.124,22.326 1.74,.642 8.358-22.968h-1.974zm51.984-39.306c-2.106,0-4.104,.432-5.952,1.134-1.608-10.194-10.356-18.012-20.994-18.012-11.784,0-21.33,9.552-21.33,21.33 0,.258 .072,.516 .084,.786-.264-.024-.522-.084-.786-.084-6.342,0-11.484,5.13-11.484,11.472 0,.096 .024,.162 .024,.234-.906-.27-1.848-.456-2.838-.456-5.436,0-9.846,4.404-9.846,9.834 0,5.448 4.404,7.5 9.846,7.5 1.512,0 16.128,0 30.93,0 5.868,0 11.73,0 16.86,0 8.436,0 14.814,0 15.486,0 9.324,0 16.878-7.548 16.878-16.866 .006-9.324-7.554-16.872-16.878-16.872z"/>
</svg>
