<svg width="96" xmlns="http://www.w3.org/2000/svg" height="96" viewBox="0 0 96 96" xmlns:xlink="http://www.w3.org/1999/xlink">
<path d="m98.283,96c0,0-100.296,0-100.428,0-.138,0 0-89.982 0-89.982l8.976,2.262c-4.776,37.188 20.55,38.106 20.55,38.106 19.452,24.87 33.726,15.564 33.726,15.564 1.836,1.686 37.176,34.05 37.176,34.05zm-34.578-67.62c-1.416,.822-2.4,1.788-2.19,2.166 .204,.366 1.53,0 2.94-.81 1.41-.816 2.586-.384 2.61,.948 .012,1.344 .372,2.244 .792,2.004 .414-.24 .75-1.536 .744-2.892-.012-1.362 1.368-3.264 3.054-4.242 1.686-.978 3.072-.174 3.072,1.788s-.972,4.11-2.148,4.776c-1.188,.66-2.142,1.614-2.136,2.106 .012,.492 .978,.36 2.154-.3 1.17-.66 2.13,.126 2.13,1.734 0,1.614 .336,2.928 .744,2.928s.75-1.32 .75-2.946c0-1.62 .96-2.388 2.136-1.716 1.164,.672 2.124,.804 2.124,.3 0-.504-.96-1.464-2.124-2.124-1.176-.648-2.136-2.796-2.136-4.758s1.38-2.766 3.072-1.788c1.686,.978 3.072,2.88 3.06,4.242-.006,1.362 .324,2.658 .738,2.892 .408,.24 .768-.66 .798-2.004 .018-1.332 1.182-1.764 2.598-.948 1.404,.81 2.73,1.176 2.946,.81 .204-.372-.78-1.344-2.19-2.166-1.404-.816-1.608-2.046-.426-2.73 1.164-.69 1.776-1.452 1.332-1.704-.426-.252-1.74,.108-2.898,.798-1.17,.684-3.552,.426-5.298-.582-1.746-1.008-1.746-2.664 0-3.684 1.746-1.008 4.128-1.278 5.298-.6 1.158,.69 2.472,1.05 2.898,.798 .444-.246-.162-1.008-1.332-1.698-1.176-.684-.978-1.914 .426-2.73 1.41-.816 2.394-1.788 2.19-2.154-.216-.372-1.542-.006-2.946,.81-1.41,.816-2.58,.372-2.598-.972-.03-1.35-.384-2.256-.798-2.01-.414,.252-.744,1.548-.738,2.904 .012,1.35-1.374,3.252-3.06,4.236s-3.072,.168-3.072-1.794c0-1.968 .96-4.11 2.136-4.758 1.164-.654 2.124-1.602 2.124-2.106 0-.51-.96-.372-2.124,.306-1.176,.672-2.136-.108-2.136-1.746s-.342-2.976-.75-2.976-.744,1.326-.744,2.952c0,1.62-.96,2.412-2.13,1.758-1.176-.654-2.142-.792-2.154-.306-.006,.48 .948,1.422 2.136,2.094 1.176,.654 2.148,2.808 2.148,4.776 0,1.968-1.38,2.778-3.072,1.794s-3.066-2.886-3.054-4.236c.006-1.356-.33-2.652-.744-2.904-.414-.246-.78,.66-.792,2.01-.024,1.344-1.194,1.782-2.61,.972s-2.736-1.182-2.94-.81c-.21,.366 .774,1.338 2.19,2.154 1.41,.816 1.614,2.046 .45,2.73-1.164,.69-1.764,1.452-1.332,1.698 .432,.252 1.734-.108 2.88-.798 1.152-.684 3.528-.414 5.28,.6 1.758,1.02 1.758,2.676 0,3.684-1.752,1.002-4.128,1.266-5.28,.582-1.146-.696-2.448-1.05-2.88-.798-.432,.252 .162,1.014 1.332,1.704 1.164,.696 .966,1.926-.45,2.736zm7.776,30.984v2.592h12.972v-12.966h-2.598v7.782l-31.128-25.944-2.592,2.598 31.128,25.944h-7.782zm-38.91-12.978c4.23,3.678 9.462,11.202 23.352,12.972 3.234-4.254-4.614-12.882-7.782-15.57-5.052-4.266-10.134-4.092-15.57-7.782-3.942-2.67-5.346-6.624-7.788-10.374-1.578-2.436-3.132-5.748-5.184-7.788-1.002-.996-7.704-3.978-7.782-5.19 .492,7.374 .402,17.298 5.19,23.346 3.696,4.692 11.238,6.642 15.564,10.386z"/>
</svg>
