<svg width="96" xmlns="http://www.w3.org/2000/svg" height="96" viewBox="0 0 96 96" xmlns:xlink="http://www.w3.org/1999/xlink">
<path d="m44.337,39.258c.534,1.542 1.764,1.752 0,2.34l-4.674,2.34-4.674-4.674c-.624-1.83 .144-3.006 2.34-4.68l4.68,2.334c.564,.714 2.148,1.8 2.328,2.34zm-4.674-18.72c-1.41-.69-3.102-.522-4.674,0-.828,.27-1.38,1.506-2.346,2.34v7.02l7.02-2.34c1.932-2.196 2.802-3.312 2.346-4.68-.372-1.092-.924-1.632-2.346-2.34zm19.248,9.426l-.528-.066c-.27,.09-2.274-1.59-4.674-2.34-1.158-.396-1.17,.456-2.346,0-1.656,.564-1.932,1.95-2.346,4.68-.396,2.742-.912,6.612 0,9.36 .252,.744 1.422,1.41 2.346,2.34l2.346,2.34h2.334c3.048-1.332 4.212-4.518 4.68-4.68 1.098-.66 1.956-2.616 2.346-4.68 .372-2.076 .636-2.748 0-4.68-.744-2.19-2.688-2.76-4.158-2.274zm-.528,20.994v4.68c1.17,1.038 2.394,1.998 4.68,2.346l4.674-2.346-2.34-7.02-7.014,2.34zm28.08,0c-3.126-3.462-4.788-3.876-9.366-2.346h-2.34c-2.166,1.92-3.168,3.402-4.674,7.02-1.47,3.456-3,7.374-2.346,9.36 .06,.156 1.914,2.196 4.68,4.68 2.922,2.406 4.32,3.876 4.674,4.68l9.366-2.346c1.008-.33 4.914-8.658 4.674-9.354-1.872-5.634-2.76-9.54-4.668-11.694zm-6.948,44.916c-.024-.156-.156-.462-.078-.462-1.752-2.496-9.258-8.406-9.36-9.36-.114-1.008-2.202-4.65-4.68-7.014-1.062-1.68-1.158-2.964-2.34-4.68-1.176-1.704-3.372-5.202-4.68-7.02l-8.826-5.544c-1.284-.69-8.652-.444-18.918-11.292l-.342-6.564c-1.374-1.686-4.242-5.712-4.668-7.02-2.706-8.064-.912-14.646-2.346-25.734l-5.202-3.492-6.228-1.194c-2.106-.882-7.218-.324-7.218-.324v89.826h75.084l-.198-.126z"/>
</svg>
