<svg width="96" xmlns="http://www.w3.org/2000/svg" height="96" viewBox="0 0 96 96" xmlns:xlink="http://www.w3.org/1999/xlink">
<path d="m15.504,67.812c-3.894,2.262-6.624,4.944-6.036,5.976 .57,1.026 4.23,0 8.13-2.226 3.894-2.274 7.128-1.08 7.182,2.616 .048,3.69 1.056,6.186 2.19,5.526 1.164-.648 2.088-4.236 2.058-7.998-.036-3.75 3.756-9.012 8.418-11.706 4.68-2.694 8.484-.474 8.484,4.95 0,5.418-2.664,11.358-5.934,13.182-3.264,1.836-5.916,4.458-5.892,5.82 .03,1.356 2.712,.984 5.946-.834 3.24-1.818 5.88,.342 5.88,4.782 0,4.464 .936,8.1 2.082,8.1 1.134,0 2.058-3.642 2.058-8.13 0-4.47 2.658-6.606 5.892-4.746 3.24,1.854 5.898,2.226 5.898,.834 0-1.404-2.658-4.044-5.898-5.862-3.234-1.806-5.892-7.722-5.892-13.14 0-5.424 3.822-7.644 8.484-4.95s8.472,7.956 8.454,11.706c-.024,3.762 .894,7.35 2.04,7.998 1.128,.66 2.118-1.836 2.172-5.526 .072-3.69 3.294-4.884 7.188-2.616 3.888,2.226 7.554,3.252 8.124,2.226 .588-1.032-2.124-3.714-6.03-5.976-3.9-2.25-4.44-5.646-1.206-7.536 3.24-1.896 4.908-4.008 3.702-4.698-1.206-.696-4.824,.3-8.028,2.208-3.228,1.89-9.81,1.176-14.634-1.602-4.824-2.796-4.824-7.362 0-10.176 4.83-2.796 11.406-3.54 14.634-1.656 3.204,1.908 6.822,2.904 8.028,2.214 1.206-.678-.462-2.778-3.702-4.686-3.234-1.89-2.694-5.286 1.206-7.542 3.906-2.244 6.618-4.926 6.03-5.946-.576-1.038-4.236-.018-8.124,2.232-3.894,2.25-7.122,1.032-7.188-2.688-.06-3.726-1.044-6.228-2.172-5.55-1.14,.684-2.064,4.278-2.04,8.022 .018,3.726-3.792,8.988-8.454,11.694-4.662,2.712-8.484,.48-8.484-4.962 0-5.43 2.658-11.346 5.892-13.14 3.24-1.8 5.898-4.416 5.898-5.814 0-1.41-2.658-1.014-5.898,.852-3.234,1.854-5.892-.3-5.892-4.824 0-4.524-.918-8.22-2.058-8.22-1.14,0-2.082,3.66-2.082,8.148 0,4.476-2.64,6.672-5.88,4.866-3.234-1.8-5.916-2.184-5.946-.84-.024,1.332 2.628,3.936 5.892,5.772 3.27,1.812 5.934,7.77 5.934,13.2 0,5.442-3.804,7.674-8.484,4.962-4.662-2.712-8.454-7.968-8.418-11.694 .03-3.744-.888-7.338-2.058-8.022-1.134-.678-2.142,1.824-2.19,5.55-.06,3.72-3.288,4.938-7.182,2.688-3.9-2.25-7.566-3.27-8.13-2.232-.588,1.014 2.136,3.702 6.036,5.946 3.906,2.25 4.476,5.652 1.254,7.542-3.21,1.908-4.854,4.008-3.66,4.686 1.194,.696 4.788-.3 7.974-2.214 3.162-1.878 9.726-1.134 14.58,1.656 4.848,2.814 4.848,7.38 0,10.176-4.854,2.778-11.412,3.492-14.58,1.602-3.186-1.908-6.78-2.904-7.974-2.208-1.188,.69 .45,2.802 3.66,4.698 3.222,1.884 2.652,5.28-1.254,7.53z"/>
</svg>
