<svg width="96" xmlns="http://www.w3.org/2000/svg" height="96" viewBox="0 0 96 96" xmlns:xlink="http://www.w3.org/1999/xlink">
<path d="m82.562,78.036v2.694c0,8.394-6.876,15.276-15.276,15.276h-38.466c-8.4,0-15.282-6.876-15.282-15.276v-2.694c3.114,5.238 8.76,8.79 15.282,8.79h38.466c6.516,0 12.162-3.546 15.276-8.79zm-15.276-30.216h-38.466c-8.4,0-15.282,6.876-15.282,15.276v5.904c0,8.394 6.876,15.282 15.282,15.282h38.466c8.394,0 15.276-6.876 15.276-15.282v-5.904c0-8.4-6.876-15.276-15.276-15.276m.738-36.252c-5.844,0-10.572,4.722-10.572,10.566 0,5.832 4.728,10.554 10.572,10.554 5.832,0 10.554-4.722 10.554-10.554 0-5.844-4.722-10.566-10.554-10.566zm-16.116,2.226c0-4.296-3.486-7.788-7.782-7.788s-7.776,3.492-7.776,7.788c0,1.752 .6,3.36 1.578,4.644 1.038-.504 2.184-.822 3.414-.822 2.55,0 4.788,1.23 6.216,3.12 2.568-1.266 4.35-3.888 4.35-6.942zm-18.396,11.664c0-.186 .042-.366 .054-.54-.612-.132-1.224-.216-1.872-.216-4.746,0-8.592,3.846-8.592,8.592 0,4.752 3.846,8.598 8.592,8.598 4.752,0 8.604-3.846 8.604-8.598 0-.036-.012-.072-.012-.108-3.822-.528-6.774-3.768-6.774-7.728zm7.83-6.114c-3.372,0-6.12,2.742-6.12,6.12 0,3.372 2.742,6.12 6.12,6.12s6.126-2.742 6.126-6.12-2.748-6.12-6.126-6.12z"/>
</svg>
