<svg width="96" xmlns="http://www.w3.org/2000/svg" height="96" viewBox="0 0 96 96" xmlns:xlink="http://www.w3.org/1999/xlink">
<path d="m10.648,72.221l-4.968,5.04-2.616-3.396 7.992-7.29h4.068v28.98h-4.476v-23.334zm10.158,20.459c0-.87 .294-1.62 .876-2.25 .588-.624 1.29-.936 2.112-.936 .798,0 1.488,.306 2.088,.9s.9,1.338 .9,2.214c0,.87-.294,1.62-.876,2.25-.588,.624-1.29,.936-2.112,.936-.396,0-.786-.084-1.134-.246-.366-.162-.678-.384-.96-.654-.27-.27-.492-.6-.642-.984-.168-.372-.252-.786-.252-1.23zm11.652-4.547l14.67-15.564c.42-.468 .87-.96 1.338-1.488 .456-.528 .876-1.092 1.254-1.662 .366-.6 .678-1.206 .924-1.854 .246-.63 .372-1.314 .372-2.016 0-.858-.138-1.62-.456-2.274-.294-.666-.69-1.242-1.194-1.698-.492-.468-1.08-.834-1.734-1.092-.654-.246-1.362-.372-2.112-.372-1.596,0-2.904,.504-3.936,1.524-1.044,1.008-1.65,2.376-1.872,4.092l-6.714-.588c.138-1.908 .564-3.6 1.254-5.064 .69-1.452 1.596-2.67 2.682-3.654 1.116-.96 2.388-1.71 3.858-2.214 1.452-.504 3.036-.762 4.734-.762 1.71,0 3.306,.246 4.782,.726 1.476,.492 2.766,1.218 3.858,2.166 1.116,.96 1.98,2.178 2.616,3.654 .642,1.488 .96,3.21 .96,5.202 0,2.616-.54,4.866-1.62,6.75-1.092,1.896-2.484,3.702-4.194,5.412l-11.67,11.874h17.484v6.318h-25.278v-7.416zm30.966,4.547c0-.87 .294-1.62 .876-2.25 .576-.624 1.29-.936 2.1-.936s1.5,.306 2.1,.9 .888,1.338 .888,2.214c0,.87-.282,1.62-.87,2.25-.588,.624-1.29,.936-2.124,.936-.384,0-.774-.084-1.128-.246-.366-.162-.678-.384-.96-.654-.27-.27-.492-.6-.642-.984-.162-.372-.24-.786-.24-1.23zm18.222-14.447h1.158c.642,0 1.266-.036 1.872-.12s1.158-.258 1.638-.54c.492-.258 .876-.666 1.182-1.182 .294-.516 .444-1.206 .444-2.088 0-1.116-.354-2.028-1.044-2.742-.702-.714-1.608-1.068-2.73-1.068-.888,0-1.698,.282-2.4,.846-.714,.564-1.23,1.35-1.548,2.358l-4.746-1.392c.306-1.068 .726-1.992 1.266-2.79 .552-.786 1.194-1.428 1.944-1.932 .75-.516 1.572-.876 2.46-1.128 .9-.246 1.83-.372 2.802-.372 1.146,0 2.226,.162 3.246,.492 1.032,.33 1.92,.81 2.694,1.452s1.38,1.44 1.842,2.412c.468,.972 .69,2.1 .69,3.372 0,1.56-.396,2.94-1.194,4.158-.798,1.206-1.896,2.016-3.318,2.388v.084c1.686,.27 2.976,1.068 3.846,2.376 .87,1.302 1.302,2.862 1.302,4.662 0,1.392-.234,2.628-.726,3.678-.48,1.068-1.134,1.956-1.956,2.682s-1.77,1.266-2.85,1.638c-1.092,.366-2.214,.552-3.384,.552-1.092,0-2.13-.126-3.108-.384-.96-.258-1.842-.666-2.628-1.218-.786-.54-1.452-1.242-2.04-2.1-.564-.858-.996-1.896-1.302-3.096l4.782-1.392c.27,1.206 .75,2.13 1.452,2.79 .69,.654 1.638,.984 2.838,.984 .6,0 1.158-.12 1.698-.33 .54-.222 1.008-.528 1.416-.924s.738-.876 .972-1.428c.234-.564 .354-1.182 .354-1.866 0-.924-.174-1.686-.54-2.274s-.822-1.032-1.38-1.35-1.182-.528-1.884-.63c-.69-.108-1.38-.162-2.052-.162h-1.08v-4.416z"/>
</svg>
