<svg width="96" xmlns="http://www.w3.org/2000/svg" height="96" viewBox="0 0 96 96" xmlns:xlink="http://www.w3.org/1999/xlink">
<path d="m92.355,39.264c0,9.192-7.446,16.632-16.638,16.632-.66,0-6.942,0-15.264,0-5.052,0-10.836,0-16.62,0-14.592,0-28.998,0-30.486,0-5.364,0-9.702-2.034-9.702-7.392 0-5.358 4.344-9.702 9.702-9.702 .972,0 1.896,.192 2.796,.462 0-.078-.024-.15-.024-.228 0-6.252 5.07-11.316 11.322-11.316 .258,0 .516,.06 .774,.078-.012-.264-.084-.504-.084-.768 0-11.61 9.408-21.018 21.024-21.018 10.482,0 19.116,7.71 20.694,17.754 1.824-.696 3.792-1.122 5.868-1.122 9.192-.012 16.638,7.434 16.638,16.62zm-33.708,20.622h-16.602c-4.872,4.896-12.768,12.828-12.858,12.828h13.302l-13.302,23.286 29.928-26.616h-9.978l9.51-9.498z"/>
</svg>
