<svg width="96" xmlns="http://www.w3.org/2000/svg" height="96" viewBox="0 0 96 96" xmlns:xlink="http://www.w3.org/1999/xlink">
<path d="m37.569,79.044c0,5.04-4.092,9.126-9.138,9.126s-9.132-4.092-9.132-9.126c0-3.636 2.142-6.75 5.22-8.226v-37.668h7.83v37.668c3.072,1.476 5.22,4.59 5.22,8.226zm13.044-44.364h33.924v-5.226h-33.924v5.226zm19.566,14.346v-33.924h-5.214v33.924h5.214zm-24.792,30.018c0,9.348-7.608,16.956-16.962,16.956s-16.962-7.614-16.962-16.956c0-5.748 2.982-11.142 7.824-14.256l.006-49.686c.024-5.022 4.11-9.102 9.132-9.102s9.12,4.08 9.138,9.102c0,.018 0,.03 0,.036v49.644c4.836,3.12 7.824,8.514 7.824,14.262zm-2.604,0c0-5.082-2.754-9.834-7.182-12.396l-.648-.372v-51.132c0-3.6-2.922-6.522-6.522-6.522-3.606,0-6.528,2.922-6.528,6.522v51.132l-.648,.372c-4.422,2.574-7.176,7.32-7.176,12.396 0,7.908 6.444,14.352 14.358,14.352 7.908,0 14.346-6.438 14.346-14.352z"/>
</svg>
