<svg width="96" xmlns="http://www.w3.org/2000/svg" height="96" viewBox="0 0 96 96" xmlns:xlink="http://www.w3.org/1999/xlink">
<path d="m37.569,79.038c0,5.04-4.092,9.132-9.138,9.132s-9.132-4.092-9.132-9.132c0-3.636 2.142-6.756 5.22-8.226v-21.786h7.836v21.786c3.066,1.47 5.214,4.584 5.214,8.226zm13.044-44.37h33.924v-5.22h-33.924v5.22zm-5.226,44.37c0,9.348-7.608,16.962-16.962,16.962s-16.962-7.614-16.962-16.962c0-5.748 2.988-11.142 7.83-14.25v-49.686c.024-5.022 4.11-9.102 9.138-9.102 5.022,0 9.114,4.074 9.132,9.102 0,.012 0,.024 0,.03v49.65c4.836,3.108 7.824,8.502 7.824,14.256zm-2.598,0c0-5.076-2.76-9.834-7.188-12.396l-.648-.372v-51.132c0-3.6-2.916-6.522-6.516-6.522-3.606,0-6.534,2.922-6.534,6.522v51.132l-.642,.372c-4.428,2.568-7.182,7.326-7.182,12.396 0,7.914 6.444,14.352 14.358,14.352 7.908-.006 14.352-6.438 14.352-14.352z"/>
</svg>
