<svg width="96" xmlns="http://www.w3.org/2000/svg" height="96" viewBox="0 0 96 96" xmlns:xlink="http://www.w3.org/1999/xlink">
<path d="m82.757,6.003c-2.652,0-4.824,2.166-4.824,4.83v19.656c1.17,.252 2.28,.75 3.174,1.62 2.556,2.502 2.622,6.624 .126,9.186l-9.144,9.402-1.248-1.218 9.156-9.372c1.83-1.896 1.788-4.92-.084-6.768-.594-.558-1.284-.948-2.028-1.158-.792-.222-1.62-.234-2.406-.072-.888,.222-1.686,.672-2.31,1.332-5.436,5.58-10.866,11.142-16.296,16.722-1.362,1.392-3.846,4.59-3.774,7.776 .072,2.994-.036,6.084 .018,9.09-.714-.582-1.566-1.008-2.544-1.176-2.802-.468-5.322,1.2-6.288,3.69h-1.416c0-.678 0-1.368 .012-2.046 .072-3.156-.054-6.408 .018-9.558 .072-3.186-2.412-6.378-3.774-7.776-5.43-5.58-10.86-11.142-16.296-16.722-.624-.654-1.416-1.11-2.31-1.332-.792-.162-1.614-.15-2.406,.072-.744,.21-1.434,.606-2.028,1.158-1.872,1.848-1.914,4.872-.084,6.768l9.156,9.372-1.248,1.218-9.144-9.402c-2.502-2.568-2.436-6.684 .126-9.186 .894-.87 2.004-1.368 3.174-1.62v-19.656c0-2.658-2.172-4.83-4.824-4.83-2.676,0-4.836,2.166-4.836,4.83v34.038c0,1.116 .438,2.124 1.104,2.952l16.44,21.714h-1.446c-3.204,0-5.814,2.61-5.814,5.814 0,2.136 1.206,3.918 2.922,4.926-1.716,1.02-2.922,2.802-2.922,4.932 0,3.21 2.61,5.814 5.814,5.814h1.77v3.252h16.14c.834,.816 1.824,1.446 3.012,1.644 .33,.054 .648,.084 .978,.084 2.832,0 5.244-2.034 5.724-4.83l.024-.15h1.032c.012,1.074 .006,2.13 .114,3.252h16.428v-3.252h1.77c3.204,0 5.814-2.604 5.814-5.814 0-2.13-1.206-3.912-2.922-4.932 1.716-1.008 2.922-2.79 2.922-4.926 0-3.204-2.61-5.814-5.814-5.814h-1.446l16.44-21.714c.666-.828 1.104-1.842 1.104-2.952v-34.038c0-2.664-2.16-4.83-4.836-4.83zm-61.158,69.342c-0-1.602 1.302-2.904 2.904-2.904h19.05l-1.002,5.814h-18.048c-1.596,0-2.904-1.302-2.904-2.91zm0,9.864c0-1.602 1.302-2.904 2.904-2.904h17.346l-1.002,5.814h-16.344c-1.596-.006-2.904-1.308-2.904-2.91zm27.66,5.466c-.27,1.584-1.926,2.622-3.36,2.376-.768-.132-1.434-.558-1.878-1.182-.45-.636-.624-1.41-.492-2.172l3.204-18.612c.246-1.398 1.464-2.412 2.904-2.412 .156,0 .318,.012 .456,.036 1.584,.27 2.64,1.776 2.37,3.36l-3.204,18.606zm25.14-5.466c0,1.602-1.302,2.904-2.904,2.904h-18.84l1.002-5.814h17.838c1.602,.006 2.904,1.308 2.904,2.91zm0-9.864c0,1.608-1.302,2.904-2.904,2.904h-17.142l.984-5.694c.006-.042-.006-.078 0-.12h16.158c1.602,.006 2.904,1.314 2.904,2.91z"/>
</svg>
