<svg width="96" xmlns="http://www.w3.org/2000/svg" height="96" viewBox="0 0 96 96" xmlns:xlink="http://www.w3.org/1999/xlink">
<path d="m6.561,14.436c5.37-4.128 23.376-8.436 42.192-8.436 20.712,0 38.706,3.834 42.18,8.436-2.994,5.25-30.468,8.436-42.18,8.436-11.724,0-39.666-2.364-42.192-8.436zm84.372,2.814c-6.63,5.202-23.706,8.13-42.18,8.436-20.82-.342-37.428-1.794-42.192-8.436-.042,.174-1.494,16.314 25.314,25.314 18.582,6.234 8.436,16.872 8.436,16.872s-20.142,19.128-2.814,25.314c10.86,3.87 9.828,9.108 8.442,11.25 10.524-13.254-19.47-15.6 14.058-30.936 17.208-7.872 19.368-12.456 14.064-19.686-6.948-9.498 15.408-13.308 16.872-28.128z"/>
</svg>
