<svg width="96" xmlns="http://www.w3.org/2000/svg" height="96" viewBox="0 0 96 96" xmlns:xlink="http://www.w3.org/1999/xlink">
<path d="m81.694,89.008h-10.308c-.33-2.298-.762-5.178-1.356-8.892-1.302-8.262-3.204-20.178-5.754-35.778v-21.072h3.762l-20.532-17.274-19.476,17.274h3.876v21.468h.126c-3.906,21.996-6.378,36.738-7.398,44.274h-10.254c-1.932,0-3.48,1.56-3.48,3.504 0,1.92 1.548,3.48 3.48,3.48h67.314c1.92,0 3.48-1.56 3.48-3.48-.006-1.944-1.566-3.504-3.48-3.504zm-17.226-7.644l-12.63-14.298 8.412-9.54 4.218,23.838zm-16.176-17.388l-11.376-12.678 .864-5.754 20.412-.048 .978,6.048-10.878,12.432zm-11.724-40.662h22.926v7.242h-22.926v-7.242zm-1.008,33.102l9.822,10.932-14.874,16.56 5.052-27.492zm-4.026,32.592l16.686-18.198 16.44,18.198h-33.126z"/>
</svg>
