<svg width="96" xmlns="http://www.w3.org/2000/svg" height="96" viewBox="0 0 96 96" xmlns:xlink="http://www.w3.org/1999/xlink">
<path d="m73.158,96h8.52l-15.126-22.458c2.892-.456 5.31-1.812 7.206-4.002 1.92-2.202 2.88-4.83 2.88-7.848v-43.872c0-3.246-1.158-6.03-3.48-8.37-2.334-2.322-5.178-3.474-8.532-3.474h-33.258c-3.372,0-6.21,1.152-8.532,3.474-2.334,2.34-3.48,5.124-3.48,8.37v43.872c0,3.018 .984,5.658 2.964,7.92 1.968,2.262 4.35,3.564 7.128,3.912l-15.126,22.446h8.52l1.452-2.148h47.4l1.464,2.178zm-5.058-29.778c-1.032,1.056-2.376,1.584-3.996,1.584-1.512,0-2.79-.528-3.846-1.584-1.044-1.05-1.572-2.376-1.572-4.002 0-1.506 .528-2.808 1.572-3.9 1.056-1.116 2.334-1.656 3.846-1.656 1.62,0 2.964,.558 3.996,1.656 1.044,1.11 1.572,2.394 1.572,3.9-.006,1.626-.528,2.952-1.572,4.002zm-41.43-47.292c0-1.626 .528-2.958 1.572-4.008 1.032-1.044 2.376-1.566 3.996-1.566h31.512c1.626,0 2.988,.522 4.104,1.566 1.116,1.05 1.65,2.382 1.65,4.008v14.04c0,1.626-.552,2.964-1.65,4.008-1.116,1.056-2.46,1.572-4.104,1.572h-31.512c-1.626,0-2.964-.516-3.996-1.572-1.044-1.044-1.572-2.376-1.572-4.008v-14.04zm1.218,47.292c-1.056-1.05-1.572-2.376-1.572-4.002 0-1.506 .516-2.808 1.572-3.9 1.056-1.116 2.376-1.656 4.008-1.656 1.5,0 2.778,.558 3.834,1.656 1.044,1.11 1.584,2.394 1.584,3.9 0,1.626-.54,2.952-1.584,4.002-1.056,1.056-2.334,1.584-3.834,1.584-1.626-.012-2.952-.54-4.008-1.584zm1.278,20.358l3.948-5.898h29.766l3.96,5.898h-37.674z"/>
</svg>
