<svg width="96" xmlns="http://www.w3.org/2000/svg" height="96" viewBox="0 0 96 96" xmlns:xlink="http://www.w3.org/1999/xlink">
<path d="m62.128,34.032v-21.846c.708-.654 1.188-1.578 1.188-2.628 0-1.956-1.596-3.552-3.564-3.552s-3.564,1.596-3.564,3.552c0,1.056 .48,1.968 1.194,2.628v21.528h-6.948v-7.86c0-1.302-1.074-2.358-2.376-2.358-1.314,0-2.37,1.056-2.37,2.358v7.86h-5.298v-4.344c0-1.956-1.602-3.54-3.558-3.54-1.95,0-3.552,1.584-3.552,3.54v5.016c-1.41,.828-2.418,2.304-2.418,4.05v19.104c0,2.604 .72,5.892 1.62,7.326 .894,1.434 1.62,4.722 1.62,7.332v19.092c0,2.604 2.13,4.734 4.734,4.734h18.444c2.61,0 4.734-2.13 4.734-4.734v-19.092c0-2.61 .726-5.892 1.626-7.332 .888-1.428 1.62-4.722 1.62-7.326v-19.104c.006-2.04-1.314-3.738-3.132-4.404zm-.096,22.92h-27.906v-2.376h27.906v2.376zm0-4.968h-27.906v-2.376h27.906v2.376zm0-4.98h-27.906v-2.376h27.906v2.376zm0-4.968h-27.906v-2.376h27.906v2.376z"/>
</svg>
