<svg width="96" xmlns="http://www.w3.org/2000/svg" height="96" viewBox="0 0 96 96" xmlns:xlink="http://www.w3.org/1999/xlink">
<path d="m70.824,96v-4.392h-61.926v-18h61.926v-4.536l16.29,13.464-16.29,13.464zm-61.932-38.388l6.15,1.56h7.566c0-1.842 .618-3.516 1.638-4.878h-15.36l.006,3.318zm70.602-15.27l-4.35-13.044v-3.258h-13.62v28.242h-24.282c1.032,1.374 1.644,3.048 1.644,4.878h25.386c0-4.5 3.648-8.136 8.148-8.136 3.162,0 5.892,1.818 7.248,4.452 .474,.93 .792,2.004 .864,3.12 .012,.186 .048,.372 .048,.576h6.516v-13.572l-7.602-3.258zm-14.124,0v-9.786h7.614l3.252,9.786h-10.866zm-34.608,10.86c-3.306,0-5.976,2.664-5.976,5.958 0,3.312 2.67,5.976 5.976,5.976 3.294,0 5.964-2.664 5.964-5.976 0-3.282-2.67-5.958-5.964-5.958zm0,9.228c-1.806,0-3.27-1.458-3.27-3.258 0-1.794 1.464-3.258 3.27-3.258 1.788,0 3.258,1.464 3.258,3.258 0,1.794-1.47,3.258-3.258,3.258zm41.676-9.228c-3.306,0-5.976,2.664-5.976,5.958 0,3.312 2.67,5.976 5.976,5.976 3.294,0 5.976-2.664 5.976-5.976 0-3.282-2.682-5.958-5.976-5.958zm0,9.228c-1.806,0-3.258-1.458-3.258-3.258 0-1.794 1.452-3.258 3.258-3.258 1.8,0 3.258,1.464 3.258,3.258 0,1.794-1.458,3.258-3.258,3.258zm-13.704-10.008h-49.842v-30.624h49.842v30.624z"/>
</svg>
