<svg width="96" xmlns="http://www.w3.org/2000/svg" height="96" viewBox="0 0 96 96" xmlns:xlink="http://www.w3.org/1999/xlink">
<path d="m3.006,83.514h17.67c-1.176,1.572-1.884,3.492-1.884,5.616h-8.694l-7.092-1.794v-3.822zm90-10.008v15.624h-7.5c0-.222-.03-.444-.048-.654-.084-1.284-.432-2.496-.99-3.6-1.554-3.036-4.698-5.112-8.34-5.112-5.178,0-9.378,4.194-9.378,9.366h-29.202c0-2.124-.708-4.044-1.89-5.616h27.936v-32.508h15.654v3.75l4.998,15 8.76,3.75zm-12.51-3.75l-3.738-11.25h-8.754v11.25h12.492zm-45.462,19.368c0,3.798-3.09,6.876-6.876,6.876-3.804,0-6.876-3.096-6.876-6.876s3.078-6.87 6.876-6.87 6.876,3.084 6.876,6.87zm-3.12,0c0-2.064-1.686-3.75-3.744-3.75-2.082,0-3.768,1.686-3.768,3.75 0,2.088 1.686,3.75 3.768,3.75 2.058,0 3.744-1.674 3.744-3.75zm51.09,0c0,3.798-3.09,6.876-6.876,6.876-3.804,0-6.876-3.096-6.876-6.876s3.09-6.87 6.876-6.87c3.786,.006 6.876,3.084 6.876,6.87zm-3.12,0c0-2.064-1.68-3.75-3.75-3.75-2.076,0-3.75,1.686-3.75,3.75 0,2.088 1.674,3.75 3.75,3.75 2.064,0 3.75-1.674 3.75-3.75zm-19.524-43.02h-57.366v35.25h57.366v-35.25z"/>
</svg>
