<svg width="96" xmlns="http://www.w3.org/2000/svg" height="96" viewBox="0 0 96 96" xmlns:xlink="http://www.w3.org/1999/xlink">
<path d="m24.462,81.27c-4.098,0-7.368,3.276-7.368,7.362 0,4.074 3.27,7.368 7.368,7.368 4.062,0 7.344-3.294 7.344-7.368 0-4.086-3.282-7.362-7.344-7.362zm-.018,11.034c-2.022,0-3.678-1.632-3.678-3.678 0-2.028 1.656-3.672 3.678-3.672 2.04,0 3.678,1.644 3.678,3.672 .006,2.034-1.638,3.678-3.678,3.678zm47.112-11.034c-4.074,0-7.368,3.276-7.368,7.362 0,4.074 3.294,7.368 7.368,7.368 4.062,0 7.362-3.294 7.362-7.368 0-4.086-3.3-7.362-7.362-7.362zm0,11.034c-2.04,0-3.684-1.632-3.684-3.678 0-2.028 1.644-3.672 3.684-3.672 2.028,0 3.672,1.644 3.672,3.672 .006,2.028-1.644,3.678-3.672,3.678zm10.158-23.442l-6.588-13.092c-1.158-2.31-4.23-4.2-6.822-4.2h-60.6c-2.586,0-4.704,2.124-4.704,4.704v34.644h12.648c-.186-.738-.336-1.5-.336-2.304 0-5.04 4.104-9.126 9.138-9.126 5.016,0 9.12,4.098 9.12,9.126 0,.804-.138,1.566-.33,2.304h29.508c-.186-.738-.33-1.5-.33-2.304 0-5.04 4.092-9.126 9.126-9.126 5.028,0 9.126,4.098 9.126,9.126 0,.804-.132,1.566-.33,2.304h12.636v-10.2c.024-2.586-3.852-10.986-11.262-11.856zm-59.52,0h-15.6v-13.806h15.6v13.806zm17.994,0h-15.606v-13.806h15.606v13.806zm17.988,0h-15.594v-13.806h15.594v13.806zm4.464,0v-13.806h4.65c1.65,0 3.618,1.206 4.356,2.676l5.598,11.124-14.604,.006z"/>
</svg>
