<svg width="96" xmlns="http://www.w3.org/2000/svg" height="96" viewBox="0 0 96 96" xmlns:xlink="http://www.w3.org/1999/xlink">
<path d="m55.875,32.034c5.904,2.022 13.746,4.404 15.414-5.142 1.32-7.41 11.214-4.662 15.432-5.142 7.632-.876 1.872-15.216-7.716-15.426-9.708-.21-14.124,4.05-18,12.858-1.842,4.23-3.42,7.422-10.278,5.142-6.858-2.286-11.874,3.348-7.71,10.284 3.69,6.15-.06,12.858-.06,12.858h10.344c0,0-.084-3.822-2.574-7.716-2.904-4.548-.906-9.804 5.148-7.716zm-54.792,63.966c26.604-19.392 33.246-46.188 33.246-46.188h27.342c0,0 6.642,26.796 33.246,46.188h-93.834z"/>
</svg>
