<svg width="96" xmlns="http://www.w3.org/2000/svg" height="96" viewBox="0 0 96 96" xmlns:xlink="http://www.w3.org/1999/xlink">
<path d="m78.96,12l-2.658,18.15c-4.044-.558-7.182-4.002-7.182-8.196 0-.828-.666-1.5-1.5-1.5-.822,0-1.5,.672-1.5,1.5 0,4.584-3.726,8.31-8.31,8.31s-8.31-3.726-8.31-8.31c0-.828-.666-1.5-1.5-1.5-.822,0-1.5,.672-1.5,1.5 0,4.584-3.726,8.31-8.31,8.31s-8.31-3.726-8.31-8.31c0-.828-.666-1.5-1.5-1.5-.822,0-1.5,.672-1.5,1.5 0,4.194-3.138,7.632-7.182,8.19l-2.658-18.144h-8.1l12.282,84h53.556l12.282-84h-8.1zm-11.112,75.966h-39.702l-8.028-54.912c3.516-.498 6.564-2.514 8.262-5.472 1.956,3.39 5.628,5.682 9.81,5.682 4.194,0 7.866-2.292 9.81-5.682 1.956,3.39 5.628,5.682 9.81,5.682 4.194,0 7.866-2.292 9.81-5.682 1.698,2.958 4.746,4.98 8.262,5.472l-8.034,54.912z"/>
</svg>
