<svg width="96" xmlns="http://www.w3.org/2000/svg" height="96" viewBox="0 0 96 96" xmlns:xlink="http://www.w3.org/1999/xlink">
<path d="m77.968,58.627c1.68,3.366 9.246,21 9.246,23.532 0,13.842-18.486,13.842-18.486,0 0-2.532 7.566-21.012 9.24-23.532zm10.926-9.39c0-1.908 0-5.088 0-10.674 0-6.762-6.138-12.606-14.28-12.606 0,0-.048,0-19.014,0l-.114-5.934c0-1.704-1.38-3.096-3.102-3.096h-7.434v-3.816c.642-.372 1.176-.858 1.626-1.44 2.226,0 6.75,0 15.834,0 1.062,1.362 2.628,2.304 4.476,2.304 3.144,0 5.718-2.556 5.718-5.718s-2.574-5.73-5.718-5.73c-1.89,0-3.498,1.002-4.536,2.424-2.502,0-7.182,0-15.696,0-1.062-1.422-2.646-2.424-4.548-2.424-1.884,0-3.498,1.002-4.542,2.424-4.86,0-10.62,0-17.334,0-1.038-1.422-2.628-2.424-4.524-2.424-3.162,0-5.724,2.562-5.724,5.73 0,3.162 2.562,5.718 5.724,5.718 1.842,0 3.408-.942 4.446-2.304 2.868,0 8.088,0 17.478,0 .456,.6 1.002,1.086 1.65,1.446v3.81h-7.884c-1.704,0-3.102,1.386-3.102,3.096v5.934c-1.932,0-7.494,0-23.106,0v18.486c.546,0 4.29,0 25.698,0 2.52,5.052 5.874,7.554 10.92,7.554 5.04,0 9.234-2.502 11.76-7.554 0,0 0,0 9.246,0 2.76,0 3.78,1.776 4.074,5.172-.81,.558-1.374,1.446-1.374,2.502 0,1.71 1.386,3.102 3.102,3.102h19.176c1.71,0 3.108-1.386 3.108-3.102 .03-1.332-.816-2.442-2.004-2.88z"/>
</svg>
