<svg width="96" xmlns="http://www.w3.org/2000/svg" height="96" viewBox="0 0 96 96" xmlns:xlink="http://www.w3.org/1999/xlink">
<path d="m40.152,54.174c1.074,2.124 5.874,13.326 5.874,14.928 0,8.778-11.736,8.778-11.736,0 .006-1.608 4.794-13.344 5.862-14.928zm6.936-4.968c0-1.218 0-3.24 0-6.768 0-4.308-3.9-8.01-9.066-8.01 0,0-.03,0-12.066,0l-.066-3.75c0-1.098-.882-1.968-1.968-1.968h-4.716v-2.412c.402-.252 .744-.546 1.032-.93 1.416,0 4.284,0 10.056,0 .66,.876 1.662,1.464 2.832,1.464 2.004,0 3.63-1.626 3.63-3.636 0-1.98-1.626-3.618-3.63-3.618-1.206,0-2.214,.624-2.874,1.536-1.596,0-4.56,0-9.96,0-.66-.912-1.668-1.536-2.874-1.536s-2.22,.624-2.88,1.536c-3.078,0-6.732,0-10.992,0-.654-.912-1.68-1.536-2.874-1.536-2.01,0-3.642,1.632-3.642,3.618 0,2.01 1.632,3.636 3.642,3.636 1.164,0 2.16-.594 2.826-1.464 1.818,0 5.118,0 11.094,0 .282,.39 .63,.69 1.044,.936v2.406h-5.01c-1.08,0-1.962,.876-1.962,1.968v3.75c-1.224,0-4.752,0-14.658,0v11.73c.354,0 2.73,0 16.308,0 1.602,3.21 3.732,4.8 6.942,4.8 3.186,0 5.856-1.59 7.458-4.8 0,0 0,0 5.856,0 1.758,0 2.4,1.128 2.592,3.294-.51,.348-.876,.906-.876,1.59 0,1.092 .882,1.944 1.968,1.944h12.174c1.092,0 1.962-.858 1.962-1.944-.012-.852-.552-1.56-1.302-1.836zm1.812,33.912c-.168,.84-.156,1.716 .096,2.562 .21,.792 .63,1.53 1.212,2.142 1.968,1.992 5.184,2.04 7.2,.102l9.978-9.732 1.284,1.314-9.99,9.732c-2.724,2.646-7.104,2.586-9.78-.132-.924-.948-1.44-2.13-1.722-3.372h-20.88c-2.838,0-5.142,2.304-5.142,5.124 0,2.85 2.31,5.142 5.142,5.142h36.18c1.176,0 2.256-.462 3.144-1.176l23.55-17.826h12.822v-17.472h-.108v-.168h-29.7l-21.864,21.3c-.696,.666-1.182,1.512-1.422,2.46z"/>
</svg>
