<svg width="96" xmlns="http://www.w3.org/2000/svg" height="96" viewBox="0 0 96 96" xmlns:xlink="http://www.w3.org/1999/xlink">
<path d="m3,6v90h90v-90h-90zm83.85,35.694h-23.952v-12.774h23.952v12.774zm-25.8,16.782h-26.1v-14.94h26.1v14.94zm-26.1-16.782v-12.774h26.094v12.774h-26.094zm-4.002-12.774h2.154v12.774h-23.952v-12.774h21.798zm2.16,14.61v14.94h-23.952v-14.94h23.952zm-23.958,16.782h23.952v14.916h-23.952v-14.916zm25.8,0h26.1v14.916h-26.1v-14.916zm27.942,0h23.952v14.916h-23.952v-14.916zm-0-1.836v-14.94h23.952v14.94h-23.952zm-53.742,31.368v-12.762h23.952v12.762h-23.952zm25.8,0v-12.762h26.1v12.762h-26.1zm27.942-12.762h23.952v12.762h-23.952v-12.762z"/>
</svg>
