<svg width="96" xmlns="http://www.w3.org/2000/svg" height="96" viewBox="0 0 96 96" xmlns:xlink="http://www.w3.org/1999/xlink">
<path d="m33.352,64.966c-8.952-3.708-16.818-4.044-24.036-1.044l-.444-1.098c7.524-3.12 15.69-2.772 24.936,1.05l-.456,1.092zm.456,6.066c-9.234-3.816-17.412-4.158-24.936-1.05l.444,1.092c7.242-2.988 15.096-2.646 24.036,1.05l.456-1.092zm-0-14.316c-9.234-3.816-17.412-4.158-24.936-1.056l.444,1.098c7.242-2.994 15.096-2.652 24.036,1.05l.456-1.092zm39.834,14.124l3.588-3.594v27.156h-30.702c-1.068,.906-3.564,1.554-6.48,1.554s-5.412-.642-6.468-1.554h-30.714v-41.874c0-3.708 0-6.132 0-6.27 20.214-8.778 34.98-.168 37.548,2.316 1.794-1.656 14.85-9.348 31.854-4.14l-3.42,3.42c-2.37-.684-4.992-1.11-7.794-1.11-10.146,0-18.384,3.366-18.384,9.594v35.07c0-1.644 14.37-11.286 30.984-.762v-19.806zm-35.988-14.502c0-6.228-8.238-9.594-18.384-9.594-4.872,0-9.306,1.164-12.588,3.066v40.836c16.596-10.524 30.972-.882 30.972,.762v-35.07zm7.326,7.536l.444,1.092c3.528-1.464 7.158-2.256 10.734-2.676l.516-1.242c-3.894,.39-7.854,1.236-11.694,2.826zm0,7.158l.444,1.092c2.52-1.038 5.088-1.752 7.662-2.262l.504-1.254c-2.88,.522-5.79,1.26-8.61,2.424zm0-14.316l.444,1.092c5.412-2.238 11.064-3.126 16.362-2.898l1.116-1.116c-5.772-.414-11.994,.462-17.922,2.922zm46.602-7.565l-21.81,21.804-5.604,2.292c-1.29,.51-3.096,1.254-4.638,1.872-.42,.174-.924,.372-1.266,.516l-2.658,1.092c-1.62,.648-2.412-.132-1.746-1.764l1.068-2.652c.15-.348 .354-.84 .528-1.266 .63-1.542 1.362-3.366 1.872-4.632l2.298-5.61 21.798-21.804c1.338-1.344 3.198-1.674 4.128-.738l6.774,6.774c.918,.93 .594,2.778-.744,4.116zm-25.044,21.149l-6.27-6.276-1.242,3.072-.726,1.776-.702,1.734 2.37,2.376 3.528-1.434 3.042-1.248z"/>
</svg>
