<svg width="96" xmlns="http://www.w3.org/2000/svg" height="96" viewBox="0 0 96 96" xmlns:xlink="http://www.w3.org/1999/xlink">
<path d="m29.088,35.328v3.168l.576,1.536v14.976h-6.144v-14.976l.576-1.536v-3.168h4.992zm.672,20.64v1.344l-.48,.576h-5.28l-.576-.576v-1.344h6.336zm-3.168-31.968q.288,0 .576,.384 1.824,3.648 1.824,9.984h-4.704q0-6.336 1.824-9.984 .096-.384 .48-.384zm13.056,11.328v3.168l.576,1.536v14.976h-6.144v-14.976l.576-1.536v-3.168h4.992zm.672,20.64v1.344l-.48,.576h-5.28l-.576-.576v-1.344h6.336zm-3.168-31.968q.288,0 .576,.384 1.824,3.648 1.824,9.984h-4.704q0-6.336 1.824-9.984 .096-.384 .48-.384zm13.152,11.232v3.168l.576,1.536v14.976h-6.144v-14.976l.576-1.536v-3.168h4.992zm.672,20.64v1.344l-.48,.576h-5.28l-.576-.576v-1.344h6.336zm-3.168-31.968q.288,0 .576,.384 1.824,3.648 1.824,9.984h-4.704q0-6.336 1.824-9.984 .096-.384 .48-.384zm13.056,11.328v3.168l.576,1.536v14.976h-6.144v-14.976l.576-1.536v-3.168h4.992zm.672,20.64v1.344l-.48,.576h-5.28l-.576-.576v-1.344h6.336zm-3.168-31.968q.288,0 .576,.384 1.824,3.648 1.824,9.984h-4.704q0-6.336 1.824-9.984 .096-.384 .48-.384zm-50.592,11.424v3.168l.576,1.536v14.976h-6.144v-14.976l.576-1.536v-3.168h4.992zm.672,20.64v1.344l-.48,.576h-5.28l-.576-.576v-1.344h6.336zm-3.168-31.968q.288,0 .576,.384 1.824,3.648 1.824,9.984h-4.704q0-6.336 1.824-9.984 .096-.384 .48-.384zm13.056,11.328v3.168l.576,1.536v14.976h-6.144v-14.976l.576-1.536v-3.168h4.992zm.672,20.64v1.344l-.48,.576h-5.28l-.576-.576v-1.344h6.336zm-3.168-31.968q.288,0 .576,.384 1.824,3.648 1.824,9.984h-4.704q0-6.336 1.824-9.984 .096-.384 .48-.384zm55.68,11.328v3.168l.576,1.536v14.976h-6.144v-14.976l.576-1.536v-3.168h4.992zm.672,20.64v1.344l-.48,.576h-5.28l-.576-.576v-1.344h6.336zm-3.168-31.968q.288,0 .576,.384 1.824,3.648 1.824,9.984h-4.704q0-6.336 1.824-9.984 .096-.384 .48-.384zm13.152,11.232v3.168l.576,1.536v14.976h-6.144v-14.976l.576-1.536v-3.168h4.992zm.672,20.64v1.344l-.48,.576h-5.28l-.576-.576v-1.344h6.336zm-3.168-31.968q.288,0 .576,.384 1.824,3.648 1.824,9.984h-4.704q0-6.336 1.824-9.984 .096-.384 .48-.384zm13.056,11.328v3.168l.576,1.536v14.976h-6.144v-14.976l.576-1.536v-3.168h4.992zm.672,20.64v1.344l-.48,.576h-5.28l-.576-.576v-1.344h6.336zm-3.168-31.968q.288,0 .576,.384 1.824,3.648 1.824,9.984h-4.704q0-6.336 1.824-9.984 .096-.384 .48-.384z"/>
</svg>
