<svg width="39" xmlns="http://www.w3.org/2000/svg" height="96" viewBox="0 0 39 96" xmlns:xlink="http://www.w3.org/1999/xlink">
<path d="m25.248,30.24h-3.168l-1.536,.576h-14.976v-6.144h14.976l1.536,.576h3.168v4.992zm-20.64,.672h-1.344l-.576-.48v-5.28l.576-.576h1.344v6.336zm31.968-3.168q0,.288-.384,.576-3.648,1.824-9.984,1.824v-4.704q6.336,0 9.984,1.824 .384,.096 .384,.48zm-11.328,13.056h-3.168l-1.536,.576h-14.976v-6.144h14.976l1.536,.576h3.168v4.992zm-20.64,.672h-1.344l-.576-.48v-5.28l.576-.576h1.344v6.336zm31.968-3.168q0,.288-.384,.576-3.648,1.824-9.984,1.824v-4.704q6.336,0 9.984,1.824 .384,.096 .384,.48zm-11.232,13.152h-3.168l-1.536,.576h-14.976v-6.144h14.976l1.536,.576h3.168v4.992zm-20.64,.672h-1.344l-.576-.48v-5.28l.576-.576h1.344v6.336zm31.968-3.168q0,.288-.384,.576-3.648,1.824-9.984,1.824v-4.704q6.336,0 9.984,1.824 .384,.096 .384,.48zm-11.328,13.056h-3.168l-1.536,.576h-14.976v-6.144h14.976l1.536,.576h3.168v4.992zm-20.64,.672h-1.344l-.576-.48v-5.28l.576-.576h1.344v6.336zm31.968-3.168q0,.288-.384,.576-3.648,1.824-9.984,1.824v-4.704q6.336,0 9.984,1.824 .384,.096 .384,.48zm-11.424-50.592h-3.168l-1.536,.576h-14.976v-6.144h14.976l1.536,.576h3.168v4.992zm-20.64,.672h-1.344l-.576-.48v-5.28l.576-.576h1.344v6.336zm31.968-3.168q0,.288-.384,.576-3.648,1.824-9.984,1.824v-4.704q6.336,0 9.984,1.824 .384,.096 .384,.48zm-11.328,13.056h-3.168l-1.536,.576h-14.976v-6.144h14.976l1.536,.576h3.168v4.992zm-20.64,.672h-1.344l-.576-.48v-5.28l.576-.576h1.344v6.336zm31.968-3.168q0,.288-.384,.576-3.648,1.824-9.984,1.824v-4.704q6.336,0 9.984,1.824 .384,.096 .384,.48zm-11.328,55.68h-3.168l-1.536,.576h-14.976v-6.144h14.976l1.536,.576h3.168v4.992zm-20.64,.672h-1.344l-.576-.48v-5.28l.576-.576h1.344v6.336zm31.968-3.168q0,.288-.384,.576-3.648,1.824-9.984,1.824v-4.704q6.336,0 9.984,1.824 .384,.096 .384,.48zm-11.232,13.152h-3.168l-1.536,.576h-14.976v-6.144h14.976l1.536,.576h3.168v4.992zm-20.64,.672h-1.344l-.576-.48v-5.28l.576-.576h1.344v6.336zm31.968-3.168q0,.288-.384,.576-3.648,1.824-9.984,1.824v-4.704q6.336,0 9.984,1.824 .384,.096 .384,.48zm-11.328,13.056h-3.168l-1.536,.576h-14.976v-6.144h14.976l1.536,.576h3.168v4.992zm-20.64,.672h-1.344l-.576-.48v-5.28l.576-.576h1.344v6.336zm31.968-3.168q0,.288-.384,.576-3.648,1.824-9.984,1.824v-4.704q6.336,0 9.984,1.824 .384,.096 .384,.48z"/>
</svg>
