<svg width="41" xmlns="http://www.w3.org/2000/svg" height="96" viewBox="0 0 41 96" xmlns:xlink="http://www.w3.org/1999/xlink">
<path d="m15.84,27.648l.96-3.936q.288-1.536 2.4-1.536h1.152l-.192,5.568q0,.96-.768,1.632-1.632,1.344-2.016,3.168-.48,1.536-.768,4.32-.096,.768-1.152,.768h-5.28q-.768,0-1.008-.72t.048-1.296l.96-3.264q.768-1.92 2.688-2.688-2.016,0-3.648-.768-3.84,8.64-3.84,17.76 0,9.216 3.744,15.264 .288,.48 .096,.816t-.672,.336q-.672,0-1.056-.576-4.416-5.952-4.416-17.76 0-9.216 3.744-17.472-2.304-2.112-2.304-5.184t2.4-5.328 5.856-2.256q.288,0 .816,.048t.624,.048v-.48q0-.96 .768-1.632t2.016-.672h14.016q2.976,0 2.976,3.072l-.576,.48h-2.4q-2.496,0-2.496,2.112v2.88l-.672,.576h-12.864l-.768-.672q-2.592,3.36-4.416,7.392 1.344,.672 2.976,.672 1.824,0 3.072-.672zm-9.984-5.568q0,1.92 1.536,3.84 2.688-5.472 6.336-9.984l-.96-.096q-2.88,0-4.896,1.872t-2.016,4.368zm13.248,25.344h8.064q1.632,0 1.44,1.44 0,1.44-.192,4.128 0,1.056-1.344,1.056h-7.872q-1.248,0-1.344-1.056 0-.192-.288-4.128 0-1.44 1.536-1.44zm9.024,8.832q-.096,.768-.336,2.016t-.336,1.824q-.192,.864-1.152,.864h-6.24q-1.056,0-1.152-.864-.576-2.496-.768-3.84 0-.864 .96-.864h8.064q.96,0 .96,.864zm.384-15.744q.192,2.88 .192,4.224t-1.536,1.344h-8.064q-1.536,0-1.536-1.344 0-2.112 .288-4.224 0-1.44 1.44-1.44h7.68q1.44,0 1.536,1.44zm-2.016,21.792q.48,0 .288,.48-.096,.48-1.056,3.072-.192,.48-1.152,.48h-2.88q-.96,0-1.152-.48-.192-.384-.48-1.392t-.576-1.68q-.192-.48 .48-.48h6.528zm-7.488-24.672q-.96,0-.864-.864t.576-3.936q.768-1.728 1.728-2.592 1.152-.864 1.152-2.496l.192-5.568h2.592l.288,5.568q0,1.536 1.056,2.496 1.536,1.248 1.728,2.592 .192,.576 .672,3.936 .096,.864-.768,.864h-8.352zm-9.024,1.44h4.992q1.344,0 1.344,1.344-.192,2.88-.192,4.416 0,.48-.384,.864t-.864,.384h-4.896q-1.44,0-1.44-1.728v-3.648q0-1.632 1.44-1.632zm27.744,5.28q0,1.728-1.44,1.728h-4.896q-.48,0-.912-.384t-.432-.864q0-2.976-.096-4.416-.192-1.344 1.248-1.344h5.088q1.44,0 1.44,1.632v3.648zm-20.736,17.952q.864,0 1.056,.576 .288,1.344 .96,2.784-2.016,.576-2.592-.288l-1.536-1.824q-.384-.48-.288-.864t.48-.384h1.92zm14.208-0q.384,0 .48,.384t-.288,.864l-1.536,1.824q-.48,.864-2.496,.288 .672-1.824 .864-2.784 .384-.576 1.056-.576h1.92zm-13.824-2.112q.096,.48-.096,.624t-.768,.144h-2.88q-.768,0-.96-.672l-1.344-2.976q-.672-1.92 .768-1.92h3.744q.672,0 .96,.864 0,.384 .576,3.936zm16.704-4.8q1.632,0 .864,1.92l-1.248,2.976q-.48,.672-.96,.672h-2.976q-.576,0-.768-.144t-.096-.624q.576-2.496 .672-3.936 .192-.864 1.056-.864h3.456zm-3.552-27.936q.384,1.248 1.536,1.632 3.36,1.152 4.032,3.072l.96,3.456q.384,.576 .096,1.296t-1.056,.72h-5.28q-1.056,0-1.152-.768-.288-2.784-.768-4.32-.384-2.016-2.112-3.264-.672-.48-.672-1.536l-.288-5.568h1.248q2.016,0 2.496,1.632zm-14.4,30.24h-3.648q-1.536,0-1.728-1.152l-.864-3.552q-.192-1.92 1.152-1.92h4.896q1.248,0 1.248,1.152 0,1.536 .192,4.224 0,1.248-1.248,1.248zm21.024-6.624q1.344,0 1.152,1.92l-.864,3.552q-.192,1.152-1.632,1.152h-3.744q-1.248,0-1.152-1.248 .096-.672 .144-2.064t.048-2.16q0-1.152 1.152-1.152h4.896zm-19.2-30.432q0,.576 .432,1.008t1.104,.432 1.152-.432 .48-1.008-.48-1.008-1.152-.432-1.104,.432-.432,1.008z"/>
</svg>
