<svg width="162" xmlns="http://www.w3.org/2000/svg" height="96" viewBox="0 0 162 96" xmlns:xlink="http://www.w3.org/1999/xlink">
<path d="m93.216,40.128q1.344-1.536 1.344-2.88 0-2.976-3.84-4.128l-6.528-1.248q-1.344-.288-1.632-.912t-.288-1.872v-.672h57.792v7.296q-16.416,2.688-46.848,4.416zm-69.408,29.952q-0,1.248-3.168,1.92t-7.584,.672q-4.224,0-7.44-.672t-3.408-1.824q.096-.576 .432-1.776t.432-1.872q2.976,1.44 10.176,1.44 1.44,0 3.936-.192 4.32-.288 6.336-1.44 .288,3.456 .288,3.744zm136.128-40.32q0,1.056-1.152,1.056h-2.016v-2.88q0-.672-.576-.672h-74.112q-.96,0-.96,1.056v.864q0,.96 .096,1.488t.768,1.248 2.016,1.008l6.432,1.248q3.072,.864 3.072,3.168 0,1.152-1.056,2.064t-2.784,1.008q-19.776,.96-28.32,.96-1.248,0-.672,1.44 .48,1.44 .48,2.592 0,2.976-2.64,5.136t-7.248,2.16q-6.912,0-9.888-4.224-2.88-3.936-5.664-3.936-.864,0-1.728,.384-5.76,2.592-8.64,6.336t-2.88,7.584q0,2.496 .768,6.144 .096,.288-.192,.48-.864,.576-4.368,1.008t-5.328,.432q-7.584,0-9.984-1.44 5.376-19.968 17.856-30.288t33.888-12.528q-.192-1.344-.192-2.592 0-2.208 .432-7.056t.432-5.136q.288-1.632 1.152-1.632 .96,0 1.248,1.44 0,.192 .048,.672t.048,.768q0,.864-.288,2.736t-.288,3.12q0,3.168 1.92,3.168 .672,0 1.344-.672 2.112-2.304 4.512-2.304 3.072,0 5.088,3.84l-.288,.96-3.456,2.016h92.064q1.056,0 1.056,.96v6.816zm-104.928-1.152q-.96,0-1.632,.624t-.672,1.584 .672,1.632 1.632,.672q1.056,0 1.68-.624t.624-1.68q0-.96-.672-1.584t-1.632-.624zm4.608,16.704q0-2.592-2.496-3.648-1.728-.288-3.168-.288-2.304,0-2.592,.768-.672,1.728-.672,3.36 0,1.728 .672,2.976 .192,.288 0,.624t-.48,.336q-.48,0-.576-.384-1.248-1.824-1.248-3.936v-1.44q0-2.112-2.208-1.92-4.32,.48-8.736,1.632 1.824,.864 3.36,2.592 .384-1.632 2.016-2.592 .768-.192 .768,.384 0,.288-.192,.48-1.152,1.344-1.152,2.592 0,1.056 .576,1.728 2.112,2.592 7.776,2.592 3.84,0 6.096-1.776t2.256-4.08zm-10.368-12.384q0-.768-.576-.768-.672,0-.576,.864 .192,2.016 1.872,3.552t4.176,1.536q2.4,0 4.176-1.008t2.688-2.304 1.488-3.648 .72-3.888 .336-4.224v-1.056h2.304q-.576-1.632-1.824-1.632-1.44,0-1.536,1.728v.96q-.192,2.784-.336,4.032t-.672,3.552-1.296,3.408-2.352,2.016-3.696,.912q-2.016,0-3.36-1.248t-1.536-2.784zm106.464-4.512l.096,2.304q-.096,1.344-3.648,2.448t-11.04,2.448v-7.2h14.592z"/>
</svg>
