<svg width="286" xmlns="http://www.w3.org/2000/svg" height="96" viewBox="0 0 286 96" xmlns:xlink="http://www.w3.org/1999/xlink">
<path d="m162.528,19.488q-3.168,0-4.416-2.016h20.64v2.208q0,1.248-1.248,1.248-1.056,0-1.344-.96l-.48-.48h-13.152zm120.192-2.592l.48,.48v7.008l-.48,.48h-13.44l-.288,.48h-4.512l-.288-.384v-1.248l-40.704,.768q0,1.344 1.056,2.304l11.328-.096q.672,0 .864,.72t-.672,1.296q-1.92,.96-2.544,2.688t.048,2.784q.576,1.632-1.152,2.016-1.44,.192-2.064,2.064t.432,3.504q.384,.48 0,1.152t-1.344,.576q-2.592-.192-4.224,1.584t-.864,4.08q.576,1.632-1.248,1.632-2.016,.192-3.264,1.872t-.672,3.792q.192,.672-.336,1.2t-1.392,.624q-2.4,.096-3.36,2.4t.864,4.8q.48,.48 .288,1.392t-1.152,.912q-3.744,0-5.952-.96-8.448-3.84-8.448-12.192 0-4.608 4.704-9.504l4.8-5.184q2.016-1.92 2.016-4.416 0-1.824-1.296-3.072t-3.696-1.248q-4.896,0-16.032,6.528h-.864l-.96-7.872-.48-.384h-11.424l-.576,.576v50.976l-.672,.672h-15.744l-.768-.96v-31.68h-18.048q-4.032,0-5.952,2.688l-4.992,6.912q-.96,1.056-.288,3.936 .192,1.056-.672,1.152-2.016,.48-3.264,2.544t-.576,4.08q.288,1.152-.096,1.632t-1.824,.48q-5.856,0-9.168-3.744t-3.312-8.544q0-3.072 1.44-5.376 .576-.96 3.696-4.608t4.176-5.472q1.056-1.92 1.056-4.224 0-2.976-1.68-5.088t-4.848-2.112h-8.64q0,3.936-3.36,7.152t-8.832,4.56l-12.672,3.168q-8.832,2.208-18.288,6.912t-17.04,9.744-14.736,9.744-13.68,7.776-11.52,3.072q-3.168,0-2.88-3.072 .864-7.2 .864-17.76 0-9.12-.768-14.304-.576-3.264 2.976-4.416l52.32-12.864q3.264-.768 4.608,1.92 .48,.96 1.536,.48 7.104-3.168 12-3.168v-12.384q0-1.92 2.112-1.92l.864-3.264q1.056-3.072 4.416-3.072h14.88q3.552,0 4.416,3.072l.768,2.784h22.752q0-1.248-.288-2.16t-.288-1.488q0-1.824 2.4-1.824 2.496,0 2.496,1.824 0,.576-.288,1.488t-.288,2.16h26.784q1.536,2.976 5.568,2.976h12.672q.576,1.44 2.304,1.44 2.208,0 2.208-2.208v-2.208h8.16l76.32,.864v-2.784q0-.576 .288-.96t.288-.576v-1.056l.288-.192h.48q.672,0 1.728,1.2t1.056,1.968v.48h.672l.288,.48h2.4v2.208h.96v-2.208h2.4v2.208h.96v-2.208h2.4v2.208h.96v-2.208h3.36zm-185.856-1.152v-1.632h-12.288v1.632h12.288zm54.144,31.296q2.016,0 3.408-1.44t1.392-3.456q0-1.92-1.392-3.36t-3.408-1.44h-1.728q-3.84,1.728-3.84,4.992 0,1.92 1.92,4.032l-.576,.192q-2.976-1.44-2.976-6.048-.672-1.248-2.304-1.728-1.44,1.44-1.44,3.36 0,2.016 1.44,3.456t3.456,1.44h6.048zm69.792-20.256q1.152-.864 1.152-2.208l-32.928,.576-.48,.576v.864l.384,.384z"/>
</svg>
