<svg width="263" xmlns="http://www.w3.org/2000/svg" height="96" viewBox="0 0 263 96" xmlns:xlink="http://www.w3.org/1999/xlink">
<path d="m259.008,20.448q0,1.056-1.056,1.056h-63.84v1.248h62.304q1.152,0 1.152,.96v5.184q0,1.056-1.152,1.056l-62.4,.384q0,2.208-.864,3.312t-3.072,1.104l-11.328,.192v-12.768h-1.056v12.768l-3.168,.096v-12.864h-1.056v12.864h-3.168v-12.864h-1.056v12.96h-3.168v-12.96h-1.056v12.96l-3.168,.096v-13.056h-1.056v13.056h-3.168v-13.056h-1.056v13.152h-3.168v-13.152h-1.056v13.152l-3.168,.096v-13.248h-1.056v13.248h-3.264v-13.248h-.96v13.248l-3.264,.096v-13.344h-1.056v13.344l-12.288,.192q-3.84,0-3.84-3.744l-33.216,.288q0,.864-.768,.864l-27.36,.384q-4.032,.096-6.144,1.248t-3.36,4.128q-1.44,3.168-3.312,4.176t-5.904,1.008h-2.976q-3.936,0-5.76-1.344-.48-.48-1.248-.48h-.672q-2.784,0-4.848,2.16t-2.064,4.656q0,.672 .384,1.824 .192,.576 .192,.864 0,1.056-1.248,1.152-1.152,.192-1.824,1.728t-.288,3.168q.576,1.44-1.056,1.92-2.4,.672-3.456,3.168-.48,1.344-1.344,1.872t-2.784,.336l-8.736-.864q-3.072-.384-3.072-3.36 0-2.688 1.104-5.472t1.824-3.888 3.408-4.272 2.784-3.264q2.592-3.072 2.592-6.432 0-2.4-1.344-4.8l-2.592-4.8q-.48-.864-.48-1.632 0-1.056 1.248-1.92 7.872-5.28 19.488-8.736t22.272-3.456h35.712q.96,0 .96,.672h116.064q.96,0 .96,.768h45.6q.384-1.248 1.824-1.248 1.152,0 1.632,1.248h2.304q1.056,0 1.056,.96v5.856zm-213.216,22.176q2.304,0 3.504-1.2t1.2-2.928-1.2-3.024-3.312-1.296h-3.456q-1.92,0-3.168,1.248t-1.248,2.88 1.248,2.496q.384,.384 .384,.576 0,.48-.576,.288-2.88-.576-2.88-4.128 0-.864 .288-1.728 .288-.96-.48-.96-.288,0-.576,.384-.672,.96-.672,2.592 0,1.824 1.056,3.312t2.592,1.488h7.296zm38.4-22.272v-1.632q0-1.728-1.056-2.304v3.936q0,1.728-2.016,1.728h-19.488q-2.016,0-2.016-1.728v-3.936q-1.056,.576-1.056,2.304v1.632q0,2.784 3.072,2.784h19.488q3.072,0 3.072-2.784zm31.776-5.28q-1.92,0-1.92,1.056 0,1.152 1.92,1.152t1.92-1.152q0-1.056-1.92-1.056zm-8.352,0q-1.92,0-1.92,1.056 0,1.152 1.92,1.152 1.824,0 1.824-1.152 0-1.056-1.824-1.056zm-8.352,0q-1.92,0-1.92,1.056 0,1.152 1.92,1.152 1.824,0 1.824-1.152 0-1.056-1.824-1.056zm24.192,7.488v-1.152h-31.008v1.152h31.008zm.864-5.28q1.92,0 1.92-1.152 0-1.056-1.92-1.056t-1.92,1.056q0,1.152 1.92,1.152zm8.352,0q1.92,0 1.92-1.152 0-1.056-1.92-1.056t-1.92,1.056q0,1.152 1.92,1.152zm8.352,0q1.92,0 1.92-1.152 0-1.056-1.92-1.056t-1.92,1.056q0,1.152 1.92,1.152zm8.352,0q1.92,0 1.92-1.152 0-1.056-1.92-1.056t-1.92,1.056q0,1.152 1.92,1.152zm8.352,0q1.92,0 1.92-1.152 0-1.056-1.92-1.056t-1.92,1.056q0,1.152 1.92,1.152zm8.352,0q1.92,0 1.92-1.152 0-1.056-1.92-1.056t-1.92,1.056q0,1.152 1.92,1.152zm8.352,0q1.92,0 1.92-1.152 0-1.056-1.92-1.056-1.824,0-1.824,1.056 0,1.152 1.824,1.152zm8.352,0q1.92,0 1.92-1.152 0-1.056-1.92-1.056-1.824,0-1.824,1.056 0,1.152 1.824,1.152zm8.352,0q1.92,0 1.92-1.152 0-1.056-1.92-1.056-1.824,0-1.824,1.056 0,1.152 1.824,1.152z"/>
</svg>
