<svg width="89" xmlns="http://www.w3.org/2000/svg" height="96" viewBox="0 0 89 96" xmlns:xlink="http://www.w3.org/1999/xlink">
<path d="m87.36,20.736l-.192,.288h-2.976v7.488l-.288,.48h-4.8l-.48,1.344h-15.84q-3.84,0-6.432,1.152t-3.6,2.976-1.344,3.312-.24,2.928q0,1.536-1.056,2.016-4.992,2.112-9.696,2.112-3.648,0-7.008-.96-4.128-1.152-5.376,3.264l-3.552,14.016q-.096,1.248-.096,2.112t.096,1.344l.096,.48q0,.096 .192,.912t.192,1.296q0,1.152-1.344,.864l-18.912-1.536q-2.496-.096-2.688-1.92-.672-5.568 1.248-9.984l6.72-16.704q1.152-2.88-.768-5.088t-6.048-2.496q-1.056,0-1.344-.624t.192-1.248 1.152-.624q1.056,0 2.016-.624t1.344-1.2l.48-.576 1.44-2.4q.48-1.248 .528-1.968t-.528-3.024q-.384-1.44 .048-2.16t1.104-.624 1.056,.288q1.344,1.344 2.784,.096 .48-.384 1.392-.624t1.584-.336h.672l1.056-2.016h.96l1.056,2.016h18.432l.672,.576h37.92l1.536-2.688q1.92,0 3.696,.72t2.16,2.064h2.592l.192,.288v4.992zm-35.136,.384v1.152h29.472v-1.152h-29.472zm-2.496,16.32q0-2.304-1.296-3.552t-2.544-1.44l-1.344-.096h-3.264q-.96,0-1.248,.768-.384,1.344-.384,2.016 0,4.032 4.128,5.76 .288,.096 .384,.288t-.048,.336-.336,.144q-3.168-.096-5.28-2.544t-2.112-5.616q0-1.152-.864-1.152-5.184,0-5.184,5.28 0,3.168 2.208,4.32 4.416,1.344 7.968,1.344 2.88,0 5.856-.864 3.36-.864 3.36-4.992z"/>
</svg>
