<svg width="331" xmlns="http://www.w3.org/2000/svg" height="96" viewBox="0 0 331 96" xmlns:xlink="http://www.w3.org/1999/xlink">
<path d="m256.032,37.824v-21.888h5.088v19.392q0,2.112-2.688,2.4zm3.84-4.8v-16.8h16.128v15.84zm48.384-13.44q.864,0 .864,1.248v2.88q0,1.248-.864,1.248h-2.688l-.96,1.152h-2.112l-.96-1.152h-33.888v5.088q0,2.592-2.208,2.688l-4.416,.192v-15.744h3.648q2.592,0 2.88,2.4h29.76l3.744-3.264v-3.552l.864-.864h4.128l.768,.768v3.84l-.96,1.056v2.016h2.4zm-180.096,6.528q0-.864 .576-1.44t1.44-.576q.768,0 1.344,.576t.576,1.44q0,.768-.576,1.344t-1.344,.576q-.864,0-1.44-.576t-.576-1.344zm40.992-2.784v-6.912l67.2,.576v6.336h-67.2zm-96.864,5.856q-1.44,0-1.968-.528t-.528-1.872v-7.296q0-1.248 .48-1.728t1.92-.48h11.712q.672-1.824 2.304-1.824 1.728,0 1.728,2.496h43.296l.864-1.536h4.416l.768,1.344h3.264l1.536-1.632v-3.168h1.536l3.264,1.152h10.08v-.768h2.4l2.304,2.976h6.336v7.008h-30.24q-3.456,0-4.8,1.344-.768-1.728-2.784-1.728-2.592,0-3.072,2.4h-36.672q-10.848,0-15.84,3.84h-2.304zm74.304-12.192v1.152h10.464v-1.152h-10.464zm-13.344,9.216q.864-1.728 4.512-1.728h98.592v14.496l-73.632,3.36q-.576,1.152-2.112,1.152h-6.432v52.224l-1.056,1.152h-11.328l-1.248-1.344v-52.032h-7.2q-2.208,0-2.208-2.304h-21.408q-1.344,0-.768,1.344 .672,1.344 .672,2.88 0,2.496-1.728,4.224t-4.32,1.728h-12.864q-2.304,0-4.08-1.92t-1.776-4.32q0-1.92-.72-2.544t-2.064-.24q-3.36,.864-5.184,2.016-.192,.096-2.88,1.728t-4.56,2.976-2.832,2.592q-1.44,1.92-3.744,1.92-2.208,0-4.032-1.824-1.248-1.056-3.072-1.056-2.208,0-6.336,1.536l-56.448,19.2q-2.88,.768-3.552-1.824-1.344-4.416-3.072-12.768t-2.016-11.808q-.48-3.84-.096-6t2.112-2.16l60.576-6.24q5.376-.672 7.68,1.248 2.496,2.016 8.064,2.016 3.072,0 6.816-.96t5.76-2.784q4.704-3.648 15.168-3.648h36.576q.192,1.152 1.056,1.92t2.112,.768 2.16-.864 .912-2.112zm-25.152,19.104q0-1.536-.768-2.688-.96-1.44-3.744-1.44h-5.952l-3.648,2.112q-1.152,.576-1.152,2.4 0,1.44 1.056,2.112l.192,.672-.576,.288q-2.4-.672-2.4-3.648 0-1.056 .48-2.016 .384-.672 .384-1.152 0-.768-.768-.768-3.264,0-4.416,2.112-.384,.96-.384,1.728 0,1.824 1.344,3.312t3.072,1.488h12.96q1.728,0 3.024-1.392t1.296-3.12zm49.248-13.728q-.576,0-.576,.576 0,3.936 3.84,3.936h43.872q3.84,0 3.84-3.936 0-.576-.576-.576t-.576,.576q0,2.784-2.688,2.784h-43.872q-2.688,0-2.688-2.784 0-.576-.576-.576z"/>
</svg>
