<svg width="95" xmlns="http://www.w3.org/2000/svg" height="96" viewBox="0 0 95 96" xmlns:xlink="http://www.w3.org/1999/xlink">
<path d="m2.688,61.44q0-5.856 3.744-13.632t10.08-13.248q.576-.576 .576-1.344 0-1.056-.768-1.536l.96-1.152 3.168,1.056q2.304-4.128 7.2-4.416 .672-2.88 4.128-3.744 0-2.976-2.688-2.976-.672,0-1.344,.288l-.288-.96q1.248-1.536 3.552-1.536t4.032,1.632l1.632-1.344q0-2.4 2.496-2.4h4.032v-.384q0-.96 1.152-.96h.96q1.056,0 1.056,.96v.384h12.192q2.208,0 2.976,1.248h21.504q.768-2.784 2.976-2.784 2.304,0 2.88,2.784h2.016q.672,0 .672,.864v8.16q0,.672-.864,.672h-19.008q0,2.016-1.248,3.504t-3.552,2.064v.576q0,3.936-4.608,4.8l-2.304,3.36h-1.152q-1.632,0-2.208,.864t-.576,3.456q0,4.032-2.448,6.24t-6.768,2.208q-3.744,0-6.192-1.92t-3.312-4.224-2.208-4.224-3.072-1.92q-3.936,0-6.816,5.232t-2.304,14.16q.096,1.344-.192,1.824t-1.344,.48h-16.8q-1.92,0-1.92-2.112zm54.432-40.224l-.384-.384h-9.888q0,.672 .576,1.2t1.344,.528h7.392v3.072h-7.392q-.768,0-1.344,.528t-.576,1.296 .576,1.296 1.344,.528h7.776l.576-.576v-7.488zm-.384,12.864l.384-.384v-.96l-.48-.48h-7.872q-.768,0-1.344,.528t-.576,1.296h9.888zm-15.456,9.216q-1.632,0-1.632,2.4 0,2.592 2.016,4.896t5.568,2.304q3.456,0 5.28-1.728t1.824-4.032q0-1.92-1.296-3.312t-3.408-1.392q-1.728,0-2.688,1.008t-.96,2.448q0,3.456 2.976,4.896 .864,.48 .096,.672-.192,.096-.576,0-3.84-.768-4.896-4.896-.48-1.92-.96-2.592t-1.344-.672z"/>
</svg>
