<svg width="115" xmlns="http://www.w3.org/2000/svg" height="96" viewBox="0 0 115 96" xmlns:xlink="http://www.w3.org/1999/xlink">
<path d="m113.472,23.52q0,.576-.768,.576h-24.384q-2.208,0-3.264,.528t-1.728,1.968l-1.056,2.688q-.096,.384-.672,.384h-18.624v1.056q0,.288-.48,.768-1.152,.768-1.152,2.496v5.28q0,.288-.384,.288h-3.936q-2.112,0-3.12,.768t-1.584,3.84q-.768,3.648-3.936,5.472t-7.872,1.824q-2.304,0-3.696-1.056t-1.872-2.4h-2.496q-4.32,0-6.24,2.4t-1.92,8.064q0,.864 .192,2.784 .192,2.496 .192,6.144 0,2.496-.288,3.936-.192,.672-.864,.672h-20.64q-.768,0-.768-.672 0-.384 .096-.576l5.28-16.512q1.248-4.032 2.88-7.152t3.504-5.808 2.256-3.36q1.632-2.976 1.632-4.992v-2.4q0-1.152 .432-1.488t1.776-.528q2.304-.192 3.744-.864 1.152-1.824 3.744-2.592 .288-.096 .288-.576-.096-1.056-1.344-2.016t-2.592-.96h-.864q-.576,0-.576-.576t.672-.576q3.072,0 4.8,.864 .96,.576 1.44,.576 .576,0 1.056-.96l.192-.48q.096-.384 .576-.384h1.728q.48-.96 .48-1.92 0-.48-.192-1.056-.096-.192-.096-.576 0-1.344 1.152-1.344h.864l.384,.288h3.168q.672,0 1.92,.48t2.592,.48h19.2q.576,0 .576,.48h33.696q2.4,0 4.704-.912t3.744-.912h1.056v-1.728l.384-.288h4.416q1.824,0 1.824,2.016v2.496q.768,0 .768,.672v5.376zm-62.592,19.68q0-4.224-5.664-4.224v.48q0,1.44-1.44,2.4-.672,.384-.672,1.824 0,2.784 3.072,3.84l.192,.288-.096,.384-.288,.192q-2.592-.48-3.888-2.064t-1.296-3.6v-.96q0-.192-.192-.192-2.016,0-2.688-1.152-2.112,1.632-2.112,4.8 0,2.112 1.488,3.504t3.6,1.392q4.512,0 7.248-1.92t2.736-4.992zm3.936-10.176v-1.632l-.288-.288h-5.28q-1.152,0-2.208,.24t-1.68,.528-.624,.576q0,.96 4.512,.96h5.28zm.288-7.392v-2.688l-.288-.384h-5.28q-4.512,0-4.512,1.728t4.512,1.728h5.28zm.288-6.912v-.576l-.288-.288h-9.312q-.48,0-.48,.288 0,.864 4.512,.864h5.28zm8.448,5.184v2.4h8.064v-2.4h-8.064zm12.672,2.4q1.44,0 1.44-1.248 0-1.152-1.44-1.152h-1.344v2.4h1.344z"/>
</svg>
