<svg width="108" xmlns="http://www.w3.org/2000/svg" height="96" viewBox="0 0 108 96" xmlns:xlink="http://www.w3.org/1999/xlink">
<path d="m105.696,25.92q0,.768-1.056,.768h-38.88l-.576,2.88q-.096,.768-1.152,.96-4.512,.384-7.296,7.296-1.152,2.976-2.784,4.032t-4.896,1.056h-3.456q-3.36,0-5.28-1.632-1.44-.864-2.688-.864-3.456,0-4.896,4.8l-7.776,23.904q-.672,1.824-2.784,1.44l-17.664-3.072q-1.92-.288-2.064-2.688t1.392-5.088l10.176-21.024q.864-1.824 .864-3.456 0-2.208-1.488-3.6t-4.368-1.392h-1.92q-2.496,0-3.456-1.68t-.192-4.272l2.4-8.448q.192-.96 1.056-.96h4.032v-2.016q0-.96 .96-.864l1.728,.192q.384,0 .768,.384 .384,.672 1.536,.672h2.112l.288,.48h5.856q1.248,0 1.248,1.056h28.992q.864,0 1.152,.288l2.208,1.632h31.488q.096-.576 .48-.672l3.744-.96q.576-.192 1.728-.192h1.536v-.768q0-.672 .768-.672h4.512q.768,0 .768,.672v.768q.864,0 .864,.96v.864h.96q1.056,0 1.056,.864v1.344h-58.464v1.056h58.464v5.952zm-71.808-3.456q1.344,0 2.256-.96t.912-2.304q0-.768-.384-1.44h-1.152q.576,.576 .576,1.44 0,.96-.624,1.584t-1.584,.624h-4.32l1.152-3.648h-1.152l-1.056,3.648h-1.248l1.056-3.648h-1.056l-1.056,3.648h-1.248l1.056-3.648h-1.056l-1.056,3.648h-1.152l.96-3.648h-1.056l-1.056,3.648h-1.152l.96-3.648h-1.056l-1.056,3.648h-1.152l.96-3.648h-1.056l-1.056,3.648h-1.248l1.056-3.648h-1.056l-1.056,3.648h-1.248l1.056-3.648h-1.056l-1.344,4.704h21.792zm14.208,8.832q-2.016,0-3.312,1.344t-1.296,3.168q0,2.688 2.496,4.032 .384,.288 .288,.576t-.48,.192q-1.824-.384-2.976-1.92t-1.152-3.36q0-1.92 1.248-3.264l-.288-.288q-2.688,1.44-2.688,4.608 0,2.016 1.44,3.504t4.128,1.488h5.184q2.208,0 3.504-1.68t1.296-3.888q0-1.92-1.104-3.216t-3.216-1.296h-3.072z"/>
</svg>
