<svg width="389" xmlns="http://www.w3.org/2000/svg" height="96" viewBox="0 0 389 96" xmlns:xlink="http://www.w3.org/1999/xlink">
<path d="m72.288,37.536l-58.08,13.152v6.048l-.576,.768h-2.208q-1.728,0-3.072-1.968t-1.344-5.328v-40.416q0-3.264 1.344-5.232t3.072-1.968h2.208l.576,.672v6.048l58.08,13.152v15.072zm7.104,2.784h-2.496q-1.152,0-2.064-.816t-.912-1.968v-15.072q0-1.152 .912-1.92t2.16-.768h2.4v20.544zm2.208-23.904q.864,0 1.536,.624t.672,1.488v1.248h-4.416v-1.248q0-.864 .624-1.488t1.584-.624zm48.576,23.904h-46.368v-20.544h46.368v20.544zm2.208-23.904q.864,0 1.488,.672t.624,1.44v1.248h-4.32v-1.248q0-.864 .624-1.488t1.584-.624zm91.008,28.608h-49.152q-11.232,0-22.08-2.256t-17.664-2.352v-20.64q6.72-.192 17.568-2.496t22.176-2.304h49.152v30.048zm4.32-30.048h3.648l1.056,1.056v27.648l-1.44,1.344h-3.264v-30.048zm-2.112-3.456q.864,0 1.488,.624t.624,1.584v1.248h-4.32v-1.248q0-.96 .624-1.584t1.584-.624zm74.976,55.584h16.224l.864,22.272q.192,5.088-4.512,5.088h-11.136q-2.208,0-3.408-1.344t-.72-3.744l2.496-19.776q.192-.768 .192-2.496zm88.032-30.336q0,2.88-2.496,2.88h-50.016v14.016q0,4.896-5.568,7.008l-13.824,5.28h-16.32q-.768-3.744-5.472-3.744h-.96q-.864,0-.864-.864 0-.768 .768-.864l4.608-2.016v-1.056q-3.456-2.592-4.704-5.856l-4.608,.384-.192-.768 .576-1.248 6.528-1.536 .768,.192q.576,1.92 2.016,3.168v-6.24h-7.104l-.96-.768v-5.28h-1.44q-1.92,0-4.128,2.016t-4.992,2.016h-20.064q-.192,4.416-2.592,5.568-2.304,1.344-2.304,6.048v23.808q0,4.032-4.32,4.032h-7.968q-4.32,0-4.32-4.032v-23.808q0-4.8-2.208-6.048-2.784-1.248-2.784-5.568v-27.264h10.848q4.32,0 4.32-4.128v-2.496l-1.152-1.152v-4.32q-.672-.48-.672-1.344 0-.768 .672-1.44v-4.992l1.056-2.208v-6.24l.576-.672h1.536l.672,.672v7.584l-1.056,1.536v4.32q.576,.768 .576,1.44 0,.576-.576,1.344v2.88q1.824-2.016 5.472-2.016h9.6l1.632,1.056h5.664q2.592,0 4.128,1.392t1.536,4.08v.96l-.864,.864h-1.248v2.88h3.84q2.784,0 5.04,2.016t4.176,2.016h69.504v-3.072h-1.344l-.768-.768v-4.032q0-3.168 3.264-3.168h16.128v-8.16l-1.152-.672v-3.264l-1.152-.768v-1.728l.576-.48h1.824q1.728,0 2.4,1.728l2.016,5.76v7.68q2.208,.48 2.208,3.072v4.032l-.672,.768h-.768v3.072h4.608q2.496,0 2.496,2.88v13.632zm-54.24,16.416v-6.432l-1.536-1.44h-5.28l-1.728,1.728h-1.92q-1.632,1.44-1.632,3.84 0,3.36 3.936,6.24v.576l-.672,.576q-2.88-1.152-4.608-3.36h-1.152v3.168q0,2.016 1.344,2.784t3.168,.192l7.008-2.784q3.072-1.152 3.072-5.088zm38.784-42.336q-.96,0-1.584,.624t-.624,1.392q0,.96 .624,1.536t1.584,.576q.864,0 1.44-.576t.576-1.536q0-.768-.624-1.392t-1.392-.624zm-8.064,0q-.864,0-1.44,.624t-.576,1.392q0,.96 .576,1.536t1.44,.576q2.112,0 2.112-2.112 0-.768-.624-1.392t-1.488-.624zm10.752,9.408v-3.072h-12.96v3.072h12.96z"/>
</svg>
