<svg width="133" xmlns="http://www.w3.org/2000/svg" height="96" viewBox="0 0 133 96" xmlns:xlink="http://www.w3.org/1999/xlink">
<path d="m129.888,22.944l-.768,.672h-1.728v2.208l-.96,.864-16.224,.576q-3.264,.096-4.464,.72t-2.448,2.352q-1.728,2.304-5.664,2.784 2.016-2.016 2.304-5.28 .672-4.8 2.112-6.624h27.84v1.728zm0-2.976h-45.888l-.384-.384v-4.128h41.952v-1.248l.48-.48h.864l.48,.48v1.248h1.728l.768,.864v3.648zm-49.92,9.024h18.528q-1.344,4.224-4.32,4.32l-10.272,.384q-2.304,.096-3.072,1.056-1.248,1.536-3.456,1.632l-20.64,.864q-8.544,.384-8.544,6.24 0,2.112 1.056,4.704 .576,1.44-.72,2.304t-2.64-.672l-2.976-3.456q-2.4-2.688-6.048-2.688t-6.288,2.88-2.64,8.64q0,6.24 1.248,10.656 .384,1.632 1.296,3.696t.912,2.736q0,1.248-1.44,1.248h-25.92q-.864,0-1.152-.624t.288-1.488q1.344-2.208 2.4-5.568t2.208-8.064 2.016-7.488q2.304-7.296 6.144-12.048t10.56-6.672q5.856-1.728 7.296-5.088h-3.072l-.576,.48q-2.016,0-2.016-1.536v-.576q0-1.536 2.016-1.536l.576,.48h1.92v-1.344l.384-.384h1.632v-1.056l.48-.48 2.784-.96v-1.344q-3.36-1.92-3.36-4.896 0-1.056 .48-2.544t.48-2.832q0-1.44-1.152-2.112v-.48l.768-.672h.576q2.208,.96 1.92,4.896-.192,1.632 .96,2.88t3.456,1.248h3.648l.576-.576h33.12q3.072,0 3.072,2.304v4.608l1.056,1.152h17.088q-1.536,2.496-1.824,6.624h-20.064q-1.248-.672-3.072-.672h-.768v-10.08h-1.248v15.168h-22.848l-.768-.768v-12.864h-1.248v13.344l1.536,1.536h25.344q2.016,0 3.264-.768t1.248-2.112v-.672q0-.384-.192-.96z"/>
</svg>
