<svg width="133" xmlns="http://www.w3.org/2000/svg" height="96" viewBox="0 0 133 96" xmlns:xlink="http://www.w3.org/1999/xlink">
<path d="m113.76,23.52v-.48l2.304-9.408q0-.192 .048-.384t.048-.384h4.512v-10.08l.48-.576h1.824q1.056,0 1.632,.96l1.344,2.016q.768,1.536 .768,4.032v3.648h1.248l.48,.384v6.624l-.768,.864h-7.104l-.576,.48v2.496h-5.472q-.576,0-.768-.192zm-15.648-6.528q-2.496,0-2.688,2.496h-86.688v-5.76l.768-.864h5.472v-1.824q0-4.8 4.32-4.8h.96q3.264,0 5.856,2.4l4.608,4.224h76.704q0,.096-.048,.432t-.048,.528v3.168h-9.216zm-2.784,11.328q0,1.344-1.632,1.344h-84.96v-9.024h86.592v7.68zm33.408,14.112q0,1.344-1.44,1.344h-1.92q-1.44,0-1.44-1.344v-2.112q0-5.664-4.896-5.664h-4.128q-2.208,0-3.312,1.104t-1.104,2.64q0,.576 1.296,6.24t1.296,11.232q0,4.992-.864,9.408-.192,.864-1.536,.864h-8.16q-1.536,0-1.632-.864-.864-4.992-.864-9.216 0-5.568 1.344-11.328t1.344-6.336q0-1.536-1.152-2.64t-3.456-1.104h-10.944q-2.688,0-3.456,1.344t-.288,4.416l.96,5.376-.096,.864-1.536,.48q.48,4.416 3.072,13.488t4.608,13.488l-.576,1.152-9.696,3.84-1.056-.288q-2.688-5.664-5.184-13.872t-3.36-14.352l-5.856,1.248q-2.688,.576-3.696,1.392t-1.968,3.408l-2.208,5.76q-1.728,4.416-7.392,4.416h-7.2q-2.4,0-4.512-1.344l-.864-.48q-.768-.384-1.728-.384-2.496,0-3.264,1.632l-7.776,16.416q-1.248,2.688-.768,4.032 .288,1.056-.192,1.728-.672,1.44-2.112,.384l-16.128-9.408q-.576-.384-.624-1.2t.432-1.392l14.208-22.656q1.632-2.496 1.632-4.896 0-2.592-1.536-4.368t-3.744-1.776h-2.016q-4.512,0-4.512-4.512v-7.68h84.96q2.88,0 2.88-2.592v-8.448q0-1.728 1.536-1.728h10.464v-4.32q0-1.824 .912-2.832t2.544-1.008q1.536,0 2.4,.912t.48,2.352l-2.304,9.408q-.288,.864 .192,1.536 .576,.768 1.728,.768h6.048l.576-.672v-2.4h6.528v2.016l.576,.672v3.648l-.96,.96q1.44,2.4 1.44,5.376v7.872zm-95.04,0q.192,1.92 1.488,3.312t3.024,1.392q1.536,0 2.784-1.248 1.632-1.44 1.632-3.264 0-1.536-1.152-2.832t-2.784-1.68q-2.208-.672-5.088-3.936-.768-.864-1.824-.864-.672,0-1.248,.576t-.576,1.344 .672,1.44q2.592,2.976 3.072,5.76zm23.52,13.632q.48-1.44 .48-2.208 0-1.536-2.208-1.536h-6.624q-1.92,0-2.88,1.152-1.44,2.016-1.44,4.224 0,3.456 2.208,4.704v.768h-.672q-2.496-1.248-3.36-2.88t-.864-4.128v-2.496q0-1.632-1.536-1.632t-2.112,1.44l-2.496,5.76q-.96,1.728 .576,2.688l3.36,2.208q1.056,.672 2.208,.672h8.16q3.936,0 5.376-3.456zm-17.184-15.552q-1.248,0-2.256-1.008t-1.2-2.448q-.096-2.784-3.264-6.528-.288-.48-.288-.576 0-.672 .672-.672 .192,0 .768,.384 2.88,3.36 5.856,4.224 1.248,.384 2.064,1.344t.816,2.016q0,1.44-1.152,2.4-.864,.864-2.016,.864z"/>
</svg>
