<svg width="321" xmlns="http://www.w3.org/2000/svg" height="96" viewBox="0 0 321 96" xmlns:xlink="http://www.w3.org/1999/xlink">
<path d="m315.072,23.52q.96,.384 .96,1.44t-1.92,1.152l-104.736,5.184q.192,8.928 3.264,13.056 .768,1.056 .528,1.872t-1.296,1.008l-1.536,.288q1.248,9.984 7.152,21.696t13.392,17.664v1.056l-10.848,8.064-2.208-.48q-8.064-6.528-14.592-20.064t-8.736-24.768l-4.224,.768q-2.88,.48-2.88-2.112v-21.12h-26.496v13.056q0,5.376-1.776,7.488t-7.344,2.112h-11.328q-2.88,0-4.128,1.296t-1.44,4.464q-.288,5.76-2.304,11.712-.96,3.168 1.056,5.664 1.248,1.536 .192,2.832t-3.84,1.296h-11.232q-4.512,0-5.664-1.824t-.48-5.184l5.76-30.336-1.248-1.248-15.936,1.632q-1.92,.192-4.032,1.728-1.632,1.152-4.896,1.44l-78.24,8.256q-1.632,.288-1.44,1.824 2.976,15.84 2.976,31.68 0,1.056-.672,1.632t-1.44,.576q-1.92,0-1.92-2.304 0-10.08-2.448-25.632t-5.136-23.04q-.576-2.208-.24-3.072t1.2-.864q1.248,0 1.92,1.152 1.056,1.92 2.88,7.968 .768,2.976 4.8,2.304l104.256-14.304v-2.112h-3.552l-.768,.864h-1.92q-.288-2.016-1.584-3.792t-1.296-3.792 1.296-3.792 1.584-3.792h1.92l.672,.768h41.28l1.056-1.824h2.784l2.88-3.552h6.24l2.784,3.552h2.88l.96,1.824h33.792v-1.536l.672-.864h1.44q1.056,0 2.016,1.392t.96,3.024l82.176,1.632v-4.608l-.48-1.152v-5.856q0-1.728 1.056-1.728 .672,0 1.248,.576 .48,.768 1.92,.768 1.248,0 1.92-.768 .768-.576 1.248-.576 1.152,0 1.152,1.728v6.048l-.576,1.248v4.512h9.408q2.208,0 2.208,1.344 0,.672-.96,1.344-1.056,.576-1.056,1.152t.96,.96zm-161.76,25.728q2.784,0 4.224-1.392t1.44-3.408q0-1.92-1.344-3.408t-3.552-1.488h-6.24v1.344q0,2.4 1.152,3.648t4.032,1.92l-.864,1.056q-4.032,0-7.296-2.88l-4.128-3.936q-1.824,1.44-1.824,3.744 0,2.016 1.44,3.408t4.224,1.392h8.736zm8.064-27.264q.576,0 .576-.576 0-.672-.576-.672h-36.672q-.576-1.44-1.92-1.44-.864,0-1.488,.624t-.624,1.488q0,.768 .624,1.392t1.488,.624q1.344,0 1.92-1.44h36.672zm46.368-.288q.768-1.056 .768-2.112 0-1.728-1.248-2.688v2.688q0,.768-.48,1.248-.384,.576-1.248,.576h-14.4q-.768,0-1.248-.576-.384-.384-.384-1.248v-2.688q-1.248,.864-1.248,2.688 0,1.152 .672,2.112 .864,.864 2.208,.864h14.4q1.344,0 2.208-.864zm25.056,2.496q.768,0 .768-1.152 0-1.248-.768-1.248h-6.336q-.672,0-.672,1.248 0,1.152 .672,1.152h6.336zm11.904,0q.864,0 .864-1.152 0-1.248-.864-1.248h-6.336q-.672,0-.672,1.248 0,1.152 .672,1.152h6.336zm12,0q.768,0 .768-1.152 0-1.248-.768-1.248h-6.24q-.864,0-.864,1.248 0,1.152 .864,1.152h6.24zm11.904,0q.768,0 .768-1.152 0-1.248-.768-1.248h-6.24q-.768,0-.768,1.248 0,1.152 .768,1.152h6.24zm11.904,0q.864,0 .864-1.152 0-1.248-.864-1.248h-6.24q-.768,0-.768,1.248 0,1.152 .768,1.152h6.24zm12.288,0q.768,0 .768-1.152 0-1.248-.768-1.248h-6.528q-.864,0-.864,1.248 0,1.152 .864,1.152h6.528z"/>
</svg>
