<svg width="192" xmlns="http://www.w3.org/2000/svg" height="96" viewBox="0 0 192 96" xmlns:xlink="http://www.w3.org/1999/xlink">
<path d="m17.856,36.48h-17.568v-12.96h17.568v12.96zm162.72-2.304l-.768,1.056h-4.32l-53.28,8.16q-6.72,1.056-11.424,1.056h-28.896q-2.784,0-8.256-1.056l-14.208-3.072h-9.12l-1.056-1.056h-17.088l-11.232,4.416-1.728-5.28 12.672-1.824v-1.344l-12.864,2.016v-6.72h12.96v-1.344h-12.96v-6.72l12.864,2.016v-1.248l-12.768-1.92 1.824-5.568 11.232,4.416h17.088l1.056-1.056h9.12l14.208-3.072q5.472-1.056 8.256-1.056h28.896q5.376,0 11.424,.96l53.28,8.256h4.32l.768,1.056v8.928zm7.968-.768l-.768,.768h-5.952v-8.928h5.952l.768,.768v7.392z"/>
</svg>
