<svg width="83" xmlns="http://www.w3.org/2000/svg" height="96" viewBox="0 0 83 96" xmlns:xlink="http://www.w3.org/1999/xlink">
<path d="m80.256,28.8q0,.96-.864,.96h-10.848q0,1.248-1.248,1.248h-11.52q-5.088,0-5.088,5.856 0,6.528-6.528,6.528h-6.912q-2.976,0-4.56,1.104t-2.256,3.6l-5.472,20.352q-.768,2.304-3.36,1.92l-17.376-2.304q-1.824-.192-1.824-3.168 0-4.896 5.088-14.688l3.744-7.296q.768-1.632 .768-3.552 0-2.496-1.776-4.08t-5.136-1.584q-.384,0-.528-.48t.048-.864q1.152-1.632 4.8-2.976 1.92-.672 2.304-2.976h55.392q1.92,0 3.84-1.248 2.208-1.44 4.608-1.44h4.704v5.088zm-32.16,11.808q1.056-1.344 1.056-3.264t-1.2-3.456-3.216-1.536h-4.512q-2.016,0-3.216,1.536t-1.2,3.456q0,2.016 1.152,3.264 1.344,1.536 3.552,1.536h4.032q2.208,0 3.552-1.536zm-11.424-3.264q0-1.632 .96-2.88t2.592-1.248h1.248v.576q-1.152,1.344-1.152,3.456 0,2.208 1.152,3.36v.576h-.96q-1.92,0-2.88-1.152t-.96-2.688zm43.584-14.496h-4.704q-2.4,0-5.088,1.536-1.92,1.056-3.36,1.056h-34.368v-5.952q0-.48-.384-.48-.48,0-.48,.48v5.952h-1.44v-5.952q0-.48-.384-.48-.48,0-.48,.48v5.952h-1.344v-5.952q0-.48-.48-.48t-.48,.48v5.952h-1.344v-5.952q0-.48-.48-.48t-.48,.48v5.952h-1.344v-5.952q0-.48-.48-.48t-.48,.48v5.952h-1.344v-5.952q0-.48-.48-.48-.384,0-.384,.48v5.952h-1.44v-5.952q0-.48-.48-.48-.384,0-.384,.48v5.952h-6.336q.096-.768-.288-1.344-.768-.96-1.728-1.344-1.536-.864-1.536-2.304 0-.96 .672-1.488t1.536-.528q1.056,0 1.632,.672 .48,.576 .96,.288l.864-1.728q.672-1.056 2.016-1.056h1.92q0-.48 .528-.72t.528-.528 .384-.288h1.152q.384,0 .384,.288t.528,.528 .528,.72h17.952l.288,.384h10.848l.192-.384h22.56q0-.48 .48-.576l1.248-.384h1.056l.96,.384q.384,.192 .384,.576h1.536q.864,0 .864,.864v5.376zm-69.888-1.44q.864,0 .864-.864 0-.96-.864-.96-.96,0-.96,.96 0,.864 .96,.864zm38.112,.096q1.632,0 2.544-.912t1.008-2.064q0-.48-.48-.48t-.48,.384q0,2.208-2.592,2.208h-5.76q-2.208,0-2.592-2.208 0-.384-.48-.384-.384,0-.384,.48 .096,1.152 .96,2.064t2.496,.912h5.76z"/>
</svg>
