<svg width="311" xmlns="http://www.w3.org/2000/svg" height="96" viewBox="0 0 311 96" xmlns:xlink="http://www.w3.org/1999/xlink">
<path d="m88.704,19.392v23.808h-39.456l-3.456-12h-.48q-1.152,0-1.488-.24t-.528-1.104l-1.728-6.432q-.192-1.152 .96-1.536l5.76-1.344q4.224-.96 7.104-1.248l18.624-1.728q1.632-.192 4.992-1.056t4.224-.864h.576v2.208l1.44,1.152h3.072zm1.536,24.192v-8.064h77.28v.96q0,2.88-3.552,2.88-3.36,0-3.36,3.36v5.184l1.248,1.92v1.44l-.384,.768-1.92,.384v22.752l-25.152,3.84v-21.888l-3.648,.48h-17.472q-.576,0-1.056,.672l-1.92,3.168q-.288,.384-.288,1.152 0,1.152 .672,1.728 .384,.288 .384,.672 0,.96-1.152,.672-1.92-.48-2.592,.96l-4.224,7.488q-.96,1.536 0,2.592 .384,.384 .384,.576 0,.384-.48,.864-.768,.768-1.92,.48l-14.4-3.648q-1.152-.384-.384-1.44l14.4-20.832q1.536-2.208 1.536-4.416 0-2.016-1.344-3.36t-3.648-1.344h-7.008zm25.728,6.144v3.648q0,2.784 3.072,2.784h10.752q3.072,0 3.072-2.784v-3.648q0-2.784-3.072-2.784h-4.512l-2.112,1.056q-2.112,1.248-2.112,3.936 0,1.728 .96,2.976l-.384,.48h-1.152q-1.632-1.344-1.632-4.896v-3.552q-2.88,.096-2.88,2.784zm43.584,30.24q.864,0 .864,1.056t-1.152,1.056h-24.192l-.672-.768v-1.056l25.152-3.936v3.648zm137.856-50.88q-.576,0-.576,.864 0,.768 .672,.768h10.656v1.248q0,.672-.672,.768l-12,.48-.384,.48h-1.344l-.288-.48h-11.904l-.192,.288h-3.264l-.384,.48h-.576l-.288-.576h-.672v.48l-.576,.672h-1.44l-.768-.96v-.96h-35.232v.672l-.384,.384h-10.176l-.384-.384v-.48h-2.88v5.088h-54.72v-3.552h-79.392v-15.072l-1.056-1.056h-3.168l-.672-.48v-2.592l.576-.672h7.68q-.768-.96-.768-2.112 0-2.016 1.824-2.976l.384-7.296q0-.768 1.44-.768t1.632,1.056v7.104q1.248,.768 1.536,2.304h5.376v3.072h118.56l.672,.672v5.376h1.92v-2.976l.288-.384h.48v-3.936l.384-.384h.384v-3.936q0-.576-.288-1.968t-.288-2.448v-4.32q0-.672 .576-.672 .192,0 .576,.192 .864,.576 1.92,.576 .768,0 1.344-.48 .384-.288 .768-.288 .576,0 .576,.864 0,2.112-.288,3.552t-.288,1.92v2.688q0,1.536-.48,2.304-.672,1.056-.672,1.824v3.552q0,.864 .96,.864h.768l.384,.384v1.824l.384,.384h1.92v-.864q0-.672 .672-.672h2.016l.384,.288 .864,2.976-.192,.48v2.208l-.384,.576h-.768v2.112h35.232v-1.056l.768-.672h1.44l.576,.48v.384h.672l.288-.48h.576l.384,.48h3.264l.192,.288h11.904l.288-.48h1.344l.384,.48 12,.48q.672,0 .672,.768v1.248h-10.752zm-134.688,0v-1.824q0-1.152-1.152-1.632v3.456q0,.576-.48,.576h-26.88q-.48,0-.48-.576v-3.456q-1.248,.576-1.248,1.632v1.824q0,.672 .48,1.2t1.248,.528h26.88q.672,0 1.152-.528t.48-1.2zm12.384-7.296q1.152,0 1.152-1.152t-1.152-1.152h-42.24q-1.152,0-1.152,1.152t1.152,1.152h42.24zm13.248,0q1.152,0 1.152-1.152 0-.48-.384-.816t-.768-.336h-7.392q-1.152,0-1.152,1.152t1.152,1.152h7.392zm-1.344,11.04v-6.24h-1.152v6.24h1.152zm4.608,0v-6.24h-1.152v6.24h1.152zm4.608,0v-6.24h-1.152v6.24h1.152zm-2.016-11.04h7.392q1.152,0 1.152-1.152 0-.48-.384-.816t-.768-.336h-7.392q-1.152,0-1.152,1.152t1.152,1.152zm6.624,11.04v-6.24h-1.152v6.24h1.152zm4.704,0v-6.24h-1.152v6.24h1.152zm4.608,0v-6.24h-1.152v6.24h1.152zm4.608,0v-6.24h-1.152v6.24h1.152zm.096-11.04q1.152,0 1.152-1.152 0-.48-.384-.816t-.768-.336h-7.392q-1.152,0-1.152,1.152t1.152,1.152h7.392zm4.608,11.04v-6.24h-1.152v6.24h1.152zm7.584-5.28v-2.496h-2.784v2.496h2.784zm-184.512,2.976q.576,2.112 2.688,2.208l2.88,9.696h-17.376q-3.072,0-4.32,2.784l-9.6,17.952q-1.44,2.688-2.928,3.792t-4.368,1.104q0,.96-.288,1.296t-1.248,.432l-3.168,.384q-.768,.096-1.152-.384t-.192-1.344q1.632-7.2 1.632-21.024 0-15.36-1.92-23.712-.192-.96 .24-1.488t1.584-.24l3.36,.576q.864,.096 .864,1.152v.672h31.68zm-19.68,5.76q1.056,0 1.056-1.152t-1.056-1.152h-9.984q-1.152,0-1.152,1.152t1.152,1.152h9.984z"/>
</svg>
