<svg width="130" xmlns="http://www.w3.org/2000/svg" height="96" viewBox="0 0 130 96" xmlns:xlink="http://www.w3.org/1999/xlink">
<path d="m127.2,26.976q0,2.496-1.248,2.496h-51.072q-.576,0-.576-.672v-3.072h-2.112v.96l-.288,.48h-.96v1.056l-1.44,1.248h-2.112v.384l-.192,.384h-1.248q-2.208,0-4.896,1.056l-3.936,1.824q-1.44,.672-2.208,1.68t-1.536,3.6q-1.824,6.048-9.216,6.048-2.688,0-6-.816t-5.328-.816q-2.784,0-3.264,2.496l-3.936,14.976q-.576,1.728-2.4,1.728h-16.224q-3.36,0-3.36-3.168 0-1.536 .864-3.552l5.76-12.576q1.248-2.784 1.248-4.896 0-4.128-5.472-4.896-.864-.096-.864-.864 0-.576 .576-.96l3.36-2.496q0-1.536 1.056-2.208 6.144-4.032 6.144-7.008v-.576q0-.864 .96-.864h1.248l.288-1.152q0-.192 .288-.192h1.152q.288,0 .384,.192l.192,1.152h45.408l.48-1.152 .288-.096 2.208,.288q.864,.096 .864,.96 .96,0 .96,.864v.864h.864l.288,.48v1.344h2.112v-2.88q0-.672 .576-.672h51.36q.96,0 .96,2.208v6.816zm-89.184,5.28q-2.208,1.44-2.208,4.896 0,2.592 2.064,4.368t6.48,1.776q3.936,0 5.952-1.872t2.016-4.464q0-2.016-1.392-3.408t-3.6-1.392h-2.496q-1.632,1.92-1.632,4.32 0,3.456 3.456,4.896l.192,.288-.288,.288q-2.592,0-4.128-1.824t-1.536-4.512q-2.208-1.056-2.496-3.264zm-4.704-4.992v1.152h31.68v-1.152h-31.68zm-2.592-5.952v7.104h1.152v-7.104h-1.152zm-2.592,0v7.104h1.056v-7.104h-1.056zm-2.592,0v7.104h1.056v-7.104h-1.056zm-2.688,0v7.104h1.152v-7.104h-1.152zm-2.592,0v7.104h1.056v-7.104h-1.056zm-2.592,0v7.104h1.056v-7.104h-1.056z"/>
</svg>
