<svg width="101" xmlns="http://www.w3.org/2000/svg" height="96" viewBox="0 0 101 96" xmlns:xlink="http://www.w3.org/1999/xlink">
<path d="m99.264,22.944q0,.576-.576,.576h-.48q-.096,.48-.576,.48l-5.088,.096q-.576,0-.576-.48l-20.16,.288v2.304q0,2.496-2.016,3.072-1.632,.384-2.4,1.536-.864,1.056-2.4,1.056-3.648,.288-6,2.496t-2.352,4.992q0,7.392-10.944,7.392-3.264,0-5.952-.864t-3.264-.864q-2.592,0-3.456,3.264l-3.744,14.88q-.96,3.648 0,5.568 1.92,4.32-1.152,4.32h-19.488q-2.208,0-2.88-.624t-.672-2.352q0-5.376 2.208-12.624t5.376-12.624q1.728-2.976 1.728-5.856 0-5.76-5.856-6.912-3.744-.768-5.04-1.824t-1.296-3.84q0-2.592 1.344-5.472l.288-.096h3.456l-1.824,6.336h1.248l1.824-6.336h1.92l-1.824,6.336h1.248l1.92-6.336h1.824l-1.824,6.336h1.344l1.824-6.336h1.92l-1.92,6.336h1.344l1.824-6.336 26.016,.192q.576,1.344 2.784,1.344h16.896q2.976,0 2.976-2.976h-1.152q0,1.056-.336,1.44t-1.488,.384h-16.896q-1.536,0-1.728-.864 0-.48-.672-.48l-40.032-.192-.096-.288 .384-.576q2.112-3.36 4.608-3.36h.384v-1.056l.288-.384h1.152l.288,.384v1.056l32.64,.192q.672,0 .672,.672 0,.576 .48,.672l20.16,.288q0-1.152 .864-1.152h4.032q1.056,0 1.056,1.344l21.12,.288v-1.152l.576-.288v-1.536l.384-.384 3.072,.48q1.632,.096 1.632,1.92v1.056l.48,.096q.576,0 .576,.48v4.512zm-63.072,16.32q0,2.688 2.4,4.416t7.2,1.728q9.12,0 9.12-5.568 0-2.592-1.584-4.08t-4.176-1.488h-1.248l-1.824,2.016q-1.056,1.344-1.056,2.976 0,3.264 3.936,3.84l-.384,.96q-3.072,0-4.656-1.536t-1.584-3.84q0-1.056 .48-2.496-1.44-.576-1.632-2.112-2.208,.192-3.6,1.536t-1.392,3.648z"/>
</svg>
