<svg width="189" xmlns="http://www.w3.org/2000/svg" height="96" viewBox="0 0 189 96" xmlns:xlink="http://www.w3.org/1999/xlink">
<path d="m130.56,14.88h9.888l.864,.864v12.864l-.864,.864h-8.736v-2.112l-.96-1.152h-14.592v-1.344l-1.344-1.344h-16.032l-1.44,1.44v1.248h-70.368l-.864,1.824h-8.64v-12.288l1.536-1.536h6.912l1.152,1.728h20.544q-.384-.384-.384-1.056 0-.768 .672-1.056 .768-.288 .768-.864 0-.384-.288-.672-.288-.576-.288-.864 0-1.056 1.824-1.056 2.016,0 2.016,1.056 0,.288-.288,.864-.288,.288-.288,.672 0,.576 .672,.864t.672,1.056q0,.672-.384,1.056h4.704v-.96q0-1.248 1.824-1.248l3.36-3.264q.48-.672 1.632-.672h2.592q1.056,0 1.632,.672l3.36,3.264q1.824,0 1.824,1.248v.96h56.448zm56.064,10.368l-.864,.768h-42.24v-9.792h30.432l3.552-4.896q.576-.768 1.632-.768h1.92q1.056,0 1.632,.768l3.936,5.184v8.736zm-34.176-2.112q.768,0 1.392-.576t.624-1.344q0-.864-.576-1.392t-1.44-.528-1.44,.528-.576,1.392q0,.768 .624,1.344t1.392,.576zm8.832,0q.768,0 1.296-.576t.528-1.344q0-1.92-1.824-1.92-2.016,0-2.016,1.92 0,.768 .576,1.344t1.44,.576zm8.736,0q.768,0 1.344-.576t.576-1.344q0-.864-.576-1.392t-1.344-.528q-.864,0-1.44,.528t-.576,1.392q0,.768 .624,1.344t1.392,.576zm8.832,0q.768,0 1.296-.576t.528-1.344q0-.864-.528-1.392t-1.296-.528q-2.016,0-2.016,1.92 0,.768 .576,1.344t1.44,.576zm-63.264,3.456h15.264l.288,.288v5.856l-1.056,1.248h-13.728v4.512l-.672,.672h-1.056v53.952l1.536,.96v.864h-15.168v-1.92l.96-.864v-25.824q-1.248,2.784-3.456,3.696t-5.952,.912h-81.312l-.96-.96v-1.632l.96-.864h1.632l6.528-31.584h16.224q2.784,0 2.304,2.784l-5.568,29.28h60.864q2.88,0 4.992-1.68t2.112-4.656v-24h-5.184q-3.552,0-3.552-3.168h-29.856q-1.632,0-2.688,1.008t-1.056,2.832v2.4q0,7.968-8.736,7.968h-5.952q-2.112,0-3.36-1.344t-1.248-3.84q0-1.056 .096-1.536l.576-3.072q.48-2.208-.624-3.312t-2.832-1.104h-23.232v1.92l-1.824,.96h-3.552l-1.824-.96v-1.92h-.96l-1.152-1.152v-3.936l1.056-1.056h2.784v-.864l.48-.48h2.784l.48,.48v.864h16.8l.96-1.728h70.944v-2.112l.48-.576h14.976l.48,.48v2.208zm-59.136,11.712q0-2.304 .672-3.36h-7.296l-2.688,1.92q-2.304,1.632-2.304,4.032 0,2.784 1.824,4.032l-.384,.576h-.576q-2.688-1.632-2.688-5.184 0-2.4 1.536-3.936l1.152-1.44h-3.744l-1.44,6.912q-.192,.96-.192,1.44 0,1.632 .816,2.64t2.256,1.008h6.528q3.168,0 4.848-1.584t1.68-3.984v-3.072z"/>
</svg>
