<svg width="256" xmlns="http://www.w3.org/2000/svg" height="96" viewBox="0 0 256 96" xmlns:xlink="http://www.w3.org/1999/xlink">
<path d="m163.392,18.528v5.088h-3.648v-5.088h3.648zm86.592-2.88q.576-.192 .672-.192 .96,0 .96,1.44v6.72h-87.072v-5.088h52.128q25.056,0 33.312-2.88zm-121.152,7.968q-1.536,0-1.536-1.344v-3.744h3.36l-.192-.864q-.192-1.056 .576-1.152 3.072-.48 6.432-1.776t4.896-2.544q.672-.48 .672,.192 0,.096-.192,.288-.96,.96-3.984,2.736t-5.424,2.64q-.48,.384-.576,.48h25.728v5.088h-29.76zm122.784,11.232q0,1.344-.864,1.344-.192,0-.768-.192-6.72-2.112-16.128-2.496v.864q0,.48-.576,.48h-55.776q-.096,.192-.576,.672-1.92,1.728-7.68,1.728h-35.616q-10.08,0-17.568,.576-1.344,0-.864,1.344l.96,2.592q.672,1.536 .672,2.88 0,.96-.384,1.728-1.44,2.688-7.872,3.936-2.592,.576-4.512,.576-4.512,0-6.336-4.416l-.96-2.208q-.96-1.92-3.072-1.92-.576,0-1.44,.288l-78.528,28.8q-1.728,.576-3.168,.576-2.688,0-2.976-2.784-1.536-15.552-5.088-29.376-.288-1.248-.288-2.208 0-2.208 1.68-2.88t5.424-.768q43.2-.768 55.68-2.784 1.728-.288 2.88-.288 1.536,0 2.64,.528t1.536,1.008 1.2,1.44q.48,.48 1.152,.192 .384-.192 6.72-2.976t8.64-4.128q10.176-6.048 17.76-7.488l-.192-.96q-.096-.288 .288-.576t.96-.288q.864,0 .96,.48l.192,.96q.096,0 .432-.048t.528-.048l5.664-10.176q.288-.576 .864-.576 .768,0 .768,.672 0,.768-.864,.768-.576,0-.576,.672 0,.096 .096,.336t.096,.336q0,.384-.384,.768-.192,.192-.192,.384 0,.768 .864,.768 .576,0 .576-.672-.192-.48 .048-.768t.624-.096q0-.672 .768-.96 .48-.288 .48-.672 0-.096-.048-.384t-.048-.48q0-1.344 1.248-1.344 .672,0 1.248,.528t.576,1.104q0,1.056-1.152,1.344-.768,.192-.768,.864 0,.96-.384,.96 .288,.192 .192,.576t-.48,.384q2.784,1.536 3.936,3.936 .288,.576 .288,1.248h2.016v3.744q0,2.496 2.688,2.496h122.784v10.08zm-136.608,10.944q.288-.576 .288-1.056 0-.576-.576-2.208l-1.344-3.456q-.384-.96-1.536-.864l-3.744,.48q-1.056,.096-1.68,1.104t-.624,2.16q0,.96 .336,2.352t.336,2.064q0,1.728-1.632,1.728-1.152,0-1.152-.96 0-.864 .768-.864 .384,0 .576,.192 .096,.096 .288,.096t.288-.192-.096-.576q-.864-2.688-.96-3.936-.096-.384-.672-.384-2.016,0-2.496-1.536-2.976,.576-4.992,1.344 1.152,.672 2.016,2.496l1.056,2.304q.672,1.824 1.632,2.592t2.976,.768q1.632,0 4.224-.576 5.76-1.152 6.72-3.072zm1.152-30.432q.192-.384-.288-.576-.384-.192-.576,.192l-1.152,2.688q-.192,.48 .288,.672 .384,.192 .576-.288z"/>
</svg>
