<svg width="404" xmlns="http://www.w3.org/2000/svg" height="96" viewBox="0 0 404 96" xmlns:xlink="http://www.w3.org/1999/xlink">
<path d="m398.208,23.712q.768,0 .768,.768v4.416q0,.672-.768,.672h-94.368v3.84q0,1.824-1.824,1.92l-159.072,8.736-1.632,3.648q-2.592,7.008-11.904,7.008-3.36,0-5.232-1.68t-1.872-4.656q0-3.648-3.456-3.648-7.392,0-13.392,6.192t-6,14.16q0,1.152-.384,1.584t-1.344,.24q-9.888-1.92-14.784-4.416-1.248-.768-.384-2.304 .96-1.824 .576-2.832t-1.92-1.008q-.96,0-2.592,.576l-72.192,28.128q-2.208,1.248-2.208-.768v-43.296q0-3.36 3.456-3.36h5.856q5.952,0 13.152-2.064t11.616-4.752q3.456-1.92 7.488-1.632l39.648,2.784q4.128,.192 6.912,2.304 3.264,2.304 6.048,2.304 2.208,0 4.608-1.248 12.096-5.952 16.992-7.2 4.8-1.344 12.096-1.344 .48,0 .48,.096v2.304q0,1.536-.288,2.016l-1.632,2.4h-.576q-1.536,0-2.64,1.104t-1.104,2.64q0,1.632 1.104,2.736t2.64,1.104q1.632,0 2.736-1.104t1.104-2.736q0-.768-.48-1.728l2.016-2.016h1.44q1.536,0 1.536-1.632v-6.528q0-.576 .576-.576h11.904q.48,0 .48,.288 0,2.496 2.4,2.496h25.44q2.4,0 2.4-2.496v-3.936q0-1.728 .864-2.688t2.112-.96h3.072v-3.456h-9.984q0,.864-.768,.864h-7.584q-.768,0-.864-.864h-17.28v6.048q1.248,0 1.536,1.056h27.744v3.936q0,.48-.048,.72t-.336,.384-.864,.144h-25.44q-.768,0-1.008-.288t-.24-.96q0-1.536-1.632-1.536h-11.904q-1.728,0-1.728,1.824v6.528q0,.384-.384,.384h-2.016l-2.592,2.88v.768q.384,.672 .384,1.344 0,1.056-.768,1.824t-1.824,.768-1.824-.768-.768-1.824 .768-1.824 1.824-.768l1.152-.192 2.112-2.688q.384-.672 .384-2.688v-2.304q0-1.344-1.632-1.344-6.72,0-12,1.248v-4.224q0-.672 .672-.96 3.648-1.152 7.104-1.152v-1.152l.384-.384h2.88q1.824,0 2.208,1.344h5.664v-2.304l.48-.48h4.416q1.344,0 1.344-1.92 0-1.344-.96-1.344h-.576q-.96,1.92-4.32,1.92h-2.016l-1.056,1.056h-23.712l-.672-.672v-13.248l.672-.672h23.712l1.056,1.056h2.016q3.36,0 4.32,2.016h1.632q0-2.496 2.88-2.496t2.88,2.496h17.856v-3.168q0-1.632 1.44-1.632h5.568q1.44,0 1.44,1.632v3.168h10.272q0-2.496 2.88-2.496 2.784,0 2.784,2.496h4.512q2.4,0 5.184-.672l7.104-1.728q2.4-.96 6.24-.96h10.368l.768,.864v13.536l-.768,.768h-10.368q-3.744,0-6.24-.864l-7.104-1.728q-4.032-.768-5.184-.768h-4.512v2.496q3.168,0 3.168,2.016v1.728h5.664q4.992,0 14.4,.72t15.936,.816zm-102.912,31.776q4.32,0 6.96-1.584t2.64-3.984q0-4.128-4.704-3.84l-1.44,.096q-2.208,.096-3.456,1.728t-1.248,3.552q0,1.44 .768,2.4v.576h-.576q-1.536-1.44-1.536-3.84 0-2.304 1.44-3.744v-.384l-2.016,.192q-1.344,.096-2.112,1.152t-.768,2.592q0,2.016 1.536,3.552t4.512,1.536z"/>
</svg>
