<svg width="455" xmlns="http://www.w3.org/2000/svg" height="96" viewBox="0 0 455 96" xmlns:xlink="http://www.w3.org/1999/xlink">
<path d="m273.504,32.064q0,2.208-2.4,2.304l-96.48,3.456v-9.168t.144-.288 .384-.24 .72-.096h95.616q1.248,0 1.632,.48t.384,1.728v1.824zm175.008-2.784l-1.152,1.248-172.704,1.536v-1.824q0-3.36-3.168-3.36h-95.616q-2.496,0-2.496,2.208v8.736q-6.528,.576-8.64,4.992-.768,1.536-2.4,1.536h-.576l-.96,4.128q-2.592,10.848-11.808,10.848-4.8,0-8.256-3.072-3.168-2.88-5.664-2.88-3.36,0-5.856,4.704-2.304,4.512-4.704,7.872-1.92,2.688-4.704,2.688-3.168,0-4.224-2.976-.192-.576-.624-2.256t-.624-1.968q-.288-.48-.864-.48t-.864,.672q-.192,.768-.864,.768-.864,0-.864-1.248 0-.96 .384-1.344l-101.76,37.536q-1.056,.384-1.392-.192t.336-1.536q6.912-10.656 6.912-21.6 0-10.272-6.048-17.568-1.824-2.304 .864-2.688l87.168-14.208q.576-.096 1.632-.096 2.592,0 3.264,1.728 1.152,2.304 3.84,2.304 1.152,0 2.304-.384l40.992-12q-.768-2.4-3.216-4.368t-4.944-2.16l-.384-.672 .288-.672q3.936,0 7.776,2.784 .768,.672 1.728,.672 1.344,0 1.728-.96l.768-1.44h2.112l.672-.576h3.84q0-.192 .048-.672t.048-.768l1.056-1.056h12.48l1.056,1.152h45.312v-3.456l.768-.672h.864l.288,.384v2.4h5.856l1.44,1.344h206.112l2.016-2.4h2.112l1.728,2.4h6.624l.96,.96v5.952zm-325.44,35.616q.384-.48 3.168-5.664t4.704-6.72l-16.992,6.336q1.824,.192 2.304,2.976 1.152,4.992 3.552,4.992 1.728,0 3.264-1.92zm34.848-16.128v-4.224q-2.976,.192-4.512,.48l-4.032,2.4q-3.168,1.92-3.168,5.088 0,1.248 .48,2.496l-.192,.384-.48-.096q-1.248-1.824-1.248-3.84 0-2.4 1.824-4.608l-11.328,4.128q3.168,.096 6.624,3.264 3.168,3.072 7.488,3.072 3.168,0 5.856-2.304t2.688-6.24z"/>
</svg>
