<svg width="176" xmlns="http://www.w3.org/2000/svg" height="96" viewBox="0 0 176 96" xmlns:xlink="http://www.w3.org/1999/xlink">
<path d="m83.424,52.224q0,5.184 .72,9.12t3.408,13.152l2.976,10.176-.48,1.632-21.216,5.664-1.44-.768-4.512-15.648q-3.072-10.368-3.072-21.12l23.616-4.608v2.4zm56.928-14.496q0,1.728-1.536,1.728h-.672q-1.632,0-1.632-1.728v-3.744q0-1.056-1.056-1.056h-.576v-11.712h-1.248v11.712h-3.36v-11.712h-1.152v11.712h-3.36v-11.712h-1.248v11.712h-3.36v-11.712h-1.152v11.712h-3.36v-11.712h-1.152v11.712h-3.36v-11.712h-1.152v11.712h-3.36v-11.712h-1.248v11.712h-3.36v-11.712h-1.248v11.712h-3.264v-11.712h-1.248v11.712h-3.36v-11.712h-1.248v11.712h-.672q-.768,0-1.344,.768t-1.344,.768q-1.344,0-1.44-1.728v-16.032l.48-.48h51.648l.384,.384v21.12zm33.408-12.672l-.672,.672h-6.336l-.576-.768h-4.032l-.768,1.056h-4.032l-.672-.864h-1.536v4.704l-.768,.768h-12.768v-14.496l-1.152-1.152h-52.608l-1.248,1.248v.672h-6.624v-.384q0-2.112-2.112-2.112h-7.392q-2.112,0-2.112,2.112v.384h-46.176q-.48,0-.864-.768-.768-1.44-1.92-1.44h-4.992v-2.016l1.92-2.88h1.632v-.864l.864-.768h7.104v1.632h2.784v-1.632h2.784v1.632h2.688v-1.632h2.784v1.632h2.688v-1.632h2.88v1.632h2.688v-1.632h2.784v1.632h2.688v-1.632h2.784v1.632h2.784v-1.632h2.688v1.632h2.784v-1.632h2.688v1.632h2.88v-1.632h2.688v1.632h2.784v-1.632h2.688v1.632h2.784v-1.632h2.688v1.632h2.784v-1.632h2.784v1.632h2.784v-1.632h2.784v1.632h2.688v-1.632h2.784v1.632h2.688v-1.632h2.784v1.632h2.784v-1.632h2.688v1.632h2.784v-1.632h2.784v1.632h2.784v-1.632h2.688v1.632h2.784v-1.632h2.688v1.632h2.784v-1.632h2.688v1.632h2.784v-1.632h2.784v1.632h2.784v-1.632h2.784v1.632h2.688v-1.632h9.984l.864,.864v9.792h1.536l.672-.864h4.032l.768,1.056h4.032l.576-.768h6.336l.672,.672v6.144zm-119.328,12.48q3.36,0 3.36,3.36v11.904h-20.832q-2.784,0-4.032,2.208t-.192,4.608q.48,1.056 .048,1.68t-1.68,.624q-2.016,0-2.88,1.92t-.288,3.936q.768,2.304-1.44,2.304-1.632,0-2.544,1.392t-.432,3.312q.48,2.304-1.008,3.264t-5.52,0l-13.824-3.36q-1.056-.384-1.2-1.584t.528-2.256q1.824-2.88 7.248-10.128t7.632-9.552q4.704-4.8 4.704-10.08 0-2.496-2.4-4.368t-5.856-1.872h-4.608l-.768-.864v-17.376l.576-.672h4.128v3.648q0,7.392 8.736,7.392h28.512v6.24q0,4.32 4.032,4.32zm-3.456,13.248q1.92,0 3.312-1.536t1.392-3.744-1.392-3.744-3.312-1.536h-5.952q-1.44,2.016-1.44,4.416 0,2.784 1.632,4.416l-.576,.576h-.96q-2.496-2.784-2.496-6.528 0-1.248 .48-2.88-1.92,.192-3.216,1.68t-1.296,3.6q0,2.208 1.44,3.744t3.36,1.536h9.024zm33.504-2.976l-25.536,4.896v-11.808q0-4.608-4.512-4.608-1.632,0-2.208-.624t-.576-2.448v-6.24h2.688v2.88q0,.96 .624,1.632t1.584,.672 1.584-.672 .624-1.632q0-.576-.576-.576t-.576,.576q0,1.056-1.056,1.056t-1.056-1.056v-4.896q0-1.152 1.056-1.152 .672,0 .672-.48 0-.672-.672-.672-.96,0-1.584,.672t-.624,1.632v.864h-32.448q-4.512,0-6-1.68t-1.488-4.56v-2.88l.576-.768h4.416q.384,0 .864,.768 .672,1.344 1.92,1.344h47.424v-1.536q0-.672 .144-.768t.72-.096h7.392q.576,0 .72,.096t.144,.768v1.536h7.872v7.776h-28.224v1.152h28.224v5.376q-3.36,1.536-3.36,5.664v7.392l1.248,.576v1.824z"/>
</svg>
