<svg width="164" xmlns="http://www.w3.org/2000/svg" height="96" viewBox="0 0 164 96" xmlns:xlink="http://www.w3.org/1999/xlink">
<path d="m89.856,17.088v6.624h-2.304v-6.624h2.304zm-3.648,0v6.624h-2.4v-6.624h2.4zm7.392,0v6.624h-2.4v-6.624h2.4zm-11.04,0v6.624h-41.856v-6.624h16.416v3.36l.864,.768h18.528q2.784,0 2.784-2.976v-1.152h3.264zm-6.048,2.976h-18.144v-2.976h19.776v1.152q0,1.824-1.632,1.824zm-37.632,8.544h-35.616v-17.856l.768-.96h8.64q5.952,0 5.952,4.992v1.344h20.064l.864,.96v10.752zm65.952-8.928q0,3.84-3.264,4.608v-6.432h3.264v1.824zm-4.512,4.8h-2.496v-6.624h2.496v6.624zm-3.648-6.624v6.624h-2.496v-6.624h2.496zm63.36,7.68l-.864,.96h-17.184v2.016q0,7.776-9.792,7.776h-12.672v32.736q0,2.304-2.4,2.304h-12.96q-2.496,0-2.496-2.304v-32.736h-23.232v3.84q0,4.416-2.4,6.768t-6.816,2.352h-13.632v22.176l-1.056,1.248h-12.096q-4.512,0-6.432-2.496t-1.92-7.776q0-3.072 1.2-8.016t1.392-6.096h-1.728l-.576-.576v-4.032q0-2.976-1.104-4.128t-4.176-1.152h-24.48q-2.016,0-2.016-1.728v-6.144h36.096l1.344-1.44v-3.36h60q2.976,0 4.56-1.824t1.584-4.224v-1.824l.96-.96h20.448v-.576q0-3.456 1.824-5.376t4.416-1.92q2.208,0 3.6,1.44t1.392,4.128v2.304h1.248q1.92,0 1.92,1.824v.864h17.184l.864,.96v4.992zm-119.52,12.672v1.344h11.616v-1.344h-11.616zm-.192,4.128v1.344h11.808v-1.344h-11.808zm-.48,4.128l-.288,1.344h12.576v-1.344h-12.288zm-.864,4.128l-.288,1.344h13.44v-1.344h-13.152zm-.768,4.128l-.288,1.44h14.208v-1.44h-13.92zm13.92,13.728v-1.248h-13.152q.48,.768 1.056,1.248h12.096zm0-4.128v-1.248h-14.304l.288,1.248h14.016zm.192-4.128v-1.344h-14.592v1.344h14.592zm24.192-20.064v-3.84h-12.288q-1.536,1.728-1.536,3.744 0,3.36 2.688,5.088l-.288,.864h-.864q-1.824-.768-2.88-2.592t-1.056-3.744v-3.36h-4.704v10.944h13.632q7.296,0 7.296-7.104zm8.832-8.448v-3.36h-1.248v2.784l-.576,.576h-22.752q.192-.576 .192-.96 0-1.44-1.056-2.448t-2.4-1.008q-1.44,0-2.4,1.008t-.96,2.448q0,1.344 .96,2.352t2.4,1.008q1.344,0 2.592-1.056h23.904zm32.352,34.56v-1.152h-10.752v1.152h10.752zm0-4.032v-1.344h-10.752v1.344h10.752zm0-4.128v-1.344h-10.752v1.344h10.752zm0-4.224v-1.248h-10.752v1.248h10.752zm0-4.128v-1.248h-10.752v1.248h10.752zm0-4.128v-1.248h-10.752v1.248h10.752zm0-4.128v-1.248h-10.752v1.248h10.752zm0-4.224v-1.152h-10.752v1.152h10.752zm-58.848-10.08q.864,0 1.488,.672t.624,1.536-.624,1.488-1.488,.624q-.96,0-1.584-.624t-.624-1.488 .624-1.536 1.584-.672z"/>
</svg>
