<svg width="151" xmlns="http://www.w3.org/2000/svg" height="96" viewBox="0 0 151 96" xmlns:xlink="http://www.w3.org/1999/xlink">
<path d="m92.352,34.848q.384,0 .96-.384l5.856-7.2h-96q.192,2.208 1.152,3.264t2.976,1.536l10.752,2.784h74.304zm-.192,1.344q1.344,0 2.112-.96l5.568-7.104q.672-.864 2.304-.864h21.12v6.528q0,2.88 1.152,4.704 3.072,4.128 3.072,9.888 0,5.472-4.128,9.216t-12.768,3.744q-8.256,0-14.784-4.032-4.704-2.784-9.888-3.072-2.208-10.848-2.208-18.048h8.448zm14.208,18.816q3.456,0 5.904-2.448t2.448-6q0-3.36-2.448-5.808t-5.904-2.448-5.904,2.448-2.448,5.808q0,3.552 2.448,6t5.904,2.448zm-19.68,6.048q.384,4.608 2.352,13.008t3.888,12.432q.672,1.728-1.056,2.592l-15.264,3.936q-2.208,.576-2.88-1.824-1.632-4.416-3.456-12.816t-2.208-13.296l.672-1.344-1.632-8.256q-1.92,0-2.688-1.44-1.824-3.072-5.376-3.072h-16.704q-3.36,0-4.704,2.688-5.856,2.208-5.856,7.776-2.208,1.44-2.928,2.88t-.72,4.704q-1.152,.384-1.92,1.872t-.768,3.312q0,1.92 .864,3.456 .576,1.056-.48,1.056-7.68,0-12.768-3.552t-5.088-10.08q0-6.912 9.12-12.384 6.816-4.032 6.816-10.08 0-4.128-2.496-6.432h61.344q.192,9.12 2.88,24.096zm-30.72-11.232q2.592,0 4.368-1.776t1.776-4.08-1.776-3.984-4.368-1.68h-2.4v1.44q-2.208,2.016-2.208,4.8t1.824,4.224l-.288,.48h-.576q-2.976-1.728-2.976-5.376 0-1.056 .192-1.632 .384-1.536 .384-1.824 0-1.248-.672-2.112-2.592,0-4.416,1.68t-1.824,3.984 1.824,4.08 4.416,1.776h6.72zm23.04-30.816q.768,0 1.392,.576t.624,1.248q0,.768-.624,1.296t-1.392,.528q-.576,0-1.104-.528t-.528-1.296q0-.672 .528-1.248t1.104-.576zm71.232,8.064l-.576,.672h-19.584v4.32l-.48,.576h-4.128v-5.952h-121.344v-6.432h1.152l.672-3.168-2.208-4.992 1.632-.768 2.208,4.704q2.304-.48 4.512-2.304 2.208-2.016 5.184-2.016h5.664q2.496,0 5.088,1.104t6.432,1.104h47.136q1.92,0 3.12,.96t1.2,2.016h39.36v-7.584l.576-.48h3.744l.48,.384v11.616h19.584l.576,.576v5.664zm-127.584-5.376q0-.768-.48-.768-.576,0-.576,.768 0,.96 .72,1.68t1.776,.72h9.408q1.152,0 1.872-.72t.72-1.68q0-.576-.192-1.344-.096-.288-.576-.288-.288,0-.288,.288-.096,.48-.096,1.344 0,1.248-1.44,1.248h-9.408q-1.44,0-1.44-1.248zm22.656-.192q0-.768-.48-.768t-.48,.768q0,1.92 2.112,1.92h29.664q1.536,1.344 2.88,1.344 1.632,0 2.784-1.2t1.152-2.736q0-1.632-1.104-2.736t-2.832-1.104q-1.536,0-2.592,1.104t-1.056,2.736q0,.288 .048,.768t.048,.672h-28.992q-1.152,0-1.152-.768zm58.08,2.112q.672,0 1.248-.48t.576-1.056q0-.672-.528-1.152t-1.296-.48h-4.416q-.768,0-1.296,.48t-.528,1.152q0,.576 .576,1.056t1.248,.48h4.416zm9.696,0q.768,0 1.344-.48t.576-1.056q0-1.632-1.92-1.632h-4.32q-1.92,0-1.92,1.632 0,.576 .576,1.056t1.344,.48h4.32zm9.792,0q.768,0 1.344-.48t.576-1.056q0-.672-.576-1.152t-1.344-.48h-4.32q-.768,0-1.344,.48t-.576,1.152q0,.576 .576,1.056t1.344,.48h4.32z"/>
</svg>
