<svg width="67" xmlns="http://www.w3.org/2000/svg" height="96" viewBox="0 0 67 96" xmlns:xlink="http://www.w3.org/1999/xlink">
<path d="m63.84,34.368q0,.864-.768,.864h-3.648q-2.88,0-4.992,2.976l-6.72,9.408q-3.168,3.168-6.624,3.168h-5.088q-4.32,0-6.624-3.072-1.632-2.112-3.552-2.112-5.376,2.016-7.008,7.104l-3.552,10.944q-.768,1.92-2.688,.576l-9.408-6.624q-1.248-.768-.768-2.688 1.056-5.952 4.896-11.616 3.84-6.048 3.84-9.408 0-2.784-2.688-4.512l-1.152-.96q-.768-.768-.192-1.728l1.248-2.016h.48l1.248,.48q0-.864 1.248-.864 1.536,0 4.32-1.152 0-2.112 1.92-2.784 .96-.288 .96-.864 0-.384-.48-1.152-.288-.288-.144-.816t.72-.528q.48,0 .768,.384l1.44,2.016q.192-.192 .96-1.536l.48-.384h25.728q1.632,1.824 4.416,2.208l7.776-2.4h.576l2.976,9.312 .096,.768v.768h-19.104v-8.256l-.48-.576h-16.128l-.672,.576v2.496h1.152v-1.92h15.072v13.536h1.056v-4.608h19.104v4.992zm-22.848,15.072q2.976,0 4.56-1.536t1.584-3.84q0-2.016-1.44-3.456t-3.552-1.248l-1.536,.192q-.288,.576-1.536,1.344-2.208,1.056-2.208,4.128 0,2.496 1.152,3.072l-.096,.288-.288,.096q-2.016-.96-2.016-4.512 0-1.152-.768-1.92l-1.728-1.152q-2.496,1.344-2.496,4.128 0,1.92 1.344,3.168t3.648,1.248h5.376zm-12.672-16.608v1.152h12.864v-1.152h-12.864z"/>
</svg>
