<svg width="402" xmlns="http://www.w3.org/2000/svg" height="96" viewBox="0 0 402 96" xmlns:xlink="http://www.w3.org/1999/xlink">
<path d="m395.712,23.232q1.248,0 1.248,1.344v5.472q0,1.248-1.248,1.248l-131.04,.96q0,2.112-1.056,3.072t-3.456,1.056l-122.88,6.624-.096,.288q2.592,1.248 2.592,4.704 0,2.976-2.976,5.184t-9.312,2.208q-4.896,0-7.488-1.536t-4.608-4.8q-.864-1.536-2.592-1.536-7.392,0-13.872,4.752t-11.28,11.952q-.96,1.632-3.552,1.632-1.536,0-4.368-.816t-4.176-1.68q-1.44-.96-1.44-3.648l-58.56,24.768q-1.44,.576-2.784,.576-2.688,0-3.84-3.36-1.152-2.688-2.784-14.208t-2.208-19.104q-.384-4.896 4.032-5.376l72.192-8.256q2.784-.384 4.272-.144t2.64,1.392q2.016,2.112 6.144,2.112t11.904-2.784l10.464-3.84q5.568-2.016 12.912-3.936t10.512-2.112q.576,0 .576-.384 0-.48-.48-.48l-6.048,.288q-2.016,.096-4.608,1.344-.576,.288-1.056,.288-1.344,0-1.344-1.92 0-1.056 .432-1.92t1.008-.864q.48,0 1.056,.288 1.536,.96 4.32,.96h9.6q1.632-1.44 7.776-1.44h11.328v-.672l.576-.576h7.2l.768-.864v-3.36h-14.016l-.48,.96h-2.112l-.384-.672h-1.056q-1.44,0-3.12,.528t-3.216,.528h-8.448l-.96-.96v-8.736l.96-1.056h8.448q1.536,0 3.216,.528t3.12,.528h1.056l.384-.672h2.112l.48,.96h14.016q0-.96 .96-.96h2.976q1.056,0 1.056,.96v.48h21.12q0-.96 .864-.96h.96v-1.536l.576-.672h4.416l.576,.672v1.536q1.248,0 1.248,.96v.48q.672-1.056 2.496-1.056 1.632,0 2.592,1.056h7.584l.768,.768v6.624l-.768,.864h-7.776v2.304l.576,.48h7.968q1.344,0 1.344,1.056v.864l144.096,1.056v-.672q0-.768 .864-.768h13.92q.288,0 .816-.672t1.296-.672h2.4v-2.112l.48-.48h.672q1.344,0 2.4,1.728 .48,1.056 1.92,1.056 1.152,0 1.488,.288t.336,1.152v1.344h5.376zm-268.224,30.72q5.568,0 8.16-1.776t2.592-4.176q0-2.688-2.304-3.84-.576-.288-1.344-.288-1.344,0-2.4,1.152l-2.784,3.168q-.672,.96-.672,2.016 0,1.536 .768,2.304 .288,.384 .192,.48-.192,.192-.48,.096-1.92-.672-1.92-3.072 0-2.016 1.344-3.552 .384-.384 .096-.768-.288-.288-.768,0l-4.128,2.304q-1.44,.96-1.44,2.592 0,.768 .288,1.344 .192,.384 0,.576-.288,.288-.576,0-.96-.864-.96-2.4 0-2.112 1.632-3.264 .864-.288 .864-1.056 0-.672-.96-.672-1.632,0-2.88,1.248t-1.248,2.784q0,2.016 2.304,3.408t6.624,1.392zm77.664-31.968v-4.704h-30.336v4.416l.864,.096 2.304-2.016h21.984l2.304,2.208h2.88z"/>
</svg>
