<svg width="150" xmlns="http://www.w3.org/2000/svg" height="96" viewBox="0 0 150 96" xmlns:xlink="http://www.w3.org/1999/xlink">
<path d="m102.048,59.04v22.272h1.536v1.92l-1.536,1.152h-16.8l-1.248-1.152v-24.192h18.048zm44.736-35.328l-.672,.672h-3.264v1.44l-.576,.48h-25.152q-4.8,3.264-7.584,9.024h-20.64l-.384,1.344h20.352q-.864,1.824-1.632,4.32h-20.352l-.288,1.152h20.256l-1.152,4.32h-19.872l-.192,1.152h19.776q-.576,2.88-.672,4.224h-19.392l-.096,1.344h19.392q-.384,2.304-.384,3.552l-1.056,.96h-20.256l-.768-.96q-.192-4.224-2.304-6.528t-5.856-2.304q-1.344,0-2.64,.288t-3.6,1.008-2.784,.816q-3.552,1.056-7.296,1.056-3.456,0-6.576-1.92t-4.464-1.92q-2.592,0-3.648,2.496l-4.8,11.616q-2.88,6.816-2.88,12.384 0,2.688 .672,4.416l-.576,1.344-25.248-4.224-.96-1.248q0-4.128 1.776-8.208t4.368-7.392 5.184-6.528 4.368-6.672 1.776-6.72q0-3.84-5.088-5.28l-11.424-3.456q-6.528-1.92-6.528-6.624v-3.456q0-.96 .576-1.584t1.44-.624h2.88q4.992,0 12.768,2.208 12,3.456 22.656,3.456h51.648l.192-.288q1.536-2.4 4.992-2.4h16.416v-1.152h-16.416q-4.032,0-5.856,2.688h-50.976q-10.656,0-22.272-3.456-7.68-2.208-13.056-2.208v-3.648q0-2.592 3.072-2.592h3.84v-2.016q0-1.056 .72-1.824t1.872-.768h7.968q1.344,2.784 5.184,2.784h9.408l.576,.576v1.248h46.176q1.248,0 2.16-.96t.912-2.208q0-2.688-2.688-3.84-.672-.288-.672-.864 0-.768 .864-.768h6.048q1.056,0 1.056,.96 0,.48-.576,1.056-1.728,1.536-1.728,3.648 0,2.784 1.92,3.744 .864,.576 .864,1.536 0,1.152-1.056,1.152h-43.104q-1.44,0-2.4-.768-.48-.672-.96,0-.288,.48 .192,.864 1.152,1.152 3.168,1.152h43.2q2.304,0 2.304-2.208 0-1.632-1.344-2.496h3.168v-1.056q0-1.152 .96-1.632l3.744-2.016q1.824-.672 3.264-.672h2.688q1.44,0 1.44,1.44v3.936h2.88q3.744,0 3.744,3.84v2.496h24.768l.576,.576v1.344h3.264l.672,.672v4.704zm-74.304,18.048q0-1.632-1.152-2.784t-3.36-1.152h-3.936q-1.824,0-4.128-.96-1.152,1.728-1.152,3.936 0,3.84 3.168,4.992v.768l-.48,.384q-2.304,0-3.984-2.112t-1.68-4.992q0-2.016 .864-3.744h-1.056q-2.496,0-4.08,1.728t-1.584,4.128q0,2.784 2.064,4.944t5.712,2.16q6.048,0 12-2.976 2.784-1.44 2.784-4.32zm68.352-19.488v-1.824h-15.552v1.824h15.552z"/>
</svg>
