<svg width="96" xmlns="http://www.w3.org/2000/svg" height="96" viewBox="0 0 96 96" xmlns:xlink="http://www.w3.org/1999/xlink">
<path d="m30,30h-12c-6,0-6,6-6,6h24s0-6-6-6zm0,12h-12c-6,0-6,6-6,6h24s0-6-6-6zm0,12h-12c-6,0-6,6-6,6h24s0-6-6-6zm42-24h-12c-6,0-6,6-6,6h24s0-6-6-6zm0,12h-12c-6,0-6,6-6,6h24s0-6-6-6zm0,12h-12c-6,0-6,6-6,6h24s0-6-6-6zm-15-39c-6,0-12,6-12,6s-6-6-12-6c-15,0-33,6-33,6v57l42-3s-.094,3 2.906,3c3.094,0 3.094-3 3.094-3l42,3v-57s-18-6-33-6zm-15,57s.094-6-6-6c-18.094,0-30,6-30,6v-48s12-3 24-3c6,0 12,6 12,6v45zm42-3s-9.094-3-30-3c-5.813,0-6,6-6,6v-45s6-6 12-6c12,0 24,6 24,6v42z"/>
</svg>
