<svg width="96" xmlns="http://www.w3.org/2000/svg" height="96" viewBox="0 0 96 96" xmlns:xlink="http://www.w3.org/1999/xlink">
<path d="M66 48h-6v12h6v-12zM54 48h-6v12h6v-12zM66 30h-6v12h6v-12zM78 48h-6v12h6v-12zM54 66h-6v12h6v-12zM72 0h-6v12h6v-12zM24 0h-6v12h6v-12zM78 30h-6v12h6v-12zM54 30h-6v12h6v-12zM30 66h-6v12h6v-12zM18 48h-6v12h6v-12zM30 48h-6v12h6v-12zM78 6v12h-18v-12h-30v12h-18v-12h-12v84h90v-84h-12zM84 84h-78v-60h78v60zM18 66h-6v12h6v-12zM42 30h-6v12h6v-12zM42 66h-6v12h6v-12zM30 30h-6v12h6v-12zM42 48h-6v12h6v-12zM66 66h-6v12h6v-12z"/>
</svg>
