<svg width="72" xmlns="http://www.w3.org/2000/svg" height="96" viewBox="0 0 72 96" xmlns:xlink="http://www.w3.org/1999/xlink">
<path d="m71.344,48.375l-4.688-4.688c-.563-.656-1.594-.656-2.156,0l-21.094,21.094-8.719-8.719c-.656-.656-1.594-.656-2.25,0l-4.688,4.688c-.656,.656-.656,1.594 0,2.25l14.531,14.531c.656,.656 1.594,.656 2.25,0l26.906-26.906c.656-.563 .656-1.594 0-2.25zm-49.967,6.094l4.688-4.688c3.938-3.938 10.875-3.938 14.906,0l2.344,2.344 10.688-10.125v-30h-54v66h30l-8.625-8.625c-4.125-4.125-4.125-10.781 0-14.906zm-3.376-36.469h30v6h-30v-6zm0,12h30v6h-30v-6zm-6,18h-6v-6h6v6zm0-12h-6v-6h6v6zm0-12h-6v-6h6v6zm6,18h6v6h-6v-6z"/>
</svg>
