<svg width="84" xmlns="http://www.w3.org/2000/svg" height="96" viewBox="0 0 84 96" xmlns:xlink="http://www.w3.org/1999/xlink">
<path d="M66 84h-60v-54h60v18h6v-30c0-3.281-2.719-6-6-6h-18c0-6.656-5.344-12-12-12s-12 5.344-12 12h-18c-3.281 0-6 2.719-6 6v66c0 3.281 2.719 6 6 6h60c3.281 0 6-2.719 6-6v-12h-6v12zM18 18s0 0 6 0 6-6 6-6c0-3.281 2.719-6 6-6s6 2.719 6 6c0 0 0 6 6 6h6c6 0 6 6 6 6h-48s0-6 6-6zM12 66h12v-6h-12v6zM54 54v-12l-24 18 24 18v-12h30v-12h-30zM12 78h18v-6h-18v6zM42 36h-30v6h30v-6zM24 48h-12v6h12v-6z"/>
</svg>
