<svg width="96" xmlns="http://www.w3.org/2000/svg" height="96" viewBox="0 0 96 96" xmlns:xlink="http://www.w3.org/1999/xlink">
<path d="m48,36l-18,18h12v30h12v-30h12l-18-18zm30-6c-.844,0-1.594,.094-2.438,.281-4.594-10.688-15.188-18.281-27.563-18.281s-23.063,7.5-27.563,18.281c-.75-.094-1.594-.281-2.438-.281-9.938,0-18,8.063-18,18s8.063,18 18,18c1.969,0 3.75-.375 5.438-.938 3.188,3.563 7.594,5.906 12.563,6.656v-6.094c-4.688-.938-8.625-4.031-10.594-8.25-2.063,1.688-4.594,2.719-7.406,2.719-6.656,0-12-5.344-12-12s5.344-12 12-12c2.344,0 4.594,.75 6.375,1.875 1.969-11.25 11.719-19.875 23.625-19.875s21.563,8.625 23.531,19.969c1.875-1.219 4.125-1.969 6.563-1.969 6.656,0 12,5.344 12,12s-5.344,12-12,12c-.938,0-1.875-.188-2.813-.375-2.719,3.844-7.125,6.375-12.188,6.375-1.031,0-2.063-.188-3-.375v6.094c.938,.188 1.969,.281 3,.281 5.719,0 10.969-2.344 14.719-6 .094,0 .188,0 .281,0 9.938,0 18-8.063 18-18s-8.063-18-18-18z"/>
</svg>
