<svg width="78" xmlns="http://www.w3.org/2000/svg" height="96" viewBox="0 0 78 96" xmlns:xlink="http://www.w3.org/1999/xlink">
<path d="m39,43.5c-5.813,0-10.5,4.688-10.5,10.5s4.688,10.5 10.5,10.5 10.5-4.688 10.5-10.5c0-.844-.094-1.594-.281-2.344 7.688-8.906 19.5-22.781 25.875-30.656 2.156-2.719-.188-5.25-3-3-7.969,6.469-21.75,18.281-30.656,25.875-.75-.188-1.5-.281-2.344-.281zm2.906-19.688c0-1.688-1.313-3-3-3s-3,1.313-3,3 1.313,3 3,3 3-1.313 3-3zm18,24c0,1.688 1.313,3 3,3s3-1.313 3-3-1.313-3-3-3-3,1.313-3,3zm-33-24c-1.688,0-3,1.313-3,3s1.313,3 3,3 3-1.313 3-3-1.313-3-3-3zm-6,12c0-1.688-1.313-3-3-3s-3,1.313-3,3 1.313,3 3,3 3-1.313 3-3zm-9,12c0,1.688 1.313,3 3,3s3-1.313 3-3-1.313-3-3-3-3,1.313-3,3zm42-21c0-1.688-1.313-3-3-3s-3,1.313-3,3 1.313,3 3,3 3-1.313 3-3zm20.344,4.594l-6.469,8.438c.75,2.531 1.125,5.25 1.125,7.969 0,16.594-13.406,30-30,30s-30-13.406-30-30 13.406-30 30-30c6.188,0 11.906,1.875 16.688,5.063l7.406-5.719c-6.656-5.25-15-8.344-24.094-8.344-21.563,0-39,17.438-39,39s17.438,39 39,39 39-17.438 39-39c0-5.906-1.313-11.438-3.656-16.406z"/>
</svg>
