<svg width="72" xmlns="http://www.w3.org/2000/svg" height="96" viewBox="0 0 72 96" xmlns:xlink="http://www.w3.org/1999/xlink">
<path d="m36,90c-19.875,0-36-5.344-36-12 0-3.656 0-7.594 0-12 0-1.031 .563-2.063 1.313-3 4.031,5.156 18,9 34.688,9s30.75-3.844 34.688-9c.75,.938 1.313,1.969 1.313,3 0,3.469 0,7.125 0,12 0,6.656-16.125,12-36,12zm-.002-24c-19.875,0-36-5.344-36-12 0-3.656 0-7.594 0-12 0-.656 .281-1.219 .563-1.875 .188-.375 .469-.75 .75-1.125 4.031,5.156 18,9 34.688,9s30.75-3.844 34.688-9c.281,.375 .563,.75 .75,1.125 .281,.656 .563,1.219 .563,1.875 0,3.469 0,7.125 0,12 0,6.656-16.125,12-36,12zm-.002-24c-19.875,0-36-5.344-36-12 0-1.875 0-3.938 0-6 0-1.875 0-3.844 0-6s16.125-12 36-12 36,5.344 36,12c0,1.875 0,3.844 0,6 0,1.875 0,3.75 0,6 0,6.656-16.125,12-36,12zm0-30c-13.219,0-24,2.719-24,6s10.781,6 24,6 24-2.719 24-6-10.781-6-24-6z"/>
</svg>
