<svg width="96" xmlns="http://www.w3.org/2000/svg" height="96" viewBox="0 0 96 96" xmlns:xlink="http://www.w3.org/1999/xlink">
<path d="M48 36c-6.656 0-12 5.344-12 12s5.344 12 12 12c0.563 0 1.031 0 1.594-0.094-4.313-0.656-7.688-4.406-7.688-8.906 0-4.969 4.031-9 9-9 4.5 0 8.25 3.375 8.906 7.688 0.094-0.563 0.094-1.031 0.094-1.594 0-6.656-5.344-12-12-12zM84 24h-12l-12-12h-24l-12 12h-12c-3.281 0-6 2.719-6 6v42c0 3.281 2.719 6 6 6h72c3.281 0 6-2.719 6-6v-42c0-3.281-2.719-6-6-6zM39 18h18l6 6h-30l6-6zM15 72c-1.688 0-3-1.313-3-3v-27h6v-6h-6v-3c0-1.688 1.313-3 3-3h17.156c-0.375 0.375-0.75 0.656-1.125 1.031-9.375 9.375-9.375 24.563 0 33.938l7.031 7.031h-23.063zM48 66c-9.938 0-18-8.063-18-18s8.063-18 18-18 18 8.063 18 18-8.063 18-18 18zM78 45l-14.156-15h14.156v15z"/>
</svg>
