<svg width="96" xmlns="http://www.w3.org/2000/svg" height="96" viewBox="0 0 96 96" xmlns:xlink="http://www.w3.org/1999/xlink">
<path d="m54,18c-3.281,0-6,2.719-6,6s2.719,6 6,6 6-2.719 6-6-2.719-6-6-6zm30,18l-12,12v-6c0-2.906-2.063-5.25-4.688-5.906 2.906-3.188 4.688-7.5 4.688-12.094 0-9.938-8.063-18-18-18-9.469,0-17.25,7.313-17.906,16.594-3.188-2.906-7.406-4.594-12.094-4.594-9.938,0-18,8.063-18,18s8.063,18 18,18h-6v12h6v12c0,3.281 2.719,6 6,6h36c3.281,0 6-2.719 6-6v-6l12,12h6v-48h-6zm-60-6c-3.281,0-6,2.719-6,6s2.719,6 6,6v6c-6.656,0-12-5.344-12-12s5.344-12 12-12 12,5.344 12,12h-6c0-3.281-2.719-6-6-6zm30,36h-12v-12h12v12zm12-10.219c-3.188-3.188-6.563-6.563-6.844-6.844-.563-.563-1.313-.844-2.156-.844h-18c-1.688,0-3,1.313-3,3v18c0,.75 .281,1.5 .75,2.063 .094,.094 3.656,3.656 6.938,6.938h-10.781c-1.688,0-3-1.313-3-3v-30c0-1.688 1.313-3 3-3h30c1.688,0 3,1.313 3,3v10.781zm-11.907-19.875c-6.656,0-12-5.344-12-12s5.344-12 12-12 12,5.344 12,12-5.344,12-12,12zm30,30l-6-6v-12l6-6v24z"/>
</svg>
