<svg width="72" xmlns="http://www.w3.org/2000/svg" height="96" viewBox="0 0 72 96" xmlns:xlink="http://www.w3.org/1999/xlink">
<path d="m54,6h-54v84h72v-66l-18-18zm-48,6h24c-1.219,.375-2.531,1.406-3.281,4.031-1.219,4.594-.656,12.281 1.5,19.594-2.25,7.594-11.531,25.969-12.094,27-1.5,.469-6.094,2.25-10.125,5.625v-56.25zm26.531,28.781c5.438,14.063 8.906,14.063 12.656,15.75-7.875,1.219-13.875,2.063-21.844,5.531-.375,.563 7.219-13.688 9.094-21.281zm33.563,43.219h-60c.094,0 .094,0 .188,0 3.188,0 7.969-1.969 16.969-17.063 3.563-1.406 6.75-2.531 7.313-2.719 5.531-1.406 11.719-2.531 17.625-3.094 5.063,2.531 11.906,4.313 15.75,4.5 .938,.094 1.5-.094 2.25-.188v18.563zm-.095-29.155c-2.25-1.406-5.063-2.344-8.344-2.344-2.25,0-4.781,.094-7.406,.375-2.531-1.219-8.719-3.094-13.781-17.813 1.594-9.75 1.219-16.313 1.219-16.313 .656-4.969-2.156-6.844-4.875-6.844h15.188l18,18v24.844z"/>
</svg>
