<svg width="84" xmlns="http://www.w3.org/2000/svg" height="96" viewBox="0 0 84 96" xmlns:xlink="http://www.w3.org/1999/xlink">
<path d="m42,32.813c-8.344,0-15.188,6.844-15.188,15.188s6.844,15.188 15.188,15.188 15.094-6.844 15.094-15.188-6.75-15.188-15.094-15.188zm30.469,23.906l-2.719,6.563 4.875,9.563 .656,1.313-6.75,6.75-11.063-5.25-6.563,2.719-3.375,10.219-.469,1.406h-9.563l-4.125-11.531-6.563-2.719-9.563,4.875-1.313,.656-6.75-6.75 5.25-11.156-2.719-6.563-10.219-3.375-1.313-.469v-9.563l11.531-4.125 2.719-6.563-4.875-9.563-.656-1.219 6.75-6.75 11.156,5.25 6.563-2.719 3.375-10.219 .469-1.313h9.563l4.125,11.531 6.563,2.719 9.563-4.875 1.313-.656 6.75,6.75-5.25,11.063 2.719,6.563 10.219,3.375 1.313,.469v9.563l-11.531,4.125z"/>
</svg>
