<svg width="84" xmlns="http://www.w3.org/2000/svg" height="96" viewBox="0 0 84 96" xmlns:xlink="http://www.w3.org/1999/xlink">
<path d="m42,90h30v-30h-30v30zm-36,0h30v-30h-30v30zm36-54.75c2.906-.375 6.281-.656 8.156-.938 7.875-.844 14.906-7.969 15.844-15.844 .844-7.875-4.781-13.5-12.656-12.656-6.094,.656-11.719,5.156-14.344,10.781-2.625-5.625-8.25-10.125-14.344-10.781-7.875-.844-13.5,4.781-12.656,12.656s7.969,14.906 15.844,15.844c1.969,.188 5.25,.563 8.156,.938-.094,.375 0,.75 0,.75h6s0-.375 0-.75zm10.125-22.125c4.219-.469 7.313,2.625 6.844,6.844s-4.313,8.063-8.531,8.531-7.313-2.625-6.844-6.844 4.313-8.063 8.531-8.531zm-24.375,15.375c-4.219-.469-8.063-4.313-8.531-8.531s2.625-7.313 6.844-6.844 8.063,4.313 8.531,8.531-2.625,7.313-6.844,6.844zm14.344,7.406v18h36v-18h-36zm-42,18h36v-18h-36v18z"/>
</svg>
