<svg width="72" xmlns="http://www.w3.org/2000/svg" height="96" viewBox="0 0 72 96" xmlns:xlink="http://www.w3.org/1999/xlink">
<path d="M12 6c-6.656 0-12 5.344-12 12 0 4.406 2.438 8.25 6 10.313v39.281c-3.563 2.063-6 5.906-6 10.313 0 6.656 5.344 12 12 12s12-5.344 12-12c0-4.406-2.438-8.25-6-10.313v-39.281c3.563-2.063 6-5.906 6-10.313 0-6.656-5.344-12-12-12zM12 84c-3.281 0-6-2.719-6-6s2.719-6 6-6 6 2.719 6 6-2.719 6-6 6zM12 24c-3.281 0-6-2.719-6-6s2.719-6 6-6 6 2.719 6 6-2.719 6-6 6zM66 67.688v-37.688c0-18.094-18-18-18-18h-6v-12l-18 18 18 18v-12s2.531 0 6 0c5.25 0 6 6 6 6v37.688c-3.563 2.063-6 5.906-6 10.313 0 6.656 5.344 12 12 12s12-5.344 12-12c0-4.406-2.438-8.25-6-10.313zM60 84c-3.281 0-6-2.719-6-6s2.719-6 6-6 6 2.719 6 6-2.719 6-6 6z"/>
</svg>
