<svg width="66" xmlns="http://www.w3.org/2000/svg" height="96" viewBox="0 0 66 96" xmlns:xlink="http://www.w3.org/1999/xlink">
<path d="M54 12v-12h-12v12h-12v12h12v12h12v-12h12v-12h-12zM30 54c-4.969 0-8.906 1.031-12 2.719v-28.406c3.563-2.063 6-5.906 6-10.313 0-6.656-5.344-12-12-12s-12 5.344-12 12c0 4.406 2.438 8.25 6 10.313v39.281c-3.563 2.063-6 5.906-6 10.313 0 6.656 5.344 12 12 12s12-5.344 12-12c0-3.188-1.219-6-3.188-8.156 1.781-2.156 4.594-3.844 9.188-3.844 23.813 0 24-24 24-24h-12s0 12-12 12zM12 12c3.281 0 6 2.719 6 6s-2.719 6-6 6-6-2.719-6-6 2.719-6 6-6zM12 84c-3.281 0-6-2.719-6-6s2.719-6 6-6 6 2.719 6 6-2.719 6-6 6z"/>
</svg>
