<svg width="72" xmlns="http://www.w3.org/2000/svg" height="96" viewBox="0 0 72 96" xmlns:xlink="http://www.w3.org/1999/xlink">
<path d="m60,42c-4.5,0-8.344,2.438-10.406,6.094-.563,0-1.031-.094-1.594-.094-12.281,0-23.906-9.375-28.219-20.906 2.531-2.156 4.219-5.438 4.219-9.094 0-6.656-5.344-12-12-12s-12,5.344-12,12c0,4.406 2.438,8.25 6,10.313v39.281c-3.563,2.063-6,5.906-6,10.313 0,6.656 5.344,12 12,12s12-5.344 12-12c0-4.406-2.438-8.25-6-10.313v-21.563c7.875,8.344 18.75,13.969 30,13.969 .563,0 1.125,0 1.594-.094 2.063,3.563 5.906,6.094 10.406,6.094 6.656,0 12-5.344 12-12s-5.344-12-12-12zm-48,42c-3.281,0-6-2.719-6-6s2.719-6 6-6 6,2.719 6,6-2.719,6-6,6zm0-60c-3.281,0-6-2.719-6-6s2.719-6 6-6 6,2.719 6,6-2.719,6-6,6zm48,36c-3.281,0-6-2.719-6-6s2.719-6 6-6 6,2.719 6,6-2.719,6-6,6z"/>
</svg>
