<svg width="60" xmlns="http://www.w3.org/2000/svg" height="96" viewBox="0 0 60 96" xmlns:xlink="http://www.w3.org/1999/xlink">
<path d="M30 54c-4.406 0-8.438 1.313-12 3.375v-28.969c3.563-2.063 6-5.906 6-10.313 0-6.656-5.344-12-12-12s-12 5.344-12 12c0 4.406 2.438 8.25 6 10.313v39.281c-3.563 2.063-6 5.906-6 10.313 0 6.656 5.344 12 12 12s12-5.344 12-12c0-3-1.125-5.719-3-7.875 2.25-2.531 5.438-4.125 9-4.125 13.219 0 24-10.781 24-24 0 0-6 0-12 0 0 6.656-5.344 12-12 12zM12 12c3.281 0 6 2.719 6 6s-2.719 6-6 6-6-2.719-6-6 2.719-6 6-6zM12 84c-3.281 0-6-2.719-6-6s2.719-6 6-6 6 2.719 6 6-2.719 6-6 6zM48 6c-12 0-12 12-12 12v18h24v-18s0-12-12-12zM42 18s0-6 6-6 6 6 6 6h-12z"/>
</svg>
