<svg width="84" xmlns="http://www.w3.org/2000/svg" height="96" viewBox="0 0 84 96" xmlns:xlink="http://www.w3.org/1999/xlink">
<path d="M78 67.688v-37.688c0-18.094-18-18-18-18h-6v-12l-18 18 18 18v-12s2.531 0 6 0c5.25 0 6 6 6 6v37.688c-3.563 2.063-6 5.906-6 10.313 0 6.656 5.344 12 12 12s12-5.344 12-12c0-4.406-2.438-8.25-6-10.313zM72 84c-3.281 0-6-2.719-6-6s2.719-6 6-6 6 2.719 6 6-2.719 6-6 6zM6 29.625v37.688c0 18.094 18 18 18 18h6v12l18-18-18-18v12s-2.531 0-6 0c-5.25 0-6-6-6-6v-37.688c3.563-2.063 6-5.906 6-10.313 0-6.656-5.344-12-12-12s-12 5.344-12 12c0 4.406 2.438 8.25 6 10.313zM12 25.5c-3.281 0-6-2.719-6-6s2.719-6 6-6 6 2.719 6 6-2.719 6-6 6z"/>
</svg>
