<svg width="84" xmlns="http://www.w3.org/2000/svg" height="96" viewBox="0 0 84 96" xmlns:xlink="http://www.w3.org/1999/xlink">
<path d="M24 18c0-6.656-5.344-12-12-12s-12 5.344-12 12c0 4.406 2.438 8.25 6 10.313v39.281c-3.563 2.063-6 5.906-6 10.313 0 6.656 5.344 12 12 12s12-5.344 12-12c0-4.406-2.438-8.25-6-10.313v-39.281c3.563-2.063 6-5.906 6-10.313zM12 84c-3.281 0-6-2.719-6-6s2.719-6 6-6 6 2.719 6 6-2.719 6-6 6zM12 24c-3.281 0-6-2.719-6-6s2.719-6 6-6 6 2.719 6 6-2.719 6-6 6zM66 67.688v-25.688l-6-6-6 6v25.688c-3.563 2.063-6 5.906-6 10.313 0 6.656 5.344 12 12 12s12-5.344 12-12c0-4.406-2.438-8.25-6-10.313zM60 84c-3.281 0-6-2.719-6-6s2.719-6 6-6 6 2.719 6 6-2.719 6-6 6zM75.844 8.344l-6.281-6.281-9.656 9.656-9.656-9.656-6.281 6.281 9.656 9.656-9.656 9.656 6.281 6.281 9.656-9.656 9.656 9.656 6.281-6.281-9.563-9.656 9.656-9.656z"/>
</svg>
