<svg width="96" xmlns="http://www.w3.org/2000/svg" height="96" viewBox="0 0 96 96" xmlns:xlink="http://www.w3.org/1999/xlink">
<path d="m48,12c-19.875,0-36,16.125-36,36s16.125,36 36,36c2.438,0 4.781-.281 7.125-.656-.938-.469-1.031-3.75-.094-5.625 1.031-2.156 4.219-7.5 1.031-9.281s-2.25-2.625-4.219-4.688-1.125-2.344-1.313-2.906c-.469-1.875 1.875-4.594 1.969-4.875s.094-1.313 .094-1.688-1.406-1.125-1.781-1.219-.563,.563-1.031,.563-2.625-1.313-3.094-1.688-.656-1.219-1.313-1.875-.75-.188-1.688-.563-4.125-1.594-6.563-2.531-2.625-2.344-2.719-3.375-1.5-2.438-2.156-3.375c-.656-1.031-.844-2.438-1.031-2.156s1.313,4.031 1.031,4.125-.75-1.031-1.5-1.969 .75-.469-1.5-4.875 .75-6.656 .844-9 1.875,.844 1.031-.656 .094-4.594-.656-5.719-4.688,1.313-4.688,1.313c.094-1.125 3.563-3 6-4.688s3.938-.375 5.906,.281 2.156,.469 1.406-.188 .281-.938 1.875-.75 1.969,2.156 4.313,1.969 .281,.469 .563,1.031-.375,.563-1.875,1.594 0,1.031 2.813,3.094 1.875-1.313 1.594-2.813 1.969-.281 1.969-.281c1.688,1.125 1.406,.094 2.625,.469s4.594,3.188 4.594,3.188c-4.219,2.25-1.594,2.531-.844,3.094s-1.406,1.594-1.406,1.594c-.844-.844-1.031,0-1.594,.375s0,1.125 0,1.125c-2.906,.469-2.25,3.563-2.25,4.219s-1.875,1.875-2.344,2.906 1.313,3.375 .375,3.469-1.875-3.469-6.75-2.156c-1.5,.375-4.781,2.156-3,5.625s4.688-1.031 5.625-.469-.281,2.719-.094,2.719 2.813,.094 2.906,3.094 3.938,2.719 4.688,2.813 3.563-2.25 3.938-2.344 1.969-1.406 5.344,.563 5.063,1.688 6.281,2.438 .375,2.438 1.406,3 5.438-.188 6.563,1.594-4.5,10.781-6.281,11.813-2.531,3.281-4.313,4.688-4.219,3.188-6.563,4.594c-2.063,1.219-2.438,3.375-3.375,4.125 16.125-3.563 28.125-18 28.125-35.156 0-19.875-16.125-36-36-36zm8.439,33.84c-.469,.188-1.5,1.031-4.031-.469s-4.219-1.219-4.406-1.406c0,0-.188-.563 .844-.75 2.25-.188 5.063,2.063 5.719,2.156s.938-.656 2.063-.281 .281,.563-.188,.75zm-11.814-30.187c-.281-.188 .188-.375 .469-.75 .188-.188 0-.563 .188-.75 .563-.563 3.094-1.313 2.625,.188-.469,1.406-2.906,1.594-3.281,1.313zm6.28,4.592c-.844,0-2.906-.281-2.531-.656 1.5-1.5-.563-1.875-1.875-1.969s-1.781-.844-1.125-.844 3.188,0 3.563,.375 2.719,1.313 2.813,1.969 0,1.219-.844,1.219zm7.593-.375c-.75,.563-4.219-2.063-4.969-2.625-3-2.531-4.5-1.688-5.156-2.156s-.375-1.031 .563-1.875 3.656,.281 5.156,.469 3.375,1.406 3.375,2.813 1.688,2.719 1.031,3.281z"/>
</svg>
