<svg width="84" xmlns="http://www.w3.org/2000/svg" height="96" viewBox="0 0 84 96" xmlns:xlink="http://www.w3.org/1999/xlink">
<path d="m42,6c-8.531,0-16.406,2.625-23.063,6.938l-6.938-6.938v24h24l-8.25-8.25c4.219-2.344 9.094-3.75 14.25-3.75 16.594,0 30,13.406 30,30s-13.406,30-30,30-30-13.406-30-30c0-4.313 .938-8.344 2.531-12h-8.531v-9.281c-3.75,6.281-6,13.5-6,21.281 0,23.156 18.844,42 42,42s42-18.844 42-42-18.844-42-42-42zm-.093,71.906l6.094-5.906v-18h12l6-6-6-6h-12l-6-6-12,12 6,6v18l5.906,5.906z"/>
</svg>
