<svg width="84" xmlns="http://www.w3.org/2000/svg" height="96" viewBox="0 0 84 96" xmlns:xlink="http://www.w3.org/1999/xlink">
<path d="M59.906 71.906c-4.969 3.75-11.156 6.094-17.906 6.094-16.594 0-30-13.406-30-30 0-4.313 0.938-8.344 2.531-12h-8.531v-9.281c-3.75 6.281-6 13.5-6 21.281 0 23.156 18.844 42 42 42 10.031 0 19.219-3.656 26.438-9.563l3.563 3.563v-18h-18l5.906 5.906zM36 72h12v-12h-12v12zM48 24h-12v30h12v-30zM84 48c0-23.156-18.844-42-42-42-10.031 0-19.219 3.656-26.438 9.563l-3.563-3.563v18h18l-5.906-5.906c4.969-3.75 11.156-6.094 17.906-6.094 16.594 0 30 13.406 30 30 0 4.313-0.938 8.344-2.531 12h8.531v9.375c3.75-6.281 6-13.5 6-21.375z"/>
</svg>
