<svg width="84" xmlns="http://www.w3.org/2000/svg" height="96" viewBox="0 0 84 96" xmlns:xlink="http://www.w3.org/1999/xlink">
<path d="m66,0h-18s-.094,6-9.094,6-8.906-6-8.906-6h-18c0,12-.188,36-12,36l-.094,54s0,6 6,6h66c6,0 6-6 6-6v-54c-11.813,0-12-24-12-36zm-57,90c-3,0-3-3-3-3l.094-45c11.156-6 12-18 12-36h6s0,18 15,18 15-18 15-18 3.563,0 6,0c0,17.438 3,25.875 6,31.781v52.219h-57.094zm36.094-54l-3,3v30l3,3h12l3-3v-30l-3-3h-12zm9,30h-6v-24h6v24zm-33-30l-3,3v30l3,3h12l3-3v-30l-3-3h-12zm9,30h-6v-24h6v24z"/>
</svg>
