<svg width="96" xmlns="http://www.w3.org/2000/svg" height="96" viewBox="0 0 96 96" xmlns:xlink="http://www.w3.org/1999/xlink">
<path d="m72,72h-18s-23.813,0-24-24c0-2.063 .281-4.031 .75-6h12.844c-1.031,1.781-1.688,3.844-1.688,6 0,12 12,12 12,12h18s12,0 12-12-12-12-12-12 0-6-6-12h6s24,0 24,24-24,24-24,24zm-6.656-18h-12.844c1.031-1.781 1.688-3.844 1.688-6 0-12-12-12-12-12h-18s-12,0-12,12 12,12 12,12-.375,6.094 6.188,12h-6.188s-24,0-24-24 24-24 24-24h18s24,0 24,24c0,2.063-.375,4.125-.75,6z"/>
</svg>
