<svg width="96" xmlns="http://www.w3.org/2000/svg" height="96" viewBox="0 0 96 96" xmlns:xlink="http://www.w3.org/1999/xlink">
<path d="m78,3c-12.188,0-11.625,12.188-66,12-6.656,0-12,10.781-12,24s5.344,24 12,24c2.156,0 4.031,.094 6,.094l6,26.906 18,3 6-9-4.219-19.031c22.781,3.375 25.031,10.031 34.219,10.031 9.938,0 18-16.125 18-36s-8.063-36-18-36zm-59.531,42.281c-3.656-.094-7.688-.188-12-.281-.281-1.875-.469-3.844-.469-6 0-8.25 2.719-18 6-18 3.656,0 7.031,0 10.219-.094-2.531,4.406-4.219,10.875-4.219,18.094 0,2.156 .188,4.219 .469,6.281zm6,.282c-.281-2.063-.469-4.313-.469-6.563 0-7.5 1.688-14.063 4.406-18.375 14.531-.75 23.625-2.625 29.906-4.688-2.625,6.281-4.313,14.25-4.313,23.063 0,3.75 .375,7.313 .938,10.688-6.75-1.781-16.219-3.375-30.375-4.125zm53.438,20.437c-1.125,0-2.25-.469-3.281-1.125-1.406-6.281-7.781-39.188 10.969-46.313 2.531,4.969 4.219,12.281 4.219,20.438 0,14.906-5.344,27-12,27z"/>
</svg>
