<svg width="78" xmlns="http://www.w3.org/2000/svg" height="96" viewBox="0 0 78 96" xmlns:xlink="http://www.w3.org/1999/xlink">
<path d="m43.781,9.281c-21.375-2.625-40.875,12.563-43.5,33.938s12.563,40.875 33.938,43.5c6.656,.844 13.594-.094 19.969-2.813 2.25-.938 3.375-3.656 2.344-5.906-.938-2.25-3.656-3.375-5.906-2.344-4.875,2.063-10.219,2.813-15.375,2.156-16.406-2.063-28.125-16.969-26.156-33.469 2.063-16.406 16.969-28.125 33.469-26.156 16.406,2.063 28.125,16.969 26.156,33.469-.375,3.281-2.063,5.25-5.813,5.25-4.031,0-6-4.313-6-7.594v-11.813c0-2.531-1.969-4.5-4.5-4.5-.938,0-1.781,.281-2.438,.75-2.438-1.875-5.344-3.188-8.813-3.563-9.844-1.219-18.844,5.813-20.063,15.656s5.813,18.844 15.656,20.063c5.344,.656 10.875-1.406 14.813-4.969 2.344,2.625 5.625,4.5 9.375,4.969 8.25,1.031 15.75-4.875 16.688-13.031 2.625-21.375-12.563-40.875-33.938-43.5zm4.313,39.751c-.563,4.969-5.063,8.438-10.031,7.875s-8.438-5.063-7.875-10.031 5.063-8.438 10.031-7.875 8.438,5.063 7.875,10.031z"/>
</svg>
