<svg width="72" xmlns="http://www.w3.org/2000/svg" height="96" viewBox="0 0 72 96" xmlns:xlink="http://www.w3.org/1999/xlink">
<path d="M57.844 84c8.063-1.781 14.156-9.375 14.156-18 0-5.438-2.531-10.313-6.375-13.594 0.188-1.406 0.375-2.906 0.375-4.406 0-9.844-4.688-18.563-12-24l6-6v-6l6-6-6-6-6 6h-6l-24 24-12 6v12l6 6h12l6-12 9-9c5.25 3.094 9 8.438 9 15-9.938 0-18 8.063-18 18h-36v6h18c1.781 1.313 3.938 2.063 6 3v9h-12l-12 12h72l-12-12h-2.156zM48 66c0-3.281 2.719-6 6-6s6 2.719 6 6-2.719 6-6 6-6-2.719-6-6z"/>
</svg>
