<svg width="96" xmlns="http://www.w3.org/2000/svg" height="96" viewBox="0 0 96 96" xmlns:xlink="http://www.w3.org/1999/xlink">
<path d="M39 57l9-9 9 9 6-6-9-9 9-9-6-6-9 9-9-9-5.906 6 8.906 9.094-9 9 6 6zM90 12c-6 0-84 0-84 0-6 0-6 6-6 6v60s0 6 6 6h84c6 0 6-6 6-6v-60s0-6-6-6zM9 78c-1.688 0-3-1.313-3-3s1.313-3 3-3 3 1.313 3 3-1.313 3-3 3zM21 78c-1.688 0-3-1.313-3-3s1.313-3 3-3 3 1.313 3 3-1.313 3-3 3zM63 78h-30c-1.688 0-3-1.313-3-3s1.313-3 3-3h30c1.688 0 3 1.313 3 3s-1.313 3-3 3zM75 78c-1.688 0-3-1.313-3-3s1.313-3 3-3 3 1.313 3 3-1.313 3-3 3zM87 78c-1.688 0-3-1.313-3-3s1.313-3 3-3 3 1.313 3 3-1.313 3-3 3zM90 66h-84v-48h84v48z"/>
</svg>
