<svg width="96" xmlns="http://www.w3.org/2000/svg" height="96" viewBox="0 0 96 96" xmlns:xlink="http://www.w3.org/1999/xlink">
<path d="M84 30v12h-12v-12l-18 18 18 18v-12h18s6 0 6-6 0-18 0-18h-12zM21 27c-11.625 0-21 9.375-21 21s9.375 21 21 21 21-9.375 21-21-9.375-21-21-21zM9 48c0-6.656 5.344-12 12-12 1.781 0 3.375 0.375 4.875 1.125l-15.844 15.844c-0.656-1.5-1.125-3.188-1.125-4.969zM21 60c-1.781 0-3.375-0.375-4.875-1.125l15.844-15.844c0.656 1.5 1.125 3.188 1.125 4.875 0 6.656-5.344 12-12 12z"/>
</svg>
