<svg width="49" xmlns="http://www.w3.org/2000/svg" height="96" viewBox="0 0 49 96" xmlns:xlink="http://www.w3.org/1999/xlink">
<path d="m18.375,66l6,30 6-30c-1.875,.188-3.844,.281-5.813,.281-2.156,0-4.125-.094-6.188-.281zm23.814-28.031c-1.5-1.5-3.75-4.125-5.813-7.969v-6c.75-1.125 1.125-3.656 2.156-4.875 1.406-1.219 2.25-2.719 2.25-4.219 0-4.969-5.719-8.906-16.406-8.906s-17.063,3.938-17.063,8.906c0,1.5 .75,2.906 2.156,4.125 1.219,1.406 2.156,3.563 2.906,4.969v6c-3,5.906-7.688,9-7.688,9h.094c-3,2.063-4.781,4.5-4.781,7.125 0,6.938 9.469,13.875 24.375,13.875s24.375-6.844 24.375-13.875c0-3.094-2.438-6-6.563-8.25z"/>
</svg>
