<svg width="96" xmlns="http://www.w3.org/2000/svg" height="96" viewBox="0 0 96 96" xmlns:xlink="http://www.w3.org/1999/xlink">
<path d="m70.875,53.906c-1.313-.938-2.719-1.594-4.031-1.875-.844-.188-1.688-.188-2.625-.188-.844,.094-1.688,.188-2.438,.375-.563,.188-1.125,.375-1.688,.656-1.688,.75-3.188,1.688-4.406,2.813-1.125,1.219-2.063,2.719-2.813,4.406-.281,.563-.469,1.125-.656,1.688-.188,.75-.281,1.594-.375,2.438-.094,.938 0,1.781 .188,2.625 .281,1.406 .938,2.813 1.875,4.031 .375,.469 .75,.938 1.219,1.406 1.875,1.875 4.313,2.906 7.031,3.188 .844,.094 1.688,.188 2.531,.375 .469,.188 .844,.375 1.125,.656 .656,.656 .75,1.5 .281,2.531-.281,.656-.75,1.219-1.219,1.781l-.281,.281c-.375,.375-.563,.563-.656,.656-.281,.281-.563,.563-.844,.844l-.281,.281c-1.031,1.031-1.969,1.969-3,3-2.156,2.156-4.313,4.313-6.375,6.375-.75,.75-1.406,1.406-2.156,2.063-.281,.281-.656,.563-1.031,.844-.188,.094-.281,.188-.469,.281-1.875,.938-3.844,.563-5.531-1.125-.469-.469-1.031-1.031-1.5-1.5-2.813-2.813-5.625-5.719-8.531-8.531-.844-.844-1.594-1.594-2.438-2.438-.563-.563-1.219-1.125-1.875-1.594-.563-.375-1.125-.75-1.594-.938-1.969-.656-3.844-.188-5.156,1.219-.375,.469-.656,.938-.844,1.594-.281,.844-.469,1.781-.563,2.719-.469,3.563-2.438,6.375-5.25,7.781-.656,.375-1.406,.563-2.25,.75-.75,.094-1.5,.188-2.25,.094-2.531-.094-4.594-1.219-6.469-3.094-.188-.188-.188-.188-.281-.281-1.781-1.781-2.906-3.938-3.094-6.469-.094-.75 0-1.5 .094-2.25s.375-1.5 .75-2.25c1.313-2.813 4.219-4.781 7.781-5.25 .938-.094 1.875-.188 2.719-.563 .656-.281 1.219-.563 1.688-.938 1.406-1.219 1.875-3.094 1.219-4.875-.281-.656-.563-1.219-.938-1.781-.469-.656-1.031-1.219-1.594-1.875-.844-.844-1.594-1.594-2.438-2.438-2.531-2.531-5.063-5.063-7.594-7.594l-.938-.938c-.469-.469-.938-.938-1.406-1.406-1.688-1.688-2.063-3.75-1.125-5.625 .094-.188 .188-.281 .281-.469 .188-.375 .469-.656 .844-1.031 .656-.75 1.406-1.406 2.063-2.156 2.156-2.156 4.313-4.313 6.375-6.375 1.031-1.031 1.969-1.969 3-3l.281-.281c.281-.281 .563-.563 .844-.844 .094-.094 .281-.281 .656-.656l.281-.281c.469-.469 1.125-.938 1.781-1.219 1.031-.469 1.969-.375 2.531,.281 .281,.281 .469,.656 .656,1.125 .281,.75 .281,1.688 .375,2.531 .281,2.813 1.313,5.156 3.188,7.031 .375,.375 .844,.844 1.406,1.219 1.313,.938 2.719,1.594 4.031,1.875 .844,.188 1.688,.188 2.625,.188 .844-.094 1.688-.188 2.438-.375 .563-.188 1.125-.375 1.688-.656 1.688-.75 3.188-1.688 4.406-2.813 1.125-1.219 2.063-2.719 2.813-4.406 .281-.563 .469-1.125 .656-1.688 .188-.75 .281-1.594 .375-2.438 .094-.938 0-1.781-.188-2.625-.281-1.406-.938-2.813-1.875-4.031-.375-.469-.75-.938-1.219-1.406-1.875-1.875-4.313-2.906-7.031-3.188-.844-.094-1.688-.188-2.531-.375-.469-.188-.844-.375-1.125-.656-.656-.656-.75-1.5-.281-2.531 .281-.656 .75-1.219 1.219-1.781l.281-.281c.375-.375 .563-.563 .656-.656 .281-.281 .563-.563 .844-.844l.281-.281c1.031-1.031 1.969-1.969 3-3 2.156-2.156 4.313-4.313 6.375-6.375 .75-.75 1.406-1.406 2.156-2.063 .281-.281 .656-.563 1.031-.844 .188-.094 .281-.188 .469-.281 1.875-.938 3.844-.563 5.531,1.125 .469,.469 1.031,1.031 1.5,1.5 2.813,2.813 5.625,5.719 8.531,8.531 .844,.844 1.594,1.594 2.438,2.438 .563,.563 1.219,1.125 1.875,1.594 .563,.375 1.125,.75 1.594,.938 1.969,.656 3.844,.188 5.156-1.219 .375-.469 .656-.938 .844-1.594 .281-.844 .469-1.781 .563-2.719 .469-3.563 2.438-6.375 5.25-7.781 .656-.375 1.406-.563 2.25-.75 .75-.094 1.5-.188 2.25-.094 2.531,.094 4.594,1.219 6.469,3.094 .188,.188 .188,.188 .281,.281 1.781,1.781 2.906,3.938 3.094,6.469 .094,.75 0,1.5-.094,2.25s-.375,1.5-.75,2.25c-1.313,2.813-4.219,4.781-7.781,5.25-.938,.094-1.875,.188-2.719,.563-.656,.281-1.219,.563-1.688,.938-1.406,1.219-1.875,3.094-1.219,4.875 .281,.656 .563,1.219 .938,1.781 .469,.656 1.031,1.219 1.594,1.875 .844,.844 1.594,1.594 2.438,2.438 2.813,2.813 5.719,5.719 8.531,8.531 .469,.469 .938,.938 1.406,1.406 1.688,1.688 2.063,3.75 1.125,5.625-.094,.188-.188,.281-.281,.469-.188,.375-.469,.656-.844,1.031-.656,.75-1.406,1.406-2.063,2.156-2.156,2.156-4.313,4.313-6.375,6.375-1.031,1.031-1.969,1.969-3,3l-.281,.281c-.281,.281-.563,.563-.844,.844-.094,.094-.281,.281-.656,.656l-.281,.281c-.469,.469-1.125,.938-1.781,1.219-1.031,.469-1.969,.375-2.531-.281-.281-.281-.469-.656-.656-1.125-.281-.75-.281-1.688-.375-2.531-.281-2.813-1.313-5.156-3.188-7.031-.375-.375-.844-.844-1.406-1.219z"/>
</svg>
