<svg width="96" xmlns="http://www.w3.org/2000/svg" height="96" viewBox="0 0 96 96" xmlns:xlink="http://www.w3.org/1999/xlink">
<path d="m28.781,36.656c1.5-1.5 1.5-4.031 0-5.531-1.969-1.969-2.906-4.5-2.906-7.125s.938-5.156 2.906-7.125c1.5-1.5 1.5-4.031 0-5.531-.75-.75-1.688-1.125-2.719-1.125-.938,0-1.969,.375-2.719,1.125-3.375,3.469-5.156,8.063-5.156,12.656s1.688,9.188 5.156,12.656c1.5,1.5 3.938,1.5 5.344,0zm-14.718-33.562c-.75-.75-1.781-1.125-2.719-1.125-1.031,0-1.969,.375-2.719,1.125-5.625,5.719-8.438,13.313-8.438,20.813s2.813,15.094 8.438,20.813c1.5,1.594 3.938,1.594 5.531,0 1.5-1.594 1.5-4.125 0-5.625-4.125-4.219-6.094-9.656-6.094-15.188s2.063-10.969 6.094-15.188c1.5-1.594 1.5-4.125 0-5.625zm34.032,30.656c5.344,0 9.75-4.406 9.75-9.75s-4.406-9.75-9.75-9.75-9.75,4.406-9.75,9.75 4.406,9.75 9.75,9.75zm39.469-30.562c-1.5-1.594-3.938-1.594-5.438,0s-1.5,4.125 0,5.625c4.125,4.219 6.094,9.656 6.094,15.188s-2.063,10.969-6.094,15.188c-1.5,1.594-1.5,4.125 0,5.625 .75,.75 1.781,1.125 2.719,1.125 1.031,0 1.969-.375 2.719-1.125 5.625-5.719 8.438-13.313 8.438-20.813s-2.813-15.094-8.438-20.813zm-39.375,38.343c-2.438,0-4.969-.563-7.219-1.781l-18.844,50.25h8.906l5.156-6h24l5.063,6h8.906l-18.844-50.25c-2.25,1.219-4.688,1.781-7.125,1.781zm-.093,2.907l6,21.563h-12l6-21.563zm-12,33.562l6-6h12l6,6h-24zm31.125-66.656c-1.5,1.5-1.5,4.031 0,5.531 1.875,1.969 2.906,4.594 2.906,7.125 0,2.625-.938,5.156-2.906,7.125-1.5,1.5-1.5,4.031 0,5.531 .75,.75 1.688,1.125 2.719,1.125 .938,0 1.969-.375 2.719-1.125 3.375-3.469 5.156-8.063 5.156-12.656s-1.688-9.188-5.156-12.656c-1.5-1.5-3.938-1.5-5.344,0z"/>
</svg>
