<svg width="96" xmlns="http://www.w3.org/2000/svg" height="96" viewBox="0 0 96 96" xmlns:xlink="http://www.w3.org/1999/xlink">
<path d="m23.813,6h48v6h6v-6c-.188-6-6-6-6-6h-60s-6-.094-6,6c0,27.469 0,72 0,72 0,.938 .281,6 6,6h12v12l9-9 9,9v-12h29.813c6.281,0 6.188-6 6.188-6v-18h-54v-54zm47.999,60s0,3 0,6c0,5.813-6.188,6-6.188,6s-11.625,0-23.813,0v-6h-18v6h-6.188c-6,0-5.813-6-5.813-6v-6h60zm.002-42v-6h-18v12h-9.188l12.188,15.563 12.188-15.563h-9.188v-6h12zm9,2.438l-12.188,15.563h9.188v6h-12v6h18v-12h9.188l-12.188-15.563zm-45-14.438h-6v6h6v-6zm0,12h-6v6h6v-6zm-6,30h6v-6h-6v6zm6-18h-6v6h6v-6z"/>
</svg>
