<svg width="96" xmlns="http://www.w3.org/2000/svg" height="96" viewBox="0 0 96 96" xmlns:xlink="http://www.w3.org/1999/xlink">
<path d="M36 42l12-15-12-15v30zM30 36h-6v6h6v-6zM18 6h24v-6h-36s-6-0.094-6 6c0 27.469 0 72 0 72 0 0.938 0.281 6 6 6h12v12l9-9 9 9v-12h29.813c6.281 0 6.188-6 6.188-6v-18h-54v-54zM66 66s0 3 0 6c0 5.813-6.188 6-6.188 6s-11.625 0-23.813 0v-6h-18v6h-6.188c-6 0-5.813-6-5.813-6v-6h60zM30 24h-6v6h6v-6zM24 54h6v-6h-6v6zM90 0h-30s-6 0-6 6v36c0 6 6 6 6 6h6v6l3-3 3 3v-6h18s6 0 6-6v-36c0-6-6-6-6-6zM66 42s0 0-3 0-3-3-3-3v-3h6v6zM90 39s0 3-3 3-15 0-15 0v-6h18v3zM90 30h-24v-24h21s3 0 3 3 0 21 0 21zM30 12h-6v6h6v-6z"/>
</svg>
