<svg width="96" xmlns="http://www.w3.org/2000/svg" height="96" viewBox="0 0 96 96" xmlns:xlink="http://www.w3.org/1999/xlink">
<path d="m67.219,11.625c-6.75,3.938-13.875,9-20.438,15.656-4.219,4.219-7.594,8.344-10.313,12.188l-16.688,3.094-19.594,19.688 17.531,.563 12.375-12.375c-4.313,9-4.781,15-4.781,15l5.531,5.531s6.188-.563 15.281-4.969l-12.563,12.563 .563,17.531 19.688-19.688 3.094-16.781c3.844-2.719 7.969-6.094 12.188-10.313 6.563-6.563 11.719-13.781 15.656-20.438-4.313-.844-8.25-2.625-11.344-5.813-3.094-3.094-4.969-7.125-5.813-11.344zm6.096-3.562c.469,4.219 1.875,7.594 4.219,9.938s5.719,3.75 9.938,4.219c6.188-12.469 8.156-22.313 8.156-22.313s-9.75,1.969-22.313,8.156z"/>
</svg>
