<svg width="72" xmlns="http://www.w3.org/2000/svg" height="96" viewBox="0 0 72 96" xmlns:xlink="http://www.w3.org/1999/xlink">
<path d="m0,12v12s.188,6 6,6 54.094,0 60,0 6-6 6-6v-12s-.094-6-6-6-55.125,0-60,0c-6.094,0-6,6-6,6zm0,30v12s.188,6 6,6 54.094,0 60,0 6-6 6-6v-12s-.094-6-6-6-55.125,0-60,0c-6.094,0-6,6-6,6zm0,30v12s.188,6 6,6 54.094,0 60,0 6-6 6-6v-12s-.094-6-6-6-55.125,0-60,0c-6.094,0-6,6-6,6zm6-18v-12h6v12h-6zm12,0v-12h6v12h-6zm12,0v-12h6v12h-6zm12,0v-12h6v12h-6zm18-6v-6h6v6h-6zm-54-24v-12h6v12h-6zm12,0v-12h6v12h-6zm12,0v-12h6v12h-6zm12,0v-12h6v12h-6zm18-6v-6h6v6h-6zm-54,66v-12h6v12h-6zm12,0v-12h6v12h-6zm12,0v-12h6v12h-6zm12,0v-12h6v12h-6zm18-6v-6h6v6h-6z"/>
</svg>
