<svg width="60" xmlns="http://www.w3.org/2000/svg" height="96" viewBox="0 0 60 96" xmlns:xlink="http://www.w3.org/1999/xlink">
<path d="M12.75 6c-7.031 0-12.75 9.375-12.75 21 0 6.469 1.594 13.313 3.188 23.906 1.219 8.25 4.313 15.094 9.563 15.094s8.813-4.594 8.813-12.938c0-2.813-2.344-7.406-2.438-11.25-0.188-6.938 4.688-9.75 4.688-16.219 0-11.625-4.031-19.594-11.063-19.594zM47.156 30c-7.031 0-11.063 7.969-11.063 19.594 0 6.469 4.875 9.281 4.688 16.219-0.094 3.844-2.438 8.438-2.438 11.25 0 8.344 3.563 12.938 8.813 12.938s8.344-6.844 9.563-15.094c1.594-10.594 3.188-17.438 3.188-23.906 0-11.625-5.719-21-12.75-21z"/>
</svg>
