<svg width="72" xmlns="http://www.w3.org/2000/svg" height="96" viewBox="0 0 72 96" xmlns:xlink="http://www.w3.org/1999/xlink">
<path d="M61.406 44.344c1.125 7.688-1.219 15.75-7.219 21.656-8.813 8.719-22.5 9.75-32.438 3.281l7.031-6.844-25.781-3.563 3.563 25.219 7.875-7.594c14.156 10.406 34.219 9.469 47.063-3.281 7.5-7.313 10.875-17.156 10.406-26.719l-10.5-2.063zM17.719 30c8.813-8.719 22.406-9.75 32.438-3.281l-7.031 6.844 25.781 3.563-3.563-25.219-7.875 7.594c-14.156-10.406-34.219-9.469-47.063 3.281-7.406 7.313-10.875 17.156-10.406 26.719l10.5 2.063c-1.125-7.688 1.219-15.75 7.219-21.656z"/>
</svg>
