<svg width="88" xmlns="http://www.w3.org/2000/svg" height="96" viewBox="0 0 88 96" xmlns:xlink="http://www.w3.org/1999/xlink">
<path d="M63 42l12 12-27 27-42-42v-18l9-9h18l15 15v-9l-12-12h-24l-12 12v24l48 48 36-36-12-12h-9zM66 54l-24-24-18 18 24 24 18-18zM42 39l15 15-9 9-15-15 9-9zM21 18c-4.969 0-9 4.031-9 9s4.031 9 9 9 9-4.031 9-9-4.031-9-9-9zM21 30c-1.688 0-3-1.313-3-3s1.313-3 3-3 3 1.313 3 3-1.313 3-3 3zM87.844 8.344l-6.281-6.281-9.656 9.656-9.656-9.656-6.281 6.281 9.656 9.656-9.656 9.656 6.281 6.281 9.656-9.656 9.656 9.656 6.281-6.281-9.656-9.656 9.656-9.656z"/>
</svg>
