<svg width="87" xmlns="http://www.w3.org/2000/svg" height="96" viewBox="0 0 87 96" xmlns:xlink="http://www.w3.org/1999/xlink">
<path d="m7.313,39.844l.094-.281 21.188-5.438c-.094,.563-.188,1.781-.188,1.781 0,12 12,12 12,12s12,0 12-12c0-1.031-.75-2.063-1.781-3l4.594,.281s.656-.188 2.906-.75c-4.781,1.313-10.125-2.906-11.813-9.281s.75-12.656 5.625-13.969c-2.25,.563-2.906,.75-2.906,.75l-15.75,10.313c-3.188,.844-5.156,4.313-4.313,7.5 .188,.844 .656,1.594 1.125,2.156-.656,1.125-1.125,2.438-1.406,3.75-2.531-.094-4.781-1.781-5.531-4.313-.844-3.188 1.031-6.469 4.219-7.313l-22.969,6.094c-3.188,.844-5.063,4.031-4.219,7.219s3.844,5.344 7.125,4.5zm39.093,14.157h-12v6l-30,30h12l18-12v12h12v-12l18,12h12l-30-30v-6zm40.219-42c-1.688-6.375-6.563-10.313-11.438-9-6.469,1.688-9.188,2.625-17.438,4.781-4.781,1.313-7.406,7.5-5.719,13.875s6.938,10.781 11.719,9.563c8.156-2.156 10.969-3.094 17.438-4.781 4.781-1.313 7.125-7.969 5.438-14.438zm-6.562,8.438c-1.594,.469-3.844-1.781-4.688-4.969l-.094,.188c-.844-3.188-.375-6.188 1.219-6.563s3.938,1.594 4.781,4.781 .375,6.188-1.219,6.563z"/>
</svg>
