<svg width="96" xmlns="http://www.w3.org/2000/svg" height="96" viewBox="0 0 96 96" xmlns:xlink="http://www.w3.org/1999/xlink">
<path d="M26.906 43.594c1.594 1.594 7.688 7.969 7.688 7.969l3.375-3.469-5.25-5.438 10.125-10.781s-4.594-4.5-2.531-2.719c1.875-7.125 0.188-15.094-5.25-20.625-5.344-5.531-12.938-7.406-19.781-5.438l11.625 12-3.094 11.719-11.344 3.094-11.625-12c-1.875 7.031-0.094 14.906 5.25 20.531 5.625 5.813 13.781 7.5 20.813 5.156zM65.531 55.219l-13.969 13.781 23.063 23.906c1.875 1.969 4.313 2.906 6.844 2.906 2.438 0 4.969-0.938 6.844-2.906 3.75-3.938 3.75-10.219 0-14.156l-22.688-23.531zM96 15.188l-14.719-15.188-43.313 44.719 5.25 5.438-25.875 26.813-5.906 3.188-8.344 13.688 2.156 2.25 13.219-8.625 3.094-6.094 25.875-26.813 5.25 5.438 43.313-44.719z"/>
</svg>
