<svg width="96" xmlns="http://www.w3.org/2000/svg" height="96" viewBox="0 0 96 96" xmlns:xlink="http://www.w3.org/1999/xlink">
<path d="m90,12c-6,0-84,0-84,0-6,0-6,6-6,6v60s0,6 6,6h84c6,0 6-6 6-6v-60s0-6-6-6zm-81,66c-1.688,0-3-1.313-3-3s1.313-3 3-3 3,1.313 3,3-1.313,3-3,3zm12,0c-1.688,0-3-1.313-3-3s1.313-3 3-3 3,1.313 3,3-1.313,3-3,3zm42,0h-30c-1.688,0-3-1.313-3-3s1.313-3 3-3h30c1.688,0 3,1.313 3,3s-1.313,3-3,3zm12,0c-1.688,0-3-1.313-3-3s1.313-3 3-3 3,1.313 3,3-1.313,3-3,3zm12,0c-1.688,0-3-1.313-3-3s1.313-3 3-3 3,1.313 3,3-1.313,3-3,3zm3-12h-84v-48h84v48zm-54-42v36l24-18-24-18z"/>
</svg>
