<svg width="84" xmlns="http://www.w3.org/2000/svg" height="96" viewBox="0 0 84 96" xmlns:xlink="http://www.w3.org/1999/xlink">
<path d="m12,36h-12v24h12l24,18h6v-60h-6l-24,18zm38.531,3.469c-1.125-1.125-3.094-1.125-4.219,0s-1.125,3.094 0,4.219c2.344,2.344 2.344,6.188 0,8.531-1.125,1.125-1.125,3.094 0,4.219s3.094,1.125 4.219,0c4.688-4.688 4.688-12.281 0-16.969zm8.532-8.531c-1.125-1.125-3.094-1.125-4.219,0s-1.125,3.094 0,4.219c7.031,7.031 7.031,18.469 0,25.5-1.125,1.125-1.125,3.094 0,4.219s3.094,1.125 4.219,0c9.375-9.375 9.375-24.563 0-33.938zm8.531-8.532c-1.125-1.125-3.094-1.125-4.219,0s-1.125,3.094 0,4.219c11.719,11.719 11.719,30.75 0,42.469-1.125,1.125-1.125,3.094 0,4.219s3.094,1.125 4.219,0c14.063-14.063 14.063-36.844 0-50.906z"/>
</svg>
