<svg width="96" xmlns="http://www.w3.org/2000/svg" height="96" viewBox="0 0 96 96" xmlns:xlink="http://www.w3.org/1999/xlink">
<path d="m40.743,90.021c21.306,0 40.113-11.808 40.113-31.485 0-7.179-3.357-11.577-4.764-13.893-1.173-1.389-1.173-2.547 1.641-2.778 11.001-1.62 18.258-7.641 18.258-19.215 0-6.252-5.151-13.77-14.514-13.77-4.446,0-9.879,4.278-9.879,8.907 0,2.55 2.622,5.592 6.366,5.592 4.215,0 6.603-4.434 5.901-6.288-.231-1.158-.981-2.547 .654-2.547 3.048,0 6.558,3.936 6.558,7.641 0,6.483-6.087,10.938-15.687,10.938-5.151,0-9.597-3.177-14.514-3.177-12.408,0-19.665,9.834-19.665,18.402 0,9.723 7.491,14.352 13.11,14.352 6.318,0 8.193-3.702 8.193-6.714 0-3.471-2.109-5.787-6.558-5.787-3.51,0-5.151,3.702-4.917,5.556 .234,.927-.468,1.62-1.173,1.62-.936,0-3.744-3.009-3.744-6.942 0-2.781 1.875-11.919 11.706-11.919 10.533,0 17.871,9.6 17.871,17.472 0,11.112-12.489,22.923-33.792,22.923-21.306,0-33.477-9.723-33.477-23.847 0-6.483 2.811-12.501 6.318-15.048 1.407-.927 2.109-.693 2.811,.462 1.641,1.158 5.385,4.278 7.725,4.278 3.045,0 4.683-3.813 4.683-7.059 0-2.778-3.276-4.686-6.084-4.686s-4.683,1.677-5.853,2.139c-1.638-2.547-2.574-5.787-2.574-8.334 0-7.407 5.385-12.057 10.536-12.057 4.446,0 8.193,3.489 7.491,7.89-.234,1.158-.234,2.082 .234,2.082 1.872,0 6.084-2.778 6.084-7.872 0-7.176-5.382-10.881-12.408-10.881-11.469,0-18.492,8.103-18.492,16.671 0,5.091 1.872,9.723 4.917,13.659-4.683,2.082-13.812,9.954-13.812,23.847 .003,11.808 8.196,29.868 40.737,29.868z"/>
</svg>
