<svg width="96" xmlns="http://www.w3.org/2000/svg" height="96" viewBox="0 0 96 96" xmlns:xlink="http://www.w3.org/1999/xlink">
<path d="m76.155,51.012c.141,14.523 13.677,19.347 13.833,19.419-.123,.327-2.169,6.885-7.143,13.656-4.302,5.847-8.754,11.67-15.78,11.787-6.909,.123-9.129-3.813-17.028-3.813-7.896,0-10.362,3.696-16.896,3.936-6.777,.24-11.943-6.312-16.281-12.144-8.862-11.922-15.63-33.687-6.534-48.375 4.509-7.296 12.576-11.916 21.336-12.039 6.66-.111 12.951,4.182 17.016,4.182 4.077,0 11.718-5.157 19.746-4.401 3.363,.129 12.804,1.26 18.861,9.507-.477,.291-11.265,6.123-11.13,18.285zm-28.287-28.887c-.783-5.517 2.136-11.253 5.472-14.856 3.723-4.059 10.005-7.077 15.192-7.269 .663,5.622-1.77,11.265-5.367,15.327-3.603,4.056-9.51,7.215-15.297,6.798z"/>
</svg>
