<svg width="96" xmlns="http://www.w3.org/2000/svg" height="96" viewBox="0 0 96 96" xmlns:xlink="http://www.w3.org/1999/xlink">
<path d="m83.664,48.03c3.756-4.167 6.447-8.271 8.016-12.213 1.812-4.575 1.746-8.547-.192-11.802-1.947-3.261-5.514-5.304-10.593-6.069-4.359-.66-9.417-.489-15.087,.51-1.878-5.205-4.239-9.489-7.023-12.747-3.243-3.792-6.882-5.712-10.806-5.712-3.936,0-7.572,1.932-10.812,5.745-2.787,3.276-5.127,7.563-6.969,12.756-5.673-1.032-10.728-1.212-15.087-.555-5.079,.768-8.643,2.811-10.596,6.075-1.938,3.255-2.004,7.224-.192,11.799 1.56,3.933 4.266,8.034 8.055,12.207-3.786,4.182-6.483,8.277-8.025,12.192-1.8,4.56-1.722,8.52 .222,11.766 1.941,3.261 5.496,5.313 10.557,6.096 4.344,.678 9.399,.504 15.069-.525 1.872,5.187 4.218,9.468 6.99,12.735 3.222,3.795 6.849,5.715 10.788,5.715 3.927,0 7.563-1.923 10.806-5.712 2.781-3.255 5.139-7.548 7.017-12.774 5.67,1.08 10.71,1.287 15.042,.612 5.037-.783 8.598-2.826 10.593-6.096 1.941-3.255 2.007-7.224 .189-11.802-1.56-3.921-4.233-8.022-7.962-12.201zm-42.132,38.382c-2.025-2.583-3.771-6.039-5.199-10.275 3.936-1.071 7.86-2.433 11.691-4.062 3.846,1.65 7.764,3.012 11.688,4.062-1.452,4.227-3.219,7.677-5.265,10.266-4.179,5.301-8.766,5.301-12.915,.009zm12.912-76.797c2.043,2.607 3.813,6.066 5.265,10.296-3.657,.987-7.572,2.334-11.685,4.026-3.993-1.626-7.932-3-11.739-4.086 1.452-4.188 3.213-7.629 5.247-10.236 4.155-5.325 8.733-5.325 12.912,0zm16.011,34.797c1.599,1.254 3.06,2.469 4.365,3.636-.888,.819-1.815,1.632-2.772,2.418-.525,.429-1.056,.861-1.593,1.299 .051-1.32 .072-2.586 .072-3.786 .003-1.095-.021-2.289-.072-3.567zm-.648-8.355c-.471-4.119-1.218-8.07-2.223-11.781 4.554-.897 8.565-1.161 11.937-.78 3.441,.387 5.748,1.512 6.849,3.324 1.125,1.887 1.002,4.299-.381,7.371-1.335,2.982-3.582,6.168-6.69,9.486-2.937-2.688-6.117-5.244-9.492-7.62zm-21.78,29.151c-2.703-1.2-5.391-2.556-7.989-4.026-2.964-1.698-5.499-3.252-7.548-4.62-.225-2.499-.339-5.385-.339-8.586 0-3.198 .114-6.063 .336-8.532 2.22-1.449 4.788-3.006 7.62-4.608 2.55-1.386 5.208-2.721 7.917-3.975 2.7,1.266 5.361,2.598 7.887,3.951 2.658,1.527 5.226,3.069 7.653,4.602 .225,2.52 .336,5.394 .336,8.562 0,3.201-.111,6.102-.336,8.631-2.25,1.476-4.797,3.012-7.596,4.578-2.511,1.44-5.175,2.793-7.941,4.023zm11.181-35.814c-.996-.561-2.106-1.155-3.318-1.785 1.92-.699 3.774-1.314 5.541-1.836 .435,1.824 .81,3.675 1.119,5.532-1.068-.639-2.184-1.278-3.342-1.911zm-24.597-3.606c1.8,.546 3.624,1.158 5.463,1.83-1.14,.576-2.232,1.17-3.27,1.767-1.161,.639-2.277,1.275-3.336,1.911 .324-1.875 .705-3.72 1.143-5.508zm-9.012,25.929c-1.614-1.239-3.09-2.472-4.422-3.687 1.356-1.221 2.826-2.436 4.404-3.636-.039,1.17-.057,2.358-.057,3.579 .003,1.293 .027,2.544 .075,3.744zm2.835-27.531c-1.005,3.822-1.74,7.773-2.187,11.772-3.48,2.478-6.681,5.067-9.543,7.713-3.108-3.312-5.364-6.498-6.72-9.489-1.389-3.063-1.506-5.466-.351-7.35 1.125-1.851 3.366-2.949 6.855-3.36 1.056-.123 2.184-.186 3.351-.186 2.577,0 5.463,.303 8.595,.9zm-18.42,37.671c1.341-2.991 3.573-6.174 6.642-9.474 2.892,2.679 6.108,5.283 9.588,7.758 .447,3.99 1.182,7.893 2.184,11.634-4.548,.894-8.556,1.158-11.922,.783-3.462-.393-5.694-1.497-6.831-3.402-1.149-1.845-1.038-4.23 .339-7.299zm26.691,4.728c1.044,.621 2.178,1.239 3.393,1.857-1.899,.699-3.744,1.305-5.517,1.809-.435-1.818-.801-3.645-1.098-5.463 1.074,.639 2.154,1.242 3.222,1.797zm24.729,3.672c-1.788-.504-3.636-1.107-5.535-1.809 1.08-.555 2.22-1.167 3.408-1.836 1.104-.612 2.187-1.227 3.231-1.836-.333,1.956-.702,3.786-1.104,5.481zm6.126,1.527c.981-3.753 1.716-7.671 2.19-11.688 3.462-2.457 6.663-5.046 9.54-7.707 3.072,3.336 5.307,6.537 6.648,9.519 1.377,3.072 1.5,5.463 .381,7.314-1.107,1.83-3.405,2.958-6.828,3.36-1.005,.117-2.079,.18-3.192,.18-2.613-.003-5.544-.33-8.739-.978z"/>
</svg>
