<svg width="96" xmlns="http://www.w3.org/2000/svg" height="96" viewBox="0 0 96 96" xmlns:xlink="http://www.w3.org/1999/xlink">
<path d="M87 42h-78c-1.659 0-3-1.341-3-3s1.341-3 3-3h6l18-33c0-1.659 1.341-3 3-3h6c1.659 0 3 1.341 3 3l-18 33h42l-18-33c0-1.659 1.341-3 3-3h9c1.659 0 3 1.341 3 3l15 33h6c1.659 0 3 1.341 3 3s-1.341 3-3 3zM9 48h78c1.659 0 3 1.341 3 3l-6 42c0 1.659-1.341 3-3 3h-66c-1.659 0-3-1.341-3-3l-6-42c0-1.659 1.341-3 3-3zM66 84h6c1.659 0 3-1.341 3-3l3-18c0-1.659-1.341-3-3-3h-6c-1.659 0-3 1.341-3 3l-3 18c0 1.659 1.341 3 3 3zM42 81c0 1.659 1.341 3 3 3h6c1.659 0 3-1.341 3-3v-18c0-1.659-1.341-3-3-3h-6c-1.659 0-3 1.341-3 3v18zM21 81c0 1.659 1.341 3 3 3h6c1.659 0 3-1.341 3-3l-3-18c0-1.659-1.341-3-3-3h-6c-1.659 0-3 1.341-3 3l3 18z"/>
</svg>
