<svg width="96" xmlns="http://www.w3.org/2000/svg" height="96" viewBox="0 0 96 96" xmlns:xlink="http://www.w3.org/1999/xlink">
<path d="m39,30h-24c-1.659,0-3,1.341-3,3v30c0,1.659 1.341,3 3,3h42c1.659,0 3-1.341 3-3l-18-30c0-1.659-1.341-3-3-3zm54,0h-9v-9c0-1.659-1.341-3-3-3h-78c-1.659,0-3,1.341-3,3v54c0,1.659 1.341,3 3,3h78c1.659,0 3-1.341 3-3v-9h9c1.659,0 3-1.341 3-3v-30c0-1.659-1.341-3-3-3zm-15,39c0,1.659-1.341,3-3,3h-66c-1.659,0-3-1.341-3-3v-42c0-1.659 1.341-3 3-3h66c1.659,0 3,1.341 3,3v42z"/>
</svg>
