<svg width="96" xmlns="http://www.w3.org/2000/svg" height="96" viewBox="0 0 96 96" xmlns:xlink="http://www.w3.org/1999/xlink">
<path d="m81.939,81.939c-18.744,18.747-49.137,18.747-67.881,0-18.747-18.744-18.747-49.137 0-67.881 18.744-18.747 49.137-18.747 67.881,0 18.747,18.747 18.747,49.137 0,67.881zm-59.394-8.484c12.609,12.609 32.229,13.872 46.287,3.861l-50.148-50.148c-10.011,14.058-8.748,33.675 3.861,46.287zm50.91-50.91c-12.609-12.609-32.229-13.872-46.284-3.861l50.148,50.145c10.008-14.055 8.745-33.675-3.864-46.284z"/>
</svg>
