<svg width="96" xmlns="http://www.w3.org/2000/svg" height="96" viewBox="0 0 96 96" xmlns:xlink="http://www.w3.org/1999/xlink">
<path d="M87 96h-3v-30h12v21c0 4.968-4.029 9-9 9zM84 30h3c4.971 0 9 4.032 9 9v24h-12v-33zM18 66h24v6c0 1.659 1.344 3 3 3h6c1.659 0 3-1.341 3-3v-6h24v30h-60v-30zM54 63v-9c0-1.659-1.341-3-3-3h-6c-1.656 0-3 1.341-3 3v9h-24v-33h6v-7.5c0-12.426 10.746-22.5 24-22.5s24 10.074 24 22.5v7.5h6v33h-24zM60 24c0-6.627-5.373-12-12-12s-12 5.373-12 12v6h24v-6zM0 87v-21h12v30h-3c-4.971 0-9-4.032-9-9zM0 39c0-4.968 4.029-9 9-9h3v33h-12v-24z"/>
</svg>
