<svg width="96" xmlns="http://www.w3.org/2000/svg" height="96" viewBox="0 0 96 96" xmlns:xlink="http://www.w3.org/1999/xlink">
<path d="m48,0c-26.508,0-48,21.489-48,48s21.492,48 48,48c26.508,0 48-21.489 48-48s-21.492-48-48-48zm0,84c-19.881,0-36-16.119-36-36s16.119-36 36-36c19.881,0 36,16.119 36,36s-16.119,36-36,36zm0-66c-16.569,0-30,13.434-30,30s13.431,30 30,30c16.569,0 30-13.434 30-30s-13.431-30-30-30zm-12,48c-3.312,0-6-2.688-6-6s2.688-6 6-6 6,2.688 6,6-2.688,6-6,6zm0-24c-3.312,0-6-2.688-6-6s2.688-6 6-6 6,2.688 6,6-2.688,6-6,6zm24,24c-3.312,0-6-2.688-6-6s2.688-6 6-6 6,2.688 6,6-2.688,6-6,6zm0-24c-3.312,0-6-2.688-6-6s2.688-6 6-6 6,2.688 6,6-2.688,6-6,6z"/>
</svg>
