<svg width="96" xmlns="http://www.w3.org/2000/svg" height="96" viewBox="0 0 96 96" xmlns:xlink="http://www.w3.org/1999/xlink">
<path d="m36.144,50.883c-.534,.771-1.185,2.703-1.956,3.177-.771,.471-1.641,.801-2.607,.984-.969,.186-1.971,.267-3.006,.237v4.581h7.401v18.138h5.973v-29.988h-4.752c-.168,1.143-.519,2.1-1.053,2.871zm32.856-26.883h6c1.659,0 3-1.344 3-3v-18c0-1.656-1.341-3-3-3h-6c-1.659,0-3,1.344-3,3v18c0,1.656 1.341,3 3,3zm-48,0h6c1.656,0 3-1.344 3-3v-18c0-1.656-1.344-3-3-3h-6c-1.656,0-3,1.344-3,3v18c0,1.656 1.344,3 3,3zm69-12h-6v15c0,1.656-1.341,3-3,3h-18c-1.659,0-3-1.344-3-3v-15h-24v15c0,1.656-1.344,3-3,3h-18c-1.656,0-3-1.344-3-3v-15h-6c-3.312,0-6,2.688-6,6v72c0,3.312 2.688,6 6,6h84c3.312,0 6-2.688 6-6v-72c0-3.312-2.688-6-6-6zm0,75c0,1.659-1.341,3-3,3h-78c-1.656,0-3-1.341-3-3v-48c0-1.656 1.344-3 3-3h78c1.659,0 3,1.344 3,3v48zm-42.045-33.054h14.904c-2.808,3.456-5.067,6.975-6.795,11.115-1.725,4.143-1.914,8.454-2.247,12.936h6.393c.027-1.998-.585-4.155-.153-6.468 .438-2.313 1.056-4.596 1.851-6.855 .801-2.256 1.794-4.383 2.988-6.381 1.188-2.001 2.559-3.687 4.101-5.058v-5.226h-21.045v5.937z"/>
</svg>
