<svg width="96" xmlns="http://www.w3.org/2000/svg" height="96" viewBox="0 0 96 96" xmlns:xlink="http://www.w3.org/1999/xlink">
<path d="m95.742,16.2l-8.742,34.8c0,.417-.084,.81-.234,1.167-.306,.72-.879,1.296-1.596,1.599-.36,.153-.756,.234-1.17,.234h-57l2.4,12h51.6c1.659,0 3,1.341 3,3s-1.341,3-3,3h-54c-1.659,0-3-1.341-3-3l-11.4-57h-9.6c-1.656,0-3-1.344-3-3s1.344-3 3-3h12c1.659,0 3,1.344 3,3l.6,3h74.4c1.659,0 3,1.344 3,3 0,.429-.096,.831-.258,1.2zm-69.942,31.8h10.2v-30h-16.2l6,30zm28.2-30h-15v30h15v-30zm18,0h-15v30h15v-30zm3,0v30h6.759l7.599-30h-14.358zm-42,60c4.971,0 9,4.032 9,9s-4.029,9-9,9-9-4.032-9-9 4.029-9 9-9zm0,12c1.659,0 3-1.341 3-3s-1.341-3-3-3-3,1.341-3,3 1.341,3 3,3zm42-12c4.971,0 9,4.032 9,9s-4.029,9-9,9-9-4.032-9-9 4.029-9 9-9zm0,12c1.659,0 3-1.341 3-3s-1.341-3-3-3-3,1.341-3,3 1.341,3 3,3z"/>
</svg>
