<svg width="96" xmlns="http://www.w3.org/2000/svg" height="96" viewBox="0 0 96 96" xmlns:xlink="http://www.w3.org/1999/xlink">
<path d="M80.97 55.845c6.468 4.821 12.012 9.234 12.012 9.234l-7.893 13.842-14.265-6.297-13.218 7.731c-0.894 8.151-1.713 15.645-1.713 15.645h-15.786l-1.752-15.693-13.026-7.749-14.421 6.366-7.89-13.842c0 0 5.451-4.392 11.904-9.198v-15.777l-11.904-9.18 7.89-13.845 14.076 6.264 13.974-7.581 1.149-15.765h15.786l1.143 15.699 13.782 7.734 14.274-6.354 7.893 13.845-12.012 9.213v15.708zM48 36c-6.627 0-12 5.373-12 12s5.373 12 12 12 12-5.373 12-12-5.373-12-12-12z"/>
</svg>
