<svg width="96" xmlns="http://www.w3.org/2000/svg" height="96" viewBox="0 0 96 96" xmlns:xlink="http://www.w3.org/1999/xlink">
<path d="M27.432 68.961l29.52-12.096 12.096-29.805-29.802 11.817-11.814 30.084zM48.087 42.087c3.312 0 6 2.688 6 6s-2.688 6-6 6-6-2.688-6-6 2.688-6 6-6zM48 0c-26.511 0-48 21.489-48 48s21.489 48 48 48 48-21.489 48-48-21.489-48-48-48zM48.336 84.063c-19.941 0-36.105-16.164-36.105-36.102s16.164-36.105 36.105-36.105c19.938 0 36.102 16.167 36.102 36.108s-16.161 36.099-36.102 36.099z"/>
</svg>
