<svg width="96" xmlns="http://www.w3.org/2000/svg" height="96" viewBox="0 0 96 96" xmlns:xlink="http://www.w3.org/1999/xlink">
<path d="M92.562 84.042h-89.127c-1.893 0-3.432 1.488-3.432 3.327v5.313c0 1.839 1.539 3.327 3.432 3.327h89.13c1.899 0 3.435-1.488 3.435-3.327v-5.313c-0.003-1.839-1.539-3.327-3.438-3.327zM63.996 35.955h-32.058l-7.977 17.964h48.015zM53.229 3.213c0 0-0.63-3.222-4.977-3.222s-5.028 3.333-5.028 3.333l-8.706 26.613h27.462l-8.751-26.724zM75.306 59.931h-54.111l-8.331 21.069h70.776z"/>
</svg>
