<svg width="96" xmlns="http://www.w3.org/2000/svg" height="96" viewBox="0 0 96 96" xmlns:xlink="http://www.w3.org/1999/xlink">
<path d="m93,12h-90c-1.656,0-3,1.344-3,3v66c0,1.659 1.344,3 3,3h90c1.659,0 3-1.341 3-3v-66c0-1.656-1.341-3-3-3zm-3,63c0,1.659-1.341,3-3,3h-78c-1.656,0-3-1.341-3-3v-54c0-1.656 1.344-3 3-3h78c1.659,0 3,1.344 3,3v54zm-61.506-38.577l-11.565-11.568c-1.125-1.125-2.949-1.125-4.074,0s-1.125,2.949 0,4.074l10.074,10.071-10.074,10.074c-1.125,1.125-1.125,2.946 0,4.071s2.949,1.125 4.074,0l11.565-11.565c.228-.126 .459-.24 .651-.432 .591-.591 .855-1.374 .822-2.148 .03-.774-.231-1.557-.822-2.145-.192-.192-.423-.306-.651-.432zm28.506,11.577h-18c-1.656,0-3,1.344-3,3 0,1.659 1.344,3 3,3h18c1.659,0 3-1.341 3-3 0-1.656-1.341-3-3-3z"/>
</svg>
