<svg width="96" xmlns="http://www.w3.org/2000/svg" height="96" viewBox="0 0 96 96" xmlns:xlink="http://www.w3.org/1999/xlink">
<path d="m71.994,28.173l17.151-17.151c1.152-1.149 1.152-3.015 0-4.167-1.149-1.149-3.012-1.149-4.164,0l-17.154,17.154h-43.833v-9c0-1.659-1.344-3-3-3h-6c-1.656,0-3,1.341-3,3v9h-9c-1.656,0-3,1.341-3,3v6c0,1.659 1.344,3 3,3h9v45c0,1.659 1.344,3 3,3h45v9c0,1.659 1.341,3 3,3h6c1.659,0 3-1.341 3-3v-9h9c1.659,0 3-1.341 3-3v-6c0-1.659-1.341-3-3-3h-9v-43.836zm-16.167,7.833l-31.833,31.836v-31.836h31.833zm-27.663,36l31.83-31.833v31.833h-31.83z"/>
</svg>
