<svg width="96" xmlns="http://www.w3.org/2000/svg" height="96" viewBox="0 0 96 96" xmlns:xlink="http://www.w3.org/1999/xlink">
<path d="m48.042,66.246c-.111,0-.222,0-.333,0-26.346,0-47.655-6.399-47.661-11.313l-.048-19.299c0-.03 .012-.057 .012-.081 4.338,2.058 9.435,3.006 12.483,3.573 9.471,1.761 21.981,2.733 35.214,2.733h.333c13.317-.015 25.899-1.011 35.439-2.802 3.051-.573 8.13-1.527 12.471-3.573 0,.009 0,.027 0,.027l.051,19.299c.006,4.935-21.459,11.4-47.961,11.436zm0-30.198c-.111,0-.222,0-.333,0-26.346,0-47.655-5.838-47.661-10.752l-.048-16.302c-.009-4.932 21.468-8.961 47.97-8.994 .117,0 .228,0 .345,0 26.337,0 47.631,3.96 47.637,8.874l.051,16.302c.006,4.932-21.459,10.836-47.961,10.872zm-.336,36.012h.333c13.317-.018 25.902-1.572 35.439-3.363 3.051-.573 8.13-1.527 12.474-3.576l.048,21.888c.006,4.935-21.459,8.961-47.961,8.994-.114,0-.222,0-.339,0-26.34,0-47.649-3.96-47.655-8.871l-.045-21.945c4.338,2.061 9.438,3.009 12.492,3.576 9.471,1.764 21.978,3.297 35.214,3.297z"/>
</svg>
