<svg width="96" xmlns="http://www.w3.org/2000/svg" height="96" viewBox="0 0 96 96" xmlns:xlink="http://www.w3.org/1999/xlink">
<path d="m84,66h-6c-6.627,0-12-5.373-12-12s5.373-12 12-12h6c6.627,0 12,5.373 12,12s-5.373,12-12,12zm0-18h-6c-3.312,0-6,2.688-6,6s2.688,6 6,6h6c3.312,0 6-2.688 6-6s-2.688-6-6-6zm-24,6c0,.258 .063,.495 .075,.75-.012,.252-.075,.492-.075,.75 0,3.156 1.128,6.018 2.94,8.316 3.213,4.92 8.748,8.184 15.06,8.184h12v12c0,3.312-2.688,6-6,6h-78c-3.312,0-6-2.688-6-6v-67.5c0-4.719 3.135-8.667 7.425-9.987 .462-.297 .984-.513 1.575-.513h78c1.659,0 3,1.341 3,3s-1.341,3-3,3h-78c-1.659,0-3,1.341-3,3v3h78c3.312,0 6,2.688 6,6v12h-12c-9.939,0-18,8.061-18,18zm-52.5,30h75c.828,0 1.5-.672 1.5-1.5s-.672-1.5-1.5-1.5h-75c-.828,0-1.5,.672-1.5,1.5s.672,1.5 1.5,1.5zm76.5-58.5c0-.828-.672-1.5-1.5-1.5h-75c-.828,0-1.5,.672-1.5,1.5s.672,1.5 1.5,1.5h75c.828,0 1.5-.672 1.5-1.5z"/>
</svg>
