<svg width="96" xmlns="http://www.w3.org/2000/svg" height="96" viewBox="0 0 96 96" xmlns:xlink="http://www.w3.org/1999/xlink">
<path d="m35.271,35.274c-7.029,7.029-7.029,18.426 0,25.455s18.426,7.029 25.455,0c7.032-7.032 7.032-18.429 0-25.455-7.029-7.032-18.423-7.032-25.455,0zm16.971,16.968c-2.343,2.343-6.141,2.343-8.484,0s-2.343-6.141 0-8.484 6.141-2.343 8.484,0 2.343,6.141 0,8.484zm29.697-38.181c-18.744-18.747-49.137-18.747-67.881,0-18.747,18.744-18.747,49.137 0,67.881 18.744,18.747 49.137,18.747 67.881,0 18.747-18.747 18.747-49.137 0-67.881zm-16.971,50.91c-9.369,9.372-24.567,9.372-33.939,0-9.375-9.375-9.375-24.567 0-33.942 9.372-9.372 24.57-9.372 33.939,0 9.375,9.375 9.375,24.567 0,33.942zm2.121-36.063l10.608-14.847 4.242,4.242-14.85,10.605z"/>
</svg>
