<svg width="96" xmlns="http://www.w3.org/2000/svg" height="96" viewBox="0 0 96 96" xmlns:xlink="http://www.w3.org/1999/xlink">
<path d="m95.028,38.337c-.633-3.081-1.575-6.12-2.802-9.021-1.2-2.847-2.691-5.589-4.428-8.154-1.716-2.541-3.687-4.929-5.856-7.098-2.175-2.175-4.563-4.146-7.101-5.859-2.565-1.737-5.313-3.225-8.157-4.428-2.901-1.221-5.937-2.172-9.021-2.799-3.159-.648-6.411-.978-9.663-.978s-6.504,.33-9.669,.978c-3.081,.627-6.117,1.575-9.018,2.799-2.844,1.203-5.589,2.691-8.154,4.428-2.541,1.713-4.932,3.684-7.101,5.859-2.172,2.169-4.14,4.557-5.856,7.098-1.737,2.562-3.225,5.304-4.428,8.151-1.227,2.901-2.169,5.94-2.802,9.021-.645,3.159-.972,6.414-.972,9.66 0,3.261 .327,6.516 .972,9.675 .633,3.078 1.572,6.117 2.802,9.015 1.203,2.844 2.691,5.595 4.428,8.16 1.716,2.541 3.687,4.926 5.856,7.098 2.172,2.169 4.563,4.137 7.101,5.853 2.565,1.734 5.313,3.225 8.157,4.428 2.901,1.23 5.937,2.166 9.018,2.802 3.162,.648 6.414,.975 9.666,.975s6.504-.327 9.666-.978c3.084-.636 6.12-1.569 9.021-2.802 2.844-1.2 5.589-2.691 8.157-4.428 2.541-1.716 4.929-3.687 7.101-5.853 2.169-2.175 4.14-4.56 5.856-7.098 1.734-2.562 3.225-5.313 4.428-8.16 1.224-2.898 2.169-5.937 2.802-9.015 .642-3.156 .969-6.411 .969-9.672 0-3.246-.327-6.501-.972-9.657zm-6.048,9.252c-.591-.129-14.466-3.111-28.554-1.341-.288-.702-.579-1.407-.885-2.115-.849-2.01-1.77-3.996-2.724-5.949 16.188-6.606 22.764-16.11 22.839-16.224 5.754,6.984 9.231,15.903 9.324,25.629zm-13.905-30.351c-.099,.162-5.94,9.045-21.414,14.841-7.008-12.876-14.706-23.1-15.324-23.913 3.099-.753 6.336-1.158 9.663-1.158 10.38,0 19.851,3.867 27.075,10.23zm-36.891-9.039c-.003,.006-.009,.009-.009,.009s-.048,.012-.123,.027c.039-.012 .087-.021 .132-.036zm-7.674,2.727c.546,.732 8.127,11.007 15.222,23.619-19.683,5.229-36.765,5.025-37.848,5.004 2.664-12.696 11.193-23.22 22.626-28.623zm-23.502,37.068c0-.435 .018-.861 .036-1.293 .72,.015 20.976,.474 42.081-5.841 1.179,2.298 2.301,4.635 3.327,6.969-.546,.153-1.077,.312-1.617,.489-22.122,7.149-33.342,27.054-33.342,27.054s.015,.012 .018,.018c-6.528-7.26-10.503-16.86-10.503-27.396zm40.992,40.995c-9.921,0-19.02-3.528-26.112-9.393 .543,.438 .918,.717 .918,.717s7.857-17.139 32.175-25.605c.087-.036 .18-.06 .27-.087 5.769,14.985 8.151,27.543 8.757,31.122-4.923,2.088-10.329,3.246-16.008,3.246zm22.908-6.99c-.42-2.478-2.601-14.508-7.977-29.283 13.233-2.115 24.699,1.515 25.548,1.794-1.827,11.418-8.367,21.273-17.571,27.489z"/>
</svg>
