<svg width="96" xmlns="http://www.w3.org/2000/svg" height="96" viewBox="0 0 96 96" xmlns:xlink="http://www.w3.org/1999/xlink">
<path d="m48.114,0c0,0-30.114,35.763-30.114,66.069 0,30.309 29.886,29.931 29.886,29.931s30.114-.375 30.114-30.117-29.886-65.883-29.886-65.883zm-.114,84c-9.939,0-18-8.061-18-18 0-6.363 3.342-11.889 8.331-15.078-1.431,1.911-2.331,4.59-2.331,7.578 0,.621 .057,1.221 .129,1.812-.027,.402-.129,.78-.129,1.188 0,.771 .126,1.509 .228,2.25-.141,.729-.228,1.479-.228,2.25 0,6.627 5.373,12 12,12 .771,0 1.521-.087 2.25-.225 .744,.102 1.479,.225 2.25,.225 .408,0 .786-.099 1.185-.132 .591,.075 1.194,.132 1.815,.132 2.988,0 5.667-.9 7.578-2.328-3.189,4.986-8.715,8.328-15.078,8.328z"/>
</svg>
