<svg width="96" xmlns="http://www.w3.org/2000/svg" height="96" viewBox="0 0 96 96" xmlns:xlink="http://www.w3.org/1999/xlink">
<path d="m48,96c-26.508,0-48-21.492-48-48s21.492-48 48-48c26.508,0 48,21.492 48,48 0,26.508-21.492,48-48,48zm38.904-52.023c.078-.039 .12-.105 .15-.21 .063,.333 .216,.627 .462,.843 .006,.03-.009,.024 .006,.066 .024,0 .042-.018 .063-.018 .252,.204 .564,.342 .915,.342 .54,0 .99-.3 1.254-.723 .018,.021 .048,.048 .063,.072-.003-.048-.009-.096-.015-.144 .117-.213 .198-.447 .198-.705 0-.828-.675-1.5-1.5-1.5-.528,0-.966,.288-1.236,.696-.012-.009 0-.045-.033-.033 .039-.114-.066-.405-.231-.717v1.554c0,.171-.048,.324-.096,.477zm-68.928-.45c0-.453-1.032-1.224-1.299-1.224 0-.081-.42-1.005-.579-1.005 0-.312-1.095-1.713-1.269-1.101-.114,.396 .837,.93 .837,1.389 .177,0 .921,1.41 1.068,1.656 1.626,2.748-1.215,.87-1.215-.294-.363-.18-.936-1.563-.936-1.941-.213-.171-.843-1.506-.792-1.506 0-.876-.483-1.296-1.443-1.296-.045-.087-.852-1.221-.867-1.221 0-.36-.648-1.476-1.008-1.653 0-.747-.384-1.668-.213-2.442 0-.813-.042-1.734-.318-2.568-2.505,5.379-3.942,11.355-3.942,17.679 0,18.123 11.502,33.522 27.588,39.411 .018-1.488 .129-3.27 .468-3.27 0-.222 .189-1.152 .36-1.152 0-.57 .069-1.257 0-1.941-.213-.429 .282-.978 .432-1.653 .831-.417 .243-4.599 .87-4.599 0-2.091 .468-3.309 .141-5.247 .159,0-.945-1.173-.936-1.152-1.059,0-1.8-1.698-1.8-2.442-.102-.327-.363-.816-.363-1.221 .243,0-1.515-2.568-1.515-2.517-.93-.516 .051-1.236 .144-2.082-.807-.267 .009-2.445 .36-2.445 .036-.276 .18-.465 .435-.573 .18,.717 1.017-.357 .36-.357 0-.474-.054-1.488 0-1.725 0-.732-.648-2.166-1.152-.648-.54-.267-1.902-.219-2.019-1.077 .084-.423-.777-1.287-1.08-1.437 .282-.738-1.461-1.725-2.091-1.725 0-.159-.333-.087-.432-.288-.642,0-.789-.864-1.515-.864-.837,0-1.68-.573-2.451-.573-.258-.513-1.455-.312-1.731-.864-.627,0-.873-1.188-.891-1.626-.027-.54-.456-2.406-1.206-2.406zm60.768-24.075c-.006,.018 .006,.006-.024,.066 .045,0 .099,.051 .15,.072-.045-.045-.084-.09-.126-.138zm.903,.993c.105,.204 .183,.393 .159,.51 .105,.003 .156-.054 .24-.075-.129-.147-.27-.285-.399-.435zm2.607,13.668c.048-1.296-1.08-1.08-1.437-1.8-.372,0-.507-.288-1.011-.288-.327-.111-.585-.033-.774,.234-.771,.294-.306-.375-.885-.375 .027-.741-.267-.945-1.083-.864-.468,1.056-1.188,1.689-1.08,2.877 .345,.078 .285,.156 .216,.501 .459,.024 3.243-.144 3.243-.432 .096,0 .579,.993 .579,.144 .387,0 .591,.909 1.515,.645 0,.186 1.542-.642 .717-.642zm.147,15.309c.054-.264-.132-.381-.288-.648 .411,0-1.299-3.171-1.299-3.666-.261-.129-.594-1.035-.654-1.365-.351-.234-.714-1.002-.864-1.437-.357-.237-1.227-1.299-1.368-1.797 .516,.057 1.296,.162 1.296-.504-.348,0-.399-.429-.069-.429-.108-.441 .234-.759 .309-1.104 .09-.417 .267-1.059 .267-1.557-.495,0-.615,.084-1.008,.216 0,.291-.879-.072-1.008-.072-.189-.378-1.56,.492-1.944-.288-.621-.561-.453-.993-.654-1.785-.102-.402-.651-.426-.984-.492-.939-.183-.261,1.119-.312,1.416 .576,0-.363,.714-.363,1.077-.972-.21-.648-1.293-1.221-1.581-.171-.288-.036-.504-.435-.504 0-.384 .204-1.08-.216-1.221 0-.186-.816-.261-.936-.504-.516,0-1.716-1.95-2.085-1.293-.231,.42 .195,.522 .282,.864 .747-.147 .675,1.23 1.587,1.077 0,.192 .024,.387 .069,.576 .675-.159 .597,.501 .936,.501-.246,.327-1.026-.522-.813,.192 .123,.414 .054,.768-.483,1.173 0-.447-.036-1.653-.504-1.653-.318-.636-1.263-.483-1.662-1.077-.324,0-.45-1.008-1.008-1.077-.105,.147-.498,.288-.651,.288-.303,.609-2.016,.063-2.016,.144-.027,.006-.96,2.286-1.014,2.586-.105,.645-.624,.657-.78,1.269-.078,.306-1.959,.162-1.959,.387-.813-.27-1.515-.84-1.515-1.725-.066,0 .153-2.259 .291-2.589 .165,.045 .198,.102 .291,.288 .498-.186 1.659,.123 1.659-.432 .483,.012 .627,.204 .432,.576 .45,.084 1.227,.198 1.227-.432-.264,0-.291-.024-.291-.288 .864-.897-.648-1.707-.648-2.154-.306-.102-.93-.765-.486-.516 .375,.207 1.746,.636 1.206-.276 .036-.012 .06-.036 .069-.069 .153,.108 .798,.771 .798,.144 .177,0 .861-.432 .288-.432 .054-.324 .042-.594 .069-.792 .915,.492 .405-.336 .867-.645 0,.597 .492-.288 .792-.288 .357-.531 1.173-.12 1.371-.72-.441-.144-.36-1.248-.36-1.65 .531,.087 1.122-.717 1.203-.165 .03,.213 .057,.801 .165,.882 .789,.414 .579-.237 .579-.645-.264,0-.615-.924-.651-1.368-.216,.03-.564,.12-.651,.285-.786,0-1.32-.285-1.944-.285-.048-.096-.798-.936-.72-.936-.438-.753 .438-.534 .576-.57 0-.714 2.973-.588 3.102-1.728-.978,0 1.008-1.656 1.008-1.65 .663-.567 1.014-1.056 1.839-1.119 .348-.024 4.218-1.092 4.218-.609 .156,.006 .672,.012 1.206,.03-7.491-6.966-17.502-11.256-28.539-11.256-10.689,0-20.418,4.026-27.831,10.605 .066,.15 .117,.294 .114,.396 .393-.027 .957-.279 1.083,.219-.195-.003-.39-.027-.576-.075 .138,1.113-.486,.432-1.008,.432 0-.027-.231-.12-.477-.186-.159,.15-.327,.291-.486,.441 .018,.048-.009,.051 .021,.105 .168,0 .081,.261 .561,.42 .555,.189 1.164,.294 1.749,.387 .474,.075 .747-.087 1.152-.087 0-.06 .99-.501 .291-.501 .096-.396-.081-.495-.507-.501 .036-.42 1.035-.144 1.443-.144 .312-.525 .009-.462 .285-.939 .33-.585 .723-.078 .939-.639 .327,.12 .618,.297 .723,.711 .261,.216 1.587,2.172 1.587,.789 .474,.159 .711,1.047 .72,1.512 .861-.126 .936-.771 .936-1.44 .198,0-.072-.321-.072-.432 .321-.117 .723,.306 .723-.141 .138,0 .144,.138 .144,.288 .447,.087 .735-.051 1.008,.045 .189,.066 .093,1.047 .006,1.392-.108,.438-.945,.444-.945,.648-.948,.708 1.119,1.077 1.443,1.509-.195,0-.936-.096-.936-.141-.468,0-1.602,.495-2.019,.141 .582,0 .777-.699 .867-1.365-.537-.201-1.17,.129-1.32,.663-.252,.882-.837-.036-1.131,.558-.114,.036-1.155,.519-1.155,.357-1.17,.165-.864,1.158-.864,2.229 .465,.279 1.41,1.074 1.368,1.509 1.05,.186 1.434,.297 2.379,.432 .078,.153 .39,.297 .579,.357 0,.618 .561,.507 1.08,.507 0-.789 .918,.657 1.008,.933-.126,0 .216,.807 .288,1.08-.144-.051-.189,0-.144,.144 .456,.168 1.179,.12 1.299-.36-.438,0-.291-.501-.291-.792-.45-.3-.381-.879 .072-1.005 0,.408 1.485-.255 .648-.573 .204-.459 .342-1.164 .009-1.563-.213-.252-.48,0-.585-.378 .567-.141 .15-1.221 .144-1.725 .18-.069 .648,.114 .648,0 .555,0 1.479,.702 1.803-.147 .927,.423 .189,.825 1.155,.504 0,.228 1.089,1.293 1.227,1.293 0,.051-.027,.36 .213,.36 0,.231-.144-.132-.144,.285 .135,.015 .867,.147 .867-.141 .465,0 .792-.57 .792-1.005 .291-.189 .801,1.581 1.152,1.581 .258,.402 1.083,.987 1.083,1.365 .174,.177 .357,.129 .357,.648 .219,0 .651-.861 .651-.072 .204,0 .798,.438 .867,.789-.519,0-.027,.504-.294,.504 0,.498-1.113,.102-1.365,.072-.345,1.545-2.427,.435-3.687,.834-.663,.21-1.944,1.671-2.013,2.4 .804,.009 1.158-.696 1.875-.936 .585,0 .699-.354 1.227-.501 0,.147 .144,.069 .144,.216-1.026,0-.402,.663-.102,1.146 .186,.3 .399,.444 .636,.537-.099,.174-.18,.348-.243,.543 0,.003-.003,0-.003,.003-.195,.066-.576,.207-.651,.36-1.161,.129-.588,.051-.51-.228 .042,.099 .459,.009 .441,.012-.069-.348-.174-.3-.072-.501-.63,0-.936,.288-1.443,.288-.084,.171-.525,.576-.72,.576-.147,.444-.48,1.251-.867,1.509 0-.117-1.026,.645-.936,.645-.228,.369-.477,.357-.579,.933-.069,.036-.36,.999-.36,1.149-.447,.297-.612,1.509-1.371,1.509-.465,.924-1.299,.801-1.299,2.013 .282,.288 .39,1.563 .477,1.971 .108,.507 .276,1.035-.402,1.047-.048-.075-.522-.792-.435-.792 0-.297-.363-1.248-.576-1.545-.285-.399-.813,.063-1.227-.111-.177-.354-1.374-.432-1.8-.432 .069,.267 .264,.351 .288,.648-.354,.144-.558,.306-.924,.255-.627-.087-.552-.576-1.242-.507-1.104,.111-1.875,1.026-1.875,2.121-.123,0-.123,2.157 0,2.157 0,.609 .504,1.05 .504,1.509 .489,0 1.038,1.077 1.515,1.077 .054,.381-.24,.441 .576,.435 0-.042 .444-.279 .504-.576-.564-.138-.003-.864 .36-1.005 0,.513 .72-.171 .72-.216 .081-.033 .795-.288 .795-.288 0-.582 .543,.057 .144,.288-.39,0-.36,.648-.576,.648-.093,.462-.276,.864-.384,1.314-.138,.555 .312,.612 .168,1.131 .573,.108 1.152,.003 1.731,0 .003-.102-.018-.201-.072-.288 .837,0 .072,1.581 .579,1.581 0,.597 .288,1.062 .288,1.437 .39,.258 .624,.603 .504,1.077 .48,.063 1.512,.186 1.512-.432 .729,0 .78,.495 .726,1.005 1.452,0 .543-1.437 1.149-1.437 .057-.237 .156-.279 .297-.123 .297,.159 .522-.297 .759-.441 .075-.051 .339-.204 .387-.204 .204,.123 .222,.087 .312,.225 .396-.003 .795-.225 1.134-.459 .519,.063 .351,1.179 1.323,1.248 .39,.027 1.293,.135 1.629-.096 .084-.057 .393,.195 .426,.303 .324,0 .3,.282 .438,.276 .033,.063 .081,.087 .147,.069 .042,.123 .3,.159 .435,.501 0,.312 .648,.366 .648,.573 .465,.234-.159,.297 .555,.513 .393,.123 .756,.321 1.179,.351 .135-.513 .573,.069 .795,.069 .114,.234 .174,.057 .285,.288 .669,.558 .228,.342 .504,.936 .321,.21 .423,.942 .51,1.365-.258,0-.075,.987-.075,1.08-.312,0 .798,.591 .798-.147 .456,.075 .756,.573 1.08,.573-.189,.435 .504,.762 .504,.075 .684,.069 .501,1.089 .435,1.437 .507,0 .654-.282 1.086-.336 .468-.297 .99-.513 1.581-.513 1.659,0 3,1.341 3,3 0,1.494-1.113,2.679-2.544,2.907-.192,.219-.366,.408-.378,.408 0,.144-.033,1.578-.075,1.578 0,.288-.219,1.869-.432,1.869 0,.813-.531,.96-.72,1.725-.438,.324-1.623,.864-1.806,1.221-.339,0-.591,.288-.936,.288-.048,.099-.783,.792-.651,.792-.054,.51 .039,1.71-.237,2.046-.186,.222-.453,.198-.336,.546-.405,0 .024,.288-.615,.288-.402,0-1.119,.573-1.14,1.059-.027,.594-.186,1.023-.696,1.386 0,.204-.936,.264-.936,.792 .087,0 0,.978 0,1.077-.279-.009-.963,.27-1.08,.501-.942,0-.828,.096-1.44,.504 0,.126-.087,.573-.216,.573 0,.729-.519,.066-.939,.435 .165,0 .375,.717 .288,.717 0,.633-.393,.687-.792,1.152-.189,.126-.369,.648-.504,.648 0,.426-.213,.813-.213,1.221 .09,0 .006,.183 .069,.354 .201-.057 .207-.285 .288-.285 0-.36 .573,.213 .216,.213-.297,.45-.618,.459-.795,1.08-.18,0-.336,.174-.468,.378 3.534,.963 7.242,1.527 11.088,1.527 14.772,0 27.738-7.644 35.226-19.179 .045-1.062 .21-2.076 .327-2.427 .294,.216 .513,.621 .72,0-.519-.102-.393-.282-.216-.717 .198,.12 .597,.267 .921,.246 .099-.186 .177-.384 .276-.57-.294-.228 .111-.819 .252-.531 .075-.144 .141-.294 .21-.438-.033-.009-.024,.012-.072-.003 0-.261 .048-.228 .219-.36 .003,.027 0,.027 .006,.051 2.619-5.481 4.131-11.592 4.131-18.072 0-.213-.03-.417-.033-.63-.078,.294-.225,.612-.432,.684 0,.189-2.145,1.122-2.016,1.509-.378,0-1.704,.378-1.947,.861-.267,0-1.344,.381-1.443,.576-1.338,.003-1.083-1.578-1.728-1.578zm6.099-16.422h-1.593c-.012-.015-.024-.018-.036-.039-.081,0-.42-.762-.288-.936 .129,0 .189,.012 .258,.018-.135-.33-.282-.654-.429-.981-.324,.222-.609,.504-1.056,.531 0,.123-.639,1.365 0,1.365 0,.024 .012,.042 .018,.063-.765,.072-1.374,.696-1.374,1.479 0,.828 .672,1.5 1.5,1.5h.591c.036,.273 .183,.51 .708,.627 .165,.693 1.401,.939 1.587,.213-.522,0-.351-.501-.306-.84h.42c.825,0 1.5-.672 1.5-1.5s-.675-1.5-1.5-1.5zm-4.371,19.506c.105,.006 .798-.012 .798-.135 .627,0 1.476-.087 2.091-.291 0,.93-.783,1.449-.651,2.373-.519,0-.291,.534-.291,.717-.336,.207-.387,.585-.792,.792 0,.417-.936,1.107-1.212,1.464-.312,.399-1.251,1.092-1.374,1.599 .033-.12-1.716,1.821-1.308,1.821 0,.363-.492,3.234 .144,3.234 0,.252 .543,2.661 .213,2.661 0,.774-.504,1.248-.504,1.866-.246,.168-.597,.261-.72,.507-.441,0-.654,.936-.864,.936 0,.999-.291,1.74-.291,2.874 .081,0-.576,1.617-.576,1.722-.531,.357-1.875,1.638-1.875,2.304 0,0-.936,1.314-1.08,1.509-.282,0-2.454,.408-2.454,.576-.462,0-1.656,.363-1.944-.072 0-.456-.249-1.035-.288-1.656-.222,0-.258-.933-.504-.933 0-.198-1.377-2.949-1.155-2.949 0-.285-.246-1.221-.288-1.221 0-.99-.723-1.815-.723-2.73-.213,0-.654-2.01-.432-2.01 0-1.056 .369-1.746 .522-2.919 .171-1.287-.081-2.07-.306-2.979-.123,0-.537-.687-.579-.861-.579-.384-.792-1.146-.792-1.866 .378-.432 .528-2.055 .435-2.589-.729-.345-1.02-.216-1.806-.216-.465-.933-3.588-.357-4.473-.357 0,.51-2.175-.099-2.379-.504-.531,0-1.584-1.128-1.584-1.653-.582-.387-1.512-2.313-1.512-2.946-.504-.252-.351-1.224-.075-1.224 .069-.27-.177-1.122-.294-1.527-.087-.303 .294-.63 .294-.99 0-1.002 .024-1.464 .585-2.535 .177-.336 .402-.651 .567-1.071 .3-.753 .39-.036 .795-.708 .387-.192 .612-.834 1.011-1.149 .174-.231 .18-.327 0-.504 .078,0 .504-1.107 .504-1.362 .564-.783 .165-.426 .72-.36 .204-.222 .543-.792 .864-.792 .141-.279 .495-.432 .795-.432 0,.432 1.176-.141 1.299-.141 .201-.405 1.497-.864 1.803-.864 0-.492 2.556,.138 2.958,.072 0-.072 0-.144 0-.216 .546,.129 1.542,2.319 1.44,2.805 .42,0 .81-.069 1.083,0 0,.465 .876,.579 1.275,.6 .555,.027 2.184-.057 2.184-.816 .429,0 .81,.3 .726,.789 .486,.054 3.375,.111 3.171,.717 .423,0 .531,.723 .936,.723-.081,.498 .504,1.797 .936,1.797 0,.432 .27,1.227 .651,1.506 .204,.618 .879,1.92 1.512,2.301-.27,.51 .411,.93 .579,1.437-.039,0 .147,.753 .357,.864 0,.51 1.074,2.589 1.662,2.589 .039,.252-.552,.366 .216,.423zm-15.573-16.095c.111-.429 .363-.096 .597-.018 .555,.18 .363-.009 .774-.195 0,1.17-.672,.282-1.371,.213zm-1.518-2.157c.294,0 .375,1.32-.432,1.077 0-.327-.207-.933 .219-.933 .123,.51 .213,.303 .213-.144zm-.357-.861c.333,.144 .48,.096 .432-.144 .438,.144-.057,.456-.144,.792-.225-.222-.156-.3-.288-.648zm-7.719-6.399c-.708-.183 .729-.393 .792-.573-.24,0-.405-.249-.312-.459 .108-.249 .285,.297 .531,.174 .291-.03 .864-.465 .57,.375-.3,.852-.573,1.476-1.653,1.491-.387-.39-.015-.594 .072-1.008zm2.67-2.946c.582,0 .072,.432-.057,.432 .099,.039-.018,.387-.018,.501 .54-.006 .549-.336 .936-.432-.081,.483-.621,.576-.093,.99 .279,.219 .564,.477 .453,.81 .687,0 .789,.66 .648,1.437 .381,0 .363,.018 .363-.363 .369,.102 .342,.435 0,.435-.342,.675-1.239,.645-1.875,.645-.006-.522-.105-.555-.588-.408-.66,.201-.144-.525-.132-.885 .072,0 1.497,.066 .648-.216-.045-.774-.219-1.005-.936-1.005 0-.528-.186-.489-.273-1.068-.123-.855 .669,.06 .924-.873zm-.219,4.671c0,.177-.36,.318-.432,.069 .069,.024 .096,0 .069-.069 .123,0 .246,0 .363,0zm-5.913-7.719h-3c-.828,0-1.5-.672-1.5-1.5s.672-1.5 1.5-1.5h3c.828,0 1.5,.672 1.5,1.5s-.672,1.5-1.5,1.5zm-17.478,26.55c.168,0 .363,.066 .363,.216-.219,0-.501,.207-.363-.216zm-2.736,.147c-.12,.228-1.092,.189-1.227-.075 .36,0 .639,.147 1.008,0 0-.198-.165-.357-.288-.573 .393,0 .834,.3 1.371,.288 0-.333-.147,.072 0-.36 .225,.057 .768,.573 .792,.789-.789-.084-.825-.069-1.656-.069zm-3.174-1.725c-.369,0-1.08-.321-1.299-.648 .357,.015 .711,.162 .936-.216 .915,.093 .996,.723 1.731,.723 .138,.243 .924,.801 .165,.873-.573,.054-1.293-.258-1.533-.732zm.576,2.013c-.267,0-.708,.117-.504-.435 .354,.048 .522,.195 .504,.435zm.504-.072c-.144,.024-.288,.048-.432,.072 .042-.333 .357-.705 .432-.072zm2.667,3.159c-.057,.201-.048,.213-.285,.213 .024-.093 .045-.186 .069-.285 .075,.024 .144,.048 .216,.072zm-6.489-5.964c.069,.024 .144,.051 .216,.072 .093,.357 .288,.18 .504,.072 0,.417-.966,.537-.72-.144z"/>
</svg>
