<svg width="96" xmlns="http://www.w3.org/2000/svg" height="96" viewBox="0 0 96 96" xmlns:xlink="http://www.w3.org/1999/xlink">
<path d="m79.002,96c-.075-43.053-37.641-78.237-79.002-78.318v-17.682c50.748,0 96,43.182 96,96h-16.998zm-14.577-.006h-16.989c.057-10.572-5.313-22.404-13.812-31.263-8.451-8.931-23.43-14.559-33.582-14.505v-17.676c31.695,.684 63.738,30.621 64.383,63.444zm-52.377-24.003c6.621,0 11.988,5.373 11.988,12 0,6.624-5.367,11.997-11.988,11.997s-11.988-5.373-11.988-11.997c0-6.627 5.367-12 11.988-12z"/>
</svg>
