<svg width="96" xmlns="http://www.w3.org/2000/svg" height="96" viewBox="0 0 96 96" xmlns:xlink="http://www.w3.org/1999/xlink">
<path d="m87,0h-78c-1.656,0-3,1.344-3,3v90c0,1.659 1.344,3 3,3h78c1.659,0 3-1.341 3-3v-90c0-1.656-1.341-3-3-3zm-72,84c-1.656,0-3-1.341-3-3s1.344-3 3-3 3,1.341 3,3-1.344,3-3,3zm0-12c-1.656,0-3-1.341-3-3s1.344-3 3-3 3,1.341 3,3-1.344,3-3,3zm0-12c-1.656,0-3-1.341-3-3s1.344-3 3-3 3,1.341 3,3-1.344,3-3,3zm0-12c-1.656,0-3-1.344-3-3s1.344-3 3-3 3,1.344 3,3-1.344,3-3,3zm0-12c-1.656,0-3-1.344-3-3s1.344-3 3-3 3,1.344 3,3-1.344,3-3,3zm0-12c-1.656,0-3-1.344-3-3s1.344-3 3-3 3,1.344 3,3-1.344,3-3,3zm0-12c-1.656,0-3-1.344-3-3s1.344-3 3-3 3,1.344 3,3-1.344,3-3,3zm57,75c0,1.659-1.341,3-3,3h-42c-1.656,0-3-1.341-3-3v-30c0-1.659 1.344-3 3-3h42c1.659,0 3,1.341 3,3v30zm0-42c0,1.656-1.341,3-3,3h-42c-1.656,0-3-1.344-3-3v-36c0-1.656 1.344-3 3-3h42c1.659,0 3,1.344 3,3v36zm9,39c-1.659,0-3-1.341-3-3s1.341-3 3-3 3,1.341 3,3-1.341,3-3,3zm0-12c-1.659,0-3-1.341-3-3s1.341-3 3-3 3,1.341 3,3-1.341,3-3,3zm0-12c-1.659,0-3-1.341-3-3s1.341-3 3-3 3,1.341 3,3-1.341,3-3,3zm0-12c-1.659,0-3-1.344-3-3s1.341-3 3-3 3,1.344 3,3-1.341,3-3,3zm0-12c-1.659,0-3-1.344-3-3s1.341-3 3-3 3,1.344 3,3-1.341,3-3,3zm0-12c-1.659,0-3-1.344-3-3s1.341-3 3-3 3,1.344 3,3-1.341,3-3,3zm0-12c-1.659,0-3-1.344-3-3s1.341-3 3-3 3,1.344 3,3-1.341,3-3,3z"/>
</svg>
