<svg width="96" xmlns="http://www.w3.org/2000/svg" height="96" viewBox="0 0 96 96" xmlns:xlink="http://www.w3.org/1999/xlink">
<path d="m96,14.718c0,11.295-30.303,37.743-35.961,49.041v23.367c0,.063-.036,.108-.042,.171v2.703c0,3.312-2.688,6-5.997,6h-12c-3.312,0-6-2.688-6-6v-2.697c-.006-.063-.045-.108-.045-.177v-23.367c-5.649-11.298-35.955-37.746-35.955-49.041h.087c-.018-.126-.087-.234-.087-.354 0-6.423 21.501-14.364 48-14.364s48,7.941 48,14.364c0,.12-.069,.228-.09,.354h.09zm-47.49-8.766c-23.253,0-42.552,3.735-42.552,10.584 0,6.846 19.299,13.515 42.552,13.515 23.256,0 41.43-6.669 41.43-13.515-.003-6.849-18.174-10.584-41.43-10.584z"/>
</svg>
