<svg width="96" xmlns="http://www.w3.org/2000/svg" height="96" viewBox="0 0 96 96" xmlns:xlink="http://www.w3.org/1999/xlink">
<path d="m90,96h-84c-3.312,0-6-2.688-6-6v-84c0-3.312 2.688-6 6-6h72l18,18v72c0,3.312-2.688,6-6,6zm-66-15c0,1.659 1.344,3 3,3h42c1.659,0 3-1.341 3-3v-24c0-1.659-1.341-3-3-3h-42c-1.656,0-3,1.341-3,3v24zm42-66c0-1.659-1.341-3-3-3s-3,1.341-3,3v9c0,1.659 1.341,3 3,3s3-1.341 3-3v-9zm18,6l-9-9h-3v21c0,1.659-1.341,3-3,3h-42c-1.656,0-3-1.341-3-3v-21h-9c-1.656,0-3,1.341-3,3v66c0,1.659 1.344,3 3,3h3v-33c0-1.659 1.344-3 3-3h54c1.659,0 3,1.341 3,3v33h3c1.659,0 3-1.341 3-3v-60z"/>
</svg>
