<svg width="96" xmlns="http://www.w3.org/2000/svg" height="96" viewBox="0 0 96 96" xmlns:xlink="http://www.w3.org/1999/xlink">
<path d="m89.802,92.916l-39.717-91.593c-.348-.804-1.143-1.323-2.019-1.323s-1.671,.519-2.016,1.32l-39.852,91.593c-.297,.687-.228,1.47 .18,2.091 .408,.618 1.098,.996 1.839,.996h33.783v-20.004l-11.997-3.999c-1.659,0-3-1.341-3-3s1.341-3 3-3l11.997,3.999v-18.996c0-1.659 1.341-3 3-3h6c1.659,0 3,1.341 3,3v4.5l8.997-4.5c1.659,0 3,1.341 3,3s-1.341,3-3,3l-8.997,4.497v10.5l14.997-9c1.659,0 3,1.341 3,3s-1.341,3-3,3l-14.997,9v18.003h33.783c.744,0 1.434-.375 1.839-.996 .408-.618 .471-1.407 .18-2.088z"/>
</svg>
