<svg width="96" xmlns="http://www.w3.org/2000/svg" height="96" viewBox="0 0 96 96" xmlns:xlink="http://www.w3.org/1999/xlink">
<path d="M96 66c0 3.312-2.688 6-6 6v6.552c3.486 1.242 6 4.536 6 8.448 0 4.968-4.032 9-9 9-3.915 0-7.209-2.514-8.448-6h-6.552c0 3.312-2.688 6-6 6s-6-2.688-6-6h-6c0 3.312-2.688 6-6 6s-6-2.688-6-6h-6c0 3.312-2.688 6-6 6s-6-2.688-6-6h-6.552c-1.239 3.486-4.536 6-8.448 6-4.971 0-9-4.032-9-9 0-3.915 2.511-7.206 6-8.448v-6.552c-3.312 0-6-2.688-6-6s2.688-6 6-6v-6c-3.312 0-6-2.688-6-6s2.688-6 6-6v-6c-3.312 0-6-2.688-6-6s2.688-6 6-6v-6.552c-3.489-1.239-6-4.536-6-8.448 0-4.971 4.029-9 9-9 3.912 0 7.209 2.511 8.448 6h6.552c0-3.312 2.688-6 6-6s6 2.688 6 6h6c0-3.312 2.688-6 6-6s6 2.688 6 6h6c0-3.312 2.688-6 6-6s6 2.688 6 6h6.552c1.239-3.489 4.533-6 8.448-6 4.968 0 9 4.029 9 9 0 3.912-2.514 7.209-6 8.448v6.552c3.312 0 6 2.688 6 6s-2.688 6-6 6v6c3.312 0 6 2.688 6 6s-2.688 6-6 6v6c3.312 0 6 2.688 6 6zM78 21c0-1.656-1.341-3-3-3h-54c-1.656 0-3 1.344-3 3v54c0 1.659 1.344 3 3 3h54c1.659 0 3-1.341 3-3v-54z"/>
</svg>
