<svg width="96" xmlns="http://www.w3.org/2000/svg" height="96" viewBox="0 0 96 96" xmlns:xlink="http://www.w3.org/1999/xlink">
<path d="m87,30.015h-78c-1.659,0-3,1.341-3,3v27c0,1.659 1.341,3 3,3h3v30c0,1.659 1.341,3 3,3h66c1.659,0 3-1.341 3-3v-30h3c1.659,0 3-1.341 3-3v-27c0-1.659-1.341-3-3-3zm-45,57c0,1.659-1.341,3-3,3h-18c-1.659,0-3-1.341-3-3v-24c0-1.659 1.341-3 3-3h18c1.659,0 3,1.341 3,3v24zm0-36c0,1.659-1.341,3-3,3h-24c-1.659,0-3-1.341-3-3v-12c0-1.659 1.341-3 3-3h24c1.659,0 3,1.341 3,3v12zm36,36c0,1.659-1.341,3-3,3h-18c-1.659,0-3-1.341-3-3v-24c0-1.659 1.341-3 3-3h18c1.659,0 3,1.341 3,3v24zm6-36c0,1.659-1.341,3-3,3h-24c-1.659,0-3-1.341-3-3v-12c0-1.659 1.341-3 3-3h24c1.659,0 3,1.341 3,3v12zm-49.323-21.003h27.6c4.731-3.393 9.204-7.809 9.735-12.621 .258-2.349-.246-5.79-4.125-8.853-2.151-1.701-4.335-2.562-6.483-2.562-6.846,0-10.719,8.394-12.813,15.894-2.502-9.561-7.332-21.855-15.627-21.855-2.421,0-4.83,1.047-7.173,3.114-4.62,4.086-5.073,8.334-4.641,11.178 .969,6.357 7.365,11.82 13.527,15.705zm26.727-16.836c.663-0 1.518,.396 2.469,1.152 1.548,1.218 1.461,1.974 1.437,2.223-.288,2.625-5.211,6.75-10.953,10.155 1.689-7.263 4.449-13.53 7.047-13.53zm-31.302-4.506c.753-.666 1.863-1.458 2.862-1.458 3.714,0 7.533,9.75 9.759,19.23-7.014-3.738-14.265-9.039-14.913-13.293-.087-.588-.327-2.163 2.292-4.479z"/>
</svg>
