<svg width="96" xmlns="http://www.w3.org/2000/svg" height="96" viewBox="0 0 96 96" xmlns:xlink="http://www.w3.org/1999/xlink">
<path d="m90,78c-3.312,0-6-2.688-6-6v-24c0-19.881-16.119-36-36-36-19.881,0-36,16.119-36,36v24c0,3.312-2.688,6-6,6s-6-2.688-6-6v-24c0-26.511 21.492-48 48-48s48,21.489 48,48v24c0,3.312-2.688,6-6,6zm-69-24h6c1.656,0 3,1.341 3,3v30c0,1.659-1.344,3-3,3h-6c-1.656,0-3-1.341-3-3v-30c0-1.659 1.344-3 3-3zm48,0h6c1.659,0 3,1.341 3,3v30c0,1.659-1.341,3-3,3h-6c-1.659,0-3-1.341-3-3v-30c0-1.659 1.341-3 3-3z"/>
</svg>
