<svg width="96" xmlns="http://www.w3.org/2000/svg" height="96" viewBox="0 0 96 96" xmlns:xlink="http://www.w3.org/1999/xlink">
<path d="m69,6c-7.212,0-12.993,2.589-18.09,7.689-.003,.003-.006,.006-.009,.009h-.003l-2.898,3.651-2.898-3.429c-.003-.003-.006-.006-.009-.009h-.003c-5.1-5.103-10.878-7.911-18.09-7.911s-13.992,2.808-19.092,7.908c-5.097,5.1-7.908,11.88-7.908,19.092 0,7.206 2.805,13.986 7.899,19.083l35.841,36.141c1.125,1.137 2.661,1.776 4.26,1.776s3.135-.639 4.26-1.776l35.838-36.141c5.094-5.097 7.902-11.874 7.902-19.083 0-7.212-2.811-13.992-7.908-19.092-5.1-5.1-11.88-7.908-19.092-7.908z"/>
</svg>
