<svg width="96" xmlns="http://www.w3.org/2000/svg" height="96" viewBox="0 0 96 96" xmlns:xlink="http://www.w3.org/1999/xlink">
<path d="m39,54c1.656,0 3-1.341 3-3s-1.344-3-3-3-3,1.341-3,3 1.344,3 3,3zm9-12c1.659,0 3-1.341 3-3s-1.341-3-3-3-3,1.341-3,3 1.341,3 3,3zm-9-12c1.656,0 3-1.341 3-3s-1.344-3-3-3-3,1.341-3,3 1.344,3 3,3zm18,0c1.659,0 3-1.341 3-3s-1.341-3-3-3-3,1.341-3,3 1.341,3 3,3zm-27,12c1.656,0 3-1.341 3-3s-1.344-3-3-3-3,1.341-3,3 1.344,3 3,3zm45-12c1.659,0 3-1.341 3-3s-1.341-3-3-3-3,1.341-3,3 1.341,3 3,3zm-9,12c1.659,0 3-1.341 3-3s-1.341-3-3-3-3,1.341-3,3 1.341,3 3,3zm-9,12c1.659,0 3-1.341 3-3s-1.341-3-3-3-3,1.341-3,3 1.341,3 3,3zm24-18c-1.659,0-3,1.341-3,3s1.341,3 3,3 3-1.341 3-3-1.341-3-3-3zm9-24h-84c-3.312,0-6,2.688-6,6v60c0,3.312 2.688,6 6,6h84c3.312,0 6-2.688 6-6v-60c0-3.312-2.688-6-6-6zm0,63c0,1.659-1.341,3-3,3h-78c-1.656,0-3-1.341-3-3v-54c0-1.659 1.344-3 3-3h78c1.659,0 3,1.341 3,3v54zm-21-9h-42c-1.656,0-3,1.341-3,3s1.344,3 3,3h42c1.659,0 3-1.341 3-3s-1.341-3-3-3zm-54-30c-1.656,0-3,1.341-3,3s1.344,3 3,3 3-1.341 3-3-1.344-3-3-3zm6,12c-1.656,0-3,1.341-3,3s1.344,3 3,3 3-1.341 3-3-1.344-3-3-3zm0-18c1.656,0 3-1.341 3-3s-1.344-3-3-3-3,1.341-3,3 1.344,3 3,3zm54,18c-1.659,0-3,1.341-3,3s1.341,3 3,3 3-1.341 3-3-1.341-3-3-3z"/>
</svg>
