<svg width="96" xmlns="http://www.w3.org/2000/svg" height="96" viewBox="0 0 96 96" xmlns:xlink="http://www.w3.org/1999/xlink">
<path d="M78 45c-1.659 0-3 1.341-3 3v21c0 1.659 1.341 3 3 3s3-1.341 3-3v-21c0-1.659-1.341-3-3-3zM69 90h-42c-1.656 0-3 1.341-3 3s1.344 3 3 3h42c1.659 0 3-1.341 3-3s-1.341-3-3-3zM60 3c0-1.659-1.341-3-3-3h-15c0 0-3 1.341-3 3l-39 36c0 1.659 1.344 3 3 3h36c-1.659 0-3 4.341-3 6v36c0 1.659 1.341 3 3 3h18c1.659 0 3-1.341 3-3v-36c0-1.659-1.341-6-3-6h36c1.659 0 3-1.341 3-3l-36-36z"/>
</svg>
