<svg width="96" xmlns="http://www.w3.org/2000/svg" height="96" viewBox="0 0 96 96" xmlns:xlink="http://www.w3.org/1999/xlink">
<path d="m21,72h-18c-1.659,0-3,1.341-3,3v18c0,1.659 1.341,3 3,3h18c1.659,0 3-1.341 3-3v-18c0-1.659-1.341-3-3-3zm-3,15c0,1.659-1.341,3-3,3h-6c-1.659,0-3-1.341-3-3v-6c0-1.659 1.341-3 3-3h6c1.659,0 3,1.341 3,3v6zm75-9h-54c-1.659,0-3,1.341-3,3v6c0,1.659 1.341,3 3,3h54c1.659,0 3-1.341 3-3v-6c0-1.659-1.341-3-3-3zm0-36h-54c-1.659,0-3,1.341-3,3v6c0,1.659 1.341,3 3,3h54c1.659,0 3-1.341 3-3v-6c0-1.659-1.341-3-3-3zm-72-42h-18c-1.659,0-3,1.341-3,3v18c0,1.659 1.341,3 3,3h18c1.659,0 3-4.341 3-6v-15c0-1.659-1.341-3-3-3zm-3,15c0,1.659-1.341,3-3,3h-6c-1.659,0-3-1.341-3-3v-6c0-1.659 1.341-3 3-3h6c1.659,0 3,1.341 3,3v6zm3,21h-18c-1.659,0-3,1.341-3,3v18c0,1.659 1.341,3 3,3h18c1.659,0 3-1.341 3-3v-18c0-1.659-1.341-3-3-3zm-3,15c0,1.659-1.341,3-3,3h-6c-1.659,0-3-1.341-3-3v-6c0-1.659 1.341-3 3-3h6c1.659,0 3,1.341 3,3v6zm75-45h-54c-1.659,0-3,1.341-3,3v6c0,1.659 1.341,3 3,3h54c1.659,0 3-1.341 3-3v-6c0-1.659-1.341-3-3-3z"/>
</svg>
