<svg width="96" xmlns="http://www.w3.org/2000/svg" height="96" viewBox="0 0 96 96" xmlns:xlink="http://www.w3.org/1999/xlink">
<path d="m84,45h-.147c-1.476,15.825-14.277,33-29.853,33v12h18c1.659,0 3,1.341 3,3s-1.341,3-3,3h-48c-1.659,0-3-1.341-3-3s1.341-3 3-3h18v-12c-15.576,0-28.374-17.175-29.853-33h-.147v-18c0-3.312 2.688-6 6-6s6,2.688 6,6v15c0,13.254 10.746,24 24,24s24-10.746 24-24v-15c0-3.312 2.688-6 6-6s6,2.688 6,6v18zm-36,9c-8.286,0-12-6.714-12-15v-24c0-8.283 3.714-15 12-15s12,6.717 12,15v24c0,8.286-3.714,15-12,15zm4.5-12c.828,0 1.5-.672 1.5-1.5 0-.825-.672-1.5-1.5-1.5s-1.5,.675-1.5,1.5c0,.828 .672,1.5 1.5,1.5zm-9-18c-.828,0-1.5,.675-1.5,1.5 0,.828 .672,1.5 1.5,1.5s1.5-.672 1.5-1.5c0-.825-.672-1.5-1.5-1.5zm1.5-4.5c0-.828-.672-1.5-1.5-1.5s-1.5,.672-1.5,1.5c0,.828 .672,1.5 1.5,1.5s1.5-.672 1.5-1.5zm1.5,13.5c-.828,0-1.5,.675-1.5,1.5 0,.828 .672,1.5 1.5,1.5s1.5-.672 1.5-1.5c0-.825-.672-1.5-1.5-1.5zm3,0c.828,0 1.5-.672 1.5-1.5 0-.825-.672-1.5-1.5-1.5s-1.5,.675-1.5,1.5c0,.828 .672,1.5 1.5,1.5zm-3-3c.828,0 1.5-.672 1.5-1.5 0-.825-.672-1.5-1.5-1.5s-1.5,.675-1.5,1.5c0,.828 .672,1.5 1.5,1.5zm-3,0c-.828,0-1.5,.675-1.5,1.5 0,.828 .672,1.5 1.5,1.5s1.5-.672 1.5-1.5c0-.825-.672-1.5-1.5-1.5zm3-6c.828,0 1.5-.672 1.5-1.5s-.672-1.5-1.5-1.5-1.5,.672-1.5,1.5c0,.828 .672,1.5 1.5,1.5zm3-3c.828,0 1.5-.672 1.5-1.5s-.672-1.5-1.5-1.5-1.5,.672-1.5,1.5c0,.828 .672,1.5 1.5,1.5zm0,3c-.828,0-1.5,.675-1.5,1.5 0,.828 .672,1.5 1.5,1.5s1.5-.672 1.5-1.5c0-.825-.672-1.5-1.5-1.5zm3,0c.828,0 1.5-.672 1.5-1.5s-.672-1.5-1.5-1.5-1.5,.672-1.5,1.5c0,.828 .672,1.5 1.5,1.5zm0,3c-.828,0-1.5,.675-1.5,1.5 0,.828 .672,1.5 1.5,1.5s1.5-.672 1.5-1.5c0-.825-.672-1.5-1.5-1.5zm0,6c-.828,0-1.5,.675-1.5,1.5 0,.828 .672,1.5 1.5,1.5s1.5-.672 1.5-1.5c0-.825-.672-1.5-1.5-1.5zm-3,6c.828,0 1.5-.672 1.5-1.5 0-.825-.672-1.5-1.5-1.5s-1.5,.675-1.5,1.5c0,.828 .672,1.5 1.5,1.5zm-3,3c.828,0 1.5-.672 1.5-1.5 0-.825-.672-1.5-1.5-1.5s-1.5,.675-1.5,1.5c0,.828 .672,1.5 1.5,1.5zm-3-3c.828,0 1.5-.672 1.5-1.5 0-.825-.672-1.5-1.5-1.5s-1.5,.675-1.5,1.5c0,.828 .672,1.5 1.5,1.5zm0-27c-.828,0-1.5,.672-1.5,1.5s.672,1.5 1.5,1.5 1.5-.672 1.5-1.5c0-.828-.672-1.5-1.5-1.5zm3,3c-.828,0-1.5,.672-1.5,1.5s.672,1.5 1.5,1.5 1.5-.672 1.5-1.5c0-.828-.672-1.5-1.5-1.5zm3-3c-.828,0-1.5,.672-1.5,1.5s.672,1.5 1.5,1.5 1.5-.672 1.5-1.5c0-.828-.672-1.5-1.5-1.5zm3,3c-.828,0-1.5,.672-1.5,1.5s.672,1.5 1.5,1.5 1.5-.672 1.5-1.5c0-.828-.672-1.5-1.5-1.5z"/>
</svg>
