<svg width="96" xmlns="http://www.w3.org/2000/svg" height="96" viewBox="0 0 96 96" xmlns:xlink="http://www.w3.org/1999/xlink">
<path d="m66,0h-36c-6.627,0-12,5.373-12,12v72c0,6.627 5.373,12 12,12h36c6.627,0 12-5.373 12-12v-72c0-6.627-5.373-12-12-12zm-16.5,9h9c.825,0 1.5,.672 1.5,1.5s-.675,1.5-1.5,1.5h-9c-.828,0-1.5-.672-1.5-1.5s.672-1.5 1.5-1.5zm-10.5-3c1.656,0 3,1.344 3,3s-1.344,3-3,3-3-1.344-3-3 1.344-3 3-3zm15,81c0,1.659-1.341,3-3,3h-6c-1.656,0-3-1.341-3-3v-6c0-1.659 1.344-3 3-3h6c1.659,0 3,1.341 3,3v6zm18-18c0,1.659-1.341,3-3,3h-42c-1.656,0-3-1.341-3-3v-48c0-1.656 1.344-3 3-3h42c1.659,0 3,1.344 3,3v48z"/>
</svg>
