<svg width="96" xmlns="http://www.w3.org/2000/svg" height="96" viewBox="0 0 96 96" xmlns:xlink="http://www.w3.org/1999/xlink">
<path d="m90,72c0,0-24.75,0-30,0s6,18 6,18c0,3.312-2.688,6-6,6h-24c-3.312,0-6-2.688-6-6 0,0 11.436-18 6-18s-30,0-30,0c-3.312,0-6-2.688-6-6v-60c0-3.312 2.688-6 6-6h84c3.312,0 6,2.688 6,6v60c0,3.312-2.688,6-6,6zm-42-3c3.312,0 6-2.688 6-6s-2.688-6-6-6-6,2.688-6,6 2.688,6 6,6zm42-57c0-3.312-2.688-6-6-6h-72c-3.312,0-6,2.688-6,6v36c0,3.312 2.688,6 6,6h72c3.312,0 6-2.688 6-6v-36z"/>
</svg>
