<svg width="96" xmlns="http://www.w3.org/2000/svg" height="96" viewBox="0 0 96 96" xmlns:xlink="http://www.w3.org/1999/xlink">
<path d="m38.853,83.931c-.075,.075-.153,.153-.225,.228-7.524,7.197-19.491,7.338-26.748,.288-7.698-7.245-7.851-17.739 .132-25.812 .063-.063 .114-.129 .177-.192 .075-.069 .147-.144 .219-.213l49.965-48.564c4.578-4.356 11.838-4.434 16.242-.153 2.649,3.774 4.317,11.367-.147,15.783l-.411,.402-4.689,4.551-4.302,4.185-40.503,39.315-.114-.141-.105,.117-.207,.228c-.018,.012-.039,.024-.054,.042-1.674,1.512-4.257,1.524-5.838-.012-1.566-1.524-1.563-3.756-.003-5.418 .051-.048 .081-.105 .132-.153l37.797-36.729-4.551-4.413-33.255,32.319-4.038,4.407v.006c-.012,.012-.024,.018-.039,.036-.036,.036-.066,.069-.102,.108-4.149,4.143-4.722,10.164-.63,14.145 4.095,3.975 10.806,3.66 15.066-.375l.006,.006 .084-.087c.009-.006 .018-.012 .024-.018 .009-.006 .015-.018 .021-.024l45.156-43.128 4.683-4.557 .417-.399-.006-.006c7.068-6.969 3.711-20.022 .294-24.744-6.954-6.756-18.402-6.591-25.569,.378-.105,.099-.192,.21-.294,.315l-.012-.009-49.56,48.174c-.039,.042-.081,.069-.123,.111-.069,.063-.132,.147-.201,.216l-.072,.069 .003,.006c-9.831,9.846-9.993,25.329-.276,34.782 9.813,9.537 25.974,9.297 36.09-.534 .042-.042 .072-.081 .114-.123l.012,.012 52.587-51.105-4.548-4.419-52.599,51.099z"/>
</svg>
