<svg width="96" xmlns="http://www.w3.org/2000/svg" height="96" viewBox="0 0 96 96" xmlns:xlink="http://www.w3.org/1999/xlink">
<path d="m6.378,3.564c3.834-3.843 15.423-4.485 15.51-2.451 .087,2.031 10.437,24.573 10.527,26.607 .09,2.031-6.822,8.961-8.844,10.989-2.004,2.007 13.524,19.599 13.818,19.932 .33,.297 17.88,15.861 19.884,13.851 2.022-2.028 8.937-8.955 10.959-8.865 2.028,.087 24.519,10.461 26.547,10.554 2.028,.087 1.389,11.7-2.445,15.546-3.279,3.285-20.256,15.213-49.776-6.087-3.237-1.866-8.364-6.147-16.14-13.938-.003-.003-.009-.009-.015-.012-.006-.009-.012-.012-.018-.018s-.012-.012-.018-.018c-.003-.006-.009-.012-.012-.015-7.77-7.794-12.042-12.936-13.905-16.179-21.249-29.592-9.348-46.611-6.072-49.896z"/>
</svg>
