<svg width="96" xmlns="http://www.w3.org/2000/svg" height="96" viewBox="0 0 96 96" xmlns:xlink="http://www.w3.org/1999/xlink">
<path d="m60,36l-18,30-11.91-8.688-.09-.312-.708-.273 .552,.405-17.844,14.868v6h72v-6l-9-27-15-9zm-33,3c4.968,0 9-4.029 9-9s-4.032-9-9-9-9,4.029-9,9 4.032,9 9,9zm66-33h-90c-1.656,0-3,1.344-3,3v78c0,1.659 1.344,3 3,3h90c1.659,0 3-1.341 3-3v-78c0-1.656-1.341-3-3-3zm-3,75c0,1.659-1.341,3-3,3h-78c-1.656,0-3-1.341-3-3v-66c0-1.656 1.344-3 3-3h78c1.659,0 3,1.344 3,3v66z"/>
</svg>
