<svg width="96" xmlns="http://www.w3.org/2000/svg" height="96" viewBox="0 0 96 96" xmlns:xlink="http://www.w3.org/1999/xlink">
<path d="m95.145,86.859c1.143,1.143 1.143,2.997 0,4.143l-4.143,4.143c-1.146,1.143-3,1.143-4.143,0l-29.004-29.004c-.315-.315-.525-.687-.666-1.083-5.949,4.347-13.254,6.942-21.189,6.942-19.881,0-36-16.119-36-36 0-19.881 16.119-36 36-36 19.881,0 36,16.119 36,36 0,7.935-2.595,15.24-6.942,21.189 .396,.141 .768,.348 1.083,.666l29.004,29.004zm-59.145-74.859c-13.254,0-24,10.746-24,24s10.746,24 24,24 24-10.746 24-24c0-13.254-10.746-24-24-24z"/>
</svg>
