<svg width="96" xmlns="http://www.w3.org/2000/svg" height="96" viewBox="0 0 96 96" xmlns:xlink="http://www.w3.org/1999/xlink">
<path d="m57.951,21.015h3.093c5.997-8.256-4.116-12.009 0-21.015h-3.093c-3.597,8.856 4.863,12.309 0,21.015zm-12.069,3.003h3.144c-4.182-9.006 6.093-15.762 0-24.018h-3.144c4.941,8.706-3.657,15.162 0,24.018zm45.519,52.233c-.6-2.313-1.317-3.495-4.593-3.753-1.245-.081-2.436-.153-3.672-.234 .033-.06 .054-.147 .081-.21h-9.57c-.834,0-1.512-.672-1.512-1.5 0-.831 .678-1.503 1.512-1.503h10.218c.21-2.55-.093-5.679-.999-7.311-1.341-2.583-2.589-4.683-3.801-6.342-2.091-2.61-5.967-4.359-8.832-5.301-.336-.087-.744-.165-1.185-.237-.153,.669-.726,1.179-1.443,1.179h-9.063c-.834,0-1.512-.672-1.512-1.503 0-.351 1.227-.672 2.688-.93-1.818-4.299 .333-9.576 .333-9.576 0-3.315-6.045-10.005-6.045-6.003s-14.379,0-14.379,0c-1.953-2.187-3.747-6.003-3.747-6.003s-5.268,2.976-5.916,6.768c-1.869,1.02-3.15,2.97-3.15,5.241v3c0,1.401 .249,3.75 .876,6.003h6.678c.834,0 1.512,.672 1.512,1.5 0,.831-.678,1.503-1.512,1.503h-9.057c-.678,0-1.227-.444-1.422-1.056-1.998-.435-4.02-1.002-6.072-1.779-3.366,.069-6.099,2.709-6.099,5.994v5.937c.003,1.107 .318,2.154 .873,3.063 .192-.09 .408-.15 .636-.15h12.084c.834,0 1.509,.672 1.509,1.5s-.675,1.503-1.509,1.503h-9.249c.264,.102 .531,.204 .813,.279-1.686-.018-3.375-.075-5.058-.075-2.946,.015-6.972,2.547-8.337,4.842-2.037,3.564-3.099,6.426-3.468,12.051-.198,3.756 2.355,12.852 5.187,12.852s81.645-.066 81.645-.066 8.985-5.583 9.135-9.021c.354-5.154-3.84-7.17-4.578-10.662zm-56.577-58.239h3.144c-4.941-8.706 3.657-9.156 0-18.012h-3.144c4.179,9.006-6.09,9.756 0,18.012z"/>
</svg>
