<svg width="96" xmlns="http://www.w3.org/2000/svg" height="96" viewBox="0 0 96 96" xmlns:xlink="http://www.w3.org/1999/xlink">
<path d="m89.31,55.401c.426-2.406 .69-4.869 .69-7.401 0-23.196-18.804-42-42-42-2.532,0-4.995,.264-7.401,.69-4.311-4.134-10.155-6.69-16.599-6.69-13.254,0-24,10.746-24,24 0,6.444 2.556,12.288 6.69,16.599-.426,2.406-.69,4.869-.69,7.401 0,23.196 18.804,42 42,42 2.532,0 4.995-.261 7.401-.69 4.311,4.134 10.155,6.69 16.599,6.69 13.254,0 24-10.746 24-24 0-6.444-2.556-12.288-6.69-16.599zm-22.815,9.411c-1.662,2.262-4.11,4.056-7.287,5.322-3.147,1.257-6.915,1.896-11.199,1.896-5.151,0-9.468-.873-12.837-2.589-2.409-1.254-4.395-2.943-5.904-5.049-1.524-2.112-2.295-4.209-2.295-6.237 0-1.263 .501-2.355 1.494-3.255 .981-.894 2.241-1.338 3.741-1.338 1.233,0 2.298,.351 3.159,1.056 .825,.681 1.533,1.677 2.103,2.958 .636,1.404 1.326,2.583 2.058,3.51 .705,.903 1.716,1.656 3.009,2.244 1.299,.591 3.054,.894 5.208,.894 2.961,0 5.394-.609 7.221-1.812 1.785-1.173 2.652-2.583 2.652-4.311 0-1.362-.453-2.436-1.383-3.273-.978-.879-2.265-1.563-3.822-2.034-1.632-.486-3.846-1.023-6.582-1.569-3.72-.768-6.879-1.677-9.396-2.703-2.571-1.056-4.644-2.517-6.159-4.338-1.539-1.86-2.319-4.182-2.319-6.921 0-2.607 .819-4.959 2.436-6.984 1.602-2.016 3.945-3.582 6.96-4.653 2.973-1.062 6.513-1.596 10.518-1.596 3.198,0 6.018,.357 8.367,1.062 2.364,.705 4.353,1.665 5.925,2.841 1.572,1.188 2.748,2.451 3.483,3.774 .741,1.326 1.122,2.655 1.122,3.936 0,1.236-.495,2.355-1.47,3.333-.984,.981-2.22,1.479-3.684,1.479-1.326,0-2.367-.312-3.087-.924-.672-.573-1.368-1.464-2.139-2.745-.897-1.635-1.977-2.925-3.219-3.834-1.2-.885-3.216-1.326-5.985-1.326-2.568,0-4.662,.495-6.21,1.476-1.497,.942-2.223,2.025-2.223,3.309 0,.789 .234,1.443 .717,2.007 .507,.606 1.227,1.125 2.136,1.566 .939,.453 1.914,.816 2.886,1.074 .996,.267 2.667,.66 4.959,1.17 2.901,.603 5.568,1.275 7.926,2.001 2.391,.738 4.446,1.641 6.135,2.697 1.716,1.074 3.075,2.454 4.044,4.107 .966,1.659 1.455,3.702 1.455,6.078-.006,2.835-.846,5.439-2.514,7.701z"/>
</svg>
