<svg width="96" xmlns="http://www.w3.org/2000/svg" height="96" viewBox="0 0 96 96" xmlns:xlink="http://www.w3.org/1999/xlink">
<path d="m38.133,77.895c-19.734,15.72-25.056,11.919-15.963-11.421-25.35,1.308-27.384-4.857-6.099-18.474-21.285-13.62-19.251-19.779 6.099-18.477-9.09-23.337-3.768-27.144 15.963-11.418 6.576-24.138 13.155-24.138 19.734,0 19.731-15.726 25.056-11.919 15.96,11.418 25.353-1.302 27.384,4.857 6.099,18.477 21.285,13.617 19.254,19.782-6.099,18.474 9.093,23.337 3.771,27.141-15.96,11.421-6.576,24.141-13.158,24.141-19.734,0z"/>
</svg>
