<svg width="96" xmlns="http://www.w3.org/2000/svg" height="96" viewBox="0 0 96 96" xmlns:xlink="http://www.w3.org/1999/xlink">
<path d="m67.878,59.823l-.03-.018-.198,.159 .282,.042c0,0 12.156,30.612 9.609,35.049-5.007,3.795-26.526-16.785-29.322-19.503l.018,.105c0,0-24.177,24.144-29.775,19.827-3.354-2.436 8.841-36.09 8.841-36.09l.057-.009c-4.479-2.559-29.079-19.938-27.261-26.193 .054-3.765 34.242-3.504 35.331-3.357 .132-.765 5.991-29.835 12.573-29.835 6.615,0 12.3,29.754 12.369,30.168h.018l.006,.03 .075-.159c0,0 35.379-.543 35.433,3.153 2.004,6.879-28.026,26.631-28.026,26.631z"/>
</svg>
