<svg width="96" xmlns="http://www.w3.org/2000/svg" height="96" viewBox="0 0 96 96" xmlns:xlink="http://www.w3.org/1999/xlink">
<path d="m90,0h-84c-3.312,0-6,2.688-6,6v60c0,3.312 2.688,6 6,6h24l-12,24h3l21.6-24h10.8l21.6,24h3l-12-24h24c3.312,0 6-2.688 6-6v-60c0-3.312-2.688-6-6-6zm0,63c0,1.659-1.341,3-3,3h-78c-1.659,0-3-1.341-3-3v-54c0-1.659 1.341-3 3-3h78c1.659,0 3,1.341 3,3v54zm-27.366-16.107l-13.563-34.887-14.814,27.87-8.268-8.505-13.989,8.718 3.948,2.274 8.964-5.586 10.815,11.136 12.525-23.559 13.848,35.637 11.811-24.864 4.812,10.242 5.277-.885-10.062-21.396-11.304,23.805z"/>
</svg>
