<svg width="96" xmlns="http://www.w3.org/2000/svg" height="96" viewBox="0 0 96 96" xmlns:xlink="http://www.w3.org/1999/xlink">
<path d="m48,24c-13.254,0-24,10.746-24,24s10.746,24 24,24 24-10.746 24-24-10.746-24-24-24zm0,42c-9.939,0-18-8.061-18-18s8.061-18 18-18 18,8.061 18,18-8.061,18-18,18zm0-66c-26.511,0-48,21.489-48,48s21.489,48 48,48 48-21.489 48-48-21.489-48-48-48zm0,84c-19.881,0-36-16.119-36-36s16.119-36 36-36 36,16.119 36,36-16.119,36-36,36zm0-45c-4.971,0-9,4.029-9,9s4.029,9 9,9 9-4.029 9-9-4.029-9-9-9z"/>
</svg>
