<svg width="96" xmlns="http://www.w3.org/2000/svg" height="96" viewBox="0 0 96 96" xmlns:xlink="http://www.w3.org/1999/xlink">
<path d="M93 42h-9.519c-2.535-15.060-14.418-26.925-29.481-29.46v-9.54c0-1.659-1.341-3-3-3h-6c-1.659 0-3 1.341-3 3v9.54c-15.063 2.535-26.946 14.4-29.481 29.46h-9.519c-1.659 0-3 1.341-3 3v6c0 1.659 1.341 3 3 3h9.519c2.535 15.060 14.418 26.928 29.481 29.46v9.54c0 1.659 1.341 3 3 3h6c1.659 0 3-1.341 3-3v-9.54c15.063-2.535 26.946-14.403 29.481-29.46h9.519c1.659 0 3-1.341 3-3v-6c0-1.659-1.341-3-3-3zM71.238 42h-17.238v-17.214c8.427 2.175 15.063 8.793 17.238 17.214zM42 24.786v17.214h-17.241c2.175-8.421 8.814-15.039 17.241-17.214zM24.759 54h17.241v17.211c-8.427-2.169-15.066-8.787-17.241-17.211zM54 71.211v-17.211h17.238c-2.175 8.424-8.811 15.042-17.238 17.211z"/>
</svg>
