<svg width="96" xmlns="http://www.w3.org/2000/svg" height="96" viewBox="0 0 96 96" xmlns:xlink="http://www.w3.org/1999/xlink">
<path d="m48,0c-26.511,0-48,21.492-48,48s21.489,48 48,48 48-21.492 48-48c0-26.508-21.489-48-48-48zm6,83.46v-11.46c0-1.659-1.341-3-3-3h-6c-1.659,0-3,1.341-3,3v11.46c-15.063-2.532-26.946-14.4-29.481-29.46h11.481c1.659,0 3-1.341 3-3v-6c0-1.659-1.341-3-3-3h-11.46c2.532-15.066 14.4-26.946 29.46-29.481v11.481c0,1.656 1.341,3 3,3h6c1.659,0 3-1.344 3-3v-11.481c15.06,2.535 26.928,14.415 29.46,29.481h-11.46c-1.659,0-3,1.341-3,3v6c0,1.659 1.341,3 3,3h11.481c-2.535,15.06-14.418,26.928-29.481,29.46z"/>
</svg>
