<svg width="96" xmlns="http://www.w3.org/2000/svg" height="96" viewBox="0 0 96 96" xmlns:xlink="http://www.w3.org/1999/xlink">
<path d="m84.174,8.994c-1.965,.009-4.179,.033-7.128,.102-2.469,.06-4.785,1.47-4.389,3.099 3.066,14.79 3.09,29.751 .402,44.541-.342,1.629 1.836,3.042 4.188,3.099 2.814,.069 4.983,.093 6.936,.102 1.605,.006 2.811-1.338 2.817-2.994v-44.955c-.012-1.656-1.206-3-2.826-2.994zm-18.174,2.994h-.303c-1.389-6.84-7.44-11.988-14.697-11.988h-24c-7.257,0-13.308,5.148-14.697,11.988h23.697c3.312,0 6,2.685 6,5.994h-24c-3.312,0-6,2.685-6,5.994s2.688,5.994 6,5.994h24v5.994h-27c-3.312,0-6,2.685-6,5.994s2.688,5.994 6,5.994h27v5.994h-27c-3.312,0-6,2.685-6,5.994s2.688,5.994 6,5.994h26.25l-.375,4.497-1.875,14.988c0,5.793 4.701,10.488 10.5,10.488 5.802,0 10.5,1.299 10.5-4.497l1.713-10.488 1.284-8.964 3.003-19.509c0-.312-.045-.552-.105-.774l.105-.726 2.742-1.8c0,0 .258-.771 .258-1.197v-32.967c0-1.656-1.341-2.997-3-2.997z"/>
</svg>
