<svg width="96" xmlns="http://www.w3.org/2000/svg" height="96" viewBox="0 0 96 96" xmlns:xlink="http://www.w3.org/1999/xlink">
<path d="m22.941,39.207c.345-1.632-1.839-3.045-4.188-3.102-2.814-.069-4.983-.093-6.936-.102-1.605-.006-2.808,1.341-2.817,2.997v45c.009,1.656 1.209,3.003 2.826,2.997 1.965-.009 4.179-.033 7.131-.102 2.466-.06 4.782-1.47 4.386-3.102-3.066-14.805-3.09-29.781-.402-44.586zm58.059,8.793h-27v-6h27c3.312,0 6-2.688 6-6s-2.688-6-6-6h-26.25l.375-4.506 1.875-14.994c0-5.799-4.698-10.5-10.5-10.5-5.799,0-10.5-1.299-10.5,4.5l-1.716,10.5-1.281,8.973-3.003,19.527c0,.309 .045,.552 .105,.774l-.105,.726-2.742,1.803c0,0-.258,.768-.258,1.197v33c0,1.659 1.344,3 3,3h.303c1.389,6.846 7.44,12 14.697,12h24c7.257,0 13.308-5.154 14.697-12h-23.697c-3.312,0-6-2.688-6-6h24c3.312,0 6-2.688 6-6s-2.688-6-6-6h-24v-6h27c3.312,0 6-2.688 6-6s-2.688-6-6-6z"/>
</svg>
