<svg width="96" xmlns="http://www.w3.org/2000/svg" height="96" viewBox="0 0 96 96" xmlns:xlink="http://www.w3.org/1999/xlink">
<path d="m63,84c1.659,0 3-1.341 3-3v-42c0-1.659-1.341-3-3-3s-3,1.341-3,3v42c0,1.659 1.341,3 3,3zm-30,0c1.656,0 3-1.341 3-3v-42c0-1.659-1.344-3-3-3s-3,1.341-3,3v42c0,1.659 1.344,3 3,3zm54-66h-12v-6c0-6.627-5.373-12-12-12h-30c-6.627,0-12,5.373-12,12v6h-12l-9,9c0,1.659 1.344,3 3,3h9v60c0,3.312 2.688,6 6,6h60c3.312,0 6-2.688 6-6v-60h9c1.659,0 3-1.341 3-3l-9-9zm-57-6c0-3.312 2.688-6 6-6h24c3.312,0 6,2.688 6,6v6h-36v-6zm48,75c0,1.659-1.341,3-3,3h-54c-1.656,0-3-1.341-3-3v-57h60v57zm-30-3c1.659,0 3-1.341 3-3v-42c0-1.659-1.341-3-3-3s-3,1.341-3,3v42c0,1.659 1.341,3 3,3z"/>
</svg>
