<svg width="96" xmlns="http://www.w3.org/2000/svg" height="96" viewBox="0 0 96 96" xmlns:xlink="http://www.w3.org/1999/xlink">
<path d="m67.695,12.042c-.564,0-1.113,.063-1.665,.105v5.22c12.873,0 23.31,13.713 23.31,30.633s-10.437,30.633-23.31,30.633v5.22c.552,.042 1.101,.105 1.665,.105 15.636,0 28.305-16.098 28.305-35.958s-12.669-35.958-28.305-35.958zm13.32,35.958c0-10.458-6.354-19.185-14.982-21.915v7.2c4.416,2.631 7.491,8.202 7.491,14.712s-3.075,12.081-7.491,14.712v7.2c8.628-2.724 14.982-11.451 14.982-21.909zm-29.991-48c-1.659,0-3,1.341-3,3l-30.018,33h-15.006c-1.659,0-3,1.341-3,3v24c0,1.659 1.344,3 3,3h15.006l30.015,27c0,1.659 1.341,3 3,3 1.662,0 3.003-1.341 3.003-3v-90c.003-1.659-1.338-3-3-3z"/>
</svg>
