<svg width="96" xmlns="http://www.w3.org/2000/svg" height="96" viewBox="0 0 96 96" xmlns:xlink="http://www.w3.org/1999/xlink">
<path d="m94.728,78.633l-35.997-72c-2.031-4.065-6.183-6.633-10.731-6.633s-8.7,2.568-10.731,6.633l-35.997,72c-1.86,3.72-1.662,8.139 .525,11.679 2.187,3.534 6.048,5.688 10.206,5.688h71.991c4.161,0 8.022-2.154 10.206-5.688 2.187-3.54 2.385-7.959 .528-11.679zm-40.734,2.367c0,1.659-1.341,3-3,3h-6c-1.659,0-3-1.341-3-3v-6c0-1.659 1.341-3 3-3h6c1.659,0 3,1.341 3,3v6zm0-24c0,1.659-1.341,3-3,3h-6c-1.659,0-3-1.341-3-3v-30c0-1.656 1.341-3 3-3h6c1.659,0 3,1.344 3,3v30z"/>
</svg>
