<svg width="96" xmlns="http://www.w3.org/2000/svg" height="96" viewBox="0 0 96 96" xmlns:xlink="http://www.w3.org/1999/xlink">
<path d="m87.144,48.237c-.021,.009-.042,.021-.054,.021 0,.015 0,.036 0,.048-6.216,3.21-11.907,4.485-17.022,4.485-7.743,0-14.166-2.925-19.101-6.537-.03-.021-.069-.048-.093-.075l8.976-34.008c2.838,2.421 9.258,6.951 18.987,6.951 4.899,0 10.623-1.146 17.16-4.272l-8.853,33.387zm-58.995-13.227c-.081,0-.159,0-.243,0-4.644,0-10.17,1.347-16.986,4.392l8.754-33.648c6.633-2.961 12.03-4.155 16.53-4.251 .033,0 .066,0 .102,0 2.646,0 5.037,.345 7.152,.894 4.428,1.236 10.794,5.409 10.794,5.409v.024c-1.824,6.84-7.224,27.108-9.045,33.858-4.752-3.447-9.858-6.597-17.058-6.678zm-3.384,8.199c.576-.054 1.149-.072 1.722-.072 5.052,0 9.663,1.935 12.972,3.792 1.416,.834 2.754,1.743 4.083,2.646-1.176,4.413-7.374,27.573-9.198,34.344-4.917-3.582-10.128-6.762-17.643-6.762-4.563,0-9.987,1.185-16.698,4.149l8.886-33.726c1.011-.45 1.998-.864 2.955-1.242 3.24-1.248 7.854-2.664 12.921-3.129zm43.299,17.466c4.716,0 10.299-.954 16.776-3.495l-8.538,32.67c-7.362,3.324-13.248,4.647-18.171,4.647-7.779,0-18.147-6.999-18.135-6.99l8.859-33.672c2.697,2.355 8.94,6.84 19.209,6.84z"/>
</svg>
