<svg width="96" xmlns="http://www.w3.org/2000/svg" height="96" viewBox="0 0 96 96" xmlns:xlink="http://www.w3.org/1999/xlink">
<path d="m74.946,29.154c1.119,1.119 2.934,1.119 4.05,0l15.849-12.477c2.637,8.292 .774,17.706-5.805,24.285-6.276,6.279-15.138,8.256-23.142,6.144l-18.798,18.798c2.112,8.007 .132,16.866-6.141,23.142-6.579,6.579-15.996,8.442-24.288,5.805l12.483-15.846c1.119-1.122 1.119-2.934 0-4.053l-8.1-8.097c-1.119-1.119-2.934-1.119-4.05,0l-15.849,12.477c-2.637-8.292-.774-17.703 5.802-24.282 6.279-6.279 15.138-8.259 23.145-6.144l18.801-18.801c-2.115-8.004-.135-16.866 6.138-23.142 6.579-6.579 15.996-8.442 24.291-5.808l-12.483,15.852c-1.116,1.116-1.116,2.931 0,4.047l8.097,8.1z"/>
</svg>
